  0
SECTION
  2
HEADER
  9
$ACADVER
  1
AC1032
  9
$ACADMAINTVER
 90
4
  9
$DWGCODEPAGE
  3
ANSI_1252
  9
$LASTSAVEDBY
  1
ezdxf
  9
$REQUIREDVERSIONS
160
0
  9
$INSBASE
 10
0.0
 20
0.0
 30
0.0
  9
$EXTMIN
 10
1e+20
 20
1e+20
 30
1e+20
  9
$EXTMAX
 10
-1e+20
 20
-1e+20
 30
-1e+20
  9
$LIMMIN
 10
0.0
 20
0.0
  9
$LIMMAX
 10
420.0
 20
297.0
  9
$ORTHOMODE
 70
0
  9
$REGENMODE
 70
1
  9
$FILLMODE
 70
1
  9
$QTEXTMODE
 70
0
  9
$MIRRTEXT
 70
1
  9
$LTSCALE
 40
1.0
  9
$ATTMODE
 70
1
  9
$TEXTSIZE
 40
2.5
  9
$TRACEWID
 40
1.0
  9
$TEXTSTYLE
  7
Standard
  9
$CLAYER
  8
0
  9
$CELTYPE
  6
ByLayer
  9
$CECOLOR
 62
256
  9
$CELTSCALE
 40
1.0
  9
$DISPSILH
 70
0
  9
$DIMSCALE
 40
1.0
  9
$DIMASZ
 40
2.5
  9
$DIMEXO
 40
0.625
  9
$DIMDLI
 40
3.75
  9
$DIMRND
 40
0.0
  9
$DIMDLE
 40
0.0
  9
$DIMEXE
 40
1.25
  9
$DIMTP
 40
0.0
  9
$DIMTM
 40
0.0
  9
$DIMTXT
 40
2.5
  9
$DIMCEN
 40
2.5
  9
$DIMTSZ
 40
0.0
  9
$DIMTOL
 70
0
  9
$DIMLIM
 70
0
  9
$DIMTIH
 70
0
  9
$DIMTOH
 70
0
  9
$DIMSE1
 70
0
  9
$DIMSE2
 70
0
  9
$DIMTAD
 70
1
  9
$DIMZIN
 70
8
  9
$DIMBLK
  1

  9
$DIMASO
 70
1
  9
$DIMSHO
 70
1
  9
$DIMPOST
  1

  9
$DIMAPOST
  1

  9
$DIMALT
 70
0
  9
$DIMALTD
 70
3
  9
$DIMALTF
 40
0.03937007874
  9
$DIMLFAC
 40
1.0
  9
$DIMTOFL
 70
1
  9
$DIMTVP
 40
0.0
  9
$DIMTIX
 70
0
  9
$DIMSOXD
 70
0
  9
$DIMSAH
 70
0
  9
$DIMBLK1
  1

  9
$DIMBLK2
  1

  9
$DIMSTYLE
  2
ISO-25
  9
$DIMCLRD
 70
0
  9
$DIMCLRE
 70
0
  9
$DIMCLRT
 70
0
  9
$DIMTFAC
 40
1.0
  9
$DIMGAP
 40
0.625
  9
$DIMJUST
 70
0
  9
$DIMSD1
 70
0
  9
$DIMSD2
 70
0
  9
$DIMTOLJ
 70
0
  9
$DIMTZIN
 70
8
  9
$DIMALTZ
 70
0
  9
$DIMALTTZ
 70
0
  9
$DIMUPT
 70
0
  9
$DIMDEC
 70
2
  9
$DIMTDEC
 70
2
  9
$DIMALTU
 70
2
  9
$DIMALTTD
 70
3
  9
$DIMTXSTY
  7
Standard
  9
$DIMAUNIT
 70
0
  9
$DIMADEC
 70
0
  9
$DIMALTRND
 40
0.0
  9
$DIMAZIN
 70
0
  9
$DIMDSEP
 70
44
  9
$DIMATFIT
 70
3
  9
$DIMFRAC
 70
0
  9
$DIMLDRBLK
  1

  9
$DIMLUNIT
 70
2
  9
$DIMLWD
 70
-2
  9
$DIMLWE
 70
-2
  9
$DIMTMOVE
 70
0
  9
$DIMFXL
 40
1.0
  9
$DIMFXLON
 70
0
  9
$DIMJOGANG
 40
0.785398163397
  9
$DIMTFILL
 70
0
  9
$DIMTFILLCLR
 70
0
  9
$DIMARCSYM
 70
0
  9
$DIMLTYPE
  6

  9
$DIMLTEX1
  6

  9
$DIMLTEX2
  6

  9
$DIMTXTDIRECTION
 70
0
  9
$LUNITS
 70
2
  9
$LUPREC
 70
4
  9
$SKETCHINC
 40
1.0
  9
$FILLETRAD
 40
10.0
  9
$AUNITS
 70
0
  9
$AUPREC
 70
2
  9
$MENU
  1
.
  9
$ELEVATION
 40
0.0
  9
$PELEVATION
 40
0.0
  9
$THICKNESS
 40
0.0
  9
$LIMCHECK
 70
0
  9
$CHAMFERA
 40
0.0
  9
$CHAMFERB
 40
0.0
  9
$CHAMFERC
 40
0.0
  9
$CHAMFERD
 40
0.0
  9
$SKPOLY
 70
0
  9
$TDCREATE
 40
2461317.316145833
  9
$TDUCREATE
 40
2458532.153996898
  9
$TDUPDATE
 40
2461317.316145833
  9
$TDUUPDATE
 40
2458532.1544311
  9
$TDINDWG
 40
0.0
  9
$TDUSRTIMER
 40
0.0
  9
$USRTIMER
 70
1
  9
$ANGBASE
 50
0.0
  9
$ANGDIR
 70
0
  9
$PDMODE
 70
0
  9
$PDSIZE
 40
0.0
  9
$PLINEWID
 40
0.0
  9
$SPLFRAME
 70
0
  9
$SPLINETYPE
 70
6
  9
$SPLINESEGS
 70
8
  9
$HANDSEED
  5
19B
  9
$SURFTAB1
 70
6
  9
$SURFTAB2
 70
6
  9
$SURFTYPE
 70
6
  9
$SURFU
 70
6
  9
$SURFV
 70
6
  9
$UCSBASE
  2

  9
$UCSNAME
  2

  9
$UCSORG
 10
0.0
 20
0.0
 30
0.0
  9
$UCSXDIR
 10
1.0
 20
0.0
 30
0.0
  9
$UCSYDIR
 10
0.0
 20
1.0
 30
0.0
  9
$UCSORTHOREF
  2

  9
$UCSORTHOVIEW
 70
0
  9
$UCSORGTOP
 10
0.0
 20
0.0
 30
0.0
  9
$UCSORGBOTTOM
 10
0.0
 20
0.0
 30
0.0
  9
$UCSORGLEFT
 10
0.0
 20
0.0
 30
0.0
  9
$UCSORGRIGHT
 10
0.0
 20
0.0
 30
0.0
  9
$UCSORGFRONT
 10
0.0
 20
0.0
 30
0.0
  9
$UCSORGBACK
 10
0.0
 20
0.0
 30
0.0
  9
$PUCSBASE
  2

  9
$PUCSNAME
  2

  9
$PUCSORG
 10
0.0
 20
0.0
 30
0.0
  9
$PUCSXDIR
 10
1.0
 20
0.0
 30
0.0
  9
$PUCSYDIR
 10
0.0
 20
1.0
 30
0.0
  9
$PUCSORTHOREF
  2

  9
$PUCSORTHOVIEW
 70
0
  9
$PUCSORGTOP
 10
0.0
 20
0.0
 30
0.0
  9
$PUCSORGBOTTOM
 10
0.0
 20
0.0
 30
0.0
  9
$PUCSORGLEFT
 10
0.0
 20
0.0
 30
0.0
  9
$PUCSORGRIGHT
 10
0.0
 20
0.0
 30
0.0
  9
$PUCSORGFRONT
 10
0.0
 20
0.0
 30
0.0
  9
$PUCSORGBACK
 10
0.0
 20
0.0
 30
0.0
  9
$USERI1
 70
0
  9
$USERI2
 70
0
  9
$USERI3
 70
0
  9
$USERI4
 70
0
  9
$USERI5
 70
0
  9
$USERR1
 40
0.0
  9
$USERR2
 40
0.0
  9
$USERR3
 40
0.0
  9
$USERR4
 40
0.0
  9
$USERR5
 40
0.0
  9
$WORLDVIEW
 70
1
  9
$SHADEDGE
 70
3
  9
$SHADEDIF
 70
70
  9
$TILEMODE
 70
1
  9
$MAXACTVP
 70
64
  9
$PINSBASE
 10
0.0
 20
0.0
 30
0.0
  9
$PLIMCHECK
 70
0
  9
$PEXTMIN
 10
1e+20
 20
1e+20
 30
1e+20
  9
$PEXTMAX
 10
-1e+20
 20
-1e+20
 30
-1e+20
  9
$PLIMMIN
 10
0.0
 20
0.0
  9
$PLIMMAX
 10
420.0
 20
297.0
  9
$UNITMODE
 70
0
  9
$VISRETAIN
 70
1
  9
$PLINEGEN
 70
0
  9
$PSLTSCALE
 70
1
  9
$TREEDEPTH
 70
3020
  9
$CMLSTYLE
  2
Standard
  9
$CMLJUST
 70
0
  9
$CMLSCALE
 40
20.0
  9
$PROXYGRAPHICS
 70
1
  9
$MEASUREMENT
 70
1
  9
$CELWEIGHT
370
-1
  9
$ENDCAPS
280
0
  9
$JOINSTYLE
280
0
  9
$LWDISPLAY
290
0
  9
$INSUNITS
 70
6
  9
$HYPERLINKBASE
  1

  9
$STYLESHEET
  1

  9
$XEDIT
290
1
  9
$CEPSNTYPE
380
0
  9
$PSTYLEMODE
290
1
  9
$FINGERPRINTGUID
  2
{CC14E1BC-CD4D-42B7-99EB-05BFAC1E7C31}
  9
$VERSIONGUID
  2
{E4167E81-82D3-4589-B092-D969180663A9}
  9
$EXTNAMES
290
1
  9
$PSVPSCALE
 40
0.0
  9
$OLESTARTUP
290
0
  9
$SORTENTS
280
127
  9
$INDEXCTL
280
0
  9
$HIDETEXT
280
1
  9
$XCLIPFRAME
280
1
  9
$HALOGAP
280
0
  9
$OBSCOLOR
 70
257
  9
$OBSLTYPE
280
0
  9
$INTERSECTIONDISPLAY
280
0
  9
$INTERSECTIONCOLOR
 70
257
  9
$DIMASSOC
280
2
  9
$PROJECTNAME
  1

  9
$CAMERADISPLAY
290
0
  9
$LENSLENGTH
 40
50.0
  9
$CAMERAHEIGHT
 40
0.0
  9
$STEPSPERSEC
 40
24.0
  9
$STEPSIZE
 40
100.0
  9
$3DDWFPREC
 40
2.0
  9
$PSOLWIDTH
 40
0.005
  9
$PSOLHEIGHT
 40
0.08
  9
$LOFTANG1
 40
1.570796326795
  9
$LOFTANG2
 40
1.570796326795
  9
$LOFTMAG1
 40
0.0
  9
$LOFTMAG2
 40
0.0
  9
$LOFTPARAM
 70
7
  9
$LOFTNORMALS
280
1
  9
$LATITUDE
 40
37.795
  9
$LONGITUDE
 40
-122.394
  9
$NORTHDIRECTION
 40
0.0
  9
$TIMEZONE
 70
-8000
  9
$LIGHTGLYPHDISPLAY
280
1
  9
$TILEMODELIGHTSYNCH
280
1
  9
$CMATERIAL
347
20
  9
$SOLIDHIST
280
0
  9
$SHOWHIST
280
1
  9
$DWFFRAME
280
2
  9
$DGNFRAME
280
2
  9
$REALWORLDSCALE
290
1
  9
$INTERFERECOLOR
 62
256
  9
$CSHADOW
280
0
  9
$SHADOWPLANELOCATION
 40
0.0
  0
ENDSEC
  0
SECTION
  2
CLASSES
  0
CLASS
  1
ACDBDICTIONARYWDFLT
  2
AcDbDictionaryWithDefault
  3
ObjectDBX Classes
 90
0
 91
0
280
0
281
0
  0
CLASS
  1
SUN
  2
AcDbSun
  3
SCENEOE
 90
1153
 91
0
280
0
281
0
  0
CLASS
  1
VISUALSTYLE
  2
AcDbVisualStyle
  3
ObjectDBX Classes
 90
4095
 91
0
280
0
281
0
  0
CLASS
  1
MATERIAL
  2
AcDbMaterial
  3
ObjectDBX Classes
 90
1153
 91
0
280
0
281
0
  0
CLASS
  1
SCALE
  2
AcDbScale
  3
ObjectDBX Classes
 90
1153
 91
0
280
0
281
0
  0
CLASS
  1
TABLESTYLE
  2
AcDbTableStyle
  3
ObjectDBX Classes
 90
4095
 91
0
280
0
281
0
  0
CLASS
  1
MLEADERSTYLE
  2
AcDbMLeaderStyle
  3
ACDB_MLEADERSTYLE_CLASS
 90
4095
 91
0
280
0
281
0
  0
CLASS
  1
DICTIONARYVAR
  2
AcDbDictionaryVar
  3
ObjectDBX Classes
 90
0
 91
0
280
0
281
0
  0
CLASS
  1
CELLSTYLEMAP
  2
AcDbCellStyleMap
  3
ObjectDBX Classes
 90
1152
 91
0
280
0
281
0
  0
CLASS
  1
MENTALRAYRENDERSETTINGS
  2
AcDbMentalRayRenderSettings
  3
SCENEOE
 90
1024
 91
0
280
0
281
0
  0
CLASS
  1
ACDBDETAILVIEWSTYLE
  2
AcDbDetailViewStyle
  3
ObjectDBX Classes
 90
1025
 91
0
280
0
281
0
  0
CLASS
  1
ACDBSECTIONVIEWSTYLE
  2
AcDbSectionViewStyle
  3
ObjectDBX Classes
 90
1025
 91
0
280
0
281
0
  0
CLASS
  1
RASTERVARIABLES
  2
AcDbRasterVariables
  3
ISM
 90
0
 91
0
280
0
281
0
  0
CLASS
  1
ACDBPLACEHOLDER
  2
AcDbPlaceHolder
  3
ObjectDBX Classes
 90
0
 91
0
280
0
281
0
  0
CLASS
  1
LAYOUT
  2
AcDbLayout
  3
ObjectDBX Classes
 90
0
 91
0
280
0
281
0
  0
ENDSEC
  0
SECTION
  2
TABLES
  0
TABLE
  2
VPORT
  5
8
330
0
100
AcDbSymbolTable
 70
1
  0
VPORT
  5
23
330
8
100
AcDbSymbolTableRecord
100
AcDbViewportTableRecord
  2
*Active
 70
0
 10
0.0
 20
0.0
 11
1.0
 21
1.0
 12
0.0
 22
0.0
 13
0.0
 23
0.0
 14
0.5
 24
0.5
 15
0.5
 25
0.5
 16
0.0
 26
0.0
 36
1.0
 17
0.0
 27
0.0
 37
0.0
 40
1000.0
 41
1.34
 42
50.0
 43
0.0
 44
0.0
 50
0.0
 51
0.0
 71
0
 72
1000
 73
1
 74
3
 75
0
 76
0
 77
0
 78
0
281
0
 65
0
146
0.0
  0
ENDTAB
  0
TABLE
  2
LTYPE
  5
2
330
0
100
AcDbSymbolTable
 70
3
  0
LTYPE
  5
24
330
2
100
AcDbSymbolTableRecord
100
AcDbLinetypeTableRecord
  2
ByBlock
 70
0
  3

 72
65
 73
0
 40
0.0
  0
LTYPE
  5
25
330
2
100
AcDbSymbolTableRecord
100
AcDbLinetypeTableRecord
  2
ByLayer
 70
0
  3

 72
65
 73
0
 40
0.0
  0
LTYPE
  5
26
330
2
100
AcDbSymbolTableRecord
100
AcDbLinetypeTableRecord
  2
Continuous
 70
0
  3

 72
65
 73
0
 40
0.0
  0
ENDTAB
  0
TABLE
  2
LAYER
  5
1
330
0
100
AcDbSymbolTable
 70
5
  0
LAYER
  5
27
330
1
100
AcDbSymbolTableRecord
100
AcDbLayerTableRecord
  2
0
 70
0
 62
7
  6
Continuous
370
-3
390
13
347
21
  0
LAYER
  5
28
330
1
100
AcDbSymbolTableRecord
100
AcDbLayerTableRecord
  2
Defpoints
 70
0
 62
7
  6
Continuous
290
0
370
-3
390
13
347
21
  0
LAYER
  5
34
330
1
100
AcDbSymbolTableRecord
100
AcDbLayerTableRecord
  2
0-cortes
 70
0
 62
7
  6
Continuous
370
-3
390
13
347
21
  0
LAYER
  5
BD
330
1
100
AcDbSymbolTableRecord
100
AcDbLayerTableRecord
  2
0-EJES
 70
0
 62
7
  6
Continuous
370
-3
390
13
347
21
  0
LAYER
  5
191
330
1
100
AcDbSymbolTableRecord
100
AcDbLayerTableRecord
  2
A-FLOR
 70
0
 62
7
  6
Continuous
370
-3
390
13
347
21
  0
ENDTAB
  0
TABLE
  2
STYLE
  5
5
330
0
100
AcDbSymbolTable
 70
1
  0
STYLE
  5
29
330
5
100
AcDbSymbolTableRecord
100
AcDbTextStyleTableRecord
  2
Standard
 70
0
 40
0.0
 41
1.0
 50
0.0
 71
0
 42
2.5
  3
txt
  4

  0
ENDTAB
  0
TABLE
  2
VIEW
  5
7
330
0
100
AcDbSymbolTable
 70
0
  0
ENDTAB
  0
TABLE
  2
UCS
  5
6
330
0
100
AcDbSymbolTable
 70
0
  0
ENDTAB
  0
TABLE
  2
APPID
  5
3
330
0
100
AcDbSymbolTable
 70
3
  0
APPID
  5
2A
330
3
100
AcDbSymbolTableRecord
100
AcDbRegAppTableRecord
  2
ACAD
 70
0
  0
APPID
  5
198
330
3
100
AcDbSymbolTableRecord
100
AcDbRegAppTableRecord
  2
HATCHBACKGROUNDCOLOR
 70
0
  0
APPID
  5
199
330
3
100
AcDbSymbolTableRecord
100
AcDbRegAppTableRecord
  2
EZDXF
 70
0
  0
ENDTAB
  0
TABLE
  2
DIMSTYLE
  5
4
330
0
100
AcDbSymbolTable
 70
1
100
AcDbDimStyleTable
  0
DIMSTYLE
105
2B
330
4
100
AcDbSymbolTableRecord
100
AcDbDimStyleTableRecord
  2
Standard
 70
0
 40
1.0
 41
2.5
 42
0.625
 43
3.75
 44
1.25
 45
0.0
 46
0.0
 47
0.0
 48
0.0
 49
2.5
140
2.5
141
2.5
142
0.0
143
0.03937007874
144
1.0
145
0.0
146
1.0
147
0.625
148
0.0
 69
0
 70
0
 71
0
 72
0
 73
0
 74
0
 75
0
 76
0
 77
1
 78
8
 79
3
170
0
171
3
172
1
173
0
174
0
175
0
176
0
177
0
178
0
179
2
271
2
272
2
273
2
274
3
275
0
276
0
277
2
278
44
279
0
280
0
281
0
282
0
283
0
284
8
285
0
286
0
288
0
289
3
290
0
371
-2
372
-2
  0
ENDTAB
  0
TABLE
  2
BLOCK_RECORD
  5
9
330
0
100
AcDbSymbolTable
 70
2
  0
BLOCK_RECORD
  5
17
330
9
100
AcDbSymbolTableRecord
100
AcDbBlockTableRecord
  2
*Model_Space
340
1A
 70
0
280
1
281
0
  0
BLOCK_RECORD
  5
1B
330
9
100
AcDbSymbolTableRecord
100
AcDbBlockTableRecord
  2
*Paper_Space
340
1E
 70
0
280
1
281
0
  0
ENDTAB
  0
ENDSEC
  0
SECTION
  2
BLOCKS
  0
BLOCK
  5
18
330
17
100
AcDbEntity
  8
0
100
AcDbBlockBegin
  2
*Model_Space
 70
0
 10
0.0
 20
0.0
 30
0.0
  3
*Model_Space
  1

  0
ENDBLK
  5
19
330
17
100
AcDbEntity
  8
0
100
AcDbBlockEnd
  0
BLOCK
  5
1C
330
1B
100
AcDbEntity
  8
0
100
AcDbBlockBegin
  2
*Paper_Space
 70
0
 10
0.0
 20
0.0
 30
0.0
  3
*Paper_Space
  1

  0
ENDBLK
  5
1D
330
1B
100
AcDbEntity
  8
0
100
AcDbBlockEnd
  0
ENDSEC
  0
SECTION
  2
ENTITIES
  0
LINE
  5
2F
330
17
100
AcDbEntity
  8
0
 62
4
100
AcDbLine
 10
-26.49869551390762
 20
42.91442783854779
 30
0.0
 11
-10.8846860643049
 21
42.91442783854779
 31
0.0
  0
LWPOLYLINE
  5
30
330
17
100
AcDbEntity
  8
0
 62
4
100
AcDbPolyline
 90
4
 70
1
 10
-15.18468606430488
 20
50.51442783854779
 10
-15.18468606430488
 20
50.01442783854779
 10
-14.88468606430489
 20
50.01442783854779
 10
-14.88468606430489
 20
50.51442783854779
  0
LINE
  5
31
330
17
100
AcDbEntity
  8
0
 62
8
100
AcDbLine
 10
-15.88468606430488
 20
50.51442783854779
 30
0.0
 11
-14.88468606430489
 21
50.51442783854779
 31
0.0
  0
LINE
  5
32
330
17
100
AcDbEntity
  8
0
 62
8
100
AcDbLine
 10
-14.88468606430489
 20
50.51442783854779
 30
0.0
 11
-14.88468606430489
 21
42.91442783854779
 31
0.0
  0
LINE
  5
33
330
17
100
AcDbEntity
  8
0
 62
8
100
AcDbLine
 10
-15.88468606430488
 20
50.51442783854779
 30
0.0
 11
-15.88468606430488
 21
42.91442783854779
 31
0.0
  0
LWPOLYLINE
  5
35
330
17
100
AcDbEntity
  8
0-cortes
 62
251
100
AcDbPolyline
 90
195
 70
0
 10
-17.00044231930987
 20
44.3384525746494
 10
-17.00846106707904
 20
44.38141733615966
 10
-17.01267867228493
 20
44.42049725554254
 10
-17.00224443942942
 20
44.44388525932365
 10
-16.99947882282431
 20
44.4836176826511
 10
-17.00354713924041
 20
44.51448745340004
 10
-16.99391561381453
 20
44.54235622504775
 10
-16.9933377838456
 20
44.56864209493053
 10
-16.96930074910709
 20
44.59373251872525
 10
-16.95291117797639
 20
44.60230224300095
 10
-16.93651515617721
 20
44.61434019383321
 10
-16.9062379189272
 20
44.6134584138332
 10
-16.87779679768532
 20
44.61125546331251
 10
-16.84125998211506
 20
44.59481895706818
 10
-16.81733190194505
 20
44.56764924353758
 10
-16.79784965640458
 20
44.53268746169903
 10
-16.78829329879907
 20
44.50750256162891
 10
-16.77524876525076
 20
44.48711679584019
 10
-16.77119209130275
 20
44.46262681397392
 10
-16.76562196776969
 20
44.44292684131871
 10
-16.76005145878496
 20
44.42975381134943
 10
-16.76009348334331
 20
44.40715914720222
 10
-16.76239846665278
 20
44.39389838169435
 10
-16.75612194235192
 20
44.36849561815066
 10
-16.75932234737014
 20
44.34146594727886
 10
-16.75855627577384
 20
44.32992719012783
 10
-16.7456705311932
 20
44.32528317141334
 10
-16.73166575171372
 20
44.31560108660509
 10
-16.7217237271053
 20
44.29554103948102
 10
-16.71856650760431
 20
44.27407304160458
 10
-16.71387799636956
 20
44.24219279089624
 10
-16.70950324043461
 20
44.2124459674355
 10
-16.704910288144
 20
44.17810157392816
 10
-16.70499801485589
 20
44.13093497256112
 10
-16.69872698179595
 20
44.09626012021859
 10
-16.69997461890948
 20
44.05743352645598
 10
-16.69845039758009
 20
44.03641649333498
 10
-16.6857810760316
 20
43.99124823737621
 10
-16.67619074646593
 20
43.95705710418162
 10
-16.6694808566768
 20
43.93313522183861
 10
-16.66953620042865
 20
43.90337944251441
 10
-16.66601039608183
 20
43.86489591349756
 10
-16.6584090073835
 20
43.81872604722239
 10
-16.65121655871904
 20
43.78019730470881
 10
-16.65126543860045
 20
43.75391684997876
 10
-16.64680975785258
 20
43.72276480433725
 10
-16.64160472535674
 20
43.69004361874121
 10
-16.63498084340814
 20
43.66812764458036
 10
-16.63745655489562
 20
43.64523035664992
 10
-16.64464551019655
 20
43.62875999604947
 10
-16.65030448919061
 20
43.61964559853449
 10
-16.57598590591986
 20
43.43456450994465
 10
-16.55541316091926
 20
43.38554217567683
 10
-16.54566961712267
 20
43.35988340410788
 10
-16.5302497978105
 20
43.30840065378495
 10
-16.5173387561306
 20
43.26048039367201
 10
-16.51564767384813
 20
43.21542214199893
 10
-16.51724201402125
 20
43.17346070066145
 10
-16.52118217809591
 20
43.15315771698322
 10
-16.52626939079972
 20
43.12694419020177
 10
-16.55339503874909
 20
43.11817690321626
 10
-16.57577081630954
 20
43.1141487794796
 10
-16.60035878879343
 20
43.10251000297397
 10
-16.62204525438601
 20
43.10255033834399
 10
-16.64307024125661
 20
43.09801418406124
 10
-16.70559419811154
 20
43.09626837586487
 10
-16.72084357139105
 20
43.1129980350299
 10
-16.71396533330598
 20
43.13936177207426
 10
-16.71716308776179
 20
43.15799510423778
 10
-16.73287459553067
 20
43.21064300855169
 10
-16.73924836481497
 20
43.25327836334174
 10
-16.73142675346467
 20
43.31919234300498
 10
-16.7226434222858
 20
43.37764334176873
 10
-16.71188235364015
 20
43.43772239792429
 10
-16.68095324704039
 20
43.61668869106583
 10
-16.68977937877132
 20
43.63002135141269
 10
-16.69867192223988
 20
43.6392460003167
 10
-16.7013118663295
 20
43.62284396642972
 10
-16.70260156720114
 20
43.60563955066615
 10
-16.70615595255431
 20
43.59684118695462
 10
-16.71840491693727
 20
43.59626886554316
 10
-16.72781564144445
 20
43.59231901110381
 10
-16.75735171064674
 20
43.59355135560742
 10
-16.76795212717131
 20
43.5440110945565
 10
-16.77899552960984
 20
43.49240057166542
 10
-16.78689203934057
 20
43.44714040887846
 10
-16.79018831526171
 20
43.41280329929555
 10
-16.78985538885975
 20
43.38325226376564
 10
-16.7891969780522
 20
43.3643868929378
 10
-16.78513069681007
 20
43.3324229031096
 10
-16.78930190178191
 20
43.27637573557407
 10
-16.79503787684469
 20
43.21954440581887
 10
-16.810135410097
 20
43.15359916613302
 10
-16.8243169337732
 20
43.09353287075857
 10
-16.83262033185757
 20
43.06561043717086
 10
-16.83567771832743
 20
43.04595850592602
 10
-16.8384392361791
 20
43.01474949518295
 10
-16.83177226773235
 20
43.0033597368631
 10
-16.8299906848669
 20
42.97536095521031
 10
-16.80963185325207
 20
42.9503607301158
 10
-16.8051043244332
 20
42.93887896654793
 10
-16.81207363247317
 20
42.91410874095382
 10
-16.89165065785461
 20
42.91360405453795
 10
-16.90049547779863
 20
42.92952833011328
 10
-16.89515428097191
 20
42.95105730907573
 10
-16.8974944873171
 20
42.97573606735165
 10
-16.89744697611998
 20
43.0012806437536
 10
-16.89039212966757
 20
43.00884389573139
 10
-16.89326914814766
 20
43.11776601509008
 10
-16.89317363778774
 20
43.16911752451504
 10
-16.89625152501101
 20
43.19532060828867
 10
-16.89662211887945
 20
43.2551772079527
 10
-16.89239060229202
 20
43.28677382140765
 10
-16.89032040317879
 20
43.31915512839154
 10
-16.89287615533241
 20
43.34801921010225
 10
-16.89491462096897
 20
43.37061774382154
 10
-16.89880833848723
 20
43.40056573899563
 10
-16.9014040790412
 20
43.42053052206452
 10
-16.90136255730012
 20
43.44285484457969
 10
-16.90445342720393
 20
43.44947712229166
 10
-16.90866089795214
 20
43.43712854818746
 10
-16.9123643524719
 20
43.41137960577828
 10
-16.91610935451741
 20
43.38534179662492
 10
-16.92463781415536
 20
43.35971800039103
 10
-16.92085751590015
 20
43.33830643430665
 10
-16.91587250421533
 20
43.30736456996058
 10
-16.90982327260461
 20
43.27983137411272
 10
-16.90987381871032
 20
43.2526550675048
 10
-16.90786620932864
 20
43.21978625376234
 10
-16.90906844642903
 20
43.19904944712845
 10
-16.91190616913597
 20
43.17742622637356
 10
-16.91517038404323
 20
43.14136773581091
 10
-16.91821477776766
 20
43.09078318784052
 10
-16.92032337335369
 20
43.01879876333027
 10
-16.91125573111809
 20
43.00892109441474
 10
-16.90671431153733
 20
42.94171072648405
 10
-16.92113854206882
 20
42.93442353859457
 10
-16.94337959840096
 20
42.91435296123487
 10
-17.02389574436923
 20
42.91450271586071
 10
-17.03289126669644
 20
42.92523771183051
 10
-17.02371633802168
 20
42.94776419767599
 10
-17.00333282327919
 20
42.96763346308634
 10
-16.99082408213259
 20
42.99412110601956
 10
-16.98640173206566
 20
43.0019260159369
 10
-16.9843886514417
 20
43.01623675447989
 10
-16.97403800893853
 20
43.01996089698973
 10
-16.97180528835487
 20
43.03228754814005
 10
-16.97508200613681
 20
43.04638416160869
 10
-17.00842900610824
 20
43.15367362655895
 10
-17.00959469768007
 20
43.22842209456066
 10
-17.01730340011936
 20
43.2864110471624
 10
-17.01755383841775
 20
43.34135301890075
 10
-17.01721694387034
 20
43.4024113079383
 10
-17.01713991669909
 20
43.44382526046207
 10
-17.02187119223806
 20
43.47215587551406
 10
-17.02899735278116
 20
43.50840646350941
 10
-17.03131588170602
 20
43.55105987168218
 10
-17.03290909935946
 20
43.58036990622755
 10
-17.04941195769463
 20
43.59821550095257
 10
-17.05408497869392
 20
43.61994867564763
 10
-17.05650700474983
 20
43.63855496915181
 10
-17.06412214440304
 20
43.67101188089224
 10
-17.07421911106247
 20
43.69624257920777
 10
-17.07514633354357
 20
43.74753200120605
 10
-17.08172443653096
 20
43.76878239795186
 10
-17.07485928100418
 20
43.80075165189914
 10
-17.06381984370004
 20
43.83354500729748
 10
-17.055336022232
 20
43.86999692448201
 10
-17.04579480965877
 20
43.89354656332402
 10
-17.03749382029851
 20
43.91385423408785
 10
-17.02954686998715
 20
43.92076313247282
 10
-17.03324072070954
 20
43.9317762210747
 10
-17.03145704665878
 20
43.94913969218355
 10
-17.06632347572601
 20
43.95994840215959
 10
-17.0920349919147
 20
43.96988262341984
 10
-17.11284320521047
 20
43.98078036741178
 10
-17.11996416395739
 20
43.98822920822553
 10
-17.12486332049052
 20
43.99581469384631
 10
-17.12540428929331
 20
44.00830647797582
 10
-17.12579781675383
 20
44.02423423160676
 10
-17.12561926922301
 20
44.03807485891306
 10
-17.12236270894929
 20
44.05105869909422
 10
-17.11679540229151
 20
44.0677624385609
 10
-17.11208878386613
 20
44.09569156191729
 10
-17.1079002823691
 20
44.11680035318383
 10
-17.09919445982366
 20
44.15885735003146
 10
-17.08952575648884
 20
44.21935437058155
 10
-17.08470367902417
 20
44.24616346047072
 10
-17.0756365804596
 20
44.27391170159578
 10
-17.06437428706401
 20
44.2938107297933
 10
-17.05087654951906
 20
44.30854163616955
 10
-17.03171881864482
 20
44.32029289598648
 10
-17.01550553643959
 20
44.32887574607653
 10
-17.00306054297489
 20
44.33372860988411
 10
-17.00044231930987
 20
44.3384525746494
  0
LWPOLYLINE
  5
36
330
17
100
AcDbEntity
  8
0-cortes
 62
251
100
AcDbPolyline
 90
21
 70
0
 10
-17.03269664797791
 20
44.01574881529017
 10
-17.04097913304541
 20
44.01802945345528
 10
-17.05277569004129
 20
44.02054699026686
 10
-17.05731801255204
 20
44.02407486894751
 10
-17.05731189512839
 20
44.02736392512756
 10
-17.05729585176821
 20
44.03598969892317
 10
-17.05076991779718
 20
44.06252686326055
 10
-17.04767173197719
 20
44.07512537661012
 10
-17.04506342087533
 20
44.08573185541587
 10
-17.04202166678861
 20
44.09810089384498
 10
-17.03814263319491
 20
44.10851192938616
 10
-17.03331166443733
 20
44.1085029441086
 10
-17.02948099590144
 20
44.10153374635884
 10
-17.02780201374231
 20
44.08788803205965
 10
-17.02781802139769
 20
44.07928145509077
 10
-17.02900551971386
 20
44.07278871517514
 10
-17.02983723134873
 20
44.0616752614255
 10
-17.03048852880245
 20
44.04644693818807
 10
-17.0294551624324
 20
44.02694737252075
 10
-17.03036380952061
 20
44.01870719675553
 10
-17.03269664797791
 20
44.01574881529017
  0
LWPOLYLINE
  5
37
330
17
100
AcDbEntity
  8
0-cortes
 62
251
100
AcDbPolyline
 90
29
 70
0
 10
-16.70755009746567
 20
43.72571251839614
 10
-16.71287966262228
 20
43.74835556712404
 10
-16.71891270995679
 20
43.76563119338434
 10
-16.72041258981001
 20
43.7870961087212
 10
-16.72890361794152
 20
43.80364682475045
 10
-16.7322793467482
 20
43.82770680950916
 10
-16.73520983732031
 20
43.84859342764129
 10
-16.74160616495972
 20
43.86886949606092
 10
-16.74702392448559
 20
43.88833242365632
 10
-16.74785314218199
 20
43.90383865600998
 10
-16.75098027633321
 20
43.92252304853772
 10
-16.75951754028715
 20
43.93317400564349
 10
-16.75702288795391
 20
43.9409761019848
 10
-16.75370806123892
 20
43.94736890075036
 10
-16.7523350786608
 20
43.95247272046348
 10
-16.74808267126609
 20
43.95106343812912
 10
-16.7455584902594
 20
43.94314322470481
 10
-16.73951289374351
 20
43.92417373933324
 10
-16.73341342030191
 20
43.90503520239614
 10
-16.72158090703381
 20
43.86675258708645
 10
-16.7126997914621
 20
43.83801884952359
 10
-16.70510512750787
 20
43.81423763952493
 10
-16.69926556231401
 20
43.79405084445337
 10
-16.6946645495065
 20
43.77784010972471
 10
-16.69317177760892
 20
43.76519298016749
 10
-16.69282603587827
 20
43.7551715592982
 10
-16.69618373026408
 20
43.74468990218981
 10
-16.7009033506374
 20
43.73504904247349
 10
-16.70755009746567
 20
43.72571251839614
  0
LWPOLYLINE
  5
38
330
17
100
AcDbEntity
  8
0-cortes
 62
251
100
AcDbPolyline
 90
15
 70
0
 10
-16.67846179433318
 20
43.64172960269892
 10
-16.69069207780056
 20
43.64488144365996
 10
-16.69065619446913
 20
43.66417425374353
 10
-16.68824127446579
 20
43.67334587670273
 10
-16.68657855030487
 20
43.67966073560817
 10
-16.68172926996998
 20
43.68607410237628
 10
-16.67648690484621
 20
43.6860643519291
 10
-16.67373050388589
 20
43.6829237327891
 10
-16.67192078103177
 20
43.67637422653101
 10
-16.66941401595981
 20
43.66730207855579
 10
-16.66635197139855
 20
43.6562203375195
 10
-16.66351298890355
 20
43.65298957163291
 10
-16.6678268020617
 20
43.64666262055708
 10
-16.67300420014383
 20
43.64368393392501
 10
-16.67846179433318
 20
43.64172960269892
  0
LWPOLYLINE
  5
39
330
17
100
AcDbEntity
  8
0-cortes
 62
251
100
AcDbPolyline
 90
15
 70
0
 10
-16.68215919345955
 20
43.43596499038573
 10
-16.67029410831874
 20
43.61564503152344
 10
-16.66433473809941
 20
43.61563394749491
 10
-16.660248186527
 20
43.61352748655194
 10
-16.64259244700138
 20
43.55713257208752
 10
-16.61665397088107
 20
43.43539522758113
 10
-16.62254568429482
 20
43.43386403541951
 10
-16.63054257090023
 20
43.43178573166851
 10
-16.63276000615279
 20
43.42127707405516
 10
-16.63520736802316
 20
43.41362206593113
 10
-16.64067895389668
 20
43.41046475547416
 10
-16.64526069261355
 20
43.41175946898835
 10
-16.65878350303042
 20
43.42146625322221
 10
-16.67598827637015
 20
43.42961853841464
 10
-16.68215919345955
 20
43.43596499038573
  0
LWPOLYLINE
  5
3A
330
17
100
AcDbEntity
  8
0-cortes
 62
251
100
AcDbPolyline
 90
10
 70
0
 10
-16.69202833725477
 20
43.48888998168021
 10
-16.69669714889126
 20
43.47496812046599
 10
-16.70059479393787
 20
43.46334578964056
 10
-16.70062553082529
 20
43.44681998486119
 10
-16.70064101481007
 20
43.43849496134019
 10
-16.69625467124702
 20
43.43480099970144
 10
-16.6917146243443
 20
43.4401920154876
 10
-16.69089256790518
 20
43.46125074318796
 10
-16.69013013367528
 20
43.48078212092926
 10
-16.69202833725477
 20
43.48888998168021
  0
LWPOLYLINE
  5
3B
330
17
100
AcDbEntity
  8
0
 62
8
100
AcDbPolyline
 90
4
 70
1
 10
-19.14788606430488
 20
48.44757374005884
 10
-19.3178860643049
 20
48.44757374005884
 10
-19.3178860643049
 20
42.91442783854779
 10
-19.14788606430488
 20
42.91442783854779
  0
LINE
  5
3C
330
17
100
AcDbEntity
  8
0
 62
11
100
AcDbLine
 10
-19.13068606430519
 20
42.92409276828313
 30
0.0
 11
-19.13068606430505
 21
45.33992783854763
 31
0.0
  0
LINE
  5
3D
330
17
100
AcDbEntity
  8
0
 62
11
100
AcDbLine
 10
-19.13068606430505
 20
45.35406016407008
 30
0.0
 11
-19.13068606430488
 21
48.44707374005885
 31
0.0
  0
LINE
  5
3E
330
17
100
AcDbEntity
  8
0
 62
11
100
AcDbLine
 10
-19.12768606430458
 20
42.92409276828253
 30
0.0
 11
-19.12768606430471
 21
45.33992783854796
 31
0.0
  0
LINE
  5
3F
330
17
100
AcDbEntity
  8
0
 62
11
100
AcDbLine
 10
-19.12768606430471
 20
45.35406016406973
 30
0.0
 11
-19.12768606430488
 21
48.44707374005885
 31
0.0
  0
LINE
  5
40
330
17
100
AcDbEntity
  8
0
 62
11
100
AcDbLine
 10
-19.12468606430488
 20
42.92385708793779
 30
0.0
 11
-19.12468606430488
 21
45.33992783854779
 31
0.0
  0
LINE
  5
41
330
17
100
AcDbEntity
  8
0
 62
11
100
AcDbLine
 10
-19.12468606430488
 20
45.3540601640699
 30
0.0
 11
-19.12468606430488
 21
48.44707374005885
 31
0.0
  0
LINE
  5
42
330
17
100
AcDbEntity
  8
0
 62
11
100
AcDbLine
 10
-19.11268606430488
 20
42.92385708793761
 30
0.0
 11
-19.11268606430488
 21
45.33992783854796
 31
0.0
  0
LINE
  5
43
330
17
100
AcDbEntity
  8
0
 62
11
100
AcDbLine
 10
-19.11268606430488
 20
45.35406016406973
 30
0.0
 11
-19.11268606430488
 21
48.44707374005885
 31
0.0
  0
LINE
  5
44
330
17
100
AcDbEntity
  8
0
 62
11
100
AcDbLine
 10
-19.10868606430458
 20
42.92409276828235
 30
0.0
 11
-19.1086860643047
 21
45.33992783854815
 31
0.0
  0
LINE
  5
45
330
17
100
AcDbEntity
  8
0
  6
CONTINUOUS
 62
8
 48
100.0
100
AcDbLine
 10
-19.10813606430457
 20
42.92409276828235
 30
0.0
 11
-19.1081360643047
 21
45.33992783854815
 31
0.0
  0
LINE
  5
46
330
17
100
AcDbEntity
  8
0
 62
11
100
AcDbLine
 10
-19.1086860643047
 20
45.35406016406954
 30
0.0
 11
-19.10868606430489
 21
48.44707374005885
 31
0.0
  0
LINE
  5
47
330
17
100
AcDbEntity
  8
0
  6
CONTINUOUS
 62
8
 48
100.0
100
AcDbLine
 10
-19.10813606430471
 20
45.35406016406954
 30
0.0
 11
-19.10813606430489
 21
48.44707374005885
 31
0.0
  0
LINE
  5
48
330
17
100
AcDbEntity
  8
0
 62
11
100
AcDbLine
 10
-19.10468606430518
 20
42.9240927682827
 30
0.0
 11
-19.10468606430504
 21
45.33992783854777
 31
0.0
  0
LINE
  5
49
330
17
100
AcDbEntity
  8
0
 62
11
100
AcDbLine
 10
-19.10468606430504
 20
45.35406016406992
 30
0.0
 11
-19.10468606430487
 21
48.44707374005884
 31
0.0
  0
LINE
  5
4A
330
17
100
AcDbEntity
  8
0
 62
11
100
AcDbLine
 10
-19.13018606430489
 20
48.44757374005884
 30
0.0
 11
-19.12818606430488
 21
48.44757374005884
 31
0.0
  0
LINE
  5
4B
330
17
100
AcDbEntity
  8
0
 62
11
100
AcDbLine
 10
-19.12718606430488
 20
48.44757374005886
 30
0.0
 11
-19.12518606430488
 21
48.44757374005884
 31
0.0
  0
LINE
  5
4C
330
17
100
AcDbEntity
  8
0
 62
11
100
AcDbLine
 10
-19.11218606430488
 20
48.44757374005884
 30
0.0
 11
-19.10918606430488
 21
48.44757374005884
 31
0.0
  0
LINE
  5
4D
330
17
100
AcDbEntity
  8
0
 62
11
100
AcDbLine
 10
-19.10818606430489
 20
48.44757374005884
 30
0.0
 11
-19.10518606430489
 21
48.44757374005884
 31
0.0
  0
LINE
  5
4E
330
17
100
AcDbEntity
  8
0
 62
11
100
AcDbLine
 10
-19.10468606430487
 20
48.44707374005884
 30
0.0
 11
-19.10518606430489
 21
48.44757374005884
 31
0.0
  0
LINE
  5
4F
330
17
100
AcDbEntity
  8
0
 62
11
100
AcDbLine
 10
-19.11268606430488
 20
48.44707374005885
 30
0.0
 11
-19.11218606430488
 21
48.44757374005884
 31
0.0
  0
LINE
  5
50
330
17
100
AcDbEntity
  8
0
 62
11
100
AcDbLine
 10
-19.10868606430489
 20
48.44707374005885
 30
0.0
 11
-19.10818606430489
 21
48.44757374005884
 31
0.0
  0
LINE
  5
51
330
17
100
AcDbEntity
  8
0
 62
11
100
AcDbLine
 10
-19.10868606430489
 20
48.44707374005885
 30
0.0
 11
-19.10918606430488
 21
48.44757374005884
 31
0.0
  0
LINE
  5
52
330
17
100
AcDbEntity
  8
0
 62
8
100
AcDbLine
 10
-19.11268606430488
 20
48.43488824299237
 30
0.0
 11
-19.12468606430488
 21
48.43488824299237
 31
0.0
  0
LWPOLYLINE
  5
53
330
17
100
AcDbEntity
  8
0
 62
8
100
AcDbPolyline
 90
6
 70
1
 10
-19.12368606430488
 20
48.43488824299237
 10
-19.11368606430488
 20
48.43488824299237
 10
-19.11368606430488
 20
48.43988824299237
 10
-19.11718606430487
 20
48.44288824299237
 10
-19.12018606430487
 20
48.44288824299237
 10
-19.12368606430488
 20
48.43988824299237
  0
LWPOLYLINE
  5
54
330
17
100
AcDbEntity
  8
0
 62
8
100
AcDbPolyline
 90
6
 70
1
 10
-19.12318606430487
 20
48.43538824299236
 10
-19.11418606430487
 20
48.43538824299236
 10
-19.11418606430487
 20
48.43973685517351
 10
-19.11745365618412
 20
48.44238824299236
 10
-19.11991847242564
 20
48.44238824299236
 10
-19.12318606430487
 20
48.43973685517351
  0
LINE
  5
55
330
17
100
AcDbEntity
  8
0
 62
11
100
AcDbLine
 10
-19.12768606430488
 20
48.44707374005885
 30
0.0
 11
-19.12718606430488
 21
48.44757374005884
 31
0.0
  0
LINE
  5
56
330
17
100
AcDbEntity
  8
0
 62
11
100
AcDbLine
 10
-19.12768606430488
 20
48.44707374005885
 30
0.0
 11
-19.12818606430488
 21
48.44757374005884
 31
0.0
  0
LINE
  5
57
330
17
100
AcDbEntity
  8
0
 62
11
100
AcDbLine
 10
-19.12468606430488
 20
48.44707374005885
 30
0.0
 11
-19.12518606430488
 21
48.44757374005884
 31
0.0
  0
LINE
  5
58
330
17
100
AcDbEntity
  8
0
 62
11
100
AcDbLine
 10
-19.13068606430488
 20
48.44707374005885
 30
0.0
 11
-19.13018606430489
 21
48.44757374005884
 31
0.0
  0
LWPOLYLINE
  5
59
330
17
100
AcDbEntity
  8
0
 62
11
100
AcDbPolyline
 90
14
 70
1
 10
-19.15488606430489
 20
48.40607374005884
 42
0.4142135623730951
 10
-19.15388606430488
 20
48.40507374005885
 10
-19.1508860643049
 20
48.40507374005885
 10
-19.1508860643049
 20
48.38627374005885
 42
-0.4142135623730966
 10
-19.15188606430489
 20
48.38527374005884
 10
-19.31388606430489
 20
48.38527374005884
 42
-0.4142135623730951
 10
-19.31488606430488
 20
48.38627374005885
 10
-19.31488606430488
 20
48.44387374005885
 42
-0.4142135623730951
 10
-19.31388606430489
 20
48.44487374005885
 10
-19.15188606430489
 20
48.44487374005885
 42
-0.4142135623730948
 10
-19.1508860643049
 20
48.44387374005885
 10
-19.1508860643049
 20
48.42507374005885
 10
-19.15388606430488
 20
48.42507374005885
 42
0.4142135623730951
 10
-19.15488606430489
 20
48.42407374005884
  0
LWPOLYLINE
  5
5A
330
17
100
AcDbEntity
  8
0
 62
11
100
AcDbPolyline
 90
11
 70
1
 10
-19.14788606430488
 20
48.41407374005886
 10
-19.14788606430488
 20
48.38357374005885
 42
-0.4142135623730951
 10
-19.14888606430489
 20
48.38257374005884
 10
-19.31688606430489
 20
48.38257374005884
 42
-0.4142135623730951
 10
-19.3178860643049
 20
48.38357374005885
 10
-19.3178860643049
 20
48.44657374005885
 42
-0.4142135623730951
 10
-19.31688606430489
 20
48.44757374005884
 10
-19.14888606430489
 20
48.44757374005884
 42
-0.4142135623730951
 10
-19.14788606430488
 20
48.44657374005885
 10
-19.14788606430488
 20
48.41607374005885
 10
-19.14888606430489
 20
48.41507374005884
  0
ARC
  5
5B
330
17
100
AcDbEntity
  8
0
 62
8
100
AcDbCircle
 10
-19.11868606430488
 20
48.45926438622569
 30
0.0
 40
0.0133761432333217
100
AcDbArc
 50
240.9259378909695
 51
299.0740621090174
  0
LINE
  5
5C
330
17
100
AcDbEntity
  8
0
 62
8
100
AcDbLine
 10
-19.12368606430488
 20
48.43988824299237
 30
0.0
 11
-19.12468606430488
 21
48.43988824299237
 31
0.0
  0
LINE
  5
5D
330
17
100
AcDbEntity
  8
0
 62
8
100
AcDbLine
 10
-19.11368606430488
 20
48.43988824299237
 30
0.0
 11
-19.11268606430488
 21
48.43988824299237
 31
0.0
  0
LINE
  5
5E
330
17
100
AcDbEntity
  8
0
 62
8
100
AcDbLine
 10
-19.13188606430489
 20
48.43457374005883
 30
0.0
 11
-19.13068606430488
 21
48.43457374005883
 31
0.0
  0
LINE
  5
5F
330
17
100
AcDbEntity
  8
0
 62
8
100
AcDbLine
 10
-19.13068606430488
 20
48.44707374005885
 30
0.0
 11
-19.13188606430489
 21
48.44707374005885
 31
0.0
  0
LWPOLYLINE
  5
60
330
17
100
AcDbEntity
  8
0
 62
11
100
AcDbPolyline
 90
14
 70
1
 10
-19.15488606430489
 20
42.93792783854779
 42
0.4142135623730951
 10
-19.15388606430488
 20
42.9369278385478
 10
-19.1508860643049
 20
42.9369278385478
 10
-19.1508860643049
 20
42.9181278385478
 42
-0.4142135623730966
 10
-19.15188606430489
 20
42.91712783854779
 10
-19.31388606430489
 20
42.91712783854779
 42
-0.4142135623730951
 10
-19.31488606430488
 20
42.9181278385478
 10
-19.31488606430488
 20
42.97572783854779
 42
-0.4142135623730951
 10
-19.31388606430489
 20
42.9767278385478
 10
-19.15188606430489
 20
42.9767278385478
 42
-0.4142135623730948
 10
-19.1508860643049
 20
42.97572783854779
 10
-19.1508860643049
 20
42.9569278385478
 10
-19.15388606430488
 20
42.9569278385478
 42
0.4142135623730951
 10
-19.15488606430489
 20
42.95592783854779
  0
LWPOLYLINE
  5
61
330
17
100
AcDbEntity
  8
0
 62
11
100
AcDbPolyline
 90
11
 70
1
 10
-19.14788606430488
 20
42.9459278385478
 10
-19.14788606430488
 20
42.91542783854779
 42
-0.4142135623730951
 10
-19.14888606430489
 20
42.91442783854779
 10
-19.31688606430489
 20
42.91442783854779
 42
-0.4142135623730951
 10
-19.3178860643049
 20
42.91542783854779
 10
-19.3178860643049
 20
42.9784278385478
 42
-0.4142135623730951
 10
-19.31688606430489
 20
42.97942783854779
 10
-19.14888606430489
 20
42.97942783854779
 42
-0.4142135623730951
 10
-19.14788606430488
 20
42.9784278385478
 10
-19.14788606430488
 20
42.9479278385478
 10
-19.14888606430489
 20
42.94692783854779
  0
LINE
  5
62
330
17
100
AcDbEntity
  8
0
 62
11
100
AcDbLine
 10
-19.11218606430506
 20
45.34042783854778
 30
0.0
 11
-19.10918606430505
 21
45.34042783854778
 31
0.0
  0
LINE
  5
63
330
17
100
AcDbEntity
  8
0
 62
11
100
AcDbLine
 10
-19.10818606430506
 20
45.34042783854778
 30
0.0
 11
-19.10518606430506
 21
45.34042783854778
 31
0.0
  0
LINE
  5
64
330
17
100
AcDbEntity
  8
0
 62
11
100
AcDbLine
 10
-19.10468606430504
 20
45.33992783854777
 30
0.0
 11
-19.10518606430506
 21
45.34042783854778
 31
0.0
  0
LINE
  5
65
330
17
100
AcDbEntity
  8
0
 62
8
100
AcDbLine
 10
-19.11268606430505
 20
45.33992783854779
 30
0.0
 11
-19.11218606430506
 21
45.34042783854778
 31
0.0
  0
LINE
  5
66
330
17
100
AcDbEntity
  8
0
 62
11
100
AcDbLine
 10
-19.10868606430506
 20
45.33992783854779
 30
0.0
 11
-19.10818606430506
 21
45.34042783854778
 31
0.0
  0
LINE
  5
67
330
17
100
AcDbEntity
  8
0
 62
11
100
AcDbLine
 10
-19.10868606430506
 20
45.33992783854779
 30
0.0
 11
-19.10918606430505
 21
45.34042783854778
 31
0.0
  0
LINE
  5
68
330
17
100
AcDbEntity
  8
0
 62
11
100
AcDbLine
 10
-19.13018606430489
 20
45.34042783854778
 30
0.0
 11
-19.12818606430488
 21
45.34042783854778
 31
0.0
  0
LINE
  5
69
330
17
100
AcDbEntity
  8
0
 62
11
100
AcDbLine
 10
-19.12718606430488
 20
45.34042783854779
 30
0.0
 11
-19.12518606430488
 21
45.34042783854778
 31
0.0
  0
LINE
  5
6A
330
17
100
AcDbEntity
  8
0
 62
11
100
AcDbLine
 10
-19.12768606430488
 20
45.33992783854779
 30
0.0
 11
-19.12718606430488
 21
45.34042783854778
 31
0.0
  0
LINE
  5
6B
330
17
100
AcDbEntity
  8
0
 62
11
100
AcDbLine
 10
-19.12768606430488
 20
45.33992783854779
 30
0.0
 11
-19.12818606430488
 21
45.34042783854778
 31
0.0
  0
LINE
  5
6C
330
17
100
AcDbEntity
  8
0
 62
8
100
AcDbLine
 10
-19.12468606430488
 20
45.33992783854779
 30
0.0
 11
-19.12518606430488
 21
45.34042783854778
 31
0.0
  0
LINE
  5
6D
330
17
100
AcDbEntity
  8
0
 62
11
100
AcDbLine
 10
-19.13068606430488
 20
45.33992783854779
 30
0.0
 11
-19.13018606430489
 21
45.34042783854778
 31
0.0
  0
LINE
  5
6E
330
17
100
AcDbEntity
  8
0
 62
11
100
AcDbLine
 10
-19.11218606430506
 20
45.35356016406992
 30
0.0
 11
-19.10918606430505
 21
45.35356016406992
 31
0.0
  0
LINE
  5
6F
330
17
100
AcDbEntity
  8
0
 62
11
100
AcDbLine
 10
-19.10818606430506
 20
45.35356016406992
 30
0.0
 11
-19.10518606430506
 21
45.35356016406992
 31
0.0
  0
LINE
  5
70
330
17
100
AcDbEntity
  8
0
 62
11
100
AcDbLine
 10
-19.10468606430504
 20
45.35406016406992
 30
0.0
 11
-19.10518606430506
 21
45.35356016406992
 31
0.0
  0
LINE
  5
71
330
17
100
AcDbEntity
  8
0
 62
11
100
AcDbLine
 10
-19.11268606430505
 20
45.3540601640699
 30
0.0
 11
-19.11218606430506
 21
45.35356016406992
 31
0.0
  0
LINE
  5
72
330
17
100
AcDbEntity
  8
0
 62
11
100
AcDbLine
 10
-19.10868606430506
 20
45.3540601640699
 30
0.0
 11
-19.10818606430506
 21
45.35356016406992
 31
0.0
  0
LINE
  5
73
330
17
100
AcDbEntity
  8
0
 62
11
100
AcDbLine
 10
-19.10868606430506
 20
45.3540601640699
 30
0.0
 11
-19.10918606430505
 21
45.35356016406992
 31
0.0
  0
LINE
  5
74
330
17
100
AcDbEntity
  8
0
 62
11
100
AcDbLine
 10
-19.13018606430489
 20
45.3535601640699
 30
0.0
 11
-19.12818606430488
 21
45.35356016406992
 31
0.0
  0
LINE
  5
75
330
17
100
AcDbEntity
  8
0
 62
11
100
AcDbLine
 10
-19.12718606430488
 20
45.3535601640699
 30
0.0
 11
-19.12518606430488
 21
45.3535601640699
 31
0.0
  0
LINE
  5
76
330
17
100
AcDbEntity
  8
0
 62
11
100
AcDbLine
 10
-19.12768606430488
 20
45.3540601640699
 30
0.0
 11
-19.12718606430488
 21
45.3535601640699
 31
0.0
  0
LINE
  5
77
330
17
100
AcDbEntity
  8
0
 62
11
100
AcDbLine
 10
-19.12768606430488
 20
45.3540601640699
 30
0.0
 11
-19.12818606430488
 21
45.3535601640699
 31
0.0
  0
LINE
  5
78
330
17
100
AcDbEntity
  8
0
 62
11
100
AcDbLine
 10
-19.12468606430488
 20
45.3540601640699
 30
0.0
 11
-19.12518606430488
 21
45.3535601640699
 31
0.0
  0
LINE
  5
79
330
17
100
AcDbEntity
  8
0
 62
11
100
AcDbLine
 10
-19.13068606430488
 20
45.3540601640699
 30
0.0
 11
-19.13018606430489
 21
45.3535601640699
 31
0.0
  0
LINE
  5
7A
330
17
100
AcDbEntity
  8
0
 62
8
100
AcDbLine
 10
-19.11268606430505
 20
45.33992783854779
 30
0.0
 11
-19.11218606430506
 21
45.34042783854778
 31
0.0
  0
LINE
  5
7B
330
17
100
AcDbEntity
  8
0
 62
8
100
AcDbLine
 10
-19.11268606430505
 20
45.3277423414813
 30
0.0
 11
-19.12468606430505
 21
45.3277423414813
 31
0.0
  0
LWPOLYLINE
  5
7C
330
17
100
AcDbEntity
  8
0
 62
8
100
AcDbPolyline
 90
6
 70
1
 10
-19.12368606430504
 20
45.3277423414813
 10
-19.11368606430506
 20
45.3277423414813
 10
-19.11368606430506
 20
45.3327423414813
 10
-19.11718606430506
 20
45.3357423414813
 10
-19.12018606430504
 20
45.3357423414813
 10
-19.12368606430504
 20
45.3327423414813
  0
LWPOLYLINE
  5
7D
330
17
100
AcDbEntity
  8
0
 62
8
100
AcDbPolyline
 90
6
 70
1
 10
-19.12318606430506
 20
45.32824234148129
 10
-19.11418606430504
 20
45.32824234148129
 10
-19.11418606430504
 20
45.33259095366244
 10
-19.11745365618429
 20
45.3352423414813
 10
-19.11991847242581
 20
45.3352423414813
 10
-19.12318606430506
 20
45.33259095366244
  0
LINE
  5
7E
330
17
100
AcDbEntity
  8
0
 62
8
100
AcDbLine
 10
-19.12468606430505
 20
45.33992783854777
 30
0.0
 11
-19.12518606430505
 21
45.34042783854778
 31
0.0
  0
ARC
  5
7F
330
17
100
AcDbEntity
  8
0
 62
8
100
AcDbCircle
 10
-19.11868606430505
 20
45.35211848471462
 30
0.0
 40
0.0133761432333217
100
AcDbArc
 50
240.9259378909695
 51
299.0740621090174
  0
LINE
  5
80
330
17
100
AcDbEntity
  8
0
 62
8
100
AcDbLine
 10
-19.12368606430504
 20
45.3327423414813
 30
0.0
 11
-19.12468606430505
 21
45.3327423414813
 31
0.0
  0
LINE
  5
81
330
17
100
AcDbEntity
  8
0
 62
8
100
AcDbLine
 10
-19.11368606430506
 20
45.3327423414813
 30
0.0
 11
-19.11268606430505
 21
45.3327423414813
 31
0.0
  0
LINE
  5
82
330
17
100
AcDbEntity
  8
0
 62
11
100
AcDbLine
 10
-19.11268606430505
 20
45.3540601640699
 30
0.0
 11
-19.11218606430506
 21
45.35356016406992
 31
0.0
  0
LINE
  5
83
330
17
100
AcDbEntity
  8
0
 62
11
100
AcDbLine
 10
-19.12468606430488
 20
45.3540601640699
 30
0.0
 11
-19.12518606430488
 21
45.3535601640699
 31
0.0
  0
LINE
  5
84
330
17
100
AcDbEntity
  8
0
 62
11
100
AcDbLine
 10
-19.11268606430505
 20
45.3540601640699
 30
0.0
 11
-19.11218606430506
 21
45.35356016406992
 31
0.0
  0
LINE
  5
85
330
17
100
AcDbEntity
  8
0
 62
8
100
AcDbLine
 10
-19.11268606430505
 20
45.36624566113639
 30
0.0
 11
-19.12468606430505
 21
45.36624566113639
 31
0.0
  0
LWPOLYLINE
  5
86
330
17
100
AcDbEntity
  8
0
 62
8
100
AcDbPolyline
 90
6
 70
1
 10
-19.12368606430504
 20
45.36624566113639
 10
-19.11368606430506
 20
45.36624566113639
 10
-19.11368606430506
 20
45.36124566113639
 10
-19.11718606430506
 20
45.35824566113639
 10
-19.12018606430504
 20
45.35824566113639
 10
-19.12368606430504
 20
45.36124566113639
  0
LWPOLYLINE
  5
87
330
17
100
AcDbEntity
  8
0
 62
8
100
AcDbPolyline
 90
6
 70
1
 10
-19.12318606430506
 20
45.3657456611364
 10
-19.11418606430504
 20
45.3657456611364
 10
-19.11418606430504
 20
45.36139704895525
 10
-19.11745365618429
 20
45.3587456611364
 10
-19.11991847242581
 20
45.3587456611364
 10
-19.12318606430506
 20
45.36139704895525
  0
LINE
  5
88
330
17
100
AcDbEntity
  8
0
 62
11
100
AcDbLine
 10
-19.12468606430505
 20
45.3540601640699
 30
0.0
 11
-19.12518606430505
 21
45.35356016406992
 31
0.0
  0
ARC
  5
89
330
17
100
AcDbEntity
  8
0
 62
8
100
AcDbCircle
 10
-19.11868606430505
 20
45.34186951790306
 30
0.0
 40
0.0133761432333217
100
AcDbArc
 50
60.92593789098248
 51
119.0740621090305
  0
LINE
  5
8A
330
17
100
AcDbEntity
  8
0
 62
8
100
AcDbLine
 10
-19.12368606430504
 20
45.36124566113639
 30
0.0
 11
-19.12468606430505
 21
45.36124566113639
 31
0.0
  0
LINE
  5
8B
330
17
100
AcDbEntity
  8
0
 62
8
100
AcDbLine
 10
-19.11368606430506
 20
45.36124566113639
 30
0.0
 11
-19.11268606430505
 21
45.36124566113639
 31
0.0
  0
LINE
  5
8C
330
17
100
AcDbEntity
  8
0
 62
11
100
AcDbLine
 10
-19.11218606430506
 20
42.92359276828284
 30
0.0
 11
-19.10918606430505
 21
42.92359276828284
 31
0.0
  0
LINE
  5
8D
330
17
100
AcDbEntity
  8
0
 62
11
100
AcDbLine
 10
-19.10818606430506
 20
42.92359276828284
 30
0.0
 11
-19.10518606430506
 21
42.92359276828284
 31
0.0
  0
LINE
  5
8E
330
17
100
AcDbEntity
  8
0
 62
11
100
AcDbLine
 10
-19.10468606430504
 20
42.92409276828284
 30
0.0
 11
-19.10518606430506
 21
42.92359276828284
 31
0.0
  0
LINE
  5
8F
330
17
100
AcDbEntity
  8
0
 62
8
100
AcDbLine
 10
-19.11268606430505
 20
42.92409276828283
 30
0.0
 11
-19.11218606430506
 21
42.92359276828284
 31
0.0
  0
LINE
  5
90
330
17
100
AcDbEntity
  8
0
 62
11
100
AcDbLine
 10
-19.10868606430506
 20
42.92409276828283
 30
0.0
 11
-19.10818606430506
 21
42.92359276828284
 31
0.0
  0
LINE
  5
91
330
17
100
AcDbEntity
  8
0
 62
11
100
AcDbLine
 10
-19.10868606430506
 20
42.92409276828283
 30
0.0
 11
-19.10918606430505
 21
42.92359276828284
 31
0.0
  0
LINE
  5
92
330
17
100
AcDbEntity
  8
0
 62
11
100
AcDbLine
 10
-19.13018606430489
 20
42.92359276828283
 30
0.0
 11
-19.12818606430488
 21
42.92359276828284
 31
0.0
  0
LINE
  5
93
330
17
100
AcDbEntity
  8
0
 62
11
100
AcDbLine
 10
-19.12718606430488
 20
42.92359276828283
 30
0.0
 11
-19.12518606430488
 21
42.92359276828283
 31
0.0
  0
LINE
  5
94
330
17
100
AcDbEntity
  8
0
 62
11
100
AcDbLine
 10
-19.12768606430488
 20
42.92409276828283
 30
0.0
 11
-19.12718606430488
 21
42.92359276828283
 31
0.0
  0
LINE
  5
95
330
17
100
AcDbEntity
  8
0
 62
11
100
AcDbLine
 10
-19.12768606430488
 20
42.92409276828283
 30
0.0
 11
-19.12818606430488
 21
42.92359276828283
 31
0.0
  0
LINE
  5
96
330
17
100
AcDbEntity
  8
0
 62
8
100
AcDbLine
 10
-19.12468606430488
 20
42.92409276828283
 30
0.0
 11
-19.12518606430488
 21
42.92359276828283
 31
0.0
  0
LINE
  5
97
330
17
100
AcDbEntity
  8
0
 62
11
100
AcDbLine
 10
-19.13068606430488
 20
42.92409276828283
 30
0.0
 11
-19.13018606430489
 21
42.92359276828283
 31
0.0
  0
LINE
  5
98
330
17
100
AcDbEntity
  8
0
 62
8
100
AcDbLine
 10
-19.11268606430505
 20
42.92409276828283
 30
0.0
 11
-19.11218606430506
 21
42.92359276828284
 31
0.0
  0
LINE
  5
99
330
17
100
AcDbEntity
  8
0
 62
8
100
AcDbLine
 10
-19.12468606430488
 20
42.92409276828283
 30
0.0
 11
-19.12518606430488
 21
42.92359276828283
 31
0.0
  0
LINE
  5
9A
330
17
100
AcDbEntity
  8
0
 62
8
100
AcDbLine
 10
-19.11268606430505
 20
42.92409276828283
 30
0.0
 11
-19.11218606430506
 21
42.92359276828284
 31
0.0
  0
LINE
  5
9B
330
17
100
AcDbEntity
  8
0
 62
8
100
AcDbLine
 10
-19.11268606430505
 20
42.93627826534931
 30
0.0
 11
-19.12468606430505
 21
42.93627826534931
 31
0.0
  0
LWPOLYLINE
  5
9C
330
17
100
AcDbEntity
  8
0
 62
8
100
AcDbPolyline
 90
6
 70
1
 10
-19.12368606430504
 20
42.93627826534931
 10
-19.11368606430506
 20
42.93627826534931
 10
-19.11368606430506
 20
42.93127826534932
 10
-19.11718606430506
 20
42.92827826534932
 10
-19.12018606430504
 20
42.92827826534932
 10
-19.12368606430504
 20
42.93127826534932
  0
LWPOLYLINE
  5
9D
330
17
100
AcDbEntity
  8
0
 62
8
100
AcDbPolyline
 90
6
 70
1
 10
-19.12318606430506
 20
42.93577826534932
 10
-19.11418606430504
 20
42.93577826534932
 10
-19.11418606430504
 20
42.93142965316818
 10
-19.11745365618429
 20
42.92877826534932
 10
-19.11991847242581
 20
42.92877826534932
 10
-19.12318606430506
 20
42.93142965316818
  0
LINE
  5
9E
330
17
100
AcDbEntity
  8
0
 62
8
100
AcDbLine
 10
-19.12468606430505
 20
42.92409276828283
 30
0.0
 11
-19.12518606430505
 21
42.92359276828284
 31
0.0
  0
ARC
  5
9F
330
17
100
AcDbEntity
  8
0
 62
8
100
AcDbCircle
 10
-19.11868606430505
 20
42.91190212211598
 30
0.0
 40
0.0133761432333217
100
AcDbArc
 50
60.92593789098248
 51
119.0740621090305
  0
LINE
  5
A0
330
17
100
AcDbEntity
  8
0
 62
8
100
AcDbLine
 10
-19.12368606430504
 20
42.93127826534932
 30
0.0
 11
-19.12468606430505
 21
42.93127826534932
 31
0.0
  0
LINE
  5
A1
330
17
100
AcDbEntity
  8
0
 62
8
100
AcDbLine
 10
-19.11368606430506
 20
42.93127826534932
 30
0.0
 11
-19.11268606430505
 21
42.93127826534932
 31
0.0
  0
ARC
  5
A2
330
17
100
AcDbEntity
  8
0
 62
8
100
AcDbCircle
 10
-19.0908505771974
 20
45.34699400130884
 30
0.0
 40
0.0155354871076451
100
AcDbArc
 50
152.9453525040159
 51
207.0546474959138
  0
LWPOLYLINE
  5
A3
330
17
100
AcDbEntity
  8
0
 62
11
100
AcDbPolyline
 90
21
 70
1
 10
-19.21073606430488
 20
45.37859775561081
 42
0.3642142242882249
 10
-19.21032246404388
 20
45.3781052770985
 10
-19.20788606430489
 20
45.37767783854779
 10
-19.20588606430489
 20
45.37767783854779
 10
-19.20588606430489
 20
45.37517783854778
 10
-19.20683606430489
 20
45.37517783854778
 42
0.4142135623731395
 10
-19.20758606430489
 20
45.37442783854778
 42
0.4142135623730507
 10
-19.20683606430489
 20
45.37367783854779
 10
-19.20438606430488
 20
45.37367783854779
 10
-19.20438606430488
 20
45.37767783854779
 10
-19.15388606430488
 20
45.37767783854779
 10
-19.15388606430488
 20
45.37167783854779
 42
0.8252846317787602
 10
-19.15292205075768
 20
45.37149158219754
 10
-19.15140765617656
 20
45.37476608473764
 42
0.530985777794659
 10
-19.15168606430488
 20
45.37517783854778
 10
-19.15238606430489
 20
45.37517783854778
 10
-19.15238606430489
 20
45.37767783854779
 10
-19.14843606430489
 20
45.37767783854779
 10
-19.14843606430489
 20
45.37917783854779
 10
-19.21023606430489
 20
45.37917783854779
 42
0.4142135623730951
 10
-19.21073606430488
 20
45.37867783854778
  0
LINE
  5
A4
330
17
100
AcDbEntity
  8
0
 62
251
100
AcDbLine
 10
-19.135218103352262
 20
45.346651122254414
 30
0.0
 11
-19.135218103352262
 21
45.34733688036327
 31
0.0
  0
LINE
  5
A5
330
17
100
AcDbEntity
  8
0
 62
251
100
AcDbLine
 10
-19.13721810335232
 20
45.34499400130885
 30
0.0
 11
-19.13721810335232
 21
45.34899400130884
 31
0.0
  0
LINE
  5
A6
330
17
100
AcDbEntity
  8
0
 62
251
100
AcDbLine
 10
-19.15758116596882
 20
45.344994001308834
 30
0.0
 11
-19.13721810335232
 21
45.34499400130885
 31
0.0
  0
LINE
  5
A7
330
17
100
AcDbEntity
  8
0
 62
251
100
AcDbLine
 10
-19.15758116596854
 20
45.348994001308725
 30
0.0
 11
-19.13721810335232
 21
45.34899400130884
 31
0.0
  0
LINE
  5
A8
330
17
100
AcDbEntity
  8
0
 62
251
100
AcDbLine
 10
-19.13721810335232
 20
45.34499400130885
 30
0.0
 11
-19.135218103352372
 21
45.341994001308834
 31
0.0
  0
LINE
  5
A9
330
17
100
AcDbEntity
  8
0
 62
251
100
AcDbLine
 10
-19.13721810335232
 20
45.34899400130884
 30
0.0
 11
-19.135218103352372
 21
45.35199400130885
 31
0.0
  0
LINE
  5
AA
330
17
100
AcDbEntity
  8
0
 62
251
100
AcDbLine
 10
-19.16187017980954
 20
45.346994001308715
 30
0.0
 11
-19.15758116596854
 21
45.348994001308725
 31
0.0
  0
LINE
  5
AB
330
17
100
AcDbEntity
  8
0
 62
251
100
AcDbLine
 10
-19.16187017980954
 20
45.346994001308715
 30
0.0
 11
-19.15758116596859
 21
45.344994001308734
 31
0.0
  0
LINE
  5
AC
330
17
100
AcDbEntity
  8
0
 62
251
100
AcDbLine
 10
-19.14266147902532
 20
45.34449400130883
 30
0.0
 11
-19.139774727679363
 21
45.34949400130883
 31
0.0
  0
LINE
  5
AD
330
17
100
AcDbEntity
  8
0
 62
251
100
AcDbLine
 10
-19.14466147902533
 20
45.34449400130883
 30
0.0
 11
-19.141774727679373
 21
45.34949400130883
 31
0.0
  0
LINE
  5
AE
330
17
100
AcDbEntity
  8
0
 62
251
100
AcDbLine
 10
-19.14066147902531
 20
45.34449400130883
 30
0.0
 11
-19.137774727679354
 21
45.34949400130883
 31
0.0
  0
ARC
  5
AF
330
17
100
AcDbEntity
  8
0
 62
251
100
AcDbCircle
 10
19.158126487317134
 20
45.34699400130898
 30
0.0
 40
0.0234476876445912
210
0.0
220
0.0
230
-1.0
100
AcDbArc
 50
167.68766983888
 51
179.1621253568056
  0
ARC
  5
B0
330
17
100
AcDbEntity
  8
0
 62
251
100
AcDbCircle
 10
19.158126487317134
 20
45.34699400130898
 30
0.0
 40
0.0234476876445912
210
0.0
220
0.0
230
-1.0
100
AcDbArc
 50
-179.1621253563204
 51
-167.68766983823994
  0
LINE
  5
B1
330
17
100
AcDbEntity
  8
0
 62
251
100
AcDbLine
 10
-19.135218103352372
 20
45.34733688036327
 30
0.0
 11
-19.134678799672542
 21
45.34733688036327
 31
0.0
  0
LINE
  5
B2
330
17
100
AcDbEntity
  8
0
 62
251
100
AcDbLine
 10
-19.135218103352372
 20
45.346651122254436
 30
0.0
 11
-19.134678799672542
 21
45.346651122254436
 31
0.0
  0
LINE
  5
B3
330
17
100
AcDbEntity
  8
0
 62
251
100
AcDbLine
 10
-19.14666147902534
 20
45.34449400130883
 30
0.0
 11
-19.143774727679382
 21
45.34949400130883
 31
0.0
  0
LINE
  5
B4
330
17
100
AcDbEntity
  8
0
 62
251
100
AcDbLine
 10
-19.148661479025343
 20
45.34449400130883
 30
0.0
 11
-19.14577472767939
 21
45.34949400130883
 31
0.0
  0
LINE
  5
B5
330
17
100
AcDbEntity
  8
0
 62
251
100
AcDbLine
 10
-19.150661479025363
 20
45.34449400130883
 30
0.0
 11
-19.1477747276794
 21
45.34949400130883
 31
0.0
  0
LINE
  5
B6
330
17
100
AcDbEntity
  8
0
 62
251
100
AcDbLine
 10
-19.15266147902536
 20
45.34449400130883
 30
0.0
 11
-19.14977472767941
 21
45.34949400130883
 31
0.0
  0
LINE
  5
B7
330
17
100
AcDbEntity
  8
0
 62
251
100
AcDbLine
 10
-19.154661479025382
 20
45.34449400130883
 30
0.0
 11
-19.15177472767942
 21
45.34949400130883
 31
0.0
  0
LINE
  5
B8
330
17
100
AcDbEntity
  8
0
 62
251
100
AcDbLine
 10
-19.15666147902538
 20
45.34449400130883
 30
0.0
 11
-19.153774727679433
 21
45.34949400130883
 31
0.0
  0
LINE
  5
B9
330
17
100
AcDbEntity
  8
0
 62
8
100
AcDbLine
 10
-19.13068606430505
 20
45.36751631147267
 30
0.0
 11
-19.13188606430489
 21
45.36751631147267
 31
0.0
  0
LINE
  5
BA
330
17
100
AcDbEntity
  8
0
 62
8
100
AcDbLine
 10
-19.13718606430488
 20
45.35492783854778
 30
0.0
 11
-19.13758783523197
 21
45.35492783854778
 31
0.0
  0
LINE
  5
BB
330
17
100
AcDbEntity
  8
0
 62
8
100
AcDbLine
 10
-19.13068606430505
 20
45.32647169114501
 30
0.0
 11
-19.13188606430489
 21
45.32647169114501
 31
0.0
  0
LINE
  5
BC
330
17
100
AcDbEntity
  8
0
 62
8
100
AcDbLine
 10
-19.13718606430488
 20
45.33892783854779
 30
0.0
 11
-19.13758783523197
 21
45.33892783854779
 31
0.0
  0
LINE
  5
BE
330
17
100
AcDbEntity
  8
0-EJES
100
AcDbLine
 10
-15.38468606430489
 20
55.51565272421896
 30
0.0
 11
-15.38468606430489
 21
41.90034924316558
 31
0.0
  0
LINE
  5
BF
330
17
100
AcDbEntity
  8
0-EJES
100
AcDbLine
 10
-19.40468606430487
 20
55.51565272421896
 30
0.0
 11
-19.40468606430488
 21
41.90034924316558
 31
0.0
  0
LINE
  5
C0
330
17
100
AcDbEntity
  8
0
 62
8
100
AcDbLine
 10
-19.70468606430488
 20
50.51442783854779
 30
0.0
 11
-19.70468606430488
 21
42.91442783854779
 31
0.0
  0
LINE
  5
C1
330
17
100
AcDbEntity
  8
0
 62
8
100
AcDbLine
 10
-19.10468606430488
 20
48.95257374005885
 30
0.0
 11
-19.10468606430487
 21
42.91442783854779
 31
0.0
  0
LINE
  5
C2
330
17
100
AcDbEntity
  8
0
 62
8
100
AcDbLine
 10
-19.36133809341759
 20
50.51442783854779
 30
0.0
 11
-19.70468606430488
 21
50.51442783854779
 31
0.0
  0
CIRCLE
  5
C3
330
17
100
AcDbEntity
  8
0-EJES
100
AcDbCircle
 10
-15.38468606430489
 20
41.70228208306582
 30
0.0
 40
0.1980671600997539
  0
CIRCLE
  5
C4
330
17
100
AcDbEntity
  8
0-EJES
100
AcDbCircle
 10
-19.40468606430488
 20
41.70228208306582
 30
0.0
 40
0.1980671600997539
  0
LINE
  5
C5
330
17
100
AcDbEntity
  8
0-EJES
100
AcDbLine
 10
-24.47468606430488
 20
55.51565272421896
 30
0.0
 11
-24.47468606430488
 21
41.90034924316558
 31
0.0
  0
CIRCLE
  5
C6
330
17
100
AcDbEntity
  8
0-EJES
100
AcDbCircle
 10
-24.47468606430488
 20
41.70228208306582
 30
0.0
 40
0.1980671600997539
  0
LWPOLYLINE
  5
C7
330
17
100
AcDbEntity
  8
0
 62
8
100
AcDbPolyline
 90
28
 70
1
 10
-16.85586548652696
 20
52.38335791665938
 10
-16.8545243461636
 20
52.39124469801661
 10
-16.85284792012732
 20
52.40110317401465
 42
0.4142135623730951
 10
-16.86102997241738
 20
52.41263807814445
 10
-16.93989779879536
 20
52.42604949295397
 42
0.4142135623730951
 10
-16.95143270292516
 20
52.41786744043108
 10
-16.98160837809752
 20
52.24041483241942
 42
0.4142135623730951
 10
-16.97342632650594
 20
52.22887992456432
 10
-16.89455850012797
 20
52.21546851348008
 42
0.4142135623730951
 10
-16.88302359460118
 20
52.22365056507166
 10
-16.8813471685649
 20
52.23350904106971
 10
-16.8800060279687
 20
52.24139582987752
 42
0.4142135623730951
 10
-16.88164243810075
 20
52.24370280995842
 10
-16.88755752528283
 20
52.24470866534736
 42
0.4142135623730951
 10
-16.88986450676071
 20
52.24307225428399
 10
-16.89120564665842
 20
52.23518547385808
 10
-16.89120564665842
 20
52.23518547385808
 42
-0.4142135623730951
 10
-16.90274055195238
 20
52.22700341760989
 10
-16.96189142167765
 20
52.23706197522457
 42
-0.4142135623730951
 10
-16.97007347326922
 20
52.24859688307967
 10
-16.94325065086792
 20
52.40633253630128
 42
-0.4142135623730951
 10
-16.9317157458068
 20
52.41451458882417
 10
-16.87256487654719
 20
52.4044560274842
 42
-0.4142135623730951
 10
-16.86438282518844
 20
52.39292112242307
 10
-16.86438282518844
 20
52.39292112242307
 10
-16.86572396531898
 20
52.38503434199717
 42
0.4142135623730951
 10
-16.86408755565259
 20
52.38272735819098
 10
-16.85817246847051
 20
52.38172150280203
 42
0.4142135623730951
  0
LWPOLYLINE
  5
C8
330
17
100
AcDbEntity
  8
0
 62
8
100
AcDbPolyline
 90
28
 70
1
 10
-16.06908915317814
 20
52.2495680383208
 10
-16.06774801281477
 20
52.25745481967803
 10
-16.06607158677849
 20
52.26731329567607
 42
0.4142135623730951
 10
-16.07425363906856
 20
52.27884819980587
 10
-16.15312146544653
 20
52.29225961461541
 42
0.4142135623730951
 10
-16.16465636957633
 20
52.2840775620925
 10
-16.19483204474869
 20
52.10662495408084
 42
0.4142135623730951
 10
-16.18664999315712
 20
52.09509004622574
 10
-16.10778216677914
 20
52.08167863514152
 42
0.4142135623730951
 10
-16.09624726125236
 20
52.08986068673309
 10
-16.09457083521607
 20
52.09971916273113
 10
-16.09322969461988
 20
52.10760595153894
 42
0.4142135623730951
 10
-16.09486610475193
 20
52.10991293161985
 10
-16.100781191934
 20
52.11091878700878
 42
0.4142135623730951
 10
-16.10308817341189
 20
52.10928237594541
 10
-16.10442931330959
 20
52.10139559551951
 10
-16.10442931330959
 20
52.10139559551951
 42
-0.4142135623730951
 10
-16.11596421860355
 20
52.09321353927132
 10
-16.17511508832882
 20
52.103272096886
 42
-0.4142135623730951
 10
-16.1832971399204
 20
52.11480700474109
 10
-16.1564743175191
 20
52.2725426579627
 42
-0.4142135623730951
 10
-16.14493941245797
 20
52.2807247104856
 10
-16.08578854319836
 20
52.27066614914562
 42
-0.4142135623730951
 10
-16.07760649183961
 20
52.2591312440845
 10
-16.07760649183961
 20
52.2591312440845
 10
-16.07894763197015
 20
52.25124446365859
 42
0.4142135623730951
 10
-16.07731122230376
 20
52.2489374798524
 10
-16.07139613512169
 20
52.24793162446346
 42
0.4142135623730951
  0
LWPOLYLINE
  5
C9
330
17
100
AcDbEntity
  8
0
 62
8
100
AcDbPolyline
 90
28
 70
1
 10
-15.32174747353616
 20
52.12248211137827
 10
-15.32040633317279
 20
52.1303688927355
 10
-15.31872990713651
 20
52.14022736873355
 42
0.4142135623730951
 10
-15.32691195942658
 20
52.15176227286335
 10
-15.40577978580455
 20
52.16517368767288
 42
0.4142135623730951
 10
-15.41731468993436
 20
52.15699163514997
 10
-15.44749036510672
 20
51.97953902713831
 42
0.4142135623730951
 10
-15.43930831351514
 20
51.96800411928322
 10
-15.36044048713717
 20
51.95459270819899
 42
0.4142135623730951
 10
-15.34890558161038
 20
51.96277475979056
 10
-15.34722915557409
 20
51.97263323578861
 10
-15.3458880149779
 20
51.98052002459641
 42
0.4142135623730951
 10
-15.34752442510995
 20
51.98282700467732
 10
-15.35343951229203
 20
51.98383286006626
 42
0.4142135623730951
 10
-15.35574649376991
 20
51.98219644900288
 10
-15.35708763366762
 20
51.97430966857698
 10
-15.35708763366762
 20
51.97430966857698
 42
-0.4142135623730951
 10
-15.36862253896157
 20
51.96612761232879
 10
-15.42777340868684
 20
51.97618616994347
 42
-0.4142135623730951
 10
-15.43595546027842
 20
51.98772107779856
 10
-15.40913263787712
 20
52.14545673102017
 42
-0.4142135623730951
 10
-15.39759773281599
 20
52.15363878354307
 10
-15.33844686355638
 20
52.14358022220309
 42
-0.4142135623730951
 10
-15.33026481219764
 20
52.13204531714197
 10
-15.33026481219764
 20
52.13204531714197
 10
-15.33160595232817
 20
52.12415853671607
 42
0.4142135623730951
 10
-15.32996954266178
 20
52.12185155290987
 10
-15.32405445547971
 20
52.12084569752093
 42
0.4142135623730951
  0
LWPOLYLINE
  5
CA
330
17
100
AcDbEntity
  8
0
 62
8
100
AcDbPolyline
 90
4
 70
0
 10
-17.32738109315011
 20
52.28906942967203
 10
-15.36043602272599
 20
51.95459195010241
 10
-15.3772047535536
 20
51.8560079258668
 10
-24.84911989491628
 20
53.46669973469359
  0
LWPOLYLINE
  5
CB
330
17
100
AcDbEntity
  8
0
 62
8
100
AcDbPolyline
 90
4
 70
1
 10
-15.36668155444982
 20
51.91509919676807
 10
-15.28668606430489
 20
51.9142497514176
 10
-15.29911960088844
 20
50.74333702929195
 10
-15.37904097044571
 20
50.75116669449832
  0
LWPOLYLINE
  5
CC
330
17
100
AcDbEntity
  8
0
 62
8
100
AcDbPolyline
 90
3
 70
0
 10
-15.23029076422296
 20
50.73673301625873
 10
-15.23977879479258
 20
50.63784616317477
 10
-24.84911989491628
 20
51.55741959536769
  0
LWPOLYLINE
  5
CD
330
17
100
AcDbEntity
  8
0
 62
8
100
AcDbPolyline
 90
2
 70
0
 10
-24.84911989491628
 20
51.65972940483173
 10
-15.23028262725762
 20
50.73681782156106
  0
LWPOLYLINE
  5
CE
330
17
100
AcDbEntity
  8
0
 62
8
100
AcDbPolyline
 90
2
 70
0
 10
-15.36741828078135
 20
51.84571892179426
 10
-16.24064539824809
 20
50.83433686166879
  0
LWPOLYLINE
  5
CF
330
17
100
AcDbEntity
  8
0
 62
8
100
AcDbPolyline
 90
2
 70
0
 10
-16.27114256329565
 20
50.92142918676015
 10
-15.45308643682125
 20
51.86891154728707
  0
LWPOLYLINE
  5
D0
330
17
100
AcDbEntity
  8
0
 62
8
100
AcDbPolyline
 90
2
 70
0
 10
-16.12304931818704
 20
51.98290775406983
 10
-16.28272997806976
 20
50.83837480813142
  0
LWPOLYLINE
  5
D1
330
17
100
AcDbEntity
  8
0
 62
8
100
AcDbPolyline
 90
2
 70
0
 10
-16.36251717326428
 20
50.84545385993894
 10
-16.20196168204035
 20
51.9962572797003
  0
LINE
  5
D2
330
17
100
AcDbEntity
  8
0
 62
8
100
AcDbLine
 10
-24.47468606430486
 20
53.50233260614253
 30
0.0
 11
-15.36044048713717
 21
51.95459270819899
 31
0.0
  0
CIRCLE
  5
D3
330
17
100
AcDbEntity
  8
0-EJES
100
AcDbCircle
 10
-15.38468606430489
 20
55.71371988431872
 30
0.0
 40
0.1980671600997539
  0
CIRCLE
  5
D4
330
17
100
AcDbEntity
  8
0-EJES
100
AcDbCircle
 10
-19.40468606430488
 20
55.71371988431872
 30
0.0
 40
0.1980671600997539
  0
CIRCLE
  5
D5
330
17
100
AcDbEntity
  8
0-EJES
100
AcDbCircle
 10
-24.47468606430488
 20
55.71371988431872
 30
0.0
 40
0.1980671600997539
  0
LWPOLYLINE
  5
D6
330
17
100
AcDbEntity
  8
0
 62
8
100
AcDbPolyline
 90
6
 70
0
 10
-13.84497253396014
 20
43.15583106374049
 10
-14.31519011211654
 20
43.15583106374049
 10
-14.31519011211654
 20
42.91442783854779
 10
-14.4212561292945
 20
43.02049385572575
 10
-14.31519011211654
 20
42.91442783854779
 10
-14.20558856103261
 20
43.02402938963171
  0
LINE
  5
D7
330
17
100
AcDbEntity
  8
0
 62
8
100
AcDbLine
 10
-24.47468606430486
 20
53.70519583350215
 30
0.0
 11
-15.32691195058673
 21
52.15176227136015
 31
0.0
  0
LINE
  5
D8
330
17
100
AcDbEntity
  8
0
 62
8
100
AcDbLine
 10
-24.47468606430486
 20
53.73562531861968
 30
0.0
 11
-15.32188939031127
 21
52.18133884804305
 31
0.0
  0
LWPOLYLINE
  5
D9
330
17
100
AcDbEntity
  8
0
 62
8
100
AcDbPolyline
 90
4
 70
1
 10
-16.14577351981161
 20
52.32143208599428
 10
-16.12112637257586
 20
52.31724661909805
 10
-16.12531183947209
 20
52.2925994718623
 10
-16.14995898670784
 20
52.29678493875852
  0
LWPOLYLINE
  5
DA
330
17
100
AcDbEntity
  8
0
 62
8
100
AcDbPolyline
 90
4
 70
1
 10
-16.0964792253401
 20
52.31306115220182
 10
-16.07183207810435
 20
52.30887568530561
 10
-16.07601754500058
 20
52.28422853806986
 10
-16.10066469223633
 20
52.28841400496609
  0
LINE
  5
DB
330
17
100
AcDbEntity
  8
0
 62
8
100
AcDbLine
 10
-16.07183207810435
 20
52.30887568530561
 30
0.0
 11
-16.08538008220093
 21
52.39641897088265
 31
0.0
  0
LINE
  5
DC
330
17
100
AcDbEntity
  8
0
 62
8
100
AcDbLine
 10
-16.14577351981161
 20
52.32143208599428
 30
0.0
 11
-16.10408595174263
 21
52.39959551691383
 31
0.0
  0
ARC
  5
DD
330
17
100
AcDbEntity
  8
0
 62
8
100
AcDbCircle
 10
-16.09526244131031
 20
52.39488959897463
 30
0.0
 40
0.01
100
AcDbArc
 50
8.797179629512126
 51
151.9272819836587
  0
LINE
  5
DE
330
17
100
AcDbEntity
  8
0
 62
8
100
AcDbLine
 10
-16.10066469223633
 20
52.28841400496609
 30
0.0
 11
-16.12531183947209
 21
52.2925994718623
 31
0.0
  0
CIRCLE
  5
DF
330
17
100
AcDbEntity
  8
0
 62
8
100
AcDbCircle
 10
-16.09777226926003
 20
52.38010986219804
 30
0.0
 40
0.0075
  0
CIRCLE
  5
E0
330
17
100
AcDbEntity
  8
0
 62
8
100
AcDbCircle
 10
-16.10268343199298
 20
52.35118927723608
 30
0.0
 40
0.0075
  0
CIRCLE
  5
E1
330
17
100
AcDbEntity
  8
0
 62
8
100
AcDbCircle
 10
-16.10759431491951
 20
52.32227033998272
 30
0.0
 40
0.0075
  0
CIRCLE
  5
E2
330
17
100
AcDbEntity
  8
0
 62
8
100
AcDbCircle
 10
-16.13554267964186
 20
52.30701577892829
 30
0.0
 40
0.0039178863809859
  0
CIRCLE
  5
E3
330
17
100
AcDbEntity
  8
0
 62
8
100
AcDbCircle
 10
-16.08624838517035
 20
52.29864484513583
 30
0.0
 40
0.0039178863809859
  0
LINE
  5
E4
330
17
100
AcDbEntity
  8
0
 62
11
100
AcDbLine
 10
-15.28468606430489
 20
52.1445916626278
 30
0.0
 11
-15.48186324219087
 21
52.17807539779755
 31
0.0
  0
LINE
  5
E5
330
17
100
AcDbEntity
  8
0
 62
11
100
AcDbLine
 10
-15.28468606430489
 20
51.84459166262779
 30
0.0
 11
-15.28468606430489
 21
52.1445916626278
 31
0.0
  0
LINE
  5
E6
330
17
100
AcDbEntity
  8
0
 62
11
100
AcDbLine
 10
-15.28468606430489
 20
51.84459166262779
 30
0.0
 11
-14.88468606430489
 21
51.84459166262779
 31
0.0
  0
LINE
  5
E7
330
17
100
AcDbEntity
  8
0
 62
11
100
AcDbLine
 10
-14.88468606430489
 20
51.84459166262779
 30
0.0
 11
-14.88468606430489
 21
52.4445916626278
 31
0.0
  0
LINE
  5
E8
330
17
100
AcDbEntity
  8
0
 62
11
100
AcDbLine
 10
-14.88468606430489
 20
52.4445916626278
 30
0.0
 11
-14.78468606430489
 21
52.4445916626278
 31
0.0
  0
LINE
  5
E9
330
17
100
AcDbEntity
  8
0
 62
11
100
AcDbLine
 10
-14.78468606430489
 20
52.4445916626278
 30
0.0
 11
-14.78468606430489
 21
49.96442783854779
 31
0.0
  0
LINE
  5
EA
330
17
100
AcDbEntity
  8
0
 62
11
100
AcDbLine
 10
-14.78468606430489
 20
49.96442783854779
 30
0.0
 11
-19.06133809341759
 21
49.96442783854779
 31
0.0
  0
LINE
  5
EB
330
17
100
AcDbEntity
  8
0
 62
8
100
AcDbLine
 10
-15.29911960088844
 20
50.74333702929195
 30
0.0
 11
-14.88468606430489
 21
51.84459166262779
 31
0.0
  0
LINE
  5
EC
330
17
100
AcDbEntity
  8
0
 62
8
100
AcDbLine
 10
-15.3739931812885
 20
50.77151409368974
 30
0.0
 11
-14.97016347791066
 21
51.84459166262779
 31
0.0
  0
LINE
  5
ED
330
17
100
AcDbEntity
  8
0
 62
8
100
AcDbLine
 10
-15.28468606430489
 20
51.76459166262779
 30
0.0
 11
-14.91479234665147
 21
51.76459166262779
 31
0.0
  0
LINE
  5
EE
330
17
100
AcDbEntity
  8
0
 62
8
100
AcDbLine
 10
-15.00968606430489
 20
51.84459166262779
 30
0.0
 11
-15.00968606430489
 21
51.0615265360847
 31
0.0
  0
LINE
  5
EF
330
17
100
AcDbEntity
  8
0
 62
8
100
AcDbLine
 10
-15.15968606430489
 20
51.84459166262779
 30
0.0
 11
-15.15968606430489
 21
51.12365857044068
 31
0.0
  0
LINE
  5
F0
330
17
100
AcDbEntity
  8
0
 62
8
100
AcDbLine
 10
-15.5878507790198
 20
50.4833618213698
 30
0.0
 11
-15.58785077901982
 21
42.91442783854779
 31
0.0
  0
LINE
  5
F1
330
17
100
AcDbEntity
  8
0
 62
8
100
AcDbLine
 10
-15.73785077901981
 20
50.54549385572578
 30
0.0
 11
-15.73785077901982
 21
42.91442783854779
 31
0.0
  0
LINE
  5
F2
330
17
100
AcDbEntity
  8
0
 62
8
100
AcDbLine
 10
-15.15968606430489
 20
51.12365857044068
 30
0.0
 11
-15.73785077901981
 21
50.54549385572578
 31
0.0
  0
LINE
  5
F3
330
17
100
AcDbEntity
  8
0
 62
8
100
AcDbLine
 10
-15.00968606430489
 20
51.0615265360847
 30
0.0
 11
-15.5878507790198
 21
50.4833618213698
 31
0.0
  0
LINE
  5
F4
330
17
100
AcDbEntity
  8
0
 62
11
100
AcDbLine
 10
-19.13018606430489
 20
48.44757374005884
 30
0.0
 11
-19.12818606430488
 21
48.44757374005884
 31
0.0
  0
LINE
  5
F5
330
17
100
AcDbEntity
  8
0
 62
11
100
AcDbLine
 10
-19.12718606430488
 20
48.44757374005886
 30
0.0
 11
-19.12518606430488
 21
48.44757374005884
 31
0.0
  0
LINE
  5
F6
330
17
100
AcDbEntity
  8
0
 62
11
100
AcDbLine
 10
-19.11218606430488
 20
48.44757374005884
 30
0.0
 11
-19.10918606430488
 21
48.44757374005884
 31
0.0
  0
LINE
  5
F7
330
17
100
AcDbEntity
  8
0
 62
11
100
AcDbLine
 10
-19.10818606430489
 20
48.44757374005884
 30
0.0
 11
-19.10518606430489
 21
48.44757374005884
 31
0.0
  0
LINE
  5
F8
330
17
100
AcDbEntity
  8
0
 62
11
100
AcDbLine
 10
-19.10468606430487
 20
48.44707374005884
 30
0.0
 11
-19.10518606430489
 21
48.44757374005884
 31
0.0
  0
LINE
  5
F9
330
17
100
AcDbEntity
  8
0
 62
11
100
AcDbLine
 10
-19.11268606430488
 20
48.44707374005885
 30
0.0
 11
-19.11218606430488
 21
48.44757374005884
 31
0.0
  0
LINE
  5
FA
330
17
100
AcDbEntity
  8
0
 62
11
100
AcDbLine
 10
-19.10868606430489
 20
48.44707374005885
 30
0.0
 11
-19.10818606430489
 21
48.44757374005884
 31
0.0
  0
LINE
  5
FB
330
17
100
AcDbEntity
  8
0
 62
11
100
AcDbLine
 10
-19.10868606430489
 20
48.44707374005885
 30
0.0
 11
-19.10918606430488
 21
48.44757374005884
 31
0.0
  0
LINE
  5
FC
330
17
100
AcDbEntity
  8
0
 62
8
100
AcDbLine
 10
-19.11268606430488
 20
48.43488824299237
 30
0.0
 11
-19.12468606430488
 21
48.43488824299237
 31
0.0
  0
LWPOLYLINE
  5
FD
330
17
100
AcDbEntity
  8
0
 62
8
100
AcDbPolyline
 90
6
 70
1
 10
-19.12368606430488
 20
48.43488824299237
 10
-19.11368606430488
 20
48.43488824299237
 10
-19.11368606430488
 20
48.43988824299237
 10
-19.11718606430487
 20
48.44288824299237
 10
-19.12018606430487
 20
48.44288824299237
 10
-19.12368606430488
 20
48.43988824299237
  0
LWPOLYLINE
  5
FE
330
17
100
AcDbEntity
  8
0
 62
8
100
AcDbPolyline
 90
6
 70
1
 10
-19.12318606430487
 20
48.43538824299236
 10
-19.11418606430487
 20
48.43538824299236
 10
-19.11418606430487
 20
48.43973685517351
 10
-19.11745365618412
 20
48.44238824299236
 10
-19.11991847242564
 20
48.44238824299236
 10
-19.12318606430487
 20
48.43973685517351
  0
LINE
  5
FF
330
17
100
AcDbEntity
  8
0
 62
11
100
AcDbLine
 10
-19.12768606430488
 20
48.44707374005885
 30
0.0
 11
-19.12718606430488
 21
48.44757374005884
 31
0.0
  0
LINE
  5
100
330
17
100
AcDbEntity
  8
0
 62
11
100
AcDbLine
 10
-19.12768606430488
 20
48.44707374005885
 30
0.0
 11
-19.12818606430488
 21
48.44757374005884
 31
0.0
  0
LINE
  5
101
330
17
100
AcDbEntity
  8
0
 62
11
100
AcDbLine
 10
-19.12468606430488
 20
48.44707374005885
 30
0.0
 11
-19.12518606430488
 21
48.44757374005884
 31
0.0
  0
LINE
  5
102
330
17
100
AcDbEntity
  8
0
 62
11
100
AcDbLine
 10
-19.13068606430488
 20
48.44707374005885
 30
0.0
 11
-19.13018606430489
 21
48.44757374005884
 31
0.0
  0
ARC
  5
103
330
17
100
AcDbEntity
  8
0
 62
8
100
AcDbCircle
 10
-19.11868606430488
 20
48.45926438622569
 30
0.0
 40
0.0133761432333217
100
AcDbArc
 50
240.9259378909695
 51
299.0740621090174
  0
LINE
  5
104
330
17
100
AcDbEntity
  8
0
 62
8
100
AcDbLine
 10
-19.12368606430488
 20
48.43988824299237
 30
0.0
 11
-19.12468606430488
 21
48.43988824299237
 31
0.0
  0
LINE
  5
105
330
17
100
AcDbEntity
  8
0
 62
8
100
AcDbLine
 10
-19.11368606430488
 20
48.43988824299237
 30
0.0
 11
-19.11268606430488
 21
48.43988824299237
 31
0.0
  0
LINE
  5
106
330
17
100
AcDbEntity
  8
0
 62
8
100
AcDbLine
 10
-19.13188606430489
 20
48.43457374005883
 30
0.0
 11
-19.13068606430488
 21
48.43457374005883
 31
0.0
  0
LINE
  5
107
330
17
100
AcDbEntity
  8
0
 62
8
100
AcDbLine
 10
-19.13068606430488
 20
48.44707374005885
 30
0.0
 11
-19.13188606430489
 21
48.44707374005885
 31
0.0
  0
LINE
  5
108
330
17
100
AcDbEntity
  8
0
 62
3
100
AcDbLine
 10
-19.10173621566696
 20
48.45257374005885
 30
0.0
 11
-19.10173621566696
 21
52.78592560262501
 31
0.0
  0
LWPOLYLINE
  5
109
330
17
100
AcDbEntity
  8
0
 62
4
100
AcDbPolyline
 90
4
 70
1
 10
-19.35173621566696
 20
48.65257374005885
 10
-19.10173621566696
 20
48.65257374005885
 10
-19.10173621566696
 20
48.45257374005885
 10
-19.35173621566696
 20
48.45257374005885
  0
LINE
  5
10A
330
17
100
AcDbEntity
  8
0
 62
4
100
AcDbLine
 10
-10.8846860643049
 20
42.76442783854779
 30
0.0
 11
-10.6846860643049
 21
42.76442783854779
 31
0.0
  0
LINE
  5
10B
330
17
100
AcDbEntity
  8
0
 62
4
100
AcDbLine
 10
-10.8846860643049
 20
42.91442783854779
 30
0.0
 11
-10.8846860643049
 21
42.76442783854779
 31
0.0
  0
LINE
  5
10C
330
17
100
AcDbEntity
  8
0
 62
8
100
AcDbLine
 10
-8.997950277901438
 20
44.18684077753074
 30
0.0
 11
-9.053748319329387
 21
44.6021651067861
 31
0.0
  0
LINE
  5
10D
330
17
100
AcDbEntity
  8
0
 62
8
100
AcDbLine
 10
-8.97723242754388
 20
43.87694483758666
 30
0.0
 11
-8.963821914724676
 21
43.63700481623611
 31
0.0
  0
LINE
  5
10E
330
17
100
AcDbEntity
  8
0
 62
8
100
AcDbLine
 10
-8.9502333636499
 20
43.39984432279588
 30
0.0
 11
-8.9502333636499
 21
43.32778279675115
 31
0.0
  0
LINE
  5
10F
330
17
100
AcDbEntity
  8
0
 62
8
100
AcDbLine
 10
-8.9502333636499
 20
43.32778279675115
 30
0.0
 11
-9.008477101448548
 21
43.26506179276775
 31
0.0
  0
LINE
  5
110
330
17
100
AcDbEntity
  8
0
 62
8
100
AcDbLine
 10
-9.044494117381973
 20
43.39984432279588
 30
0.0
 11
-8.877868710360374
 21
43.64665485069887
 31
0.0
  0
LINE
  5
111
330
17
100
AcDbEntity
  8
0
 62
8
100
AcDbLine
 10
-9.037393616448057
 20
43.95627339620112
 30
0.0
 11
-9.012660996657573
 21
43.87694483758666
 31
0.0
  0
LINE
  5
112
330
17
100
AcDbEntity
  8
0
 62
8
100
AcDbLine
 10
-9.012660996657573
 20
43.87694483758666
 30
0.0
 11
-8.97723242754388
 21
43.87694483758666
 31
0.0
  0
LINE
  5
113
330
17
100
AcDbEntity
  8
0
 62
8
100
AcDbLine
 10
-8.958884682977256
 20
43.99728997013139
 30
0.0
 11
-9.03812163046068
 21
44.05149741643251
 31
0.0
  0
LINE
  5
114
330
17
100
AcDbEntity
  8
0
 62
8
100
AcDbLine
 10
-8.83399328959571
 20
44.30368515740575
 30
0.0
 11
-8.742869044572004
 21
44.31130715536617
 31
0.0
  0
LINE
  5
115
330
17
100
AcDbEntity
  8
0
 62
8
100
AcDbLine
 10
-8.746960031126477
 20
44.11347708236202
 30
0.0
 11
-8.843403233305978
 21
44.11726346809653
 31
0.0
  0
LINE
  5
116
330
17
100
AcDbEntity
  8
0
 62
8
100
AcDbLine
 10
-8.862182165065391
 20
44.13820688091128
 30
0.0
 11
-8.851907627105234
 21
44.28552157124833
 31
0.0
  0
ARC
  5
117
330
17
100
AcDbEntity
  8
0
 62
8
100
AcDbCircle
 10
-9.027081259402747
 20
44.18292708503033
 30
0.0
 40
0.029392704404644
100
AcDbArc
 50
270.0
 51
7.651762961645039
  0
LINE
  5
118
330
17
100
AcDbEntity
  8
0
 62
8
100
AcDbLine
 10
-8.923059210238037
 20
44.10535851086634
 30
0.0
 11
-8.86027075376633
 21
44.16561239196366
 31
0.0
  0
LINE
  5
119
330
17
100
AcDbEntity
  8
0
 62
8
100
AcDbLine
 10
-8.860732084646841
 20
44.13810893035218
 30
0.0
 11
-8.91611686243833
 21
44.09001998949171
 31
0.0
  0
ARC
  5
11A
330
17
100
AcDbEntity
  8
0
 62
8
100
AcDbCircle
 10
-8.842634515261963
 20
44.13684352013935
 30
0.0
 40
0.0195951362697627
100
AcDbArc
 50
176.0103375155861
 51
267.7517071524016
  0
ARC
  5
11B
330
17
100
AcDbEntity
  8
0
 62
8
100
AcDbCircle
 10
-8.832359977301834
 20
44.28415821047642
 30
0.0
 40
0.0195951362697627
100
AcDbArc
 50
94.78131937173065
 51
176.0103375155861
  0
LINE
  5
11C
330
17
100
AcDbEntity
  8
0
 62
8
100
AcDbLine
 10
-8.712709797678102
 20
44.25584653720105
 30
0.0
 11
-8.726605720361945
 21
44.13244564179154
 31
0.0
  0
ARC
  5
11D
330
17
100
AcDbEntity
  8
0
 62
8
100
AcDbCircle
 10
-8.746191313082491
 20
44.13305713440485
 30
0.0
 40
0.0195951362697627
100
AcDbArc
 50
267.7517071524016
 51
358.211717719112
  0
ARC
  5
11E
330
17
100
AcDbEntity
  8
0
 62
8
100
AcDbCircle
 10
-8.791666651345523
 20
44.24884068176085
 30
0.0
 40
0.0792670596875579
100
AcDbArc
 50
5.070585383238796
 51
52.00373149110733
  0
LINE
  5
11F
330
17
100
AcDbEntity
  8
0
 62
8
100
AcDbLine
 10
-9.780448053771224
 20
43.90510994480308
 30
0.0
 11
-9.124627643866276
 21
43.90510994480308
 31
0.0
  0
LINE
  5
120
330
17
100
AcDbEntity
  8
0
 62
8
100
AcDbLine
 10
-9.089157159585241
 20
43.46188939848454
 30
0.0
 11
-9.767037540952046
 21
43.46188939848454
 31
0.0
  0
LWPOLYLINE
  5
121
330
17
100
AcDbEntity
  8
0
 62
8
100
AcDbPolyline
 90
3
 70
0
 10
-9.309493853943664
 20
43.87685592784267
 10
-9.29608334112443
 20
43.50624500578989
 10
-9.767037540952074
 20
43.50624500578989
  0
LWPOLYLINE
  5
122
330
17
100
AcDbEntity
  8
0
 62
8
100
AcDbPolyline
 90
2
 70
0
 10
-10.23799174077969
 20
43.69132509914698
 10
-9.29608334112443
 20
43.69132509914698
  0
LWPOLYLINE
  5
123
330
17
100
AcDbEntity
  8
0
 62
8
100
AcDbPolyline
 90
2
 70
0
 10
-10.23799174077969
 20
43.65513633386872
 10
-9.29608334112443
 20
43.65513633386872
  0
LINE
  5
124
330
17
100
AcDbEntity
  8
0
 62
8
100
AcDbLine
 10
-9.296509817714579
 20
43.91718096008673
 30
0.0
 11
-9.780448053771224
 21
43.91718096008673
 31
0.0
  0
LWPOLYLINE
  5
125
330
17
100
AcDbEntity
  8
0
 62
8
100
AcDbPolyline
 90
2
 70
0
 10
-9.291845309993832
 20
43.25177032164079
 10
-9.320115394980277
 20
43.07154812815157
  0
ARC
  5
126
330
17
100
AcDbEntity
  8
0
 62
8
100
AcDbCircle
 10
-9.311641797335128
 20
44.0797457228942
 30
0.0
 40
0.0084315141309025
100
AcDbArc
 50
241.9248922736943
 51
53.98960382862275
  0
LINE
  5
127
330
17
100
AcDbEntity
  8
0
 62
8
100
AcDbLine
 10
-9.302934171586188
 20
43.96579530842288
 30
0.0
 11
-9.513601346650987
 21
43.96579530842288
 31
0.0
  0
ARC
  5
128
330
17
100
AcDbEntity
  8
0
 62
8
100
AcDbCircle
 10
-9.24962406963779
 20
44.13140592008581
 30
0.0
 40
0.1453980058523457
100
AcDbArc
 50
8.753996428115776
 51
166.323374529418
  0
ARC
  5
129
330
17
100
AcDbEntity
  8
0
 62
8
100
AcDbCircle
 10
-9.775977882831526
 20
39.21096988285397
 30
0.0
 40
5.461076416042941
100
AcDbArc
 50
82.66890518139735
 51
97.33109481860266
  0
LINE
  5
12A
330
17
100
AcDbEntity
  8
0
 62
8
100
AcDbLine
 10
-9.309493853943636
 20
43.87685592784267
 30
0.0
 11
-9.780448053771224
 21
43.87685592784267
 31
0.0
  0
LINE
  5
12B
330
17
100
AcDbEntity
  8
0
 62
8
100
AcDbLine
 10
-9.314433833177972
 20
44.06626786008817
 30
0.0
 11
-9.533053656022773
 21
44.01526590401249
 31
0.0
  0
LINE
  5
12C
330
17
100
AcDbEntity
  8
0
 62
8
100
AcDbLine
 10
-10.00498365833367
 20
44.15353438062568
 30
0.0
 11
-9.404868814423663
 21
44.15353438062568
 31
0.0
  0
LINE
  5
12D
330
17
100
AcDbEntity
  8
0
 62
8
100
AcDbLine
 10
-9.794797706344937
 20
44.16176335235339
 30
0.0
 11
-9.413911368463843
 21
44.16176335235339
 31
0.0
  0
LINE
  5
12E
330
17
100
AcDbEntity
  8
0
 62
8
100
AcDbLine
 10
-9.414815670923204
 20
44.18828130836873
 30
0.0
 11
-9.794797706344937
 21
44.18828130836873
 31
0.0
  0
LWPOLYLINE
  5
12F
330
17
100
AcDbEntity
  8
0
 62
8
100
AcDbPolyline
 90
2
 70
0
 10
-9.959652723747112
 20
44.11089308558281
 10
-9.358011658083015
 20
44.11089308558281
  0
LINE
  5
130
330
17
100
AcDbEntity
  8
0
 62
8
100
AcDbLine
 10
-9.413911368463843
 20
44.16176335235339
 30
0.0
 11
-9.315609908983319
 21
44.07230633310151
 31
0.0
  0
LINE
  5
131
330
17
100
AcDbEntity
  8
0
 62
8
100
AcDbLine
 10
-9.513601346650987
 20
43.96579530842288
 30
0.0
 11
-9.314433833177972
 21
44.06626786008817
 31
0.0
  0
LINE
  5
132
330
17
100
AcDbEntity
  8
0
 62
8
100
AcDbLine
 10
-9.306684640060025
 20
44.08656606176329
 30
0.0
 11
-9.414815670923204
 21
44.18828130836873
 31
0.0
  0
LINE
  5
133
330
17
100
AcDbEntity
  8
0
 62
8
100
AcDbLine
 10
-10.55400548776158
 20
44.18684077753074
 30
0.0
 11
-10.49820744633364
 21
44.6021651067861
 31
0.0
  0
LINE
  5
134
330
17
100
AcDbEntity
  8
0
 62
8
100
AcDbLine
 10
-10.52487450626027
 20
44.15353438062568
 30
0.0
 11
-10.03197542452419
 21
44.15353438062568
 31
0.0
  0
LINE
  5
135
330
17
100
AcDbEntity
  8
0
 62
8
100
AcDbLine
 10
-10.43626846367623
 20
43.90510994480308
 30
0.0
 11
-10.4658068515168
 21
43.96954879930207
 31
0.0
  0
LINE
  5
136
330
17
100
AcDbEntity
  8
0
 62
8
100
AcDbLine
 10
-10.57025316717944
 20
43.63700481623611
 30
0.0
 11
-10.44491792231888
 21
43.46188939848454
 31
0.0
  0
CIRCLE
  5
137
330
17
100
AcDbEntity
  8
0
 62
8
100
AcDbCircle
 10
-10.38509844676814
 20
43.69384206615682
 30
0.0
 40
0.0789279291655981
  0
LINE
  5
138
330
17
100
AcDbEntity
  8
0
 62
8
100
AcDbLine
 10
-10.52559798045554
 20
43.26506179276775
 30
0.0
 11
-10.04352720609013
 21
43.26506179276775
 31
0.0
  0
LINE
  5
139
330
17
100
AcDbEntity
  8
0
 62
8
100
AcDbLine
 10
-10.04352720609013
 20
43.39984432279588
 30
0.0
 11
-10.58384171825419
 21
43.39984432279588
 31
0.0
  0
LINE
  5
13A
330
17
100
AcDbEntity
  8
0
 62
8
100
AcDbLine
 10
-10.62346096685461
 20
44.00237934714134
 30
0.0
 11
-10.2643862898279
 21
43.91718096008673
 31
0.0
  0
LINE
  5
13B
330
17
100
AcDbEntity
  8
0
 62
8
100
AcDbLine
 10
-10.51383413520237
 20
44.05149741643251
 30
0.0
 11
-10.25796193595631
 21
43.96579530842288
 31
0.0
  0
LINE
  5
13C
330
17
100
AcDbEntity
  8
0
 62
8
100
AcDbLine
 10
-10.58384171825419
 20
43.32778279675115
 30
0.0
 11
-10.04352720609013
 21
43.32778279675115
 31
0.0
  0
LWPOLYLINE
  5
13D
330
17
100
AcDbEntity
  8
0
 62
8
100
AcDbPolyline
 90
2
 70
0
 10
-10.62576026520149
 20
44.11089308558281
 10
-9.98511826818357
 20
44.11089308558281
  0
LINE
  5
13E
330
17
100
AcDbEntity
  8
0
 62
8
100
AcDbLine
 10
-10.58366367999862
 20
43.87694483758666
 30
0.0
 11
-10.57025316717944
 21
43.63700481623611
 31
0.0
  0
LINE
  5
13F
330
17
100
AcDbEntity
  8
0
 62
8
100
AcDbLine
 10
-10.58384171825419
 20
43.39984432279588
 30
0.0
 11
-10.58384171825419
 21
43.32778279675115
 31
0.0
  0
LINE
  5
140
330
17
100
AcDbEntity
  8
0
 62
8
100
AcDbLine
 10
-10.58384171825419
 20
43.32778279675115
 30
0.0
 11
-10.52559798045554
 21
43.26506179276775
 31
0.0
  0
LINE
  5
141
330
17
100
AcDbEntity
  8
0
 62
8
100
AcDbLine
 10
-10.48958096452212
 20
43.39984432279588
 30
0.0
 11
-10.65620637154371
 21
43.64665485069887
 31
0.0
  0
LINE
  5
142
330
17
100
AcDbEntity
  8
0
 62
8
100
AcDbLine
 10
-10.52350249109442
 20
43.95627339620112
 30
0.0
 11
-10.5482351108849
 21
43.87694483758666
 31
0.0
  0
LINE
  5
143
330
17
100
AcDbEntity
  8
0
 62
8
100
AcDbLine
 10
-10.5482351108849
 20
43.87694483758666
 30
0.0
 11
-10.58366367999862
 21
43.87694483758666
 31
0.0
  0
LINE
  5
144
330
17
100
AcDbEntity
  8
0
 62
8
100
AcDbLine
 10
-10.60201142456522
 20
43.99728997013139
 30
0.0
 11
-10.51383413520237
 21
44.05149741643251
 31
0.0
  0
LINE
  5
145
330
17
100
AcDbEntity
  8
0
 62
8
100
AcDbLine
 10
-10.4658068515168
 20
43.96954879930207
 30
0.0
 11
-10.52350249109442
 21
43.95627339620112
 31
0.0
  0
LINE
  5
146
330
17
100
AcDbEntity
  8
0
 62
8
100
AcDbLine
 10
-10.69122368101618
 20
44.13810893035218
 30
0.0
 11
-10.63583890322472
 21
44.09001998949171
 31
0.0
  0
ARC
  5
147
330
17
100
AcDbEntity
  8
0
 62
8
100
AcDbCircle
 10
-10.52487450626027
 20
44.18292708503033
 30
0.0
 40
0.029392704404644
100
AcDbArc
 50
172.348237038355
 51
270.0
  0
ARC
  5
148
330
17
100
AcDbEntity
  8
0
 62
8
100
AcDbCircle
 10
-9.950776531160457
 20
43.17917863484578
 30
0.0
 40
0.1490937965423942
100
AcDbArc
 50
222.6533327037174
 51
313.7885978243712
  0
LINE
  5
149
330
17
100
AcDbEntity
  8
0
 62
8
100
AcDbLine
 10
-10.04352720609013
 20
43.39984432279588
 30
0.0
 11
-9.490547875813988
 21
43.39984432279588
 31
0.0
  0
LINE
  5
14A
330
17
100
AcDbEntity
  8
0
 62
8
100
AcDbLine
 10
-10.04352720609013
 20
43.26506179276775
 30
0.0
 11
-9.490547875813988
 21
43.26506179276775
 31
0.0
  0
LINE
  5
14B
330
17
100
AcDbEntity
  8
0
 62
8
100
AcDbLine
 10
-10.04729476089152
 20
43.96579530842288
 30
0.0
 11
-9.513601346650987
 21
43.96579530842288
 31
0.0
  0
LWPOLYLINE
  5
14C
330
17
100
AcDbEntity
  8
0
 62
8
100
AcDbPolyline
 90
3
 70
0
 10
-10.25140225359887
 20
43.87685592784267
 10
-10.23799174077969
 20
43.50624500578989
 10
-9.767037540952074
 20
43.50624500578989
  0
CIRCLE
  5
14D
330
17
100
AcDbEntity
  8
0
 62
8
100
AcDbCircle
 10
-9.764215995582262
 20
43.66805752626265
 30
0.0
 40
0.1017170319416661
  0
LINE
  5
14E
330
17
100
AcDbEntity
  8
0
 62
8
100
AcDbLine
 10
-10.44491792231888
 20
43.46188939848454
 30
0.0
 11
-9.767037540952046
 21
43.46188939848454
 31
0.0
  0
LINE
  5
14F
330
17
100
AcDbEntity
  8
0
 62
8
100
AcDbLine
 10
-10.04352720609013
 20
43.26506179276775
 30
0.0
 11
-10.04352720609013
 21
43.39984432279588
 31
0.0
  0
LWPOLYLINE
  5
150
330
17
100
AcDbEntity
  8
0
 62
8
100
AcDbPolyline
 90
2
 70
0
 10
-10.39455930049099
 20
43.04934211618655
 10
-10.39455930049099
 20
43.25838070754701
  0
LWPOLYLINE
  5
151
330
17
100
AcDbEntity
  8
0
 62
8
100
AcDbPolyline
 90
2
 70
0
 10
-10.21553078280173
 20
43.25838070754701
 10
-10.18726069781532
 20
43.0781585140578
  0
LINE
  5
152
330
17
100
AcDbEntity
  8
0
 62
8
100
AcDbLine
 10
-10.07153591785321
 20
43.25838070754701
 30
0.0
 11
-10.07171309296008
 21
43.07804499156934
 31
0.0
  0
LINE
  5
153
330
17
100
AcDbEntity
  8
0
 62
8
100
AcDbLine
 10
-10.03815728790236
 20
43.25834791391932
 30
0.0
 11
-10.0383344630092
 21
43.07801219794164
 31
0.0
  0
LINE
  5
154
330
17
100
AcDbEntity
  8
0
 62
8
100
AcDbLine
 10
-10.18726069781529
 20
43.0781585140578
 30
0.0
 11
-10.06043005533276
 21
43.0781585140578
 31
0.0
  0
LINE
  5
155
330
17
100
AcDbEntity
  8
0
 62
8
100
AcDbLine
 10
-9.962160864708594
 20
43.25838070754701
 30
0.0
 11
-9.96233814539012
 21
43.07793753355461
 31
0.0
  0
LINE
  5
156
330
17
100
AcDbEntity
  8
0
 62
8
100
AcDbLine
 10
-9.928782234757719
 20
43.25834791391932
 30
0.0
 11
-9.928959515439246
 21
43.07790473992691
 31
0.0
  0
LINE
  5
157
330
17
100
AcDbEntity
  8
0
 62
8
100
AcDbLine
 10
-9.848613123739156
 20
43.25838070754701
 30
0.0
 11
-9.848790514023065
 21
43.07782597598759
 31
0.0
  0
LINE
  5
158
330
17
100
AcDbEntity
  8
0
 62
8
100
AcDbLine
 10
-9.815234493788253
 20
43.25834791391932
 30
0.0
 11
-9.81541188407219
 21
43.07779318235991
 31
0.0
  0
LINE
  5
159
330
17
100
AcDbEntity
  8
0
 62
8
100
AcDbLine
 10
-9.718840588115839
 20
43.25834791391932
 30
0.0
 11
-9.718663197831901
 21
43.07779318235991
 31
0.0
  0
LINE
  5
15A
330
17
100
AcDbEntity
  8
0
 62
8
100
AcDbLine
 10
-9.685461958164964
 20
43.25838070754701
 30
0.0
 11
-9.685284567881055
 21
43.07782597598759
 31
0.0
  0
LINE
  5
15B
330
17
100
AcDbEntity
  8
0
 62
8
100
AcDbLine
 10
-9.605292847146371
 20
43.25834791391932
 30
0.0
 11
-9.605115566464846
 21
43.07790473992691
 31
0.0
  0
LINE
  5
15C
330
17
100
AcDbEntity
  8
0
 62
8
100
AcDbLine
 10
-9.571914217195525
 20
43.25838070754701
 30
0.0
 11
-9.571736936513972
 21
43.07793753355461
 31
0.0
  0
LINE
  5
15D
330
17
100
AcDbEntity
  8
0
 62
8
100
AcDbLine
 10
-9.780448053771224
 20
43.90510994480308
 30
0.0
 11
-10.43626846367623
 21
43.90510994480308
 31
0.0
  0
LINE
  5
15E
330
17
100
AcDbEntity
  8
0
 62
8
100
AcDbLine
 10
-10.25140225359887
 20
43.87685592784267
 30
0.0
 11
-9.780448053771224
 21
43.87685592784267
 31
0.0
  0
LINE
  5
15F
330
17
100
AcDbEntity
  8
0
 62
8
100
AcDbLine
 10
-10.2643862898279
 20
43.91718096008673
 30
0.0
 11
-9.780448053771224
 21
43.91718096008673
 31
0.0
  0
LINE
  5
160
330
17
100
AcDbEntity
  8
0
 62
8
100
AcDbLine
 10
-10.02784245151973
 20
44.01526590401249
 30
0.0
 11
-9.780448053771224
 21
44.01526590401249
 31
0.0
  0
LINE
  5
161
330
17
100
AcDbEntity
  8
0
 62
8
100
AcDbLine
 10
-9.933791250160551
 20
44.08656606176329
 30
0.0
 11
-10.0419222810237
 21
44.18828130836873
 31
0.0
  0
LINE
  5
162
330
17
100
AcDbEntity
  8
0
 62
8
100
AcDbLine
 10
-10.04101797856439
 20
44.16176335235339
 30
0.0
 11
-9.942716519083817
 21
44.07230633310151
 31
0.0
  0
LINE
  5
163
330
17
100
AcDbEntity
  8
0
 62
8
100
AcDbLine
 10
-10.25796193595631
 20
43.96579530842288
 30
0.0
 11
-10.04729476089152
 21
43.96579530842288
 31
0.0
  0
LINE
  5
164
330
17
100
AcDbEntity
  8
0
 62
8
100
AcDbLine
 10
-10.04729476089152
 20
43.96579530842288
 30
0.0
 11
-10.23752193248505
 21
44.06626786008817
 31
0.0
  0
LINE
  5
165
330
17
100
AcDbEntity
  8
0
 62
8
100
AcDbLine
 10
-10.23752193248505
 20
44.06626786008817
 30
0.0
 11
-10.02784245151973
 21
44.01526590401249
 31
0.0
  0
LINE
  5
166
330
17
100
AcDbEntity
  8
0
 62
8
100
AcDbLine
 10
-10.0419222810237
 20
44.18828130836873
 30
0.0
 11
-10.42190431644546
 21
44.18828130836873
 31
0.0
  0
LINE
  5
167
330
17
100
AcDbEntity
  8
0
 62
8
100
AcDbLine
 10
-10.42190431644546
 20
44.16176335235339
 30
0.0
 11
-10.04101797856439
 21
44.16176335235339
 31
0.0
  0
LINE
  5
168
330
17
100
AcDbEntity
  8
0
 62
8
100
AcDbLine
 10
-10.42190431644546
 20
44.18828130836873
 30
0.0
 11
-10.42190431644546
 21
44.16176335235339
 31
0.0
  0
ARC
  5
169
330
17
100
AcDbEntity
  8
0
 62
8
100
AcDbCircle
 10
-9.93874840743568
 20
44.0797457228942
 30
0.0
 40
0.0084315141309025
100
AcDbArc
 50
241.9248922736943
 51
53.98960382862275
  0
LINE
  5
16A
330
17
100
AcDbEntity
  8
0
 62
8
100
AcDbLine
 10
-9.533053656022773
 20
44.01526590401249
 30
0.0
 11
-9.780448053771224
 21
44.01526590401249
 31
0.0
  0
LINE
  5
16B
330
17
100
AcDbEntity
  8
0
 62
8
100
AcDbLine
 10
-9.794797706344937
 20
44.18828130836873
 30
0.0
 11
-9.794797706344937
 21
44.16176335235339
 31
0.0
  0
LINE
  5
16C
330
17
100
AcDbEntity
  8
0
 62
8
100
AcDbLine
 10
-9.490547875813988
 20
43.26506179276775
 30
0.0
 11
-9.490547875813988
 21
43.39984432279588
 31
0.0
  0
LINE
  5
16D
330
17
100
AcDbEntity
  8
0
 62
8
100
AcDbLine
 10
-9.495917794001725
 20
43.25834791391932
 30
0.0
 11
-9.495740618894885
 21
43.07801219794164
 31
0.0
  0
LINE
  5
16E
330
17
100
AcDbEntity
  8
0
 62
8
100
AcDbLine
 10
-9.46253916405088
 20
43.25838070754701
 30
0.0
 11
-9.46236198894401
 21
43.07804499156934
 31
0.0
  0
ARC
  5
16F
330
17
100
AcDbEntity
  8
0
 62
8
100
AcDbCircle
 10
-10.4690764648323
 20
44.59825141428569
 30
0.0
 40
0.029392704404644
100
AcDbArc
 50
97.33109481860431
 51
172.348237038355
  0
LINE
  5
170
330
17
100
AcDbEntity
  8
0
 62
8
100
AcDbLine
 10
-9.707033196768194
 20
44.5289598809343
 30
0.0
 11
-9.775977882831526
 21
44.5289598809343
 31
0.0
  0
LWPOLYLINE
  5
171
330
17
100
AcDbEntity
  8
0
 62
8
100
AcDbPolyline
 90
2
 70
0
 10
-9.768363371984618
 20
44.62374587853624
 42
-0.2162144732051016
 10
-9.655737630489526
 20
44.56574637678065
 42
-1.192684128186331
  0
LWPOLYLINE
  5
172
330
17
100
AcDbEntity
  8
0
 62
8
100
AcDbPolyline
 90
2
 70
0
 10
-9.896218135173527
 20
44.56574637678065
 42
-0.2162144732051016
 10
-9.783592393678433
 20
44.62374587853624
 42
-1.192684128186331
  0
ARC
  5
173
330
17
100
AcDbEntity
  8
0
 62
8
100
AcDbCircle
 10
-9.855014360439569
 20
44.56904460502319
 30
0.0
 40
0.0413355701770926
100
AcDbArc
 50
184.5765827763557
 51
284.1311954105746
  0
LINE
  5
174
330
17
100
AcDbEntity
  8
0
 62
8
100
AcDbLine
 10
-9.84492256889483
 20
44.5289598809343
 30
0.0
 11
-9.775977882831526
 21
44.5289598809343
 31
0.0
  0
LINE
  5
175
330
17
100
AcDbEntity
  8
0
 62
8
100
AcDbLine
 10
-9.783592393678433
 20
44.62374587853624
 30
0.0
 11
-9.7836603334802
 21
44.67204089519326
 31
0.0
  0
LINE
  5
176
330
17
100
AcDbEntity
  8
0
 62
8
100
AcDbLine
 10
-9.768363371984591
 20
44.62374587853624
 30
0.0
 11
-9.768295432182825
 21
44.67204089519326
 31
0.0
  0
ARC
  5
177
330
17
100
AcDbEntity
  8
0
 62
8
100
AcDbCircle
 10
-9.696941405223455
 20
44.56904460502319
 30
0.0
 40
0.0413355701770926
100
AcDbArc
 50
255.8688045894255
 51
355.4234172236443
  0
LINE
  5
178
330
17
100
AcDbEntity
  8
0
 62
8
100
AcDbLine
 10
-10.83030562610544
 20
44.29116871582353
 30
0.0
 11
-10.82535004530108
 21
44.13244564179154
 31
0.0
  0
ARC
  5
179
330
17
100
AcDbEntity
  8
0
 62
8
100
AcDbCircle
 10
-10.80576445258053
 20
44.13305713440485
 30
0.0
 40
0.0195951362697627
100
AcDbArc
 50
181.788282280888
 51
272.2482928475983
  0
LINE
  5
17A
330
17
100
AcDbEntity
  8
0
 62
8
100
AcDbLine
 10
-10.80499573453654
 20
44.11347708236202
 30
0.0
 11
-10.70855253235704
 21
44.11726346809653
 31
0.0
  0
LINE
  5
17B
330
17
100
AcDbEntity
  8
0
 62
8
100
AcDbLine
 10
-10.71796247606731
 20
44.30368515740575
 30
0.0
 11
-10.80908672109102
 21
44.31130715536617
 31
0.0
  0
ARC
  5
17C
330
17
100
AcDbEntity
  8
0
 62
8
100
AcDbCircle
 10
-10.81072003338495
 20
44.29178020843681
 30
0.0
 40
0.0195951362697627
100
AcDbArc
 50
85.21868062826937
 51
181.788282280888
  0
ARC
  5
17D
330
17
100
AcDbEntity
  8
0
 62
8
100
AcDbCircle
 10
-10.71959578836119
 20
44.28415821047642
 30
0.0
 40
0.0195951362697627
100
AcDbArc
 50
3.989662484413874
 51
85.21868062826937
  0
ARC
  5
17E
330
17
100
AcDbEntity
  8
0
 62
8
100
AcDbCircle
 10
-10.70932125040106
 20
44.13684352013935
 30
0.0
 40
0.0195951362697627
100
AcDbArc
 50
272.2482928475983
 51
3.989662484413874
  0
LINE
  5
17F
330
17
100
AcDbEntity
  8
0
 62
8
100
AcDbLine
 10
-10.68977360059763
 20
44.13820688091128
 30
0.0
 11
-10.70004813855779
 21
44.28552157124833
 31
0.0
  0
LINE
  5
180
330
17
100
AcDbEntity
  8
0
 62
8
100
AcDbLine
 10
-10.62889655542498
 20
44.10535851086634
 30
0.0
 11
-10.69168501189669
 21
44.16561239196366
 31
0.0
  0
CIRCLE
  5
181
330
17
100
AcDbEntity
  8
0
 62
8
100
AcDbCircle
 10
-9.14897663513598
 20
43.69384206615682
 30
0.0
 40
0.0789279291655981
  0
LWPOLYLINE
  5
182
330
17
100
AcDbEntity
  8
0
 62
8
100
AcDbPolyline
 90
2
 70
0
 10
-9.136849560294891
 20
43.25838070754701
 10
-9.136849560294891
 20
43.04934211618655
 42
0.4142135623730951
  0
LINE
  5
183
330
17
100
AcDbEntity
  8
0
 62
8
100
AcDbLine
 10
-9.124627643866276
 20
43.90510994480308
 30
0.0
 11
-9.095089256025673
 21
43.96954879930207
 31
0.0
  0
LWPOLYLINE
  5
184
330
17
100
AcDbEntity
  8
0
 62
8
100
AcDbPolyline
 90
35
 70
0
 10
-9.847603694637613
 20
43.07154812815157
 10
-9.320115394980277
 20
43.07154812815157
 10
-9.305205285563417
 20
43.11022636626181
 10
-9.155470974187622
 20
43.11022636626181
 10
-9.136849560294891
 20
43.04934211618655
 10
-9.136849560294891
 20
42.79023519866837
 42
0.4142135623730951
 10
-9.117254424025148
 20
42.77064006239861
 10
-8.93198080022124
 20
42.77064006239861
 42
0.4142135623730951
 10
-8.912385663951495
 20
42.79023519866837
 10
-8.912385663951495
 20
43.25838070754701
 10
-8.869664710493664
 20
43.52630647188158
 10
-8.90164521952228
 20
43.99168803969227
 10
-8.934768919569692
 20
44.00237934714134
 10
-8.898625455731619
 20
44.051374228233
 10
-8.923059210238065
 20
44.10535851086634
 10
-8.969611852301725
 20
44.65346744392101
 42
0.2482733428913499
 10
-9.177899531246013
 20
44.79596512591133
 42
0.0173167026927587
 10
-9.775977882831526
 20
44.82037888465202
 42
0.0188587118480701
 10
-10.3713900132988
 20
44.79596512591133
 42
0.2482733428913499
 10
-10.57967769224307
 20
44.65346744392101
 10
-10.62623033430675
 20
44.10535851086634
 10
-10.65066408881317
 20
44.051374228233
 10
-10.62346096685461
 20
44.00237934714134
 10
-10.65658466690199
 20
43.99168803969227
 10
-10.66174415029225
 20
43.52630647188158
 10
-10.61902319683442
 20
43.25838070754701
 10
-10.61902319683442
 20
42.79023519866837
 42
0.4142135623730951
 10
-10.59942806056465
 20
42.77064006239861
 10
-10.41415443676076
 20
42.77064006239861
 42
0.4142135623730951
 10
-10.39455930049099
 20
42.79023519866837
 10
-10.39455930049099
 20
43.04934211618655
 10
-10.33998192916373
 20
43.11903557226258
 10
-10.20301843240331
 20
43.11903557226258
 10
-10.18726069781532
 20
43.0781585140578
 10
-9.31789640969275
 20
43.07730438646688
  0
LINE
  5
185
330
17
100
AcDbEntity
  8
0
 62
8
100
AcDbLine
 10
-10.61902319683439
 20
43.25838070754701
 30
0.0
 11
-8.912385663951495
 21
43.25838070754701
 31
0.0
  0
LINE
  5
186
330
17
100
AcDbEntity
  8
0
 62
8
100
AcDbLine
 10
-9.490547875813988
 20
43.39984432279588
 30
0.0
 11
-8.9502333636499
 21
43.39984432279588
 31
0.0
  0
LINE
  5
187
330
17
100
AcDbEntity
  8
0
 62
8
100
AcDbLine
 10
-9.008477101448548
 20
43.26506179276775
 30
0.0
 11
-9.490547875813988
 21
43.26506179276775
 31
0.0
  0
LINE
  5
188
330
17
100
AcDbEntity
  8
0
 62
8
100
AcDbLine
 10
-8.9502333636499
 20
43.32778279675115
 30
0.0
 11
-9.490547875813988
 21
43.32778279675115
 31
0.0
  0
LINE
  5
189
330
17
100
AcDbEntity
  8
0
 62
8
100
AcDbLine
 10
-9.377877048233145
 20
44.15353438062568
 30
0.0
 11
-9.027081259402747
 21
44.15353438062568
 31
0.0
  0
LWPOLYLINE
  5
18A
330
17
100
AcDbEntity
  8
0
 62
8
100
AcDbPolyline
 90
2
 70
0
 10
-9.332546113646615
 20
44.11089308558281
 10
-8.923529279343327
 20
44.11089308558281
  0
LINE
  5
18B
330
17
100
AcDbEntity
  8
0
 62
8
100
AcDbLine
 10
-8.963821914724676
 20
43.63700481623611
 30
0.0
 11
-9.089157159585241
 21
43.46188939848454
 31
0.0
  0
LINE
  5
18C
330
17
100
AcDbEntity
  8
0
 62
8
100
AcDbLine
 10
-9.095089256025673
 20
43.96954879930207
 30
0.0
 11
-9.037393616448057
 21
43.95627339620112
 31
0.0
  0
LINE
  5
18D
330
17
100
AcDbEntity
  8
0
 62
8
100
AcDbLine
 10
-9.03812163046068
 20
44.05149741643251
 30
0.0
 11
-9.302934171586188
 21
43.96579530842288
 31
0.0
  0
LINE
  5
18E
330
17
100
AcDbEntity
  8
0
 62
8
100
AcDbLine
 10
-8.937435140687867
 20
44.00237934714134
 30
0.0
 11
-9.296509817714579
 21
43.91718096008673
 31
0.0
  0
ARC
  5
18F
330
17
100
AcDbEntity
  8
0
 62
8
100
AcDbCircle
 10
-9.082879300830726
 20
44.59825141428569
 30
0.0
 40
0.029392704404644
100
AcDbArc
 50
7.651762961645039
 51
82.6689051813957
  0
LINE
  5
190
330
17
100
AcDbEntity
  8
0
 62
4
100
AcDbLine
 10
-10.6846860643049
 20
42.76442783854779
 30
0.0
 11
-8.013758637827564
 21
42.81104905019551
 31
0.0
  0
LINE
  5
192
330
17
100
AcDbEntity
  8
A-FLOR
100
AcDbLine
 10
-3.570399849998877
 20
42.91442783854779
 30
0.0
 11
-3.570399849998877
 21
42.91329896184783
 31
0.0
  0
LINE
  5
193
330
17
100
AcDbEntity
  8
0
 62
8
100
AcDbLine
 10
-17.96861018160366
 20
48.45257374005885
 30
0.0
 11
-19.06133809341759
 21
48.45257374005885
 31
0.0
  0
LWPOLYLINE
  5
194
330
17
100
AcDbEntity
  8
0
 62
8
100
AcDbPolyline
 90
6
 70
0
 10
-17.86911360667452
 20
48.21117051486615
 10
-18.33933118483091
 20
48.21117051486615
 10
-18.33933118483091
 20
48.45257374005885
 10
-18.44539720200888
 20
48.34650772288089
 10
-18.33933118483091
 20
48.45257374005885
 10
-18.22972963374698
 20
48.34297218897493
  0
LINE
  5
195
330
17
100
AcDbEntity
  8
0
 62
8
100
AcDbLine
 10
-19.06133809341759
 20
52.78592560262501
 30
0.0
 11
-17.78392715873778
 21
52.78592560262501
 31
0.0
  0
LWPOLYLINE
  5
196
330
17
100
AcDbEntity
  8
0
 62
8
100
AcDbPolyline
 90
6
 70
0
 10
-17.78730416130051
 20
53.0273288278177
 10
-18.2575217394569
 20
53.0273288278177
 10
-18.2575217394569
 20
52.785925602625
 10
-18.36358775663487
 20
52.89199161980296
 10
-18.2575217394569
 20
52.785925602625
 10
-18.14792018837298
 20
52.89552715370892
  0
LINE
  5
197
330
17
100
AcDbEntity
  8
0
 62
3
100
AcDbLine
 10
-19.30173621566696
 20
48.65257374005885
 30
0.0
 11
-19.30173621566696
 21
52.78592560262501
 31
0.0
  0
ENDSEC
  0
SECTION
  2
OBJECTS
  0
DICTIONARY
  5
A
330
0
100
AcDbDictionary
281
1
  3
ACAD_COLOR
350
B
  3
ACAD_GROUP
350
C
  3
ACAD_LAYOUT
350
D
  3
ACAD_MATERIAL
350
E
  3
ACAD_MLEADERSTYLE
350
F
  3
ACAD_MLINESTYLE
350
10
  3
ACAD_PLOTSETTINGS
350
11
  3
ACAD_PLOTSTYLENAME
350
12
  3
ACAD_SCALELIST
350
14
  3
ACAD_TABLESTYLE
350
15
  3
ACAD_VISUALSTYLE
350
16
  3
EZDXF_META
350
2D
  0
DICTIONARY
  5
B
330
A
100
AcDbDictionary
281
1
  0
DICTIONARY
  5
C
330
A
100
AcDbDictionary
281
1
  0
DICTIONARY
  5
D
330
A
100
AcDbDictionary
281
1
  3
Model
350
1A
  3
Layout1
350
1E
  0
DICTIONARY
  5
E
330
A
100
AcDbDictionary
281
1
  3
ByBlock
350
1F
  3
ByLayer
350
20
  3
Global
350
21
  0
DICTIONARY
  5
F
330
A
100
AcDbDictionary
281
1
  3
Standard
350
2C
  0
DICTIONARY
  5
10
330
A
100
AcDbDictionary
281
1
  3
Standard
350
22
  0
DICTIONARY
  5
11
330
A
100
AcDbDictionary
281
1
  0
ACDBDICTIONARYWDFLT
  5
12
330
A
100
AcDbDictionary
281
1
  3
Normal
350
13
100
AcDbDictionaryWithDefault
340
13
  0
ACDBPLACEHOLDER
  5
13
330
12
  0
DICTIONARY
  5
14
330
A
100
AcDbDictionary
281
1
  0
DICTIONARY
  5
15
330
A
100
AcDbDictionary
281
1
  0
DICTIONARY
  5
16
330
A
100
AcDbDictionary
281
1
  0
LAYOUT
  5
1A
330
D
100
AcDbPlotSettings
  1

  4
A3
  6

 40
7.5
 41
20.0
 42
7.5
 43
20.0
 44
420.0
 45
297.0
 46
0.0
 47
0.0
 48
0.0
 49
0.0
140
0.0
141
0.0
142
1.0
143
1.0
 70
1024
 72
1
 73
0
 74
5
  7

 75
16
 76
0
 77
2
 78
300
147
1.0
148
0.0
149
0.0
100
AcDbLayout
  1
Model
 70
1
 71
0
 10
0.0
 20
0.0
 11
420.0
 21
297.0
 12
0.0
 22
0.0
 32
0.0
 14
1e+20
 24
1e+20
 34
1e+20
 15
-1e+20
 25
-1e+20
 35
-1e+20
146
0.0
 13
0.0
 23
0.0
 33
0.0
 16
1.0
 26
0.0
 36
0.0
 17
0.0
 27
1.0
 37
0.0
 76
1
330
17
  0
LAYOUT
  5
1E
330
D
100
AcDbPlotSettings
  1

  4
A3
  6

 40
7.5
 41
20.0
 42
7.5
 43
20.0
 44
420.0
 45
297.0
 46
0.0
 47
0.0
 48
0.0
 49
0.0
140
0.0
141
0.0
142
1.0
143
1.0
 70
0
 72
1
 73
0
 74
5
  7

 75
16
 76
0
 77
2
 78
300
147
1.0
148
0.0
149
0.0
100
AcDbLayout
  1
Layout1
 70
1
 71
1
 10
0.0
 20
0.0
 11
420.0
 21
297.0
 12
0.0
 22
0.0
 32
0.0
 14
1e+20
 24
1e+20
 34
1e+20
 15
-1e+20
 25
-1e+20
 35
-1e+20
146
0.0
 13
0.0
 23
0.0
 33
0.0
 16
1.0
 26
0.0
 36
0.0
 17
0.0
 27
1.0
 37
0.0
 76
1
330
1B
  0
MATERIAL
  5
1F
102
{ACAD_REACTORS
330
E
102
}
330
E
100
AcDbMaterial
  1
ByBlock
  2

 70
0
 40
1.0
 71
1
 41
1.0
 91
-1023410177
 42
1.0
 72
1
  3

 73
1
 74
1
 75
1
 44
0.5
 73
0
 45
1.0
 46
1.0
 77
1
  4

 78
1
 79
1
170
1
 48
1.0
171
1
  6

172
1
173
1
174
1
140
1.0
141
1.0
175
1
  7

176
1
177
1
178
1
143
1.0
179
1
  8

270
1
271
1
272
1
145
1.0
146
1.0
273
1
  9

274
1
275
1
276
1
 42
1.0
 72
1
  3

 73
1
 74
1
 75
1
 94
63
  0
MATERIAL
  5
20
102
{ACAD_REACTORS
330
E
102
}
330
E
100
AcDbMaterial
  1
ByLayer
  2

 70
0
 40
1.0
 71
1
 41
1.0
 91
-1023410177
 42
1.0
 72
1
  3

 73
1
 74
1
 75
1
 44
0.5
 73
0
 45
1.0
 46
1.0
 77
1
  4

 78
1
 79
1
170
1
 48
1.0
171
1
  6

172
1
173
1
174
1
140
1.0
141
1.0
175
1
  7

176
1
177
1
178
1
143
1.0
179
1
  8

270
1
271
1
272
1
145
1.0
146
1.0
273
1
  9

274
1
275
1
276
1
 42
1.0
 72
1
  3

 73
1
 74
1
 75
1
 94
63
  0
MATERIAL
  5
21
102
{ACAD_REACTORS
330
E
102
}
330
E
100
AcDbMaterial
  1
Global
  2

 70
0
 40
1.0
 71
1
 41
1.0
 91
-1023410177
 42
1.0
 72
1
  3

 73
1
 74
1
 75
1
 44
0.5
 73
0
 45
1.0
 46
1.0
 77
1
  4

 78
1
 79
1
170
1
 48
1.0
171
1
  6

172
1
173
1
174
1
140
1.0
141
1.0
175
1
  7

176
1
177
1
178
1
143
1.0
179
1
  8

270
1
271
1
272
1
145
1.0
146
1.0
273
1
  9

274
1
275
1
276
1
 42
1.0
 72
1
  3

 73
1
 74
1
 75
1
 94
63
  0
MLINESTYLE
  5
22
102
{ACAD_REACTORS
330
10
102
}
330
10
100
AcDbMlineStyle
  2
Standard
 70
0
  3

 62
256
 51
90.0
 52
90.0
 71
2
 49
0.5
 62
256
  6
BYLAYER
 49
-0.5
 62
256
  6
BYLAYER
  0
MLEADERSTYLE
  5
2C
102
{ACAD_REACTORS
330
F
102
}
330
F
100
AcDbMLeaderStyle
179
2
170
2
171
1
172
0
 90
2
 40
0.0
 41
0.0
173
1
 91
-1056964608
 92
-2
290
1
 42
2.0
291
1
 43
8.0
  3
Standard
 44
4.0
300

342
29
174
1
175
1
176
0
178
1
 93
-1056964608
 45
4.0
292
0
297
0
 46
4.0
 94
-1056964608
 47
1.0
 49
1.0
140
1.0
294
1
141
0.0
177
0
142
1.0
295
0
296
0
143
3.75
271
0
272
9
273
9
  0
DICTIONARY
  5
2D
330
A
100
AcDbDictionary
280
1
281
1
  3
CREATED_BY_EZDXF
350
2E
  3
WRITTEN_BY_EZDXF
350
19A
  0
DICTIONARYVAR
  5
2E
330
2D
100
DictionaryVariables
280
0
  1
1.4.4 @ 2026-10-03T07:35:15.968504+00:00
  0
DICTIONARYVAR
  5
19A
330
2D
100
DictionaryVariables
280
0
  1
1.4.4 @ 2026-10-03T07:35:15.976471+00:00
  0
ENDSEC
  0
EOF
