  0
SECTION
  2
HEADER
  9
$ACADVER
  1
AC1032
  9
$ACADMAINTVER
 90
4
  9
$DWGCODEPAGE
  3
ANSI_1252
  9
$LASTSAVEDBY
  1
ezdxf
  9
$REQUIREDVERSIONS
160
0
  9
$INSBASE
 10
0.0
 20
0.0
 30
0.0
  9
$EXTMIN
 10
1e+20
 20
1e+20
 30
1e+20
  9
$EXTMAX
 10
-1e+20
 20
-1e+20
 30
-1e+20
  9
$LIMMIN
 10
0.0
 20
0.0
  9
$LIMMAX
 10
420.0
 20
297.0
  9
$ORTHOMODE
 70
0
  9
$REGENMODE
 70
1
  9
$FILLMODE
 70
1
  9
$QTEXTMODE
 70
0
  9
$MIRRTEXT
 70
1
  9
$LTSCALE
 40
1.0
  9
$ATTMODE
 70
1
  9
$TEXTSIZE
 40
2.5
  9
$TRACEWID
 40
1.0
  9
$TEXTSTYLE
  7
Standard
  9
$CLAYER
  8
0
  9
$CELTYPE
  6
ByLayer
  9
$CECOLOR
 62
256
  9
$CELTSCALE
 40
1.0
  9
$DISPSILH
 70
0
  9
$DIMSCALE
 40
1.0
  9
$DIMASZ
 40
2.5
  9
$DIMEXO
 40
0.625
  9
$DIMDLI
 40
3.75
  9
$DIMRND
 40
0.0
  9
$DIMDLE
 40
0.0
  9
$DIMEXE
 40
1.25
  9
$DIMTP
 40
0.0
  9
$DIMTM
 40
0.0
  9
$DIMTXT
 40
2.5
  9
$DIMCEN
 40
2.5
  9
$DIMTSZ
 40
0.0
  9
$DIMTOL
 70
0
  9
$DIMLIM
 70
0
  9
$DIMTIH
 70
0
  9
$DIMTOH
 70
0
  9
$DIMSE1
 70
0
  9
$DIMSE2
 70
0
  9
$DIMTAD
 70
1
  9
$DIMZIN
 70
8
  9
$DIMBLK
  1

  9
$DIMASO
 70
1
  9
$DIMSHO
 70
1
  9
$DIMPOST
  1

  9
$DIMAPOST
  1

  9
$DIMALT
 70
0
  9
$DIMALTD
 70
3
  9
$DIMALTF
 40
0.03937007874
  9
$DIMLFAC
 40
1.0
  9
$DIMTOFL
 70
1
  9
$DIMTVP
 40
0.0
  9
$DIMTIX
 70
0
  9
$DIMSOXD
 70
0
  9
$DIMSAH
 70
0
  9
$DIMBLK1
  1

  9
$DIMBLK2
  1

  9
$DIMSTYLE
  2
ISO-25
  9
$DIMCLRD
 70
0
  9
$DIMCLRE
 70
0
  9
$DIMCLRT
 70
0
  9
$DIMTFAC
 40
1.0
  9
$DIMGAP
 40
0.625
  9
$DIMJUST
 70
0
  9
$DIMSD1
 70
0
  9
$DIMSD2
 70
0
  9
$DIMTOLJ
 70
0
  9
$DIMTZIN
 70
8
  9
$DIMALTZ
 70
0
  9
$DIMALTTZ
 70
0
  9
$DIMUPT
 70
0
  9
$DIMDEC
 70
2
  9
$DIMTDEC
 70
2
  9
$DIMALTU
 70
2
  9
$DIMALTTD
 70
3
  9
$DIMTXSTY
  7
Standard
  9
$DIMAUNIT
 70
0
  9
$DIMADEC
 70
0
  9
$DIMALTRND
 40
0.0
  9
$DIMAZIN
 70
0
  9
$DIMDSEP
 70
44
  9
$DIMATFIT
 70
3
  9
$DIMFRAC
 70
0
  9
$DIMLDRBLK
  1

  9
$DIMLUNIT
 70
2
  9
$DIMLWD
 70
-2
  9
$DIMLWE
 70
-2
  9
$DIMTMOVE
 70
0
  9
$DIMFXL
 40
1.0
  9
$DIMFXLON
 70
0
  9
$DIMJOGANG
 40
0.785398163397
  9
$DIMTFILL
 70
0
  9
$DIMTFILLCLR
 70
0
  9
$DIMARCSYM
 70
0
  9
$DIMLTYPE
  6

  9
$DIMLTEX1
  6

  9
$DIMLTEX2
  6

  9
$DIMTXTDIRECTION
 70
0
  9
$LUNITS
 70
2
  9
$LUPREC
 70
4
  9
$SKETCHINC
 40
1.0
  9
$FILLETRAD
 40
10.0
  9
$AUNITS
 70
0
  9
$AUPREC
 70
2
  9
$MENU
  1
.
  9
$ELEVATION
 40
0.0
  9
$PELEVATION
 40
0.0
  9
$THICKNESS
 40
0.0
  9
$LIMCHECK
 70
0
  9
$CHAMFERA
 40
0.0
  9
$CHAMFERB
 40
0.0
  9
$CHAMFERC
 40
0.0
  9
$CHAMFERD
 40
0.0
  9
$SKPOLY
 70
0
  9
$TDCREATE
 40
2461317.316111111
  9
$TDUCREATE
 40
2458532.153996898
  9
$TDUPDATE
 40
2461317.316111111
  9
$TDUUPDATE
 40
2458532.1544311
  9
$TDINDWG
 40
0.0
  9
$TDUSRTIMER
 40
0.0
  9
$USRTIMER
 70
1
  9
$ANGBASE
 50
0.0
  9
$ANGDIR
 70
0
  9
$PDMODE
 70
0
  9
$PDSIZE
 40
0.0
  9
$PLINEWID
 40
0.0
  9
$SPLFRAME
 70
0
  9
$SPLINETYPE
 70
6
  9
$SPLINESEGS
 70
8
  9
$HANDSEED
  5
1D2
  9
$SURFTAB1
 70
6
  9
$SURFTAB2
 70
6
  9
$SURFTYPE
 70
6
  9
$SURFU
 70
6
  9
$SURFV
 70
6
  9
$UCSBASE
  2

  9
$UCSNAME
  2

  9
$UCSORG
 10
0.0
 20
0.0
 30
0.0
  9
$UCSXDIR
 10
1.0
 20
0.0
 30
0.0
  9
$UCSYDIR
 10
0.0
 20
1.0
 30
0.0
  9
$UCSORTHOREF
  2

  9
$UCSORTHOVIEW
 70
0
  9
$UCSORGTOP
 10
0.0
 20
0.0
 30
0.0
  9
$UCSORGBOTTOM
 10
0.0
 20
0.0
 30
0.0
  9
$UCSORGLEFT
 10
0.0
 20
0.0
 30
0.0
  9
$UCSORGRIGHT
 10
0.0
 20
0.0
 30
0.0
  9
$UCSORGFRONT
 10
0.0
 20
0.0
 30
0.0
  9
$UCSORGBACK
 10
0.0
 20
0.0
 30
0.0
  9
$PUCSBASE
  2

  9
$PUCSNAME
  2

  9
$PUCSORG
 10
0.0
 20
0.0
 30
0.0
  9
$PUCSXDIR
 10
1.0
 20
0.0
 30
0.0
  9
$PUCSYDIR
 10
0.0
 20
1.0
 30
0.0
  9
$PUCSORTHOREF
  2

  9
$PUCSORTHOVIEW
 70
0
  9
$PUCSORGTOP
 10
0.0
 20
0.0
 30
0.0
  9
$PUCSORGBOTTOM
 10
0.0
 20
0.0
 30
0.0
  9
$PUCSORGLEFT
 10
0.0
 20
0.0
 30
0.0
  9
$PUCSORGRIGHT
 10
0.0
 20
0.0
 30
0.0
  9
$PUCSORGFRONT
 10
0.0
 20
0.0
 30
0.0
  9
$PUCSORGBACK
 10
0.0
 20
0.0
 30
0.0
  9
$USERI1
 70
0
  9
$USERI2
 70
0
  9
$USERI3
 70
0
  9
$USERI4
 70
0
  9
$USERI5
 70
0
  9
$USERR1
 40
0.0
  9
$USERR2
 40
0.0
  9
$USERR3
 40
0.0
  9
$USERR4
 40
0.0
  9
$USERR5
 40
0.0
  9
$WORLDVIEW
 70
1
  9
$SHADEDGE
 70
3
  9
$SHADEDIF
 70
70
  9
$TILEMODE
 70
1
  9
$MAXACTVP
 70
64
  9
$PINSBASE
 10
0.0
 20
0.0
 30
0.0
  9
$PLIMCHECK
 70
0
  9
$PEXTMIN
 10
1e+20
 20
1e+20
 30
1e+20
  9
$PEXTMAX
 10
-1e+20
 20
-1e+20
 30
-1e+20
  9
$PLIMMIN
 10
0.0
 20
0.0
  9
$PLIMMAX
 10
420.0
 20
297.0
  9
$UNITMODE
 70
0
  9
$VISRETAIN
 70
1
  9
$PLINEGEN
 70
0
  9
$PSLTSCALE
 70
1
  9
$TREEDEPTH
 70
3020
  9
$CMLSTYLE
  2
Standard
  9
$CMLJUST
 70
0
  9
$CMLSCALE
 40
20.0
  9
$PROXYGRAPHICS
 70
1
  9
$MEASUREMENT
 70
1
  9
$CELWEIGHT
370
-1
  9
$ENDCAPS
280
0
  9
$JOINSTYLE
280
0
  9
$LWDISPLAY
290
0
  9
$INSUNITS
 70
6
  9
$HYPERLINKBASE
  1

  9
$STYLESHEET
  1

  9
$XEDIT
290
1
  9
$CEPSNTYPE
380
0
  9
$PSTYLEMODE
290
1
  9
$FINGERPRINTGUID
  2
{21FFF8A2-FC2B-4E7C-A87B-B57B0D17CF5E}
  9
$VERSIONGUID
  2
{90CDB98A-D92C-4ECF-B31C-45101FDDAA56}
  9
$EXTNAMES
290
1
  9
$PSVPSCALE
 40
0.0
  9
$OLESTARTUP
290
0
  9
$SORTENTS
280
127
  9
$INDEXCTL
280
0
  9
$HIDETEXT
280
1
  9
$XCLIPFRAME
280
1
  9
$HALOGAP
280
0
  9
$OBSCOLOR
 70
257
  9
$OBSLTYPE
280
0
  9
$INTERSECTIONDISPLAY
280
0
  9
$INTERSECTIONCOLOR
 70
257
  9
$DIMASSOC
280
2
  9
$PROJECTNAME
  1

  9
$CAMERADISPLAY
290
0
  9
$LENSLENGTH
 40
50.0
  9
$CAMERAHEIGHT
 40
0.0
  9
$STEPSPERSEC
 40
24.0
  9
$STEPSIZE
 40
100.0
  9
$3DDWFPREC
 40
2.0
  9
$PSOLWIDTH
 40
0.005
  9
$PSOLHEIGHT
 40
0.08
  9
$LOFTANG1
 40
1.570796326795
  9
$LOFTANG2
 40
1.570796326795
  9
$LOFTMAG1
 40
0.0
  9
$LOFTMAG2
 40
0.0
  9
$LOFTPARAM
 70
7
  9
$LOFTNORMALS
280
1
  9
$LATITUDE
 40
37.795
  9
$LONGITUDE
 40
-122.394
  9
$NORTHDIRECTION
 40
0.0
  9
$TIMEZONE
 70
-8000
  9
$LIGHTGLYPHDISPLAY
280
1
  9
$TILEMODELIGHTSYNCH
280
1
  9
$CMATERIAL
347
20
  9
$SOLIDHIST
280
0
  9
$SHOWHIST
280
1
  9
$DWFFRAME
280
2
  9
$DGNFRAME
280
2
  9
$REALWORLDSCALE
290
1
  9
$INTERFERECOLOR
 62
256
  9
$CSHADOW
280
0
  9
$SHADOWPLANELOCATION
 40
0.0
  0
ENDSEC
  0
SECTION
  2
CLASSES
  0
CLASS
  1
ACDBDICTIONARYWDFLT
  2
AcDbDictionaryWithDefault
  3
ObjectDBX Classes
 90
0
 91
0
280
0
281
0
  0
CLASS
  1
SUN
  2
AcDbSun
  3
SCENEOE
 90
1153
 91
0
280
0
281
0
  0
CLASS
  1
VISUALSTYLE
  2
AcDbVisualStyle
  3
ObjectDBX Classes
 90
4095
 91
0
280
0
281
0
  0
CLASS
  1
MATERIAL
  2
AcDbMaterial
  3
ObjectDBX Classes
 90
1153
 91
0
280
0
281
0
  0
CLASS
  1
SCALE
  2
AcDbScale
  3
ObjectDBX Classes
 90
1153
 91
0
280
0
281
0
  0
CLASS
  1
TABLESTYLE
  2
AcDbTableStyle
  3
ObjectDBX Classes
 90
4095
 91
0
280
0
281
0
  0
CLASS
  1
MLEADERSTYLE
  2
AcDbMLeaderStyle
  3
ACDB_MLEADERSTYLE_CLASS
 90
4095
 91
0
280
0
281
0
  0
CLASS
  1
DICTIONARYVAR
  2
AcDbDictionaryVar
  3
ObjectDBX Classes
 90
0
 91
0
280
0
281
0
  0
CLASS
  1
CELLSTYLEMAP
  2
AcDbCellStyleMap
  3
ObjectDBX Classes
 90
1152
 91
0
280
0
281
0
  0
CLASS
  1
MENTALRAYRENDERSETTINGS
  2
AcDbMentalRayRenderSettings
  3
SCENEOE
 90
1024
 91
0
280
0
281
0
  0
CLASS
  1
ACDBDETAILVIEWSTYLE
  2
AcDbDetailViewStyle
  3
ObjectDBX Classes
 90
1025
 91
0
280
0
281
0
  0
CLASS
  1
ACDBSECTIONVIEWSTYLE
  2
AcDbSectionViewStyle
  3
ObjectDBX Classes
 90
1025
 91
0
280
0
281
0
  0
CLASS
  1
RASTERVARIABLES
  2
AcDbRasterVariables
  3
ISM
 90
0
 91
0
280
0
281
0
  0
CLASS
  1
ACDBPLACEHOLDER
  2
AcDbPlaceHolder
  3
ObjectDBX Classes
 90
0
 91
0
280
0
281
0
  0
CLASS
  1
LAYOUT
  2
AcDbLayout
  3
ObjectDBX Classes
 90
0
 91
0
280
0
281
0
  0
ENDSEC
  0
SECTION
  2
TABLES
  0
TABLE
  2
VPORT
  5
8
330
0
100
AcDbSymbolTable
 70
1
  0
VPORT
  5
23
330
8
100
AcDbSymbolTableRecord
100
AcDbViewportTableRecord
  2
*Active
 70
0
 10
0.0
 20
0.0
 11
1.0
 21
1.0
 12
0.0
 22
0.0
 13
0.0
 23
0.0
 14
0.5
 24
0.5
 15
0.5
 25
0.5
 16
0.0
 26
0.0
 36
1.0
 17
0.0
 27
0.0
 37
0.0
 40
1000.0
 41
1.34
 42
50.0
 43
0.0
 44
0.0
 50
0.0
 51
0.0
 71
0
 72
1000
 73
1
 74
3
 75
0
 76
0
 77
0
 78
0
281
0
 65
0
146
0.0
  0
ENDTAB
  0
TABLE
  2
LTYPE
  5
2
330
0
100
AcDbSymbolTable
 70
3
  0
LTYPE
  5
24
330
2
100
AcDbSymbolTableRecord
100
AcDbLinetypeTableRecord
  2
ByBlock
 70
0
  3

 72
65
 73
0
 40
0.0
  0
LTYPE
  5
25
330
2
100
AcDbSymbolTableRecord
100
AcDbLinetypeTableRecord
  2
ByLayer
 70
0
  3

 72
65
 73
0
 40
0.0
  0
LTYPE
  5
26
330
2
100
AcDbSymbolTableRecord
100
AcDbLinetypeTableRecord
  2
Continuous
 70
0
  3

 72
65
 73
0
 40
0.0
  0
ENDTAB
  0
TABLE
  2
LAYER
  5
1
330
0
100
AcDbSymbolTable
 70
4
  0
LAYER
  5
27
330
1
100
AcDbSymbolTableRecord
100
AcDbLayerTableRecord
  2
0
 70
0
 62
7
  6
Continuous
370
-3
390
13
347
21
  0
LAYER
  5
28
330
1
100
AcDbSymbolTableRecord
100
AcDbLayerTableRecord
  2
Defpoints
 70
0
 62
7
  6
Continuous
290
0
370
-3
390
13
347
21
  0
LAYER
  5
36
330
1
100
AcDbSymbolTableRecord
100
AcDbLayerTableRecord
  2
0-cortes
 70
0
 62
7
  6
Continuous
370
-3
390
13
347
21
  0
LAYER
  5
1C6
330
1
100
AcDbSymbolTableRecord
100
AcDbLayerTableRecord
  2
0-TEXTO
 70
0
 62
7
  6
Continuous
370
-3
390
13
347
21
  0
ENDTAB
  0
TABLE
  2
STYLE
  5
5
330
0
100
AcDbSymbolTable
 70
1
  0
STYLE
  5
29
330
5
100
AcDbSymbolTableRecord
100
AcDbTextStyleTableRecord
  2
Standard
 70
0
 40
0.0
 41
1.0
 50
0.0
 71
0
 42
2.5
  3
txt
  4

  0
ENDTAB
  0
TABLE
  2
VIEW
  5
7
330
0
100
AcDbSymbolTable
 70
0
  0
ENDTAB
  0
TABLE
  2
UCS
  5
6
330
0
100
AcDbSymbolTable
 70
0
  0
ENDTAB
  0
TABLE
  2
APPID
  5
3
330
0
100
AcDbSymbolTable
 70
3
  0
APPID
  5
2A
330
3
100
AcDbSymbolTableRecord
100
AcDbRegAppTableRecord
  2
ACAD
 70
0
  0
APPID
  5
1CF
330
3
100
AcDbSymbolTableRecord
100
AcDbRegAppTableRecord
  2
HATCHBACKGROUNDCOLOR
 70
0
  0
APPID
  5
1D0
330
3
100
AcDbSymbolTableRecord
100
AcDbRegAppTableRecord
  2
EZDXF
 70
0
  0
ENDTAB
  0
TABLE
  2
DIMSTYLE
  5
4
330
0
100
AcDbSymbolTable
 70
1
100
AcDbDimStyleTable
  0
DIMSTYLE
105
2B
330
4
100
AcDbSymbolTableRecord
100
AcDbDimStyleTableRecord
  2
Standard
 70
0
 40
1.0
 41
2.5
 42
0.625
 43
3.75
 44
1.25
 45
0.0
 46
0.0
 47
0.0
 48
0.0
 49
2.5
140
2.5
141
2.5
142
0.0
143
0.03937007874
144
1.0
145
0.0
146
1.0
147
0.625
148
0.0
 69
0
 70
0
 71
0
 72
0
 73
0
 74
0
 75
0
 76
0
 77
1
 78
8
 79
3
170
0
171
3
172
1
173
0
174
0
175
0
176
0
177
0
178
0
179
2
271
2
272
2
273
2
274
3
275
0
276
0
277
2
278
44
279
0
280
0
281
0
282
0
283
0
284
8
285
0
286
0
288
0
289
3
290
0
371
-2
372
-2
  0
ENDTAB
  0
TABLE
  2
BLOCK_RECORD
  5
9
330
0
100
AcDbSymbolTable
 70
2
  0
BLOCK_RECORD
  5
17
330
9
100
AcDbSymbolTableRecord
100
AcDbBlockTableRecord
  2
*Model_Space
340
1A
 70
0
280
1
281
0
  0
BLOCK_RECORD
  5
1B
330
9
100
AcDbSymbolTableRecord
100
AcDbBlockTableRecord
  2
*Paper_Space
340
1E
 70
0
280
1
281
0
  0
ENDTAB
  0
ENDSEC
  0
SECTION
  2
BLOCKS
  0
BLOCK
  5
18
330
17
100
AcDbEntity
  8
0
100
AcDbBlockBegin
  2
*Model_Space
 70
0
 10
0.0
 20
0.0
 30
0.0
  3
*Model_Space
  1

  0
ENDBLK
  5
19
330
17
100
AcDbEntity
  8
0
100
AcDbBlockEnd
  0
BLOCK
  5
1C
330
1B
100
AcDbEntity
  8
0
100
AcDbBlockBegin
  2
*Paper_Space
 70
0
 10
0.0
 20
0.0
 30
0.0
  3
*Paper_Space
  1

  0
ENDBLK
  5
1D
330
1B
100
AcDbEntity
  8
0
100
AcDbBlockEnd
  0
ENDSEC
  0
SECTION
  2
ENTITIES
  0
LINE
  5
2F
330
17
100
AcDbEntity
  8
0
 62
4
100
AcDbLine
 10
-47.64917453992443
 20
0.0
 30
0.0
 11
-39.68184244792863
 21
3.6e-15
 31
0.0
  0
LINE
  5
30
330
17
100
AcDbEntity
  8
0
 62
4
100
AcDbLine
 10
-39.18184244792863
 20
1.8e-15
 30
0.0
 11
-36.83927451547404
 21
0.0
 31
0.0
  0
LINE
  5
31
330
17
100
AcDbEntity
  8
0
 62
4
100
AcDbLine
 10
-39.68184244792863
 20
-0.2000000000000011
 30
0.0
 11
-39.18184244792863
 21
-0.2000000000000011
 31
0.0
  0
LINE
  5
32
330
17
100
AcDbEntity
  8
0
 62
8
100
AcDbLine
 10
-41.83927451547403
 20
7.599999999999997
 30
0.0
 11
-40.83927451547403
 21
7.599999999999997
 31
0.0
  0
LWPOLYLINE
  5
33
330
17
100
AcDbEntity
  8
0
 62
11
100
AcDbPolyline
 90
4
 70
1
 10
-41.83927451547403
 20
7.599999999999997
 10
-41.83927451547403
 20
7.099999999999997
 10
-41.53927451547403
 20
7.099999999999997
 10
-41.53927451547403
 20
7.599999999999997
  0
LINE
  5
34
330
17
100
AcDbEntity
  8
0
 62
8
100
AcDbLine
 10
-40.83927451547403
 20
7.599999999999997
 30
0.0
 11
-40.83927451547403
 21
0.0
 31
0.0
  0
LINE
  5
35
330
17
100
AcDbEntity
  8
0
 62
8
100
AcDbLine
 10
-41.83927451547403
 20
7.599999999999997
 30
0.0
 11
-41.83927451547403
 21
0.0
 31
0.0
  0
LWPOLYLINE
  5
37
330
17
100
AcDbEntity
  8
0-cortes
 62
251
100
AcDbPolyline
 90
195
 70
0
 10
-42.95503077047901
 20
1.424024736101607
 10
-42.96304951824818
 20
1.46698949761188
 10
-42.96726712345408
 20
1.506069416994751
 10
-42.95683289059856
 20
1.529457420775855
 10
-42.95406727399345
 20
1.569189844103309
 10
-42.95813559040955
 20
1.600059614852259
 10
-42.94850406498368
 20
1.627928386499959
 10
-42.94792623501474
 20
1.654214256382736
 10
-42.92388920027623
 20
1.679304680177459
 10
-42.90749962914553
 20
1.687874404453161
 10
-42.89110360734635
 20
1.699912355285412
 10
-42.86082637009634
 20
1.699030575285402
 10
-42.83238524885446
 20
1.696827624764715
 10
-42.79584843328421
 20
1.68039111852039
 10
-42.77192035311419
 20
1.653221404989785
 10
-42.75243810757372
 20
1.618259623151228
 10
-42.74288174996821
 20
1.593074723081123
 10
-42.72983721641991
 20
1.572688957292395
 10
-42.7257805424719
 20
1.548198975426128
 10
-42.72021041893883
 20
1.528499002770914
 10
-42.71463990995409
 20
1.51532597280164
 10
-42.71468193451245
 20
1.49273130865443
 10
-42.71698691782193
 20
1.479470543146554
 10
-42.71071039352107
 20
1.454067779602873
 10
-42.71391079853929
 20
1.427038108731064
 10
-42.71314472694299
 20
1.415499351580031
 10
-42.70025898236234
 20
1.410855332865551
 10
-42.68625420288286
 20
1.401173248057297
 10
-42.67631217827444
 20
1.381113200933221
 10
-42.67315495877345
 20
1.359645203056789
 10
-42.6684664475387
 20
1.327764952348442
 10
-42.66409169160375
 20
1.298018128887704
 10
-42.65949873931314
 20
1.263673735380361
 10
-42.65958646602503
 20
1.216507134013326
 10
-42.6533154329651
 20
1.181832281670793
 10
-42.65456307007862
 20
1.143005687908182
 10
-42.65303884874923
 20
1.121988654787184
 10
-42.64036952720075
 20
1.07682039882842
 10
-42.63077919763508
 20
1.042629265633831
 10
-42.62406930784594
 20
1.01870738329082
 10
-42.62412465159779
 20
0.988951603966619
 10
-42.62059884725097
 20
0.9504680749497644
 10
-42.61299745855263
 20
0.9042982086746036
 10
-42.60580500988818
 20
0.8657694661610122
 10
-42.60585388976958
 20
0.8394890114309667
 10
-42.60139820902172
 20
0.8083369657894508
 10
-42.59619317652588
 20
0.7756157801934159
 10
-42.58956929457728
 20
0.7536998060325715
 10
-42.59204500606476
 20
0.73080251810212
 10
-42.5992339613657
 20
0.7143321575016728
 10
-42.60489294035976
 20
0.7052177599866987
 10
-42.53057435708901
 20
0.520136671396859
 10
-42.5100016120884
 20
0.4711143371290376
 10
-42.50025806829181
 20
0.4454555655600992
 10
-42.48483824897964
 20
0.3939728152371664
 10
-42.47192720729974
 20
0.3460525551242171
 10
-42.47023612501727
 20
0.3009943034511373
 10
-42.47183046519039
 20
0.2590328621136564
 10
-42.47577062926505
 20
0.2387298784354179
 10
-42.48085784196887
 20
0.2125163516539743
 10
-42.50798348991823
 20
0.2037490646684752
 10
-42.53035926747869
 20
0.1997209409318152
 10
-42.55494723996257
 20
0.1880821644261736
 10
-42.57663370555515
 20
0.1881224997961972
 10
-42.59765869242575
 20
0.1835863455134508
 10
-42.66018264928068
 20
0.1818405373170826
 10
-42.6754320225602
 20
0.1985701964821054
 10
-42.66855378447512
 20
0.2249339335264651
 10
-42.67175153893093
 20
0.2435672656899968
 10
-42.68746304669981
 20
0.2962151700038937
 10
-42.69383681598411
 20
0.3388505247939442
 10
-42.68601520463382
 20
0.4047645044571837
 10
-42.67723187345494
 20
0.4632155032209404
 10
-42.66647080480929
 20
0.5232945593765024
 10
-42.63554169820953
 20
0.702260852518041
 10
-42.64436782994046
 20
0.7155935128648993
 10
-42.65326037340902
 20
0.724818161768912
 10
-42.65590031749865
 20
0.7084161278819359
 10
-42.65719001837029
 20
0.691211712118367
 10
-42.66074440372345
 20
0.6824133484068291
 10
-42.67299336810641
 20
0.6818410269953752
 10
-42.68240409261359
 20
0.6778911725560164
 10
-42.71194016181588
 20
0.6791235170596189
 10
-42.72254057834046
 20
0.6295832560087149
 10
-42.73358398077898
 20
0.5779727331176261
 10
-42.74148049050971
 20
0.5327125703306664
 10
-42.74477676643086
 20
0.4983754607477593
 10
-42.74444384002889
 20
0.4688244252178535
 10
-42.74378542922135
 20
0.4499590543900105
 10
-42.73971914797921
 20
0.4179950645618078
 10
-42.74389035295105
 20
0.3619478970262868
 10
-42.74962632801383
 20
0.305116567271078
 10
-42.76472386126615
 20
0.2391713275852219
 10
-42.77890538494235
 20
0.1791050322107743
 10
-42.78720878302671
 20
0.1511825986230662
 10
-42.79026616949657
 20
0.1315306673782324
 10
-42.79302768734824
 20
0.1003216566351597
 10
-42.78636071890149
 20
0.0889318983153054
 10
-42.78457913603604
 20
0.0609331166625182
 10
-42.76422030442121
 20
0.035932891568006
 10
-42.75969277560235
 20
0.0244511280001447
 10
-42.76666208364232
 20
-0.000319097593966
 10
-42.84623910902375
 20
-0.000823784009846
 10
-42.85508392896777
 20
0.0151004915654909
 10
-42.84974273214105
 20
0.0366294705279415
 10
-42.85208293848625
 20
0.0613082288038704
 10
-42.85203542728912
 20
0.0868528052058082
 10
-42.84498058083672
 20
0.0944160571835937
 10
-42.84785759931681
 20
0.2033381765422959
 10
-42.84776208895688
 20
0.2546896859672536
 10
-42.85083997618015
 20
0.2808927697408805
 10
-42.85121057004859
 20
0.3407493694049037
 10
-42.84697905346116
 20
0.372345982859855
 10
-42.84490885434793
 20
0.404727289843752
 10
-42.84746460650156
 20
0.43359137155446
 10
-42.84950307213811
 20
0.4561899052737424
 10
-42.85339678965637
 20
0.4861379004478366
 10
-42.85599253021034
 20
0.5061026835167262
 10
-42.85595100846926
 20
0.5284270060318939
 10
-42.85904187837307
 20
0.5350492837438772
 10
-42.86324934912129
 20
0.5227007096396683
 10
-42.86695280364104
 20
0.4969517672304918
 10
-42.87069780568656
 20
0.47091395807713
 10
-42.8792262653245
 20
0.4452901618432357
 10
-42.87544596706929
 20
0.423878595758854
 10
-42.87046095538447
 20
0.3929367314127887
 10
-42.86441172377375
 20
0.3654035355649228
 10
-42.86446226987947
 20
0.3382272289570096
 10
-42.86245466049779
 20
0.305358415214549
 10
-42.86365689759818
 20
0.2846216085806503
 10
-42.86649462030512
 20
0.2629983878257747
 10
-42.86975883521238
 20
0.2269398972631151
 10
-42.8728032289368
 20
0.1763553492927166
 10
-42.87491182452284
 20
0.1043709247824722
 10
-42.86584418228723
 20
0.0944932558669507
 10
-42.86130276270647
 20
0.0272828879362628
 10
-42.87572699323796
 20
0.0199957000467812
 10
-42.89796804957011
 20
-7.48773129189e-05
 10
-42.97848419553837
 20
7.48773129153e-05
 10
-42.98747971786558
 20
0.0108098732827209
 10
-42.97830478919083
 20
0.0333363591281959
 10
-42.95792127444833
 20
0.0532056245385455
 10
-42.94541253330173
 20
0.0796932674717681
 10
-42.9409901832348
 20
0.0874981773891044
 10
-42.93897710261084
 20
0.101808915932093
 10
-42.92862646010767
 20
0.1055330584419423
 10
-42.92639373952401
 20
0.1178597095922598
 10
-42.92967045730596
 20
0.1319563230608907
 10
-42.96301745727738
 20
0.2392457880111607
 10
-42.96418314884921
 20
0.3139942560128688
 10
-42.9718918512885
 20
0.3719832086146049
 10
-42.97214228958689
 20
0.4269251803529599
 10
-42.97180539503948
 20
0.4879834693905139
 10
-42.97172836786823
 20
0.5293974219142826
 10
-42.97645964340721
 20
0.5577280369662745
 10
-42.98358580395031
 20
0.5939786249616148
 10
-42.98590433287516
 20
0.6366320331343865
 10
-42.9874975505286
 20
0.665942067679758
 10
-43.00400040886377
 20
0.6837876624047788
 10
-43.00867342986307
 20
0.7055208370998436
 10
-43.01109545591898
 20
0.7241271306040141
 10
-43.01871059557218
 20
0.7565840423444606
 10
-43.02880756223162
 20
0.781814740659975
 10
-43.02973478471272
 20
0.8331041626582589
 10
-43.0363128877001
 20
0.8543545594040757
 10
-43.02944773217332
 20
0.8863238133513497
 10
-43.01840829486919
 20
0.9191171687496968
 10
-43.00992447340114
 20
0.9555690859342114
 10
-43.00038326082791
 20
0.979118724776228
 10
-42.99208227146765
 20
0.9994263955400519
 10
-42.9841353211563
 20
1.00633529392503
 10
-42.98782917187868
 20
1.017348382526904
 10
-42.98604549782793
 20
1.034711853635759
 10
-43.02091192689515
 20
1.045520563611802
 10
-43.04662344308384
 20
1.055454784872054
 10
-43.06743165637961
 20
1.066352528863994
 10
-43.07455261512653
 20
1.073801369677735
 10
-43.07945177165966
 20
1.081386855298521
 10
-43.07999274046245
 20
1.09387863942803
 10
-43.08038626792297
 20
1.10980639305897
 10
-43.08020772039215
 20
1.123647020365272
 10
-43.07695116011844
 20
1.136630860546429
 10
-43.07138385346066
 20
1.153334600013113
 10
-43.06667723503527
 20
1.181263723369497
 10
-43.06248873353824
 20
1.202372514636035
 10
-43.0537829109928
 20
1.244429511483669
 10
-43.04411420765798
 20
1.304926532033757
 10
-43.03929213019332
 20
1.331735621922923
 10
-43.03022503162874
 20
1.359483863047991
 10
-43.01896273823316
 20
1.379382891245505
 10
-43.0054650006882
 20
1.394113797621756
 10
-42.98630726981396
 20
1.405865057438685
 10
-42.97009398760873
 20
1.414447907528735
 10
-42.95764899414403
 20
1.419300771336317
 10
-42.95503077047901
 20
1.424024736101607
  0
LWPOLYLINE
  5
38
330
17
100
AcDbEntity
  8
0-cortes
 62
251
100
AcDbPolyline
 90
21
 70
0
 10
-42.98728509914705
 20
1.101320976742382
 10
-42.99556758421455
 20
1.103601614907486
 10
-43.00736414121042
 20
1.106119151719074
 10
-43.01190646372119
 20
1.109647030399717
 10
-43.01190034629754
 20
1.112936086579765
 10
-43.01188430293736
 20
1.121561860375383
 10
-43.00535836896632
 20
1.148099024712763
 10
-43.00226018314633
 20
1.160697538062319
 10
-42.99965187204448
 20
1.171304016868074
 10
-42.99661011795776
 20
1.183673055297184
 10
-42.99273108436405
 20
1.194084090838366
 10
-42.98790011560647
 20
1.194075105560813
 10
-42.98406944707058
 20
1.187105907811041
 10
-42.98239046491146
 20
1.173460193511854
 10
-42.98240647256683
 20
1.164853616542981
 10
-42.983593970883
 20
1.158360876627352
 10
-42.98442568251788
 20
1.147247422877711
 10
-42.98507697997159
 20
1.132019099640281
 10
-42.98404361360154
 20
1.112519533972953
 10
-42.98495226068975
 20
1.10427935820774
 10
-42.98728509914705
 20
1.101320976742382
  0
LWPOLYLINE
  5
39
330
17
100
AcDbEntity
  8
0-cortes
 62
251
100
AcDbPolyline
 90
29
 70
0
 10
-42.66213854863481
 20
0.8112846798483488
 10
-42.66746811379142
 20
0.8339277285762491
 10
-42.67350116112594
 20
0.8512033548365423
 10
-42.67500104097915
 20
0.8726682701734098
 10
-42.68349206911067
 20
0.8892189862026569
 10
-42.68686779791734
 20
0.9132789709613717
 10
-42.68979828848945
 20
0.9341655890934923
 10
-42.69619461612886
 20
0.9544416575131329
 10
-42.70161237565473
 20
0.9739045851085244
 10
-42.70244159335113
 20
0.9894108174621933
 10
-42.70556872750235
 20
1.008095209989928
 10
-42.71410599145629
 20
1.018746167095695
 10
-42.71161133912305
 20
1.02654826343701
 10
-42.70829651240807
 20
1.032941062202574
 10
-42.70692352982995
 20
1.038044881915688
 10
-42.70267112243523
 20
1.036635599581334
 10
-42.70014694142854
 20
1.028715386157024
 10
-42.69410134491265
 20
1.009745900785446
 10
-42.68800187147106
 20
0.9906073638483476
 10
-42.67616935820295
 20
0.9523247485386505
 10
-42.66728824263124
 20
0.9235910109757945
 10
-42.65969357867702
 20
0.8998098009771346
 10
-42.65385401348315
 20
0.8796230059055787
 10
-42.64925300067564
 20
0.8634122711769158
 10
-42.64776022877806
 20
0.8507651416197035
 10
-42.64741448704741
 20
0.8407437207504102
 10
-42.65077218143322
 20
0.8302620636420172
 10
-42.65549180180655
 20
0.8206212039256932
 10
-42.66213854863481
 20
0.8112846798483488
  0
LWPOLYLINE
  5
3A
330
17
100
AcDbEntity
  8
0-cortes
 62
251
100
AcDbPolyline
 90
15
 70
0
 10
-42.63305024550233
 20
0.7273017641511395
 10
-42.6452805289697
 20
0.7304536051121673
 10
-42.64524464563827
 20
0.7497464151957374
 10
-42.64282972563494
 20
0.7589180381549383
 10
-42.64116700147401
 20
0.7652328970603826
 10
-42.63631772113912
 20
0.7716462638284867
 10
-42.63107535601536
 20
0.7716365133813065
 10
-42.62831895505503
 20
0.7684958942413047
 10
-42.62650923220092
 20
0.7619463879832189
 10
-42.62400246712895
 20
0.7528742400079942
 10
-42.62094042256769
 20
0.7417924989717122
 10
-42.61810144007269
 20
0.738561733085124
 10
-42.62241525323084
 20
0.7322347820092823
 10
-42.62759265131298
 20
0.7292560953772167
 10
-42.63305024550233
 20
0.7273017641511395
  0
LWPOLYLINE
  5
3B
330
17
100
AcDbEntity
  8
0-cortes
 62
251
100
AcDbPolyline
 90
15
 70
0
 10
-42.63674764462869
 20
0.52153715183794
 10
-42.62488255948788
 20
0.7012171929756441
 10
-42.61892318926856
 20
0.7012061089471225
 10
-42.61483663769614
 20
0.6990996480041503
 10
-42.59718089817051
 20
0.642704733539734
 10
-42.57124242205022
 20
0.5209673890333342
 10
-42.57713413546396
 20
0.5194361968717267
 10
-42.58513102206937
 20
0.5173578931207139
 10
-42.58734845732194
 20
0.5068492355073673
 10
-42.5897958191923
 20
0.4991942273833417
 10
-42.59526740506582
 20
0.4960369169263715
 10
-42.59984914378269
 20
0.4973316304405593
 10
-42.61337195419956
 20
0.5070384146744153
 10
-42.63057672753929
 20
0.5151906998668423
 10
-42.63674764462869
 20
0.52153715183794
  0
LWPOLYLINE
  5
3C
330
17
100
AcDbEntity
  8
0-cortes
 62
251
100
AcDbPolyline
 90
10
 70
0
 10
-42.64661678842391
 20
0.5744621431324184
 10
-42.6512856000604
 20
0.5605402819181898
 10
-42.65518324510701
 20
0.5489179510927791
 10
-42.65521398199443
 20
0.5323921463134021
 10
-42.65522946597921
 20
0.5240671227924026
 10
-42.65084312241616
 20
0.5203731611536498
 10
-42.64630307551344
 20
0.5257641769398022
 10
-42.64548101907432
 20
0.5468229046401661
 10
-42.64471858484442
 20
0.5663542823814645
 10
-42.64661678842391
 20
0.5744621431324184
  0
LWPOLYLINE
  5
3D
330
17
100
AcDbEntity
  8
0
 62
8
100
AcDbPolyline
 90
4
 70
1
 10
-41.66927451547401
 20
5.510000000000003
 10
-41.83927451547403
 20
5.510000000000003
 10
-41.83927451547403
 20
3.6e-15
 10
-41.66927451547401
 20
3.6e-15
  0
LINE
  5
3E
330
17
100
AcDbEntity
  8
0
 62
11
100
AcDbLine
 10
-41.65207451547432
 20
0.0096649297353331
 30
0.0
 11
-41.65207451547418
 21
2.425499999999839
 31
0.0
  0
LINE
  5
3F
330
17
100
AcDbEntity
  8
0
 62
11
100
AcDbLine
 10
-41.65207451547418
 20
2.439632325522278
 30
0.0
 11
-41.65207451547401
 21
5.509500000000006
 31
0.0
  0
LINE
  5
40
330
17
100
AcDbEntity
  8
0
 62
11
100
AcDbLine
 10
-41.64907451547371
 20
0.0096649297347433
 30
0.0
 11
-41.64907451547384
 21
2.425500000000173
 31
0.0
  0
LINE
  5
41
330
17
100
AcDbEntity
  8
0
 62
11
100
AcDbLine
 10
-41.64907451547384
 20
2.439632325521944
 30
0.0
 11
-41.64907451547401
 21
5.509500000000015
 31
0.0
  0
LINE
  5
42
330
17
100
AcDbEntity
  8
0
 62
11
100
AcDbLine
 10
-41.64607451547401
 20
0.0096649297352123
 30
0.0
 11
-41.64607451547401
 21
2.425500000000003
 31
0.0
  0
LINE
  5
43
330
17
100
AcDbEntity
  8
0
 62
11
100
AcDbLine
 10
-41.64607451547401
 20
2.439632325522115
 30
0.0
 11
-41.64607451547401
 21
5.509500000000008
 31
0.0
  0
LINE
  5
44
330
17
100
AcDbEntity
  8
0
 62
11
100
AcDbLine
 10
-41.63407451547401
 20
0.0096649297348712
 30
0.0
 11
-41.63407451547401
 21
2.425500000000173
 31
0.0
  0
LINE
  5
45
330
17
100
AcDbEntity
  8
0
 62
11
100
AcDbLine
 10
-41.63407451547401
 20
2.439632325521944
 30
0.0
 11
-41.63407451547401
 21
5.509500000000015
 31
0.0
  0
LINE
  5
46
330
17
100
AcDbEntity
  8
0
 62
11
100
AcDbLine
 10
-41.63007451547371
 20
0.0096649297345586
 30
0.0
 11
-41.63007451547383
 21
2.425500000000351
 31
0.0
  0
LINE
  5
47
330
17
100
AcDbEntity
  8
0
  6
CONTINUOUS
 62
8
 48
100.0
100
AcDbLine
 10
-41.6295245154737
 20
0.0091649297350465
 30
0.0
 11
-41.62952451547383
 21
2.425500000000351
 31
0.0
  0
LINE
  5
48
330
17
100
AcDbEntity
  8
0
 62
11
100
AcDbLine
 10
-41.63007451547383
 20
2.43963232552176
 30
0.0
 11
-41.63007451547402
 21
5.509500000000015
 31
0.0
  0
LINE
  5
49
330
17
100
AcDbEntity
  8
0
  6
CONTINUOUS
 62
8
 48
100.0
100
AcDbLine
 10
-41.62952451547385
 20
2.43963232552176
 30
0.0
 11
-41.62952451547401
 21
5.510000000000003
 31
0.0
  0
LINE
  5
4A
330
17
100
AcDbEntity
  8
0
 62
11
100
AcDbLine
 10
-41.62607451547431
 20
0.0096649297349138
 30
0.0
 11
-41.62607451547417
 21
2.425499999999988
 31
0.0
  0
LINE
  5
4B
330
17
100
AcDbEntity
  8
0
 62
11
100
AcDbLine
 10
-41.62607451547417
 20
2.439632325522129
 30
0.0
 11
-41.626074515474
 21
5.509500000000002
 31
0.0
  0
LINE
  5
4C
330
17
100
AcDbEntity
  8
0
 62
11
100
AcDbLine
 10
-41.65157451547402
 20
5.510000000000003
 30
0.0
 11
-41.64957451547401
 21
5.510000000000003
 31
0.0
  0
LINE
  5
4D
330
17
100
AcDbEntity
  8
0
 62
11
100
AcDbLine
 10
-41.648574515474
 20
5.51000000000001
 30
0.0
 11
-41.64657451547401
 21
5.510000000000003
 31
0.0
  0
LINE
  5
4E
330
17
100
AcDbEntity
  8
0
 62
11
100
AcDbLine
 10
-41.633574515474
 20
5.510000000000003
 30
0.0
 11
-41.63057451547401
 21
5.510000000000003
 31
0.0
  0
LINE
  5
4F
330
17
100
AcDbEntity
  8
0
 62
11
100
AcDbLine
 10
-41.62957451547401
 20
5.510000000000003
 30
0.0
 11
-41.62657451547402
 21
5.510000000000003
 31
0.0
  0
LINE
  5
50
330
17
100
AcDbEntity
  8
0
 62
11
100
AcDbLine
 10
-41.626074515474
 20
5.509500000000002
 30
0.0
 11
-41.62657451547402
 21
5.510000000000003
 31
0.0
  0
LINE
  5
51
330
17
100
AcDbEntity
  8
0
 62
11
100
AcDbLine
 10
-41.63407451547401
 20
5.509500000000015
 30
0.0
 11
-41.633574515474
 21
5.510000000000003
 31
0.0
  0
LINE
  5
52
330
17
100
AcDbEntity
  8
0
 62
11
100
AcDbLine
 10
-41.63007451547402
 20
5.509500000000015
 30
0.0
 11
-41.62957451547401
 21
5.510000000000003
 31
0.0
  0
LINE
  5
53
330
17
100
AcDbEntity
  8
0
 62
11
100
AcDbLine
 10
-41.63007451547402
 20
5.509500000000015
 30
0.0
 11
-41.63057451547401
 21
5.510000000000003
 31
0.0
  0
LINE
  5
54
330
17
100
AcDbEntity
  8
0
 62
8
100
AcDbLine
 10
-41.63407451547401
 20
5.497314502933532
 30
0.0
 11
-41.64607451547401
 21
5.497314502933532
 31
0.0
  0
LWPOLYLINE
  5
55
330
17
100
AcDbEntity
  8
0
 62
8
100
AcDbPolyline
 90
6
 70
1
 10
-41.645074515474
 20
5.497314502933532
 10
-41.63507451547402
 20
5.497314502933532
 10
-41.63507451547402
 20
5.502314502933527
 10
-41.638574515474
 20
5.505314502933527
 10
-41.641574515474
 20
5.505314502933527
 10
-41.645074515474
 20
5.502314502933527
  0
LWPOLYLINE
  5
56
330
17
100
AcDbEntity
  8
0
 62
8
100
AcDbPolyline
 90
6
 70
1
 10
-41.644574515474
 20
5.49781450293352
 10
-41.635574515474
 20
5.49781450293352
 10
-41.635574515474
 20
5.502163115114667
 10
-41.63884210735325
 20
5.504814502933525
 10
-41.64130692359477
 20
5.504814502933525
 10
-41.644574515474
 20
5.502163115114667
  0
LINE
  5
57
330
17
100
AcDbEntity
  8
0
 62
11
100
AcDbLine
 10
-41.64907451547401
 20
5.509500000000015
 30
0.0
 11
-41.648574515474
 21
5.510000000000003
 31
0.0
  0
LINE
  5
58
330
17
100
AcDbEntity
  8
0
 62
11
100
AcDbLine
 10
-41.64907451547401
 20
5.509500000000015
 30
0.0
 11
-41.64957451547401
 21
5.510000000000003
 31
0.0
  0
LINE
  5
59
330
17
100
AcDbEntity
  8
0
 62
11
100
AcDbLine
 10
-41.64607451547401
 20
5.509500000000008
 30
0.0
 11
-41.64657451547401
 21
5.510000000000003
 31
0.0
  0
LINE
  5
5A
330
17
100
AcDbEntity
  8
0
 62
11
100
AcDbLine
 10
-41.65207451547401
 20
5.509500000000006
 30
0.0
 11
-41.65157451547402
 21
5.510000000000003
 31
0.0
  0
LWPOLYLINE
  5
5B
330
17
100
AcDbEntity
  8
0
 62
11
100
AcDbPolyline
 90
14
 70
1
 10
-41.67627451547402
 20
5.468500000000004
 42
0.4142135623730951
 10
-41.67527451547401
 20
5.467500000000006
 10
-41.67227451547403
 20
5.467500000000006
 10
-41.67227451547403
 20
5.448700000000007
 42
-0.4142135623730966
 10
-41.67327451547402
 20
5.447700000000009
 10
-41.83527451547402
 20
5.447700000000009
 42
-0.4142135623730951
 10
-41.83627451547401
 20
5.448700000000007
 10
-41.83627451547401
 20
5.506300000000008
 42
-0.4142135623730951
 10
-41.83527451547402
 20
5.507300000000006
 10
-41.67327451547402
 20
5.507300000000006
 42
-0.4142135623730948
 10
-41.67227451547403
 20
5.506300000000008
 10
-41.67227451547403
 20
5.487500000000009
 10
-41.67527451547401
 20
5.487500000000009
 42
0.4142135623730951
 10
-41.67627451547402
 20
5.486500000000004
  0
LWPOLYLINE
  5
5C
330
17
100
AcDbEntity
  8
0
 62
11
100
AcDbPolyline
 90
11
 70
1
 10
-41.66927451547401
 20
5.476500000000006
 10
-41.66927451547401
 20
5.44600000000001
 42
-0.4142135623730951
 10
-41.67027451547402
 20
5.445000000000005
 10
-41.83827451547402
 20
5.445000000000005
 42
-0.4142135623730951
 10
-41.83927451547403
 20
5.44600000000001
 10
-41.83927451547403
 20
5.509000000000012
 42
-0.4142135623730951
 10
-41.83827451547402
 20
5.510000000000003
 10
-41.67027451547402
 20
5.510000000000003
 42
-0.4142135623730951
 10
-41.66927451547401
 20
5.509000000000012
 10
-41.66927451547401
 20
5.478500000000009
 10
-41.67027451547402
 20
5.477500000000004
  0
ARC
  5
5D
330
17
100
AcDbEntity
  8
0
 62
8
100
AcDbCircle
 10
-41.64007451547401
 20
5.521690646166851
 30
0.0
 40
0.0133761432333217
100
AcDbArc
 50
240.9259378909693
 51
299.0740621090175
  0
LINE
  5
5E
330
17
100
AcDbEntity
  8
0
 62
8
100
AcDbLine
 10
-41.645074515474
 20
5.502314502933527
 30
0.0
 11
-41.64607451547401
 21
5.502314502933527
 31
0.0
  0
LINE
  5
5F
330
17
100
AcDbEntity
  8
0
 62
8
100
AcDbLine
 10
-41.63507451547402
 20
5.502314502933527
 30
0.0
 11
-41.63407451547401
 21
5.502314502933527
 31
0.0
  0
LINE
  5
60
330
17
100
AcDbEntity
  8
0
 62
8
100
AcDbLine
 10
-41.65327451547402
 20
5.496999999999998
 30
0.0
 11
-41.65207451547401
 21
5.496999999999998
 31
0.0
  0
LINE
  5
61
330
17
100
AcDbEntity
  8
0
 62
8
100
AcDbLine
 10
-41.65207451547401
 20
5.509500000000008
 30
0.0
 11
-41.65327451547402
 21
5.509500000000008
 31
0.0
  0
LWPOLYLINE
  5
62
330
17
100
AcDbEntity
  8
0
 62
11
100
AcDbPolyline
 90
14
 70
1
 10
-41.67627451547402
 20
0.0235000000000021
 42
0.4142135623730951
 10
-41.67527451547401
 20
0.0225000000000044
 10
-41.67227451547403
 20
0.0225000000000044
 10
-41.67227451547403
 20
0.0037000000000056
 42
-0.4142135623730966
 10
-41.67327451547402
 20
0.0027000000000079
 10
-41.83527451547402
 20
0.0027000000000079
 42
-0.4142135623730951
 10
-41.83627451547401
 20
0.0037000000000056
 10
-41.83627451547401
 20
0.0613000000000064
 42
-0.4142135623730951
 10
-41.83527451547402
 20
0.062300000000004
 10
-41.67327451547402
 20
0.062300000000004
 42
-0.4142135623730948
 10
-41.67227451547403
 20
0.0613000000000064
 10
-41.67227451547403
 20
0.0425000000000075
 10
-41.67527451547401
 20
0.0425000000000075
 42
0.4142135623730951
 10
-41.67627451547402
 20
0.0415000000000028
  0
LWPOLYLINE
  5
63
330
17
100
AcDbEntity
  8
0
 62
11
100
AcDbPolyline
 90
11
 70
1
 10
-41.66927451547401
 20
0.0315000000000048
 10
-41.66927451547401
 20
0.0010000000000083
 42
-0.4142135623730951
 10
-41.67027451547402
 20
3.6e-15
 10
-41.83827451547402
 20
3.6e-15
 42
-0.4142135623730951
 10
-41.83927451547403
 20
0.0010000000000083
 10
-41.83927451547403
 20
0.0640000000000107
 42
-0.4142135623730951
 10
-41.83827451547402
 20
0.0650000000000013
 10
-41.67027451547402
 20
0.0650000000000013
 42
-0.4142135623730951
 10
-41.66927451547401
 20
0.0640000000000107
 10
-41.66927451547401
 20
0.0335000000000072
 10
-41.67027451547402
 20
0.0325000000000024
  0
LINE
  5
64
330
17
100
AcDbEntity
  8
0
 62
11
100
AcDbLine
 10
-41.63357451547419
 20
2.425999999999991
 30
0.0
 11
-41.63057451547418
 21
2.425999999999991
 31
0.0
  0
LINE
  5
65
330
17
100
AcDbEntity
  8
0
 62
11
100
AcDbLine
 10
-41.62957451547419
 20
2.425999999999991
 30
0.0
 11
-41.62657451547419
 21
2.425999999999991
 31
0.0
  0
LINE
  5
66
330
17
100
AcDbEntity
  8
0
 62
11
100
AcDbLine
 10
-41.62607451547417
 20
2.425499999999988
 30
0.0
 11
-41.62657451547419
 21
2.425999999999991
 31
0.0
  0
LINE
  5
67
330
17
100
AcDbEntity
  8
0
 62
8
100
AcDbLine
 10
-41.63407451547418
 20
2.425499999999995
 30
0.0
 11
-41.63357451547419
 21
2.425999999999991
 31
0.0
  0
LINE
  5
68
330
17
100
AcDbEntity
  8
0
 62
11
100
AcDbLine
 10
-41.63007451547419
 20
2.425499999999995
 30
0.0
 11
-41.62957451547419
 21
2.425999999999991
 31
0.0
  0
LINE
  5
69
330
17
100
AcDbEntity
  8
0
 62
11
100
AcDbLine
 10
-41.63007451547419
 20
2.425499999999995
 30
0.0
 11
-41.63057451547418
 21
2.425999999999991
 31
0.0
  0
LINE
  5
6A
330
17
100
AcDbEntity
  8
0
 62
11
100
AcDbLine
 10
-41.65157451547402
 20
2.425999999999991
 30
0.0
 11
-41.64957451547401
 21
2.425999999999991
 31
0.0
  0
LINE
  5
6B
330
17
100
AcDbEntity
  8
0
 62
11
100
AcDbLine
 10
-41.648574515474
 20
2.425999999999998
 30
0.0
 11
-41.64657451547401
 21
2.425999999999991
 31
0.0
  0
LINE
  5
6C
330
17
100
AcDbEntity
  8
0
 62
11
100
AcDbLine
 10
-41.64907451547401
 20
2.425500000000003
 30
0.0
 11
-41.648574515474
 21
2.425999999999991
 31
0.0
  0
LINE
  5
6D
330
17
100
AcDbEntity
  8
0
 62
11
100
AcDbLine
 10
-41.64907451547401
 20
2.425500000000003
 30
0.0
 11
-41.64957451547401
 21
2.425999999999991
 31
0.0
  0
LINE
  5
6E
330
17
100
AcDbEntity
  8
0
 62
8
100
AcDbLine
 10
-41.64607451547401
 20
2.425499999999995
 30
0.0
 11
-41.64657451547401
 21
2.425999999999991
 31
0.0
  0
LINE
  5
6F
330
17
100
AcDbEntity
  8
0
 62
11
100
AcDbLine
 10
-41.65207451547401
 20
2.425499999999995
 30
0.0
 11
-41.65157451547402
 21
2.425999999999991
 31
0.0
  0
LINE
  5
70
330
17
100
AcDbEntity
  8
0
 62
11
100
AcDbLine
 10
-41.63357451547419
 20
2.43913232552212
 30
0.0
 11
-41.63057451547418
 21
2.43913232552212
 31
0.0
  0
LINE
  5
71
330
17
100
AcDbEntity
  8
0
 62
11
100
AcDbLine
 10
-41.62957451547419
 20
2.43913232552212
 30
0.0
 11
-41.62657451547419
 21
2.43913232552212
 31
0.0
  0
LINE
  5
72
330
17
100
AcDbEntity
  8
0
 62
11
100
AcDbLine
 10
-41.62607451547417
 20
2.439632325522129
 30
0.0
 11
-41.62657451547419
 21
2.43913232552212
 31
0.0
  0
LINE
  5
73
330
17
100
AcDbEntity
  8
0
 62
11
100
AcDbLine
 10
-41.63407451547418
 20
2.439632325522115
 30
0.0
 11
-41.63357451547419
 21
2.43913232552212
 31
0.0
  0
LINE
  5
74
330
17
100
AcDbEntity
  8
0
 62
11
100
AcDbLine
 10
-41.63007451547419
 20
2.439632325522115
 30
0.0
 11
-41.62957451547419
 21
2.43913232552212
 31
0.0
  0
LINE
  5
75
330
17
100
AcDbEntity
  8
0
 62
11
100
AcDbLine
 10
-41.63007451547419
 20
2.439632325522115
 30
0.0
 11
-41.63057451547418
 21
2.43913232552212
 31
0.0
  0
LINE
  5
76
330
17
100
AcDbEntity
  8
0
 62
11
100
AcDbLine
 10
-41.65157451547402
 20
2.439132325522113
 30
0.0
 11
-41.64957451547401
 21
2.43913232552212
 31
0.0
  0
LINE
  5
77
330
17
100
AcDbEntity
  8
0
 62
11
100
AcDbLine
 10
-41.648574515474
 20
2.439132325522113
 30
0.0
 11
-41.64657451547401
 21
2.439132325522113
 31
0.0
  0
LINE
  5
78
330
17
100
AcDbEntity
  8
0
 62
11
100
AcDbLine
 10
-41.64907451547401
 20
2.439632325522115
 30
0.0
 11
-41.648574515474
 21
2.439132325522113
 31
0.0
  0
LINE
  5
79
330
17
100
AcDbEntity
  8
0
 62
11
100
AcDbLine
 10
-41.64907451547401
 20
2.439632325522115
 30
0.0
 11
-41.64957451547401
 21
2.439132325522113
 31
0.0
  0
LINE
  5
7A
330
17
100
AcDbEntity
  8
0
 62
11
100
AcDbLine
 10
-41.64607451547401
 20
2.439632325522115
 30
0.0
 11
-41.64657451547401
 21
2.439132325522113
 31
0.0
  0
LINE
  5
7B
330
17
100
AcDbEntity
  8
0
 62
11
100
AcDbLine
 10
-41.65207451547401
 20
2.439632325522115
 30
0.0
 11
-41.65157451547402
 21
2.439132325522113
 31
0.0
  0
LINE
  5
7C
330
17
100
AcDbEntity
  8
0
 62
8
100
AcDbLine
 10
-41.63407451547418
 20
2.425499999999995
 30
0.0
 11
-41.63357451547419
 21
2.425999999999991
 31
0.0
  0
LINE
  5
7D
330
17
100
AcDbEntity
  8
0
 62
8
100
AcDbLine
 10
-41.63407451547418
 20
2.413314502933513
 30
0.0
 11
-41.64607451547418
 21
2.413314502933513
 31
0.0
  0
LWPOLYLINE
  5
7E
330
17
100
AcDbEntity
  8
0
 62
8
100
AcDbPolyline
 90
6
 70
1
 10
-41.64507451547417
 20
2.413314502933513
 10
-41.63507451547419
 20
2.413314502933513
 10
-41.63507451547419
 20
2.418314502933508
 10
-41.63857451547419
 20
2.421314502933508
 10
-41.64157451547417
 20
2.421314502933508
 10
-41.64507451547417
 20
2.418314502933508
  0
LWPOLYLINE
  5
7F
330
17
100
AcDbEntity
  8
0
 62
8
100
AcDbPolyline
 90
6
 70
1
 10
-41.64457451547419
 20
2.413814502933508
 10
-41.63557451547418
 20
2.413814502933508
 10
-41.63557451547418
 20
2.418163115114648
 10
-41.63884210735342
 20
2.420814502933513
 10
-41.64130692359494
 20
2.420814502933513
 10
-41.64457451547419
 20
2.418163115114648
  0
LINE
  5
80
330
17
100
AcDbEntity
  8
0
 62
8
100
AcDbLine
 10
-41.64607451547418
 20
2.425499999999988
 30
0.0
 11
-41.64657451547419
 21
2.425999999999991
 31
0.0
  0
ARC
  5
81
330
17
100
AcDbEntity
  8
0
 62
8
100
AcDbCircle
 10
-41.64007451547418
 20
2.437690646166831
 30
0.0
 40
0.0133761432333217
100
AcDbArc
 50
240.9259378909693
 51
299.0740621090175
  0
LINE
  5
82
330
17
100
AcDbEntity
  8
0
 62
8
100
AcDbLine
 10
-41.64507451547417
 20
2.418314502933508
 30
0.0
 11
-41.64607451547418
 21
2.418314502933508
 31
0.0
  0
LINE
  5
83
330
17
100
AcDbEntity
  8
0
 62
8
100
AcDbLine
 10
-41.63507451547419
 20
2.418314502933508
 30
0.0
 11
-41.63407451547418
 21
2.418314502933508
 31
0.0
  0
LINE
  5
84
330
17
100
AcDbEntity
  8
0
 62
11
100
AcDbLine
 10
-41.63407451547418
 20
2.439632325522115
 30
0.0
 11
-41.63357451547419
 21
2.43913232552212
 31
0.0
  0
LINE
  5
85
330
17
100
AcDbEntity
  8
0
 62
11
100
AcDbLine
 10
-41.64607451547401
 20
2.439632325522115
 30
0.0
 11
-41.64657451547401
 21
2.439132325522113
 31
0.0
  0
LINE
  5
86
330
17
100
AcDbEntity
  8
0
 62
11
100
AcDbLine
 10
-41.63407451547418
 20
2.439632325522115
 30
0.0
 11
-41.63357451547419
 21
2.43913232552212
 31
0.0
  0
LINE
  5
87
330
17
100
AcDbEntity
  8
0
 62
8
100
AcDbLine
 10
-41.63407451547418
 20
2.451817822588598
 30
0.0
 11
-41.64607451547418
 21
2.451817822588598
 31
0.0
  0
LWPOLYLINE
  5
88
330
17
100
AcDbEntity
  8
0
 62
8
100
AcDbPolyline
 90
6
 70
1
 10
-41.64507451547417
 20
2.451817822588598
 10
-41.63507451547419
 20
2.451817822588598
 10
-41.63507451547419
 20
2.446817822588602
 10
-41.63857451547419
 20
2.443817822588602
 10
-41.64157451547417
 20
2.443817822588602
 10
-41.64507451547417
 20
2.446817822588602
  0
LWPOLYLINE
  5
89
330
17
100
AcDbEntity
  8
0
 62
8
100
AcDbPolyline
 90
6
 70
1
 10
-41.64457451547419
 20
2.451317822588602
 10
-41.63557451547418
 20
2.451317822588602
 10
-41.63557451547418
 20
2.446969210407463
 10
-41.63884210735342
 20
2.444317822588597
 10
-41.64130692359494
 20
2.444317822588597
 10
-41.64457451547419
 20
2.446969210407463
  0
LINE
  5
8A
330
17
100
AcDbEntity
  8
0
 62
11
100
AcDbLine
 10
-41.64607451547418
 20
2.439632325522115
 30
0.0
 11
-41.64657451547419
 21
2.43913232552212
 31
0.0
  0
ARC
  5
8B
330
17
100
AcDbEntity
  8
0
 62
8
100
AcDbCircle
 10
-41.64007451547418
 20
2.427441679355272
 30
0.0
 40
0.0133761432333217
100
AcDbArc
 50
60.92593789098248
 51
119.0740621090305
  0
LINE
  5
8C
330
17
100
AcDbEntity
  8
0
 62
8
100
AcDbLine
 10
-41.64507451547417
 20
2.446817822588602
 30
0.0
 11
-41.64607451547418
 21
2.446817822588602
 31
0.0
  0
LINE
  5
8D
330
17
100
AcDbEntity
  8
0
 62
8
100
AcDbLine
 10
-41.63507451547419
 20
2.446817822588602
 30
0.0
 11
-41.63407451547418
 21
2.446817822588602
 31
0.0
  0
LINE
  5
8E
330
17
100
AcDbEntity
  8
0
 62
11
100
AcDbLine
 10
-41.63357451547419
 20
0.0091649297350465
 30
0.0
 11
-41.63057451547418
 21
0.0091649297350465
 31
0.0
  0
LINE
  5
8F
330
17
100
AcDbEntity
  8
0
 62
11
100
AcDbLine
 10
-41.62957451547419
 20
0.0091649297350465
 30
0.0
 11
-41.62657451547419
 21
0.0091649297350465
 31
0.0
  0
LINE
  5
90
330
17
100
AcDbEntity
  8
0
 62
11
100
AcDbLine
 10
-41.62607451547417
 20
0.009664929735056
 30
0.0
 11
-41.62657451547419
 21
0.0091649297350465
 31
0.0
  0
LINE
  5
91
330
17
100
AcDbEntity
  8
0
 62
11
100
AcDbLine
 10
-41.63407451547418
 20
0.0096649297350417
 30
0.0
 11
-41.63357451547419
 21
0.0091649297350465
 31
0.0
  0
LINE
  5
92
330
17
100
AcDbEntity
  8
0
 62
11
100
AcDbLine
 10
-41.63007451547419
 20
0.0096649297350417
 30
0.0
 11
-41.62957451547419
 21
0.0091649297350465
 31
0.0
  0
LINE
  5
93
330
17
100
AcDbEntity
  8
0
 62
11
100
AcDbLine
 10
-41.63007451547419
 20
0.0096649297350417
 30
0.0
 11
-41.63057451547418
 21
0.0091649297350465
 31
0.0
  0
LINE
  5
94
330
17
100
AcDbEntity
  8
0
 62
11
100
AcDbLine
 10
-41.65157451547402
 20
0.0091649297350394
 30
0.0
 11
-41.64957451547401
 21
0.0091649297350465
 31
0.0
  0
LINE
  5
95
330
17
100
AcDbEntity
  8
0
 62
11
100
AcDbLine
 10
-41.648574515474
 20
0.0091649297350394
 30
0.0
 11
-41.64657451547401
 21
0.0091649297350394
 31
0.0
  0
LINE
  5
96
330
17
100
AcDbEntity
  8
0
 62
11
100
AcDbLine
 10
-41.64907451547401
 20
0.0096649297350417
 30
0.0
 11
-41.648574515474
 21
0.0091649297350394
 31
0.0
  0
LINE
  5
97
330
17
100
AcDbEntity
  8
0
 62
11
100
AcDbLine
 10
-41.64907451547401
 20
0.0096649297350417
 30
0.0
 11
-41.64957451547401
 21
0.0091649297350394
 31
0.0
  0
LINE
  5
98
330
17
100
AcDbEntity
  8
0
 62
11
100
AcDbLine
 10
-41.64607451547401
 20
0.0096649297350417
 30
0.0
 11
-41.64657451547401
 21
0.0091649297350394
 31
0.0
  0
LINE
  5
99
330
17
100
AcDbEntity
  8
0
 62
11
100
AcDbLine
 10
-41.65207451547401
 20
0.0096649297350417
 30
0.0
 11
-41.65157451547402
 21
0.0091649297350394
 31
0.0
  0
LINE
  5
9A
330
17
100
AcDbEntity
  8
0
 62
11
100
AcDbLine
 10
-41.63407451547418
 20
0.0096649297350417
 30
0.0
 11
-41.63357451547419
 21
0.0091649297350465
 31
0.0
  0
LINE
  5
9B
330
17
100
AcDbEntity
  8
0
 62
11
100
AcDbLine
 10
-41.64607451547401
 20
0.0096649297350417
 30
0.0
 11
-41.64657451547401
 21
0.0091649297350394
 31
0.0
  0
LINE
  5
9C
330
17
100
AcDbEntity
  8
0
 62
11
100
AcDbLine
 10
-41.63407451547418
 20
0.0096649297350417
 30
0.0
 11
-41.63407451547401
 21
0.0096649297348712
 31
0.0
  0
LINE
  5
9D
330
17
100
AcDbEntity
  8
0
 62
8
100
AcDbLine
 10
-41.63407451547418
 20
0.0218504268015245
 30
0.0
 11
-41.64607451547418
 21
0.0218504268015245
 31
0.0
  0
LWPOLYLINE
  5
9E
330
17
100
AcDbEntity
  8
0
 62
8
100
AcDbPolyline
 90
6
 70
1
 10
-41.64507451547417
 20
0.0218504268015245
 10
-41.63507451547419
 20
0.0218504268015245
 10
-41.63507451547419
 20
0.0168504268015291
 10
-41.63857451547419
 20
0.0138504268015289
 10
-41.64157451547417
 20
0.0138504268015289
 10
-41.64507451547417
 20
0.0168504268015291
  0
LWPOLYLINE
  5
9F
330
17
100
AcDbEntity
  8
0
 62
8
100
AcDbPolyline
 90
6
 70
1
 10
-41.64457451547419
 20
0.0213504268015292
 10
-41.63557451547418
 20
0.0213504268015292
 10
-41.63557451547418
 20
0.0170018146203894
 10
-41.63884210735342
 20
0.0143504268015242
 10
-41.64130692359494
 20
0.0143504268015242
 10
-41.64457451547419
 20
0.0170018146203894
  0
LINE
  5
A0
330
17
100
AcDbEntity
  8
0
 62
11
100
AcDbLine
 10
-41.64607451547401
 20
0.0096649297352123
 30
0.0
 11
-41.64657451547419
 21
0.0091649297350465
 31
0.0
  0
ARC
  5
A1
330
17
100
AcDbEntity
  8
0
 62
8
100
AcDbCircle
 10
-41.64007451547418
 20
-0.0025257164318013
 30
0.0
 40
0.0133761432333217
100
AcDbArc
 50
60.92593789098248
 51
119.0740621090305
  0
LINE
  5
A2
330
17
100
AcDbEntity
  8
0
 62
8
100
AcDbLine
 10
-41.64507451547417
 20
0.0168504268015291
 30
0.0
 11
-41.64607451547418
 21
0.0168504268015291
 31
0.0
  0
LINE
  5
A3
330
17
100
AcDbEntity
  8
0
 62
8
100
AcDbLine
 10
-41.63507451547419
 20
0.0168504268015291
 30
0.0
 11
-41.63407451547418
 21
0.0168504268015291
 31
0.0
  0
ARC
  5
A4
330
17
100
AcDbEntity
  8
0
 62
8
100
AcDbCircle
 10
-41.61223902836653
 20
2.432566162761052
 30
0.0
 40
0.0155354871076451
100
AcDbArc
 50
152.945352504016
 51
207.0546474959138
  0
LWPOLYLINE
  5
A5
330
17
100
AcDbEntity
  8
0
 62
11
100
AcDbPolyline
 90
21
 70
1
 10
-41.73212451547401
 20
2.464169917063021
 42
0.3642142242882249
 10
-41.73171091521301
 20
2.4636774385507
 10
-41.72927451547401
 20
2.463249999999998
 10
-41.72727451547402
 20
2.463249999999998
 10
-41.72727451547402
 20
2.460749999999993
 10
-41.72822451547403
 20
2.460749999999993
 42
0.4142135623731395
 10
-41.72897451547401
 20
2.459999999999997
 42
0.4142135623730507
 10
-41.72822451547403
 20
2.45925
 10
-41.72577451547401
 20
2.45925
 10
-41.72577451547401
 20
2.463249999999998
 10
-41.67527451547401
 20
2.463249999999998
 10
-41.67527451547401
 20
2.457249999999998
 42
0.8252846317787602
 10
-41.67431050192681
 20
2.457063743649744
 10
-41.67279610734569
 20
2.460338246189845
 42
0.530985777794659
 10
-41.67307451547401
 20
2.460749999999993
 10
-41.67377451547402
 20
2.460749999999993
 10
-41.67377451547402
 20
2.463249999999998
 10
-41.66982451547402
 20
2.463249999999998
 10
-41.66982451547402
 20
2.464749999999998
 10
-41.73162451547402
 20
2.464749999999998
 42
0.4142135623730951
 10
-41.73212451547401
 20
2.464249999999996
  0
LINE
  5
A6
330
17
100
AcDbEntity
  8
0
 62
251
100
AcDbLine
 10
-41.6566065545214
 20
2.43222328370663
 30
0.0
 11
-41.6566065545214
 21
2.4329090418154884
 31
0.0
  0
LINE
  5
A7
330
17
100
AcDbEntity
  8
0
 62
251
100
AcDbLine
 10
-41.658606554521455
 20
2.4305661627610604
 30
0.0
 11
-41.658606554521455
 21
2.4345661627610475
 31
0.0
  0
LINE
  5
A8
330
17
100
AcDbEntity
  8
0
 62
251
100
AcDbLine
 10
-41.67896961713796
 20
2.4305661627610498
 30
0.0
 11
-41.658606554521455
 21
2.4305661627610604
 31
0.0
  0
LINE
  5
A9
330
17
100
AcDbEntity
  8
0
 62
251
100
AcDbLine
 10
-41.67896961713768
 20
2.4345661627609374
 30
0.0
 11
-41.658606554521455
 21
2.4345661627610475
 31
0.0
  0
LINE
  5
AA
330
17
100
AcDbEntity
  8
0
 62
251
100
AcDbLine
 10
-41.658606554521455
 20
2.4305661627610604
 30
0.0
 11
-41.65660655452151
 21
2.4275661627610496
 31
0.0
  0
LINE
  5
AB
330
17
100
AcDbEntity
  8
0
 62
251
100
AcDbLine
 10
-41.658606554521455
 20
2.4345661627610475
 30
0.0
 11
-41.65660655452151
 21
2.437566162761069
 31
0.0
  0
LINE
  5
AC
330
17
100
AcDbEntity
  8
0
 62
251
100
AcDbLine
 10
-41.68325863097868
 20
2.432566162760928
 30
0.0
 11
-41.67896961713768
 21
2.4345661627609374
 31
0.0
  0
LINE
  5
AD
330
17
100
AcDbEntity
  8
0
 62
251
100
AcDbLine
 10
-41.68325863097868
 20
2.432566162760928
 30
0.0
 11
-41.678969617137724
 21
2.4305661627609503
 31
0.0
  0
LINE
  5
AE
330
17
100
AcDbEntity
  8
0
 62
251
100
AcDbLine
 10
-41.66404993019446
 20
2.4300661627610403
 30
0.0
 11
-41.6611631788485
 21
2.4350661627610393
 31
0.0
  0
LINE
  5
AF
330
17
100
AcDbEntity
  8
0
 62
251
100
AcDbLine
 10
-41.66604993019447
 20
2.4300661627610403
 30
0.0
 11
-41.66316317884851
 21
2.4350661627610393
 31
0.0
  0
LINE
  5
B0
330
17
100
AcDbEntity
  8
0
 62
251
100
AcDbLine
 10
-41.66204993019445
 20
2.4300661627610403
 30
0.0
 11
-41.65916317884849
 21
2.4350661627610393
 31
0.0
  0
ARC
  5
B1
330
17
100
AcDbEntity
  8
0
 62
251
100
AcDbCircle
 10
41.67951493848627
 20
2.4325661627611908
 30
0.0
 40
0.0234476876445912
210
0.0
220
0.0
230
-1.0
100
AcDbArc
 50
167.68766983888
 51
179.1621253568056
  0
ARC
  5
B2
330
17
100
AcDbEntity
  8
0
 62
251
100
AcDbCircle
 10
41.67951493848627
 20
2.4325661627611908
 30
0.0
 40
0.0234476876445912
210
0.0
220
0.0
230
-1.0
100
AcDbArc
 50
-179.1621253563204
 51
-167.68766983823994
  0
LINE
  5
B3
330
17
100
AcDbEntity
  8
0
 62
251
100
AcDbLine
 10
-41.65660655452151
 20
2.4329090418154884
 30
0.0
 11
-41.65606725084168
 21
2.4329090418154884
 31
0.0
  0
LINE
  5
B4
330
17
100
AcDbEntity
  8
0
 62
251
100
AcDbLine
 10
-41.65660655452151
 20
2.432223283706648
 30
0.0
 11
-41.65606725084168
 21
2.432223283706648
 31
0.0
  0
LINE
  5
B5
330
17
100
AcDbEntity
  8
0
 62
251
100
AcDbLine
 10
-41.66804993019448
 20
2.4300661627610403
 30
0.0
 11
-41.665163178848516
 21
2.4350661627610393
 31
0.0
  0
LINE
  5
B6
330
17
100
AcDbEntity
  8
0
 62
251
100
AcDbLine
 10
-41.67004993019448
 20
2.4300661627610403
 30
0.0
 11
-41.667163178848526
 21
2.4350661627610393
 31
0.0
  0
LINE
  5
B7
330
17
100
AcDbEntity
  8
0
 62
251
100
AcDbLine
 10
-41.672049930194504
 20
2.4300661627610403
 30
0.0
 11
-41.669163178848535
 21
2.4350661627610393
 31
0.0
  0
LINE
  5
B8
330
17
100
AcDbEntity
  8
0
 62
251
100
AcDbLine
 10
-41.6740499301945
 20
2.4300661627610403
 30
0.0
 11
-41.671163178848545
 21
2.4350661627610393
 31
0.0
  0
LINE
  5
B9
330
17
100
AcDbEntity
  8
0
 62
251
100
AcDbLine
 10
-41.67604993019452
 20
2.4300661627610403
 30
0.0
 11
-41.673163178848554
 21
2.4350661627610393
 31
0.0
  0
LINE
  5
BA
330
17
100
AcDbEntity
  8
0
 62
251
100
AcDbLine
 10
-41.67804993019452
 20
2.4300661627610403
 30
0.0
 11
-41.67516317884857
 21
2.4350661627610393
 31
0.0
  0
LINE
  5
BB
330
17
100
AcDbEntity
  8
0
 62
8
100
AcDbLine
 10
-41.65207451547418
 20
2.453088472924878
 30
0.0
 11
-41.65327451547402
 21
2.453088472924878
 31
0.0
  0
LINE
  5
BC
330
17
100
AcDbEntity
  8
0
 62
8
100
AcDbLine
 10
-41.65857451547402
 20
2.440499999999989
 30
0.0
 11
-41.65897628640109
 21
2.440499999999989
 31
0.0
  0
LINE
  5
BD
330
17
100
AcDbEntity
  8
0
 62
8
100
AcDbLine
 10
-41.65207451547418
 20
2.412043852597218
 30
0.0
 11
-41.65327451547402
 21
2.412043852597218
 31
0.0
  0
LINE
  5
BE
330
17
100
AcDbEntity
  8
0
 62
8
100
AcDbLine
 10
-41.65857451547402
 20
2.424499999999991
 30
0.0
 11
-41.65897628640109
 21
2.424499999999991
 31
0.0
  0
LWPOLYLINE
  5
BF
330
17
100
AcDbEntity
  8
0
 62
8
100
AcDbPolyline
 90
6
 70
0
 10
-40.90160032337559
 20
0.2414032251926983
 10
-41.37181790153198
 20
0.2414032251926983
 10
-41.37181790153198
 20
0.0
 10
-41.47788391870995
 20
0.1060660171779659
 10
-41.37181790153198
 20
0.0
 10
-41.26221635044806
 20
0.1096015510839265
  0
LINE
  5
C0
330
17
100
AcDbEntity
  8
0
 62
8
100
AcDbLine
 10
-39.51461067669196
 20
6.611820983235261
 30
0.0
 11
-38.42188276487804
 21
6.611820983235265
 31
0.0
  0
LWPOLYLINE
  5
C1
330
17
100
AcDbEntity
  8
0
 62
8
100
AcDbPolyline
 90
6
 70
0
 10
-38.24602163922266
 20
6.370417758042567
 10
-38.71623921737905
 20
6.370417758042567
 10
-38.71623921737905
 20
6.611820983235265
 10
-38.82230523455702
 20
6.505754966057299
 10
-38.71623921737905
 20
6.611820983235265
 10
-38.60663766629512
 20
6.502219432151338
  0
LINE
  5
C2
330
17
100
AcDbEntity
  8
0
 62
8
100
AcDbLine
 10
-39.51461067669196
 20
9.011820983235264
 30
0.0
 11
-38.42188276487804
 21
9.011820983235268
 31
0.0
  0
LWPOLYLINE
  5
C3
330
17
100
AcDbEntity
  8
0
 62
8
100
AcDbPolyline
 90
6
 70
0
 10
-38.24602163922266
 20
8.77041775804257
 10
-38.71623921737905
 20
8.77041775804257
 10
-38.71623921737905
 20
9.011820983235268
 10
-38.82230523455702
 20
8.905754966057302
 10
-38.71623921737905
 20
9.011820983235268
 10
-38.60663766629512
 20
8.902219432151341
  0
LWPOLYLINE
  5
C4
330
17
100
AcDbEntity
  8
0
 62
8
100
AcDbPolyline
 90
4
 70
1
 10
-40.91679705930469
 20
9.331340008888937
 10
-40.87982633845106
 20
9.325061808544604
 10
-40.88610453879541
 20
9.288091087690983
 10
-40.92307525964904
 20
9.294369288035316
  0
LWPOLYLINE
  5
C5
330
17
100
AcDbEntity
  8
0
 62
8
100
AcDbPolyline
 90
4
 70
1
 10
-40.84285561759743
 20
9.318783608200272
 10
-40.80588489674379
 20
9.31250540785594
 10
-40.81216309708814
 20
9.27553468700232
 10
-40.84913381794177
 20
9.281812887346653
  0
LINE
  5
C6
330
17
100
AcDbEntity
  8
0
 62
8
100
AcDbLine
 10
-40.80588489674379
 20
9.31250540785594
 30
0.0
 11
-40.82620690288866
 21
9.443820336221503
 31
0.0
  0
ARC
  5
C7
330
17
100
AcDbEntity
  8
0
 62
8
100
AcDbCircle
 10
-40.84103044155273
 20
9.441526278359468
 30
0.0
 40
0.015
100
AcDbArc
 50
8.797179629512163
 51
151.9272819836587
  0
LINE
  5
C8
330
17
100
AcDbEntity
  8
0
 62
8
100
AcDbLine
 10
-40.91679705930469
 20
9.331340008888937
 30
0.0
 11
-40.85426570720122
 21
9.448585155268287
 31
0.0
  0
LINE
  5
C9
330
17
100
AcDbEntity
  8
0
 62
8
100
AcDbLine
 10
-40.84913381794177
 20
9.281812887346653
 30
0.0
 11
-40.88610453879541
 21
9.288091087690983
 31
0.0
  0
CIRCLE
  5
CA
330
17
100
AcDbEntity
  8
0
 62
8
100
AcDbCircle
 10
-40.84479518347732
 20
9.419356673194585
 30
0.0
 40
0.01125
  0
CIRCLE
  5
CB
330
17
100
AcDbEntity
  8
0
 62
8
100
AcDbCircle
 10
-40.85216192757675
 20
9.375975795751655
 30
0.0
 40
0.01125
  0
CIRCLE
  5
CC
330
17
100
AcDbEntity
  8
0
 62
8
100
AcDbCircle
 10
-40.85952825196653
 20
9.33259738987162
 30
0.0
 40
0.01125
  0
CIRCLE
  5
CD
330
17
100
AcDbEntity
  8
0
 62
8
100
AcDbCircle
 10
-40.90145079905005
 20
9.309715548289958
 30
0.0
 40
0.0058768295714788
  0
CIRCLE
  5
CE
330
17
100
AcDbEntity
  8
0
 62
8
100
AcDbCircle
 10
-40.8275093573428
 20
9.297159147601295
 30
0.0
 40
0.0058768295714788
  0
LINE
  5
CF
330
17
100
AcDbEntity
  8
0
 62
4
100
AcDbLine
 10
-36.83927451547404
 20
-0.1499999999999986
 30
0.0
 11
-36.63927451547404
 21
-0.1499999999999986
 31
0.0
  0
LINE
  5
D0
330
17
100
AcDbEntity
  8
0
 62
4
100
AcDbLine
 10
-36.83927451547404
 20
0.0
 30
0.0
 11
-36.83927451547404
 21
-0.1499999999999986
 31
0.0
  0
LINE
  5
D1
330
17
100
AcDbEntity
  8
0
 62
4
100
AcDbLine
 10
-39.18184244792863
 20
1.8e-15
 30
0.0
 11
-39.18184244792863
 21
-0.2000000000000011
 31
0.0
  0
LINE
  5
D2
330
17
100
AcDbEntity
  8
0
 62
4
100
AcDbLine
 10
-39.68184244792863
 20
3.6e-15
 30
0.0
 11
-39.68184244792863
 21
-0.2000000000000011
 31
0.0
  0
LINE
  5
D3
330
17
100
AcDbEntity
  8
0
 62
11
100
AcDbLine
 10
-39.52461067669196
 20
6.646820983235263
 30
0.0
 11
-41.53927451547403
 21
6.646820983235262
 31
0.0
  0
LINE
  5
D4
330
17
100
AcDbEntity
  8
0
 62
8
100
AcDbLine
 10
-34.95253872907059
 20
1.272412938982949
 30
0.0
 11
-35.00833677049853
 21
1.687737268238311
 31
0.0
  0
LINE
  5
D5
330
17
100
AcDbEntity
  8
0
 62
8
100
AcDbLine
 10
-34.93182087871303
 20
0.9625169990388648
 30
0.0
 11
-34.91841036589382
 21
0.7225769776883233
 31
0.0
  0
LINE
  5
D6
330
17
100
AcDbEntity
  8
0
 62
8
100
AcDbLine
 10
-34.90482181481905
 20
0.4854164842480877
 30
0.0
 11
-34.90482181481905
 21
0.4133549582033603
 31
0.0
  0
LINE
  5
D7
330
17
100
AcDbEntity
  8
0
 62
8
100
AcDbLine
 10
-34.90482181481905
 20
0.4133549582033603
 30
0.0
 11
-34.9630655526177
 21
0.3506339542199548
 31
0.0
  0
LINE
  5
D8
330
17
100
AcDbEntity
  8
0
 62
8
100
AcDbLine
 10
-34.99908256855112
 20
0.4854164842480877
 30
0.0
 11
-34.83245716152952
 21
0.7322270121510819
 31
0.0
  0
LINE
  5
D9
330
17
100
AcDbEntity
  8
0
 62
8
100
AcDbLine
 10
-34.9919820676172
 20
1.041845557653335
 30
0.0
 11
-34.96724944782672
 21
0.9625169990388648
 31
0.0
  0
LINE
  5
DA
330
17
100
AcDbEntity
  8
0
 62
8
100
AcDbLine
 10
-34.96724944782672
 20
0.9625169990388648
 30
0.0
 11
-34.93182087871303
 21
0.9625169990388648
 31
0.0
  0
LINE
  5
DB
330
17
100
AcDbEntity
  8
0
 62
8
100
AcDbLine
 10
-34.9134731341464
 20
1.082862131583599
 30
0.0
 11
-34.99271008162982
 21
1.137069577884719
 31
0.0
  0
LINE
  5
DC
330
17
100
AcDbEntity
  8
0
 62
8
100
AcDbLine
 10
-34.78858174076485
 20
1.389257318857961
 30
0.0
 11
-34.69745749574115
 21
1.396879316818367
 31
0.0
  0
LINE
  5
DD
330
17
100
AcDbEntity
  8
0
 62
8
100
AcDbLine
 10
-34.70154848229562
 20
1.199049243814226
 30
0.0
 11
-34.79799168447512
 21
1.20283562954874
 31
0.0
  0
LINE
  5
DE
330
17
100
AcDbEntity
  8
0
 62
8
100
AcDbLine
 10
-34.81677061623454
 20
1.223779042363492
 30
0.0
 11
-34.80649607827438
 21
1.371093732700547
 31
0.0
  0
ARC
  5
DF
330
17
100
AcDbEntity
  8
0
 62
8
100
AcDbCircle
 10
-34.9816697105719
 20
1.268499246482537
 30
0.0
 40
0.029392704404644
100
AcDbArc
 50
270.0
 51
7.65176296164499
  0
LINE
  5
E0
330
17
100
AcDbEntity
  8
0
 62
8
100
AcDbLine
 10
-34.87764766140718
 20
1.190930672318547
 30
0.0
 11
-34.81485920493547
 21
1.251184553415871
 31
0.0
  0
LINE
  5
E1
330
17
100
AcDbEntity
  8
0
 62
8
100
AcDbLine
 10
-34.81532053581599
 20
1.223681091804376
 30
0.0
 11
-34.87070531360747
 21
1.175592150943916
 31
0.0
  0
ARC
  5
E2
330
17
100
AcDbEntity
  8
0
 62
8
100
AcDbCircle
 10
-34.79722296643111
 20
1.222415681591552
 30
0.0
 40
0.0195951362697627
100
AcDbArc
 50
176.0103375155861
 51
267.7517071524016
  0
ARC
  5
E3
330
17
100
AcDbEntity
  8
0
 62
8
100
AcDbCircle
 10
-34.78694842847098
 20
1.369730371928621
 30
0.0
 40
0.0195951362697627
100
AcDbArc
 50
94.78131937173065
 51
176.0103375155861
  0
LINE
  5
E4
330
17
100
AcDbEntity
  8
0
 62
8
100
AcDbLine
 10
-34.66729824884725
 20
1.34141869865326
 30
0.0
 11
-34.68119417153109
 21
1.218017803243757
 31
0.0
  0
ARC
  5
E5
330
17
100
AcDbEntity
  8
0
 62
8
100
AcDbCircle
 10
-34.70077976425164
 20
1.218629295857052
 30
0.0
 40
0.0195951362697627
100
AcDbArc
 50
267.7517071524016
 51
358.211717719112
  0
ARC
  5
E6
330
17
100
AcDbEntity
  8
0
 62
8
100
AcDbCircle
 10
-34.74625510251467
 20
1.334412843213055
 30
0.0
 40
0.0792670596875579
100
AcDbArc
 50
5.070585383238775
 51
52.00373149110718
  0
LINE
  5
E7
330
17
100
AcDbEntity
  8
0
 62
8
100
AcDbLine
 10
-35.73503650494037
 20
0.9906821062552886
 30
0.0
 11
-35.07921609503542
 21
0.9906821062552886
 31
0.0
  0
LINE
  5
E8
330
17
100
AcDbEntity
  8
0
 62
8
100
AcDbLine
 10
-35.04374561075439
 20
0.5474615599367461
 30
0.0
 11
-35.72162599212119
 21
0.5474615599367461
 31
0.0
  0
LWPOLYLINE
  5
E9
330
17
100
AcDbEntity
  8
0
 62
8
100
AcDbPolyline
 90
3
 70
0
 10
-35.26408230511281
 20
0.9624280892948782
 10
-35.25067179229357
 20
0.5918171672421018
 10
-35.72162599212122
 20
0.5918171672421018
  0
LWPOLYLINE
  5
EA
330
17
100
AcDbEntity
  8
0
 62
8
100
AcDbPolyline
 90
2
 70
0
 10
-36.19258019194884
 20
0.7768972605991884
 10
-35.25067179229357
 20
0.7768972605991884
  0
LWPOLYLINE
  5
EB
330
17
100
AcDbEntity
  8
0
 62
8
100
AcDbPolyline
 90
2
 70
0
 10
-36.19258019194884
 20
0.7407084953209271
 10
-35.25067179229357
 20
0.7407084953209271
  0
LINE
  5
EC
330
17
100
AcDbEntity
  8
0
 62
8
100
AcDbLine
 10
-35.25109826888372
 20
1.002753121538933
 30
0.0
 11
-35.73503650494037
 21
1.002753121538933
 31
0.0
  0
LWPOLYLINE
  5
ED
330
17
100
AcDbEntity
  8
0
 62
8
100
AcDbPolyline
 90
2
 70
0
 10
-35.24643376116298
 20
0.3373424830929999
 10
-35.27470384614942
 20
0.1571202896037853
  0
ARC
  5
EE
330
17
100
AcDbEntity
  8
0
 62
8
100
AcDbCircle
 10
-35.26623024850427
 20
1.165317884346411
 30
0.0
 40
0.0084315141309025
100
AcDbArc
 50
241.9248922736943
 51
53.98960382862277
  0
LINE
  5
EF
330
17
100
AcDbEntity
  8
0
 62
8
100
AcDbLine
 10
-35.25752262275533
 20
1.051367469875092
 30
0.0
 11
-35.46818979782013
 21
1.051367469875092
 31
0.0
  0
ARC
  5
F0
330
17
100
AcDbEntity
  8
0
 62
8
100
AcDbCircle
 10
-35.20421252080693
 20
1.21697808153802
 30
0.0
 40
0.1453980058523457
100
AcDbArc
 50
8.753996428115759
 51
166.3233745294182
  0
ARC
  5
F1
330
17
100
AcDbEntity
  8
0
 62
8
100
AcDbCircle
 10
-35.73056633400067
 20
-3.703457955693817
 30
0.0
 40
5.461076416042941
100
AcDbArc
 50
82.66890518139735
 51
97.33109481860266
  0
LINE
  5
F2
330
17
100
AcDbEntity
  8
0
 62
8
100
AcDbLine
 10
-35.26408230511278
 20
0.9624280892948782
 30
0.0
 11
-35.73503650494037
 21
0.9624280892948782
 31
0.0
  0
LINE
  5
F3
330
17
100
AcDbEntity
  8
0
 62
8
100
AcDbLine
 10
-35.26902228434712
 20
1.151840021540376
 30
0.0
 11
-35.48764210719192
 21
1.100838065464703
 31
0.0
  0
LINE
  5
F4
330
17
100
AcDbEntity
  8
0
 62
8
100
AcDbLine
 10
-35.95957210950281
 20
1.239106542077887
 30
0.0
 11
-35.35945726559281
 21
1.239106542077887
 31
0.0
  0
LINE
  5
F5
330
17
100
AcDbEntity
  8
0
 62
8
100
AcDbLine
 10
-35.74938615751408
 20
1.247335513805591
 30
0.0
 11
-35.36849981963299
 21
1.247335513805591
 31
0.0
  0
LINE
  5
F6
330
17
100
AcDbEntity
  8
0
 62
8
100
AcDbLine
 10
-35.36940412209235
 20
1.273853469820938
 30
0.0
 11
-35.74938615751408
 21
1.273853469820938
 31
0.0
  0
LWPOLYLINE
  5
F7
330
17
100
AcDbEntity
  8
0
 62
8
100
AcDbPolyline
 90
2
 70
0
 10
-35.91424117491626
 20
1.196465247035025
 10
-35.31260010925216
 20
1.196465247035025
  0
LINE
  5
F8
330
17
100
AcDbEntity
  8
0
 62
8
100
AcDbLine
 10
-35.36849981963299
 20
1.247335513805591
 30
0.0
 11
-35.27019836015246
 21
1.157878494553717
 31
0.0
  0
LINE
  5
F9
330
17
100
AcDbEntity
  8
0
 62
8
100
AcDbLine
 10
-35.46818979782013
 20
1.051367469875092
 30
0.0
 11
-35.26902228434712
 21
1.151840021540376
 31
0.0
  0
LINE
  5
FA
330
17
100
AcDbEntity
  8
0
 62
8
100
AcDbLine
 10
-35.26127309122917
 20
1.172138223215501
 30
0.0
 11
-35.36940412209235
 21
1.273853469820938
 31
0.0
  0
LINE
  5
FB
330
17
100
AcDbEntity
  8
0
 62
8
100
AcDbLine
 10
-36.50859393893073
 20
1.272412938982949
 30
0.0
 11
-36.45279589750278
 21
1.687737268238311
 31
0.0
  0
LINE
  5
FC
330
17
100
AcDbEntity
  8
0
 62
8
100
AcDbLine
 10
-36.47946295742942
 20
1.239106542077887
 30
0.0
 11
-35.98656387569334
 21
1.239106542077887
 31
0.0
  0
LINE
  5
FD
330
17
100
AcDbEntity
  8
0
 62
8
100
AcDbLine
 10
-36.39085691484537
 20
0.9906821062552886
 30
0.0
 11
-36.42039530268595
 21
1.055120960754276
 31
0.0
  0
LINE
  5
FE
330
17
100
AcDbEntity
  8
0
 62
8
100
AcDbLine
 10
-36.52484161834859
 20
0.7225769776883233
 30
0.0
 11
-36.39950637348802
 21
0.5474615599367461
 31
0.0
  0
CIRCLE
  5
FF
330
17
100
AcDbEntity
  8
0
 62
8
100
AcDbCircle
 10
-36.33968689793729
 20
0.7794142276090277
 30
0.0
 40
0.0789279291655981
  0
LINE
  5
100
330
17
100
AcDbEntity
  8
0
 62
8
100
AcDbLine
 10
-36.48018643162469
 20
0.3506339542199548
 30
0.0
 11
-35.99811565725928
 21
0.3506339542199548
 31
0.0
  0
LINE
  5
101
330
17
100
AcDbEntity
  8
0
 62
8
100
AcDbLine
 10
-35.99811565725928
 20
0.4854164842480877
 30
0.0
 11
-36.53843016942334
 21
0.4854164842480877
 31
0.0
  0
LINE
  5
102
330
17
100
AcDbEntity
  8
0
 62
8
100
AcDbLine
 10
-36.57804941802375
 20
1.087951508593544
 30
0.0
 11
-36.21897474099704
 21
1.002753121538933
 31
0.0
  0
LINE
  5
103
330
17
100
AcDbEntity
  8
0
 62
8
100
AcDbLine
 10
-36.46842258637152
 20
1.137069577884719
 30
0.0
 11
-36.21255038712546
 21
1.051367469875092
 31
0.0
  0
LINE
  5
104
330
17
100
AcDbEntity
  8
0
 62
8
100
AcDbLine
 10
-36.53843016942334
 20
0.4133549582033603
 30
0.0
 11
-35.99811565725928
 21
0.4133549582033603
 31
0.0
  0
LWPOLYLINE
  5
105
330
17
100
AcDbEntity
  8
0
 62
8
100
AcDbPolyline
 90
2
 70
0
 10
-36.58034871637064
 20
1.196465247035025
 10
-35.93970671935271
 20
1.196465247035025
  0
LINE
  5
106
330
17
100
AcDbEntity
  8
0
 62
8
100
AcDbLine
 10
-36.53825213116777
 20
0.9625169990388648
 30
0.0
 11
-36.52484161834859
 21
0.7225769776883233
 31
0.0
  0
LINE
  5
107
330
17
100
AcDbEntity
  8
0
 62
8
100
AcDbLine
 10
-36.53843016942334
 20
0.4854164842480877
 30
0.0
 11
-36.53843016942334
 21
0.4133549582033603
 31
0.0
  0
LINE
  5
108
330
17
100
AcDbEntity
  8
0
 62
8
100
AcDbLine
 10
-36.53843016942334
 20
0.4133549582033603
 30
0.0
 11
-36.48018643162469
 21
0.3506339542199548
 31
0.0
  0
LINE
  5
109
330
17
100
AcDbEntity
  8
0
 62
8
100
AcDbLine
 10
-36.44416941569126
 20
0.4854164842480877
 30
0.0
 11
-36.61079482271286
 21
0.7322270121510819
 31
0.0
  0
LINE
  5
10A
330
17
100
AcDbEntity
  8
0
 62
8
100
AcDbLine
 10
-36.47809094226357
 20
1.041845557653335
 30
0.0
 11
-36.50282356205405
 21
0.9625169990388648
 31
0.0
  0
LINE
  5
10B
330
17
100
AcDbEntity
  8
0
 62
8
100
AcDbLine
 10
-36.50282356205405
 20
0.9625169990388648
 30
0.0
 11
-36.53825213116777
 21
0.9625169990388648
 31
0.0
  0
LINE
  5
10C
330
17
100
AcDbEntity
  8
0
 62
8
100
AcDbLine
 10
-36.55659987573436
 20
1.082862131583599
 30
0.0
 11
-36.46842258637152
 21
1.137069577884719
 31
0.0
  0
LINE
  5
10D
330
17
100
AcDbEntity
  8
0
 62
8
100
AcDbLine
 10
-36.42039530268595
 20
1.055120960754276
 30
0.0
 11
-36.47809094226357
 21
1.041845557653335
 31
0.0
  0
LINE
  5
10E
330
17
100
AcDbEntity
  8
0
 62
8
100
AcDbLine
 10
-36.64581213218533
 20
1.223681091804376
 30
0.0
 11
-36.59042735439387
 21
1.175592150943916
 31
0.0
  0
ARC
  5
10F
330
17
100
AcDbEntity
  8
0
 62
8
100
AcDbCircle
 10
-36.47946295742942
 20
1.268499246482537
 30
0.0
 40
0.029392704404644
100
AcDbArc
 50
172.3482370383549
 51
270.0
  0
ARC
  5
110
330
17
100
AcDbEntity
  8
0
 62
8
100
AcDbCircle
 10
-35.9053649823296
 20
0.2647507962979922
 30
0.0
 40
0.1490937965423942
100
AcDbArc
 50
222.6533327037174
 51
313.7885978243712
  0
LINE
  5
111
330
17
100
AcDbEntity
  8
0
 62
8
100
AcDbLine
 10
-35.99811565725928
 20
0.4854164842480877
 30
0.0
 11
-35.44513632698313
 21
0.4854164842480877
 31
0.0
  0
LINE
  5
112
330
17
100
AcDbEntity
  8
0
 62
8
100
AcDbLine
 10
-35.99811565725928
 20
0.3506339542199548
 30
0.0
 11
-35.44513632698313
 21
0.3506339542199548
 31
0.0
  0
LINE
  5
113
330
17
100
AcDbEntity
  8
0
 62
8
100
AcDbLine
 10
-36.00188321206066
 20
1.051367469875092
 30
0.0
 11
-35.46818979782013
 21
1.051367469875092
 31
0.0
  0
LWPOLYLINE
  5
114
330
17
100
AcDbEntity
  8
0
 62
8
100
AcDbPolyline
 90
3
 70
0
 10
-36.20599070476802
 20
0.9624280892948782
 10
-36.19258019194884
 20
0.5918171672421018
 10
-35.72162599212122
 20
0.5918171672421018
  0
CIRCLE
  5
115
330
17
100
AcDbEntity
  8
0
 62
8
100
AcDbCircle
 10
-35.71880444675141
 20
0.7536296877148594
 30
0.0
 40
0.1017170319416661
  0
LINE
  5
116
330
17
100
AcDbEntity
  8
0
 62
8
100
AcDbLine
 10
-36.39950637348802
 20
0.5474615599367461
 30
0.0
 11
-35.72162599212119
 21
0.5474615599367461
 31
0.0
  0
LINE
  5
117
330
17
100
AcDbEntity
  8
0
 62
8
100
AcDbLine
 10
-35.99811565725928
 20
0.3506339542199548
 30
0.0
 11
-35.99811565725928
 21
0.4854164842480877
 31
0.0
  0
LWPOLYLINE
  5
118
330
17
100
AcDbEntity
  8
0
 62
8
100
AcDbPolyline
 90
2
 70
0
 10
-36.34914775166014
 20
0.1349142776387531
 10
-36.34914775166014
 20
0.3439528689992208
  0
LWPOLYLINE
  5
119
330
17
100
AcDbEntity
  8
0
 62
8
100
AcDbPolyline
 90
2
 70
0
 10
-36.17011923397088
 20
0.3439528689992208
 10
-36.14184914898447
 20
0.1637306755100063
  0
LINE
  5
11A
330
17
100
AcDbEntity
  8
0
 62
8
100
AcDbLine
 10
-36.02612436902236
 20
0.3439528689992208
 30
0.0
 11
-36.02630154412923
 21
0.1636171530215513
 31
0.0
  0
LINE
  5
11B
330
17
100
AcDbEntity
  8
0
 62
8
100
AcDbLine
 10
-35.99274573907151
 20
0.3439200753715248
 30
0.0
 11
-35.99292291417835
 21
0.1635843593938553
 31
0.0
  0
LINE
  5
11C
330
17
100
AcDbEntity
  8
0
 62
8
100
AcDbLine
 10
-36.14184914898443
 20
0.1637306755100063
 30
0.0
 11
-36.01501850650191
 21
0.1637306755100063
 31
0.0
  0
LINE
  5
11D
330
17
100
AcDbEntity
  8
0
 62
8
100
AcDbLine
 10
-35.91674931587774
 20
0.3439528689992208
 30
0.0
 11
-35.91692659655926
 21
0.1635096950068195
 31
0.0
  0
LINE
  5
11E
330
17
100
AcDbEntity
  8
0
 62
8
100
AcDbLine
 10
-35.88337068592686
 20
0.3439200753715248
 30
0.0
 11
-35.88354796660839
 21
0.1634769013791306
 31
0.0
  0
LINE
  5
11F
330
17
100
AcDbEntity
  8
0
 62
8
100
AcDbLine
 10
-35.8032015749083
 20
0.3439528689992208
 30
0.0
 11
-35.80337896519221
 21
0.1633981374398026
 31
0.0
  0
LINE
  5
120
330
17
100
AcDbEntity
  8
0
 62
8
100
AcDbLine
 10
-35.7698229449574
 20
0.3439200753715248
 30
0.0
 11
-35.77000033524134
 21
0.1633653438121136
 31
0.0
  0
LINE
  5
121
330
17
100
AcDbEntity
  8
0
 62
8
100
AcDbLine
 10
-35.67342903928498
 20
0.3439200753715248
 30
0.0
 11
-35.67325164900104
 21
0.1633653438121136
 31
0.0
  0
LINE
  5
122
330
17
100
AcDbEntity
  8
0
 62
8
100
AcDbLine
 10
-35.64005040933411
 20
0.3439528689992208
 30
0.0
 11
-35.6398730190502
 21
0.1633981374398026
 31
0.0
  0
LINE
  5
123
330
17
100
AcDbEntity
  8
0
 62
8
100
AcDbLine
 10
-35.55988129831552
 20
0.3439200753715248
 30
0.0
 11
-35.55970401763399
 21
0.1634769013791306
 31
0.0
  0
LINE
  5
124
330
17
100
AcDbEntity
  8
0
 62
8
100
AcDbLine
 10
-35.52650266836467
 20
0.3439528689992208
 30
0.0
 11
-35.52632538768312
 21
0.1635096950068195
 31
0.0
  0
LINE
  5
125
330
17
100
AcDbEntity
  8
0
 62
8
100
AcDbLine
 10
-35.73503650494037
 20
0.9906821062552886
 30
0.0
 11
-36.39085691484537
 21
0.9906821062552886
 31
0.0
  0
LINE
  5
126
330
17
100
AcDbEntity
  8
0
 62
8
100
AcDbLine
 10
-36.20599070476802
 20
0.9624280892948782
 30
0.0
 11
-35.73503650494037
 21
0.9624280892948782
 31
0.0
  0
LINE
  5
127
330
17
100
AcDbEntity
  8
0
 62
8
100
AcDbLine
 10
-36.21897474099704
 20
1.002753121538933
 30
0.0
 11
-35.73503650494037
 21
1.002753121538933
 31
0.0
  0
LINE
  5
128
330
17
100
AcDbEntity
  8
0
 62
8
100
AcDbLine
 10
-35.98243090268888
 20
1.100838065464703
 30
0.0
 11
-35.73503650494037
 21
1.100838065464703
 31
0.0
  0
LINE
  5
129
330
17
100
AcDbEntity
  8
0
 62
8
100
AcDbLine
 10
-35.8883797013297
 20
1.172138223215501
 30
0.0
 11
-35.99651073219285
 21
1.273853469820938
 31
0.0
  0
LINE
  5
12A
330
17
100
AcDbEntity
  8
0
 62
8
100
AcDbLine
 10
-35.99560642973354
 20
1.247335513805591
 30
0.0
 11
-35.89730497025296
 21
1.157878494553717
 31
0.0
  0
LINE
  5
12B
330
17
100
AcDbEntity
  8
0
 62
8
100
AcDbLine
 10
-36.21255038712546
 20
1.051367469875092
 30
0.0
 11
-36.00188321206066
 21
1.051367469875092
 31
0.0
  0
LINE
  5
12C
330
17
100
AcDbEntity
  8
0
 62
8
100
AcDbLine
 10
-36.00188321206066
 20
1.051367469875092
 30
0.0
 11
-36.1921103836542
 21
1.151840021540376
 31
0.0
  0
LINE
  5
12D
330
17
100
AcDbEntity
  8
0
 62
8
100
AcDbLine
 10
-36.1921103836542
 20
1.151840021540376
 30
0.0
 11
-35.98243090268888
 21
1.100838065464703
 31
0.0
  0
LINE
  5
12E
330
17
100
AcDbEntity
  8
0
 62
8
100
AcDbLine
 10
-35.99651073219285
 20
1.273853469820938
 30
0.0
 11
-36.37649276761461
 21
1.273853469820938
 31
0.0
  0
LINE
  5
12F
330
17
100
AcDbEntity
  8
0
 62
8
100
AcDbLine
 10
-36.37649276761461
 20
1.247335513805591
 30
0.0
 11
-35.99560642973354
 21
1.247335513805591
 31
0.0
  0
LINE
  5
130
330
17
100
AcDbEntity
  8
0
 62
8
100
AcDbLine
 10
-36.37649276761461
 20
1.273853469820938
 30
0.0
 11
-36.37649276761461
 21
1.247335513805591
 31
0.0
  0
ARC
  5
131
330
17
100
AcDbEntity
  8
0
 62
8
100
AcDbCircle
 10
-35.89333685860483
 20
1.165317884346411
 30
0.0
 40
0.0084315141309025
100
AcDbArc
 50
241.9248922736943
 51
53.98960382862277
  0
LINE
  5
132
330
17
100
AcDbEntity
  8
0
 62
8
100
AcDbLine
 10
-35.48764210719192
 20
1.100838065464703
 30
0.0
 11
-35.73503650494037
 21
1.100838065464703
 31
0.0
  0
LINE
  5
133
330
17
100
AcDbEntity
  8
0
 62
8
100
AcDbLine
 10
-35.74938615751408
 20
1.273853469820938
 30
0.0
 11
-35.74938615751408
 21
1.247335513805591
 31
0.0
  0
LINE
  5
134
330
17
100
AcDbEntity
  8
0
 62
8
100
AcDbLine
 10
-35.44513632698313
 20
0.3506339542199548
 30
0.0
 11
-35.44513632698313
 21
0.4854164842480877
 31
0.0
  0
LINE
  5
135
330
17
100
AcDbEntity
  8
0
 62
8
100
AcDbLine
 10
-35.45050624517087
 20
0.3439200753715248
 30
0.0
 11
-35.45032907006403
 21
0.1635843593938553
 31
0.0
  0
LINE
  5
136
330
17
100
AcDbEntity
  8
0
 62
8
100
AcDbLine
 10
-35.41712761522003
 20
0.3439528689992208
 30
0.0
 11
-35.41695044011316
 21
0.1636171530215513
 31
0.0
  0
ARC
  5
137
330
17
100
AcDbEntity
  8
0
 62
8
100
AcDbCircle
 10
-36.42366491600145
 20
1.6838235757379
 30
0.0
 40
0.029392704404644
100
AcDbArc
 50
97.33109481860431
 51
172.3482370383549
  0
LINE
  5
138
330
17
100
AcDbEntity
  8
0
 62
8
100
AcDbLine
 10
-35.66162164793734
 20
1.61453204238651
 30
0.0
 11
-35.73056633400067
 21
1.61453204238651
 31
0.0
  0
LWPOLYLINE
  5
139
330
17
100
AcDbEntity
  8
0
 62
8
100
AcDbPolyline
 90
2
 70
0
 10
-35.72295182315377
 20
1.709318039988449
 42
-0.2162144732051016
 10
-35.61032608165867
 20
1.651318538232853
 42
-1.192684128186331
  0
LWPOLYLINE
  5
13A
330
17
100
AcDbEntity
  8
0
 62
8
100
AcDbPolyline
 90
2
 70
0
 10
-35.85080658634267
 20
1.651318538232853
 42
-0.2162144732051016
 10
-35.73818084484758
 20
1.709318039988449
 42
-1.192684128186331
  0
ARC
  5
13B
330
17
100
AcDbEntity
  8
0
 62
8
100
AcDbCircle
 10
-35.80960281160872
 20
1.654616766475395
 30
0.0
 40
0.0413355701770926
100
AcDbArc
 50
184.5765827763556
 51
284.1311954105746
  0
LINE
  5
13C
330
17
100
AcDbEntity
  8
0
 62
8
100
AcDbLine
 10
-35.79951102006397
 20
1.61453204238651
 30
0.0
 11
-35.73056633400067
 21
1.61453204238651
 31
0.0
  0
LINE
  5
13D
330
17
100
AcDbEntity
  8
0
 62
8
100
AcDbLine
 10
-35.73818084484758
 20
1.709318039988449
 30
0.0
 11
-35.73824878464935
 21
1.757613056645464
 31
0.0
  0
LINE
  5
13E
330
17
100
AcDbEntity
  8
0
 62
8
100
AcDbLine
 10
-35.72295182315374
 20
1.709318039988449
 30
0.0
 11
-35.72288388335197
 21
1.757613056645464
 31
0.0
  0
ARC
  5
13F
330
17
100
AcDbEntity
  8
0
 62
8
100
AcDbCircle
 10
-35.6515298563926
 20
1.654616766475395
 30
0.0
 40
0.0413355701770926
100
AcDbArc
 50
255.8688045894255
 51
355.4234172236443
  0
LINE
  5
140
330
17
100
AcDbEntity
  8
0
 62
8
100
AcDbLine
 10
-36.78489407727459
 20
1.376740877275732
 30
0.0
 11
-36.77993849647022
 21
1.218017803243757
 31
0.0
  0
ARC
  5
141
330
17
100
AcDbEntity
  8
0
 62
8
100
AcDbCircle
 10
-36.76035290374968
 20
1.218629295857052
 30
0.0
 40
0.0195951362697627
100
AcDbArc
 50
181.788282280888
 51
272.2482928475983
  0
LINE
  5
142
330
17
100
AcDbEntity
  8
0
 62
8
100
AcDbLine
 10
-36.75958418570569
 20
1.199049243814226
 30
0.0
 11
-36.66314098352619
 21
1.20283562954874
 31
0.0
  0
LINE
  5
143
330
17
100
AcDbEntity
  8
0
 62
8
100
AcDbLine
 10
-36.67255092723646
 20
1.389257318857961
 30
0.0
 11
-36.76367517226017
 21
1.396879316818367
 31
0.0
  0
ARC
  5
144
330
17
100
AcDbEntity
  8
0
 62
8
100
AcDbCircle
 10
-36.7653084845541
 20
1.377352369889027
 30
0.0
 40
0.0195951362697627
100
AcDbArc
 50
85.21868062826935
 51
181.788282280888
  0
ARC
  5
145
330
17
100
AcDbEntity
  8
0
 62
8
100
AcDbCircle
 10
-36.67418423953034
 20
1.369730371928621
 30
0.0
 40
0.0195951362697627
100
AcDbArc
 50
3.989662484413862
 51
85.21868062826935
  0
ARC
  5
146
330
17
100
AcDbEntity
  8
0
 62
8
100
AcDbCircle
 10
-36.66390970157021
 20
1.222415681591552
 30
0.0
 40
0.0195951362697627
100
AcDbArc
 50
272.2482928475983
 51
3.989662484413862
  0
LINE
  5
147
330
17
100
AcDbEntity
  8
0
 62
8
100
AcDbLine
 10
-36.64436205176678
 20
1.223779042363492
 30
0.0
 11
-36.65463658972694
 21
1.371093732700547
 31
0.0
  0
LINE
  5
148
330
17
100
AcDbEntity
  8
0
 62
8
100
AcDbLine
 10
-36.58348500659413
 20
1.190930672318547
 30
0.0
 11
-36.64627346306584
 21
1.251184553415871
 31
0.0
  0
CIRCLE
  5
149
330
17
100
AcDbEntity
  8
0
 62
8
100
AcDbCircle
 10
-35.10356508630513
 20
0.7794142276090277
 30
0.0
 40
0.0789279291655981
  0
LWPOLYLINE
  5
14A
330
17
100
AcDbEntity
  8
0
 62
8
100
AcDbPolyline
 90
2
 70
0
 10
-35.09143801146404
 20
0.3439528689992208
 10
-35.09143801146404
 20
0.1349142776387531
 42
0.4142135623730951
  0
LINE
  5
14B
330
17
100
AcDbEntity
  8
0
 62
8
100
AcDbLine
 10
-35.07921609503542
 20
0.9906821062552886
 30
0.0
 11
-35.04967770719482
 21
1.055120960754276
 31
0.0
  0
LWPOLYLINE
  5
14C
330
17
100
AcDbEntity
  8
0
 62
8
100
AcDbPolyline
 90
35
 70
0
 10
-35.80219214580676
 20
0.1571202896037853
 10
-35.27470384614942
 20
0.1571202896037853
 10
-35.25979373673256
 20
0.1957985277140146
 10
-35.11005942535677
 20
0.1957985277140146
 10
-35.09143801146404
 20
0.1349142776387531
 10
-35.09143801146404
 20
-0.1241926398794213
 42
0.4142135623730951
 10
-35.07184287519429
 20
-0.1437877761491784
 10
-34.88656925139038
 20
-0.1437877761491784
 42
0.4142135623730951
 10
-34.86697411512064
 20
-0.1241926398794213
 10
-34.86697411512064
 20
0.3439528689992208
 10
-34.82425316166281
 20
0.6118786333337916
 10
-34.85623367069142
 20
1.077260201144486
 10
-34.88935737073884
 20
1.087951508593544
 10
-34.85321390690077
 20
1.13694638968521
 10
-34.87764766140721
 20
1.190930672318547
 10
-34.92420030347087
 20
1.739039605373218
 42
0.2482733428913499
 10
-35.13248798241516
 20
1.881537287363538
 42
0.0173167026927587
 10
-35.73056633400067
 20
1.905951046104238
 42
0.0188587118480701
 10
-36.32597846446795
 20
1.881537287363538
 42
0.2482733428913499
 10
-36.53426614341221
 20
1.739039605373218
 10
-36.5808187854759
 20
1.190930672318547
 10
-36.60525253998232
 20
1.13694638968521
 10
-36.57804941802375
 20
1.087951508593544
 10
-36.61117311807114
 20
1.077260201144486
 10
-36.61633260146139
 20
0.6118786333337916
 10
-36.57361164800356
 20
0.3439528689992208
 10
-36.57361164800356
 20
-0.1241926398794213
 42
0.4142135623730951
 10
-36.5540165117338
 20
-0.1437877761491784
 10
-36.36874288792991
 20
-0.1437877761491784
 42
0.4142135623730951
 10
-36.34914775166014
 20
-0.1241926398794213
 10
-36.34914775166014
 20
0.1349142776387531
 10
-36.29457038033287
 20
0.2046077337147985
 10
-36.15760688357246
 20
0.2046077337147985
 10
-36.14184914898447
 20
0.1637306755100063
 10
-35.2724848608619
 20
0.1628765479190868
  0
LINE
  5
14D
330
17
100
AcDbEntity
  8
0
 62
8
100
AcDbLine
 10
-36.57361164800354
 20
0.3439528689992208
 30
0.0
 11
-34.86697411512064
 21
0.3439528689992208
 31
0.0
  0
LINE
  5
14E
330
17
100
AcDbEntity
  8
0
 62
8
100
AcDbLine
 10
-35.44513632698313
 20
0.4854164842480877
 30
0.0
 11
-34.90482181481905
 21
0.4854164842480877
 31
0.0
  0
LINE
  5
14F
330
17
100
AcDbEntity
  8
0
 62
8
100
AcDbLine
 10
-34.9630655526177
 20
0.3506339542199548
 30
0.0
 11
-35.44513632698313
 21
0.3506339542199548
 31
0.0
  0
LINE
  5
150
330
17
100
AcDbEntity
  8
0
 62
8
100
AcDbLine
 10
-34.90482181481905
 20
0.4133549582033603
 30
0.0
 11
-35.44513632698313
 21
0.4133549582033603
 31
0.0
  0
LINE
  5
151
330
17
100
AcDbEntity
  8
0
 62
8
100
AcDbLine
 10
-35.33246549940229
 20
1.239106542077887
 30
0.0
 11
-34.9816697105719
 21
1.239106542077887
 31
0.0
  0
LWPOLYLINE
  5
152
330
17
100
AcDbEntity
  8
0
 62
8
100
AcDbPolyline
 90
2
 70
0
 10
-35.28713456481576
 20
1.196465247035025
 10
-34.87811773051247
 20
1.196465247035025
  0
LINE
  5
153
330
17
100
AcDbEntity
  8
0
 62
8
100
AcDbLine
 10
-34.91841036589382
 20
0.7225769776883233
 30
0.0
 11
-35.04374561075439
 21
0.5474615599367461
 31
0.0
  0
LINE
  5
154
330
17
100
AcDbEntity
  8
0
 62
8
100
AcDbLine
 10
-35.04967770719482
 20
1.055120960754276
 30
0.0
 11
-34.9919820676172
 21
1.041845557653335
 31
0.0
  0
LINE
  5
155
330
17
100
AcDbEntity
  8
0
 62
8
100
AcDbLine
 10
-34.99271008162982
 20
1.137069577884719
 30
0.0
 11
-35.25752262275533
 21
1.051367469875092
 31
0.0
  0
LINE
  5
156
330
17
100
AcDbEntity
  8
0
 62
8
100
AcDbLine
 10
-34.89202359185701
 20
1.087951508593544
 30
0.0
 11
-35.25109826888372
 21
1.002753121538933
 31
0.0
  0
ARC
  5
157
330
17
100
AcDbEntity
  8
0
 62
8
100
AcDbCircle
 10
-35.03746775199987
 20
1.6838235757379
 30
0.0
 40
0.029392704404644
100
AcDbArc
 50
7.65176296164499
 51
82.6689051813957
  0
LINE
  5
158
330
17
100
AcDbEntity
  8
0
 62
4
100
AcDbLine
 10
-36.63927451547404
 20
-0.1499999999999986
 30
0.0
 11
-33.96834708899671
 21
-0.1033787883522805
 31
0.0
  0
LINE
  5
159
330
17
100
AcDbEntity
  8
0
 62
4
100
AcDbLine
 10
-39.20684244792865
 20
5.3e-15
 30
0.0
 11
-39.65684244792861
 21
1.8e-15
 31
0.0
  0
LINE
  5
15A
330
17
100
AcDbEntity
  8
0
 62
11
100
AcDbLine
 10
-39.52461067669196
 20
6.636820983235264
 30
0.0
 11
-41.53927451547403
 21
6.636820983235264
 31
0.0
  0
LWPOLYLINE
  5
15B
330
17
100
AcDbEntity
  8
0
 62
11
100
AcDbPolyline
 90
4
 70
1
 10
-41.83927451547403
 20
6.010000000000005
 10
-41.83927451547403
 20
5.510000000000003
 10
-41.53927451547403
 20
5.510000000000003
 10
-41.53927451547403
 20
6.010000000000005
  0
LINE
  5
15C
330
17
100
AcDbEntity
  8
0
 62
11
100
AcDbLine
 10
-41.66927451547404
 20
6.010000000000005
 30
0.0
 11
-41.66927451547404
 21
7.099999999999997
 31
0.0
  0
LINE
  5
15D
330
17
100
AcDbEntity
  8
0
 62
11
100
AcDbLine
 10
-41.53927451547403
 20
6.010000000000005
 30
0.0
 11
-41.53927451547403
 21
7.099999999999997
 31
0.0
  0
LINE
  5
15E
330
17
100
AcDbEntity
  8
0
 62
8
100
AcDbLine
 10
-40.53835075714432
 20
8.995691332999545
 30
0.0
 11
-40.53385101082427
 21
8.995643551675332
 31
0.0
  0
LINE
  5
15F
330
17
100
AcDbEntity
  8
0
 62
11
100
AcDbLine
 10
-41.66927451547404
 20
7.599999999999997
 30
0.0
 11
-41.66927451547404
 21
9.139191615375008
 31
0.0
  0
LINE
  5
160
330
17
100
AcDbEntity
  8
0
 62
11
100
AcDbLine
 10
-41.53927451547403
 20
7.599999999999997
 30
0.0
 11
-41.53927451547403
 21
9.139191615375008
 31
0.0
  0
LINE
  5
161
330
17
100
AcDbEntity
  8
0
 62
11
100
AcDbLine
 10
-41.54741855988558
 20
9.309456814039596
 30
0.0
 11
-41.54272456610395
 21
9.33706055200931
 31
0.0
  0
LINE
  5
162
330
17
100
AcDbEntity
  8
0
 62
11
100
AcDbLine
 10
-41.54436097639634
 20
9.339367532941315
 30
0.0
 11
-41.63900236757254
 21
9.35546123063157
 31
0.0
  0
LINE
  5
163
330
17
100
AcDbEntity
  8
0
 62
11
100
AcDbLine
 10
-41.6413093486015
 20
9.353824820267654
 30
0.0
 11
-41.67592796688276
 21
9.150244815357054
 31
0.0
  0
LINE
  5
164
330
17
100
AcDbEntity
  8
0
 62
11
100
AcDbLine
 10
-41.57415233461373
 20
9.152244815357054
 30
0.0
 11
-41.57256495551703
 21
9.161579637404555
 31
0.0
  0
LINE
  5
165
330
17
100
AcDbEntity
  8
0
 62
11
100
AcDbLine
 10
-41.5741523327261
 20
9.152244815357054
 30
0.0
 11
-41.57088853013123
 21
9.171438121300628
 31
0.0
  0
LINE
  5
166
330
17
100
AcDbEntity
  8
0
 62
11
100
AcDbLine
 10
-41.57088853013123
 20
9.171438121300628
 30
0.0
 11
-41.57286022581929
 21
9.171773406423592
 31
0.0
  0
LINE
  5
167
330
17
100
AcDbEntity
  8
0
 62
11
100
AcDbLine
 10
-41.55560061214058
 20
9.320991718757922
 30
0.0
 11
-41.55560061214058
 21
9.320991718757922
 31
0.0
  0
LINE
  5
168
330
17
100
AcDbEntity
  8
0
 62
11
100
AcDbLine
 10
-41.54939025557364
 20
9.309792099162557
 30
0.0
 11
-41.54741855988558
 21
9.309456814039596
 31
0.0
  0
LINE
  5
169
330
17
100
AcDbEntity
  8
0
 62
11
100
AcDbLine
 10
-41.53462106406531
 20
9.150244815357054
 30
0.0
 11
-41.67392796688275
 21
9.150244815357054
 31
0.0
  0
LINE
  5
16A
330
17
100
AcDbEntity
  8
0
 62
11
100
AcDbLine
 10
-41.53262106406531
 20
9.152244815357054
 30
0.0
 11
-41.57415233461373
 21
9.152244815357054
 31
0.0
  0
LINE
  5
16B
330
17
100
AcDbEntity
  8
0
 62
11
100
AcDbLine
 10
-41.63967293823758
 20
9.351517839238703
 30
0.0
 11
-41.67355915781273
 21
9.152244815357054
 31
0.0
  0
LINE
  5
16C
330
17
100
AcDbEntity
  8
0
 62
11
100
AcDbLine
 10
-41.54666795732834
 20
9.33773112264893
 30
0.0
 11
-41.63736595720862
 21
9.353154249602618
 31
0.0
  0
LINE
  5
16D
330
17
100
AcDbEntity
  8
0
 62
11
100
AcDbLine
 10
-41.54939025557364
 20
9.309792099162557
 30
0.0
 11
-41.54503154703596
 21
9.335424141716928
 31
0.0
  0
ARC
  5
16E
330
17
100
AcDbEntity
  8
0
 62
11
100
AcDbCircle
 10
-41.54700324269636
 20
9.335759427002541
 30
0.0
 40
0.002
100
AcDbArc
 50
350.3492144836601
 51
80.34921208909535
  0
ARC
  5
16F
330
17
100
AcDbEntity
  8
0
 62
11
100
AcDbCircle
 10
-41.54469626176435
 20
9.337395837294926
 30
0.0
 40
0.002
100
AcDbArc
 50
350.3492144836581
 51
80.34921208909535
  0
ARC
  5
170
330
17
100
AcDbEntity
  8
0
 62
11
100
AcDbCircle
 10
-41.63770124257665
 20
9.351182553956228
 30
0.0
 40
0.002
100
AcDbArc
 50
80.34921208909535
 51
170.3492145748758
  0
ARC
  5
171
330
17
100
AcDbEntity
  8
0
 62
11
100
AcDbCircle
 10
-41.63933765294056
 20
9.353489534985181
 30
0.0
 40
0.002
100
AcDbArc
 50
80.34921208909535
 51
170.3492145748758
  0
LINE
  5
172
330
17
100
AcDbEntity
  8
0
 62
11
100
AcDbLine
 10
-41.57618104331599
 20
9.152244815357054
 30
0.0
 11
-41.57286022581929
 21
9.171773406423592
 31
0.0
  0
LINE
  5
173
330
17
100
AcDbEntity
  8
0
 62
11
100
AcDbLine
 10
-41.67592796688276
 20
9.150244815357054
 30
0.0
 11
-41.67592796688276
 21
9.100244815357051
 31
0.0
  0
LINE
  5
174
330
17
100
AcDbEntity
  8
0
 62
11
100
AcDbLine
 10
-41.67392796688275
 20
9.150244815357054
 30
0.0
 11
-41.67392796688275
 21
9.100244815357051
 31
0.0
  0
LINE
  5
175
330
17
100
AcDbEntity
  8
0
 62
11
100
AcDbLine
 10
-41.67392796688275
 20
9.100244815357051
 30
0.0
 11
-41.67592796688276
 21
9.100244815357051
 31
0.0
  0
LINE
  5
176
330
17
100
AcDbEntity
  8
0
 62
11
100
AcDbLine
 10
-41.53927451547403
 20
9.139191615375008
 30
0.0
 11
-41.66927451547404
 21
9.139191615375008
 31
0.0
  0
LINE
  5
177
330
17
100
AcDbEntity
  8
0
 62
8
100
AcDbLine
 10
-41.53462106406531
 20
9.100244815357051
 30
0.0
 11
-41.53262106406531
 21
9.100244815357051
 31
0.0
  0
LINE
  5
178
330
17
100
AcDbEntity
  8
0
 62
11
100
AcDbLine
 10
-41.53262106406531
 20
9.152244815357054
 30
0.0
 11
-41.53262106406531
 21
9.100244815357051
 31
0.0
  0
LINE
  5
179
330
17
100
AcDbEntity
  8
0
 62
11
100
AcDbLine
 10
-41.53462106406531
 20
9.150244815357054
 30
0.0
 11
-41.53462106406531
 21
9.100244815357051
 31
0.0
  0
LINE
  5
17A
330
17
100
AcDbEntity
  8
0
 62
8
100
AcDbLine
 10
-41.54939025557364
 20
9.309792099162557
 30
0.0
 11
-41.57286022581929
 21
9.171773406423592
 31
0.0
  0
LWPOLYLINE
  5
17B
330
17
100
AcDbEntity
  8
0
 62
11
100
AcDbPolyline
 90
4
 70
1
 10
-41.83927451547403
 20
-0.1049999999999969
 10
-41.83927451547403
 20
-0.6049999999999969
 10
-41.53927451547403
 20
-0.6049999999999969
 10
-41.53927451547403
 20
-0.1049999999999969
  0
LINE
  5
17C
330
17
100
AcDbEntity
  8
0
 62
11
100
AcDbLine
 10
-41.57618104331599
 20
9.152244815357054
 30
0.0
 11
-41.67355915781273
 21
9.152244815357054
 31
0.0
  0
LINE
  5
17D
330
17
100
AcDbEntity
  8
0
 62
8
100
AcDbLine
 10
-44.92022777713855
 20
8.27637121013404
 30
0.0
 11
-44.20980081760818
 21
9.279302969950628
 31
0.0
210
-0.0029466146267072
220
0.9999956587216974
230
-2e-16
  0
LINE
  5
17E
330
17
100
AcDbEntity
  8
0
 62
8
100
AcDbLine
 10
-44.92022777713855
 20
8.466673893595825
 30
0.0
 11
-44.22570723386546
 21
9.44715007253206
 31
0.0
210
-0.0029466146267072
220
0.9999956587216974
230
-2e-16
  0
LINE
  5
17F
330
17
100
AcDbEntity
  8
0
 62
8
100
AcDbLine
 10
-44.34788920481547
 20
8.122884106374677
 30
0.0
 11
-44.19041605886838
 21
9.441640304218517
 31
0.0
210
-0.0029466146267072
220
0.9999956587216974
230
-2e-16
  0
LINE
  5
180
330
17
100
AcDbEntity
  8
0
 62
8
100
AcDbLine
 10
-44.2381761155473
 20
8.113937053800832
 30
0.0
 11
-44.08166206741237
 21
9.424661303235373
 31
0.0
210
-0.0029466146267072
220
0.9999956587216974
230
-2e-16
  0
LINE
  5
181
330
17
100
AcDbEntity
  8
0
 62
8
100
AcDbLine
 10
-44.22024211855988
 20
8.264125008305818
 30
0.0
 11
-43.43905122050263
 21
9.324335023167002
 31
0.0
210
-0.0029466146267072
220
0.9999956587216974
230
-2e-16
  0
LINE
  5
182
330
17
100
AcDbEntity
  8
0
 62
8
100
AcDbLine
 10
-44.19675787995397
 20
8.110559381895788
 30
0.0
 11
-43.42078983547589
 21
9.16368108878445
 31
0.0
210
-0.0029466146267072
220
0.9999956587216974
230
-2e-16
  0
LINE
  5
183
330
17
100
AcDbEntity
  8
0
 62
8
100
AcDbLine
 10
-43.44519728430772
 20
8.04928757457224
 30
0.0
 11
-43.29325213492246
 21
9.30157237114745
 31
0.0
210
-0.0029466146267072
220
0.9999956587216974
230
-2e-16
  0
LINE
  5
184
330
17
100
AcDbEntity
  8
0
 62
8
100
AcDbLine
 10
-43.55492055251254
 20
8.058217318612854
 30
0.0
 11
-43.40199888146043
 21
9.318550303905234
 31
0.0
210
-0.0029466146267072
220
0.9999956587216974
230
-2e-16
  0
LINE
  5
185
330
17
100
AcDbEntity
  8
0
 62
8
100
AcDbLine
 10
-42.68374368774829
 20
7.987481932901225
 30
0.0
 11
-42.53743609866051
 21
9.183571277339588
 31
0.0
210
-0.0029466146267072
220
0.9999956587216974
230
-2e-16
  0
LINE
  5
186
330
17
100
AcDbEntity
  8
0
 62
8
100
AcDbLine
 10
-42.79347906037334
 20
7.99634801641816
 30
0.0
 11
-42.64617928824399
 21
9.200548625427208
 31
0.0
210
-0.0029466146267072
220
0.9999956587216974
230
-2e-16
  0
LINE
  5
187
330
17
100
AcDbEntity
  8
0
 62
8
100
AcDbLine
 10
-41.83158597568687
 20
7.924081247399421
 30
0.0
 11
-41.72814603164254
 21
9.056893732464308
 31
0.0
210
-0.0029466146267072
220
0.9999956587216974
230
-2e-16
  0
LINE
  5
188
330
17
100
AcDbEntity
  8
0
 62
8
100
AcDbLine
 10
-41.99375253766715
 20
7.9320108401402
 30
0.0
 11
-41.88871751052305
 21
9.08229172261074
 31
0.0
210
-0.0029466146267072
220
0.9999956587216974
230
-2e-16
  0
LINE
  5
189
330
17
100
AcDbEntity
  8
0
 62
8
100
AcDbLine
 10
-40.94658112995041
 20
7.863671295182037
 30
0.0
 11
-40.9497321299996
 21
8.93302944648321
 31
0.0
210
-0.0029466146267072
220
0.9999956587216974
230
-2e-16
  0
LINE
  5
18A
330
17
100
AcDbEntity
  8
0
 62
8
100
AcDbLine
 10
-40.83657031652959
 20
7.860163597508751
 30
0.0
 11
-40.83968005135263
 21
8.91551752626497
 31
0.0
210
-0.0029466146267072
220
0.9999956587216974
230
-2e-16
  0
LINE
  5
18B
330
17
100
AcDbEntity
  8
0
 62
8
100
AcDbLine
 10
-43.50221952449217
 20
8.05391953095576
 30
0.0
 11
-44.29508804968025
 21
8.11857824235529
 31
0.0
210
-0.0029466146267072
220
0.9999956587216974
230
-2e-16
  0
LINE
  5
18C
330
17
100
AcDbEntity
  8
0
 62
8
100
AcDbLine
 10
-43.5111603826318
 20
7.944283491918746
 30
0.0
 11
-44.30402890781988
 21
8.008942203318277
 31
0.0
210
-0.0029466146267072
220
0.9999956587216974
230
-2e-16
  0
LINE
  5
18D
330
17
100
AcDbEntity
  8
0
 62
8
100
AcDbLine
 10
-44.29508814151037
 20
8.118578249844
 30
0.0
 11
-44.92022777713855
 21
8.169557556209613
 31
0.0
210
-0.0029466146267072
220
0.9999956587216974
230
-2e-16
  0
LINE
  5
18E
330
17
100
AcDbEntity
  8
0
 62
8
100
AcDbLine
 10
-44.30402881598976
 20
8.008942195829569
 30
0.0
 11
-44.92022777713855
 21
8.059192402075109
 31
0.0
210
-0.0029466146267072
220
0.9999956587216974
230
-2e-16
  0
LINE
  5
18F
330
17
100
AcDbEntity
  8
0
 62
8
100
AcDbLine
 10
-39.56927451547404
 20
8.82474951157588
 30
0.0
 11
-41.82061030630068
 21
9.182990929985642
 31
0.0
210
-0.0029466146267072
220
0.9999956587216974
230
-2e-16
  0
LINE
  5
190
330
17
100
AcDbEntity
  8
0
 62
8
100
AcDbLine
 10
-39.56927451547404
 20
8.713365593628716
 30
0.0
 11
-41.83789646119588
 21
9.074357653090665
 31
0.0
210
-0.0029466146267072
220
0.9999956587216974
230
-2e-16
  0
LINE
  5
191
330
17
100
AcDbEntity
  8
0
 62
8
100
AcDbLine
 10
-43.34948082919491
 20
9.310351032377874
 30
0.0
 11
-44.13799757540606
 21
9.43345656708744
 31
0.0
210
-0.0029466146267072
220
0.9999956587216974
230
-2e-16
  0
LINE
  5
192
330
17
100
AcDbEntity
  8
0
 62
8
100
AcDbLine
 10
-43.33251285512024
 20
9.4190344619143
 30
0.0
 11
-44.12102960133139
 21
9.542139996623867
 31
0.0
210
-0.0029466146267072
220
0.9999956587216974
230
-2e-16
  0
LINE
  5
193
330
17
100
AcDbEntity
  8
0
 62
8
100
AcDbLine
 10
-44.13799758610895
 20
9.433456568758409
 30
0.0
 11
-44.92651333220473
 21
9.556562106414937
 31
0.0
210
-0.0029466146267072
220
0.9999956587216974
230
-2e-16
  0
LINE
  5
194
330
17
100
AcDbEntity
  8
0
 62
8
100
AcDbLine
 10
-44.12102959062849
 20
9.542139994952898
 30
0.0
 11
-44.90954533672428
 21
9.665245532609426
 31
0.0
210
-0.0029466146267072
220
0.9999956587216974
230
-2e-16
  0
LINE
  5
195
330
17
100
AcDbEntity
  8
0
 62
8
100
AcDbLine
 10
-43.42695829895355
 20
8.199607635175688
 30
0.0
 11
-42.68330175715415
 21
9.20634434205936
 31
0.0
210
-0.0029466146267072
220
0.9999956587216974
230
-2e-16
  0
LINE
  5
196
330
17
100
AcDbEntity
  8
0
 62
8
100
AcDbLine
 10
-43.40372850973913
 20
8.04591903503745
 30
0.0
 11
-42.66510287836903
 21
9.045845068023162
 31
0.0
210
-0.0029466146267072
220
0.9999956587216974
230
-2e-16
  0
LINE
  5
197
330
17
100
AcDbEntity
  8
0
 62
8
100
AcDbLine
 10
-41.9483353174048
 20
7.818004669307576
 30
0.0
 11
-42.74970515471579
 21
7.882429931249141
 31
0.0
210
-0.0029466146267072
220
0.9999956587216974
230
-2e-16
  0
LINE
  5
198
330
17
100
AcDbEntity
  8
0
 62
8
100
AcDbLine
 10
-41.93952042653743
 20
7.927650908180588
 30
0.0
 11
-42.74089026384842
 21
7.992076170122153
 31
0.0
210
-0.0029466146267072
220
0.9999956587216974
230
-2e-16
  0
LINE
  5
199
330
17
100
AcDbEntity
  8
0
 62
8
100
AcDbLine
 10
-42.74975073302965
 20
7.882433614538392
 30
0.0
 11
-43.51114297730954
 21
7.944282075289997
 31
0.0
210
-0.0029466146267072
220
0.9999956587216974
230
-2e-16
  0
LINE
  5
19A
330
17
100
AcDbEntity
  8
0
 62
8
100
AcDbLine
 10
-42.74084468553455
 20
7.992072486832903
 30
0.0
 11
-43.50223692981444
 21
8.053920947584508
 31
0.0
210
-0.0029466146267072
220
0.9999956587216974
230
-2e-16
  0
LINE
  5
19B
330
17
100
AcDbEntity
  8
0
 62
8
100
AcDbLine
 10
-41.82076941991185
 20
9.183016009928558
 30
0.0
 11
-42.57664214769998
 21
9.301024734669843
 31
0.0
210
-0.0029466146267072
220
0.9999956587216974
230
-2e-16
  0
LINE
  5
19C
330
17
100
AcDbEntity
  8
0
 62
8
100
AcDbLine
 10
-41.83773734758472
 20
9.07433257314775
 30
0.0
 11
-42.59361007537285
 21
9.192341297889037
 31
0.0
210
-0.0029466146267072
220
0.9999956587216974
230
-2e-16
  0
LINE
  5
19D
330
17
100
AcDbEntity
  8
0
 62
8
100
AcDbLine
 10
-42.57664205520488
 20
9.3010247202292
 30
0.0
 11
-43.33251278582603
 21
9.419034451095847
 31
0.0
210
-0.0029466146267072
220
0.9999956587216974
230
-2e-16
  0
LINE
  5
19E
330
17
100
AcDbEntity
  8
0
 62
8
100
AcDbLine
 10
-42.59361016786795
 20
9.192341312329681
 30
0.0
 11
-43.3494808984891
 21
9.310351043196327
 31
0.0
210
-0.0029466146267072
220
0.9999956587216974
230
-2e-16
  0
LINE
  5
19F
330
17
100
AcDbEntity
  8
0
 62
8
100
AcDbLine
 10
-41.81670363741729
 20
8.08706372727702
 30
0.0
 11
-41.00656678049723
 21
8.942073199925979
 31
0.0
210
-0.0029466146267072
220
0.9999956587216974
230
-2e-16
  0
LINE
  5
1A0
330
17
100
AcDbEntity
  8
0
 62
8
100
AcDbLine
 10
-41.8233033915165
 20
7.920168640979262
 30
0.0
 11
-40.94946510206749
 21
8.842407900507231
 31
0.0
210
-0.0029466146267072
220
0.9999956587216974
230
-2e-16
  0
LINE
  5
1A1
330
17
100
AcDbEntity
  8
0
 62
8
100
AcDbLine
 10
-40.89494496311663
 20
7.750115617657336
 30
0.0
 11
-41.94746482113292
 21
7.8179416339268
 31
0.0
210
-0.0029466146267072
220
0.9999956587216974
230
-2e-16
  0
LINE
  5
1A2
330
17
100
AcDbEntity
  8
0
 62
8
100
AcDbLine
 10
-40.887871064793
 20
7.8598879272919
 30
0.0
 11
-41.9403909228093
 21
7.927713943561364
 31
0.0
210
-0.0029466146267072
220
0.9999956587216974
230
-2e-16
  0
LINE
  5
1A3
330
17
100
AcDbEntity
  8
0
 62
8
100
AcDbLine
 10
-42.03374399404511
 20
7.935225910052515
 30
0.0
 11
-42.55382700434717
 21
9.049572844587637
 31
0.0
210
-0.0029466146267072
220
0.9999956587216974
230
-2e-16
  0
LINE
  5
1A4
330
17
100
AcDbEntity
  8
0
 62
8
100
AcDbLine
 10
-41.98018732200476
 20
8.0805689799084
 30
0.0
 11
-42.49163858836742
 21
9.176421256459982
 31
0.0
210
-0.0029466146267072
220
0.9999956587216974
230
-2e-16
  0
LINE
  5
1A5
330
17
100
AcDbEntity
  8
0
 62
8
100
AcDbLine
 10
-40.89124595015035
 20
7.750002011244923
 30
0.0
 11
-39.56927451547404
 21
7.753897368521258
 31
0.0
  0
LINE
  5
1A6
330
17
100
AcDbEntity
  8
0
 62
8
100
AcDbLine
 10
-40.89157007775928
 20
7.860001533704313
 30
0.0
 11
-39.56927451547405
 21
7.863897846063899
 31
0.0
  0
LINE
  5
1A7
330
17
100
AcDbEntity
  8
0
 62
8
100
AcDbLine
 10
-40.83949921433114
 20
8.8541466789247
 30
0.0
 11
-39.7646382353239
 21
7.863322181970367
 31
0.0
  0
LINE
  5
1A8
330
17
100
AcDbEntity
  8
0
 62
8
100
AcDbLine
 10
-40.72377260760979
 20
8.897073877290048
 30
0.0
 11
-39.67927451547405
 21
7.934238387935828
 31
0.0
  0
LINE
  5
1A9
330
17
100
AcDbEntity
  8
0
 62
8
100
AcDbLine
 10
-39.67927451547403
 20
7.863573717047863
 30
0.0
 11
-39.67927451547403
 21
8.730869226887542
 31
0.0
  0
LINE
  5
1AA
330
17
100
AcDbEntity
  8
0
 62
8
100
AcDbLine
 10
-39.56927451547404
 20
7.753897368521258
 30
0.0
 11
-39.56927451547404
 21
8.82474951157588
 31
0.0
  0
LWPOLYLINE
  5
1AB
330
17
100
AcDbEntity
  8
0
 62
8
100
AcDbPolyline
 90
21
 70
1
 10
-39.54026267969076
 20
9.009861964476691
 42
0.4142135623732447
 10
-39.55085160279916
 20
9.02436892510223
 10
-39.57515706499818
 20
9.028163559862925
 42
0.4142135623723232
 10
-39.58966402562371
 20
9.017574636754567
 10
-39.59048156888517
 20
9.012338094085656
 10
-39.58652944405326
 20
9.011721077624777
 10
-39.5857119007918
 20
9.016957620293674
 42
-0.41421356237213
 10
-39.57577408145906
 20
9.024211435030997
 10
-39.55146861926001
 20
9.020416800270318
 42
-0.4142135623734343
 10
-39.54421480452267
 20
9.010478980937584
 10
-39.57114745611695
 20
8.837969480939584
 42
-0.41421356237309
 10
-39.58108527544971
 20
8.83071566620223
 10
-39.60539073764876
 20
8.83451030096294
 42
-0.4142135623725859
 10
-39.6126445523861
 20
8.844448120295674
 10
-39.61182700912465
 20
8.849684662964613
 10
-39.61577913395657
 20
8.850301679425478
 10
-39.61659667721801
 20
8.845065136756565
 42
0.3914561508644167
 10
-39.60698348547143
 20
8.830749911406805
 10
-39.59385502301254
 20
8.828660858751057
 10
-39.58170229191059
 20
8.826763541370317
 42
0.4142135623731297
 10
-39.56719533128504
 20
8.83735246447872
  0
LWPOLYLINE
  5
1AC
330
17
100
AcDbEntity
  8
0
 62
8
100
AcDbPolyline
 90
21
 70
1
 10
-40.85743185337347
 20
9.21945511134917
 42
0.4142135623732447
 10
-40.86802077648187
 20
9.233962071974709
 10
-40.89232623868089
 20
9.237756706735404
 42
0.4142135623723232
 10
-40.90683319930642
 20
9.227167783627046
 10
-40.90765074256788
 20
9.221931240958135
 10
-40.90369861773597
 20
9.221314224497254
 10
-40.90288107447451
 20
9.226550767166152
 42
-0.41421356237213
 10
-40.89294325514177
 20
9.233804581903478
 10
-40.86863779294271
 20
9.230009947142795
 42
-0.4142135623734343
 10
-40.86138397820538
 20
9.220072127810063
 10
-40.88831662979965
 20
9.047562627812063
 42
-0.41421356237309
 10
-40.89825444913242
 20
9.04030881307471
 10
-40.92255991133147
 20
9.044103447835418
 42
-0.4142135623725859
 10
-40.92981372606881
 20
9.054041267168152
 10
-40.92899618280736
 20
9.059277809837091
 10
-40.93294830763928
 20
9.059894826297956
 10
-40.93376585090072
 20
9.054658283629045
 42
0.3914561508644167
 10
-40.92415265915414
 20
9.040343058279284
 10
-40.91102419669525
 20
9.038254005623536
 10
-40.8988714655933
 20
9.036356688242797
 42
0.4142135623731297
 10
-40.88436450496774
 20
9.046945611351198
  0
LINE
  5
1AD
330
17
100
AcDbEntity
  8
0
 62
11
100
AcDbLine
 10
-39.4395551865789
 20
9.006634472441512
 30
0.0
 11
-44.92651333220474
 21
9.87969537046201
 31
0.0
  0
LINE
  5
1AE
330
17
100
AcDbEntity
  8
0
 62
11
100
AcDbLine
 10
-39.43184244792863
 20
9.05603624350423
 30
0.0
 11
-44.92651333220474
 21
9.930324358928935
 31
0.0
  0
LINE
  5
1AF
330
17
100
AcDbEntity
  8
0
 62
8
100
AcDbLine
 10
-39.4395551865789
 20
9.006634472441512
 30
0.0
 11
-39.42567225700841
 21
9.095557660354412
 31
0.0
  0
LWPOLYLINE
  5
1B0
330
17
100
AcDbEntity
  8
0
 62
8
100
AcDbPolyline
 90
3
 70
1
 10
-40.8708981791706
 20
9.13320036135017
 10
-40.88633481689711
 20
9.034325334265468
 10
-40.78721472519622
 20
9.018552954868078
  0
LINE
  5
1B1
330
17
100
AcDbEntity
  8
0
 62
8
100
AcDbLine
 10
-40.91040718023196
 20
9.042206130455064
 30
0.0
 11
-40.91103576498733
 21
9.03825584641573
 31
0.0
  0
LWPOLYLINE
  5
1B2
330
17
100
AcDbEntity
  8
0
 62
8
100
AcDbPolyline
 90
21
 70
1
 10
-41.79187770305223
 20
9.368073438712223
 42
0.4142135623732447
 10
-41.80246662616063
 20
9.38258039933776
 10
-41.82677208835966
 20
9.386375034098457
 42
0.4142135623723232
 10
-41.84127904898518
 20
9.375786110990099
 10
-41.84209659224665
 20
9.370549568321186
 10
-41.83814446741473
 20
9.369932551860307
 10
-41.83732692415327
 20
9.375169094529205
 42
-0.41421356237213
 10
-41.82738910482053
 20
9.38242290926653
 10
-41.80308364262148
 20
9.37862827450585
 42
-0.4142135623734343
 10
-41.79582982788415
 20
9.368690455173116
 10
-41.82276247947842
 20
9.196180955175114
 42
-0.41421356237309
 10
-41.83270029881119
 20
9.188927140437762
 10
-41.85700576101024
 20
9.192721775198471
 42
-0.4142135623725859
 10
-41.86425957574757
 20
9.202659594531205
 10
-41.86344203248613
 20
9.207896137200144
 10
-41.86739415731804
 20
9.20851315366101
 10
-41.86821170057949
 20
9.203276610992098
 42
0.3914561508644167
 10
-41.85859850883291
 20
9.188961385642337
 10
-41.84547004637401
 20
9.186872332986589
 10
-41.83331731527206
 20
9.18497501560585
 42
0.4142135623731297
 10
-41.81881035464651
 20
9.195563938714251
  0
LWPOLYLINE
  5
1B3
330
17
100
AcDbEntity
  8
0
 62
8
100
AcDbPolyline
 90
3
 70
1
 10
-41.80534402884937
 20
9.281818688713223
 10
-41.82078066657588
 20
9.18294366162852
 10
-41.72166057487499
 20
9.16717128223113
  0
LWPOLYLINE
  5
1B4
330
17
100
AcDbEntity
  8
0
 62
8
100
AcDbPolyline
 90
21
 70
1
 10
-42.54775043084037
 20
9.486082163453496
 42
0.4142135623732447
 10
-42.55833935394877
 20
9.500589124079035
 10
-42.58264481614779
 20
9.50438375883973
 42
0.4142135623723232
 10
-42.59715177677331
 20
9.493794835731372
 10
-42.59796932003477
 20
9.48855829306246
 10
-42.59401719520286
 20
9.487941276601582
 10
-42.5931996519414
 20
9.493177819270478
 42
-0.41421356237213
 10
-42.58326183260867
 20
9.500431634007803
 10
-42.55895637040961
 20
9.496636999247121
 42
-0.4142135623734343
 10
-42.55170255567228
 20
9.486699179914387
 10
-42.57863520726655
 20
9.314189679916389
 42
-0.41421356237309
 10
-42.58857302659932
 20
9.306935865179035
 10
-42.61287848879837
 20
9.310730499939744
 42
-0.4142135623725859
 10
-42.62013230353571
 20
9.320668319272478
 10
-42.61931476027426
 20
9.325904861941417
 10
-42.62326688510618
 20
9.326521878402282
 10
-42.62408442836762
 20
9.321285335733371
 42
0.3914561508644167
 10
-42.61447123662104
 20
9.30697011038361
 10
-42.60134277416215
 20
9.304881057727862
 10
-42.5891900430602
 20
9.302983740347123
 42
0.4142135623731297
 10
-42.57468308243464
 20
9.313572663455524
  0
LWPOLYLINE
  5
1B5
330
17
100
AcDbEntity
  8
0
 62
8
100
AcDbPolyline
 90
3
 70
1
 10
-42.56121675663749
 20
9.399827413454496
 10
-42.576653394364
 20
9.300952386369794
 10
-42.4775333026631
 20
9.285180006972404
  0
LWPOLYLINE
  5
1B6
330
17
100
AcDbEntity
  8
0
 62
8
100
AcDbPolyline
 90
21
 70
1
 10
-43.30362116146152
 20
9.604091894320142
 42
0.4142135623732447
 10
-43.31421008456992
 20
9.61859885494568
 10
-43.33851554676894
 20
9.622393489706376
 42
0.4142135623723232
 10
-43.35302250739447
 20
9.611804566598018
 10
-43.35384005065593
 20
9.606568023929105
 10
-43.34988792582402
 20
9.605951007468226
 10
-43.34907038256256
 20
9.611187550137124
 42
-0.41421356237213
 10
-43.33913256322982
 20
9.61844136487445
 10
-43.31482710103077
 20
9.614646730113769
 42
-0.4142135623734343
 10
-43.30757328629343
 20
9.604708910781035
 10
-43.33450593788771
 20
9.432199410783033
 42
-0.41421356237309
 10
-43.34444375722047
 20
9.424945596045681
 10
-43.36874921941952
 20
9.42874023080639
 42
-0.4142135623725859
 10
-43.37600303415686
 20
9.438678050139124
 10
-43.37518549089542
 20
9.443914592808063
 10
-43.37913761572733
 20
9.444531609268928
 10
-43.37995515898877
 20
9.439295066600017
 42
0.3914561508644167
 10
-43.3703419672422
 20
9.424979841250256
 10
-43.3572135047833
 20
9.422890788594508
 10
-43.34506077368135
 20
9.42099347121377
 42
0.4142135623731297
 10
-43.33055381305579
 20
9.43158239432217
  0
LWPOLYLINE
  5
1B7
330
17
100
AcDbEntity
  8
0
 62
8
100
AcDbPolyline
 90
3
 70
1
 10
-43.31708748725866
 20
9.517837144321142
 10
-43.33252412498517
 20
9.41896211723644
 10
-43.23340403328427
 20
9.40318973783905
  0
LWPOLYLINE
  5
1B8
330
17
100
AcDbEntity
  8
0
 62
8
100
AcDbPolyline
 90
21
 70
1
 10
-44.09213790767267
 20
9.727197429029694
 42
0.4142135623732447
 10
-44.10272683078106
 20
9.741704389655233
 10
-44.12703229298009
 20
9.745499024415928
 42
0.4142135623723232
 10
-44.14153925360561
 20
9.73491010130757
 10
-44.14235679686707
 20
9.729673558638657
 10
-44.13840467203516
 20
9.729056542177778
 10
-44.1375871287737
 20
9.734293084846676
 42
-0.41421356237213
 10
-44.12764930944097
 20
9.741546899584002
 10
-44.10334384724191
 20
9.737752264823321
 42
-0.4142135623734343
 10
-44.09609003250458
 20
9.727814445490587
 10
-44.12302268409885
 20
9.555304945492585
 42
-0.41421356237309
 10
-44.13296050343162
 20
9.548051130755233
 10
-44.15726596563067
 20
9.551845765515942
 42
-0.4142135623725859
 10
-44.16451978036801
 20
9.561783584848676
 10
-44.16370223710656
 20
9.567020127517615
 10
-44.16765436193847
 20
9.56763714397848
 10
-44.16847190519992
 20
9.56240060130957
 42
0.3914561508644167
 10
-44.15885871345333
 20
9.548085375959808
 10
-44.14573025099445
 20
9.54599632330406
 10
-44.13357751989249
 20
9.544099005923321
 42
0.4142135623731297
 10
-44.11907055926694
 20
9.554687929031722
  0
LWPOLYLINE
  5
1B9
330
17
100
AcDbEntity
  8
0
 62
8
100
AcDbPolyline
 90
3
 70
1
 10
-44.10560423346979
 20
9.640942679030694
 10
-44.12104087119629
 20
9.542067651945992
 10
-44.0219207794954
 20
9.526295272548602
  0
LINE
  5
1BA
330
17
100
AcDbEntity
  8
0
 62
11
100
AcDbLine
 10
-39.51461067669196
 20
9.011820983235264
 30
0.0
 11
-39.51461067669196
 21
6.611820983235261
 31
0.0
  0
LINE
  5
1BB
330
17
100
AcDbEntity
  8
0
 62
11
100
AcDbLine
 10
-39.52461067669196
 20
9.011820983235264
 30
0.0
 11
-39.52461067669196
 21
6.611820983235261
 31
0.0
  0
LINE
  5
1BC
330
17
100
AcDbEntity
  8
0
 62
11
100
AcDbLine
 10
-39.51461067669196
 20
9.011820983235264
 30
0.0
 11
-39.52461067669196
 21
9.011820983235264
 31
0.0
  0
LWPOLYLINE
  5
1BD
330
17
100
AcDbEntity
  8
0
 62
11
100
AcDbPolyline
 90
6
 70
1
 10
-39.57530719778342
 20
9.027209530229428
 10
-39.57515005890529
 20
9.028197106753979
 10
-39.51161067669197
 20
9.01809594582075
 10
-39.51161067669197
 20
8.963939241781498
 10
-39.51261067669197
 20
8.963939241781498
 10
-39.51261067669197
 20
9.017242362979164
  0
LINE
  5
1BE
330
17
100
AcDbEntity
  8
0
 62
8
100
AcDbLine
 10
-39.42567225700841
 20
9.095557660354412
 30
0.0
 11
-44.92022777713855
 21
9.969827419538335
 31
0.0
  0
LINE
  5
1BF
330
17
100
AcDbEntity
  8
0
 62
11
100
AcDbLine
 10
-39.4395551865789
 20
9.006634472441512
 30
0.0
 11
-39.43184244792863
 21
9.05603624350423
 31
0.0
  0
LINE
  5
1C0
330
17
100
AcDbEntity
  8
0
 62
8
100
AcDbLine
 10
-41.83827451547402
 20
5.510000000000003
 30
0.0
 11
-42.93100242728795
 21
5.510000000000006
 31
0.0
  0
LWPOLYLINE
  5
1C1
330
17
100
AcDbEntity
  8
0
 62
8
100
AcDbPolyline
 90
6
 70
0
 10
-43.10686355294333
 20
5.268596774807308
 10
-42.63664597478694
 20
5.268596774807308
 10
-42.63664597478694
 20
5.510000000000006
 10
-42.53057995760897
 20
5.40393398282204
 10
-42.63664597478694
 20
5.510000000000006
 10
-42.74624752587087
 20
5.40039844891608
  0
LINE
  5
1C2
330
17
100
AcDbEntity
  8
0
 62
8
100
AcDbLine
 10
-41.83927451547403
 20
7.099999999999997
 30
0.0
 11
-42.93200242728795
 21
7.100000000000001
 31
0.0
  0
LWPOLYLINE
  5
1C3
330
17
100
AcDbEntity
  8
0
 62
8
100
AcDbPolyline
 90
6
 70
0
 10
-43.10786355294334
 20
6.858596774807303
 10
-42.63764597478695
 20
6.858596774807303
 10
-42.63764597478695
 20
7.100000000000001
 10
-42.53157995760898
 20
6.993933982822035
 10
-42.63764597478695
 20
7.100000000000001
 10
-42.74724752587087
 20
6.990398448916074
  0
LINE
  5
1C4
330
17
100
AcDbEntity
  8
0
 62
11
100
AcDbLine
 10
-39.51461067669196
 20
6.611820983235261
 30
0.0
 11
-39.52461067669196
 21
6.611820983235261
 31
0.0
  0
LINE
  5
1C5
330
17
100
AcDbEntity
  8
0
 62
8
100
AcDbLine
 10
-41.65207451547401
 20
0.0096649297350417
 30
0.0
 11
-41.65327451547401
 21
0.0096649297350417
 31
0.0
  0
LINE
  5
1C7
330
17
100
AcDbEntity
  8
0-TEXTO
 62
12
100
AcDbLine
 10
-41.28901189783056
 20
3.362448205128767
 30
0.0
 11
-41.75698257923737
 21
3.362448205128767
 31
0.0
  0
CIRCLE
  5
1C8
330
17
100
AcDbEntity
  8
0-TEXTO
100
AcDbCircle
 10
-41.75698257923737
 20
3.362448205128767
 30
0.0
 40
0.0143465129660836
  0
LINE
  5
1C9
330
17
100
AcDbEntity
  8
0-TEXTO
 62
12
100
AcDbLine
 10
-41.28901189783056
 20
5.697775224895618
 30
0.0
 11
-41.75698257923737
 21
5.697775224895618
 31
0.0
  0
CIRCLE
  5
1CA
330
17
100
AcDbEntity
  8
0-TEXTO
100
AcDbCircle
 10
-41.75698257923737
 20
5.697775224895618
 30
0.0
 40
0.0143465129660836
  0
LINE
  5
1CB
330
17
100
AcDbEntity
  8
0-TEXTO
 62
12
100
AcDbLine
 10
-41.28901189783056
 20
6.307836844690765
 30
0.0
 11
-41.6076156450184
 21
6.307836844690765
 31
0.0
  0
CIRCLE
  5
1CC
330
17
100
AcDbEntity
  8
0-TEXTO
100
AcDbCircle
 10
-41.6076156450184
 20
6.307836844690765
 30
0.0
 40
0.0143465129660836
  0
LWPOLYLINE
  5
1CD
330
17
100
AcDbEntity
  8
0-cortes
 62
251
100
AcDbPolyline
 90
285
 70
0
 10
-40.77418547096729
 20
1.435822711406581
 10
-40.78458423021598
 20
1.449681435925638
 10
-40.79844683959871
 20
1.445294149994046
 10
-40.81161439827965
 20
1.441126836080814
 10
-40.84743454737932
 20
1.436746909653697
 10
-40.84981959130485
 20
1.456252403739766
 10
-40.85419644420769
 20
1.470430217720887
 10
-40.86368688895666
 20
1.482691247798976
 10
-40.86368688895666
 20
1.500044928907579
 10
-40.88428616420995
 20
1.502127030705439
 10
-40.87909579564225
 20
1.515613951331735
 10
-40.87692232880456
 20
1.538268493650564
 10
-40.88435825266233
 20
1.554530133612049
 10
-40.89226703570594
 20
1.571825870476788
 10
-40.89226703570594
 20
1.610519550636114
 10
-40.87611493813827
 20
1.637359542487613
 10
-40.85788737296676
 20
1.663020384851419
 10
-40.83072804855172
 20
1.689055155701462
 10
-40.78422018353151
 20
1.699095985392924
 10
-40.7451554512144
 20
1.700585325556714
 10
-40.72171949536212
 20
1.68756794013151
 10
-40.71258588845219
 20
1.687019794964475
 10
-40.70303416851859
 20
1.696102432909905
 10
-40.70303416851859
 20
1.708911608155032
 10
-40.70638628155168
 20
1.725177497303837
 10
-40.70258722011411
 20
1.738313859974331
 10
-40.68900936011769
 20
1.753640678720222
 10
-40.67206857382055
 20
1.758312660203989
 10
-40.64900026907517
 20
1.747948892274481
 10
-40.64593290542839
 20
1.728680952268019
 10
-40.63337509703266
 20
1.711165802040573
 10
-40.6408218341584
 20
1.696567718924045
 10
-40.63352287835985
 20
1.677008709584244
 10
-40.63352287835985
 20
1.660951030615519
 10
-40.62476052697948
 20
1.656718840021975
 10
-40.61994141394123
 20
1.66387234691375
 10
-40.61614595692586
 20
1.653068788094381
 10
-40.62943185869019
 20
1.643582477351481
 10
-40.6405298759262
 20
1.645186545573244
 10
-40.64115912878813
 20
1.640832953243515
 10
-40.65250376785835
 20
1.629861851421194
 10
-40.66316204553518
 20
1.636428970459339
 10
-40.67513593746698
 20
1.631759113569776
 10
-40.66678449026485
 20
1.613946520228191
 10
-40.66093811678084
 20
1.576997711687761
 10
-40.65392030594639
 20
1.560160306841487
 10
-40.66889307749526
 20
1.540046778553856
 10
-40.68971222252812
 20
1.52133760668291
 10
-40.6993035911104
 20
1.506839379468919
 10
-40.69462505055426
 20
1.490235679926266
 10
-40.68152297434326
 20
1.499120730660463
 10
-40.6695923354828
 20
1.494911910597357
 10
-40.66466148534348
 20
1.467562016264318
 10
-40.64470740173876
 20
1.445266530276294
 10
-40.6213723697198
 20
1.450252951623108
 10
-40.62724397416198
 20
1.462282400991052
 10
-40.61887810926933
 20
1.478858480815583
 10
-40.60156246301997
 20
1.487658547802675
 10
-40.60156246301997
 20
1.504234627627573
 10
-40.60860550481257
 20
1.528440123326499
 10
-40.63311197418161
 20
1.54956283360835
 10
-40.62496597906843
 20
1.578803616308443
 10
-40.60659423699227
 20
1.614067622067326
 10
-40.59160344333068
 20
1.630524724646567
 10
-40.58452435731195
 20
1.65845038386403
 10
-40.5685351385853
 20
1.677958402955637
 10
-40.5384418141605
 20
1.68759343525579
 10
-40.5003574847947
 20
1.679602838457112
 10
-40.43617353126367
 20
1.668557075959478
 10
-40.38680015026332
 20
1.653281247461412
 10
-40.35059372508093
 20
1.620377665271773
 10
-40.31429358491052
 20
1.500282883398524
 10
-40.28657917941259
 20
1.459329215787745
 10
-40.29142712783155
 20
1.41230345946346
 10
-40.2765660933841
 20
1.38282897145938
 10
-40.2765660933841
 20
1.326002464528786
 10
-40.26238269038813
 20
1.300668809590346
 10
-40.26464987221404
 20
1.268557700839847
 10
-40.26502833658869
 20
1.174491316035849
 10
-40.27334373956503
 20
1.129913091621387
 10
-40.27556488690473
 20
1.118005694607708
 10
-40.2446200957344
 20
1.107623979414155
 10
-40.22081940242642
 20
1.099639048510182
 10
-40.21892416690164
 20
1.071733218521929
 10
-40.24197444953384
 20
1.060022458205081
 10
-40.26767398278926
 20
1.067579637894331
 10
-40.26807046927697
 20
1.013094433189861
 10
-40.28625478137726
 20
0.9843125627223815
 10
-40.29913698780833
 20
0.9649978816550532
 10
-40.29118202709392
 20
0.8975866490532791
 10
-40.29307434896739
 20
0.8350980999885405
 10
-40.29335280739068
 20
0.8259028023582342
 10
-40.31895612104441
 20
0.8266781397793767
 10
-40.31895612104441
 20
0.856683971690325
 10
-40.31895612104441
 20
0.9271269994613486
 10
-40.32489779624805
 20
0.9396238594369049
 10
-40.32489779624805
 20
0.92902001242261
 10
-40.33209582821328
 20
0.8900124726147549
 10
-40.33929746460095
 20
0.8718323245680981
 10
-40.35085986372737
 20
0.8764124959761918
 10
-40.35085986372737
 20
0.9138716595452027
 10
-40.35085986372737
 20
0.92902001242261
 10
-40.37604455317572
 20
0.9081904960675738
 10
-40.41165624862631
 20
0.8930421431901667
 10
-40.45636190233838
 20
0.8843313091371297
 10
-40.4760636763597
 20
0.8843313091371297
 10
-40.49803623662993
 20
0.904402345551576
 10
-40.49803623662993
 20
0.8714541468945409
 10
-40.49752440861825
 20
0.8478371636423585
 10
-40.50568121699953
 20
0.8266337188014514
 10
-40.51775242834176
 20
0.807635602191011
 10
-40.531867347308
 20
0.7880319763845467
 10
-40.52978399103565
 20
0.7593690831630849
 10
-40.5087305585329
 20
0.6621073094771522
 10
-40.49774788282062
 20
0.6277313838729928
 10
-40.47482015055734
 20
0.5692413200974454
 10
-40.45690977457619
 20
0.5379673012538451
 10
-40.4450115755192
 20
0.4956857625981126
 10
-40.41478488745738
 20
0.4463441991719837
 10
-40.39106057779579
 20
0.4008290289484489
 10
-40.38723628539972
 20
0.3499598826726586
 10
-40.37537413056898
 20
0.3319815710245511
 10
-40.35793953837324
 20
0.2544976398266083
 10
-40.35652300028485
 20
0.2117253200324622
 10
-40.34811748674352
 20
0.1967256887119379
 10
-40.34912312065332
 20
0.1827331147917963
 10
-40.35890191921183
 20
0.1746129177793474
 10
-40.36386520915463
 20
0.160630966827684
 10
-40.35769804205782
 20
0.1493536236195379
 10
-40.35047838355697
 20
0.1714557715836467
 10
-40.33874598794059
 20
0.1756667162405971
 10
-40.33468380365164
 20
0.1714557715836467
 10
-40.34280456780666
 20
0.1546162421438932
 10
-40.34445899778771
 20
0.1394296465802522
 10
-40.33844321644088
 20
0.1227388386970194
 10
-40.32753262918063
 20
0.0985800840589644
 10
-40.32511766602786
 20
0.0785324181749569
 10
-40.31772859966397
 20
0.0640618106787176
 10
-40.30627014016627
 20
0.0482357124201389
 10
-40.3133564350301
 20
0.0290909988466535
 10
-40.33084869798805
 20
0.0174843436192962
 10
-40.36085551626993
 20
0.0079874099079174
 10
-40.38814820432165
 20
0.0063302268441223
 10
-40.40337688987645
 20
0.0070844575973954
 10
-40.42177386291078
 20
0.0125106698344357
 10
-40.43293197022879
 20
0.0158017687754804
 10
-40.45253760994242
 20
0.0096467175651878
 10
-40.46595687534332
 20
0.0046730437803273
 10
-40.48902878451113
 20
0.000904014607082
 10
-40.53848867165427
 20
-0.0009040146070749
 10
-40.55597372576667
 20
0.0045753124716317
 10
-40.58052280952361
 20
0.0122683089314375
 10
-40.60190488316848
 20
0.018368174586703
 10
-40.6007694900442
 20
0.0315002880698767
 10
-40.59613780698228
 20
0.0407592672903103
 10
-40.59141240893191
 20
0.0600314564840883
 10
-40.5832844359318
 20
0.0664541031526671
 10
-40.52403133253963
 20
0.0664541031526671
 10
-40.51174385584036
 20
0.0784538082093764
 10
-40.51479319737373
 20
0.0970652487712602
 10
-40.51109866419179
 20
0.1088078779935433
 10
-40.49300446265729
 20
0.113165419613539
 10
-40.48026282870822
 20
0.1313030757866453
 10
-40.48026282870822
 20
0.1470526886734884
 10
-40.47469039134298
 20
0.1620735659306032
 10
-40.47469039134298
 20
0.176854364102935
 10
-40.47347570092134
 20
0.1962391567612069
 10
-40.46087463945392
 20
0.2207102266691958
 10
-40.47153652155365
 20
0.2524516561207779
 10
-40.50644175017126
 20
0.3460931221903518
 10
-40.52515230797328
 20
0.4051164589771386
 10
-40.53140958563554
 20
0.4221960675020409
 10
-40.54282118763947
 20
0.4249325441509999
 10
-40.57371108946258
 20
0.4416658439074173
 10
-40.59090058092036
 20
0.4567525835685214
 10
-40.61727414120506
 20
0.493367830902427
 10
-40.62899572355379
 20
0.5253450902514718
 10
-40.65201717080495
 20
0.5714572712967563
 10
-40.6681764559311
 20
0.6038244753725746
 10
-40.6798856789118
 20
0.6272781620193033
 10
-40.70596456410547
 20
0.6019366921077367
 10
-40.73840797207654
 20
0.5640339410089599
 10
-40.76069051269124
 20
0.5312089687848971
 10
-40.7735604434471
 20
0.5122499493941622
 10
-40.78670152735916
 20
0.4928914874544628
 10
-40.80408055214834
 20
0.4659520741657648
 10
-40.81658789862731
 20
0.4049932325441663
 10
-40.83027028687971
 20
0.3659177057388465
 10
-40.86076009779222
 20
0.3182439483449908
 10
-40.89086063106222
 20
0.2670539884246263
 10
-40.90766805372268
 20
0.2479071502576655
 10
-40.91618410877337
 20
0.2382057503959967
 10
-40.93196907100278
 20
0.1850531710809609
 10
-40.94813851086056
 20
0.162521855195104
 10
-40.96553345440762
 20
0.1578668704609729
 10
-40.97484367802579
 20
0.1375408828063112
 10
-40.97533387950173
 20
0.1250503966115506
 10
-40.96479815219359
 20
0.1399905393092435
 10
-40.94813851086056
 20
0.145867165404626
 10
-40.94551755475722
 20
0.1384370196165374
 10
-40.95078323900773
 20
0.1365795692155149
 10
-40.96308605145091
 20
0.1265206154322254
 10
-40.97582408097744
 20
0.1069276125942391
 10
-40.97852018909466
 20
0.0834168590257587
 10
-40.97974208836141
 20
0.05794723009239
 10
-40.98390880090621
 20
0.0412925403015496
 10
-40.97925549130823
 20
0.0197406620983163
 10
-40.99615662895681
 20
0.0060264099491913
 10
-41.03829593376613
 20
0.0067615193593458
 10
-41.07725253340473
 20
0.0236584128284516
 10
-41.10053349908437
 20
0.04525065831176
 10
-41.12144996352779
 20
0.0590881368938572
 10
-41.16051469584479
 20
0.0641616665812546
 10
-41.2023476247314
 20
0.0862999326377594
 10
-41.23064594669327
 20
0.1090543308591254
 10
-41.24894920473994
 20
0.134113913214227
 10
-41.25279512367163
 20
0.1564072746087763
 10
-41.24156734722115
 20
0.1739351723981795
 10
-41.22557091964941
 20
0.1774704962677998
 10
-41.21480450929417
 20
0.1730109741510635
 10
-41.19204258047116
 20
0.1579454804269158
 10
-41.16866789980341
 20
0.1502565759300598
 10
-41.1552846786283
 20
0.1647101866770217
 10
-41.13498457045253
 20
0.1616337750407428
 10
-41.12037224116526
 20
0.1742411138869517
 10
-41.10114985535202
 20
0.1737800770601314
 10
-41.08807661452206
 20
0.1886947246339172
 10
-41.07746519433911
 20
0.1888476953784863
 10
-41.05704253579429
 20
0.195892847992722
 10
-41.04595172740326
 20
0.2075951099352995
 10
-41.03736421055876
 20
0.2166560699671631
 10
-41.04440903452339
 20
0.2330052502458368
 10
-41.03353809591218
 20
0.2519629995762056
 10
-41.02381763943802
 20
0.2689144316286995
 10
-41.01329565849815
 20
0.2783695743190062
 10
-40.99427512035132
 20
0.2870102967807373
 10
-40.96781144950116
 20
0.3525200180466097
 10
-40.94477918898204
 20
0.4114350005562227
 10
-40.93165548623542
 20
0.436188641422552
 10
-40.93413172457283
 20
0.4530217970815098
 10
-40.9408179285264
 20
0.4651511023516246
 10
-40.93116168033683
 20
0.482230710876527
 10
-40.93116168033683
 20
0.5012925652971152
 10
-40.93116168033683
 20
0.5121832324567013
 10
-40.92915762136195
 20
0.5267600696366391
 10
-40.90607129450361
 20
0.5783749482910654
 10
-40.89597767600188
 20
0.6009415911939034
 10
-40.8798491199689
 20
0.6216720427218139
 10
-40.85521289138549
 20
0.6744108314284301
 10
-40.83600316379775
 20
0.7155331063306126
 10
-40.82355164312255
 20
0.7529103184017547
 10
-40.79660858406444
 20
0.8097708188308967
 10
-40.78181659936709
 20
0.8409877511925127
 10
-40.76243144881496
 20
0.8539113769493393
 10
-40.76243144881496
 20
0.875607727522139
 10
-40.76941681984581
 20
0.8900698366437413
 10
-40.7861305275184
 20
0.8955576620970884
 10
-40.79921818603887
 20
0.9319073352222932
 10
-40.81272395758256
 20
0.9434056361721072
 10
-40.81972374630393
 20
0.9784061923157683
 10
-40.82947731390393
 20
0.992405140017075
 10
-40.85280153265492
 20
0.9970983674374362
 10
-40.85921019606726
 20
1.021932742863187
 10
-40.85921019606726
 20
1.041158190996091
 10
-40.83116418368845
 20
1.046365570084942
 10
-40.8199436160834
 20
1.060383639128998
 10
-40.83236445641958
 20
1.090023845439604
 10
-40.83836221565334
 20
1.141402894196565
 10
-40.83836221565334
 20
1.190389650479575
 10
-40.85081549579345
 20
1.209260291469361
 10
-40.85074340734118
 20
1.230391500125849
 10
-40.84017163580691
 20
1.255053783463912
 10
-40.82028243180937
 20
1.278959711455227
 10
-40.80569172905805
 20
1.312897970763364
 10
-40.78849502875485
 20
1.332769295372367
 10
-40.77934339973151
 20
1.353050666560003
 10
-40.77400885425904
 20
1.369643743134174
 10
-40.77904783707711
 20
1.377050076673059
 10
-40.82103936055889
 20
1.379716441730709
 10
-40.82400219594947
 20
1.384161091691284
 10
-40.81745296005547
 20
1.394467495591444
 10
-40.802692849441
 20
1.409518117160155
 10
-40.79206344051582
 20
1.420356735881282
 10
-40.77981197467184
 20
1.42298379184986
 10
-40.77418547096729
 20
1.435822711406581
  0
LWPOLYLINE
  5
1CE
330
17
100
AcDbEntity
  8
0-cortes
 62
251
100
AcDbPolyline
 90
28
 70
0
 10
-40.56578856855142
 20
1.135286189016396
 10
-40.57951781429759
 20
1.154348043436622
 10
-40.57951781429759
 20
1.215600078985039
 10
-40.58587241137027
 20
1.264905524318413
 10
-40.58858654160056
 20
1.313554470207575
 10
-40.59113486839035
 20
1.326138438523715
 10
-40.58332768900302
 20
1.358156065152472
 10
-40.59591793720236
 20
1.368031176537408
 10
-40.60500108219597
 20
1.387464834850392
 10
-40.61344624438643
 20
1.397339946235328
 10
-40.61344624438643
 20
1.411836048855844
 10
-40.60563546057657
 20
1.405942426011188
 10
-40.59735249740393
 20
1.388898935578675
 10
-40.58508304281739
 20
1.376952345363998
 10
-40.57376876022433
 20
1.383164657259383
 10
-40.56484420982591
 20
1.372811512298353
 10
-40.55671623682579
 20
1.345572096836699
 10
-40.56022334003151
 20
1.331394683266912
 10
-40.55942676263319
 20
1.303998047873369
 10
-40.55289194442972
 20
1.282014877154912
 10
-40.54460898125697
 20
1.267042865552143
 10
-40.5454307896139
 20
1.230722936738535
 10
-40.54772680682051
 20
1.192696959206783
 10
-40.55687537767622
 20
1.193249352004139
 10
-40.56227786092316
 20
1.188358538929543
 10
-40.56253377492876
 20
1.16462470302555
 10
-40.5607495857337
 20
1.142422699158901
 10
-40.56578856855142
 20
1.135286189016396
  0
ENDSEC
  0
SECTION
  2
OBJECTS
  0
DICTIONARY
  5
A
330
0
100
AcDbDictionary
281
1
  3
ACAD_COLOR
350
B
  3
ACAD_GROUP
350
C
  3
ACAD_LAYOUT
350
D
  3
ACAD_MATERIAL
350
E
  3
ACAD_MLEADERSTYLE
350
F
  3
ACAD_MLINESTYLE
350
10
  3
ACAD_PLOTSETTINGS
350
11
  3
ACAD_PLOTSTYLENAME
350
12
  3
ACAD_SCALELIST
350
14
  3
ACAD_TABLESTYLE
350
15
  3
ACAD_VISUALSTYLE
350
16
  3
EZDXF_META
350
2D
  0
DICTIONARY
  5
B
330
A
100
AcDbDictionary
281
1
  0
DICTIONARY
  5
C
330
A
100
AcDbDictionary
281
1
  0
DICTIONARY
  5
D
330
A
100
AcDbDictionary
281
1
  3
Model
350
1A
  3
Layout1
350
1E
  0
DICTIONARY
  5
E
330
A
100
AcDbDictionary
281
1
  3
ByBlock
350
1F
  3
ByLayer
350
20
  3
Global
350
21
  0
DICTIONARY
  5
F
330
A
100
AcDbDictionary
281
1
  3
Standard
350
2C
  0
DICTIONARY
  5
10
330
A
100
AcDbDictionary
281
1
  3
Standard
350
22
  0
DICTIONARY
  5
11
330
A
100
AcDbDictionary
281
1
  0
ACDBDICTIONARYWDFLT
  5
12
330
A
100
AcDbDictionary
281
1
  3
Normal
350
13
100
AcDbDictionaryWithDefault
340
13
  0
ACDBPLACEHOLDER
  5
13
330
12
  0
DICTIONARY
  5
14
330
A
100
AcDbDictionary
281
1
  0
DICTIONARY
  5
15
330
A
100
AcDbDictionary
281
1
  0
DICTIONARY
  5
16
330
A
100
AcDbDictionary
281
1
  0
LAYOUT
  5
1A
330
D
100
AcDbPlotSettings
  1

  4
A3
  6

 40
7.5
 41
20.0
 42
7.5
 43
20.0
 44
420.0
 45
297.0
 46
0.0
 47
0.0
 48
0.0
 49
0.0
140
0.0
141
0.0
142
1.0
143
1.0
 70
1024
 72
1
 73
0
 74
5
  7

 75
16
 76
0
 77
2
 78
300
147
1.0
148
0.0
149
0.0
100
AcDbLayout
  1
Model
 70
1
 71
0
 10
0.0
 20
0.0
 11
420.0
 21
297.0
 12
0.0
 22
0.0
 32
0.0
 14
1e+20
 24
1e+20
 34
1e+20
 15
-1e+20
 25
-1e+20
 35
-1e+20
146
0.0
 13
0.0
 23
0.0
 33
0.0
 16
1.0
 26
0.0
 36
0.0
 17
0.0
 27
1.0
 37
0.0
 76
1
330
17
  0
LAYOUT
  5
1E
330
D
100
AcDbPlotSettings
  1

  4
A3
  6

 40
7.5
 41
20.0
 42
7.5
 43
20.0
 44
420.0
 45
297.0
 46
0.0
 47
0.0
 48
0.0
 49
0.0
140
0.0
141
0.0
142
1.0
143
1.0
 70
0
 72
1
 73
0
 74
5
  7

 75
16
 76
0
 77
2
 78
300
147
1.0
148
0.0
149
0.0
100
AcDbLayout
  1
Layout1
 70
1
 71
1
 10
0.0
 20
0.0
 11
420.0
 21
297.0
 12
0.0
 22
0.0
 32
0.0
 14
1e+20
 24
1e+20
 34
1e+20
 15
-1e+20
 25
-1e+20
 35
-1e+20
146
0.0
 13
0.0
 23
0.0
 33
0.0
 16
1.0
 26
0.0
 36
0.0
 17
0.0
 27
1.0
 37
0.0
 76
1
330
1B
  0
MATERIAL
  5
1F
102
{ACAD_REACTORS
330
E
102
}
330
E
100
AcDbMaterial
  1
ByBlock
  2

 70
0
 40
1.0
 71
1
 41
1.0
 91
-1023410177
 42
1.0
 72
1
  3

 73
1
 74
1
 75
1
 44
0.5
 73
0
 45
1.0
 46
1.0
 77
1
  4

 78
1
 79
1
170
1
 48
1.0
171
1
  6

172
1
173
1
174
1
140
1.0
141
1.0
175
1
  7

176
1
177
1
178
1
143
1.0
179
1
  8

270
1
271
1
272
1
145
1.0
146
1.0
273
1
  9

274
1
275
1
276
1
 42
1.0
 72
1
  3

 73
1
 74
1
 75
1
 94
63
  0
MATERIAL
  5
20
102
{ACAD_REACTORS
330
E
102
}
330
E
100
AcDbMaterial
  1
ByLayer
  2

 70
0
 40
1.0
 71
1
 41
1.0
 91
-1023410177
 42
1.0
 72
1
  3

 73
1
 74
1
 75
1
 44
0.5
 73
0
 45
1.0
 46
1.0
 77
1
  4

 78
1
 79
1
170
1
 48
1.0
171
1
  6

172
1
173
1
174
1
140
1.0
141
1.0
175
1
  7

176
1
177
1
178
1
143
1.0
179
1
  8

270
1
271
1
272
1
145
1.0
146
1.0
273
1
  9

274
1
275
1
276
1
 42
1.0
 72
1
  3

 73
1
 74
1
 75
1
 94
63
  0
MATERIAL
  5
21
102
{ACAD_REACTORS
330
E
102
}
330
E
100
AcDbMaterial
  1
Global
  2

 70
0
 40
1.0
 71
1
 41
1.0
 91
-1023410177
 42
1.0
 72
1
  3

 73
1
 74
1
 75
1
 44
0.5
 73
0
 45
1.0
 46
1.0
 77
1
  4

 78
1
 79
1
170
1
 48
1.0
171
1
  6

172
1
173
1
174
1
140
1.0
141
1.0
175
1
  7

176
1
177
1
178
1
143
1.0
179
1
  8

270
1
271
1
272
1
145
1.0
146
1.0
273
1
  9

274
1
275
1
276
1
 42
1.0
 72
1
  3

 73
1
 74
1
 75
1
 94
63
  0
MLINESTYLE
  5
22
102
{ACAD_REACTORS
330
10
102
}
330
10
100
AcDbMlineStyle
  2
Standard
 70
0
  3

 62
256
 51
90.0
 52
90.0
 71
2
 49
0.5
 62
256
  6
BYLAYER
 49
-0.5
 62
256
  6
BYLAYER
  0
MLEADERSTYLE
  5
2C
102
{ACAD_REACTORS
330
F
102
}
330
F
100
AcDbMLeaderStyle
179
2
170
2
171
1
172
0
 90
2
 40
0.0
 41
0.0
173
1
 91
-1056964608
 92
-2
290
1
 42
2.0
291
1
 43
8.0
  3
Standard
 44
4.0
300

342
29
174
1
175
1
176
0
178
1
 93
-1056964608
 45
4.0
292
0
297
0
 46
4.0
 94
-1056964608
 47
1.0
 49
1.0
140
1.0
294
1
141
0.0
177
0
142
1.0
295
0
296
0
143
3.75
271
0
272
9
273
9
  0
DICTIONARY
  5
2D
330
A
100
AcDbDictionary
280
1
281
1
  3
CREATED_BY_EZDXF
350
2E
  3
WRITTEN_BY_EZDXF
350
1D1
  0
DICTIONARYVAR
  5
2E
330
2D
100
DictionaryVariables
280
0
  1
1.4.4 @ 2026-10-03T07:35:12.039878+00:00
  0
DICTIONARYVAR
  5
1D1
330
2D
100
DictionaryVariables
280
0
  1
1.4.4 @ 2026-10-03T07:35:12.056790+00:00
  0
ENDSEC
  0
EOF
