  0
SECTION
  2
HEADER
  9
$ACADVER
  1
AC1032
  9
$ACADMAINTVER
 90
4
  9
$DWGCODEPAGE
  3
ANSI_1252
  9
$LASTSAVEDBY
  1
ezdxf
  9
$REQUIREDVERSIONS
160
0
  9
$INSBASE
 10
0.0
 20
0.0
 30
0.0
  9
$EXTMIN
 10
1e+20
 20
1e+20
 30
1e+20
  9
$EXTMAX
 10
-1e+20
 20
-1e+20
 30
-1e+20
  9
$LIMMIN
 10
0.0
 20
0.0
  9
$LIMMAX
 10
420.0
 20
297.0
  9
$ORTHOMODE
 70
0
  9
$REGENMODE
 70
1
  9
$FILLMODE
 70
1
  9
$QTEXTMODE
 70
0
  9
$MIRRTEXT
 70
1
  9
$LTSCALE
 40
1.0
  9
$ATTMODE
 70
1
  9
$TEXTSIZE
 40
2.5
  9
$TRACEWID
 40
1.0
  9
$TEXTSTYLE
  7
Standard
  9
$CLAYER
  8
0
  9
$CELTYPE
  6
ByLayer
  9
$CECOLOR
 62
256
  9
$CELTSCALE
 40
1.0
  9
$DISPSILH
 70
0
  9
$DIMSCALE
 40
1.0
  9
$DIMASZ
 40
2.5
  9
$DIMEXO
 40
0.625
  9
$DIMDLI
 40
3.75
  9
$DIMRND
 40
0.0
  9
$DIMDLE
 40
0.0
  9
$DIMEXE
 40
1.25
  9
$DIMTP
 40
0.0
  9
$DIMTM
 40
0.0
  9
$DIMTXT
 40
2.5
  9
$DIMCEN
 40
2.5
  9
$DIMTSZ
 40
0.0
  9
$DIMTOL
 70
0
  9
$DIMLIM
 70
0
  9
$DIMTIH
 70
0
  9
$DIMTOH
 70
0
  9
$DIMSE1
 70
0
  9
$DIMSE2
 70
0
  9
$DIMTAD
 70
1
  9
$DIMZIN
 70
8
  9
$DIMBLK
  1

  9
$DIMASO
 70
1
  9
$DIMSHO
 70
1
  9
$DIMPOST
  1

  9
$DIMAPOST
  1

  9
$DIMALT
 70
0
  9
$DIMALTD
 70
3
  9
$DIMALTF
 40
0.03937007874
  9
$DIMLFAC
 40
1.0
  9
$DIMTOFL
 70
1
  9
$DIMTVP
 40
0.0
  9
$DIMTIX
 70
0
  9
$DIMSOXD
 70
0
  9
$DIMSAH
 70
0
  9
$DIMBLK1
  1

  9
$DIMBLK2
  1

  9
$DIMSTYLE
  2
ISO-25
  9
$DIMCLRD
 70
0
  9
$DIMCLRE
 70
0
  9
$DIMCLRT
 70
0
  9
$DIMTFAC
 40
1.0
  9
$DIMGAP
 40
0.625
  9
$DIMJUST
 70
0
  9
$DIMSD1
 70
0
  9
$DIMSD2
 70
0
  9
$DIMTOLJ
 70
0
  9
$DIMTZIN
 70
8
  9
$DIMALTZ
 70
0
  9
$DIMALTTZ
 70
0
  9
$DIMUPT
 70
0
  9
$DIMDEC
 70
2
  9
$DIMTDEC
 70
2
  9
$DIMALTU
 70
2
  9
$DIMALTTD
 70
3
  9
$DIMTXSTY
  7
Standard
  9
$DIMAUNIT
 70
0
  9
$DIMADEC
 70
0
  9
$DIMALTRND
 40
0.0
  9
$DIMAZIN
 70
0
  9
$DIMDSEP
 70
44
  9
$DIMATFIT
 70
3
  9
$DIMFRAC
 70
0
  9
$DIMLDRBLK
  1

  9
$DIMLUNIT
 70
2
  9
$DIMLWD
 70
-2
  9
$DIMLWE
 70
-2
  9
$DIMTMOVE
 70
0
  9
$DIMFXL
 40
1.0
  9
$DIMFXLON
 70
0
  9
$DIMJOGANG
 40
0.785398163397
  9
$DIMTFILL
 70
0
  9
$DIMTFILLCLR
 70
0
  9
$DIMARCSYM
 70
0
  9
$DIMLTYPE
  6

  9
$DIMLTEX1
  6

  9
$DIMLTEX2
  6

  9
$DIMTXTDIRECTION
 70
0
  9
$LUNITS
 70
2
  9
$LUPREC
 70
4
  9
$SKETCHINC
 40
1.0
  9
$FILLETRAD
 40
10.0
  9
$AUNITS
 70
0
  9
$AUPREC
 70
2
  9
$MENU
  1
.
  9
$ELEVATION
 40
0.0
  9
$PELEVATION
 40
0.0
  9
$THICKNESS
 40
0.0
  9
$LIMCHECK
 70
0
  9
$CHAMFERA
 40
0.0
  9
$CHAMFERB
 40
0.0
  9
$CHAMFERC
 40
0.0
  9
$CHAMFERD
 40
0.0
  9
$SKPOLY
 70
0
  9
$TDCREATE
 40
2461317.316122685
  9
$TDUCREATE
 40
2458532.153996898
  9
$TDUPDATE
 40
2461317.316122685
  9
$TDUUPDATE
 40
2458532.1544311
  9
$TDINDWG
 40
0.0
  9
$TDUSRTIMER
 40
0.0
  9
$USRTIMER
 70
1
  9
$ANGBASE
 50
0.0
  9
$ANGDIR
 70
0
  9
$PDMODE
 70
0
  9
$PDSIZE
 40
0.0
  9
$PLINEWID
 40
0.0
  9
$SPLFRAME
 70
0
  9
$SPLINETYPE
 70
6
  9
$SPLINESEGS
 70
8
  9
$HANDSEED
  5
139
  9
$SURFTAB1
 70
6
  9
$SURFTAB2
 70
6
  9
$SURFTYPE
 70
6
  9
$SURFU
 70
6
  9
$SURFV
 70
6
  9
$UCSBASE
  2

  9
$UCSNAME
  2

  9
$UCSORG
 10
0.0
 20
0.0
 30
0.0
  9
$UCSXDIR
 10
1.0
 20
0.0
 30
0.0
  9
$UCSYDIR
 10
0.0
 20
1.0
 30
0.0
  9
$UCSORTHOREF
  2

  9
$UCSORTHOVIEW
 70
0
  9
$UCSORGTOP
 10
0.0
 20
0.0
 30
0.0
  9
$UCSORGBOTTOM
 10
0.0
 20
0.0
 30
0.0
  9
$UCSORGLEFT
 10
0.0
 20
0.0
 30
0.0
  9
$UCSORGRIGHT
 10
0.0
 20
0.0
 30
0.0
  9
$UCSORGFRONT
 10
0.0
 20
0.0
 30
0.0
  9
$UCSORGBACK
 10
0.0
 20
0.0
 30
0.0
  9
$PUCSBASE
  2

  9
$PUCSNAME
  2

  9
$PUCSORG
 10
0.0
 20
0.0
 30
0.0
  9
$PUCSXDIR
 10
1.0
 20
0.0
 30
0.0
  9
$PUCSYDIR
 10
0.0
 20
1.0
 30
0.0
  9
$PUCSORTHOREF
  2

  9
$PUCSORTHOVIEW
 70
0
  9
$PUCSORGTOP
 10
0.0
 20
0.0
 30
0.0
  9
$PUCSORGBOTTOM
 10
0.0
 20
0.0
 30
0.0
  9
$PUCSORGLEFT
 10
0.0
 20
0.0
 30
0.0
  9
$PUCSORGRIGHT
 10
0.0
 20
0.0
 30
0.0
  9
$PUCSORGFRONT
 10
0.0
 20
0.0
 30
0.0
  9
$PUCSORGBACK
 10
0.0
 20
0.0
 30
0.0
  9
$USERI1
 70
0
  9
$USERI2
 70
0
  9
$USERI3
 70
0
  9
$USERI4
 70
0
  9
$USERI5
 70
0
  9
$USERR1
 40
0.0
  9
$USERR2
 40
0.0
  9
$USERR3
 40
0.0
  9
$USERR4
 40
0.0
  9
$USERR5
 40
0.0
  9
$WORLDVIEW
 70
1
  9
$SHADEDGE
 70
3
  9
$SHADEDIF
 70
70
  9
$TILEMODE
 70
1
  9
$MAXACTVP
 70
64
  9
$PINSBASE
 10
0.0
 20
0.0
 30
0.0
  9
$PLIMCHECK
 70
0
  9
$PEXTMIN
 10
1e+20
 20
1e+20
 30
1e+20
  9
$PEXTMAX
 10
-1e+20
 20
-1e+20
 30
-1e+20
  9
$PLIMMIN
 10
0.0
 20
0.0
  9
$PLIMMAX
 10
420.0
 20
297.0
  9
$UNITMODE
 70
0
  9
$VISRETAIN
 70
1
  9
$PLINEGEN
 70
0
  9
$PSLTSCALE
 70
1
  9
$TREEDEPTH
 70
3020
  9
$CMLSTYLE
  2
Standard
  9
$CMLJUST
 70
0
  9
$CMLSCALE
 40
20.0
  9
$PROXYGRAPHICS
 70
1
  9
$MEASUREMENT
 70
1
  9
$CELWEIGHT
370
-1
  9
$ENDCAPS
280
0
  9
$JOINSTYLE
280
0
  9
$LWDISPLAY
290
0
  9
$INSUNITS
 70
6
  9
$HYPERLINKBASE
  1

  9
$STYLESHEET
  1

  9
$XEDIT
290
1
  9
$CEPSNTYPE
380
0
  9
$PSTYLEMODE
290
1
  9
$FINGERPRINTGUID
  2
{3AAA407A-264C-4DD9-8488-0D8A049B400C}
  9
$VERSIONGUID
  2
{19C2EE4D-9D58-4D66-B098-1948D4A79A22}
  9
$EXTNAMES
290
1
  9
$PSVPSCALE
 40
0.0
  9
$OLESTARTUP
290
0
  9
$SORTENTS
280
127
  9
$INDEXCTL
280
0
  9
$HIDETEXT
280
1
  9
$XCLIPFRAME
280
1
  9
$HALOGAP
280
0
  9
$OBSCOLOR
 70
257
  9
$OBSLTYPE
280
0
  9
$INTERSECTIONDISPLAY
280
0
  9
$INTERSECTIONCOLOR
 70
257
  9
$DIMASSOC
280
2
  9
$PROJECTNAME
  1

  9
$CAMERADISPLAY
290
0
  9
$LENSLENGTH
 40
50.0
  9
$CAMERAHEIGHT
 40
0.0
  9
$STEPSPERSEC
 40
24.0
  9
$STEPSIZE
 40
100.0
  9
$3DDWFPREC
 40
2.0
  9
$PSOLWIDTH
 40
0.005
  9
$PSOLHEIGHT
 40
0.08
  9
$LOFTANG1
 40
1.570796326795
  9
$LOFTANG2
 40
1.570796326795
  9
$LOFTMAG1
 40
0.0
  9
$LOFTMAG2
 40
0.0
  9
$LOFTPARAM
 70
7
  9
$LOFTNORMALS
280
1
  9
$LATITUDE
 40
37.795
  9
$LONGITUDE
 40
-122.394
  9
$NORTHDIRECTION
 40
0.0
  9
$TIMEZONE
 70
-8000
  9
$LIGHTGLYPHDISPLAY
280
1
  9
$TILEMODELIGHTSYNCH
280
1
  9
$CMATERIAL
347
20
  9
$SOLIDHIST
280
0
  9
$SHOWHIST
280
1
  9
$DWFFRAME
280
2
  9
$DGNFRAME
280
2
  9
$REALWORLDSCALE
290
1
  9
$INTERFERECOLOR
 62
256
  9
$CSHADOW
280
0
  9
$SHADOWPLANELOCATION
 40
0.0
  0
ENDSEC
  0
SECTION
  2
CLASSES
  0
CLASS
  1
ACDBDICTIONARYWDFLT
  2
AcDbDictionaryWithDefault
  3
ObjectDBX Classes
 90
0
 91
0
280
0
281
0
  0
CLASS
  1
SUN
  2
AcDbSun
  3
SCENEOE
 90
1153
 91
0
280
0
281
0
  0
CLASS
  1
VISUALSTYLE
  2
AcDbVisualStyle
  3
ObjectDBX Classes
 90
4095
 91
0
280
0
281
0
  0
CLASS
  1
MATERIAL
  2
AcDbMaterial
  3
ObjectDBX Classes
 90
1153
 91
0
280
0
281
0
  0
CLASS
  1
SCALE
  2
AcDbScale
  3
ObjectDBX Classes
 90
1153
 91
0
280
0
281
0
  0
CLASS
  1
TABLESTYLE
  2
AcDbTableStyle
  3
ObjectDBX Classes
 90
4095
 91
0
280
0
281
0
  0
CLASS
  1
MLEADERSTYLE
  2
AcDbMLeaderStyle
  3
ACDB_MLEADERSTYLE_CLASS
 90
4095
 91
0
280
0
281
0
  0
CLASS
  1
DICTIONARYVAR
  2
AcDbDictionaryVar
  3
ObjectDBX Classes
 90
0
 91
0
280
0
281
0
  0
CLASS
  1
CELLSTYLEMAP
  2
AcDbCellStyleMap
  3
ObjectDBX Classes
 90
1152
 91
0
280
0
281
0
  0
CLASS
  1
MENTALRAYRENDERSETTINGS
  2
AcDbMentalRayRenderSettings
  3
SCENEOE
 90
1024
 91
0
280
0
281
0
  0
CLASS
  1
ACDBDETAILVIEWSTYLE
  2
AcDbDetailViewStyle
  3
ObjectDBX Classes
 90
1025
 91
0
280
0
281
0
  0
CLASS
  1
ACDBSECTIONVIEWSTYLE
  2
AcDbSectionViewStyle
  3
ObjectDBX Classes
 90
1025
 91
0
280
0
281
0
  0
CLASS
  1
RASTERVARIABLES
  2
AcDbRasterVariables
  3
ISM
 90
0
 91
0
280
0
281
0
  0
CLASS
  1
ACDBPLACEHOLDER
  2
AcDbPlaceHolder
  3
ObjectDBX Classes
 90
0
 91
0
280
0
281
0
  0
CLASS
  1
LAYOUT
  2
AcDbLayout
  3
ObjectDBX Classes
 90
0
 91
0
280
0
281
0
  0
ENDSEC
  0
SECTION
  2
TABLES
  0
TABLE
  2
VPORT
  5
8
330
0
100
AcDbSymbolTable
 70
1
  0
VPORT
  5
23
330
8
100
AcDbSymbolTableRecord
100
AcDbViewportTableRecord
  2
*Active
 70
0
 10
0.0
 20
0.0
 11
1.0
 21
1.0
 12
0.0
 22
0.0
 13
0.0
 23
0.0
 14
0.5
 24
0.5
 15
0.5
 25
0.5
 16
0.0
 26
0.0
 36
1.0
 17
0.0
 27
0.0
 37
0.0
 40
1000.0
 41
1.34
 42
50.0
 43
0.0
 44
0.0
 50
0.0
 51
0.0
 71
0
 72
1000
 73
1
 74
3
 75
0
 76
0
 77
0
 78
0
281
0
 65
0
146
0.0
  0
ENDTAB
  0
TABLE
  2
LTYPE
  5
2
330
0
100
AcDbSymbolTable
 70
3
  0
LTYPE
  5
24
330
2
100
AcDbSymbolTableRecord
100
AcDbLinetypeTableRecord
  2
ByBlock
 70
0
  3

 72
65
 73
0
 40
0.0
  0
LTYPE
  5
25
330
2
100
AcDbSymbolTableRecord
100
AcDbLinetypeTableRecord
  2
ByLayer
 70
0
  3

 72
65
 73
0
 40
0.0
  0
LTYPE
  5
26
330
2
100
AcDbSymbolTableRecord
100
AcDbLinetypeTableRecord
  2
Continuous
 70
0
  3

 72
65
 73
0
 40
0.0
  0
ENDTAB
  0
TABLE
  2
LAYER
  5
1
330
0
100
AcDbSymbolTable
 70
4
  0
LAYER
  5
27
330
1
100
AcDbSymbolTableRecord
100
AcDbLayerTableRecord
  2
0
 70
0
 62
7
  6
Continuous
370
-3
390
13
347
21
  0
LAYER
  5
28
330
1
100
AcDbSymbolTableRecord
100
AcDbLayerTableRecord
  2
Defpoints
 70
0
 62
7
  6
Continuous
290
0
370
-3
390
13
347
21
  0
LAYER
  5
35
330
1
100
AcDbSymbolTableRecord
100
AcDbLayerTableRecord
  2
0-cortes
 70
0
 62
7
  6
Continuous
370
-3
390
13
347
21
  0
LAYER
  5
126
330
1
100
AcDbSymbolTableRecord
100
AcDbLayerTableRecord
  2
0-TEXTO
 70
0
 62
7
  6
Continuous
370
-3
390
13
347
21
  0
ENDTAB
  0
TABLE
  2
STYLE
  5
5
330
0
100
AcDbSymbolTable
 70
1
  0
STYLE
  5
29
330
5
100
AcDbSymbolTableRecord
100
AcDbTextStyleTableRecord
  2
Standard
 70
0
 40
0.0
 41
1.0
 50
0.0
 71
0
 42
2.5
  3
txt
  4

  0
ENDTAB
  0
TABLE
  2
VIEW
  5
7
330
0
100
AcDbSymbolTable
 70
0
  0
ENDTAB
  0
TABLE
  2
UCS
  5
6
330
0
100
AcDbSymbolTable
 70
0
  0
ENDTAB
  0
TABLE
  2
APPID
  5
3
330
0
100
AcDbSymbolTable
 70
3
  0
APPID
  5
2A
330
3
100
AcDbSymbolTableRecord
100
AcDbRegAppTableRecord
  2
ACAD
 70
0
  0
APPID
  5
136
330
3
100
AcDbSymbolTableRecord
100
AcDbRegAppTableRecord
  2
HATCHBACKGROUNDCOLOR
 70
0
  0
APPID
  5
137
330
3
100
AcDbSymbolTableRecord
100
AcDbRegAppTableRecord
  2
EZDXF
 70
0
  0
ENDTAB
  0
TABLE
  2
DIMSTYLE
  5
4
330
0
100
AcDbSymbolTable
 70
1
100
AcDbDimStyleTable
  0
DIMSTYLE
105
2B
330
4
100
AcDbSymbolTableRecord
100
AcDbDimStyleTableRecord
  2
Standard
 70
0
 40
1.0
 41
2.5
 42
0.625
 43
3.75
 44
1.25
 45
0.0
 46
0.0
 47
0.0
 48
0.0
 49
2.5
140
2.5
141
2.5
142
0.0
143
0.03937007874
144
1.0
145
0.0
146
1.0
147
0.625
148
0.0
 69
0
 70
0
 71
0
 72
0
 73
0
 74
0
 75
0
 76
0
 77
1
 78
8
 79
3
170
0
171
3
172
1
173
0
174
0
175
0
176
0
177
0
178
0
179
2
271
2
272
2
273
2
274
3
275
0
276
0
277
2
278
44
279
0
280
0
281
0
282
0
283
0
284
8
285
0
286
0
288
0
289
3
290
0
371
-2
372
-2
  0
ENDTAB
  0
TABLE
  2
BLOCK_RECORD
  5
9
330
0
100
AcDbSymbolTable
 70
2
  0
BLOCK_RECORD
  5
17
330
9
100
AcDbSymbolTableRecord
100
AcDbBlockTableRecord
  2
*Model_Space
340
1A
 70
0
280
1
281
0
  0
BLOCK_RECORD
  5
1B
330
9
100
AcDbSymbolTableRecord
100
AcDbBlockTableRecord
  2
*Paper_Space
340
1E
 70
0
280
1
281
0
  0
ENDTAB
  0
ENDSEC
  0
SECTION
  2
BLOCKS
  0
BLOCK
  5
18
330
17
100
AcDbEntity
  8
0
100
AcDbBlockBegin
  2
*Model_Space
 70
0
 10
0.0
 20
0.0
 30
0.0
  3
*Model_Space
  1

  0
ENDBLK
  5
19
330
17
100
AcDbEntity
  8
0
100
AcDbBlockEnd
  0
BLOCK
  5
1C
330
1B
100
AcDbEntity
  8
0
100
AcDbBlockBegin
  2
*Paper_Space
 70
0
 10
0.0
 20
0.0
 30
0.0
  3
*Paper_Space
  1

  0
ENDBLK
  5
1D
330
1B
100
AcDbEntity
  8
0
100
AcDbBlockEnd
  0
ENDSEC
  0
SECTION
  2
ENTITIES
  0
LINE
  5
2F
330
17
100
AcDbEntity
  8
0
 62
8
100
AcDbLine
 10
-24.81697483196821
 20
7.599999999999997
 30
0.0
 11
-24.81697483196821
 21
0.0
 31
0.0
  0
LINE
  5
30
330
17
100
AcDbEntity
  8
0
 62
4
100
AcDbLine
 10
-30.62687485641861
 20
0.0
 30
0.0
 11
-22.65954276442281
 21
3.6e-15
 31
0.0
  0
LINE
  5
31
330
17
100
AcDbEntity
  8
0
 62
4
100
AcDbLine
 10
-22.15954276442281
 20
1.8e-15
 30
0.0
 11
-19.81697483196822
 21
0.0
 31
0.0
  0
LINE
  5
32
330
17
100
AcDbEntity
  8
0
 62
8
100
AcDbLine
 10
-24.81697483196821
 20
7.599999999999997
 30
0.0
 11
-23.81697483196821
 21
7.599999999999997
 31
0.0
  0
LWPOLYLINE
  5
33
330
17
100
AcDbEntity
  8
0
 62
11
100
AcDbPolyline
 90
4
 70
1
 10
-24.11697483196821
 20
7.599999999999997
 10
-24.11697483196821
 20
7.099999999999997
 10
-23.81697483196821
 20
7.099999999999997
 10
-23.81697483196821
 20
7.599999999999997
  0
LINE
  5
34
330
17
100
AcDbEntity
  8
0
 62
8
100
AcDbLine
 10
-23.81697483196821
 20
7.599999999999997
 30
0.0
 11
-23.81697483196821
 21
0.0
 31
0.0
  0
LWPOLYLINE
  5
36
330
17
100
AcDbEntity
  8
0-cortes
 62
251
100
AcDbPolyline
 90
195
 70
0
 10
-25.93273108697319
 20
1.424024736101607
 10
-25.94074983474236
 20
1.46698949761188
 10
-25.94496743994826
 20
1.506069416994751
 10
-25.93453320709274
 20
1.529457420775855
 10
-25.93176759048764
 20
1.569189844103309
 10
-25.93583590690374
 20
1.600059614852259
 10
-25.92620438147786
 20
1.627928386499959
 10
-25.92562655150893
 20
1.654214256382736
 10
-25.90158951677042
 20
1.679304680177459
 10
-25.88519994563971
 20
1.687874404453161
 10
-25.86880392384053
 20
1.699912355285412
 10
-25.83852668659053
 20
1.699030575285402
 10
-25.81008556534865
 20
1.696827624764715
 10
-25.77354874977839
 20
1.68039111852039
 10
-25.74962066960838
 20
1.653221404989785
 10
-25.7301384240679
 20
1.618259623151228
 10
-25.7205820664624
 20
1.593074723081123
 10
-25.70753753291409
 20
1.572688957292395
 10
-25.70348085896608
 20
1.548198975426128
 10
-25.69791073543302
 20
1.528499002770914
 10
-25.69234022644828
 20
1.51532597280164
 10
-25.69238225100664
 20
1.49273130865443
 10
-25.69468723431611
 20
1.479470543146554
 10
-25.68841071001525
 20
1.454067779602873
 10
-25.69161111503347
 20
1.427038108731064
 10
-25.69084504343717
 20
1.415499351580031
 10
-25.67795929885652
 20
1.410855332865551
 10
-25.66395451937705
 20
1.401173248057297
 10
-25.65401249476862
 20
1.381113200933221
 10
-25.65085527526763
 20
1.359645203056789
 10
-25.64616676403288
 20
1.327764952348442
 10
-25.64179200809794
 20
1.298018128887704
 10
-25.63719905580733
 20
1.263673735380361
 10
-25.63728678251921
 20
1.216507134013326
 10
-25.63101574945928
 20
1.181832281670793
 10
-25.6322633865728
 20
1.143005687908182
 10
-25.63073916524341
 20
1.121988654787184
 10
-25.61806984369493
 20
1.07682039882842
 10
-25.60847951412926
 20
1.042629265633831
 10
-25.60176962434012
 20
1.01870738329082
 10
-25.60182496809197
 20
0.988951603966619
 10
-25.59829916374515
 20
0.9504680749497644
 10
-25.59069777504682
 20
0.9042982086746036
 10
-25.58350532638236
 20
0.8657694661610122
 10
-25.58355420626377
 20
0.8394890114309667
 10
-25.57909852551591
 20
0.8083369657894508
 10
-25.57389349302007
 20
0.7756157801934159
 10
-25.56726961107147
 20
0.7536998060325715
 10
-25.56974532255895
 20
0.73080251810212
 10
-25.57693427785988
 20
0.7143321575016728
 10
-25.58259325685394
 20
0.7052177599866987
 10
-25.50827467358319
 20
0.520136671396859
 10
-25.48770192858258
 20
0.4711143371290376
 10
-25.47795838478599
 20
0.4454555655600992
 10
-25.46253856547382
 20
0.3939728152371664
 10
-25.44962752379392
 20
0.3460525551242171
 10
-25.44793644151146
 20
0.3009943034511373
 10
-25.44953078168457
 20
0.2590328621136564
 10
-25.45347094575924
 20
0.2387298784354179
 10
-25.45855815846305
 20
0.2125163516539743
 10
-25.48568380641241
 20
0.2037490646684752
 10
-25.50805958397287
 20
0.1997209409318152
 10
-25.53264755645675
 20
0.1880821644261736
 10
-25.55433402204933
 20
0.1881224997961972
 10
-25.57535900891994
 20
0.1835863455134508
 10
-25.63788296577487
 20
0.1818405373170826
 10
-25.65313233905438
 20
0.1985701964821054
 10
-25.6462541009693
 20
0.2249339335264651
 10
-25.64945185542511
 20
0.2435672656899968
 10
-25.665163363194
 20
0.2962151700038937
 10
-25.67153713247829
 20
0.3388505247939442
 10
-25.663715521128
 20
0.4047645044571837
 10
-25.65493218994912
 20
0.4632155032209404
 10
-25.64417112130347
 20
0.5232945593765024
 10
-25.61324201470372
 20
0.702260852518041
 10
-25.62206814643464
 20
0.7155935128648993
 10
-25.63096068990321
 20
0.724818161768912
 10
-25.63360063399283
 20
0.7084161278819359
 10
-25.63489033486447
 20
0.691211712118367
 10
-25.63844472021763
 20
0.6824133484068291
 10
-25.6506936846006
 20
0.6818410269953752
 10
-25.66010440910778
 20
0.6778911725560164
 10
-25.68964047831007
 20
0.6791235170596189
 10
-25.70024089483464
 20
0.6295832560087149
 10
-25.71128429727317
 20
0.5779727331176261
 10
-25.7191808070039
 20
0.5327125703306664
 10
-25.72247708292504
 20
0.4983754607477593
 10
-25.72214415652307
 20
0.4688244252178535
 10
-25.72148574571553
 20
0.4499590543900105
 10
-25.71741946447339
 20
0.4179950645618078
 10
-25.72159066944524
 20
0.3619478970262868
 10
-25.72732664450801
 20
0.305116567271078
 10
-25.74242417776033
 20
0.2391713275852219
 10
-25.75660570143653
 20
0.1791050322107743
 10
-25.76490909952089
 20
0.1511825986230662
 10
-25.76796648599076
 20
0.1315306673782324
 10
-25.77072800384242
 20
0.1003216566351597
 10
-25.76406103539567
 20
0.0889318983153054
 10
-25.76227945253022
 20
0.0609331166625182
 10
-25.74192062091539
 20
0.035932891568006
 10
-25.73739309209653
 20
0.0244511280001447
 10
-25.7443624001365
 20
-0.000319097593966
 10
-25.82393942551794
 20
-0.000823784009846
 10
-25.83278424546195
 20
0.0151004915654909
 10
-25.82744304863523
 20
0.0366294705279415
 10
-25.82978325498043
 20
0.0613082288038704
 10
-25.82973574378331
 20
0.0868528052058082
 10
-25.8226808973309
 20
0.0944160571835937
 10
-25.82555791581099
 20
0.2033381765422959
 10
-25.82546240545106
 20
0.2546896859672536
 10
-25.82854029267434
 20
0.2808927697408805
 10
-25.82891088654277
 20
0.3407493694049037
 10
-25.82467936995535
 20
0.372345982859855
 10
-25.82260917084211
 20
0.404727289843752
 10
-25.82516492299574
 20
0.43359137155446
 10
-25.8272033886323
 20
0.4561899052737424
 10
-25.83109710615055
 20
0.4861379004478366
 10
-25.83369284670452
 20
0.5061026835167262
 10
-25.83365132496344
 20
0.5284270060318939
 10
-25.83674219486726
 20
0.5350492837438772
 10
-25.84094966561547
 20
0.5227007096396683
 10
-25.84465312013522
 20
0.4969517672304918
 10
-25.84839812218074
 20
0.47091395807713
 10
-25.85692658181868
 20
0.4452901618432357
 10
-25.85314628356348
 20
0.423878595758854
 10
-25.84816127187866
 20
0.3929367314127887
 10
-25.84211204026793
 20
0.3654035355649228
 10
-25.84216258637365
 20
0.3382272289570096
 10
-25.84015497699197
 20
0.305358415214549
 10
-25.84135721409236
 20
0.2846216085806503
 10
-25.8441949367993
 20
0.2629983878257747
 10
-25.84745915170656
 20
0.2269398972631151
 10
-25.85050354543098
 20
0.1763553492927166
 10
-25.85261214101702
 20
0.1043709247824722
 10
-25.84354449878141
 20
0.0944932558669507
 10
-25.83900307920065
 20
0.0272828879362628
 10
-25.85342730973214
 20
0.0199957000467812
 10
-25.87566836606429
 20
-7.48773129189e-05
 10
-25.95618451203255
 20
7.48773129153e-05
 10
-25.96518003435976
 20
0.0108098732827209
 10
-25.95600510568501
 20
0.0333363591281959
 10
-25.93562159094252
 20
0.0532056245385455
 10
-25.92311284979591
 20
0.0796932674717681
 10
-25.91869049972898
 20
0.0874981773891044
 10
-25.91667741910503
 20
0.101808915932093
 10
-25.90632677660186
 20
0.1055330584419423
 10
-25.9040940560182
 20
0.1178597095922598
 10
-25.90737077380014
 20
0.1319563230608907
 10
-25.94071777377157
 20
0.2392457880111607
 10
-25.9418834653434
 20
0.3139942560128688
 10
-25.94959216778268
 20
0.3719832086146049
 10
-25.94984260608108
 20
0.4269251803529599
 10
-25.94950571153366
 20
0.4879834693905139
 10
-25.94942868436242
 20
0.5293974219142826
 10
-25.95415995990139
 20
0.5577280369662745
 10
-25.96128612044449
 20
0.5939786249616148
 10
-25.96360464936934
 20
0.6366320331343865
 10
-25.96519786702278
 20
0.665942067679758
 10
-25.98170072535796
 20
0.6837876624047788
 10
-25.98637374635725
 20
0.7055208370998436
 10
-25.98879577241316
 20
0.7241271306040141
 10
-25.99641091206637
 20
0.7565840423444606
 10
-26.0065078787258
 20
0.781814740659975
 10
-26.0074351012069
 20
0.8331041626582589
 10
-26.01401320419429
 20
0.8543545594040757
 10
-26.0071480486675
 20
0.8863238133513497
 10
-25.99610861136337
 20
0.9191171687496968
 10
-25.98762478989532
 20
0.9555690859342114
 10
-25.9780835773221
 20
0.979118724776228
 10
-25.96978258796183
 20
0.9994263955400519
 10
-25.96183563765048
 20
1.00633529392503
 10
-25.96552948837287
 20
1.017348382526904
 10
-25.96374581432211
 20
1.034711853635759
 10
-25.99861224338933
 20
1.045520563611802
 10
-26.02432375957802
 20
1.055454784872054
 10
-26.04513197287379
 20
1.066352528863994
 10
-26.05225293162071
 20
1.073801369677735
 10
-26.05715208815384
 20
1.081386855298521
 10
-26.05769305695664
 20
1.09387863942803
 10
-26.05808658441715
 20
1.10980639305897
 10
-26.05790803688633
 20
1.123647020365272
 10
-26.05465147661262
 20
1.136630860546429
 10
-26.04908416995484
 20
1.153334600013113
 10
-26.04437755152945
 20
1.181263723369497
 10
-26.04018905003242
 20
1.202372514636035
 10
-26.03148322748699
 20
1.244429511483669
 10
-26.02181452415216
 20
1.304926532033757
 10
-26.0169924466875
 20
1.331735621922923
 10
-26.00792534812292
 20
1.359483863047991
 10
-25.99666305472734
 20
1.379382891245505
 10
-25.98316531718238
 20
1.394113797621756
 10
-25.96400758630814
 20
1.405865057438685
 10
-25.94779430410291
 20
1.414447907528735
 10
-25.93534931063822
 20
1.419300771336317
 10
-25.93273108697319
 20
1.424024736101607
  0
LWPOLYLINE
  5
37
330
17
100
AcDbEntity
  8
0-cortes
 62
251
100
AcDbPolyline
 90
21
 70
0
 10
-25.96498541564124
 20
1.101320976742382
 10
-25.97326790070873
 20
1.103601614907486
 10
-25.98506445770461
 20
1.106119151719074
 10
-25.98960678021537
 20
1.109647030399717
 10
-25.98960066279172
 20
1.112936086579765
 10
-25.98958461943154
 20
1.121561860375383
 10
-25.98305868546051
 20
1.148099024712763
 10
-25.97996049964051
 20
1.160697538062319
 10
-25.97735218853866
 20
1.171304016868074
 10
-25.97431043445194
 20
1.183673055297184
 10
-25.97043140085823
 20
1.194084090838366
 10
-25.96560043210066
 20
1.194075105560813
 10
-25.96176976356476
 20
1.187105907811041
 10
-25.96009078140564
 20
1.173460193511854
 10
-25.96010678906102
 20
1.164853616542981
 10
-25.96129428737719
 20
1.158360876627352
 10
-25.96212599901206
 20
1.147247422877711
 10
-25.96277729646577
 20
1.132019099640281
 10
-25.96174393009572
 20
1.112519533972953
 10
-25.96265257718393
 20
1.10427935820774
 10
-25.96498541564124
 20
1.101320976742382
  0
LWPOLYLINE
  5
38
330
17
100
AcDbEntity
  8
0-cortes
 62
251
100
AcDbPolyline
 90
29
 70
0
 10
-25.63983886512899
 20
0.8112846798483488
 10
-25.64516843028561
 20
0.8339277285762491
 10
-25.65120147762012
 20
0.8512033548365423
 10
-25.65270135747333
 20
0.8726682701734098
 10
-25.66119238560485
 20
0.8892189862026569
 10
-25.66456811441153
 20
0.9132789709613717
 10
-25.66749860498364
 20
0.9341655890934923
 10
-25.67389493262304
 20
0.9544416575131329
 10
-25.67931269214891
 20
0.9739045851085244
 10
-25.68014190984532
 20
0.9894108174621933
 10
-25.68326904399653
 20
1.008095209989928
 10
-25.69180630795047
 20
1.018746167095695
 10
-25.68931165561723
 20
1.02654826343701
 10
-25.68599682890225
 20
1.032941062202574
 10
-25.68462384632413
 20
1.038044881915688
 10
-25.68037143892941
 20
1.036635599581334
 10
-25.67784725792272
 20
1.028715386157024
 10
-25.67180166140683
 20
1.009745900785446
 10
-25.66570218796524
 20
0.9906073638483476
 10
-25.65386967469713
 20
0.9523247485386505
 10
-25.64498855912543
 20
0.9235910109757945
 10
-25.6373938951712
 20
0.8998098009771346
 10
-25.63155432997734
 20
0.8796230059055787
 10
-25.62695331716982
 20
0.8634122711769158
 10
-25.62546054527225
 20
0.8507651416197035
 10
-25.62511480354159
 20
0.8407437207504102
 10
-25.62847249792741
 20
0.8302620636420172
 10
-25.63319211830073
 20
0.8206212039256932
 10
-25.63983886512899
 20
0.8112846798483488
  0
LWPOLYLINE
  5
39
330
17
100
AcDbEntity
  8
0-cortes
 62
251
100
AcDbPolyline
 90
15
 70
0
 10
-25.61075056199651
 20
0.7273017641511395
 10
-25.62298084546389
 20
0.7304536051121673
 10
-25.62294496213245
 20
0.7497464151957374
 10
-25.62053004212912
 20
0.7589180381549383
 10
-25.6188673179682
 20
0.7652328970603826
 10
-25.6140180376333
 20
0.7716462638284867
 10
-25.60877567250954
 20
0.7716365133813065
 10
-25.60601927154922
 20
0.7684958942413047
 10
-25.6042095486951
 20
0.7619463879832189
 10
-25.60170278362314
 20
0.7528742400079942
 10
-25.59864073906188
 20
0.7417924989717122
 10
-25.59580175656687
 20
0.738561733085124
 10
-25.60011556972502
 20
0.7322347820092823
 10
-25.60529296780716
 20
0.7292560953772167
 10
-25.61075056199651
 20
0.7273017641511395
  0
LWPOLYLINE
  5
3A
330
17
100
AcDbEntity
  8
0-cortes
 62
251
100
AcDbPolyline
 90
15
 70
0
 10
-25.61444796112288
 20
0.52153715183794
 10
-25.60258287598207
 20
0.7012171929756441
 10
-25.59662350576274
 20
0.7012061089471225
 10
-25.59253695419033
 20
0.6990996480041503
 10
-25.5748812146647
 20
0.642704733539734
 10
-25.5489427385444
 20
0.5209673890333342
 10
-25.55483445195815
 20
0.5194361968717267
 10
-25.56283133856356
 20
0.5173578931207139
 10
-25.56504877381612
 20
0.5068492355073673
 10
-25.56749613568648
 20
0.4991942273833417
 10
-25.57296772156
 20
0.4960369169263715
 10
-25.57754946027687
 20
0.4973316304405593
 10
-25.59107227069374
 20
0.5070384146744153
 10
-25.60827704403347
 20
0.5151906998668423
 10
-25.61444796112288
 20
0.52153715183794
  0
LWPOLYLINE
  5
3B
330
17
100
AcDbEntity
  8
0-cortes
 62
251
100
AcDbPolyline
 90
10
 70
0
 10
-25.62431710491809
 20
0.5744621431324184
 10
-25.62898591655458
 20
0.5605402819181898
 10
-25.63288356160119
 20
0.5489179510927791
 10
-25.63291429848862
 20
0.5323921463134021
 10
-25.6329297824734
 20
0.5240671227924026
 10
-25.62854343891034
 20
0.5203731611536498
 10
-25.62400339200762
 20
0.5257641769398022
 10
-25.6231813355685
 20
0.5468229046401661
 10
-25.62241890133861
 20
0.5663542823814645
 10
-25.62431710491809
 20
0.5744621431324184
  0
LWPOLYLINE
  5
3C
330
17
100
AcDbEntity
  8
0
 62
8
100
AcDbPolyline
 90
6
 70
0
 10
-27.16244246672187
 20
0.2414032251926983
 10
-27.63266004487827
 20
0.2414032251926983
 10
-27.63266004487827
 20
0.0
 10
-27.73872606205623
 20
0.1060660171779659
 10
-27.63266004487827
 20
0.0
 10
-27.52305849379434
 20
0.1096015510839265
  0
LINE
  5
3D
330
17
100
AcDbEntity
  8
0
 62
4
100
AcDbLine
 10
-19.81697483196822
 20
-0.1499999999999986
 30
0.0
 11
-19.61697483196822
 21
-0.1499999999999986
 31
0.0
  0
LINE
  5
3E
330
17
100
AcDbEntity
  8
0
 62
4
100
AcDbLine
 10
-19.81697483196822
 20
0.0
 30
0.0
 11
-19.81697483196822
 21
-0.1499999999999986
 31
0.0
  0
LINE
  5
3F
330
17
100
AcDbEntity
  8
0
 62
8
100
AcDbLine
 10
-17.93023904556476
 20
1.272412938982949
 30
0.0
 11
-17.98603708699271
 21
1.687737268238311
 31
0.0
  0
LINE
  5
40
330
17
100
AcDbEntity
  8
0
 62
8
100
AcDbLine
 10
-17.9095211952072
 20
0.9625169990388648
 30
0.0
 11
-17.896110682388
 21
0.7225769776883233
 31
0.0
  0
LINE
  5
41
330
17
100
AcDbEntity
  8
0
 62
8
100
AcDbLine
 10
-17.88252213131322
 20
0.4854164842480877
 30
0.0
 11
-17.88252213131322
 21
0.4133549582033603
 31
0.0
  0
LINE
  5
42
330
17
100
AcDbEntity
  8
0
 62
8
100
AcDbLine
 10
-17.88252213131322
 20
0.4133549582033603
 30
0.0
 11
-17.94076586911187
 21
0.3506339542199548
 31
0.0
  0
LINE
  5
43
330
17
100
AcDbEntity
  8
0
 62
8
100
AcDbLine
 10
-17.97678288504529
 20
0.4854164842480877
 30
0.0
 11
-17.8101574780237
 21
0.7322270121510819
 31
0.0
  0
LINE
  5
44
330
17
100
AcDbEntity
  8
0
 62
8
100
AcDbLine
 10
-17.96968238411138
 20
1.041845557653335
 30
0.0
 11
-17.94494976432089
 21
0.9625169990388648
 31
0.0
  0
LINE
  5
45
330
17
100
AcDbEntity
  8
0
 62
8
100
AcDbLine
 10
-17.94494976432089
 20
0.9625169990388648
 30
0.0
 11
-17.9095211952072
 21
0.9625169990388648
 31
0.0
  0
LINE
  5
46
330
17
100
AcDbEntity
  8
0
 62
8
100
AcDbLine
 10
-17.89117345064058
 20
1.082862131583599
 30
0.0
 11
-17.970410398124
 21
1.137069577884719
 31
0.0
  0
LINE
  5
47
330
17
100
AcDbEntity
  8
0
 62
8
100
AcDbLine
 10
-17.76628205725903
 20
1.389257318857961
 30
0.0
 11
-17.67515781223532
 21
1.396879316818367
 31
0.0
  0
LINE
  5
48
330
17
100
AcDbEntity
  8
0
 62
8
100
AcDbLine
 10
-17.6792487987898
 20
1.199049243814226
 30
0.0
 11
-17.7756920009693
 21
1.20283562954874
 31
0.0
  0
LINE
  5
49
330
17
100
AcDbEntity
  8
0
 62
8
100
AcDbLine
 10
-17.79447093272871
 20
1.223779042363492
 30
0.0
 11
-17.78419639476856
 21
1.371093732700547
 31
0.0
  0
ARC
  5
4A
330
17
100
AcDbEntity
  8
0
 62
8
100
AcDbCircle
 10
-17.95937002706607
 20
1.268499246482537
 30
0.0
 40
0.029392704404644
100
AcDbArc
 50
270.0
 51
7.65176296164499
  0
LINE
  5
4B
330
17
100
AcDbEntity
  8
0
 62
8
100
AcDbLine
 10
-17.85534797790136
 20
1.190930672318547
 30
0.0
 11
-17.79255952142965
 21
1.251184553415871
 31
0.0
  0
LINE
  5
4C
330
17
100
AcDbEntity
  8
0
 62
8
100
AcDbLine
 10
-17.79302085231016
 20
1.223681091804376
 30
0.0
 11
-17.84840563010165
 21
1.175592150943916
 31
0.0
  0
ARC
  5
4D
330
17
100
AcDbEntity
  8
0
 62
8
100
AcDbCircle
 10
-17.77492328292528
 20
1.222415681591552
 30
0.0
 40
0.0195951362697627
100
AcDbArc
 50
176.0103375155861
 51
267.7517071524016
  0
ARC
  5
4E
330
17
100
AcDbEntity
  8
0
 62
8
100
AcDbCircle
 10
-17.76464874496516
 20
1.369730371928621
 30
0.0
 40
0.0195951362697627
100
AcDbArc
 50
94.78131937173065
 51
176.0103375155861
  0
LINE
  5
4F
330
17
100
AcDbEntity
  8
0
 62
8
100
AcDbLine
 10
-17.64499856534142
 20
1.34141869865326
 30
0.0
 11
-17.65889448802527
 21
1.218017803243757
 31
0.0
  0
ARC
  5
50
330
17
100
AcDbEntity
  8
0
 62
8
100
AcDbCircle
 10
-17.67848008074581
 20
1.218629295857052
 30
0.0
 40
0.0195951362697627
100
AcDbArc
 50
267.7517071524016
 51
358.211717719112
  0
ARC
  5
51
330
17
100
AcDbEntity
  8
0
 62
8
100
AcDbCircle
 10
-17.72395541900884
 20
1.334412843213055
 30
0.0
 40
0.0792670596875579
100
AcDbArc
 50
5.070585383238775
 51
52.00373149110718
  0
LINE
  5
52
330
17
100
AcDbEntity
  8
0
 62
8
100
AcDbLine
 10
-18.71273682143455
 20
0.9906821062552886
 30
0.0
 11
-18.0569164115296
 21
0.9906821062552886
 31
0.0
  0
LINE
  5
53
330
17
100
AcDbEntity
  8
0
 62
8
100
AcDbLine
 10
-18.02144592724856
 20
0.5474615599367461
 30
0.0
 11
-18.69932630861537
 21
0.5474615599367461
 31
0.0
  0
LWPOLYLINE
  5
54
330
17
100
AcDbEntity
  8
0
 62
8
100
AcDbPolyline
 90
3
 70
0
 10
-18.24178262160699
 20
0.9624280892948782
 10
-18.22837210878775
 20
0.5918171672421018
 10
-18.6993263086154
 20
0.5918171672421018
  0
LWPOLYLINE
  5
55
330
17
100
AcDbEntity
  8
0
 62
8
100
AcDbPolyline
 90
2
 70
0
 10
-19.17028050844301
 20
0.7768972605991884
 10
-18.22837210878775
 20
0.7768972605991884
  0
LWPOLYLINE
  5
56
330
17
100
AcDbEntity
  8
0
 62
8
100
AcDbPolyline
 90
2
 70
0
 10
-19.17028050844301
 20
0.7407084953209271
 10
-18.22837210878775
 20
0.7407084953209271
  0
LINE
  5
57
330
17
100
AcDbEntity
  8
0
 62
8
100
AcDbLine
 10
-18.2287985853779
 20
1.002753121538933
 30
0.0
 11
-18.71273682143455
 21
1.002753121538933
 31
0.0
  0
LWPOLYLINE
  5
58
330
17
100
AcDbEntity
  8
0
 62
8
100
AcDbPolyline
 90
2
 70
0
 10
-18.22413407765715
 20
0.3373424830929999
 10
-18.2524041626436
 20
0.1571202896037853
  0
ARC
  5
59
330
17
100
AcDbEntity
  8
0
 62
8
100
AcDbCircle
 10
-18.24393056499845
 20
1.165317884346411
 30
0.0
 40
0.0084315141309025
100
AcDbArc
 50
241.9248922736943
 51
53.98960382862277
  0
LINE
  5
5A
330
17
100
AcDbEntity
  8
0
 62
8
100
AcDbLine
 10
-18.23522293924951
 20
1.051367469875092
 30
0.0
 11
-18.44589011431431
 21
1.051367469875092
 31
0.0
  0
ARC
  5
5B
330
17
100
AcDbEntity
  8
0
 62
8
100
AcDbCircle
 10
-18.18191283730111
 20
1.21697808153802
 30
0.0
 40
0.1453980058523457
100
AcDbArc
 50
8.753996428115759
 51
166.3233745294182
  0
ARC
  5
5C
330
17
100
AcDbEntity
  8
0
 62
8
100
AcDbCircle
 10
-18.70826665049485
 20
-3.703457955693817
 30
0.0
 40
5.461076416042941
100
AcDbArc
 50
82.66890518139735
 51
97.33109481860266
  0
LINE
  5
5D
330
17
100
AcDbEntity
  8
0
 62
8
100
AcDbLine
 10
-18.24178262160696
 20
0.9624280892948782
 30
0.0
 11
-18.71273682143455
 21
0.9624280892948782
 31
0.0
  0
LINE
  5
5E
330
17
100
AcDbEntity
  8
0
 62
8
100
AcDbLine
 10
-18.24672260084129
 20
1.151840021540376
 30
0.0
 11
-18.46534242368609
 21
1.100838065464703
 31
0.0
  0
LINE
  5
5F
330
17
100
AcDbEntity
  8
0
 62
8
100
AcDbLine
 10
-18.93727242599699
 20
1.239106542077887
 30
0.0
 11
-18.33715758208699
 21
1.239106542077887
 31
0.0
  0
LINE
  5
60
330
17
100
AcDbEntity
  8
0
 62
8
100
AcDbLine
 10
-18.72708647400826
 20
1.247335513805591
 30
0.0
 11
-18.34620013612716
 21
1.247335513805591
 31
0.0
  0
LINE
  5
61
330
17
100
AcDbEntity
  8
0
 62
8
100
AcDbLine
 10
-18.34710443858653
 20
1.273853469820938
 30
0.0
 11
-18.72708647400826
 21
1.273853469820938
 31
0.0
  0
LWPOLYLINE
  5
62
330
17
100
AcDbEntity
  8
0
 62
8
100
AcDbPolyline
 90
2
 70
0
 10
-18.89194149141043
 20
1.196465247035025
 10
-18.29030042574634
 20
1.196465247035025
  0
LINE
  5
63
330
17
100
AcDbEntity
  8
0
 62
8
100
AcDbLine
 10
-18.34620013612716
 20
1.247335513805591
 30
0.0
 11
-18.24789867664664
 21
1.157878494553717
 31
0.0
  0
LINE
  5
64
330
17
100
AcDbEntity
  8
0
 62
8
100
AcDbLine
 10
-18.44589011431431
 20
1.051367469875092
 30
0.0
 11
-18.24672260084129
 21
1.151840021540376
 31
0.0
  0
LINE
  5
65
330
17
100
AcDbEntity
  8
0
 62
8
100
AcDbLine
 10
-18.23897340772335
 20
1.172138223215501
 30
0.0
 11
-18.34710443858653
 21
1.273853469820938
 31
0.0
  0
LINE
  5
66
330
17
100
AcDbEntity
  8
0
 62
8
100
AcDbLine
 10
-19.48629425542491
 20
1.272412938982949
 30
0.0
 11
-19.43049621399696
 21
1.687737268238311
 31
0.0
  0
LINE
  5
67
330
17
100
AcDbEntity
  8
0
 62
8
100
AcDbLine
 10
-19.4571632739236
 20
1.239106542077887
 30
0.0
 11
-18.96426419218751
 21
1.239106542077887
 31
0.0
  0
LINE
  5
68
330
17
100
AcDbEntity
  8
0
 62
8
100
AcDbLine
 10
-19.36855723133955
 20
0.9906821062552886
 30
0.0
 11
-19.39809561918012
 21
1.055120960754276
 31
0.0
  0
LINE
  5
69
330
17
100
AcDbEntity
  8
0
 62
8
100
AcDbLine
 10
-19.50254193484276
 20
0.7225769776883233
 30
0.0
 11
-19.3772066899822
 21
0.5474615599367461
 31
0.0
  0
CIRCLE
  5
6A
330
17
100
AcDbEntity
  8
0
 62
8
100
AcDbCircle
 10
-19.31738721443146
 20
0.7794142276090277
 30
0.0
 40
0.0789279291655981
  0
LINE
  5
6B
330
17
100
AcDbEntity
  8
0
 62
8
100
AcDbLine
 10
-19.45788674811886
 20
0.3506339542199548
 30
0.0
 11
-18.97581597375345
 21
0.3506339542199548
 31
0.0
  0
LINE
  5
6C
330
17
100
AcDbEntity
  8
0
 62
8
100
AcDbLine
 10
-18.97581597375345
 20
0.4854164842480877
 30
0.0
 11
-19.51613048591751
 21
0.4854164842480877
 31
0.0
  0
LINE
  5
6D
330
17
100
AcDbEntity
  8
0
 62
8
100
AcDbLine
 10
-19.55574973451793
 20
1.087951508593544
 30
0.0
 11
-19.19667505749122
 21
1.002753121538933
 31
0.0
  0
LINE
  5
6E
330
17
100
AcDbEntity
  8
0
 62
8
100
AcDbLine
 10
-19.44612290286569
 20
1.137069577884719
 30
0.0
 11
-19.19025070361964
 21
1.051367469875092
 31
0.0
  0
LINE
  5
6F
330
17
100
AcDbEntity
  8
0
 62
8
100
AcDbLine
 10
-19.51613048591751
 20
0.4133549582033603
 30
0.0
 11
-18.97581597375345
 21
0.4133549582033603
 31
0.0
  0
LWPOLYLINE
  5
70
330
17
100
AcDbEntity
  8
0
 62
8
100
AcDbPolyline
 90
2
 70
0
 10
-19.55804903286481
 20
1.196465247035025
 10
-18.91740703584689
 20
1.196465247035025
  0
LINE
  5
71
330
17
100
AcDbEntity
  8
0
 62
8
100
AcDbLine
 10
-19.51595244766194
 20
0.9625169990388648
 30
0.0
 11
-19.50254193484276
 21
0.7225769776883233
 31
0.0
  0
LINE
  5
72
330
17
100
AcDbEntity
  8
0
 62
8
100
AcDbLine
 10
-19.51613048591751
 20
0.4854164842480877
 30
0.0
 11
-19.51613048591751
 21
0.4133549582033603
 31
0.0
  0
LINE
  5
73
330
17
100
AcDbEntity
  8
0
 62
8
100
AcDbLine
 10
-19.51613048591751
 20
0.4133549582033603
 30
0.0
 11
-19.45788674811886
 21
0.3506339542199548
 31
0.0
  0
LINE
  5
74
330
17
100
AcDbEntity
  8
0
 62
8
100
AcDbLine
 10
-19.42186973218544
 20
0.4854164842480877
 30
0.0
 11
-19.58849513920704
 21
0.7322270121510819
 31
0.0
  0
LINE
  5
75
330
17
100
AcDbEntity
  8
0
 62
8
100
AcDbLine
 10
-19.45579125875774
 20
1.041845557653335
 30
0.0
 11
-19.48052387854822
 21
0.9625169990388648
 31
0.0
  0
LINE
  5
76
330
17
100
AcDbEntity
  8
0
 62
8
100
AcDbLine
 10
-19.48052387854822
 20
0.9625169990388648
 30
0.0
 11
-19.51595244766194
 21
0.9625169990388648
 31
0.0
  0
LINE
  5
77
330
17
100
AcDbEntity
  8
0
 62
8
100
AcDbLine
 10
-19.53430019222854
 20
1.082862131583599
 30
0.0
 11
-19.44612290286569
 21
1.137069577884719
 31
0.0
  0
LINE
  5
78
330
17
100
AcDbEntity
  8
0
 62
8
100
AcDbLine
 10
-19.39809561918012
 20
1.055120960754276
 30
0.0
 11
-19.45579125875774
 21
1.041845557653335
 31
0.0
  0
LINE
  5
79
330
17
100
AcDbEntity
  8
0
 62
8
100
AcDbLine
 10
-19.6235124486795
 20
1.223681091804376
 30
0.0
 11
-19.56812767088804
 21
1.175592150943916
 31
0.0
  0
ARC
  5
7A
330
17
100
AcDbEntity
  8
0
 62
8
100
AcDbCircle
 10
-19.4571632739236
 20
1.268499246482537
 30
0.0
 40
0.029392704404644
100
AcDbArc
 50
172.3482370383549
 51
270.0
  0
ARC
  5
7B
330
17
100
AcDbEntity
  8
0
 62
8
100
AcDbCircle
 10
-18.88306529882378
 20
0.2647507962979922
 30
0.0
 40
0.1490937965423942
100
AcDbArc
 50
222.6533327037174
 51
313.7885978243712
  0
LINE
  5
7C
330
17
100
AcDbEntity
  8
0
 62
8
100
AcDbLine
 10
-18.97581597375345
 20
0.4854164842480877
 30
0.0
 11
-18.42283664347731
 21
0.4854164842480877
 31
0.0
  0
LINE
  5
7D
330
17
100
AcDbEntity
  8
0
 62
8
100
AcDbLine
 10
-18.97581597375345
 20
0.3506339542199548
 30
0.0
 11
-18.42283664347731
 21
0.3506339542199548
 31
0.0
  0
LINE
  5
7E
330
17
100
AcDbEntity
  8
0
 62
8
100
AcDbLine
 10
-18.97958352855484
 20
1.051367469875092
 30
0.0
 11
-18.44589011431431
 21
1.051367469875092
 31
0.0
  0
LWPOLYLINE
  5
7F
330
17
100
AcDbEntity
  8
0
 62
8
100
AcDbPolyline
 90
3
 70
0
 10
-19.18369102126219
 20
0.9624280892948782
 10
-19.17028050844301
 20
0.5918171672421018
 10
-18.6993263086154
 20
0.5918171672421018
  0
CIRCLE
  5
80
330
17
100
AcDbEntity
  8
0
 62
8
100
AcDbCircle
 10
-18.69650476324558
 20
0.7536296877148594
 30
0.0
 40
0.1017170319416661
  0
LINE
  5
81
330
17
100
AcDbEntity
  8
0
 62
8
100
AcDbLine
 10
-19.3772066899822
 20
0.5474615599367461
 30
0.0
 11
-18.69932630861537
 21
0.5474615599367461
 31
0.0
  0
LINE
  5
82
330
17
100
AcDbEntity
  8
0
 62
8
100
AcDbLine
 10
-18.97581597375345
 20
0.3506339542199548
 30
0.0
 11
-18.97581597375345
 21
0.4854164842480877
 31
0.0
  0
LWPOLYLINE
  5
83
330
17
100
AcDbEntity
  8
0
 62
8
100
AcDbPolyline
 90
2
 70
0
 10
-19.32684806815432
 20
0.1349142776387531
 10
-19.32684806815432
 20
0.3439528689992208
  0
LWPOLYLINE
  5
84
330
17
100
AcDbEntity
  8
0
 62
8
100
AcDbPolyline
 90
2
 70
0
 10
-19.14781955046506
 20
0.3439528689992208
 10
-19.11954946547864
 20
0.1637306755100063
  0
LINE
  5
85
330
17
100
AcDbEntity
  8
0
 62
8
100
AcDbLine
 10
-19.00382468551653
 20
0.3439528689992208
 30
0.0
 11
-19.0040018606234
 21
0.1636171530215513
 31
0.0
  0
LINE
  5
86
330
17
100
AcDbEntity
  8
0
 62
8
100
AcDbLine
 10
-18.97044605556569
 20
0.3439200753715248
 30
0.0
 11
-18.97062323067253
 21
0.1635843593938553
 31
0.0
  0
LINE
  5
87
330
17
100
AcDbEntity
  8
0
 62
8
100
AcDbLine
 10
-19.11954946547861
 20
0.1637306755100063
 30
0.0
 11
-18.99271882299608
 21
0.1637306755100063
 31
0.0
  0
LINE
  5
88
330
17
100
AcDbEntity
  8
0
 62
8
100
AcDbLine
 10
-18.89444963237191
 20
0.3439528689992208
 30
0.0
 11
-18.89462691305344
 21
0.1635096950068195
 31
0.0
  0
LINE
  5
89
330
17
100
AcDbEntity
  8
0
 62
8
100
AcDbLine
 10
-18.86107100242104
 20
0.3439200753715248
 30
0.0
 11
-18.86124828310257
 21
0.1634769013791306
 31
0.0
  0
LINE
  5
8A
330
17
100
AcDbEntity
  8
0
 62
8
100
AcDbLine
 10
-18.78090189140248
 20
0.3439528689992208
 30
0.0
 11
-18.78107928168638
 21
0.1633981374398026
 31
0.0
  0
LINE
  5
8B
330
17
100
AcDbEntity
  8
0
 62
8
100
AcDbLine
 10
-18.74752326145157
 20
0.3439200753715248
 30
0.0
 11
-18.74770065173551
 21
0.1633653438121136
 31
0.0
  0
LINE
  5
8C
330
17
100
AcDbEntity
  8
0
 62
8
100
AcDbLine
 10
-18.65112935577916
 20
0.3439200753715248
 30
0.0
 11
-18.65095196549522
 21
0.1633653438121136
 31
0.0
  0
LINE
  5
8D
330
17
100
AcDbEntity
  8
0
 62
8
100
AcDbLine
 10
-18.61775072582829
 20
0.3439528689992208
 30
0.0
 11
-18.61757333554438
 21
0.1633981374398026
 31
0.0
  0
LINE
  5
8E
330
17
100
AcDbEntity
  8
0
 62
8
100
AcDbLine
 10
-18.53758161480969
 20
0.3439200753715248
 30
0.0
 11
-18.53740433412817
 21
0.1634769013791306
 31
0.0
  0
LINE
  5
8F
330
17
100
AcDbEntity
  8
0
 62
8
100
AcDbLine
 10
-18.50420298485885
 20
0.3439528689992208
 30
0.0
 11
-18.50402570417729
 21
0.1635096950068195
 31
0.0
  0
LINE
  5
90
330
17
100
AcDbEntity
  8
0
 62
8
100
AcDbLine
 10
-18.71273682143455
 20
0.9906821062552886
 30
0.0
 11
-19.36855723133955
 21
0.9906821062552886
 31
0.0
  0
LINE
  5
91
330
17
100
AcDbEntity
  8
0
 62
8
100
AcDbLine
 10
-19.18369102126219
 20
0.9624280892948782
 30
0.0
 11
-18.71273682143455
 21
0.9624280892948782
 31
0.0
  0
LINE
  5
92
330
17
100
AcDbEntity
  8
0
 62
8
100
AcDbLine
 10
-19.19667505749122
 20
1.002753121538933
 30
0.0
 11
-18.71273682143455
 21
1.002753121538933
 31
0.0
  0
LINE
  5
93
330
17
100
AcDbEntity
  8
0
 62
8
100
AcDbLine
 10
-18.96013121918305
 20
1.100838065464703
 30
0.0
 11
-18.71273682143455
 21
1.100838065464703
 31
0.0
  0
LINE
  5
94
330
17
100
AcDbEntity
  8
0
 62
8
100
AcDbLine
 10
-18.86608001782387
 20
1.172138223215501
 30
0.0
 11
-18.97421104868702
 21
1.273853469820938
 31
0.0
  0
LINE
  5
95
330
17
100
AcDbEntity
  8
0
 62
8
100
AcDbLine
 10
-18.97330674622772
 20
1.247335513805591
 30
0.0
 11
-18.87500528674714
 21
1.157878494553717
 31
0.0
  0
LINE
  5
96
330
17
100
AcDbEntity
  8
0
 62
8
100
AcDbLine
 10
-19.19025070361964
 20
1.051367469875092
 30
0.0
 11
-18.97958352855484
 21
1.051367469875092
 31
0.0
  0
LINE
  5
97
330
17
100
AcDbEntity
  8
0
 62
8
100
AcDbLine
 10
-18.97958352855484
 20
1.051367469875092
 30
0.0
 11
-19.16981070014837
 21
1.151840021540376
 31
0.0
  0
LINE
  5
98
330
17
100
AcDbEntity
  8
0
 62
8
100
AcDbLine
 10
-19.16981070014837
 20
1.151840021540376
 30
0.0
 11
-18.96013121918305
 21
1.100838065464703
 31
0.0
  0
LINE
  5
99
330
17
100
AcDbEntity
  8
0
 62
8
100
AcDbLine
 10
-18.97421104868702
 20
1.273853469820938
 30
0.0
 11
-19.35419308410878
 21
1.273853469820938
 31
0.0
  0
LINE
  5
9A
330
17
100
AcDbEntity
  8
0
 62
8
100
AcDbLine
 10
-19.35419308410878
 20
1.247335513805591
 30
0.0
 11
-18.97330674622772
 21
1.247335513805591
 31
0.0
  0
LINE
  5
9B
330
17
100
AcDbEntity
  8
0
 62
8
100
AcDbLine
 10
-19.35419308410878
 20
1.273853469820938
 30
0.0
 11
-19.35419308410878
 21
1.247335513805591
 31
0.0
  0
ARC
  5
9C
330
17
100
AcDbEntity
  8
0
 62
8
100
AcDbCircle
 10
-18.871037175099
 20
1.165317884346411
 30
0.0
 40
0.0084315141309025
100
AcDbArc
 50
241.9248922736943
 51
53.98960382862277
  0
LINE
  5
9D
330
17
100
AcDbEntity
  8
0
 62
8
100
AcDbLine
 10
-18.46534242368609
 20
1.100838065464703
 30
0.0
 11
-18.71273682143455
 21
1.100838065464703
 31
0.0
  0
LINE
  5
9E
330
17
100
AcDbEntity
  8
0
 62
8
100
AcDbLine
 10
-18.72708647400826
 20
1.273853469820938
 30
0.0
 11
-18.72708647400826
 21
1.247335513805591
 31
0.0
  0
LINE
  5
9F
330
17
100
AcDbEntity
  8
0
 62
8
100
AcDbLine
 10
-18.42283664347731
 20
0.3506339542199548
 30
0.0
 11
-18.42283664347731
 21
0.4854164842480877
 31
0.0
  0
LINE
  5
A0
330
17
100
AcDbEntity
  8
0
 62
8
100
AcDbLine
 10
-18.42820656166505
 20
0.3439200753715248
 30
0.0
 11
-18.42802938655821
 21
0.1635843593938553
 31
0.0
  0
LINE
  5
A1
330
17
100
AcDbEntity
  8
0
 62
8
100
AcDbLine
 10
-18.3948279317142
 20
0.3439528689992208
 30
0.0
 11
-18.39465075660733
 21
0.1636171530215513
 31
0.0
  0
ARC
  5
A2
330
17
100
AcDbEntity
  8
0
 62
8
100
AcDbCircle
 10
-19.40136523249562
 20
1.6838235757379
 30
0.0
 40
0.029392704404644
100
AcDbArc
 50
97.33109481860431
 51
172.3482370383549
  0
LINE
  5
A3
330
17
100
AcDbEntity
  8
0
 62
8
100
AcDbLine
 10
-18.63932196443151
 20
1.61453204238651
 30
0.0
 11
-18.70826665049485
 21
1.61453204238651
 31
0.0
  0
LWPOLYLINE
  5
A4
330
17
100
AcDbEntity
  8
0
 62
8
100
AcDbPolyline
 90
2
 70
0
 10
-18.70065213964794
 20
1.709318039988449
 42
-0.2162144732051016
 10
-18.58802639815285
 20
1.651318538232853
 42
-1.192684128186331
  0
LWPOLYLINE
  5
A5
330
17
100
AcDbEntity
  8
0
 62
8
100
AcDbPolyline
 90
2
 70
0
 10
-18.82850690283685
 20
1.651318538232853
 42
-0.2162144732051016
 10
-18.71588116134175
 20
1.709318039988449
 42
-1.192684128186331
  0
ARC
  5
A6
330
17
100
AcDbEntity
  8
0
 62
8
100
AcDbCircle
 10
-18.78730312810289
 20
1.654616766475395
 30
0.0
 40
0.0413355701770926
100
AcDbArc
 50
184.5765827763555
 51
284.1311954105746
  0
LINE
  5
A7
330
17
100
AcDbEntity
  8
0
 62
8
100
AcDbLine
 10
-18.77721133655815
 20
1.61453204238651
 30
0.0
 11
-18.70826665049485
 21
1.61453204238651
 31
0.0
  0
LINE
  5
A8
330
17
100
AcDbEntity
  8
0
 62
8
100
AcDbLine
 10
-18.71588116134175
 20
1.709318039988449
 30
0.0
 11
-18.71594910114352
 21
1.757613056645464
 31
0.0
  0
LINE
  5
A9
330
17
100
AcDbEntity
  8
0
 62
8
100
AcDbLine
 10
-18.70065213964791
 20
1.709318039988449
 30
0.0
 11
-18.70058419984615
 21
1.757613056645464
 31
0.0
  0
ARC
  5
AA
330
17
100
AcDbEntity
  8
0
 62
8
100
AcDbCircle
 10
-18.62923017288678
 20
1.654616766475395
 30
0.0
 40
0.0413355701770926
100
AcDbArc
 50
255.8688045894255
 51
355.4234172236443
  0
LINE
  5
AB
330
17
100
AcDbEntity
  8
0
 62
8
100
AcDbLine
 10
-19.76259439376876
 20
1.376740877275732
 30
0.0
 11
-19.7576388129644
 21
1.218017803243757
 31
0.0
  0
ARC
  5
AC
330
17
100
AcDbEntity
  8
0
 62
8
100
AcDbCircle
 10
-19.73805322024385
 20
1.218629295857052
 30
0.0
 40
0.0195951362697627
100
AcDbArc
 50
181.7882822808878
 51
272.2482928475983
  0
LINE
  5
AD
330
17
100
AcDbEntity
  8
0
 62
8
100
AcDbLine
 10
-19.73728450219987
 20
1.199049243814226
 30
0.0
 11
-19.64084130002037
 21
1.20283562954874
 31
0.0
  0
LINE
  5
AE
330
17
100
AcDbEntity
  8
0
 62
8
100
AcDbLine
 10
-19.65025124373063
 20
1.389257318857961
 30
0.0
 11
-19.74137548875434
 21
1.396879316818367
 31
0.0
  0
ARC
  5
AF
330
17
100
AcDbEntity
  8
0
 62
8
100
AcDbCircle
 10
-19.74300880104827
 20
1.377352369889027
 30
0.0
 40
0.0195951362697627
100
AcDbArc
 50
85.21868062826935
 51
181.7882822808878
  0
ARC
  5
B0
330
17
100
AcDbEntity
  8
0
 62
8
100
AcDbCircle
 10
-19.65188455602451
 20
1.369730371928621
 30
0.0
 40
0.0195951362697627
100
AcDbArc
 50
3.989662484413862
 51
85.21868062826935
  0
ARC
  5
B1
330
17
100
AcDbEntity
  8
0
 62
8
100
AcDbCircle
 10
-19.64161001806438
 20
1.222415681591552
 30
0.0
 40
0.0195951362697627
100
AcDbArc
 50
272.2482928475983
 51
3.989662484413862
  0
LINE
  5
B2
330
17
100
AcDbEntity
  8
0
 62
8
100
AcDbLine
 10
-19.62206236826095
 20
1.223779042363492
 30
0.0
 11
-19.63233690622111
 21
1.371093732700547
 31
0.0
  0
LINE
  5
B3
330
17
100
AcDbEntity
  8
0
 62
8
100
AcDbLine
 10
-19.56118532308831
 20
1.190930672318547
 30
0.0
 11
-19.62397377956001
 21
1.251184553415871
 31
0.0
  0
CIRCLE
  5
B4
330
17
100
AcDbEntity
  8
0
 62
8
100
AcDbCircle
 10
-18.0812654027993
 20
0.7794142276090277
 30
0.0
 40
0.0789279291655981
  0
LWPOLYLINE
  5
B5
330
17
100
AcDbEntity
  8
0
 62
8
100
AcDbPolyline
 90
2
 70
0
 10
-18.06913832795821
 20
0.3439528689992208
 10
-18.06913832795821
 20
0.1349142776387531
 42
0.4142135623730951
  0
LINE
  5
B6
330
17
100
AcDbEntity
  8
0
 62
8
100
AcDbLine
 10
-18.0569164115296
 20
0.9906821062552886
 30
0.0
 11
-18.02737802368899
 21
1.055120960754276
 31
0.0
  0
LWPOLYLINE
  5
B7
330
17
100
AcDbEntity
  8
0
 62
8
100
AcDbPolyline
 90
35
 70
0
 10
-18.77989246230093
 20
0.1571202896037853
 10
-18.2524041626436
 20
0.1571202896037853
 10
-18.23749405322674
 20
0.1957985277140146
 10
-18.08775974185094
 20
0.1957985277140146
 10
-18.06913832795821
 20
0.1349142776387531
 10
-18.06913832795821
 20
-0.1241926398794213
 42
0.4142135623730951
 10
-18.04954319168847
 20
-0.1437877761491784
 10
-17.86426956788456
 20
-0.1437877761491784
 42
0.4142135623730951
 10
-17.84467443161482
 20
-0.1241926398794213
 10
-17.84467443161482
 20
0.3439528689992208
 10
-17.80195347815699
 20
0.6118786333337916
 10
-17.8339339871856
 20
1.077260201144486
 10
-17.86705768723301
 20
1.087951508593544
 10
-17.83091422339494
 20
1.13694638968521
 10
-17.85534797790139
 20
1.190930672318547
 10
-17.90190061996504
 20
1.739039605373218
 42
0.2482733428913499
 10
-18.11018829890933
 20
1.881537287363538
 42
0.0173167026927587
 10
-18.70826665049485
 20
1.905951046104238
 42
0.0188587118480701
 10
-19.30367878096213
 20
1.881537287363538
 42
0.2482733428913499
 10
-19.51196645990639
 20
1.739039605373218
 10
-19.55851910197008
 20
1.190930672318547
 10
-19.58295285647649
 20
1.13694638968521
 10
-19.55574973451793
 20
1.087951508593544
 10
-19.58887343456531
 20
1.077260201144486
 10
-19.59403291795557
 20
0.6118786333337916
 10
-19.55131196449774
 20
0.3439528689992208
 10
-19.55131196449774
 20
-0.1241926398794213
 42
0.4142135623730951
 10
-19.53171682822797
 20
-0.1437877761491784
 10
-19.34644320442409
 20
-0.1437877761491784
 42
0.4142135623730951
 10
-19.32684806815432
 20
-0.1241926398794213
 10
-19.32684806815432
 20
0.1349142776387531
 10
-19.27227069682705
 20
0.2046077337147985
 10
-19.13530720006663
 20
0.2046077337147985
 10
-19.11954946547864
 20
0.1637306755100063
 10
-18.25018517735607
 20
0.1628765479190868
  0
LINE
  5
B8
330
17
100
AcDbEntity
  8
0
 62
8
100
AcDbLine
 10
-19.55131196449771
 20
0.3439528689992208
 30
0.0
 11
-17.84467443161482
 21
0.3439528689992208
 31
0.0
  0
LINE
  5
B9
330
17
100
AcDbEntity
  8
0
 62
8
100
AcDbLine
 10
-18.42283664347731
 20
0.4854164842480877
 30
0.0
 11
-17.88252213131322
 21
0.4854164842480877
 31
0.0
  0
LINE
  5
BA
330
17
100
AcDbEntity
  8
0
 62
8
100
AcDbLine
 10
-17.94076586911187
 20
0.3506339542199548
 30
0.0
 11
-18.42283664347731
 21
0.3506339542199548
 31
0.0
  0
LINE
  5
BB
330
17
100
AcDbEntity
  8
0
 62
8
100
AcDbLine
 10
-17.88252213131322
 20
0.4133549582033603
 30
0.0
 11
-18.42283664347731
 21
0.4133549582033603
 31
0.0
  0
LINE
  5
BC
330
17
100
AcDbEntity
  8
0
 62
8
100
AcDbLine
 10
-18.31016581589647
 20
1.239106542077887
 30
0.0
 11
-17.95937002706607
 21
1.239106542077887
 31
0.0
  0
LWPOLYLINE
  5
BD
330
17
100
AcDbEntity
  8
0
 62
8
100
AcDbPolyline
 90
2
 70
0
 10
-18.26483488130994
 20
1.196465247035025
 10
-17.85581804700665
 20
1.196465247035025
  0
LINE
  5
BE
330
17
100
AcDbEntity
  8
0
 62
8
100
AcDbLine
 10
-17.896110682388
 20
0.7225769776883233
 30
0.0
 11
-18.02144592724856
 21
0.5474615599367461
 31
0.0
  0
LINE
  5
BF
330
17
100
AcDbEntity
  8
0
 62
8
100
AcDbLine
 10
-18.02737802368899
 20
1.055120960754276
 30
0.0
 11
-17.96968238411138
 21
1.041845557653335
 31
0.0
  0
LINE
  5
C0
330
17
100
AcDbEntity
  8
0
 62
8
100
AcDbLine
 10
-17.970410398124
 20
1.137069577884719
 30
0.0
 11
-18.23522293924951
 21
1.051367469875092
 31
0.0
  0
LINE
  5
C1
330
17
100
AcDbEntity
  8
0
 62
8
100
AcDbLine
 10
-17.86972390835119
 20
1.087951508593544
 30
0.0
 11
-18.2287985853779
 21
1.002753121538933
 31
0.0
  0
ARC
  5
C2
330
17
100
AcDbEntity
  8
0
 62
8
100
AcDbCircle
 10
-18.01516806849405
 20
1.6838235757379
 30
0.0
 40
0.029392704404644
100
AcDbArc
 50
7.65176296164499
 51
82.6689051813957
  0
LINE
  5
C3
330
17
100
AcDbEntity
  8
0
 62
4
100
AcDbLine
 10
-19.61697483196822
 20
-0.1499999999999986
 30
0.0
 11
-16.94604740549088
 21
-0.1033787883522805
 31
0.0
  0
LWPOLYLINE
  5
C4
330
17
100
AcDbEntity
  8
0
 62
11
100
AcDbPolyline
 90
4
 70
1
 10
-24.11697483196821
 20
3.745000000000002
 10
-24.11697483196821
 20
3.245
 10
-23.81697483196821
 20
3.245
 10
-23.81697483196821
 20
3.745000000000002
  0
LINE
  5
C5
330
17
100
AcDbEntity
  8
0
 62
11
100
AcDbLine
 10
-23.94697483196821
 20
3.745000000000002
 30
0.0
 11
-23.94697483196821
 21
7.099999999999997
 31
0.0
  0
LINE
  5
C6
330
17
100
AcDbEntity
  8
0
 62
11
100
AcDbLine
 10
-23.81697483196821
 20
3.745000000000002
 30
0.0
 11
-23.81697483196821
 21
7.099999999999997
 31
0.0
  0
LWPOLYLINE
  5
C7
330
17
100
AcDbEntity
  8
0
 62
11
100
AcDbPolyline
 90
4
 70
1
 10
-24.81697483196821
 20
-0.1049999999999969
 10
-24.81697483196821
 20
-0.6049999999999969
 10
-24.51697483196821
 20
-0.6049999999999969
 10
-24.51697483196821
 20
-0.1049999999999969
  0
LINE
  5
C8
330
17
100
AcDbEntity
  8
0
 62
11
100
AcDbLine
 10
-23.81697483196821
 20
3.245
 30
0.0
 11
-23.81697483196821
 21
1.8e-15
 31
0.0
  0
LINE
  5
C9
330
17
100
AcDbEntity
  8
0
 62
11
100
AcDbLine
 10
-23.94697483196821
 20
3.245
 30
0.0
 11
-23.94697483196821
 21
1.8e-15
 31
0.0
  0
LWPOLYLINE
  5
CA
330
17
100
AcDbEntity
  8
0
 62
8
100
AcDbPolyline
 90
4
 70
1
 10
-23.89449737579887
 20
9.331340008888937
 10
-23.85752665494524
 20
9.325061808544604
 10
-23.86380485528959
 20
9.288091087690983
 10
-23.90077557614322
 20
9.294369288035316
  0
LWPOLYLINE
  5
CB
330
17
100
AcDbEntity
  8
0
 62
8
100
AcDbPolyline
 90
4
 70
1
 10
-23.82055593409161
 20
9.318783608200272
 10
-23.78358521323798
 20
9.31250540785594
 10
-23.78986341358233
 20
9.27553468700232
 10
-23.82683413443596
 20
9.281812887346653
  0
LINE
  5
CC
330
17
100
AcDbEntity
  8
0
 62
8
100
AcDbLine
 10
-23.78358521323798
 20
9.31250540785594
 30
0.0
 11
-23.80390721938285
 21
9.443820336221503
 31
0.0
  0
ARC
  5
CD
330
17
100
AcDbEntity
  8
0
 62
8
100
AcDbCircle
 10
-23.81873075804692
 20
9.441526278359468
 30
0.0
 40
0.015
100
AcDbArc
 50
8.797179629512163
 51
151.9272819836587
  0
LINE
  5
CE
330
17
100
AcDbEntity
  8
0
 62
8
100
AcDbLine
 10
-23.89449737579887
 20
9.331340008888937
 30
0.0
 11
-23.8319660236954
 21
9.448585155268287
 31
0.0
  0
LINE
  5
CF
330
17
100
AcDbEntity
  8
0
 62
8
100
AcDbLine
 10
-23.82683413443596
 20
9.281812887346653
 30
0.0
 11
-23.86380485528959
 21
9.288091087690983
 31
0.0
  0
CIRCLE
  5
D0
330
17
100
AcDbEntity
  8
0
 62
8
100
AcDbCircle
 10
-23.82249549997151
 20
9.419356673194585
 30
0.0
 40
0.01125
  0
CIRCLE
  5
D1
330
17
100
AcDbEntity
  8
0
 62
8
100
AcDbCircle
 10
-23.82986224407094
 20
9.375975795751655
 30
0.0
 40
0.01125
  0
CIRCLE
  5
D2
330
17
100
AcDbEntity
  8
0
 62
8
100
AcDbCircle
 10
-23.83722856846072
 20
9.33259738987162
 30
0.0
 40
0.01125
  0
CIRCLE
  5
D3
330
17
100
AcDbEntity
  8
0
 62
8
100
AcDbCircle
 10
-23.87915111554424
 20
9.309715548289958
 30
0.0
 40
0.0058768295714788
  0
CIRCLE
  5
D4
330
17
100
AcDbEntity
  8
0
 62
8
100
AcDbCircle
 10
-23.80520967383698
 20
9.297159147601295
 30
0.0
 40
0.0058768295714788
  0
LINE
  5
D5
330
17
100
AcDbEntity
  8
0
 62
11
100
AcDbLine
 10
-22.50231099318614
 20
6.646820983235263
 30
0.0
 11
-23.81697483196821
 21
6.646820983235262
 31
0.0
  0
LINE
  5
D6
330
17
100
AcDbEntity
  8
0
 62
11
100
AcDbLine
 10
-22.50231099318614
 20
6.636820983235264
 30
0.0
 11
-23.81697483196821
 21
6.636820983235264
 31
0.0
  0
LINE
  5
D7
330
17
100
AcDbEntity
  8
0
 62
8
100
AcDbLine
 10
-23.5160510736385
 20
8.995691332999545
 30
0.0
 11
-23.51155132731845
 21
8.995643551675332
 31
0.0
  0
LINE
  5
D8
330
17
100
AcDbEntity
  8
0
 62
8
100
AcDbLine
 10
-27.89792809363274
 20
8.27637121013404
 30
0.0
 11
-27.18750113410237
 21
9.279302969950628
 31
0.0
210
-0.0029466146267072
220
0.9999956587216974
230
-2e-16
  0
LINE
  5
D9
330
17
100
AcDbEntity
  8
0
 62
8
100
AcDbLine
 10
-27.89792809363274
 20
8.466673893595825
 30
0.0
 11
-27.20340755035964
 21
9.44715007253206
 31
0.0
210
-0.0029466146267072
220
0.9999956587216974
230
-2e-16
  0
LINE
  5
DA
330
17
100
AcDbEntity
  8
0
 62
8
100
AcDbLine
 10
-27.32558952130966
 20
8.122884106374677
 30
0.0
 11
-27.16811637536256
 21
9.441640304218517
 31
0.0
210
-0.0029466146267072
220
0.9999956587216974
230
-2e-16
  0
LINE
  5
DB
330
17
100
AcDbEntity
  8
0
 62
8
100
AcDbLine
 10
-27.21587643204149
 20
8.113937053800832
 30
0.0
 11
-27.05936238390655
 21
9.424661303235373
 31
0.0
210
-0.0029466146267072
220
0.9999956587216974
230
-2e-16
  0
LINE
  5
DC
330
17
100
AcDbEntity
  8
0
 62
8
100
AcDbLine
 10
-27.19794243505406
 20
8.264125008305818
 30
0.0
 11
-26.41675153699681
 21
9.324335023167002
 31
0.0
210
-0.0029466146267072
220
0.9999956587216974
230
-2e-16
  0
LINE
  5
DD
330
17
100
AcDbEntity
  8
0
 62
8
100
AcDbLine
 10
-27.17445819644816
 20
8.110559381895788
 30
0.0
 11
-26.39849015197008
 21
9.16368108878445
 31
0.0
210
-0.0029466146267072
220
0.9999956587216974
230
-2e-16
  0
LINE
  5
DE
330
17
100
AcDbEntity
  8
0
 62
8
100
AcDbLine
 10
-26.42289760080191
 20
8.04928757457224
 30
0.0
 11
-26.27095245141664
 21
9.30157237114745
 31
0.0
210
-0.0029466146267072
220
0.9999956587216974
230
-2e-16
  0
LINE
  5
DF
330
17
100
AcDbEntity
  8
0
 62
8
100
AcDbLine
 10
-26.53262086900672
 20
8.058217318612854
 30
0.0
 11
-26.37969919795461
 21
9.318550303905234
 31
0.0
210
-0.0029466146267072
220
0.9999956587216974
230
-2e-16
  0
LINE
  5
E0
330
17
100
AcDbEntity
  8
0
 62
8
100
AcDbLine
 10
-25.66144400424247
 20
7.987481932901225
 30
0.0
 11
-25.5151364151547
 21
9.183571277339588
 31
0.0
210
-0.0029466146267072
220
0.9999956587216974
230
-2e-16
  0
LINE
  5
E1
330
17
100
AcDbEntity
  8
0
 62
8
100
AcDbLine
 10
-25.77117937686752
 20
7.99634801641816
 30
0.0
 11
-25.62387960473816
 21
9.200548625427208
 31
0.0
210
-0.0029466146267072
220
0.9999956587216974
230
-2e-16
  0
LINE
  5
E2
330
17
100
AcDbEntity
  8
0
 62
8
100
AcDbLine
 10
-24.80928629218106
 20
7.924081247399421
 30
0.0
 11
-24.70584634813672
 21
9.056893732464308
 31
0.0
210
-0.0029466146267072
220
0.9999956587216974
230
-2e-16
  0
LINE
  5
E3
330
17
100
AcDbEntity
  8
0
 62
8
100
AcDbLine
 10
-24.97145285416133
 20
7.9320108401402
 30
0.0
 11
-24.86641782701723
 21
9.08229172261074
 31
0.0
210
-0.0029466146267072
220
0.9999956587216974
230
-2e-16
  0
LINE
  5
E4
330
17
100
AcDbEntity
  8
0
 62
8
100
AcDbLine
 10
-23.92428144644459
 20
7.863671295182037
 30
0.0
 11
-23.92743244649378
 21
8.93302944648321
 31
0.0
210
-0.0029466146267072
220
0.9999956587216974
230
-2e-16
  0
LINE
  5
E5
330
17
100
AcDbEntity
  8
0
 62
8
100
AcDbLine
 10
-23.81427063302377
 20
7.860163597508751
 30
0.0
 11
-23.8173803678468
 21
8.91551752626497
 31
0.0
210
-0.0029466146267072
220
0.9999956587216974
230
-2e-16
  0
LINE
  5
E6
330
17
100
AcDbEntity
  8
0
 62
8
100
AcDbLine
 10
-26.47991984098636
 20
8.05391953095576
 30
0.0
 11
-27.27278836617444
 21
8.11857824235529
 31
0.0
210
-0.0029466146267072
220
0.9999956587216974
230
-2e-16
  0
LINE
  5
E7
330
17
100
AcDbEntity
  8
0
 62
8
100
AcDbLine
 10
-26.48886069912598
 20
7.944283491918746
 30
0.0
 11
-27.28172922431406
 21
8.008942203318277
 31
0.0
210
-0.0029466146267072
220
0.9999956587216974
230
-2e-16
  0
LINE
  5
E8
330
17
100
AcDbEntity
  8
0
 62
8
100
AcDbLine
 10
-27.27278845800455
 20
8.118578249844
 30
0.0
 11
-27.89792809363274
 21
8.169557556209613
 31
0.0
210
-0.0029466146267072
220
0.9999956587216974
230
-2e-16
  0
LINE
  5
E9
330
17
100
AcDbEntity
  8
0
 62
8
100
AcDbLine
 10
-27.28172913248394
 20
8.008942195829569
 30
0.0
 11
-27.89792809363274
 21
8.059192402075109
 31
0.0
210
-0.0029466146267072
220
0.9999956587216974
230
-2e-16
  0
LINE
  5
EA
330
17
100
AcDbEntity
  8
0
 62
8
100
AcDbLine
 10
-22.54697483196821
 20
8.82474951157588
 30
0.0
 11
-24.79831062279486
 21
9.182990929985642
 31
0.0
210
-0.0029466146267072
220
0.9999956587216974
230
-2e-16
  0
LINE
  5
EB
330
17
100
AcDbEntity
  8
0
 62
8
100
AcDbLine
 10
-22.54697483196821
 20
8.713365593628716
 30
0.0
 11
-24.81559677769006
 21
9.074357653090665
 31
0.0
210
-0.0029466146267072
220
0.9999956587216974
230
-2e-16
  0
LINE
  5
EC
330
17
100
AcDbEntity
  8
0
 62
8
100
AcDbLine
 10
-26.3271811456891
 20
9.310351032377874
 30
0.0
 11
-27.11569789190024
 21
9.43345656708744
 31
0.0
210
-0.0029466146267072
220
0.9999956587216974
230
-2e-16
  0
LINE
  5
ED
330
17
100
AcDbEntity
  8
0
 62
8
100
AcDbLine
 10
-26.31021317161442
 20
9.4190344619143
 30
0.0
 11
-27.09872991782556
 21
9.542139996623867
 31
0.0
210
-0.0029466146267072
220
0.9999956587216974
230
-2e-16
  0
LINE
  5
EE
330
17
100
AcDbEntity
  8
0
 62
8
100
AcDbLine
 10
-27.11569790260313
 20
9.433456568758409
 30
0.0
 11
-27.90421364869892
 21
9.556562106414937
 31
0.0
210
-0.0029466146267072
220
0.9999956587216974
230
-2e-16
  0
LINE
  5
EF
330
17
100
AcDbEntity
  8
0
 62
8
100
AcDbLine
 10
-27.09872990712267
 20
9.542139994952898
 30
0.0
 11
-27.88724565321846
 21
9.665245532609426
 31
0.0
210
-0.0029466146267072
220
0.9999956587216974
230
-2e-16
  0
LINE
  5
F0
330
17
100
AcDbEntity
  8
0
 62
8
100
AcDbLine
 10
-26.40465861544774
 20
8.199607635175688
 30
0.0
 11
-25.66100207364833
 21
9.20634434205936
 31
0.0
210
-0.0029466146267072
220
0.9999956587216974
230
-2e-16
  0
LINE
  5
F1
330
17
100
AcDbEntity
  8
0
 62
8
100
AcDbLine
 10
-26.38142882623331
 20
8.04591903503745
 30
0.0
 11
-25.64280319486321
 21
9.045845068023162
 31
0.0
210
-0.0029466146267072
220
0.9999956587216974
230
-2e-16
  0
LINE
  5
F2
330
17
100
AcDbEntity
  8
0
 62
8
100
AcDbLine
 10
-24.92603563389898
 20
7.818004669307576
 30
0.0
 11
-25.72740547120997
 21
7.882429931249141
 31
0.0
210
-0.0029466146267072
220
0.9999956587216974
230
-2e-16
  0
LINE
  5
F3
330
17
100
AcDbEntity
  8
0
 62
8
100
AcDbLine
 10
-24.91722074303161
 20
7.927650908180588
 30
0.0
 11
-25.7185905803426
 21
7.992076170122153
 31
0.0
210
-0.0029466146267072
220
0.9999956587216974
230
-2e-16
  0
LINE
  5
F4
330
17
100
AcDbEntity
  8
0
 62
8
100
AcDbLine
 10
-25.72745104952384
 20
7.882433614538392
 30
0.0
 11
-26.48884329380372
 21
7.944282075289997
 31
0.0
210
-0.0029466146267072
220
0.9999956587216974
230
-2e-16
  0
LINE
  5
F5
330
17
100
AcDbEntity
  8
0
 62
8
100
AcDbLine
 10
-25.71854500202874
 20
7.992072486832903
 30
0.0
 11
-26.47993724630862
 21
8.053920947584508
 31
0.0
210
-0.0029466146267072
220
0.9999956587216974
230
-2e-16
  0
LINE
  5
F6
330
17
100
AcDbEntity
  8
0
 62
8
100
AcDbLine
 10
-24.79846973640603
 20
9.183016009928558
 30
0.0
 11
-25.55434246419416
 21
9.301024734669843
 31
0.0
210
-0.0029466146267072
220
0.9999956587216974
230
-2e-16
  0
LINE
  5
F7
330
17
100
AcDbEntity
  8
0
 62
8
100
AcDbLine
 10
-24.8154376640789
 20
9.07433257314775
 30
0.0
 11
-25.57131039186703
 21
9.192341297889037
 31
0.0
210
-0.0029466146267072
220
0.9999956587216974
230
-2e-16
  0
LINE
  5
F8
330
17
100
AcDbEntity
  8
0
 62
8
100
AcDbLine
 10
-25.55434237169906
 20
9.3010247202292
 30
0.0
 11
-26.31021310232022
 21
9.419034451095847
 31
0.0
210
-0.0029466146267072
220
0.9999956587216974
230
-2e-16
  0
LINE
  5
F9
330
17
100
AcDbEntity
  8
0
 62
8
100
AcDbLine
 10
-25.57131048436213
 20
9.192341312329681
 30
0.0
 11
-26.32718121498329
 21
9.310351043196327
 31
0.0
210
-0.0029466146267072
220
0.9999956587216974
230
-2e-16
  0
LINE
  5
FA
330
17
100
AcDbEntity
  8
0
 62
8
100
AcDbLine
 10
-24.79440395391147
 20
8.08706372727702
 30
0.0
 11
-23.98426709699142
 21
8.942073199925979
 31
0.0
210
-0.0029466146267072
220
0.9999956587216974
230
-2e-16
  0
LINE
  5
FB
330
17
100
AcDbEntity
  8
0
 62
8
100
AcDbLine
 10
-24.80100370801068
 20
7.920168640979262
 30
0.0
 11
-23.92716541856167
 21
8.842407900507231
 31
0.0
210
-0.0029466146267072
220
0.9999956587216974
230
-2e-16
  0
LINE
  5
FC
330
17
100
AcDbEntity
  8
0
 62
8
100
AcDbLine
 10
-23.87264527961081
 20
7.750115617657336
 30
0.0
 11
-24.92516513762711
 21
7.8179416339268
 31
0.0
210
-0.0029466146267072
220
0.9999956587216974
230
-2e-16
  0
LINE
  5
FD
330
17
100
AcDbEntity
  8
0
 62
8
100
AcDbLine
 10
-23.86557138128718
 20
7.8598879272919
 30
0.0
 11
-24.91809123930349
 21
7.927713943561364
 31
0.0
210
-0.0029466146267072
220
0.9999956587216974
230
-2e-16
  0
LINE
  5
FE
330
17
100
AcDbEntity
  8
0
 62
8
100
AcDbLine
 10
-25.01144431053929
 20
7.935225910052515
 30
0.0
 11
-25.53152732084135
 21
9.049572844587637
 31
0.0
210
-0.0029466146267072
220
0.9999956587216974
230
-2e-16
  0
LINE
  5
FF
330
17
100
AcDbEntity
  8
0
 62
8
100
AcDbLine
 10
-24.95788763849895
 20
8.0805689799084
 30
0.0
 11
-25.4693389048616
 21
9.176421256459982
 31
0.0
210
-0.0029466146267072
220
0.9999956587216974
230
-2e-16
  0
LINE
  5
100
330
17
100
AcDbEntity
  8
0
 62
8
100
AcDbLine
 10
-23.86894626664453
 20
7.750002011244923
 30
0.0
 11
-22.54697483196821
 21
7.753897368521258
 31
0.0
  0
LINE
  5
101
330
17
100
AcDbEntity
  8
0
 62
8
100
AcDbLine
 10
-23.86927039425346
 20
7.860001533704313
 30
0.0
 11
-22.54697483196823
 21
7.863897846063899
 31
0.0
  0
LINE
  5
102
330
17
100
AcDbEntity
  8
0
 62
8
100
AcDbLine
 10
-23.81719953082532
 20
8.8541466789247
 30
0.0
 11
-22.74233855181808
 21
7.863322181970367
 31
0.0
  0
LINE
  5
103
330
17
100
AcDbEntity
  8
0
 62
8
100
AcDbLine
 10
-23.70147292410397
 20
8.897073877290048
 30
0.0
 11
-22.65697483196822
 21
7.934238387935828
 31
0.0
  0
LINE
  5
104
330
17
100
AcDbEntity
  8
0
 62
8
100
AcDbLine
 10
-22.65697483196822
 20
7.863573717047863
 30
0.0
 11
-22.65697483196822
 21
8.730869226887542
 31
0.0
  0
LINE
  5
105
330
17
100
AcDbEntity
  8
0
 62
8
100
AcDbLine
 10
-22.54697483196821
 20
7.753897368521258
 30
0.0
 11
-22.54697483196821
 21
8.82474951157588
 31
0.0
  0
LWPOLYLINE
  5
106
330
17
100
AcDbEntity
  8
0
 62
8
100
AcDbPolyline
 90
21
 70
1
 10
-22.51796299618493
 20
9.009861964476691
 42
0.4142135623732447
 10
-22.52855191929333
 20
9.02436892510223
 10
-22.55285738149236
 20
9.028163559862925
 42
0.4142135623723232
 10
-22.56736434211788
 20
9.017574636754567
 10
-22.56818188537934
 20
9.012338094085656
 10
-22.56422976054743
 20
9.011721077624777
 10
-22.56341221728597
 20
9.016957620293674
 42
-0.41421356237213
 10
-22.55347439795324
 20
9.024211435030997
 10
-22.52916893575418
 20
9.020416800270318
 42
-0.4142135623734343
 10
-22.52191512101684
 20
9.010478980937584
 10
-22.54884777261112
 20
8.837969480939584
 42
-0.41421356237309
 10
-22.55878559194389
 20
8.83071566620223
 10
-22.58309105414294
 20
8.83451030096294
 42
-0.4142135623725859
 10
-22.59034486888028
 20
8.844448120295674
 10
-22.58952732561883
 20
8.849684662964613
 10
-22.59347945045074
 20
8.850301679425478
 10
-22.59429699371219
 20
8.845065136756565
 42
0.3914561508644167
 10
-22.58468380196561
 20
8.830749911406805
 10
-22.57155533950671
 20
8.828660858751057
 10
-22.55940260840477
 20
8.826763541370317
 42
0.4142135623731297
 10
-22.54489564777921
 20
8.83735246447872
  0
LWPOLYLINE
  5
107
330
17
100
AcDbEntity
  8
0
 62
8
100
AcDbPolyline
 90
21
 70
1
 10
-23.83513216986765
 20
9.21945511134917
 42
0.4142135623732447
 10
-23.84572109297605
 20
9.233962071974709
 10
-23.87002655517508
 20
9.237756706735404
 42
0.4142135623723232
 10
-23.8845335158006
 20
9.227167783627046
 10
-23.88535105906206
 20
9.221931240958135
 10
-23.88139893423015
 20
9.221314224497254
 10
-23.88058139096869
 20
9.226550767166152
 42
-0.41421356237213
 10
-23.87064357163596
 20
9.233804581903478
 10
-23.8463381094369
 20
9.230009947142795
 42
-0.4142135623734343
 10
-23.83908429469956
 20
9.220072127810063
 10
-23.86601694629384
 20
9.047562627812063
 42
-0.41421356237309
 10
-23.87595476562661
 20
9.04030881307471
 10
-23.90026022782566
 20
9.044103447835418
 42
-0.4142135623725859
 10
-23.907514042563
 20
9.054041267168152
 10
-23.90669649930155
 20
9.059277809837091
 10
-23.91064862413346
 20
9.059894826297956
 10
-23.91146616739491
 20
9.054658283629045
 42
0.3914561508644167
 10
-23.90185297564833
 20
9.040343058279284
 10
-23.88872451318944
 20
9.038254005623536
 10
-23.87657178208749
 20
9.036356688242797
 42
0.4142135623731297
 10
-23.86206482146193
 20
9.046945611351198
  0
LINE
  5
108
330
17
100
AcDbEntity
  8
0
 62
11
100
AcDbLine
 10
-22.41725550307307
 20
9.006634472441512
 30
0.0
 11
-27.90421364869893
 21
9.87969537046201
 31
0.0
  0
LINE
  5
109
330
17
100
AcDbEntity
  8
0
 62
11
100
AcDbLine
 10
-22.4095427644228
 20
9.05603624350423
 30
0.0
 11
-27.90421364869893
 21
9.930324358928935
 31
0.0
  0
LINE
  5
10A
330
17
100
AcDbEntity
  8
0
 62
8
100
AcDbLine
 10
-22.40337257350259
 20
9.095557660354412
 30
0.0
 11
-27.89792809363274
 21
9.969827419538335
 31
0.0
  0
LINE
  5
10B
330
17
100
AcDbEntity
  8
0
 62
8
100
AcDbLine
 10
-22.41725550307307
 20
9.006634472441512
 30
0.0
 11
-22.40337257350259
 21
9.095557660354412
 31
0.0
  0
LWPOLYLINE
  5
10C
330
17
100
AcDbEntity
  8
0
 62
8
100
AcDbPolyline
 90
3
 70
1
 10
-23.84859849566479
 20
9.13320036135017
 10
-23.86403513339129
 20
9.034325334265468
 10
-23.7649150416904
 20
9.018552954868078
  0
LINE
  5
10D
330
17
100
AcDbEntity
  8
0
 62
8
100
AcDbLine
 10
-23.88810749672613
 20
9.042206130455064
 30
0.0
 11
-23.88873608148152
 21
9.03825584641573
 31
0.0
  0
LWPOLYLINE
  5
10E
330
17
100
AcDbEntity
  8
0
 62
8
100
AcDbPolyline
 90
21
 70
1
 10
-24.76957801954642
 20
9.368073438712223
 42
0.4142135623732447
 10
-24.78016694265482
 20
9.38258039933776
 10
-24.80447240485384
 20
9.386375034098457
 42
0.4142135623723232
 10
-24.81897936547937
 20
9.375786110990099
 10
-24.81979690874083
 20
9.370549568321186
 10
-24.81584478390892
 20
9.369932551860307
 10
-24.81502724064746
 20
9.375169094529205
 42
-0.41421356237213
 10
-24.80508942131472
 20
9.38242290926653
 10
-24.78078395911567
 20
9.37862827450585
 42
-0.4142135623734343
 10
-24.77353014437833
 20
9.368690455173116
 10
-24.80046279597261
 20
9.196180955175114
 42
-0.41421356237309
 10
-24.81040061530537
 20
9.188927140437762
 10
-24.83470607750442
 20
9.192721775198471
 42
-0.4142135623725859
 10
-24.84195989224176
 20
9.202659594531205
 10
-24.84114234898032
 20
9.207896137200144
 10
-24.84509447381223
 20
9.20851315366101
 10
-24.84591201707368
 20
9.203276610992098
 42
0.3914561508644167
 10
-24.8362988253271
 20
9.188961385642337
 10
-24.8231703628682
 20
9.186872332986589
 10
-24.81101763176625
 20
9.18497501560585
 42
0.4142135623731297
 10
-24.7965106711407
 20
9.195563938714251
  0
LWPOLYLINE
  5
10F
330
17
100
AcDbEntity
  8
0
 62
8
100
AcDbPolyline
 90
3
 70
1
 10
-24.78304434534355
 20
9.281818688713223
 10
-24.79848098307006
 20
9.18294366162852
 10
-24.69936089136917
 20
9.16717128223113
  0
LWPOLYLINE
  5
110
330
17
100
AcDbEntity
  8
0
 62
8
100
AcDbPolyline
 90
21
 70
1
 10
-25.52545074733454
 20
9.486082163453496
 42
0.4142135623732447
 10
-25.53603967044294
 20
9.500589124079035
 10
-25.56034513264197
 20
9.50438375883973
 42
0.4142135623723232
 10
-25.57485209326749
 20
9.493794835731372
 10
-25.57566963652896
 20
9.48855829306246
 10
-25.57171751169704
 20
9.487941276601582
 10
-25.57089996843558
 20
9.493177819270478
 42
-0.41421356237213
 10
-25.56096214910285
 20
9.500431634007803
 10
-25.5366566869038
 20
9.496636999247121
 42
-0.4142135623734343
 10
-25.52940287216646
 20
9.486699179914387
 10
-25.55633552376074
 20
9.314189679916389
 42
-0.41421356237309
 10
-25.5662733430935
 20
9.306935865179035
 10
-25.59057880529255
 20
9.310730499939744
 42
-0.4142135623725859
 10
-25.59783262002989
 20
9.320668319272478
 10
-25.59701507676844
 20
9.325904861941417
 10
-25.60096720160035
 20
9.326521878402282
 10
-25.6017847448618
 20
9.321285335733371
 42
0.3914561508644167
 10
-25.59217155311522
 20
9.30697011038361
 10
-25.57904309065632
 20
9.304881057727862
 10
-25.56689035955438
 20
9.302983740347123
 42
0.4142135623731297
 10
-25.55238339892882
 20
9.313572663455524
  0
LWPOLYLINE
  5
111
330
17
100
AcDbEntity
  8
0
 62
8
100
AcDbPolyline
 90
3
 70
1
 10
-25.53891707313168
 20
9.399827413454496
 10
-25.55435371085819
 20
9.300952386369794
 10
-25.45523361915729
 20
9.285180006972404
  0
LWPOLYLINE
  5
112
330
17
100
AcDbEntity
  8
0
 62
8
100
AcDbPolyline
 90
21
 70
1
 10
-26.2813214779557
 20
9.604091894320142
 42
0.4142135623732447
 10
-26.29191040106411
 20
9.61859885494568
 10
-26.31621586326313
 20
9.622393489706376
 42
0.4142135623723232
 10
-26.33072282388865
 20
9.611804566598018
 10
-26.33154036715012
 20
9.606568023929105
 10
-26.3275882423182
 20
9.605951007468226
 10
-26.32677069905674
 20
9.611187550137124
 42
-0.41421356237213
 10
-26.31683287972401
 20
9.61844136487445
 10
-26.29252741752496
 20
9.614646730113769
 42
-0.4142135623734343
 10
-26.28527360278761
 20
9.604708910781035
 10
-26.3122062543819
 20
9.432199410783033
 42
-0.41421356237309
 10
-26.32214407371466
 20
9.424945596045681
 10
-26.34644953591371
 20
9.42874023080639
 42
-0.4142135623725859
 10
-26.35370335065105
 20
9.438678050139124
 10
-26.3528858073896
 20
9.443914592808063
 10
-26.35683793222151
 20
9.444531609268928
 10
-26.35765547548296
 20
9.439295066600017
 42
0.3914561508644167
 10
-26.34804228373638
 20
9.424979841250256
 10
-26.33491382127749
 20
9.422890788594508
 10
-26.32276109017554
 20
9.42099347121377
 42
0.4142135623731297
 10
-26.30825412954998
 20
9.43158239432217
  0
LWPOLYLINE
  5
113
330
17
100
AcDbEntity
  8
0
 62
8
100
AcDbPolyline
 90
3
 70
1
 10
-26.29478780375284
 20
9.517837144321142
 10
-26.31022444147935
 20
9.41896211723644
 10
-26.21110434977845
 20
9.40318973783905
  0
LWPOLYLINE
  5
114
330
17
100
AcDbEntity
  8
0
 62
8
100
AcDbPolyline
 90
21
 70
1
 10
-27.06983822416684
 20
9.727197429029694
 42
0.4142135623732447
 10
-27.08042714727524
 20
9.741704389655233
 10
-27.10473260947427
 20
9.745499024415928
 42
0.4142135623723232
 10
-27.11923957009979
 20
9.73491010130757
 10
-27.12005711336126
 20
9.729673558638657
 10
-27.11610498852934
 20
9.729056542177778
 10
-27.11528744526788
 20
9.734293084846676
 42
-0.41421356237213
 10
-27.10534962593515
 20
9.741546899584002
 10
-27.08104416373609
 20
9.737752264823321
 42
-0.4142135623734343
 10
-27.07379034899875
 20
9.727814445490587
 10
-27.10072300059303
 20
9.555304945492585
 42
-0.41421356237309
 10
-27.1106608199258
 20
9.548051130755233
 10
-27.13496628212485
 20
9.551845765515942
 42
-0.4142135623725859
 10
-27.14222009686219
 20
9.561783584848676
 10
-27.14140255360074
 20
9.567020127517615
 10
-27.14535467843265
 20
9.56763714397848
 10
-27.1461722216941
 20
9.56240060130957
 42
0.3914561508644167
 10
-27.13655902994752
 20
9.548085375959808
 10
-27.12343056748862
 20
9.54599632330406
 10
-27.11127783638668
 20
9.544099005923321
 42
0.4142135623731297
 10
-27.09677087576112
 20
9.554687929031722
  0
LWPOLYLINE
  5
115
330
17
100
AcDbEntity
  8
0
 62
8
100
AcDbPolyline
 90
3
 70
1
 10
-27.08330454996398
 20
9.640942679030694
 10
-27.09874118769048
 20
9.542067651945992
 10
-26.99962109598958
 20
9.526295272548602
  0
LINE
  5
116
330
17
100
AcDbEntity
  8
0
 62
11
100
AcDbLine
 10
-22.49231099318615
 20
9.011820983235264
 30
0.0
 11
-22.49231099318615
 21
6.611820983235261
 31
0.0
  0
LINE
  5
117
330
17
100
AcDbEntity
  8
0
 62
11
100
AcDbLine
 10
-22.50231099318614
 20
9.011820983235264
 30
0.0
 11
-22.50231099318614
 21
6.611820983235261
 31
0.0
  0
LINE
  5
118
330
17
100
AcDbEntity
  8
0
 62
11
100
AcDbLine
 10
-22.49231099318615
 20
9.011820983235264
 30
0.0
 11
-22.50231099318614
 21
9.011820983235264
 31
0.0
  0
LWPOLYLINE
  5
119
330
17
100
AcDbEntity
  8
0
 62
11
100
AcDbPolyline
 90
6
 70
1
 10
-22.5530075142776
 20
9.027209530229428
 10
-22.55285037539946
 20
9.028197106753979
 10
-22.48931099318614
 20
9.01809594582075
 10
-22.48931099318614
 20
8.963939241781498
 10
-22.49031099318614
 20
8.963939241781498
 10
-22.49031099318614
 20
9.017242362979164
  0
LINE
  5
11A
330
17
100
AcDbEntity
  8
0
 62
11
100
AcDbLine
 10
-22.41725550307307
 20
9.006634472441512
 30
0.0
 11
-22.4095427644228
 21
9.05603624350423
 31
0.0
  0
LINE
  5
11B
330
17
100
AcDbEntity
  8
0
 62
11
100
AcDbLine
 10
-23.94697483196821
 20
7.599999999999997
 30
0.0
 11
-23.94697483196821
 21
9.018431091481373
 31
0.0
  0
LINE
  5
11C
330
17
100
AcDbEntity
  8
0
 62
11
100
AcDbLine
 10
-23.81697483196821
 20
7.599999999999997
 30
0.0
 11
-23.81697483196821
 21
9.018431091481373
 31
0.0
  0
LINE
  5
11D
330
17
100
AcDbEntity
  8
0
 62
11
100
AcDbLine
 10
-23.83330092863476
 20
9.320991718757922
 30
0.0
 11
-23.83330092863476
 21
9.320991718757922
 31
0.0
  0
LINE
  5
11E
330
17
100
AcDbEntity
  8
0
 62
11
100
AcDbLine
 10
-23.81697483196821
 20
9.018431091481373
 30
0.0
 11
-23.94697483196821
 21
9.018431091481373
 31
0.0
  0
LINE
  5
11F
330
17
100
AcDbEntity
  8
0
 62
8
100
AcDbLine
 10
-23.82709057206783
 20
9.309792099162557
 30
0.0
 11
-23.85056054231347
 21
9.171773406423592
 31
0.0
  0
LWPOLYLINE
  5
120
330
17
100
AcDbEntity
  8
0
 62
11
100
AcDbPolyline
 90
14
 70
0
 10
-23.85026527201122
 20
9.040819113510919
 10
-23.8518526511079
 20
9.031484291463418
 10
-23.81032138055949
 20
9.031484291463418
 10
-23.81032138055949
 20
8.979484291463415
 10
-23.81232138055949
 20
8.979484291463416
 10
-23.81232138055949
 20
9.029484291463417
 10
-23.95162828337694
 20
9.029484291463417
 10
-23.95162828337694
 20
8.979484291463415
 10
-23.95362828337693
 20
8.979484291463416
 10
-23.95362828337693
 20
9.029484291463417
 10
-23.91900966509568
 20
9.23306429637402
 42
-0.4142135750802832
 10
-23.91670268406672
 20
9.234700706737936
 10
-23.82206129289052
 20
9.218607009047679
 42
-0.4142135501322088
 10
-23.82042488259813
 20
9.216300028115676
  0
LWPOLYLINE
  5
121
330
17
100
AcDbEntity
  8
0
 62
11
100
AcDbPolyline
 90
12
 70
0
 10
-23.85185264922028
 20
9.031484291463418
 10
-23.8485888466254
 20
9.050677597406992
 10
-23.85056054231347
 20
9.051012882529953
 10
-23.85388135981018
 20
9.031484291463418
 10
-23.95125947430691
 20
9.031484291463418
 10
-23.91737325473176
 20
9.230757315345066
 42
-0.4142135750802822
 10
-23.91506627370281
 20
9.23239372570898
 10
-23.82436827382252
 20
9.216970598755294
 42
-0.4142135501321984
 10
-23.82273186353014
 20
9.214663617823291
 10
-23.82709057206783
 20
9.189031575268922
 10
-23.82511887637976
 20
9.188696290145959
 10
-23.82042488259813
 20
9.216300028115674
  0
LINE
  5
122
330
17
100
AcDbEntity
  8
0
 62
8
100
AcDbLine
 10
-22.49231099318615
 20
6.611820983235261
 30
0.0
 11
-21.39958308137222
 21
6.611820983235265
 31
0.0
  0
LWPOLYLINE
  5
123
330
17
100
AcDbEntity
  8
0
 62
8
100
AcDbPolyline
 90
6
 70
0
 10
-21.22372195571683
 20
6.370417758042567
 10
-21.69393953387323
 20
6.370417758042567
 10
-21.69393953387323
 20
6.611820983235265
 10
-21.80000555105119
 20
6.505754966057299
 10
-21.69393953387323
 20
6.611820983235265
 10
-21.5843379827893
 20
6.502219432151338
  0
LINE
  5
124
330
17
100
AcDbEntity
  8
0
 62
8
100
AcDbLine
 10
-22.49231099318615
 20
9.011820983235264
 30
0.0
 11
-21.39958308137222
 21
9.011820983235268
 31
0.0
  0
LWPOLYLINE
  5
125
330
17
100
AcDbEntity
  8
0
 62
8
100
AcDbPolyline
 90
6
 70
0
 10
-21.22372195571683
 20
8.77041775804257
 10
-21.69393953387323
 20
8.77041775804257
 10
-21.69393953387323
 20
9.011820983235268
 10
-21.80000555105119
 20
8.905754966057302
 10
-21.69393953387323
 20
9.011820983235268
 10
-21.5843379827893
 20
8.902219432151341
  0
LINE
  5
127
330
17
100
AcDbEntity
  8
0-TEXTO
 62
12
100
AcDbLine
 10
-23.56671221432474
 20
1.534939429657807
 30
0.0
 11
-23.88531596151258
 21
1.534939429657807
 31
0.0
  0
CIRCLE
  5
128
330
17
100
AcDbEntity
  8
0-TEXTO
100
AcDbCircle
 10
-23.88531596151258
 20
1.534939429657807
 30
0.0
 40
0.0143465129660836
  0
LINE
  5
129
330
17
100
AcDbEntity
  8
0-TEXTO
 62
12
100
AcDbLine
 10
-23.56671221432474
 20
5.301369440246954
 30
0.0
 11
-23.88531596151258
 21
5.301369440246954
 31
0.0
  0
CIRCLE
  5
12A
330
17
100
AcDbEntity
  8
0-TEXTO
100
AcDbCircle
 10
-23.88531596151258
 20
5.301369440246954
 30
0.0
 40
0.0143465129660836
  0
LINE
  5
12B
330
17
100
AcDbEntity
  8
0
 62
8
100
AcDbLine
 10
-24.1169748319682
 20
7.099999999999997
 30
0.0
 11
-25.20970274378212
 21
7.100000000000001
 31
0.0
  0
LWPOLYLINE
  5
12C
330
17
100
AcDbEntity
  8
0
 62
8
100
AcDbPolyline
 90
6
 70
0
 10
-25.38556386943751
 20
6.858596774807303
 10
-24.91534629128111
 20
6.858596774807303
 10
-24.91534629128111
 20
7.100000000000001
 10
-24.80928027410314
 20
6.993933982822035
 10
-24.91534629128111
 20
7.100000000000001
 10
-25.02494784236504
 20
6.990398448916074
  0
LINE
  5
12D
330
17
100
AcDbEntity
  8
0
 62
8
100
AcDbLine
 10
-24.1169748319682
 20
3.245
 30
0.0
 11
-25.20970274378212
 21
3.245000000000004
 31
0.0
  0
LWPOLYLINE
  5
12E
330
17
100
AcDbEntity
  8
0
 62
8
100
AcDbPolyline
 90
6
 70
0
 10
-25.38556386943751
 20
3.003596774807306
 10
-24.91534629128111
 20
3.003596774807306
 10
-24.91534629128111
 20
3.245000000000004
 10
-24.80928027410314
 20
3.138933982822038
 10
-24.91534629128111
 20
3.245000000000004
 10
-25.02494784236504
 20
3.135398448916077
  0
LINE
  5
12F
330
17
100
AcDbEntity
  8
0
 62
4
100
AcDbLine
 10
-22.65954276442281
 20
-0.2000000000000011
 30
0.0
 11
-22.15954276442281
 21
-0.2000000000000011
 31
0.0
  0
LINE
  5
130
330
17
100
AcDbEntity
  8
0
 62
4
100
AcDbLine
 10
-22.15954276442281
 20
1.8e-15
 30
0.0
 11
-22.15954276442281
 21
-0.2000000000000011
 31
0.0
  0
LINE
  5
131
330
17
100
AcDbEntity
  8
0
 62
4
100
AcDbLine
 10
-22.65954276442281
 20
3.6e-15
 30
0.0
 11
-22.65954276442281
 21
-0.2000000000000011
 31
0.0
  0
LINE
  5
132
330
17
100
AcDbEntity
  8
0
 62
4
100
AcDbLine
 10
-22.18454276442283
 20
5.3e-15
 30
0.0
 11
-22.63454276442279
 21
1.8e-15
 31
0.0
  0
LINE
  5
133
330
17
100
AcDbEntity
  8
0
 62
11
100
AcDbLine
 10
-22.49231099318615
 20
6.611820983235261
 30
0.0
 11
-22.50231099318614
 21
6.611820983235261
 31
0.0
  0
LWPOLYLINE
  5
134
330
17
100
AcDbEntity
  8
0-cortes
 62
251
100
AcDbPolyline
 90
325
 70
0
 10
-20.73978612185051
 20
0.0073014618084233
 10
-20.75490129183455
 20
0.0103216304710658
 10
-20.77393680396181
 20
0.0141251243957066
 10
-20.7980311103557
 20
0.0258387673045308
 10
-20.7980311103557
 20
0.0437679577593389
 10
-20.78755504430653
 20
0.0574689120861667
 10
-20.78251434629951
 20
0.0834586878240416
 10
-20.78251434629951
 20
0.1001798108135148
 10
-20.77485636278948
 20
0.1114646302103659
 10
-20.78009785783187
 20
0.1203292333672148
 10
-20.77267803427274
 20
0.1247164538340766
 10
-20.7809010459761
 20
0.1467230586959467
 10
-20.77304226543
 20
0.1563916797265747
 10
-20.78150343708431
 20
0.1741249673496021
 10
-20.78566478255358
 20
0.2236190016416502
 10
-20.78412764662294
 20
0.3162402281798948
 10
-20.77401163043102
 20
0.400735568491379
 10
-20.75810712037461
 20
0.4596982396729477
 10
-20.75096728337844
 20
0.4861677039695396
 10
-20.75096728337844
 20
0.5113308798835683
 10
-20.73400455202087
 20
0.544940459531781
 10
-20.73400455202087
 20
0.5745013806485665
 10
-20.72972549794394
 20
0.6607516838316246
 10
-20.7200387719672
 20
0.7292931872455389
 10
-20.7279598688342
 20
0.7435165491247191
 10
-20.72206751443386
 20
0.7548911573191508
 10
-20.72917849912178
 20
0.7867825058769627
 10
-20.74421750471301
 20
0.802022113698328
 10
-20.75819020880298
 20
0.8263793658347552
 10
-20.76348017209581
 20
0.856699410425481
 10
-20.7682151037248
 20
0.8838382259858119
 10
-20.78119185547615
 20
0.8961738311131499
 10
-20.7730491894656
 20
0.9148907142058138
 10
-20.76492225340717
 20
0.9335714401387846
 10
-20.76836854131655
 20
0.9443944969961663
 10
-20.79464264020237
 20
0.9360282738011203
 10
-20.82576879746397
 20
0.9348319899997413
 10
-20.85936333393339
 20
0.9335408380128317
 10
-20.89192103476575
 20
0.9407335628196786
 10
-20.9120076623996
 20
0.9524591635878639
 10
-20.92285762637853
 20
0.965988702936798
 10
-20.931159545211
 20
0.9807916106940584
 10
-20.94597005762314
 20
0.9807916106940584
 10
-20.96409718314748
 20
0.9989167039813491
 10
-20.98007093356109
 20
1.02131900910439
 10
-20.98469537646275
 20
1.027804535560213
 10
-20.98991691236043
 20
1.018890630247123
 10
-20.9944383076876
 20
1.018702890033303
 10
-20.9944383076876
 20
1.026702255681307
 10
-20.9914748203978
 20
1.042460189745692
 10
-20.99931282883717
 20
1.072808803500336
 10
-21.01205633781773
 20
1.122151418390541
 10
-21.01382560771301
 20
1.159206033807404
 10
-21.01382560771301
 20
1.198390681554978
 10
-21.01382560771301
 20
1.232857336094769
 10
-21.00007447276652
 20
1.244550286391108
 10
-20.99308497106346
 20
1.250493642799762
 10
-20.97955163088201
 20
1.250493642799762
 10
-20.98506316331832
 20
1.283800235083078
 10
-20.96826545265296
 20
1.329894538975513
 10
-20.94125478929545
 20
1.389485731743635
 10
-20.90667615489254
 20
1.420764883950815
 10
-20.89671246748695
 20
1.438738968804762
 10
-20.85745318493498
 20
1.457206892047847
 10
-20.84326583573708
 20
1.457206892047847
 10
-20.83427843736807
 20
1.462051405835789
 10
-20.82355310603234
 20
1.465793966192596
 10
-20.83776122733702
 20
1.482710992014549
 10
-20.84408979598808
 20
1.492004132616837
 10
-20.82407240871218
 20
1.504917394305806
 10
-20.8159366667365
 20
1.497815916638495
 10
-20.8013407994316
 20
1.480645849658329
 10
-20.80004600475125
 20
1.468246832903746
 10
-20.7840307101234
 20
1.459986263479569
 10
-20.77925312547411
 20
1.454431601925454
 10
-20.77498791946835
 20
1.462051405835789
 10
-20.78984690013097
 20
1.480772370237785
 10
-20.80246249321895
 20
1.496958841747613
 10
-20.80246249321895
 20
1.522046648195466
 10
-20.79068470845313
 20
1.541706313667961
 10
-20.77378313725263
 20
1.555076681965589
 10
-20.7534887885472
 20
1.555076681965589
 10
-20.73651105295319
 20
1.560872140751323
 10
-20.72698357979763
 20
1.572258992872349
 10
-20.71082980445465
 20
1.579711463114113
 10
-20.69549998936268
 20
1.596689708571129
 10
-20.68390222952622
 20
1.592343114481656
 10
-20.66319243867744
 20
1.577850386208339
 10
-20.65615069434678
 20
1.575985227993233
 10
-20.66132987306751
 20
1.599795584723421
 10
-20.67297610115447
 20
1.610692679763944
 10
-20.67713052258883
 20
1.626899557819024
 10
-20.68345216720434
 20
1.644624682824089
 10
-20.67760135701818
 20
1.662027384417214
 10
-20.66418257578593
 20
1.704807665397586
 10
-20.63190964527857
 20
1.730821928989345
 10
-20.62410625701851
 20
1.742139398858046
 10
-20.61343631796888
 20
1.742139398858046
 10
-20.57725130727746
 20
1.75
 10
-20.56056438118419
 20
1.748436858651575
 10
-20.53932143958447
 20
1.743878036493696
 10
-20.52876920914179
 20
1.735670524086619
 10
-20.51156298036943
 20
1.718733091719411
 10
-20.49996522053226
 20
1.707268694727398
 10
-20.49214106016474
 20
1.696583827754583
 10
-20.48393607783255
 20
1.689417049143577
 10
-20.41632286899293
 20
1.689306853800045
 10
-20.41462648024114
 20
1.686825417925675
 10
-20.41697372835093
 20
1.678213855927042
 10
-20.42010339249818
 20
1.668426876935617
 10
-20.4265012015065
 20
1.66229266950272
 10
-20.42950623301049
 20
1.659423509272722
 10
-20.43746887409243
 20
1.652636292398686
 10
-20.44777876328485
 20
1.650285458412403
 10
-20.45731316047602
 20
1.647677501958578
 10
-20.47062808117244
 20
1.647677501958578
 10
-20.47728207950212
 20
1.64415533228814
 10
-20.48068178104269
 20
1.638935338071858
 10
-20.48068178104269
 20
1.634886679540434
 10
-20.46976950074281
 20
1.620369463412535
 10
-20.46114215223106
 20
1.607427632561048
 10
-20.45825482933471
 20
1.60659912683268
 10
-20.45641303583221
 20
1.595902015933274
 10
-20.45994429405089
 20
1.591241161050521
 10
-20.4667506211669
 20
1.586637444494198
 10
-20.4744847690705
 20
1.58607422385134
 10
-20.47730285160959
 20
1.583205063621338
 10
-20.47326613878292
 20
1.575389356878524
 10
-20.47562723496451
 20
1.570981543154687
 10
-20.47936621425488
 20
1.567802203440039
 10
-20.48044636382805
 20
1.564777953468064
 10
-20.47798140711055
 20
1.562778112056237
 10
-20.4788053673616
 20
1.556423513936974
 10
-20.48157498165095
 20
1.552885019030612
 10
-20.48192118343699
 20
1.548195594984644
 10
-20.48241278997381
 20
1.542285859546744
 10
-20.478798443326
 20
1.536376124108846
 10
-20.48060561664993
 20
1.527678854621263
 10
-20.48389453361836
 20
1.520948776073661
 10
-20.48856825773186
 20
1.519222382364604
 10
-20.50105229414098
 20
1.514463576066311
 10
-20.5127123702991
 20
1.515524716406936
 10
-20.52776522396218
 20
1.51075774749068
 10
-20.53335292079132
 20
1.506480535654231
 10
-20.53615023122298
 20
1.50245228366736
 10
-20.52854147198404
 20
1.497168587001795
 10
-20.52077194788127
 20
1.494069274973057
 10
-20.51189533408436
 20
1.495958921041348
 10
-20.50309488467956
 20
1.492918345833452
 10
-20.50169622946338
 20
1.485437306429168
 10
-20.50419580635939
 20
1.478715390499525
 10
-20.51012970497466
 20
1.476988996790469
 10
-20.50452816007432
 20
1.451546116459532
 10
-20.50732547050669
 20
1.450721692040494
 10
-20.5125946616921
 20
1.47558910780268
 10
-20.52025956923774
 20
1.465953137243899
 10
-20.52816681803433
 20
1.461839177767383
 10
-20.5303894335015
 20
1.455084611365893
 10
-20.53574171311598
 20
1.450146227471041
 10
-20.52561184885222
 20
1.442897822679719
 10
-20.52165822445392
 20
1.437710478935285
 10
-20.50930574472361
 20
1.437383974215415
 10
-20.49414903052469
 20
1.433098599761002
 10
-20.48584191102649
 20
1.430749863932097
 10
-20.47834145696781
 20
1.42613180529111
 10
-20.45854563883471
 20
1.426788896040878
 10
-20.43874982070166
 20
1.420324102578083
 10
-20.41851413144907
 20
1.413715658778706
 10
-20.4018134553392
 20
1.408261657281343
 10
-20.38794817059857
 20
1.391305995559602
 10
-20.37648196744021
 20
1.399958370648045
 10
-20.36445491738859
 20
1.40088482779195
 10
-20.35150004655012
 20
1.396787193552059
 10
-20.34436136571918
 20
1.395599532631975
 10
-20.33272898570409
 20
1.400750144594534
 10
-20.28975842000413
 20
1.396664754281933
 10
-20.26140449371649
 20
1.398358497518444
 10
-20.22670122667031
 20
1.398358497518444
 10
-20.20808249460986
 20
1.398358497518444
 10
-20.20808249460986
 20
1.402162277510314
 10
-20.17993628939459
 20
1.403643792678419
 10
-20.14735177727977
 20
1.406394594947624
 10
-20.13825359433937
 20
1.406394594947624
 10
-20.12576263389395
 20
1.393281349117542
 10
-20.10478972968749
 20
1.398321765737264
 10
-20.09404362624505
 20
1.398587050822774
 10
-20.08303440944419
 20
1.413569536176593
 10
-20.07640810725683
 20
1.424572745251316
 10
-20.06699141867336
 20
1.440881656031969
 10
-20.06227515008673
 20
1.449049835632959
 10
-20.05253403208287
 20
1.461296363669777
 10
-20.04975056972167
 20
1.468589662860241
 10
-20.04568549524979
 20
1.479241074845659
 10
-20.04568549524979
 20
1.487547343184536
 10
-20.04288192628401
 20
1.488996207880785
 10
-20.03899061820737
 20
1.487959555393344
 10
-20.03519624663096
 20
1.48380478282772
 10
-20.0318242412341
 20
1.476225792007196
 10
-20.03353447805775
 20
1.465377672674446
 10
-20.03353447805775
 20
1.458888391357764
 10
-20.03623485198988
 20
1.452558281092387
 10
-20.03864305061903
 20
1.446913076670063
 10
-20.04241801589097
 20
1.439318514683548
 10
-20.04480680821559
 20
1.431894613604997
 10
-20.04389975953552
 20
1.425988959475727
 10
-20.03220506319882
 20
1.425319624799364
 10
-20.01607898399887
 20
1.423148368408941
 10
-20.00756242005847
 20
1.422315781371946
 10
-19.99703788575886
 20
1.415634678532813
 10
-19.99026617882148
 20
1.409120909362246
 10
-19.99010000196399
 20
1.400521591290904
 10
-19.99436520796976
 20
1.395342410164432
 10
-19.99268959132473
 20
1.390665230045756
 10
-19.99026617882148
 20
1.382314871823297
 10
-19.99377666493345
 20
1.376556144818739
 10
-19.99586772372177
 20
1.372213632038596
 10
-19.99385975336182
 20
1.367703785589186
 10
-19.99394284179089
 20
1.356765877458157
 10
-19.99780645372451
 20
1.35293352830307
 10
-19.99984904426309
 20
1.350317409231282
 10
-19.99723175875933
 20
1.34706868726431
 10
-19.99806956708223
 20
1.343036353968113
 10
-20.00043066326384
 20
1.335963445464015
 10
-20.00551290548434
 20
1.33470640229091
 10
-20.02080810039768
 20
1.331906624313931
 10
-20.03758503895562
 20
1.328719121982023
 10
-20.05058145400897
 20
1.327629412478181
 10
-20.06719221570943
 20
1.329808831485864
 10
-20.07743059638911
 20
1.331152160700002
 10
-20.08572785934077
 20
1.334420710660847
 10
-20.08759781934487
 20
1.32967378922812
 10
-20.09004828170233
 20
1.323453253890944
 10
-20.1006560803606
 20
1.323453253890944
 10
-20.11692756431052
 20
1.32368686798026
 10
-20.12204442671035
 20
1.319581071121707
 10
-20.125402584036
 20
1.309769604276399
 10
-20.13688955930176
 20
1.306835143102002
 10
-20.16921788209447
 20
1.29916228217457
 10
-20.20584603107152
 20
1.293701490727365
 10
-20.24717560030509
 20
1.285975572782132
 10
-20.29497221890414
 20
1.277972125825497
 10
-20.32661472573356
 20
1.272673652159221
 10
-20.36119369656318
 20
1.270168663009973
 10
-20.38380759723606
 20
1.27057271260083
 10
-20.41799156160239
 20
1.274609127206359
 10
-20.44727717684147
 20
1.278067148745813
 10
-20.46456262587835
 20
1.28053110657085
 10
-20.48502315144127
 20
1.28053110657085
 10
-20.4873080832301
 20
1.276629375163439
 10
-20.4819281074726
 20
1.258598151983062
 10
-20.4819281074726
 20
1.222539786932333
 10
-20.4780229513248
 20
1.20163940352265
 10
-20.47219983728167
 20
1.165642258106285
 10
-20.46620795141608
 20
1.128601804283063
 10
-20.46271390834024
 20
1.094292814097429
 10
-20.46342708401984
 20
1.054822474719095
 10
-20.46342708401984
 20
1.023514753348696
 10
-20.45975734508674
 20
0.9788244197540816
 10
-20.46407794337785
 20
0.9624134762492539
 10
-20.47098813102969
 20
0.932403611141773
 10
-20.47033727167169
 20
0.9103808677564039
 10
-20.46934021052765
 20
0.8899539161906042
 10
-20.46447261341437
 20
0.8779222172471023
 10
-20.46798309952565
 20
0.8679148475686098
 10
-20.48124262793602
 20
0.8700779413410725
 10
-20.49431863108566
 20
0.8722110957117462
 10
-20.49642703827796
 20
0.8711921386987979
 10
-20.49642703827796
 20
0.8649436546137376
 10
-20.49596312788418
 20
0.8489530859356936
 10
-20.50097612974817
 20
0.8210328510390176
 10
-20.50911187172315
 20
0.8088378997348808
 10
-20.51454031573039
 20
0.7875579545875288
 10
-20.52505100195888
 20
0.7312685408034821
 10
-20.53113030532413
 20
0.7013035700958397
 10
-20.53833793590983
 20
0.6657770588501404
 10
-20.54593392372534
 20
0.6283363294256237
 10
-20.55485205171251
 20
0.5786561532148895
 10
-20.56246849100835
 20
0.5377655183028124
 10
-20.56572971183377
 20
0.5123185566625431
 10
-20.58074102128266
 20
0.4762112159033447
 10
-20.59248418586915
 20
0.4733951126904428
 10
-20.59970595512917
 20
0.4698484551661182
 10
-20.60543905670762
 20
0.4545802781822355
 10
-20.61511885864951
 20
0.4485848352546893
 10
-20.62002799997696
 20
0.4404058920108285
 10
-20.6238500676964
 20
0.4333166582708098
 10
-20.62566839316934
 20
0.4299439984334051
 10
-20.62153051572899
 20
0.413820245158248
 10
-20.62818451405941
 20
0.3907975810666144
 10
-20.63038635741983
 20
0.3489968142465523
 10
-20.63209946344443
 20
0.3164744528661296
 10
-20.64284269768592
 20
0.2817041913877798
 10
-20.64340354457994
 20
0.2616976146494592
 10
-20.64380318098369
 20
0.2474417518397305
 10
-20.63654874921345
 20
0.2392300085827241
 10
-20.62997091527583
 20
0.2248433943429113
 10
-20.62997091527583
 20
0.2122403121385878
 10
-20.63463079131818
 20
0.2037471081007487
 10
-20.63743888735328
 20
0.1986290035915867
 10
-20.62762366716609
 20
0.1895768032386713
 10
-20.62762366716609
 20
0.1785980820178323
 10
-20.63009554791913
 20
0.1706395294603376
 10
-20.62378082733919
 20
0.1659745932682557
 10
-20.61910710322574
 20
0.1526613632970604
 10
-20.60950346567736
 20
0.1526613632970604
 10
-20.59261574254801
 20
0.1436049386170615
 10
-20.57446784491696
 20
0.126736888503578
 10
-20.55619064156745
 20
0.1097486517226107
 10
-20.5371195962247
 20
0.1072812884808265
 10
-20.50806634232862
 20
0.1035387281240192
 10
-20.48517548022755
 20
0.0986982956454068
 10
-20.47806449553898
 20
0.0802099658570697
 10
-20.48164422200816
 20
0.0649295449458973
 10
-20.49597005191978
 20
0.0558445511026822
 10
-20.50850255657939
 20
0.0500613362442408
 10
-20.5020216591427
 20
0.0415762948243621
 10
-20.50256865796482
 20
0.0239246333816539
 10
-20.5152604154456
 20
0.0127540906376649
 10
-20.54050544969342
 20
0.0025508181273914
 10
-20.56850625015871
 20
-0.0011713356841596
 10
-20.60685848403127
 20
0.0011713356841598
 10
-20.66522118114415
 20
0.0056607755883134
 10
-20.69009231746286
 20
0.0095257752152471
 10
-20.71274776234998
 20
0.0073177870443468
 10
-20.73978612185051
 20
0.0073014618084233
  0
LWPOLYLINE
  5
135
330
17
100
AcDbEntity
  8
0-cortes
 62
251
100
AcDbPolyline
 90
83
 70
0
 10
-20.46147450594594
 20
0.0820710427628468
 10
-20.46147450594594
 20
0.539651083062473
 10
-20.46147450594594
 20
0.5545274543827916
 10
-20.46147450594594
 20
0.5816110209338382
 10
-20.44640780421169
 20
0.5978178989889223
 10
-20.42395315636068
 20
0.6052622066120275
 10
-20.3965547470029
 20
0.6065314937124253
 10
-20.3738646819372
 20
0.6059723543788963
 10
-20.36216998559976
 20
0.6075028452554737
 10
-20.35019832783417
 20
0.6187754207243329
 10
-20.34253964476528
 20
0.6259868766961363
 10
-20.32750826276847
 20
0.6328273676256165
 10
-20.30843946838619
 20
0.636586253218347
 10
-20.28727961521478
 20
0.6377004505767748
 10
-20.26445799347027
 20
0.6332477424530956
 10
-20.25488612292111
 20
0.6313801825474011
 10
-20.24431631391946
 20
0.6293179156789817
 10
-20.23452538703779
 20
0.6279583659837906
 10
-20.22979627063898
 20
0.6197508535767104
 10
-20.18319058618445
 20
0.6273502509417892
 10
-20.17621808221095
 20
0.6223302408673197
 10
-20.15321643553778
 20
0.6189876487927389
 10
-20.13676492665851
 20
0.6189876487927389
 10
-20.11947560945708
 20
0.6155022109034773
 10
-20.10553060151012
 20
0.6085354164335819
 10
-20.09521378828214
 20
0.5989157711107242
 10
-20.09159251759878
 20
0.5883247742455207
 10
-20.08880213120197
 20
0.5739708104782535
 10
-20.08894061191643
 20
0.5596127654016538
 10
-20.0936835763871
 20
0.5509726342398047
 10
-20.09283191999308
 20
0.1205985997613514
 10
-20.08545782194749
 20
0.1116605330421494
 10
-20.08813742377286
 20
0.0971351542969856
 10
-20.09104551877662
 20
0.0761245755437698
 10
-20.10334260622153
 20
0.061599196798606
 10
-20.11563969366648
 20
0.0539997994328285
 10
-20.12351311784968
 20
0.0491341530538969
 10
-20.12140049138796
 20
0.0373888717861919
 10
-20.12332537331953
 20
0.0292548229414678
 10
-20.12700203628825
 20
0.0226022892648519
 10
-20.13234046783156
 20
0.0178802147470363
 10
-20.13627332012244
 20
0.0198025112878766
 10
-20.13909536227235
 20
0.021181866895907
 10
-20.14432597366831
 20
0.0191046074482975
 10
-20.150280644391
 20
0.0191046074482975
 10
-20.15509284921822
 20
0.0282916340163828
 10
-20.15614530264831
 20
0.0370378792117361
 10
-20.15929573890232
 20
0.0417640350388844
 10
-20.19281499584024
 20
0.0318342102320801
 10
-20.24879582466406
 20
0.0190760382850812
 10
-20.26829608739421
 20
0.0146318792729767
 10
-20.26919403390537
 20
-0.0031875023319101
 10
-20.27106352355091
 20
-0.0128602046718707
 10
-20.27553645062829
 20
-0.0183903783720958
 10
-20.28291747270948
 20
-0.0185658746593254
 10
-20.29002845739741
 20
-0.0161946341277894
 10
-20.2934489310447
 20
-0.0184760858617448
 10
-20.29898123558778
 20
-0.0170721155639275
 10
-20.30188240655598
 20
-0.0089094975559871
 10
-20.30794093781381
 20
0.007591234747816
 10
-20.30794093781381
 20
0.0137376861080059
 10
-20.32971703016379
 20
0.0137376861080059
 10
-20.33815050567508
 20
0.0139988898841792
 10
-20.35307180265936
 20
0.0156681452668064
 10
-20.3631739707801
 20
0.0182148820848698
 10
-20.37397546650859
 20
0.0250592372846357
 10
-20.38495006313013
 20
0.0250592372846357
 10
-20.39118169528096
 20
0.0250592372846357
 10
-20.39093242999514
 20
0.0178516455838198
 10
-20.39093242999514
 20
0.0072973804990937
 10
-20.39462986507132
 20
-0.0033385107652528
 10
-20.39788416186187
 20
-0.0081748619352315
 10
-20.40351340290449
 20
-0.0081748619352315
 10
-20.41099136148592
 20
-0.0036895033397055
 10
-20.41292995518154
 20
-0.006921513234402
 10
-20.42137049103555
 20
-0.007472876786323
 10
-20.42646658132792
 20
-0.0036895033397055
 10
-20.43130648229881
 20
0.0087952209038211
 10
-20.43411764080234
 20
0.0200473898281295
 10
-20.43702573580615
 20
0.0290140257098488
 10
-20.44977980960924
 20
0.0383357354753535
 10
-20.45866334744241
 20
0.054248759282411
 10
-20.46147450594594
 20
0.0820710427628468
  0
ENDSEC
  0
SECTION
  2
OBJECTS
  0
DICTIONARY
  5
A
330
0
100
AcDbDictionary
281
1
  3
ACAD_COLOR
350
B
  3
ACAD_GROUP
350
C
  3
ACAD_LAYOUT
350
D
  3
ACAD_MATERIAL
350
E
  3
ACAD_MLEADERSTYLE
350
F
  3
ACAD_MLINESTYLE
350
10
  3
ACAD_PLOTSETTINGS
350
11
  3
ACAD_PLOTSTYLENAME
350
12
  3
ACAD_SCALELIST
350
14
  3
ACAD_TABLESTYLE
350
15
  3
ACAD_VISUALSTYLE
350
16
  3
EZDXF_META
350
2D
  0
DICTIONARY
  5
B
330
A
100
AcDbDictionary
281
1
  0
DICTIONARY
  5
C
330
A
100
AcDbDictionary
281
1
  0
DICTIONARY
  5
D
330
A
100
AcDbDictionary
281
1
  3
Model
350
1A
  3
Layout1
350
1E
  0
DICTIONARY
  5
E
330
A
100
AcDbDictionary
281
1
  3
ByBlock
350
1F
  3
ByLayer
350
20
  3
Global
350
21
  0
DICTIONARY
  5
F
330
A
100
AcDbDictionary
281
1
  3
Standard
350
2C
  0
DICTIONARY
  5
10
330
A
100
AcDbDictionary
281
1
  3
Standard
350
22
  0
DICTIONARY
  5
11
330
A
100
AcDbDictionary
281
1
  0
ACDBDICTIONARYWDFLT
  5
12
330
A
100
AcDbDictionary
281
1
  3
Normal
350
13
100
AcDbDictionaryWithDefault
340
13
  0
ACDBPLACEHOLDER
  5
13
330
12
  0
DICTIONARY
  5
14
330
A
100
AcDbDictionary
281
1
  0
DICTIONARY
  5
15
330
A
100
AcDbDictionary
281
1
  0
DICTIONARY
  5
16
330
A
100
AcDbDictionary
281
1
  0
LAYOUT
  5
1A
330
D
100
AcDbPlotSettings
  1

  4
A3
  6

 40
7.5
 41
20.0
 42
7.5
 43
20.0
 44
420.0
 45
297.0
 46
0.0
 47
0.0
 48
0.0
 49
0.0
140
0.0
141
0.0
142
1.0
143
1.0
 70
1024
 72
1
 73
0
 74
5
  7

 75
16
 76
0
 77
2
 78
300
147
1.0
148
0.0
149
0.0
100
AcDbLayout
  1
Model
 70
1
 71
0
 10
0.0
 20
0.0
 11
420.0
 21
297.0
 12
0.0
 22
0.0
 32
0.0
 14
1e+20
 24
1e+20
 34
1e+20
 15
-1e+20
 25
-1e+20
 35
-1e+20
146
0.0
 13
0.0
 23
0.0
 33
0.0
 16
1.0
 26
0.0
 36
0.0
 17
0.0
 27
1.0
 37
0.0
 76
1
330
17
  0
LAYOUT
  5
1E
330
D
100
AcDbPlotSettings
  1

  4
A3
  6

 40
7.5
 41
20.0
 42
7.5
 43
20.0
 44
420.0
 45
297.0
 46
0.0
 47
0.0
 48
0.0
 49
0.0
140
0.0
141
0.0
142
1.0
143
1.0
 70
0
 72
1
 73
0
 74
5
  7

 75
16
 76
0
 77
2
 78
300
147
1.0
148
0.0
149
0.0
100
AcDbLayout
  1
Layout1
 70
1
 71
1
 10
0.0
 20
0.0
 11
420.0
 21
297.0
 12
0.0
 22
0.0
 32
0.0
 14
1e+20
 24
1e+20
 34
1e+20
 15
-1e+20
 25
-1e+20
 35
-1e+20
146
0.0
 13
0.0
 23
0.0
 33
0.0
 16
1.0
 26
0.0
 36
0.0
 17
0.0
 27
1.0
 37
0.0
 76
1
330
1B
  0
MATERIAL
  5
1F
102
{ACAD_REACTORS
330
E
102
}
330
E
100
AcDbMaterial
  1
ByBlock
  2

 70
0
 40
1.0
 71
1
 41
1.0
 91
-1023410177
 42
1.0
 72
1
  3

 73
1
 74
1
 75
1
 44
0.5
 73
0
 45
1.0
 46
1.0
 77
1
  4

 78
1
 79
1
170
1
 48
1.0
171
1
  6

172
1
173
1
174
1
140
1.0
141
1.0
175
1
  7

176
1
177
1
178
1
143
1.0
179
1
  8

270
1
271
1
272
1
145
1.0
146
1.0
273
1
  9

274
1
275
1
276
1
 42
1.0
 72
1
  3

 73
1
 74
1
 75
1
 94
63
  0
MATERIAL
  5
20
102
{ACAD_REACTORS
330
E
102
}
330
E
100
AcDbMaterial
  1
ByLayer
  2

 70
0
 40
1.0
 71
1
 41
1.0
 91
-1023410177
 42
1.0
 72
1
  3

 73
1
 74
1
 75
1
 44
0.5
 73
0
 45
1.0
 46
1.0
 77
1
  4

 78
1
 79
1
170
1
 48
1.0
171
1
  6

172
1
173
1
174
1
140
1.0
141
1.0
175
1
  7

176
1
177
1
178
1
143
1.0
179
1
  8

270
1
271
1
272
1
145
1.0
146
1.0
273
1
  9

274
1
275
1
276
1
 42
1.0
 72
1
  3

 73
1
 74
1
 75
1
 94
63
  0
MATERIAL
  5
21
102
{ACAD_REACTORS
330
E
102
}
330
E
100
AcDbMaterial
  1
Global
  2

 70
0
 40
1.0
 71
1
 41
1.0
 91
-1023410177
 42
1.0
 72
1
  3

 73
1
 74
1
 75
1
 44
0.5
 73
0
 45
1.0
 46
1.0
 77
1
  4

 78
1
 79
1
170
1
 48
1.0
171
1
  6

172
1
173
1
174
1
140
1.0
141
1.0
175
1
  7

176
1
177
1
178
1
143
1.0
179
1
  8

270
1
271
1
272
1
145
1.0
146
1.0
273
1
  9

274
1
275
1
276
1
 42
1.0
 72
1
  3

 73
1
 74
1
 75
1
 94
63
  0
MLINESTYLE
  5
22
102
{ACAD_REACTORS
330
10
102
}
330
10
100
AcDbMlineStyle
  2
Standard
 70
0
  3

 62
256
 51
90.0
 52
90.0
 71
2
 49
0.5
 62
256
  6
BYLAYER
 49
-0.5
 62
256
  6
BYLAYER
  0
MLEADERSTYLE
  5
2C
102
{ACAD_REACTORS
330
F
102
}
330
F
100
AcDbMLeaderStyle
179
2
170
2
171
1
172
0
 90
2
 40
0.0
 41
0.0
173
1
 91
-1056964608
 92
-2
290
1
 42
2.0
291
1
 43
8.0
  3
Standard
 44
4.0
300

342
29
174
1
175
1
176
0
178
1
 93
-1056964608
 45
4.0
292
0
297
0
 46
4.0
 94
-1056964608
 47
1.0
 49
1.0
140
1.0
294
1
141
0.0
177
0
142
1.0
295
0
296
0
143
3.75
271
0
272
9
273
9
  0
DICTIONARY
  5
2D
330
A
100
AcDbDictionary
280
1
281
1
  3
CREATED_BY_EZDXF
350
2E
  3
WRITTEN_BY_EZDXF
350
138
  0
DICTIONARYVAR
  5
2E
330
2D
100
DictionaryVariables
280
0
  1
1.4.4 @ 2026-10-03T07:35:13.901328+00:00
  0
DICTIONARYVAR
  5
138
330
2D
100
DictionaryVariables
280
0
  1
1.4.4 @ 2026-10-03T07:35:13.908416+00:00
  0
ENDSEC
  0
EOF
