  0
SECTION
  2
HEADER
  9
$ACADVER
  1
AC1032
  9
$ACADMAINTVER
 90
4
  9
$DWGCODEPAGE
  3
ANSI_1252
  9
$LASTSAVEDBY
  1
ezdxf
  9
$REQUIREDVERSIONS
160
0
  9
$INSBASE
 10
0.0
 20
0.0
 30
0.0
  9
$EXTMIN
 10
1e+20
 20
1e+20
 30
1e+20
  9
$EXTMAX
 10
-1e+20
 20
-1e+20
 30
-1e+20
  9
$LIMMIN
 10
0.0
 20
0.0
  9
$LIMMAX
 10
420.0
 20
297.0
  9
$ORTHOMODE
 70
0
  9
$REGENMODE
 70
1
  9
$FILLMODE
 70
1
  9
$QTEXTMODE
 70
0
  9
$MIRRTEXT
 70
1
  9
$LTSCALE
 40
1.0
  9
$ATTMODE
 70
1
  9
$TEXTSIZE
 40
2.5
  9
$TRACEWID
 40
1.0
  9
$TEXTSTYLE
  7
Standard
  9
$CLAYER
  8
0
  9
$CELTYPE
  6
ByLayer
  9
$CECOLOR
 62
256
  9
$CELTSCALE
 40
1.0
  9
$DISPSILH
 70
0
  9
$DIMSCALE
 40
1.0
  9
$DIMASZ
 40
2.5
  9
$DIMEXO
 40
0.625
  9
$DIMDLI
 40
3.75
  9
$DIMRND
 40
0.0
  9
$DIMDLE
 40
0.0
  9
$DIMEXE
 40
1.25
  9
$DIMTP
 40
0.0
  9
$DIMTM
 40
0.0
  9
$DIMTXT
 40
2.5
  9
$DIMCEN
 40
2.5
  9
$DIMTSZ
 40
0.0
  9
$DIMTOL
 70
0
  9
$DIMLIM
 70
0
  9
$DIMTIH
 70
0
  9
$DIMTOH
 70
0
  9
$DIMSE1
 70
0
  9
$DIMSE2
 70
0
  9
$DIMTAD
 70
1
  9
$DIMZIN
 70
8
  9
$DIMBLK
  1

  9
$DIMASO
 70
1
  9
$DIMSHO
 70
1
  9
$DIMPOST
  1

  9
$DIMAPOST
  1

  9
$DIMALT
 70
0
  9
$DIMALTD
 70
3
  9
$DIMALTF
 40
0.03937007874
  9
$DIMLFAC
 40
1.0
  9
$DIMTOFL
 70
1
  9
$DIMTVP
 40
0.0
  9
$DIMTIX
 70
0
  9
$DIMSOXD
 70
0
  9
$DIMSAH
 70
0
  9
$DIMBLK1
  1

  9
$DIMBLK2
  1

  9
$DIMSTYLE
  2
ISO-25
  9
$DIMCLRD
 70
0
  9
$DIMCLRE
 70
0
  9
$DIMCLRT
 70
0
  9
$DIMTFAC
 40
1.0
  9
$DIMGAP
 40
0.625
  9
$DIMJUST
 70
0
  9
$DIMSD1
 70
0
  9
$DIMSD2
 70
0
  9
$DIMTOLJ
 70
0
  9
$DIMTZIN
 70
8
  9
$DIMALTZ
 70
0
  9
$DIMALTTZ
 70
0
  9
$DIMUPT
 70
0
  9
$DIMDEC
 70
2
  9
$DIMTDEC
 70
2
  9
$DIMALTU
 70
2
  9
$DIMALTTD
 70
3
  9
$DIMTXSTY
  7
Standard
  9
$DIMAUNIT
 70
0
  9
$DIMADEC
 70
0
  9
$DIMALTRND
 40
0.0
  9
$DIMAZIN
 70
0
  9
$DIMDSEP
 70
44
  9
$DIMATFIT
 70
3
  9
$DIMFRAC
 70
0
  9
$DIMLDRBLK
  1

  9
$DIMLUNIT
 70
2
  9
$DIMLWD
 70
-2
  9
$DIMLWE
 70
-2
  9
$DIMTMOVE
 70
0
  9
$DIMFXL
 40
1.0
  9
$DIMFXLON
 70
0
  9
$DIMJOGANG
 40
0.785398163397
  9
$DIMTFILL
 70
0
  9
$DIMTFILLCLR
 70
0
  9
$DIMARCSYM
 70
0
  9
$DIMLTYPE
  6

  9
$DIMLTEX1
  6

  9
$DIMLTEX2
  6

  9
$DIMTXTDIRECTION
 70
0
  9
$LUNITS
 70
2
  9
$LUPREC
 70
4
  9
$SKETCHINC
 40
1.0
  9
$FILLETRAD
 40
10.0
  9
$AUNITS
 70
0
  9
$AUPREC
 70
2
  9
$MENU
  1
.
  9
$ELEVATION
 40
0.0
  9
$PELEVATION
 40
0.0
  9
$THICKNESS
 40
0.0
  9
$LIMCHECK
 70
0
  9
$CHAMFERA
 40
0.0
  9
$CHAMFERB
 40
0.0
  9
$CHAMFERC
 40
0.0
  9
$CHAMFERD
 40
0.0
  9
$SKPOLY
 70
0
  9
$TDCREATE
 40
2461317.316238426
  9
$TDUCREATE
 40
2458532.153996898
  9
$TDUPDATE
 40
2461317.316238426
  9
$TDUUPDATE
 40
2458532.1544311
  9
$TDINDWG
 40
0.0
  9
$TDUSRTIMER
 40
0.0
  9
$USRTIMER
 70
1
  9
$ANGBASE
 50
0.0
  9
$ANGDIR
 70
0
  9
$PDMODE
 70
0
  9
$PDSIZE
 40
0.0
  9
$PLINEWID
 40
0.0
  9
$SPLFRAME
 70
0
  9
$SPLINETYPE
 70
6
  9
$SPLINESEGS
 70
8
  9
$HANDSEED
  5
3F4
  9
$SURFTAB1
 70
6
  9
$SURFTAB2
 70
6
  9
$SURFTYPE
 70
6
  9
$SURFU
 70
6
  9
$SURFV
 70
6
  9
$UCSBASE
  2

  9
$UCSNAME
  2

  9
$UCSORG
 10
0.0
 20
0.0
 30
0.0
  9
$UCSXDIR
 10
1.0
 20
0.0
 30
0.0
  9
$UCSYDIR
 10
0.0
 20
1.0
 30
0.0
  9
$UCSORTHOREF
  2

  9
$UCSORTHOVIEW
 70
0
  9
$UCSORGTOP
 10
0.0
 20
0.0
 30
0.0
  9
$UCSORGBOTTOM
 10
0.0
 20
0.0
 30
0.0
  9
$UCSORGLEFT
 10
0.0
 20
0.0
 30
0.0
  9
$UCSORGRIGHT
 10
0.0
 20
0.0
 30
0.0
  9
$UCSORGFRONT
 10
0.0
 20
0.0
 30
0.0
  9
$UCSORGBACK
 10
0.0
 20
0.0
 30
0.0
  9
$PUCSBASE
  2

  9
$PUCSNAME
  2

  9
$PUCSORG
 10
0.0
 20
0.0
 30
0.0
  9
$PUCSXDIR
 10
1.0
 20
0.0
 30
0.0
  9
$PUCSYDIR
 10
0.0
 20
1.0
 30
0.0
  9
$PUCSORTHOREF
  2

  9
$PUCSORTHOVIEW
 70
0
  9
$PUCSORGTOP
 10
0.0
 20
0.0
 30
0.0
  9
$PUCSORGBOTTOM
 10
0.0
 20
0.0
 30
0.0
  9
$PUCSORGLEFT
 10
0.0
 20
0.0
 30
0.0
  9
$PUCSORGRIGHT
 10
0.0
 20
0.0
 30
0.0
  9
$PUCSORGFRONT
 10
0.0
 20
0.0
 30
0.0
  9
$PUCSORGBACK
 10
0.0
 20
0.0
 30
0.0
  9
$USERI1
 70
0
  9
$USERI2
 70
0
  9
$USERI3
 70
0
  9
$USERI4
 70
0
  9
$USERI5
 70
0
  9
$USERR1
 40
0.0
  9
$USERR2
 40
0.0
  9
$USERR3
 40
0.0
  9
$USERR4
 40
0.0
  9
$USERR5
 40
0.0
  9
$WORLDVIEW
 70
1
  9
$SHADEDGE
 70
3
  9
$SHADEDIF
 70
70
  9
$TILEMODE
 70
1
  9
$MAXACTVP
 70
64
  9
$PINSBASE
 10
0.0
 20
0.0
 30
0.0
  9
$PLIMCHECK
 70
0
  9
$PEXTMIN
 10
1e+20
 20
1e+20
 30
1e+20
  9
$PEXTMAX
 10
-1e+20
 20
-1e+20
 30
-1e+20
  9
$PLIMMIN
 10
0.0
 20
0.0
  9
$PLIMMAX
 10
420.0
 20
297.0
  9
$UNITMODE
 70
0
  9
$VISRETAIN
 70
1
  9
$PLINEGEN
 70
0
  9
$PSLTSCALE
 70
1
  9
$TREEDEPTH
 70
3020
  9
$CMLSTYLE
  2
Standard
  9
$CMLJUST
 70
0
  9
$CMLSCALE
 40
20.0
  9
$PROXYGRAPHICS
 70
1
  9
$MEASUREMENT
 70
1
  9
$CELWEIGHT
370
-1
  9
$ENDCAPS
280
0
  9
$JOINSTYLE
280
0
  9
$LWDISPLAY
290
0
  9
$INSUNITS
 70
6
  9
$HYPERLINKBASE
  1

  9
$STYLESHEET
  1

  9
$XEDIT
290
1
  9
$CEPSNTYPE
380
0
  9
$PSTYLEMODE
290
1
  9
$FINGERPRINTGUID
  2
{933FA70D-2834-479D-B3B1-E57490799828}
  9
$VERSIONGUID
  2
{F434255C-B741-4644-A011-5C073CE96D80}
  9
$EXTNAMES
290
1
  9
$PSVPSCALE
 40
0.0
  9
$OLESTARTUP
290
0
  9
$SORTENTS
280
127
  9
$INDEXCTL
280
0
  9
$HIDETEXT
280
1
  9
$XCLIPFRAME
280
1
  9
$HALOGAP
280
0
  9
$OBSCOLOR
 70
257
  9
$OBSLTYPE
280
0
  9
$INTERSECTIONDISPLAY
280
0
  9
$INTERSECTIONCOLOR
 70
257
  9
$DIMASSOC
280
2
  9
$PROJECTNAME
  1

  9
$CAMERADISPLAY
290
0
  9
$LENSLENGTH
 40
50.0
  9
$CAMERAHEIGHT
 40
0.0
  9
$STEPSPERSEC
 40
24.0
  9
$STEPSIZE
 40
100.0
  9
$3DDWFPREC
 40
2.0
  9
$PSOLWIDTH
 40
0.005
  9
$PSOLHEIGHT
 40
0.08
  9
$LOFTANG1
 40
1.570796326795
  9
$LOFTANG2
 40
1.570796326795
  9
$LOFTMAG1
 40
0.0
  9
$LOFTMAG2
 40
0.0
  9
$LOFTPARAM
 70
7
  9
$LOFTNORMALS
280
1
  9
$LATITUDE
 40
37.795
  9
$LONGITUDE
 40
-122.394
  9
$NORTHDIRECTION
 40
0.0
  9
$TIMEZONE
 70
-8000
  9
$LIGHTGLYPHDISPLAY
280
1
  9
$TILEMODELIGHTSYNCH
280
1
  9
$CMATERIAL
347
20
  9
$SOLIDHIST
280
0
  9
$SHOWHIST
280
1
  9
$DWFFRAME
280
2
  9
$DGNFRAME
280
2
  9
$REALWORLDSCALE
290
1
  9
$INTERFERECOLOR
 62
256
  9
$CSHADOW
280
0
  9
$SHADOWPLANELOCATION
 40
0.0
  0
ENDSEC
  0
SECTION
  2
CLASSES
  0
CLASS
  1
ACDBDICTIONARYWDFLT
  2
AcDbDictionaryWithDefault
  3
ObjectDBX Classes
 90
0
 91
0
280
0
281
0
  0
CLASS
  1
SUN
  2
AcDbSun
  3
SCENEOE
 90
1153
 91
0
280
0
281
0
  0
CLASS
  1
VISUALSTYLE
  2
AcDbVisualStyle
  3
ObjectDBX Classes
 90
4095
 91
0
280
0
281
0
  0
CLASS
  1
MATERIAL
  2
AcDbMaterial
  3
ObjectDBX Classes
 90
1153
 91
0
280
0
281
0
  0
CLASS
  1
SCALE
  2
AcDbScale
  3
ObjectDBX Classes
 90
1153
 91
0
280
0
281
0
  0
CLASS
  1
TABLESTYLE
  2
AcDbTableStyle
  3
ObjectDBX Classes
 90
4095
 91
0
280
0
281
0
  0
CLASS
  1
MLEADERSTYLE
  2
AcDbMLeaderStyle
  3
ACDB_MLEADERSTYLE_CLASS
 90
4095
 91
0
280
0
281
0
  0
CLASS
  1
DICTIONARYVAR
  2
AcDbDictionaryVar
  3
ObjectDBX Classes
 90
0
 91
0
280
0
281
0
  0
CLASS
  1
CELLSTYLEMAP
  2
AcDbCellStyleMap
  3
ObjectDBX Classes
 90
1152
 91
0
280
0
281
0
  0
CLASS
  1
MENTALRAYRENDERSETTINGS
  2
AcDbMentalRayRenderSettings
  3
SCENEOE
 90
1024
 91
0
280
0
281
0
  0
CLASS
  1
ACDBDETAILVIEWSTYLE
  2
AcDbDetailViewStyle
  3
ObjectDBX Classes
 90
1025
 91
0
280
0
281
0
  0
CLASS
  1
ACDBSECTIONVIEWSTYLE
  2
AcDbSectionViewStyle
  3
ObjectDBX Classes
 90
1025
 91
0
280
0
281
0
  0
CLASS
  1
RASTERVARIABLES
  2
AcDbRasterVariables
  3
ISM
 90
0
 91
0
280
0
281
0
  0
CLASS
  1
ACDBPLACEHOLDER
  2
AcDbPlaceHolder
  3
ObjectDBX Classes
 90
0
 91
0
280
0
281
0
  0
CLASS
  1
LAYOUT
  2
AcDbLayout
  3
ObjectDBX Classes
 90
0
 91
0
280
0
281
0
  0
ENDSEC
  0
SECTION
  2
TABLES
  0
TABLE
  2
VPORT
  5
8
330
0
100
AcDbSymbolTable
 70
1
  0
VPORT
  5
23
330
8
100
AcDbSymbolTableRecord
100
AcDbViewportTableRecord
  2
*Active
 70
0
 10
0.0
 20
0.0
 11
1.0
 21
1.0
 12
0.0
 22
0.0
 13
0.0
 23
0.0
 14
0.5
 24
0.5
 15
0.5
 25
0.5
 16
0.0
 26
0.0
 36
1.0
 17
0.0
 27
0.0
 37
0.0
 40
1000.0
 41
1.34
 42
50.0
 43
0.0
 44
0.0
 50
0.0
 51
0.0
 71
0
 72
1000
 73
1
 74
3
 75
0
 76
0
 77
0
 78
0
281
0
 65
0
146
0.0
  0
ENDTAB
  0
TABLE
  2
LTYPE
  5
2
330
0
100
AcDbSymbolTable
 70
3
  0
LTYPE
  5
24
330
2
100
AcDbSymbolTableRecord
100
AcDbLinetypeTableRecord
  2
ByBlock
 70
0
  3

 72
65
 73
0
 40
0.0
  0
LTYPE
  5
25
330
2
100
AcDbSymbolTableRecord
100
AcDbLinetypeTableRecord
  2
ByLayer
 70
0
  3

 72
65
 73
0
 40
0.0
  0
LTYPE
  5
26
330
2
100
AcDbSymbolTableRecord
100
AcDbLinetypeTableRecord
  2
Continuous
 70
0
  3

 72
65
 73
0
 40
0.0
  0
ENDTAB
  0
TABLE
  2
LAYER
  5
1
330
0
100
AcDbSymbolTable
 70
9
  0
LAYER
  5
27
330
1
100
AcDbSymbolTableRecord
100
AcDbLayerTableRecord
  2
0
 70
0
 62
7
  6
Continuous
370
-3
390
13
347
21
  0
LAYER
  5
28
330
1
100
AcDbSymbolTableRecord
100
AcDbLayerTableRecord
  2
Defpoints
 70
0
 62
7
  6
Continuous
290
0
370
-3
390
13
347
21
  0
LAYER
  5
2F
330
1
100
AcDbSymbolTableRecord
100
AcDbLayerTableRecord
  2
ProfileEdges
 70
0
 62
7
  6
Continuous
370
-3
390
13
347
21
  0
LAYER
  5
31
330
1
100
AcDbSymbolTableRecord
100
AcDbLayerTableRecord
  2
A-WALL
 70
0
 62
7
  6
Continuous
370
-3
390
13
347
21
  0
LAYER
  5
56
330
1
100
AcDbSymbolTableRecord
100
AcDbLayerTableRecord
  2
A-FLOR-LEVL
 70
0
 62
7
  6
Continuous
370
-3
390
13
347
21
  0
LAYER
  5
3D8
330
1
100
AcDbSymbolTableRecord
100
AcDbLayerTableRecord
  2
0-LOUVRE
 70
0
 62
7
  6
Continuous
370
-3
390
13
347
21
  0
LAYER
  5
3E6
330
1
100
AcDbSymbolTableRecord
100
AcDbLayerTableRecord
  2
0-cortes
 70
0
 62
7
  6
Continuous
370
-3
390
13
347
21
  0
LAYER
  5
3E8
330
1
100
AcDbSymbolTableRecord
100
AcDbLayerTableRecord
  2
0-VENTANAS
 70
0
 62
7
  6
Continuous
370
-3
390
13
347
21
  0
LAYER
  5
3EE
330
1
100
AcDbSymbolTableRecord
100
AcDbLayerTableRecord
  2
0-COD LOU
 70
0
 62
7
  6
Continuous
370
-3
390
13
347
21
  0
ENDTAB
  0
TABLE
  2
STYLE
  5
5
330
0
100
AcDbSymbolTable
 70
1
  0
STYLE
  5
29
330
5
100
AcDbSymbolTableRecord
100
AcDbTextStyleTableRecord
  2
Standard
 70
0
 40
0.0
 41
1.0
 50
0.0
 71
0
 42
2.5
  3
txt
  4

  0
ENDTAB
  0
TABLE
  2
VIEW
  5
7
330
0
100
AcDbSymbolTable
 70
0
  0
ENDTAB
  0
TABLE
  2
UCS
  5
6
330
0
100
AcDbSymbolTable
 70
0
  0
ENDTAB
  0
TABLE
  2
APPID
  5
3
330
0
100
AcDbSymbolTable
 70
3
  0
APPID
  5
2A
330
3
100
AcDbSymbolTableRecord
100
AcDbRegAppTableRecord
  2
ACAD
 70
0
  0
APPID
  5
3F1
330
3
100
AcDbSymbolTableRecord
100
AcDbRegAppTableRecord
  2
HATCHBACKGROUNDCOLOR
 70
0
  0
APPID
  5
3F2
330
3
100
AcDbSymbolTableRecord
100
AcDbRegAppTableRecord
  2
EZDXF
 70
0
  0
ENDTAB
  0
TABLE
  2
DIMSTYLE
  5
4
330
0
100
AcDbSymbolTable
 70
1
100
AcDbDimStyleTable
  0
DIMSTYLE
105
2B
330
4
100
AcDbSymbolTableRecord
100
AcDbDimStyleTableRecord
  2
Standard
 70
0
 40
1.0
 41
2.5
 42
0.625
 43
3.75
 44
1.25
 45
0.0
 46
0.0
 47
0.0
 48
0.0
 49
2.5
140
2.5
141
2.5
142
0.0
143
0.03937007874
144
1.0
145
0.0
146
1.0
147
0.625
148
0.0
 69
0
 70
0
 71
0
 72
0
 73
0
 74
0
 75
0
 76
0
 77
1
 78
8
 79
3
170
0
171
3
172
1
173
0
174
0
175
0
176
0
177
0
178
0
179
2
271
2
272
2
273
2
274
3
275
0
276
0
277
2
278
44
279
0
280
0
281
0
282
0
283
0
284
8
285
0
286
0
288
0
289
3
290
0
371
-2
372
-2
  0
ENDTAB
  0
TABLE
  2
BLOCK_RECORD
  5
9
330
0
100
AcDbSymbolTable
 70
2
  0
BLOCK_RECORD
  5
17
330
9
100
AcDbSymbolTableRecord
100
AcDbBlockTableRecord
  2
*Model_Space
340
1A
 70
0
280
1
281
0
  0
BLOCK_RECORD
  5
1B
330
9
100
AcDbSymbolTableRecord
100
AcDbBlockTableRecord
  2
*Paper_Space
340
1E
 70
0
280
1
281
0
  0
ENDTAB
  0
ENDSEC
  0
SECTION
  2
BLOCKS
  0
BLOCK
  5
18
330
17
100
AcDbEntity
  8
0
100
AcDbBlockBegin
  2
*Model_Space
 70
0
 10
0.0
 20
0.0
 30
0.0
  3
*Model_Space
  1

  0
ENDBLK
  5
19
330
17
100
AcDbEntity
  8
0
100
AcDbBlockEnd
  0
BLOCK
  5
1C
330
1B
100
AcDbEntity
  8
0
100
AcDbBlockBegin
  2
*Paper_Space
 70
0
 10
0.0
 20
0.0
 30
0.0
  3
*Paper_Space
  1

  0
ENDBLK
  5
1D
330
1B
100
AcDbEntity
  8
0
100
AcDbBlockEnd
  0
ENDSEC
  0
SECTION
  2
ENTITIES
  0
LINE
  5
30
330
17
100
AcDbEntity
  8
ProfileEdges
370
5
100
AcDbLine
 10
277.3394282307969
 20
3.210000000019281
 30
0.0
 11
277.3426258156884
 21
3.210000000019281
 31
0.0
  0
LINE
  5
32
330
17
100
AcDbEntity
  8
A-WALL
 62
11
100
AcDbLine
 10
268.7976258168961
 20
3.210000000023374
 30
0.0
 11
272.5156652665543
 21
3.210000000028376
 31
0.0
  0
LINE
  5
33
330
17
100
AcDbEntity
  8
ProfileEdges
370
5
100
AcDbLine
 10
277.3391652307751
 20
3.210000000162526
 30
0.0
 11
277.3394282307969
 21
3.210000000019281
 31
0.0
  0
LINE
  5
34
330
17
100
AcDbEntity
  8
0
 62
8
100
AcDbLine
 10
298.5861477023883
 20
-0.0900000000090948
 30
0.0
 11
298.5861477023883
 21
8.209999999999727
 31
0.0
  0
LINE
  5
35
330
17
100
AcDbEntity
  8
0
 62
8
100
AcDbLine
 10
298.1140120517799
 20
6.909999999999545
 30
0.0
 11
298.5861477023883
 21
6.909999999999545
 31
0.0
  0
LINE
  5
36
330
17
100
AcDbEntity
  8
ProfileEdges
370
5
100
AcDbLine
 10
293.3891652666549
 20
0.2099999999997273
 30
0.0
 11
293.3894282666766
 21
0.2099999999997273
 31
0.0
  0
LINE
  5
37
330
17
100
AcDbEntity
  8
ProfileEdges
370
5
100
AcDbLine
 10
272.5156652665561
 20
0.2100000000051843
 30
0.0
 11
272.5159282665774
 21
0.2100000000051843
 31
0.0
  0
LINE
  5
38
330
17
100
AcDbEntity
  8
A-WALL
 62
11
100
AcDbLine
 10
277.3426258185105
 20
-0.0899999999999999
 30
0.0
 11
277.3426258156884
 21
3.210000001398075
 31
0.0
  0
LINE
  5
39
330
17
100
AcDbEntity
  8
A-WALL
 62
11
100
AcDbLine
 10
293.5694282666565
 20
4.410000000037744
 30
0.0
 11
293.5694282666815
 21
6.210000000018371
 31
0.0
  0
LINE
  5
3A
330
17
100
AcDbEntity
  8
0
 62
8
100
AcDbLine
 10
263.4248634111206
 20
2.849999999999599
 30
0.0
 11
261.5748634111211
 21
2.849999999999599
 31
0.0
  0
LINE
  5
3B
330
17
100
AcDbEntity
  8
ProfileEdges
370
5
100
AcDbLine
 10
277.3394282307969
 20
-0.0900000001186889
 30
0.0
 11
277.3391652307751
 21
-0.0900000000004546
 31
0.0
  0
LINE
  5
3C
330
17
100
AcDbEntity
  8
0
 62
8
100
AcDbLine
 10
259.0594721801604
 20
2.849999999999599
 30
0.0
 11
257.2376329803793
 21
2.849999999999599
 31
0.0
  0
LINE
  5
3D
330
17
100
AcDbEntity
  8
0
 62
8
100
AcDbLine
 10
254.9841913461875
 20
2.849999999999599
 30
0.0
 11
253.1344371366055
 21
2.849999999999599
 31
0.0
  0
LINE
  5
3E
330
17
100
AcDbEntity
  8
0
 62
8
100
AcDbLine
 10
276.7226258156885
 20
2.309999999999636
 30
0.0
 11
276.7226258156885
 21
-0.0900000000004546
 31
0.0
  0
LINE
  5
3F
330
17
100
AcDbEntity
  8
0
 62
8
100
AcDbLine
 10
275.7270797094876
 20
0.2100000000051843
 30
0.0
 11
275.7270797091793
 21
-0.0900000000004546
 31
0.0
  0
LINE
  5
40
330
17
100
AcDbEntity
  8
A-WALL
 62
11
100
AcDbLine
 10
272.5156652665543
 20
3.210000000028376
 30
0.0
 11
272.5156652665561
 21
-0.0900000000004546
 31
0.0
  0
LINE
  5
41
330
17
100
AcDbEntity
  8
A-WALL
 62
11
100
AcDbLine
 10
268.7976258168961
 20
3.210000000018826
 30
0.0
 11
268.7976258168961
 21
-0.0900000000004546
 31
0.0
  0
LINE
  5
42
330
17
100
AcDbEntity
  8
A-WALL
 62
11
100
AcDbLine
 10
272.5159282665774
 20
3.210000000019281
 30
0.0
 11
272.5159282665774
 21
-0.0900000001186889
 31
0.0
  0
LINE
  5
43
330
17
100
AcDbEntity
  8
0
 62
8
100
AcDbLine
 10
294.6369282665588
 20
-0.0900000000004546
 30
0.0
 11
294.6369282665588
 21
8.467812534213554
 31
0.0
  0
LINE
  5
44
330
17
100
AcDbEntity
  8
A-WALL
 62
11
100
AcDbLine
 10
272.8159282665771
 20
-0.0900000001186889
 30
0.0
 11
272.8159282665771
 21
3.210000000019281
 31
0.0
  0
LINE
  5
45
330
17
100
AcDbEntity
  8
0
 62
8
100
AcDbLine
 10
294.6369282665588
 20
6.909999999999545
 30
0.0
 11
297.6359771841373
 21
6.909999999999545
 31
0.0
  0
LINE
  5
46
330
17
100
AcDbEntity
  8
0
 62
8
100
AcDbLine
 10
276.7226258156885
 20
2.309999999999636
 30
0.0
 11
275.7226258159964
 21
2.309999999999636
 31
0.0
  0
LINE
  5
47
330
17
100
AcDbEntity
  8
A-WALL
 62
11
100
AcDbLine
 10
293.5694282666815
 20
6.210000000018371
 30
0.0
 11
293.6894282666814
 21
6.21000000001246
 31
0.0
  0
LINE
  5
48
330
17
100
AcDbEntity
  8
0
 62
8
100
AcDbLine
 10
263.4248634111206
 20
-0.0900000000004546
 30
0.0
 11
263.4248634111206
 21
2.849999999999599
 31
0.0
  0
LINE
  5
49
330
17
100
AcDbEntity
  8
0
 62
8
100
AcDbLine
 10
261.5748634111211
 20
-0.0900000000004546
 30
0.0
 11
261.5748634111211
 21
2.849999999999599
 31
0.0
  0
LINE
  5
4A
330
17
100
AcDbEntity
  8
0
 62
8
100
AcDbLine
 10
259.0594721801604
 20
-0.0900000000004546
 30
0.0
 11
259.0594721801604
 21
2.849999999999599
 31
0.0
  0
LINE
  5
4B
330
17
100
AcDbEntity
  8
0
 62
8
100
AcDbLine
 10
257.2376329803793
 20
-0.0900000000004546
 30
0.0
 11
257.2376329803793
 21
2.849999999999599
 31
0.0
  0
LINE
  5
4C
330
17
100
AcDbEntity
  8
0
 62
8
100
AcDbLine
 10
254.9841913461875
 20
-0.0900000000004546
 30
0.0
 11
254.9841913461875
 21
2.849999999999599
 31
0.0
  0
LINE
  5
4D
330
17
100
AcDbEntity
  8
0
 62
8
100
AcDbLine
 10
253.1344371366055
 20
-0.0899999999999999
 30
0.0
 11
253.1344371366055
 21
2.849999999999599
 31
0.0
  0
LINE
  5
4E
330
17
100
AcDbEntity
  8
A-WALL
 62
11
100
AcDbLine
 10
272.8159282665771
 20
3.209999999742795
 30
0.0
 11
277.3391652307751
 21
3.210000000162526
 31
0.0
  0
LINE
  5
4F
330
17
100
AcDbEntity
  8
0
 62
8
100
AcDbLine
 10
296.8366794178966
 20
-0.0900000000090948
 30
0.0
 11
296.8366794178961
 21
6.909999999999545
 31
0.0
  0
LINE
  5
50
330
17
100
AcDbEntity
  8
0
 62
8
100
AcDbLine
 10
276.7226258156885
 20
-0.0900000000004546
 30
0.0
 11
276.6438821242888
 21
-0.0900000001186889
 31
0.0
  0
LINE
  5
51
330
17
100
AcDbEntity
  8
A-WALL
 62
11
100
AcDbLine
 10
249.7869282665621
 20
4.410000000013764
 30
0.0
 11
293.5694282666565
 21
4.410000000037744
 31
0.0
  0
LINE
  5
52
330
17
100
AcDbEntity
  8
0
 62
8
100
AcDbLine
 10
275.7226258159964
 20
0.2100000000051843
 30
0.0
 11
275.7226258159964
 21
2.309999999999636
 31
0.0
  0
LINE
  5
53
330
17
100
AcDbEntity
  8
0
 62
8
100
AcDbLine
 10
295.3208551747053
 20
8.209999999999727
 30
0.0
 11
298.5861477023883
 21
8.209999999999727
 31
0.0
  0
LINE
  5
54
330
17
100
AcDbEntity
  8
A-WALL
 62
11
100
AcDbLine
 10
293.6894282666764
 20
-0.0900000000004546
 30
0.0
 11
293.6894282666764
 21
6.160000000015006
 31
0.0
  0
LINE
  5
55
330
17
100
AcDbEntity
  8
0
 62
8
100
AcDbLine
 10
275.7270797091793
 20
-0.0900000000004546
 30
0.0
 11
276.6438821242888
 21
-0.0900000001186889
 31
0.0
  0
LWPOLYLINE
  5
57
330
17
100
AcDbEntity
  8
A-FLOR-LEVL
 62
4
100
AcDbPolyline
 90
2
 70
0
 10
242.2925966882155
 20
-0.0899999999999999
 10
302.513814137251
 20
-0.0899999999999999
  0
LWPOLYLINE
  5
58
330
17
100
AcDbEntity
  8
A-WALL
 62
11
100
AcDbPolyline
 90
2
 70
0
 10
293.5700310869876
 20
4.409999749422386
 10
293.5700310869876
 20
5.859999749422204
  0
LWPOLYLINE
  5
59
330
17
100
AcDbEntity
  8
0
 62
8
100
AcDbPolyline
 90
2
 70
0
 10
293.5700310869876
 20
5.859999749422204
 10
249.7869282665734
 20
5.859999749407652
  0
LWPOLYLINE
  5
5A
330
17
100
AcDbEntity
  8
0
 62
8
100
AcDbPolyline
 90
2
 70
0
 10
293.5700310869876
 20
5.929999749422368
 10
249.7869282665734
 20
5.929999749422368
  0
LWPOLYLINE
  5
5B
330
17
100
AcDbEntity
  8
A-WALL
 62
11
100
AcDbPolyline
 90
4
 70
0
 10
293.6894282666814
 20
6.210000000015188
 10
293.7594282666811
 20
6.210000000015188
 10
293.7594282666811
 20
6.160000000015006
 10
293.6894282666814
 20
6.160000000015006
  0
LINE
  5
5C
330
17
100
AcDbEntity
  8
0
 62
8
100
AcDbLine
 10
276.7226258156885
 20
-0.0899999999999999
 30
0.0
 11
276.7226258156885
 21
2.010000001490116
 31
0.0
  0
LINE
  5
5D
330
17
100
AcDbEntity
  8
0
 62
8
100
AcDbLine
 10
276.7226258156885
 20
2.010000001490116
 30
0.0
 11
275.7226258156885
 21
2.010000001490116
 31
0.0
  0
LINE
  5
5E
330
17
100
AcDbEntity
  8
0
 62
8
100
AcDbLine
 10
276.7746748182986
 20
0.9100000000000001
 30
0.0
 11
276.5560936931585
 21
0.9100000000000001
 31
0.0
  0
LWPOLYLINE
  5
5F
330
17
100
AcDbEntity
  8
0
 62
8
100
AcDbPolyline
 90
3
 70
0
 10
275.7270797094876
 20
2.009079077865099
 10
276.6926258154277
 20
0.9100000000000001
 10
275.7334421411048
 20
-0.0899999999999999
  0
LWPOLYLINE
  5
60
330
17
100
AcDbEntity
  8
0
 62
8
100
AcDbPolyline
 90
4
 70
1
 10
276.5126258157258
 20
0.9175000002980233
 10
276.6326258149062
 20
0.9175000002980233
 42
-0.9999999999999998
 10
276.6326258149062
 20
0.902500001564622
 10
276.5126258157258
 20
0.902500001564622
  0
ARC
  5
61
330
17
100
AcDbEntity
  8
0
 62
8
100
AcDbCircle
 10
276.6326258149062
 20
0.9100000000000001
 30
0.0
 40
0.03
100
AcDbArc
 50
194.4775121808675
 51
165.5224878191324
  0
ARC
  5
62
330
17
100
AcDbEntity
  8
0
 62
8
100
AcDbCircle
 10
276.6326258149062
 20
0.9100000000000001
 30
0.0
 40
0.025
100
AcDbArc
 50
197.4576031662911
 51
162.5423968337089
  0
ARC
  5
63
330
17
100
AcDbEntity
  8
0
 62
8
100
AcDbCircle
 10
276.6326258149062
 20
0.9100000000000001
 30
0.0
 40
0.015
100
AcDbArc
 50
209.9999999917216
 51
150.0000000082784
  0
LINE
  5
64
330
17
100
AcDbEntity
  8
0
 62
8
100
AcDbLine
 10
275.7226258156885
 20
-0.0899999999999999
 30
0.0
 11
275.7226258156885
 21
2.010000001490116
 31
0.0
  0
LINE
  5
65
330
17
100
AcDbEntity
  8
0
 62
8
100
AcDbLine
 10
275.9076258152787
 20
-0.059999998807907
 30
0.0
 11
275.9076258152787
 21
0.0900000015646221
 31
0.0
  0
LINE
  5
66
330
17
100
AcDbEntity
  8
0
 62
8
100
AcDbLine
 10
275.9076258152796
 20
0.1000000013411046
 30
0.0
 11
275.9076258152787
 21
2.010000001490116
 31
0.0
  0
LINE
  5
67
330
17
100
AcDbEntity
  8
0
 62
8
100
AcDbLine
 10
275.8976258155022
 20
-0.0699999985843896
 30
0.0
 11
275.8976258155022
 21
2.010000001490116
 31
0.0
  0
LINE
  5
68
330
17
100
AcDbEntity
  8
0
 62
8
100
AcDbLine
 10
276.537625815167
 20
0.9175000002980233
 30
0.0
 11
276.537625815167
 21
1.809846911430359
 31
0.0
  0
LINE
  5
69
330
17
100
AcDbEntity
  8
0
 62
8
100
AcDbLine
 10
276.537625815167
 20
1.809846911430359
 30
0.0
 11
276.537625815167
 21
2.010000001490116
 31
0.0
  0
LINE
  5
6A
330
17
100
AcDbEntity
  8
0
 62
8
100
AcDbLine
 10
276.5476258149434
 20
-0.0699999985843896
 30
0.0
 11
276.5476258149434
 21
2.010000001490116
 31
0.0
  0
LINE
  5
6B
330
17
100
AcDbEntity
  8
0
 62
8
100
AcDbLine
 10
276.537625815167
 20
0.0900000015646221
 30
0.0
 11
276.5376258160983
 21
-0.059999998807907
 31
0.0
  0
LINE
  5
6C
330
17
100
AcDbEntity
  8
0
 62
8
100
AcDbLine
 10
276.537625815167
 20
0.0900000015646221
 30
0.0
 11
275.9076258152787
 21
0.0900000015646221
 31
0.0
  0
LINE
  5
6D
330
17
100
AcDbEntity
  8
0
 62
8
100
AcDbLine
 10
276.537625815167
 20
0.1000000013406499
 30
0.0
 11
275.9076258152796
 21
0.1000000013406499
 31
0.0
  0
LINE
  5
6E
330
17
100
AcDbEntity
  8
0
 62
8
100
AcDbLine
 10
276.537625815167
 20
1.809846911430359
 30
0.0
 11
275.9076258152787
 21
1.809846911430359
 31
0.0
  0
LINE
  5
6F
330
17
100
AcDbEntity
  8
0
 62
8
100
AcDbLine
 10
276.5476258149434
 20
-0.0699999985843896
 30
0.0
 11
275.8976258155022
 21
-0.0699999985843896
 31
0.0
  0
LINE
  5
70
330
17
100
AcDbEntity
  8
0
 62
8
100
AcDbLine
 10
276.5376258160983
 20
-0.059999998807907
 30
0.0
 11
275.9076258152787
 21
-0.059999998807907
 31
0.0
  0
LINE
  5
71
330
17
100
AcDbEntity
  8
0
 62
8
100
AcDbLine
 10
276.537625815167
 20
0.984999999254942
 30
0.0
 11
275.9076258152796
 21
0.9849999992544873
 31
0.0
  0
LINE
  5
72
330
17
100
AcDbEntity
  8
0
 62
8
100
AcDbLine
 10
276.537625815167
 20
0.9949999990314246
 30
0.0
 11
275.9076258152796
 21
0.9949999990314246
 31
0.0
  0
LINE
  5
73
330
17
100
AcDbEntity
  8
0
 62
8
100
AcDbLine
 10
276.537625815167
 20
0.8249999991059304
 30
0.0
 11
275.9076258152796
 21
0.8249999991059304
 31
0.0
  0
LINE
  5
74
330
17
100
AcDbEntity
  8
0
 62
8
100
AcDbLine
 10
276.537625815167
 20
0.834999998882413
 30
0.0
 11
275.9076258152796
 21
0.834999998882413
 31
0.0
  0
LINE
  5
75
330
17
100
AcDbEntity
  8
0
 62
8
100
AcDbLine
 10
276.537625815167
 20
0.902500001564622
 30
0.0
 11
276.537625815167
 21
0.0101530904322864
 31
0.0
  0
LWPOLYLINE
  5
76
330
17
100
AcDbEntity
  8
0
 62
8
100
AcDbPolyline
 90
4
 70
1
 10
275.7226258159964
 20
2.309999999999636
 10
276.7226258156885
 20
2.309999999999636
 10
276.7226258156885
 20
2.010000001490116
 10
275.7226258159964
 20
2.010000001490116
  0
LWPOLYLINE
  5
77
330
17
100
AcDbEntity
  8
0
 62
8
100
AcDbPolyline
 90
4
 70
1
 10
275.7370797092645
 20
2.300000000222699
 10
276.7126258159116
 20
2.300000000222699
 10
276.7126258159116
 20
2.020000001267053
 10
275.7370797092645
 20
2.020000001267053
  0
LINE
  5
78
330
17
100
AcDbEntity
  8
0
 62
8
100
AcDbLine
 10
267.0726258168803
 20
2.310000000000091
 30
0.0
 11
267.0726258168803
 21
-0.0899999999999999
 31
0.0
  0
LINE
  5
79
330
17
100
AcDbEntity
  8
0
 62
8
100
AcDbLine
 10
266.0770797106794
 20
0.210000000005639
 30
0.0
 11
266.0770797103715
 21
-0.0899999999999999
 31
0.0
  0
LINE
  5
7A
330
17
100
AcDbEntity
  8
0
 62
8
100
AcDbLine
 10
267.0726258168803
 20
2.310000000000091
 30
0.0
 11
266.0726258171886
 21
2.310000000000091
 31
0.0
  0
LINE
  5
7B
330
17
100
AcDbEntity
  8
0
 62
8
100
AcDbLine
 10
267.0726258168803
 20
-0.0899999999999999
 30
0.0
 11
266.9938821254806
 21
-0.0900000001182342
 31
0.0
  0
LINE
  5
7C
330
17
100
AcDbEntity
  8
0
 62
8
100
AcDbLine
 10
266.0726258171886
 20
0.210000000005639
 30
0.0
 11
266.0726258171886
 21
2.310000000000091
 31
0.0
  0
LINE
  5
7D
330
17
100
AcDbEntity
  8
0
 62
8
100
AcDbLine
 10
266.0770797103715
 20
-0.0899999999999999
 30
0.0
 11
266.9938821254806
 21
-0.0900000001182342
 31
0.0
  0
LINE
  5
7E
330
17
100
AcDbEntity
  8
0
 62
8
100
AcDbLine
 10
267.0726258168803
 20
-0.0899999999995451
 30
0.0
 11
267.0726258168803
 21
2.010000001490571
 31
0.0
  0
LINE
  5
7F
330
17
100
AcDbEntity
  8
0
 62
8
100
AcDbLine
 10
267.0726258168803
 20
2.010000001490571
 30
0.0
 11
266.0726258168803
 21
2.010000001490571
 31
0.0
  0
LINE
  5
80
330
17
100
AcDbEntity
  8
0
 62
8
100
AcDbLine
 10
267.1246748194905
 20
0.9100000000004548
 30
0.0
 11
266.9060936943503
 21
0.9100000000004548
 31
0.0
  0
LWPOLYLINE
  5
81
330
17
100
AcDbEntity
  8
0
 62
8
100
AcDbPolyline
 90
3
 70
0
 10
266.0770797106794
 20
2.009079077865553
 10
267.0426258166195
 20
0.9100000000004548
 10
266.083442142297
 20
-0.0899999999995451
  0
LWPOLYLINE
  5
82
330
17
100
AcDbEntity
  8
0
 62
8
100
AcDbPolyline
 90
4
 70
1
 10
266.8626258169175
 20
0.9175000002984781
 10
266.982625816098
 20
0.9175000002984781
 42
-0.9999999999999998
 10
266.982625816098
 20
0.9025000015650768
 10
266.8626258169175
 20
0.9025000015650768
  0
ARC
  5
83
330
17
100
AcDbEntity
  8
0
 62
8
100
AcDbCircle
 10
266.982625816098
 20
0.9100000000004548
 30
0.0
 40
0.03
100
AcDbArc
 50
194.4775121808675
 51
165.5224878191324
  0
ARC
  5
84
330
17
100
AcDbEntity
  8
0
 62
8
100
AcDbCircle
 10
266.982625816098
 20
0.9100000000004548
 30
0.0
 40
0.025
100
AcDbArc
 50
197.4576031662911
 51
162.5423968337089
  0
ARC
  5
85
330
17
100
AcDbEntity
  8
0
 62
8
100
AcDbCircle
 10
266.982625816098
 20
0.9100000000004548
 30
0.0
 40
0.015
100
AcDbArc
 50
209.9999999917216
 51
150.0000000082784
  0
LINE
  5
86
330
17
100
AcDbEntity
  8
0
 62
8
100
AcDbLine
 10
266.0726258168803
 20
-0.0899999999995451
 30
0.0
 11
266.0726258168803
 21
2.010000001490571
 31
0.0
  0
LINE
  5
87
330
17
100
AcDbEntity
  8
0
 62
8
100
AcDbLine
 10
266.2576258164705
 20
-0.0599999988074522
 30
0.0
 11
266.2576258164705
 21
0.0900000015650768
 31
0.0
  0
LINE
  5
88
330
17
100
AcDbEntity
  8
0
 62
8
100
AcDbLine
 10
266.2576258164714
 20
0.1000000013415594
 30
0.0
 11
266.257625816471
 21
2.010000001490571
 31
0.0
  0
LINE
  5
89
330
17
100
AcDbEntity
  8
0
 62
8
100
AcDbLine
 10
266.2476258166941
 20
-0.0699999985839348
 30
0.0
 11
266.2476258166941
 21
2.010000001490571
 31
0.0
  0
LINE
  5
8A
330
17
100
AcDbEntity
  8
0
 62
8
100
AcDbLine
 10
266.8876258163588
 20
0.9175000002984781
 30
0.0
 11
266.8876258163588
 21
1.809846911430813
 31
0.0
  0
LINE
  5
8B
330
17
100
AcDbEntity
  8
0
 62
8
100
AcDbLine
 10
266.8876258163588
 20
1.809846911430813
 30
0.0
 11
266.8876258163588
 21
2.010000001490571
 31
0.0
  0
LINE
  5
8C
330
17
100
AcDbEntity
  8
0
 62
8
100
AcDbLine
 10
266.8976258161352
 20
-0.0699999985839348
 30
0.0
 11
266.8976258161352
 21
2.010000001490571
 31
0.0
  0
LINE
  5
8D
330
17
100
AcDbEntity
  8
0
 62
8
100
AcDbLine
 10
266.8876258163588
 20
0.0900000015650768
 30
0.0
 11
266.8876258172901
 21
-0.0599999988074522
 31
0.0
  0
LINE
  5
8E
330
17
100
AcDbEntity
  8
0
 62
8
100
AcDbLine
 10
266.8876258163588
 20
0.0900000015650768
 30
0.0
 11
266.2576258164705
 21
0.0900000015650768
 31
0.0
  0
LINE
  5
8F
330
17
100
AcDbEntity
  8
0
 62
8
100
AcDbLine
 10
266.8876258163592
 20
0.1000000013411046
 30
0.0
 11
266.2576258164714
 21
0.1000000013411046
 31
0.0
  0
LINE
  5
90
330
17
100
AcDbEntity
  8
0
 62
8
100
AcDbLine
 10
266.8876258163588
 20
1.809846911430813
 30
0.0
 11
266.2576258164705
 21
1.809846911430813
 31
0.0
  0
LINE
  5
91
330
17
100
AcDbEntity
  8
0
 62
8
100
AcDbLine
 10
266.8976258161352
 20
-0.0699999985839348
 30
0.0
 11
266.2476258166941
 21
-0.0699999985839348
 31
0.0
  0
LINE
  5
92
330
17
100
AcDbEntity
  8
0
 62
8
100
AcDbLine
 10
266.8876258172901
 20
-0.0599999988074522
 30
0.0
 11
266.2576258164705
 21
-0.0599999988074522
 31
0.0
  0
LINE
  5
93
330
17
100
AcDbEntity
  8
0
 62
8
100
AcDbLine
 10
266.8876258163588
 20
0.9849999992553968
 30
0.0
 11
266.2576258164714
 21
0.984999999254942
 31
0.0
  0
LINE
  5
94
330
17
100
AcDbEntity
  8
0
 62
8
100
AcDbLine
 10
266.8876258163588
 20
0.9949999990318794
 30
0.0
 11
266.2576258164714
 21
0.9949999990318794
 31
0.0
  0
LINE
  5
95
330
17
100
AcDbEntity
  8
0
 62
8
100
AcDbLine
 10
266.8876258163588
 20
0.8249999991063852
 30
0.0
 11
266.2576258164714
 21
0.8249999991063852
 31
0.0
  0
LINE
  5
96
330
17
100
AcDbEntity
  8
0
 62
8
100
AcDbLine
 10
266.8876258163588
 20
0.8349999988828677
 30
0.0
 11
266.2576258164714
 21
0.8349999988828677
 31
0.0
  0
LINE
  5
97
330
17
100
AcDbEntity
  8
0
 62
8
100
AcDbLine
 10
266.8876258163588
 20
0.9025000015650768
 30
0.0
 11
266.8876258163588
 21
0.0101530904327412
 31
0.0
  0
LWPOLYLINE
  5
98
330
17
100
AcDbEntity
  8
0
 62
8
100
AcDbPolyline
 90
4
 70
1
 10
266.0726258171886
 20
2.310000000000091
 10
267.0726258168803
 20
2.310000000000091
 10
267.0726258168803
 20
2.010000001490571
 10
266.0726258171886
 20
2.010000001490571
  0
LWPOLYLINE
  5
99
330
17
100
AcDbEntity
  8
0
 62
8
100
AcDbPolyline
 90
4
 70
1
 10
266.0870797104568
 20
2.300000000223153
 10
267.0626258171038
 20
2.300000000223153
 10
267.0626258171038
 20
2.020000001267508
 10
266.0870797104568
 20
2.020000001267508
  0
LINE
  5
9A
330
17
100
AcDbEntity
  8
0
 62
8
100
AcDbLine
 10
262.563668989175
 20
1.950014948951011
 30
0.0
 11
263.3648783600917
 21
1.950014948951011
 31
0.0
  0
LINE
  5
9B
330
17
100
AcDbEntity
  8
0
 62
8
100
AcDbLine
 10
262.4998634111208
 20
-0.093471239565897
 30
0.0
 11
262.4998634111208
 21
2.009999999999909
 31
0.0
  0
LINE
  5
9C
330
17
100
AcDbEntity
  8
0
 62
8
100
AcDbLine
 10
263.3648783600917
 20
-0.0885834519061426
 30
0.0
 11
263.3648783591612
 21
1.950014948951011
 31
0.0
  0
LINE
  5
9D
330
17
100
AcDbEntity
  8
0
 62
8
100
AcDbLine
 10
263.4248634111405
 20
2.009999999999909
 30
0.0
 11
263.4248634120719
 21
-0.0900000000004546
 31
0.0
  0
LINE
  5
9E
330
17
100
AcDbEntity
  8
0
 62
8
100
AcDbLine
 10
262.563668989175
 20
-0.093471239565897
 30
0.0
 11
263.4248634120719
 21
-0.0900000000004546
 31
0.0
  0
LINE
  5
9F
330
17
100
AcDbEntity
  8
0
 62
8
100
AcDbLine
 10
262.6677150102997
 20
1.057096028091255
 30
0.0
 11
262.6664829745538
 21
1.058939898321714
 31
0.0
  0
LINE
  5
A0
330
17
100
AcDbEntity
  8
0
 62
8
100
AcDbLine
 10
262.628427962031
 20
1.054729564680801
 30
0.0
 11
262.6273188898236
 21
1.055294665868732
 31
0.0
  0
LINE
  5
A1
330
17
100
AcDbEntity
  8
0
 62
8
100
AcDbLine
 10
262.6628377402373
 20
1.050281495695035
 30
0.0
 11
262.6630324601307
 21
1.051510909490989
 31
0.0
  0
LINE
  5
A2
330
17
100
AcDbEntity
  8
0
 62
8
100
AcDbLine
 10
262.6664829745538
 20
1.058939898321714
 30
0.0
 11
262.6646391015298
 21
1.060171935930757
 31
0.0
  0
LINE
  5
A3
330
17
100
AcDbEntity
  8
0
 62
8
100
AcDbLine
 10
262.6646391015298
 20
1.060171935930757
 30
0.0
 11
262.6624641066443
 21
1.060604570869291
 31
0.0
  0
LINE
  5
A4
330
17
100
AcDbEntity
  8
0
 62
8
100
AcDbLine
 10
262.6169958137185
 20
0.8162124951137776
 30
0.0
 11
262.6174284477257
 21
0.8140375011586549
 31
0.0
  0
LINE
  5
A5
330
17
100
AcDbEntity
  8
0
 62
8
100
AcDbLine
 10
262.6174284477257
 20
0.8140375011586549
 30
0.0
 11
262.6186604834717
 21
0.8121936272042695
 31
0.0
  0
LINE
  5
A6
330
17
100
AcDbEntity
  8
0
 62
8
100
AcDbLine
 10
262.6186604834717
 20
0.8121936272042695
 30
0.0
 11
262.6205043555643
 21
0.8109615914578718
 31
0.0
  0
LINE
  5
A7
330
17
100
AcDbEntity
  8
0
 62
8
100
AcDbLine
 10
262.6205043555643
 20
0.8109615914578718
 30
0.0
 11
262.6226793513816
 21
0.8105289583815284
 31
0.0
  0
LINE
  5
A8
330
17
100
AcDbEntity
  8
0
 62
8
100
AcDbLine
 10
262.6646391015298
 20
0.8109615914578718
 30
0.0
 11
262.6624641066443
 21
0.8105289583815284
 31
0.0
  0
LINE
  5
A9
330
17
100
AcDbEntity
  8
0
 62
8
100
AcDbLine
 10
262.6664829745538
 20
0.8121936272042695
 30
0.0
 11
262.6646391015298
 21
0.8109615914578718
 31
0.0
  0
LINE
  5
AA
330
17
100
AcDbEntity
  8
0
 62
8
100
AcDbLine
 10
262.6677150102997
 20
0.8140375011586549
 30
0.0
 11
262.6664829745538
 21
0.8121936272042695
 31
0.0
  0
LINE
  5
AB
330
17
100
AcDbEntity
  8
0
 62
8
100
AcDbLine
 10
262.6681476443069
 20
0.8162124951137776
 30
0.0
 11
262.6677150102997
 21
0.8140375011586549
 31
0.0
  0
LINE
  5
AC
330
17
100
AcDbEntity
  8
0
 62
8
100
AcDbLine
 10
262.6681476443069
 20
1.054921032274396
 30
0.0
 11
262.6677150102997
 21
1.057096028091255
 31
0.0
  0
LINE
  5
AD
330
17
100
AcDbEntity
  8
0
 62
8
100
AcDbLine
 10
262.6558353305323
 20
1.049172421625517
 30
0.0
 11
262.6567154950641
 21
1.048292256162913
 31
0.0
  0
LINE
  5
AE
330
17
100
AcDbEntity
  8
0
 62
8
100
AcDbLine
 10
262.629308127494
 20
1.049172421625517
 30
0.0
 11
262.6298732277497
 21
1.050281495695035
 31
0.0
  0
LINE
  5
AF
330
17
100
AcDbEntity
  8
0
 62
8
100
AcDbLine
 10
262.6552702302757
 20
1.050281495695035
 30
0.0
 11
262.6558353305323
 21
1.049172421625517
 31
0.0
  0
LINE
  5
B0
330
17
100
AcDbEntity
  8
0
 62
8
100
AcDbLine
 10
262.6298732277497
 20
1.052740327010415
 30
0.0
 11
262.629308127494
 21
1.053849399218197
 31
0.0
  0
LINE
  5
B1
330
17
100
AcDbEntity
  8
0
 62
8
100
AcDbLine
 10
262.6298732277497
 20
1.050281495695035
 30
0.0
 11
262.6300679476432
 21
1.051510909490989
 31
0.0
  0
LINE
  5
B2
330
17
100
AcDbEntity
  8
0
 62
8
100
AcDbLine
 10
262.6630324601307
 20
1.051510909490989
 30
0.0
 11
262.6628377402373
 21
1.052740327010415
 31
0.0
  0
LINE
  5
B3
330
17
100
AcDbEntity
  8
0
 62
8
100
AcDbLine
 10
262.6226793513816
 20
1.060604570869291
 30
0.0
 11
262.6624641066443
 21
1.060604570869291
 31
0.0
  0
LINE
  5
B4
330
17
100
AcDbEntity
  8
0
 62
8
100
AcDbLine
 10
262.6681476443069
 20
1.054921032274396
 30
0.0
 11
262.6681476443069
 21
0.9781932901156871
 31
0.0
  0
LINE
  5
B5
330
17
100
AcDbEntity
  8
0
 62
8
100
AcDbLine
 10
262.6681476443069
 20
0.9611426780581133
 30
0.0
 11
262.6681476443069
 21
0.8162124951137776
 31
0.0
  0
LINE
  5
B6
330
17
100
AcDbEntity
  8
0
 62
8
100
AcDbLine
 10
262.6624641066443
 20
0.8105289583815284
 30
0.0
 11
262.6226793513816
 21
0.8105289583815284
 31
0.0
  0
LINE
  5
B7
330
17
100
AcDbEntity
  8
0
 62
8
100
AcDbLine
 10
262.6169958137185
 20
0.8162124951137776
 30
0.0
 11
262.6169958137185
 21
1.054921032274396
 31
0.0
  0
LINE
  5
B8
330
17
100
AcDbEntity
  8
0
 62
8
100
AcDbLine
 10
262.6169958137185
 20
1.054921032274396
 30
0.0
 11
262.6174284477257
 21
1.057096028091255
 31
0.0
  0
LINE
  5
B9
330
17
100
AcDbEntity
  8
0
 62
8
100
AcDbLine
 10
262.6174284477257
 20
1.057096028091255
 30
0.0
 11
262.6186604834717
 21
1.058939898321714
 31
0.0
  0
LINE
  5
BA
330
17
100
AcDbEntity
  8
0
 62
8
100
AcDbLine
 10
262.6186604834717
 20
1.058939898321714
 30
0.0
 11
262.6205043555643
 21
1.060171935930757
 31
0.0
  0
LINE
  5
BB
330
17
100
AcDbEntity
  8
0
 62
8
100
AcDbLine
 10
262.6205043555643
 20
1.060171935930757
 30
0.0
 11
262.6226793513816
 21
1.060604570869291
 31
0.0
  0
LINE
  5
BC
330
17
100
AcDbEntity
  8
0
 62
8
100
AcDbLine
 10
262.6628377402373
 20
1.052740327010415
 30
0.0
 11
262.6622726390502
 21
1.053849399218197
 31
0.0
  0
LINE
  5
BD
330
17
100
AcDbEntity
  8
0
 62
8
100
AcDbLine
 10
262.6622726390502
 20
1.053849399218197
 30
0.0
 11
262.661392474518
 21
1.054729564680801
 31
0.0
  0
LINE
  5
BE
330
17
100
AcDbEntity
  8
0
 62
8
100
AcDbLine
 10
262.661392474518
 20
1.054729564680801
 30
0.0
 11
262.6602834023112
 21
1.055294665868732
 31
0.0
  0
LINE
  5
BF
330
17
100
AcDbEntity
  8
0
 62
8
100
AcDbLine
 10
262.6602834023112
 20
1.055294665868732
 30
0.0
 11
262.6590539847908
 21
1.055489386693043
 31
0.0
  0
LINE
  5
C0
330
17
100
AcDbEntity
  8
0
 62
8
100
AcDbLine
 10
262.6590539847908
 20
1.055489386693043
 30
0.0
 11
262.6578245682018
 21
1.055294665868732
 31
0.0
  0
LINE
  5
C1
330
17
100
AcDbEntity
  8
0
 62
8
100
AcDbLine
 10
262.6578245682018
 20
1.055294665868732
 30
0.0
 11
262.6567154950641
 21
1.054729564680801
 31
0.0
  0
LINE
  5
C2
330
17
100
AcDbEntity
  8
0
 62
8
100
AcDbLine
 10
262.6567154950641
 20
1.054729564680801
 30
0.0
 11
262.6558353305323
 21
1.053849399218197
 31
0.0
  0
LINE
  5
C3
330
17
100
AcDbEntity
  8
0
 62
8
100
AcDbLine
 10
262.6558353305323
 20
1.053849399218197
 30
0.0
 11
262.6552702302757
 21
1.052740327010415
 31
0.0
  0
LINE
  5
C4
330
17
100
AcDbEntity
  8
0
 62
8
100
AcDbLine
 10
262.6552702302757
 20
1.052740327010415
 30
0.0
 11
262.6550755094509
 21
1.051510909490989
 31
0.0
  0
LINE
  5
C5
330
17
100
AcDbEntity
  8
0
 62
8
100
AcDbLine
 10
262.6550755094509
 20
1.051510909490989
 30
0.0
 11
262.6552702302757
 21
1.050281495695035
 31
0.0
  0
LINE
  5
C6
330
17
100
AcDbEntity
  8
0
 62
8
100
AcDbLine
 10
262.6567154950641
 20
1.048292256162913
 30
0.0
 11
262.6578245682018
 21
1.047727154974982
 31
0.0
  0
LINE
  5
C7
330
17
100
AcDbEntity
  8
0
 62
8
100
AcDbLine
 10
262.6578245682018
 20
1.047727154974982
 30
0.0
 11
262.6590539847908
 21
1.047532434150671
 31
0.0
  0
LINE
  5
C8
330
17
100
AcDbEntity
  8
0
 62
8
100
AcDbLine
 10
262.6590539847908
 20
1.047532434150671
 30
0.0
 11
262.6602834023112
 21
1.047727154974982
 31
0.0
  0
LINE
  5
C9
330
17
100
AcDbEntity
  8
0
 62
8
100
AcDbLine
 10
262.6602834023112
 20
1.047727154974982
 30
0.0
 11
262.661392474518
 21
1.048292256162913
 31
0.0
  0
LINE
  5
CA
330
17
100
AcDbEntity
  8
0
 62
8
100
AcDbLine
 10
262.661392474518
 20
1.048292256162913
 30
0.0
 11
262.6622726390502
 21
1.049172421625517
 31
0.0
  0
LINE
  5
CB
330
17
100
AcDbEntity
  8
0
 62
8
100
AcDbLine
 10
262.6622726390502
 20
1.049172421625517
 30
0.0
 11
262.6628377402373
 21
1.050281495695035
 31
0.0
  0
LINE
  5
CC
330
17
100
AcDbEntity
  8
0
 62
8
100
AcDbLine
 10
262.6228708180448
 20
1.049172421625517
 30
0.0
 11
262.6237509825766
 21
1.048292256162913
 31
0.0
  0
LINE
  5
CD
330
17
100
AcDbEntity
  8
0
 62
8
100
AcDbLine
 10
262.6237509825766
 20
1.048292256162913
 30
0.0
 11
262.6248600557143
 21
1.047727154974982
 31
0.0
  0
LINE
  5
CE
330
17
100
AcDbEntity
  8
0
 62
8
100
AcDbLine
 10
262.6248600557143
 20
1.047727154974982
 30
0.0
 11
262.6260894723033
 21
1.047532434150671
 31
0.0
  0
LINE
  5
CF
330
17
100
AcDbEntity
  8
0
 62
8
100
AcDbLine
 10
262.6260894723033
 20
1.047532434150671
 30
0.0
 11
262.6273188898236
 21
1.047727154974982
 31
0.0
  0
LINE
  5
D0
330
17
100
AcDbEntity
  8
0
 62
8
100
AcDbLine
 10
262.6273188898236
 20
1.047727154974982
 30
0.0
 11
262.628427962031
 21
1.048292256162913
 31
0.0
  0
LINE
  5
D1
330
17
100
AcDbEntity
  8
0
 62
8
100
AcDbLine
 10
262.628427962031
 20
1.048292256162913
 30
0.0
 11
262.629308127494
 21
1.049172421625517
 31
0.0
  0
LINE
  5
D2
330
17
100
AcDbEntity
  8
0
 62
8
100
AcDbLine
 10
262.6300679476432
 20
1.051510909490989
 30
0.0
 11
262.6298732277497
 21
1.052740327010415
 31
0.0
  0
LINE
  5
D3
330
17
100
AcDbEntity
  8
0
 62
8
100
AcDbLine
 10
262.629308127494
 20
1.053849399218197
 30
0.0
 11
262.628427962031
 21
1.054729564680801
 31
0.0
  0
LINE
  5
D4
330
17
100
AcDbEntity
  8
0
 62
8
100
AcDbLine
 10
262.6273188898236
 20
1.055294665868732
 30
0.0
 11
262.6260894723033
 21
1.055489386693043
 31
0.0
  0
LINE
  5
D5
330
17
100
AcDbEntity
  8
0
 62
8
100
AcDbLine
 10
262.6260894723033
 20
1.055489386693043
 30
0.0
 11
262.6248600557143
 21
1.055294665868732
 31
0.0
  0
LINE
  5
D6
330
17
100
AcDbEntity
  8
0
 62
8
100
AcDbLine
 10
262.6248600557143
 20
1.055294665868732
 30
0.0
 11
262.6237509825766
 21
1.054729564680801
 31
0.0
  0
LINE
  5
D7
330
17
100
AcDbEntity
  8
0
 62
8
100
AcDbLine
 10
262.6237509825766
 20
1.054729564680801
 30
0.0
 11
262.6228708180448
 21
1.053849399218197
 31
0.0
  0
LINE
  5
D8
330
17
100
AcDbEntity
  8
0
 62
8
100
AcDbLine
 10
262.6228708180448
 20
1.053849399218197
 30
0.0
 11
262.6223057177882
 21
1.052740327010415
 31
0.0
  0
LINE
  5
D9
330
17
100
AcDbEntity
  8
0
 62
8
100
AcDbLine
 10
262.6223057177882
 20
1.052740327010415
 30
0.0
 11
262.6221109969634
 21
1.051510909490989
 31
0.0
  0
LINE
  5
DA
330
17
100
AcDbEntity
  8
0
 62
8
100
AcDbLine
 10
262.6221109969634
 20
1.051510909490989
 30
0.0
 11
262.6223057177882
 21
1.050281495695035
 31
0.0
  0
LINE
  5
DB
330
17
100
AcDbEntity
  8
0
 62
8
100
AcDbLine
 10
262.6223057177882
 20
1.050281495695035
 30
0.0
 11
262.6228708180448
 21
1.049172421625517
 31
0.0
  0
LINE
  5
DC
330
17
100
AcDbEntity
  8
0
 62
8
100
AcDbLine
 10
262.6298732277497
 20
0.8183932022399496
 30
0.0
 11
262.6300679476432
 21
0.8196226160354491
 31
0.0
  0
LINE
  5
DD
330
17
100
AcDbEntity
  8
0
 62
8
100
AcDbLine
 10
262.6300679476432
 20
0.8196226160354491
 30
0.0
 11
262.6298732277497
 21
0.8208520335557842
 31
0.0
  0
LINE
  5
DE
330
17
100
AcDbEntity
  8
0
 62
8
100
AcDbLine
 10
262.6298732277497
 20
0.8208520335557842
 30
0.0
 11
262.629308127494
 21
0.8219611057626572
 31
0.0
  0
LINE
  5
DF
330
17
100
AcDbEntity
  8
0
 62
8
100
AcDbLine
 10
262.629308127494
 20
0.8219611057626572
 30
0.0
 11
262.628427962031
 21
0.822841271225716
 31
0.0
  0
LINE
  5
E0
330
17
100
AcDbEntity
  8
0
 62
8
100
AcDbLine
 10
262.628427962031
 20
0.822841271225716
 30
0.0
 11
262.6273188898236
 21
0.8234063705510017
 31
0.0
  0
LINE
  5
E1
330
17
100
AcDbEntity
  8
0
 62
8
100
AcDbLine
 10
262.6273188898236
 20
0.8234063705510017
 30
0.0
 11
262.6260894723033
 21
0.823601093237503
 31
0.0
  0
LINE
  5
E2
330
17
100
AcDbEntity
  8
0
 62
8
100
AcDbLine
 10
262.6260894723033
 20
0.823601093237503
 30
0.0
 11
262.6248600557143
 21
0.8234063705510017
 31
0.0
  0
LINE
  5
E3
330
17
100
AcDbEntity
  8
0
 62
8
100
AcDbLine
 10
262.6248600557143
 20
0.8234063705510017
 30
0.0
 11
262.6237509825766
 21
0.822841271225716
 31
0.0
  0
LINE
  5
E4
330
17
100
AcDbEntity
  8
0
 62
8
100
AcDbLine
 10
262.6237509825766
 20
0.822841271225716
 30
0.0
 11
262.6228708180448
 21
0.8219611057626572
 31
0.0
  0
LINE
  5
E5
330
17
100
AcDbEntity
  8
0
 62
8
100
AcDbLine
 10
262.6228708180448
 20
0.8219611057626572
 30
0.0
 11
262.6223057177882
 21
0.8208520335557842
 31
0.0
  0
LINE
  5
E6
330
17
100
AcDbEntity
  8
0
 62
8
100
AcDbLine
 10
262.6223057177882
 20
0.8208520335557842
 30
0.0
 11
262.6221109969634
 21
0.8196226160354491
 31
0.0
  0
LINE
  5
E7
330
17
100
AcDbEntity
  8
0
 62
8
100
AcDbLine
 10
262.6221109969634
 20
0.8196226160354491
 30
0.0
 11
262.6223057177882
 21
0.8183932022399496
 31
0.0
  0
LINE
  5
E8
330
17
100
AcDbEntity
  8
0
 62
8
100
AcDbLine
 10
262.6223057177882
 20
0.8183932022399496
 30
0.0
 11
262.6228708180448
 21
0.8172841281708862
 31
0.0
  0
LINE
  5
E9
330
17
100
AcDbEntity
  8
0
 62
8
100
AcDbLine
 10
262.6228708180448
 20
0.8172841281708862
 30
0.0
 11
262.6237509825766
 21
0.8164039608451822
 31
0.0
  0
LINE
  5
EA
330
17
100
AcDbEntity
  8
0
 62
8
100
AcDbLine
 10
262.6237509825766
 20
0.8164039608451822
 30
0.0
 11
262.6248600557143
 21
0.8158388615198965
 31
0.0
  0
LINE
  5
EB
330
17
100
AcDbEntity
  8
0
 62
8
100
AcDbLine
 10
262.6248600557143
 20
0.8158388615198965
 30
0.0
 11
262.6260894723033
 21
0.8156441406960404
 31
0.0
  0
LINE
  5
EC
330
17
100
AcDbEntity
  8
0
 62
8
100
AcDbLine
 10
262.6260894723033
 20
0.8156441406960404
 30
0.0
 11
262.6273188898236
 21
0.8158388615198965
 31
0.0
  0
LINE
  5
ED
330
17
100
AcDbEntity
  8
0
 62
8
100
AcDbLine
 10
262.6273188898236
 20
0.8158388615198965
 30
0.0
 11
262.628427962031
 21
0.8164039608451822
 31
0.0
  0
LINE
  5
EE
330
17
100
AcDbEntity
  8
0
 62
8
100
AcDbLine
 10
262.628427962031
 20
0.8164039608451822
 30
0.0
 11
262.629308127494
 21
0.8172841281708862
 31
0.0
  0
LINE
  5
EF
330
17
100
AcDbEntity
  8
0
 62
8
100
AcDbLine
 10
262.629308127494
 20
0.8172841281708862
 30
0.0
 11
262.6298732277497
 21
0.8183932022399496
 31
0.0
  0
LINE
  5
F0
330
17
100
AcDbEntity
  8
0
 62
8
100
AcDbLine
 10
262.6567154950641
 20
0.822841271225716
 30
0.0
 11
262.6558353305323
 21
0.8219611057626572
 31
0.0
  0
LINE
  5
F1
330
17
100
AcDbEntity
  8
0
 62
8
100
AcDbLine
 10
262.6558353305323
 20
0.8219611057626572
 30
0.0
 11
262.6552702302757
 21
0.8208520335557842
 31
0.0
  0
LINE
  5
F2
330
17
100
AcDbEntity
  8
0
 62
8
100
AcDbLine
 10
262.6552702302757
 20
0.8208520335557842
 30
0.0
 11
262.6550755094509
 21
0.8196226160354491
 31
0.0
  0
LINE
  5
F3
330
17
100
AcDbEntity
  8
0
 62
8
100
AcDbLine
 10
262.6550755094509
 20
0.8196226160354491
 30
0.0
 11
262.6552702302757
 21
0.8183932022399496
 31
0.0
  0
LINE
  5
F4
330
17
100
AcDbEntity
  8
0
 62
8
100
AcDbLine
 10
262.6552702302757
 20
0.8183932022399496
 30
0.0
 11
262.6558353305323
 21
0.8172841281708862
 31
0.0
  0
LINE
  5
F5
330
17
100
AcDbEntity
  8
0
 62
8
100
AcDbLine
 10
262.6558353305323
 20
0.8172841281708862
 30
0.0
 11
262.6567154950641
 21
0.8164039608451822
 31
0.0
  0
LINE
  5
F6
330
17
100
AcDbEntity
  8
0
 62
8
100
AcDbLine
 10
262.6567154950641
 20
0.8164039608451822
 30
0.0
 11
262.6578245682018
 21
0.8158388615198965
 31
0.0
  0
LINE
  5
F7
330
17
100
AcDbEntity
  8
0
 62
8
100
AcDbLine
 10
262.6578245682018
 20
0.8158388615198965
 30
0.0
 11
262.6590539847908
 21
0.8156441406960404
 31
0.0
  0
LINE
  5
F8
330
17
100
AcDbEntity
  8
0
 62
8
100
AcDbLine
 10
262.6590539847908
 20
0.8156441406960404
 30
0.0
 11
262.6602834023112
 21
0.8158388615198965
 31
0.0
  0
LINE
  5
F9
330
17
100
AcDbEntity
  8
0
 62
8
100
AcDbLine
 10
262.6602834023112
 20
0.8158388615198965
 30
0.0
 11
262.661392474518
 21
0.8164039608451822
 31
0.0
  0
LINE
  5
FA
330
17
100
AcDbEntity
  8
0
 62
8
100
AcDbLine
 10
262.661392474518
 20
0.8164039608451822
 30
0.0
 11
262.6622726390502
 21
0.8172841281708862
 31
0.0
  0
LINE
  5
FB
330
17
100
AcDbEntity
  8
0
 62
8
100
AcDbLine
 10
262.6622726390502
 20
0.8172841281708862
 30
0.0
 11
262.6628377402373
 21
0.8183932022399496
 31
0.0
  0
LINE
  5
FC
330
17
100
AcDbEntity
  8
0
 62
8
100
AcDbLine
 10
262.6628377402373
 20
0.8183932022399496
 30
0.0
 11
262.6630324601307
 21
0.8196226160354491
 31
0.0
  0
LINE
  5
FD
330
17
100
AcDbEntity
  8
0
 62
8
100
AcDbLine
 10
262.6630324601307
 20
0.8196226160354491
 30
0.0
 11
262.6628377402373
 21
0.8208520335557842
 31
0.0
  0
LINE
  5
FE
330
17
100
AcDbEntity
  8
0
 62
8
100
AcDbLine
 10
262.6628377402373
 20
0.8208520335557842
 30
0.0
 11
262.6622726390502
 21
0.8219611057626572
 31
0.0
  0
LINE
  5
FF
330
17
100
AcDbEntity
  8
0
 62
8
100
AcDbLine
 10
262.6622726390502
 20
0.8219611057626572
 30
0.0
 11
262.661392474518
 21
0.822841271225716
 31
0.0
  0
LINE
  5
100
330
17
100
AcDbEntity
  8
0
 62
8
100
AcDbLine
 10
262.661392474518
 20
0.822841271225716
 30
0.0
 11
262.6602834023112
 21
0.8234063705510017
 31
0.0
  0
LINE
  5
101
330
17
100
AcDbEntity
  8
0
 62
8
100
AcDbLine
 10
262.6602834023112
 20
0.8234063705510017
 30
0.0
 11
262.6590539847908
 21
0.823601093237503
 31
0.0
  0
LINE
  5
102
330
17
100
AcDbEntity
  8
0
 62
8
100
AcDbLine
 10
262.6590539847908
 20
0.823601093237503
 30
0.0
 11
262.6578245682018
 21
0.8234063705510017
 31
0.0
  0
LINE
  5
103
330
17
100
AcDbEntity
  8
0
 62
8
100
AcDbLine
 10
262.6578245682018
 20
0.8234063705510017
 30
0.0
 11
262.6567154950641
 21
0.822841271225716
 31
0.0
  0
LINE
  5
104
330
17
100
AcDbEntity
  8
0
 62
8
100
AcDbLine
 10
262.6344636818927
 20
0.96703352023329
 30
0.0
 11
262.6356746116795
 21
0.964656935868934
 31
0.0
  0
LINE
  5
105
330
17
100
AcDbEntity
  8
0
 62
8
100
AcDbLine
 10
262.6340464239143
 20
0.9696679850173133
 30
0.0
 11
262.6344636818927
 21
0.96703352023329
 31
0.0
  0
LINE
  5
106
330
17
100
AcDbEntity
  8
0
 62
8
100
AcDbLine
 10
262.6344636818927
 20
0.9723024460778653
 30
0.0
 11
262.6340464239143
 21
0.9696679850173133
 31
0.0
  0
LINE
  5
107
330
17
100
AcDbEntity
  8
0
 62
8
100
AcDbLine
 10
262.6356746116795
 20
0.9746790323048664
 30
0.0
 11
262.6344636818927
 21
0.9723024460778653
 31
0.0
  0
LINE
  5
108
330
17
100
AcDbEntity
  8
0
 62
8
100
AcDbLine
 10
262.6375606798634
 20
0.97656509955792
 30
0.0
 11
262.6356746116795
 21
0.9746790323048664
 31
0.0
  0
LINE
  5
109
330
17
100
AcDbEntity
  8
0
 62
8
100
AcDbLine
 10
262.6399372642287
 20
0.977776029344259
 30
0.0
 11
262.6375606798634
 21
0.97656509955792
 31
0.0
  0
LINE
  5
10A
330
17
100
AcDbEntity
  8
0
 62
8
100
AcDbLine
 10
262.6425717280814
 20
0.9781932901156871
 30
0.0
 11
262.6399372642287
 21
0.977776029344259
 31
0.0
  0
LINE
  5
10B
330
17
100
AcDbEntity
  8
0
 62
8
100
AcDbLine
 10
262.6399372642287
 20
0.9615599351047059
 30
0.0
 11
262.6425717280814
 21
0.9611426780581133
 31
0.0
  0
LINE
  5
10C
330
17
100
AcDbEntity
  8
0
 62
8
100
AcDbLine
 10
262.6375606798634
 20
0.9627708667527805
 30
0.0
 11
262.6399372642287
 21
0.9615599351047059
 31
0.0
  0
LINE
  5
10D
330
17
100
AcDbEntity
  8
0
 62
8
100
AcDbLine
 10
262.6356746116795
 20
0.964656935868934
 30
0.0
 11
262.6375606798634
 21
0.9627708667527805
 31
0.0
  0
LINE
  5
10E
330
17
100
AcDbEntity
  8
0
 62
8
100
AcDbLine
 10
262.7664728264205
 20
0.9781932901156871
 30
0.0
 11
262.7676095343255
 21
0.9759362466012682
 31
0.0
  0
LINE
  5
10F
330
17
100
AcDbEntity
  8
0
 62
8
100
AcDbLine
 10
262.7664728264205
 20
0.9611426780581133
 30
0.0
 11
262.7676095343255
 21
0.9633997197094323
 31
0.0
  0
LINE
  5
110
330
17
100
AcDbEntity
  8
0
 62
8
100
AcDbLine
 10
262.563668989175
 20
-0.0587954730038654
 30
0.0
 11
262.563668989175
 21
-0.093471239565897
 31
0.0
  0
LINE
  5
111
330
17
100
AcDbEntity
  8
0
 62
8
100
AcDbLine
 10
263.3648783600917
 20
-0.0500099690710521
 30
0.0
 11
262.563668989175
 21
-0.0500099690710521
 31
0.0
  0
LINE
  5
112
330
17
100
AcDbEntity
  8
0
 62
8
100
AcDbLine
 10
263.3511376054026
 20
1.080796535257523
 30
0.0
 11
263.3330026099339
 21
1.080796535257523
 31
0.0
  0
LINE
  5
113
330
17
100
AcDbEntity
  8
0
 62
8
100
AcDbLine
 10
263.3511376072653
 20
1.080796533394877
 30
0.0
 11
262.563668989175
 21
1.080796531533142
 31
0.0
  0
LINE
  5
114
330
17
100
AcDbEntity
  8
0
 62
8
100
AcDbLine
 10
263.3648783600917
 20
0.7886477443804872
 30
0.0
 11
262.563668989175
 21
0.788647748104868
 31
0.0
  0
LINE
  5
115
330
17
100
AcDbEntity
  8
0
 62
8
100
AcDbLine
 10
262.7664728264205
 20
0.9781932901156871
 30
0.0
 11
262.6681476443069
 21
0.9781932901156871
 31
0.0
  0
LINE
  5
116
330
17
100
AcDbEntity
  8
0
 62
8
100
AcDbLine
 10
262.7664728264205
 20
0.9611426780581133
 30
0.0
 11
262.6681476443069
 21
0.9611426780581133
 31
0.0
  0
LINE
  5
117
330
17
100
AcDbEntity
  8
0
 62
8
100
AcDbLine
 10
262.563668989175
 20
1.949328427972123
 30
0.0
 11
262.563668989175
 21
1.080796531533142
 31
0.0
  0
LINE
  5
118
330
17
100
AcDbEntity
  8
0
 62
8
100
AcDbLine
 10
262.563668989175
 20
1.080796531533142
 30
0.0
 11
262.563668989175
 21
0.788647748104868
 31
0.0
  0
LINE
  5
119
330
17
100
AcDbEntity
  8
0
 62
8
100
AcDbLine
 10
262.563668989175
 20
-0.0587954730038654
 30
0.0
 11
262.563668989175
 21
0.788647748104868
 31
0.0
  0
LINE
  5
11A
330
17
100
AcDbEntity
  8
0
 62
8
100
AcDbLine
 10
263.4248634111405
 20
2.009999999999909
 30
0.0
 11
262.4998634111208
 21
2.009999999999909
 31
0.0
  0
LINE
  5
11B
330
17
100
AcDbEntity
  8
0
 62
8
100
AcDbLine
 10
262.563668989175
 20
-0.093471239565897
 30
0.0
 11
262.4998634111208
 21
-0.093471239565897
 31
0.0
  0
LINE
  5
11C
330
17
100
AcDbEntity
  8
0
 62
8
100
AcDbLine
 10
262.6425717280814
 20
0.9781932901156871
 30
0.0
 11
262.6681476443069
 21
0.9781932901156871
 31
0.0
  0
LINE
  5
11D
330
17
100
AcDbEntity
  8
0
 62
8
100
AcDbLine
 10
262.6425717280814
 20
0.9611426780581133
 30
0.0
 11
262.6681476443069
 21
0.9611426780581133
 31
0.0
  0
LINE
  5
11E
330
17
100
AcDbEntity
  8
0
 62
8
100
AcDbLine
 10
262.7676095343255
 20
0.9759362466012682
 30
0.0
 11
262.7676095343255
 21
0.9633997197094323
 31
0.0
  0
LINE
  5
11F
330
17
100
AcDbEntity
  8
0
 62
8
100
AcDbLine
 10
262.4360578330672
 20
1.950014948951011
 30
0.0
 11
261.63484846217
 21
1.950014948951011
 31
0.0
  0
LINE
  5
120
330
17
100
AcDbEntity
  8
0
 62
8
100
AcDbLine
 10
261.704168284478
 20
1.946701097203149
 30
0.0
 11
261.7040525499252
 21
1.946701097203149
 31
0.0
  0
LINE
  5
121
330
17
100
AcDbEntity
  8
0
 62
8
100
AcDbLine
 10
261.6348484612387
 20
-0.0885834519061426
 30
0.0
 11
261.6348484603078
 21
1.950014948951011
 31
0.0
  0
LINE
  5
122
330
17
100
AcDbEntity
  8
0
 62
8
100
AcDbLine
 10
261.5748634111211
 20
2.009999999999909
 30
0.0
 11
261.5748634111211
 21
-0.0900000018621903
 31
0.0
  0
LINE
  5
123
330
17
100
AcDbEntity
  8
0
 62
8
100
AcDbLine
 10
262.4360578330672
 20
-0.093471239565897
 30
0.0
 11
261.5748634111211
 21
-0.0900000018621903
 31
0.0
  0
LINE
  5
124
330
17
100
AcDbEntity
  8
0
 62
8
100
AcDbLine
 10
262.3320118110111
 20
1.057096028091255
 30
0.0
 11
262.3332438476888
 21
1.058939898321714
 31
0.0
  0
LINE
  5
125
330
17
100
AcDbEntity
  8
0
 62
8
100
AcDbLine
 10
262.3712988592803
 20
1.054729564680801
 30
0.0
 11
262.372407932418
 21
1.055294665868732
 31
0.0
  0
LINE
  5
126
330
17
100
AcDbEntity
  8
0
 62
8
100
AcDbLine
 10
262.3368890810731
 20
1.050281495695035
 30
0.0
 11
262.3366943611797
 21
1.051510909490989
 31
0.0
  0
LINE
  5
127
330
17
100
AcDbEntity
  8
0
 62
8
100
AcDbLine
 10
262.3332438476888
 20
1.058939898321714
 30
0.0
 11
262.335087719781
 21
1.060171935930757
 31
0.0
  0
LINE
  5
128
330
17
100
AcDbEntity
  8
0
 62
8
100
AcDbLine
 10
262.335087719781
 20
1.060171935930757
 30
0.0
 11
262.3372627146669
 21
1.060604570869291
 31
0.0
  0
LINE
  5
129
330
17
100
AcDbEntity
  8
0
 62
8
100
AcDbLine
 10
262.3827310075927
 20
0.8162124951137776
 30
0.0
 11
262.3822983745164
 21
0.8140375011586549
 31
0.0
  0
LINE
  5
12A
330
17
100
AcDbEntity
  8
0
 62
8
100
AcDbLine
 10
262.3822983745164
 20
0.8140375011586549
 30
0.0
 11
262.3810663378387
 21
0.8121936272042695
 31
0.0
  0
LINE
  5
12B
330
17
100
AcDbEntity
  8
0
 62
8
100
AcDbLine
 10
262.3810663378387
 20
0.8121936272042695
 30
0.0
 11
262.379222465746
 21
0.8109615914578718
 31
0.0
  0
LINE
  5
12C
330
17
100
AcDbEntity
  8
0
 62
8
100
AcDbLine
 10
262.379222465746
 20
0.8109615914578718
 30
0.0
 11
262.3770474699291
 21
0.8105289583815284
 31
0.0
  0
LINE
  5
12D
330
17
100
AcDbEntity
  8
0
 62
8
100
AcDbLine
 10
262.335087719781
 20
0.8109615914578718
 30
0.0
 11
262.3372627146669
 21
0.8105289583815284
 31
0.0
  0
LINE
  5
12E
330
17
100
AcDbEntity
  8
0
 62
8
100
AcDbLine
 10
262.3332438476888
 20
0.8121936272042695
 30
0.0
 11
262.335087719781
 21
0.8109615914578718
 31
0.0
  0
LINE
  5
12F
330
17
100
AcDbEntity
  8
0
 62
8
100
AcDbLine
 10
262.3320118110111
 20
0.8140375011586549
 30
0.0
 11
262.3332438476888
 21
0.8121936272042695
 31
0.0
  0
LINE
  5
130
330
17
100
AcDbEntity
  8
0
 62
8
100
AcDbLine
 10
262.3315791770039
 20
0.8162124951137776
 30
0.0
 11
262.3320118110111
 21
0.8140375011586549
 31
0.0
  0
LINE
  5
131
330
17
100
AcDbEntity
  8
0
 62
8
100
AcDbLine
 10
262.3315791770039
 20
1.054921032274396
 30
0.0
 11
262.3320118110111
 21
1.057096028091255
 31
0.0
  0
LINE
  5
132
330
17
100
AcDbEntity
  8
0
 62
8
100
AcDbLine
 10
262.3438914907789
 20
1.049172421625517
 30
0.0
 11
262.3430113262472
 21
1.048292256162913
 31
0.0
  0
LINE
  5
133
330
17
100
AcDbEntity
  8
0
 62
8
100
AcDbLine
 10
262.3704186947485
 20
1.049172421625517
 30
0.0
 11
262.3698535935606
 21
1.050281495695035
 31
0.0
  0
LINE
  5
134
330
17
100
AcDbEntity
  8
0
 62
8
100
AcDbLine
 10
262.3444565919669
 20
1.050281495695035
 30
0.0
 11
262.3438914907789
 21
1.049172421625517
 31
0.0
  0
LINE
  5
135
330
17
100
AcDbEntity
  8
0
 62
8
100
AcDbLine
 10
262.3698535935606
 20
1.052740327010415
 30
0.0
 11
262.3704186947485
 21
1.053849399218197
 31
0.0
  0
LINE
  5
136
330
17
100
AcDbEntity
  8
0
 62
8
100
AcDbLine
 10
262.3698535935606
 20
1.050281495695035
 30
0.0
 11
262.3696588736672
 21
1.051510909490989
 31
0.0
  0
LINE
  5
137
330
17
100
AcDbEntity
  8
0
 62
8
100
AcDbLine
 10
262.3366943611797
 20
1.051510909490989
 30
0.0
 11
262.3368890810731
 21
1.052740327010415
 31
0.0
  0
LINE
  5
138
330
17
100
AcDbEntity
  8
0
 62
8
100
AcDbLine
 10
262.3770474699291
 20
1.060604570869291
 30
0.0
 11
262.3372627146669
 21
1.060604570869291
 31
0.0
  0
LINE
  5
139
330
17
100
AcDbEntity
  8
0
 62
8
100
AcDbLine
 10
262.3315791770039
 20
1.054921032274396
 30
0.0
 11
262.3315791770039
 21
0.9781932901156871
 31
0.0
  0
LINE
  5
13A
330
17
100
AcDbEntity
  8
0
 62
8
100
AcDbLine
 10
262.3315791770039
 20
0.9611426780581133
 30
0.0
 11
262.3315791770039
 21
0.8162124951137776
 31
0.0
  0
LINE
  5
13B
330
17
100
AcDbEntity
  8
0
 62
8
100
AcDbLine
 10
262.3372627146669
 20
0.8105289583815284
 30
0.0
 11
262.3770474699291
 21
0.8105289583815284
 31
0.0
  0
LINE
  5
13C
330
17
100
AcDbEntity
  8
0
 62
8
100
AcDbLine
 10
262.3827310075927
 20
0.8162124951137776
 30
0.0
 11
262.3827310075927
 21
1.054921032274396
 31
0.0
  0
LINE
  5
13D
330
17
100
AcDbEntity
  8
0
 62
8
100
AcDbLine
 10
262.3827310075927
 20
1.054921032274396
 30
0.0
 11
262.3822983745164
 21
1.057096028091255
 31
0.0
  0
LINE
  5
13E
330
17
100
AcDbEntity
  8
0
 62
8
100
AcDbLine
 10
262.3822983745164
 20
1.057096028091255
 30
0.0
 11
262.3810663378387
 21
1.058939898321714
 31
0.0
  0
LINE
  5
13F
330
17
100
AcDbEntity
  8
0
 62
8
100
AcDbLine
 10
262.3810663378387
 20
1.058939898321714
 30
0.0
 11
262.379222465746
 21
1.060171935930757
 31
0.0
  0
LINE
  5
140
330
17
100
AcDbEntity
  8
0
 62
8
100
AcDbLine
 10
262.379222465746
 20
1.060171935930757
 30
0.0
 11
262.3770474699291
 21
1.060604570869291
 31
0.0
  0
LINE
  5
141
330
17
100
AcDbEntity
  8
0
 62
8
100
AcDbLine
 10
262.3368890810731
 20
1.052740327010415
 30
0.0
 11
262.337454182261
 21
1.053849399218197
 31
0.0
  0
LINE
  5
142
330
17
100
AcDbEntity
  8
0
 62
8
100
AcDbLine
 10
262.337454182261
 20
1.053849399218197
 30
0.0
 11
262.3383343467927
 21
1.054729564680801
 31
0.0
  0
LINE
  5
143
330
17
100
AcDbEntity
  8
0
 62
8
100
AcDbLine
 10
262.3383343467927
 20
1.054729564680801
 30
0.0
 11
262.3394434199305
 21
1.055294665868732
 31
0.0
  0
LINE
  5
144
330
17
100
AcDbEntity
  8
0
 62
8
100
AcDbLine
 10
262.3394434199305
 20
1.055294665868732
 30
0.0
 11
262.3406728365195
 21
1.055489386693043
 31
0.0
  0
LINE
  5
145
330
17
100
AcDbEntity
  8
0
 62
8
100
AcDbLine
 10
262.3406728365195
 20
1.055489386693043
 30
0.0
 11
262.3419022531085
 21
1.055294665868732
 31
0.0
  0
LINE
  5
146
330
17
100
AcDbEntity
  8
0
 62
8
100
AcDbLine
 10
262.3419022531085
 20
1.055294665868732
 30
0.0
 11
262.3430113262472
 21
1.054729564680801
 31
0.0
  0
LINE
  5
147
330
17
100
AcDbEntity
  8
0
 62
8
100
AcDbLine
 10
262.3430113262472
 20
1.054729564680801
 30
0.0
 11
262.3438914907789
 21
1.053849399218197
 31
0.0
  0
LINE
  5
148
330
17
100
AcDbEntity
  8
0
 62
8
100
AcDbLine
 10
262.3438914907789
 20
1.053849399218197
 30
0.0
 11
262.3444565919669
 21
1.052740327010415
 31
0.0
  0
LINE
  5
149
330
17
100
AcDbEntity
  8
0
 62
8
100
AcDbLine
 10
262.3444565919669
 20
1.052740327010415
 30
0.0
 11
262.3446513118594
 21
1.051510909490989
 31
0.0
  0
LINE
  5
14A
330
17
100
AcDbEntity
  8
0
 62
8
100
AcDbLine
 10
262.3446513118594
 20
1.051510909490989
 30
0.0
 11
262.3444565919669
 21
1.050281495695035
 31
0.0
  0
LINE
  5
14B
330
17
100
AcDbEntity
  8
0
 62
8
100
AcDbLine
 10
262.3430113262472
 20
1.048292256162913
 30
0.0
 11
262.3419022531085
 21
1.047727154974982
 31
0.0
  0
LINE
  5
14C
330
17
100
AcDbEntity
  8
0
 62
8
100
AcDbLine
 10
262.3419022531085
 20
1.047727154974982
 30
0.0
 11
262.3406728365195
 21
1.047532434150671
 31
0.0
  0
LINE
  5
14D
330
17
100
AcDbEntity
  8
0
 62
8
100
AcDbLine
 10
262.3406728365195
 20
1.047532434150671
 30
0.0
 11
262.3394434199305
 21
1.047727154974982
 31
0.0
  0
LINE
  5
14E
330
17
100
AcDbEntity
  8
0
 62
8
100
AcDbLine
 10
262.3394434199305
 20
1.047727154974982
 30
0.0
 11
262.3383343467927
 21
1.048292256162913
 31
0.0
  0
LINE
  5
14F
330
17
100
AcDbEntity
  8
0
 62
8
100
AcDbLine
 10
262.3383343467927
 20
1.048292256162913
 30
0.0
 11
262.337454182261
 21
1.049172421625517
 31
0.0
  0
LINE
  5
150
330
17
100
AcDbEntity
  8
0
 62
8
100
AcDbLine
 10
262.337454182261
 20
1.049172421625517
 30
0.0
 11
262.3368890810731
 21
1.050281495695035
 31
0.0
  0
LINE
  5
151
330
17
100
AcDbEntity
  8
0
 62
8
100
AcDbLine
 10
262.3768560032664
 20
1.049172421625517
 30
0.0
 11
262.3759758387347
 21
1.048292256162913
 31
0.0
  0
LINE
  5
152
330
17
100
AcDbEntity
  8
0
 62
8
100
AcDbLine
 10
262.3759758387347
 20
1.048292256162913
 30
0.0
 11
262.374866765596
 21
1.047727154974982
 31
0.0
  0
LINE
  5
153
330
17
100
AcDbEntity
  8
0
 62
8
100
AcDbLine
 10
262.374866765596
 20
1.047727154974982
 30
0.0
 11
262.373637349007
 21
1.047532434150671
 31
0.0
  0
LINE
  5
154
330
17
100
AcDbEntity
  8
0
 62
8
100
AcDbLine
 10
262.373637349007
 20
1.047532434150671
 30
0.0
 11
262.372407932418
 21
1.047727154974982
 31
0.0
  0
LINE
  5
155
330
17
100
AcDbEntity
  8
0
 62
8
100
AcDbLine
 10
262.372407932418
 20
1.047727154974982
 30
0.0
 11
262.3712988592803
 21
1.048292256162913
 31
0.0
  0
LINE
  5
156
330
17
100
AcDbEntity
  8
0
 62
8
100
AcDbLine
 10
262.3712988592803
 20
1.048292256162913
 30
0.0
 11
262.3704186947485
 21
1.049172421625517
 31
0.0
  0
LINE
  5
157
330
17
100
AcDbEntity
  8
0
 62
8
100
AcDbLine
 10
262.3696588736672
 20
1.051510909490989
 30
0.0
 11
262.3698535935606
 21
1.052740327010415
 31
0.0
  0
LINE
  5
158
330
17
100
AcDbEntity
  8
0
 62
8
100
AcDbLine
 10
262.3704186947485
 20
1.053849399218197
 30
0.0
 11
262.3712988592803
 21
1.054729564680801
 31
0.0
  0
LINE
  5
159
330
17
100
AcDbEntity
  8
0
 62
8
100
AcDbLine
 10
262.372407932418
 20
1.055294665868732
 30
0.0
 11
262.373637349007
 21
1.055489386693043
 31
0.0
  0
LINE
  5
15A
330
17
100
AcDbEntity
  8
0
 62
8
100
AcDbLine
 10
262.373637349007
 20
1.055489386693043
 30
0.0
 11
262.374866765596
 21
1.055294665868732
 31
0.0
  0
LINE
  5
15B
330
17
100
AcDbEntity
  8
0
 62
8
100
AcDbLine
 10
262.374866765596
 20
1.055294665868732
 30
0.0
 11
262.3759758387347
 21
1.054729564680801
 31
0.0
  0
LINE
  5
15C
330
17
100
AcDbEntity
  8
0
 62
8
100
AcDbLine
 10
262.3759758387347
 20
1.054729564680801
 30
0.0
 11
262.3768560032664
 21
1.053849399218197
 31
0.0
  0
LINE
  5
15D
330
17
100
AcDbEntity
  8
0
 62
8
100
AcDbLine
 10
262.3768560032664
 20
1.053849399218197
 30
0.0
 11
262.3774211044544
 21
1.052740327010415
 31
0.0
  0
LINE
  5
15E
330
17
100
AcDbEntity
  8
0
 62
8
100
AcDbLine
 10
262.3774211044544
 20
1.052740327010415
 30
0.0
 11
262.3776158243469
 21
1.051510909490989
 31
0.0
  0
LINE
  5
15F
330
17
100
AcDbEntity
  8
0
 62
8
100
AcDbLine
 10
262.3776158243469
 20
1.051510909490989
 30
0.0
 11
262.3774211044544
 21
1.050281495695035
 31
0.0
  0
LINE
  5
160
330
17
100
AcDbEntity
  8
0
 62
8
100
AcDbLine
 10
262.3774211044544
 20
1.050281495695035
 30
0.0
 11
262.3768560032664
 21
1.049172421625517
 31
0.0
  0
LINE
  5
161
330
17
100
AcDbEntity
  8
0
 62
8
100
AcDbLine
 10
262.3698535935606
 20
0.8183932022399496
 30
0.0
 11
262.3696588736672
 21
0.8196226160354491
 31
0.0
  0
LINE
  5
162
330
17
100
AcDbEntity
  8
0
 62
8
100
AcDbLine
 10
262.3696588736672
 20
0.8196226160354491
 30
0.0
 11
262.3698535935606
 21
0.8208520335557842
 31
0.0
  0
LINE
  5
163
330
17
100
AcDbEntity
  8
0
 62
8
100
AcDbLine
 10
262.3698535935606
 20
0.8208520335557842
 30
0.0
 11
262.3704186947485
 21
0.8219611057626572
 31
0.0
  0
LINE
  5
164
330
17
100
AcDbEntity
  8
0
 62
8
100
AcDbLine
 10
262.3704186947485
 20
0.8219611057626572
 30
0.0
 11
262.3712988592803
 21
0.822841271225716
 31
0.0
  0
LINE
  5
165
330
17
100
AcDbEntity
  8
0
 62
8
100
AcDbLine
 10
262.3712988592803
 20
0.822841271225716
 30
0.0
 11
262.372407932418
 21
0.8234063705510017
 31
0.0
  0
LINE
  5
166
330
17
100
AcDbEntity
  8
0
 62
8
100
AcDbLine
 10
262.372407932418
 20
0.8234063705510017
 30
0.0
 11
262.373637349007
 21
0.823601093237503
 31
0.0
  0
LINE
  5
167
330
17
100
AcDbEntity
  8
0
 62
8
100
AcDbLine
 10
262.373637349007
 20
0.823601093237503
 30
0.0
 11
262.374866765596
 21
0.8234063705510017
 31
0.0
  0
LINE
  5
168
330
17
100
AcDbEntity
  8
0
 62
8
100
AcDbLine
 10
262.374866765596
 20
0.8234063705510017
 30
0.0
 11
262.3759758387347
 21
0.822841271225716
 31
0.0
  0
LINE
  5
169
330
17
100
AcDbEntity
  8
0
 62
8
100
AcDbLine
 10
262.3759758387347
 20
0.822841271225716
 30
0.0
 11
262.3768560032664
 21
0.8219611057626572
 31
0.0
  0
LINE
  5
16A
330
17
100
AcDbEntity
  8
0
 62
8
100
AcDbLine
 10
262.3768560032664
 20
0.8219611057626572
 30
0.0
 11
262.3774211044544
 21
0.8208520335557842
 31
0.0
  0
LINE
  5
16B
330
17
100
AcDbEntity
  8
0
 62
8
100
AcDbLine
 10
262.3774211044544
 20
0.8208520335557842
 30
0.0
 11
262.3776158243469
 21
0.8196226160354491
 31
0.0
  0
LINE
  5
16C
330
17
100
AcDbEntity
  8
0
 62
8
100
AcDbLine
 10
262.3776158243469
 20
0.8196226160354491
 30
0.0
 11
262.3774211044544
 21
0.8183932022399496
 31
0.0
  0
LINE
  5
16D
330
17
100
AcDbEntity
  8
0
 62
8
100
AcDbLine
 10
262.3774211044544
 20
0.8183932022399496
 30
0.0
 11
262.3768560032664
 21
0.8172841281708862
 31
0.0
  0
LINE
  5
16E
330
17
100
AcDbEntity
  8
0
 62
8
100
AcDbLine
 10
262.3768560032664
 20
0.8172841281708862
 30
0.0
 11
262.3759758387347
 21
0.8164039608451822
 31
0.0
  0
LINE
  5
16F
330
17
100
AcDbEntity
  8
0
 62
8
100
AcDbLine
 10
262.3759758387347
 20
0.8164039608451822
 30
0.0
 11
262.374866765596
 21
0.8158388615198965
 31
0.0
  0
LINE
  5
170
330
17
100
AcDbEntity
  8
0
 62
8
100
AcDbLine
 10
262.374866765596
 20
0.8158388615198965
 30
0.0
 11
262.373637349007
 21
0.8156441406960404
 31
0.0
  0
LINE
  5
171
330
17
100
AcDbEntity
  8
0
 62
8
100
AcDbLine
 10
262.373637349007
 20
0.8156441406960404
 30
0.0
 11
262.372407932418
 21
0.8158388615198965
 31
0.0
  0
LINE
  5
172
330
17
100
AcDbEntity
  8
0
 62
8
100
AcDbLine
 10
262.372407932418
 20
0.8158388615198965
 30
0.0
 11
262.3712988592803
 21
0.8164039608451822
 31
0.0
  0
LINE
  5
173
330
17
100
AcDbEntity
  8
0
 62
8
100
AcDbLine
 10
262.3712988592803
 20
0.8164039608451822
 30
0.0
 11
262.3704186947485
 21
0.8172841281708862
 31
0.0
  0
LINE
  5
174
330
17
100
AcDbEntity
  8
0
 62
8
100
AcDbLine
 10
262.3704186947485
 20
0.8172841281708862
 30
0.0
 11
262.3698535935606
 21
0.8183932022399496
 31
0.0
  0
LINE
  5
175
330
17
100
AcDbEntity
  8
0
 62
8
100
AcDbLine
 10
262.3430113262472
 20
0.822841271225716
 30
0.0
 11
262.3438914907789
 21
0.8219611057626572
 31
0.0
  0
LINE
  5
176
330
17
100
AcDbEntity
  8
0
 62
8
100
AcDbLine
 10
262.3438914907789
 20
0.8219611057626572
 30
0.0
 11
262.3444565919669
 21
0.8208520335557842
 31
0.0
  0
LINE
  5
177
330
17
100
AcDbEntity
  8
0
 62
8
100
AcDbLine
 10
262.3444565919669
 20
0.8208520335557842
 30
0.0
 11
262.3446513118594
 21
0.8196226160354491
 31
0.0
  0
LINE
  5
178
330
17
100
AcDbEntity
  8
0
 62
8
100
AcDbLine
 10
262.3446513118594
 20
0.8196226160354491
 30
0.0
 11
262.3444565919669
 21
0.8183932022399496
 31
0.0
  0
LINE
  5
179
330
17
100
AcDbEntity
  8
0
 62
8
100
AcDbLine
 10
262.3444565919669
 20
0.8183932022399496
 30
0.0
 11
262.3438914907789
 21
0.8172841281708862
 31
0.0
  0
LINE
  5
17A
330
17
100
AcDbEntity
  8
0
 62
8
100
AcDbLine
 10
262.3438914907789
 20
0.8172841281708862
 30
0.0
 11
262.3430113262472
 21
0.8164039608451822
 31
0.0
  0
LINE
  5
17B
330
17
100
AcDbEntity
  8
0
 62
8
100
AcDbLine
 10
262.3430113262472
 20
0.8164039608451822
 30
0.0
 11
262.3419022531085
 21
0.8158388615198965
 31
0.0
  0
LINE
  5
17C
330
17
100
AcDbEntity
  8
0
 62
8
100
AcDbLine
 10
262.3419022531085
 20
0.8158388615198965
 30
0.0
 11
262.3406728365195
 21
0.8156441406960404
 31
0.0
  0
LINE
  5
17D
330
17
100
AcDbEntity
  8
0
 62
8
100
AcDbLine
 10
262.3406728365195
 20
0.8156441406960404
 30
0.0
 11
262.3394434199305
 21
0.8158388615198965
 31
0.0
  0
LINE
  5
17E
330
17
100
AcDbEntity
  8
0
 62
8
100
AcDbLine
 10
262.3394434199305
 20
0.8158388615198965
 30
0.0
 11
262.3383343467927
 21
0.8164039608451822
 31
0.0
  0
LINE
  5
17F
330
17
100
AcDbEntity
  8
0
 62
8
100
AcDbLine
 10
262.3383343467927
 20
0.8164039608451822
 30
0.0
 11
262.337454182261
 21
0.8172841281708862
 31
0.0
  0
LINE
  5
180
330
17
100
AcDbEntity
  8
0
 62
8
100
AcDbLine
 10
262.337454182261
 20
0.8172841281708862
 30
0.0
 11
262.3368890810731
 21
0.8183932022399496
 31
0.0
  0
LINE
  5
181
330
17
100
AcDbEntity
  8
0
 62
8
100
AcDbLine
 10
262.3368890810731
 20
0.8183932022399496
 30
0.0
 11
262.3366943611797
 21
0.8196226160354491
 31
0.0
  0
LINE
  5
182
330
17
100
AcDbEntity
  8
0
 62
8
100
AcDbLine
 10
262.3366943611797
 20
0.8196226160354491
 30
0.0
 11
262.3368890810731
 21
0.8208520335557842
 31
0.0
  0
LINE
  5
183
330
17
100
AcDbEntity
  8
0
 62
8
100
AcDbLine
 10
262.3368890810731
 20
0.8208520335557842
 30
0.0
 11
262.337454182261
 21
0.8219611057626572
 31
0.0
  0
LINE
  5
184
330
17
100
AcDbEntity
  8
0
 62
8
100
AcDbLine
 10
262.337454182261
 20
0.8219611057626572
 30
0.0
 11
262.3383343467927
 21
0.822841271225716
 31
0.0
  0
LINE
  5
185
330
17
100
AcDbEntity
  8
0
 62
8
100
AcDbLine
 10
262.3383343467927
 20
0.822841271225716
 30
0.0
 11
262.3394434199305
 21
0.8234063705510017
 31
0.0
  0
LINE
  5
186
330
17
100
AcDbEntity
  8
0
 62
8
100
AcDbLine
 10
262.3394434199305
 20
0.8234063705510017
 30
0.0
 11
262.3406728365195
 21
0.823601093237503
 31
0.0
  0
LINE
  5
187
330
17
100
AcDbEntity
  8
0
 62
8
100
AcDbLine
 10
262.3406728365195
 20
0.823601093237503
 30
0.0
 11
262.3419022531085
 21
0.8234063705510017
 31
0.0
  0
LINE
  5
188
330
17
100
AcDbEntity
  8
0
 62
8
100
AcDbLine
 10
262.3419022531085
 20
0.8234063705510017
 30
0.0
 11
262.3430113262472
 21
0.822841271225716
 31
0.0
  0
LINE
  5
189
330
17
100
AcDbEntity
  8
0
 62
8
100
AcDbLine
 10
262.3652631394176
 20
0.96703352023329
 30
0.0
 11
262.3640522096317
 21
0.964656935868934
 31
0.0
  0
LINE
  5
18A
330
17
100
AcDbEntity
  8
0
 62
8
100
AcDbLine
 10
262.365680397396
 20
0.9696679850173133
 30
0.0
 11
262.3652631394176
 21
0.96703352023329
 31
0.0
  0
LINE
  5
18B
330
17
100
AcDbEntity
  8
0
 62
8
100
AcDbLine
 10
262.3652631394176
 20
0.9723024460778653
 30
0.0
 11
262.365680397396
 21
0.9696679850173133
 31
0.0
  0
LINE
  5
18C
330
17
100
AcDbEntity
  8
0
 62
8
100
AcDbLine
 10
262.3640522096317
 20
0.9746790323048664
 30
0.0
 11
262.3652631394176
 21
0.9723024460778653
 31
0.0
  0
LINE
  5
18D
330
17
100
AcDbEntity
  8
0
 62
8
100
AcDbLine
 10
262.3621661414469
 20
0.97656509955792
 30
0.0
 11
262.3640522096317
 21
0.9746790323048664
 31
0.0
  0
LINE
  5
18E
330
17
100
AcDbEntity
  8
0
 62
8
100
AcDbLine
 10
262.3597895570825
 20
0.977776029344259
 30
0.0
 11
262.3621661414469
 21
0.97656509955792
 31
0.0
  0
LINE
  5
18F
330
17
100
AcDbEntity
  8
0
 62
8
100
AcDbLine
 10
262.3571550932289
 20
0.9781932901156871
 30
0.0
 11
262.3597895570825
 21
0.977776029344259
 31
0.0
  0
LINE
  5
190
330
17
100
AcDbEntity
  8
0
 62
8
100
AcDbLine
 10
262.3597895570825
 20
0.9615599351047059
 30
0.0
 11
262.3571550932289
 21
0.9611426780581133
 31
0.0
  0
LINE
  5
191
330
17
100
AcDbEntity
  8
0
 62
8
100
AcDbLine
 10
262.3621661414469
 20
0.9627708667527805
 30
0.0
 11
262.3597895570825
 21
0.9615599351047059
 31
0.0
  0
LINE
  5
192
330
17
100
AcDbEntity
  8
0
 62
8
100
AcDbLine
 10
262.3640522096317
 20
0.964656935868934
 30
0.0
 11
262.3621661414469
 21
0.9627708667527805
 31
0.0
  0
LINE
  5
193
330
17
100
AcDbEntity
  8
0
 62
8
100
AcDbLine
 10
262.2332539948908
 20
0.9781932901156871
 30
0.0
 11
262.2321172869857
 21
0.9759362466012682
 31
0.0
  0
LINE
  5
194
330
17
100
AcDbEntity
  8
0
 62
8
100
AcDbLine
 10
262.2332539948908
 20
0.9611426780581133
 30
0.0
 11
262.2321172869857
 21
0.9633997197094323
 31
0.0
  0
LINE
  5
195
330
17
100
AcDbEntity
  8
0
 62
8
100
AcDbLine
 10
262.4360578330672
 20
-0.0587954730038654
 30
0.0
 11
262.4360578330672
 21
-0.093471239565897
 31
0.0
  0
LINE
  5
196
330
17
100
AcDbEntity
  8
0
 62
8
100
AcDbLine
 10
261.6348484612387
 20
-0.0500099690710521
 30
0.0
 11
262.4360578330672
 21
-0.0500099690710521
 31
0.0
  0
LINE
  5
197
330
17
100
AcDbEntity
  8
0
 62
8
100
AcDbLine
 10
261.6348484612387
 20
1.080796535257523
 30
0.0
 11
262.4360578330672
 21
1.080796531533142
 31
0.0
  0
LINE
  5
198
330
17
100
AcDbEntity
  8
0
 62
8
100
AcDbLine
 10
261.63484846217
 20
0.7886477462426776
 30
0.0
 11
262.4360578330672
 21
0.788647748104868
 31
0.0
  0
LINE
  5
199
330
17
100
AcDbEntity
  8
0
 62
8
100
AcDbLine
 10
262.2332539948908
 20
0.9781932901156871
 30
0.0
 11
262.3315791770039
 21
0.9781932901156871
 31
0.0
  0
LINE
  5
19A
330
17
100
AcDbEntity
  8
0
 62
8
100
AcDbLine
 10
262.2332539948908
 20
0.9611426780581133
 30
0.0
 11
262.3315791770039
 21
0.9611426780581133
 31
0.0
  0
LINE
  5
19B
330
17
100
AcDbEntity
  8
0
 62
8
100
AcDbLine
 10
262.4360578321358
 20
1.950014947089275
 30
0.0
 11
262.4360578330672
 21
1.080796531533142
 31
0.0
  0
LINE
  5
19C
330
17
100
AcDbEntity
  8
0
 62
8
100
AcDbLine
 10
262.4360578330672
 20
1.080796531533142
 30
0.0
 11
262.4360578330672
 21
0.788647748104868
 31
0.0
  0
LINE
  5
19D
330
17
100
AcDbEntity
  8
0
 62
8
100
AcDbLine
 10
262.4360578330672
 20
-0.0587954730038654
 30
0.0
 11
262.4360578330672
 21
0.788647748104868
 31
0.0
  0
LINE
  5
19E
330
17
100
AcDbEntity
  8
0
 62
8
100
AcDbLine
 10
261.5748634111211
 20
2.009999999999909
 30
0.0
 11
262.4998634111208
 21
2.009999999999909
 31
0.0
  0
LINE
  5
19F
330
17
100
AcDbEntity
  8
0
 62
8
100
AcDbLine
 10
262.4360578330672
 20
-0.093471239565897
 30
0.0
 11
262.4998634111208
 21
-0.093471239565897
 31
0.0
  0
LINE
  5
1A0
330
17
100
AcDbEntity
  8
0
 62
8
100
AcDbLine
 10
262.3571550932289
 20
0.9781932901156871
 30
0.0
 11
262.3315791770039
 21
0.9781932901156871
 31
0.0
  0
LINE
  5
1A1
330
17
100
AcDbEntity
  8
0
 62
8
100
AcDbLine
 10
262.3571550932289
 20
0.9611426780581133
 30
0.0
 11
262.3315791770039
 21
0.9611426780581133
 31
0.0
  0
LINE
  5
1A2
330
17
100
AcDbEntity
  8
0
 62
8
100
AcDbLine
 10
262.2321172869857
 20
0.9759362466012682
 30
0.0
 11
262.2321172869857
 21
0.9633997197094323
 31
0.0
  0
LINE
  5
1A3
330
17
100
AcDbEntity
  8
0
 62
8
100
AcDbLine
 10
262.4990338075983
 20
0.969667981293842
 30
0.0
 11
262.2805071436665
 21
0.969667981293842
 31
0.0
  0
LWPOLYLINE
  5
1A4
330
17
100
AcDbEntity
  8
0
 62
8
100
AcDbPolyline
 90
3
 70
0
 10
261.6348484603078
 20
1.950014948951011
 10
262.4360578330672
 20
0.969667981293842
 10
261.6348484612387
 20
-0.0500099690710521
  0
LINE
  5
1A5
330
17
100
AcDbEntity
  8
0
 62
8
100
AcDbLine
 10
262.5006930146434
 20
0.969667981293842
 30
0.0
 11
262.7192196785751
 21
0.969667981293842
 31
0.0
  0
LWPOLYLINE
  5
1A6
330
17
100
AcDbEntity
  8
0
 62
8
100
AcDbPolyline
 90
3
 70
0
 10
263.3648783591612
 20
1.950014948951011
 10
262.563668989175
 20
0.969667981293842
 10
263.3648783600917
 20
-0.0500099690710521
  0
LWPOLYLINE
  5
1A7
330
17
100
AcDbEntity
  8
0
 62
8
100
AcDbPolyline
 90
4
 70
1
 10
261.63484846217
 20
2.790014948950702
 10
263.3648783600717
 20
2.790014948950702
 10
263.3648783600717
 20
2.069985051048806
 10
261.63484846217
 20
2.069985051048806
  0
LINE
  5
1A8
330
17
100
AcDbEntity
  8
0
 62
8
100
AcDbLine
 10
259.0594721801604
 20
2.849999999999599
 30
0.0
 11
257.209472180161
 21
2.849999999999599
 31
0.0
  0
LINE
  5
1A9
330
17
100
AcDbEntity
  8
0
 62
8
100
AcDbLine
 10
259.0594721801604
 20
-0.0900000000004546
 30
0.0
 11
259.0594721801604
 21
2.849999999999599
 31
0.0
  0
LINE
  5
1AA
330
17
100
AcDbEntity
  8
0
 62
8
100
AcDbLine
 10
257.209472180161
 20
-0.0900000000004546
 30
0.0
 11
257.209472180161
 21
2.849999999999599
 31
0.0
  0
LINE
  5
1AB
330
17
100
AcDbEntity
  8
0
 62
8
100
AcDbLine
 10
258.1982777582149
 20
1.950014948951011
 30
0.0
 11
258.999487129132
 21
1.950014948951011
 31
0.0
  0
LINE
  5
1AC
330
17
100
AcDbEntity
  8
0
 62
8
100
AcDbLine
 10
258.1344721801612
 20
-0.093471239565897
 30
0.0
 11
258.1344721801612
 21
2.009999999999909
 31
0.0
  0
LINE
  5
1AD
330
17
100
AcDbEntity
  8
0
 62
8
100
AcDbLine
 10
258.999487129132
 20
-0.0885834519061426
 30
0.0
 11
258.9994871282012
 21
1.950014948951011
 31
0.0
  0
LINE
  5
1AE
330
17
100
AcDbEntity
  8
0
 62
8
100
AcDbLine
 10
259.0594721801809
 20
2.009999999999909
 30
0.0
 11
259.0594721811118
 21
-0.0900000000004546
 31
0.0
  0
LINE
  5
1AF
330
17
100
AcDbEntity
  8
0
 62
8
100
AcDbLine
 10
258.1982777582149
 20
-0.093471239565897
 30
0.0
 11
259.0594721811118
 21
-0.0900000000004546
 31
0.0
  0
LINE
  5
1B0
330
17
100
AcDbEntity
  8
0
 62
8
100
AcDbLine
 10
258.3023237793401
 20
1.057096028091255
 30
0.0
 11
258.3010917435937
 21
1.058939898321714
 31
0.0
  0
LINE
  5
1B1
330
17
100
AcDbEntity
  8
0
 62
8
100
AcDbLine
 10
258.2630367310709
 20
1.054729564680801
 30
0.0
 11
258.2619276588636
 21
1.055294665868732
 31
0.0
  0
LINE
  5
1B2
330
17
100
AcDbEntity
  8
0
 62
8
100
AcDbLine
 10
258.2974465092776
 20
1.050281495695035
 30
0.0
 11
258.297641229171
 21
1.051510909490989
 31
0.0
  0
LINE
  5
1B3
330
17
100
AcDbEntity
  8
0
 62
8
100
AcDbLine
 10
258.3010917435937
 20
1.058939898321714
 30
0.0
 11
258.2992478705697
 21
1.060171935930757
 31
0.0
  0
LINE
  5
1B4
330
17
100
AcDbEntity
  8
0
 62
8
100
AcDbLine
 10
258.2992478705697
 20
1.060171935930757
 30
0.0
 11
258.2970728756842
 21
1.060604570869291
 31
0.0
  0
LINE
  5
1B5
330
17
100
AcDbEntity
  8
0
 62
8
100
AcDbLine
 10
258.2516045827584
 20
0.8162124951137776
 30
0.0
 11
258.2520372167661
 21
0.8140375011586549
 31
0.0
  0
LINE
  5
1B6
330
17
100
AcDbEntity
  8
0
 62
8
100
AcDbLine
 10
258.2520372167661
 20
0.8140375011586549
 30
0.0
 11
258.253269252512
 21
0.8121936272042695
 31
0.0
  0
LINE
  5
1B7
330
17
100
AcDbEntity
  8
0
 62
8
100
AcDbLine
 10
258.253269252512
 20
0.8121936272042695
 30
0.0
 11
258.2551131246047
 21
0.8109615914578718
 31
0.0
  0
LINE
  5
1B8
330
17
100
AcDbEntity
  8
0
 62
8
100
AcDbLine
 10
258.2551131246047
 20
0.8109615914578718
 30
0.0
 11
258.257288120422
 21
0.8105289583815284
 31
0.0
  0
LINE
  5
1B9
330
17
100
AcDbEntity
  8
0
 62
8
100
AcDbLine
 10
258.2992478705697
 20
0.8109615914578718
 30
0.0
 11
258.2970728756842
 21
0.8105289583815284
 31
0.0
  0
LINE
  5
1BA
330
17
100
AcDbEntity
  8
0
 62
8
100
AcDbLine
 10
258.3010917435937
 20
0.8121936272042695
 30
0.0
 11
258.2992478705697
 21
0.8109615914578718
 31
0.0
  0
LINE
  5
1BB
330
17
100
AcDbEntity
  8
0
 62
8
100
AcDbLine
 10
258.3023237793401
 20
0.8140375011586549
 30
0.0
 11
258.3010917435937
 21
0.8121936272042695
 31
0.0
  0
LINE
  5
1BC
330
17
100
AcDbEntity
  8
0
 62
8
100
AcDbLine
 10
258.3027564133473
 20
0.8162124951137776
 30
0.0
 11
258.3023237793401
 21
0.8140375011586549
 31
0.0
  0
LINE
  5
1BD
330
17
100
AcDbEntity
  8
0
 62
8
100
AcDbLine
 10
258.3027564133473
 20
1.054921032274396
 30
0.0
 11
258.3023237793401
 21
1.057096028091255
 31
0.0
  0
LINE
  5
1BE
330
17
100
AcDbEntity
  8
0
 62
8
100
AcDbLine
 10
258.2904440995723
 20
1.049172421625517
 30
0.0
 11
258.291324264104
 21
1.048292256162913
 31
0.0
  0
LINE
  5
1BF
330
17
100
AcDbEntity
  8
0
 62
8
100
AcDbLine
 10
258.2639168965339
 20
1.049172421625517
 30
0.0
 11
258.2644819967901
 21
1.050281495695035
 31
0.0
  0
LINE
  5
1C0
330
17
100
AcDbEntity
  8
0
 62
8
100
AcDbLine
 10
258.2898789993156
 20
1.050281495695035
 30
0.0
 11
258.2904440995723
 21
1.049172421625517
 31
0.0
  0
LINE
  5
1C1
330
17
100
AcDbEntity
  8
0
 62
8
100
AcDbLine
 10
258.2644819967901
 20
1.052740327010415
 30
0.0
 11
258.2639168965339
 21
1.053849399218197
 31
0.0
  0
LINE
  5
1C2
330
17
100
AcDbEntity
  8
0
 62
8
100
AcDbLine
 10
258.2644819967901
 20
1.050281495695035
 30
0.0
 11
258.2646767166835
 21
1.051510909490989
 31
0.0
  0
LINE
  5
1C3
330
17
100
AcDbEntity
  8
0
 62
8
100
AcDbLine
 10
258.297641229171
 20
1.051510909490989
 30
0.0
 11
258.2974465092776
 21
1.052740327010415
 31
0.0
  0
LINE
  5
1C4
330
17
100
AcDbEntity
  8
0
 62
8
100
AcDbLine
 10
258.257288120422
 20
1.060604570869291
 30
0.0
 11
258.2970728756842
 21
1.060604570869291
 31
0.0
  0
LINE
  5
1C5
330
17
100
AcDbEntity
  8
0
 62
8
100
AcDbLine
 10
258.3027564133473
 20
1.054921032274396
 30
0.0
 11
258.3027564133473
 21
0.9781932901156871
 31
0.0
  0
LINE
  5
1C6
330
17
100
AcDbEntity
  8
0
 62
8
100
AcDbLine
 10
258.3027564133473
 20
0.9611426780581133
 30
0.0
 11
258.3027564133473
 21
0.8162124951137776
 31
0.0
  0
LINE
  5
1C7
330
17
100
AcDbEntity
  8
0
 62
8
100
AcDbLine
 10
258.2970728756842
 20
0.8105289583815284
 30
0.0
 11
258.257288120422
 21
0.8105289583815284
 31
0.0
  0
LINE
  5
1C8
330
17
100
AcDbEntity
  8
0
 62
8
100
AcDbLine
 10
258.2516045827584
 20
0.8162124951137776
 30
0.0
 11
258.2516045827584
 21
1.054921032274396
 31
0.0
  0
LINE
  5
1C9
330
17
100
AcDbEntity
  8
0
 62
8
100
AcDbLine
 10
258.2516045827584
 20
1.054921032274396
 30
0.0
 11
258.2520372167661
 21
1.057096028091255
 31
0.0
  0
LINE
  5
1CA
330
17
100
AcDbEntity
  8
0
 62
8
100
AcDbLine
 10
258.2520372167661
 20
1.057096028091255
 30
0.0
 11
258.253269252512
 21
1.058939898321714
 31
0.0
  0
LINE
  5
1CB
330
17
100
AcDbEntity
  8
0
 62
8
100
AcDbLine
 10
258.253269252512
 20
1.058939898321714
 30
0.0
 11
258.2551131246047
 21
1.060171935930757
 31
0.0
  0
LINE
  5
1CC
330
17
100
AcDbEntity
  8
0
 62
8
100
AcDbLine
 10
258.2551131246047
 20
1.060171935930757
 30
0.0
 11
258.257288120422
 21
1.060604570869291
 31
0.0
  0
LINE
  5
1CD
330
17
100
AcDbEntity
  8
0
 62
8
100
AcDbLine
 10
258.2974465092776
 20
1.052740327010415
 30
0.0
 11
258.2968814080901
 21
1.053849399218197
 31
0.0
  0
LINE
  5
1CE
330
17
100
AcDbEntity
  8
0
 62
8
100
AcDbLine
 10
258.2968814080901
 20
1.053849399218197
 30
0.0
 11
258.2960012435584
 21
1.054729564680801
 31
0.0
  0
LINE
  5
1CF
330
17
100
AcDbEntity
  8
0
 62
8
100
AcDbLine
 10
258.2960012435584
 20
1.054729564680801
 30
0.0
 11
258.2948921713511
 21
1.055294665868732
 31
0.0
  0
LINE
  5
1D0
330
17
100
AcDbEntity
  8
0
 62
8
100
AcDbLine
 10
258.2948921713511
 20
1.055294665868732
 30
0.0
 11
258.2936627538308
 21
1.055489386693043
 31
0.0
  0
LINE
  5
1D1
330
17
100
AcDbEntity
  8
0
 62
8
100
AcDbLine
 10
258.2936627538308
 20
1.055489386693043
 30
0.0
 11
258.2924333372417
 21
1.055294665868732
 31
0.0
  0
LINE
  5
1D2
330
17
100
AcDbEntity
  8
0
 62
8
100
AcDbLine
 10
258.2924333372417
 20
1.055294665868732
 30
0.0
 11
258.291324264104
 21
1.054729564680801
 31
0.0
  0
LINE
  5
1D3
330
17
100
AcDbEntity
  8
0
 62
8
100
AcDbLine
 10
258.291324264104
 20
1.054729564680801
 30
0.0
 11
258.2904440995723
 21
1.053849399218197
 31
0.0
  0
LINE
  5
1D4
330
17
100
AcDbEntity
  8
0
 62
8
100
AcDbLine
 10
258.2904440995723
 20
1.053849399218197
 30
0.0
 11
258.2898789993156
 21
1.052740327010415
 31
0.0
  0
LINE
  5
1D5
330
17
100
AcDbEntity
  8
0
 62
8
100
AcDbLine
 10
258.2898789993156
 20
1.052740327010415
 30
0.0
 11
258.2896842784909
 21
1.051510909490989
 31
0.0
  0
LINE
  5
1D6
330
17
100
AcDbEntity
  8
0
 62
8
100
AcDbLine
 10
258.2896842784909
 20
1.051510909490989
 30
0.0
 11
258.2898789993156
 21
1.050281495695035
 31
0.0
  0
LINE
  5
1D7
330
17
100
AcDbEntity
  8
0
 62
8
100
AcDbLine
 10
258.291324264104
 20
1.048292256162913
 30
0.0
 11
258.2924333372417
 21
1.047727154974982
 31
0.0
  0
LINE
  5
1D8
330
17
100
AcDbEntity
  8
0
 62
8
100
AcDbLine
 10
258.2924333372417
 20
1.047727154974982
 30
0.0
 11
258.2936627538308
 21
1.047532434150671
 31
0.0
  0
LINE
  5
1D9
330
17
100
AcDbEntity
  8
0
 62
8
100
AcDbLine
 10
258.2936627538308
 20
1.047532434150671
 30
0.0
 11
258.2948921713511
 21
1.047727154974982
 31
0.0
  0
LINE
  5
1DA
330
17
100
AcDbEntity
  8
0
 62
8
100
AcDbLine
 10
258.2948921713511
 20
1.047727154974982
 30
0.0
 11
258.2960012435584
 21
1.048292256162913
 31
0.0
  0
LINE
  5
1DB
330
17
100
AcDbEntity
  8
0
 62
8
100
AcDbLine
 10
258.2960012435584
 20
1.048292256162913
 30
0.0
 11
258.2968814080901
 21
1.049172421625517
 31
0.0
  0
LINE
  5
1DC
330
17
100
AcDbEntity
  8
0
 62
8
100
AcDbLine
 10
258.2968814080901
 20
1.049172421625517
 30
0.0
 11
258.2974465092776
 21
1.050281495695035
 31
0.0
  0
LINE
  5
1DD
330
17
100
AcDbEntity
  8
0
 62
8
100
AcDbLine
 10
258.2574795870847
 20
1.049172421625517
 30
0.0
 11
258.2583597516165
 21
1.048292256162913
 31
0.0
  0
LINE
  5
1DE
330
17
100
AcDbEntity
  8
0
 62
8
100
AcDbLine
 10
258.2583597516165
 20
1.048292256162913
 30
0.0
 11
258.2594688247547
 21
1.047727154974982
 31
0.0
  0
LINE
  5
1DF
330
17
100
AcDbEntity
  8
0
 62
8
100
AcDbLine
 10
258.2594688247547
 20
1.047727154974982
 30
0.0
 11
258.2606982413437
 21
1.047532434150671
 31
0.0
  0
LINE
  5
1E0
330
17
100
AcDbEntity
  8
0
 62
8
100
AcDbLine
 10
258.2606982413437
 20
1.047532434150671
 30
0.0
 11
258.2619276588636
 21
1.047727154974982
 31
0.0
  0
LINE
  5
1E1
330
17
100
AcDbEntity
  8
0
 62
8
100
AcDbLine
 10
258.2619276588636
 20
1.047727154974982
 30
0.0
 11
258.2630367310709
 21
1.048292256162913
 31
0.0
  0
LINE
  5
1E2
330
17
100
AcDbEntity
  8
0
 62
8
100
AcDbLine
 10
258.2630367310709
 20
1.048292256162913
 30
0.0
 11
258.2639168965339
 21
1.049172421625517
 31
0.0
  0
LINE
  5
1E3
330
17
100
AcDbEntity
  8
0
 62
8
100
AcDbLine
 10
258.2646767166835
 20
1.051510909490989
 30
0.0
 11
258.2644819967901
 21
1.052740327010415
 31
0.0
  0
LINE
  5
1E4
330
17
100
AcDbEntity
  8
0
 62
8
100
AcDbLine
 10
258.2639168965339
 20
1.053849399218197
 30
0.0
 11
258.2630367310709
 21
1.054729564680801
 31
0.0
  0
LINE
  5
1E5
330
17
100
AcDbEntity
  8
0
 62
8
100
AcDbLine
 10
258.2619276588636
 20
1.055294665868732
 30
0.0
 11
258.2606982413437
 21
1.055489386693043
 31
0.0
  0
LINE
  5
1E6
330
17
100
AcDbEntity
  8
0
 62
8
100
AcDbLine
 10
258.2606982413437
 20
1.055489386693043
 30
0.0
 11
258.2594688247547
 21
1.055294665868732
 31
0.0
  0
LINE
  5
1E7
330
17
100
AcDbEntity
  8
0
 62
8
100
AcDbLine
 10
258.2594688247547
 20
1.055294665868732
 30
0.0
 11
258.2583597516165
 21
1.054729564680801
 31
0.0
  0
LINE
  5
1E8
330
17
100
AcDbEntity
  8
0
 62
8
100
AcDbLine
 10
258.2583597516165
 20
1.054729564680801
 30
0.0
 11
258.2574795870847
 21
1.053849399218197
 31
0.0
  0
LINE
  5
1E9
330
17
100
AcDbEntity
  8
0
 62
8
100
AcDbLine
 10
258.2574795870847
 20
1.053849399218197
 30
0.0
 11
258.2569144868281
 21
1.052740327010415
 31
0.0
  0
LINE
  5
1EA
330
17
100
AcDbEntity
  8
0
 62
8
100
AcDbLine
 10
258.2569144868281
 20
1.052740327010415
 30
0.0
 11
258.2567197660034
 21
1.051510909490989
 31
0.0
  0
LINE
  5
1EB
330
17
100
AcDbEntity
  8
0
 62
8
100
AcDbLine
 10
258.2567197660034
 20
1.051510909490989
 30
0.0
 11
258.2569144868281
 21
1.050281495695035
 31
0.0
  0
LINE
  5
1EC
330
17
100
AcDbEntity
  8
0
 62
8
100
AcDbLine
 10
258.2569144868281
 20
1.050281495695035
 30
0.0
 11
258.2574795870847
 21
1.049172421625517
 31
0.0
  0
LINE
  5
1ED
330
17
100
AcDbEntity
  8
0
 62
8
100
AcDbLine
 10
258.2644819967901
 20
0.8183932022399496
 30
0.0
 11
258.2646767166835
 21
0.8196226160354491
 31
0.0
  0
LINE
  5
1EE
330
17
100
AcDbEntity
  8
0
 62
8
100
AcDbLine
 10
258.2646767166835
 20
0.8196226160354491
 30
0.0
 11
258.2644819967901
 21
0.8208520335557842
 31
0.0
  0
LINE
  5
1EF
330
17
100
AcDbEntity
  8
0
 62
8
100
AcDbLine
 10
258.2644819967901
 20
0.8208520335557842
 30
0.0
 11
258.2639168965339
 21
0.8219611057626572
 31
0.0
  0
LINE
  5
1F0
330
17
100
AcDbEntity
  8
0
 62
8
100
AcDbLine
 10
258.2639168965339
 20
0.8219611057626572
 30
0.0
 11
258.2630367310709
 21
0.822841271225716
 31
0.0
  0
LINE
  5
1F1
330
17
100
AcDbEntity
  8
0
 62
8
100
AcDbLine
 10
258.2630367310709
 20
0.822841271225716
 30
0.0
 11
258.2619276588636
 21
0.8234063705510017
 31
0.0
  0
LINE
  5
1F2
330
17
100
AcDbEntity
  8
0
 62
8
100
AcDbLine
 10
258.2619276588636
 20
0.8234063705510017
 30
0.0
 11
258.2606982413437
 21
0.823601093237503
 31
0.0
  0
LINE
  5
1F3
330
17
100
AcDbEntity
  8
0
 62
8
100
AcDbLine
 10
258.2606982413437
 20
0.823601093237503
 30
0.0
 11
258.2594688247547
 21
0.8234063705510017
 31
0.0
  0
LINE
  5
1F4
330
17
100
AcDbEntity
  8
0
 62
8
100
AcDbLine
 10
258.2594688247547
 20
0.8234063705510017
 30
0.0
 11
258.2583597516165
 21
0.822841271225716
 31
0.0
  0
LINE
  5
1F5
330
17
100
AcDbEntity
  8
0
 62
8
100
AcDbLine
 10
258.2583597516165
 20
0.822841271225716
 30
0.0
 11
258.2574795870847
 21
0.8219611057626572
 31
0.0
  0
LINE
  5
1F6
330
17
100
AcDbEntity
  8
0
 62
8
100
AcDbLine
 10
258.2574795870847
 20
0.8219611057626572
 30
0.0
 11
258.2569144868281
 21
0.8208520335557842
 31
0.0
  0
LINE
  5
1F7
330
17
100
AcDbEntity
  8
0
 62
8
100
AcDbLine
 10
258.2569144868281
 20
0.8208520335557842
 30
0.0
 11
258.2567197660034
 21
0.8196226160354491
 31
0.0
  0
LINE
  5
1F8
330
17
100
AcDbEntity
  8
0
 62
8
100
AcDbLine
 10
258.2567197660034
 20
0.8196226160354491
 30
0.0
 11
258.2569144868281
 21
0.8183932022399496
 31
0.0
  0
LINE
  5
1F9
330
17
100
AcDbEntity
  8
0
 62
8
100
AcDbLine
 10
258.2569144868281
 20
0.8183932022399496
 30
0.0
 11
258.2574795870847
 21
0.8172841281708862
 31
0.0
  0
LINE
  5
1FA
330
17
100
AcDbEntity
  8
0
 62
8
100
AcDbLine
 10
258.2574795870847
 20
0.8172841281708862
 30
0.0
 11
258.2583597516165
 21
0.8164039608451822
 31
0.0
  0
LINE
  5
1FB
330
17
100
AcDbEntity
  8
0
 62
8
100
AcDbLine
 10
258.2583597516165
 20
0.8164039608451822
 30
0.0
 11
258.2594688247547
 21
0.8158388615198965
 31
0.0
  0
LINE
  5
1FC
330
17
100
AcDbEntity
  8
0
 62
8
100
AcDbLine
 10
258.2594688247547
 20
0.8158388615198965
 30
0.0
 11
258.2606982413437
 21
0.8156441406960404
 31
0.0
  0
LINE
  5
1FD
330
17
100
AcDbEntity
  8
0
 62
8
100
AcDbLine
 10
258.2606982413437
 20
0.8156441406960404
 30
0.0
 11
258.2619276588636
 21
0.8158388615198965
 31
0.0
  0
LINE
  5
1FE
330
17
100
AcDbEntity
  8
0
 62
8
100
AcDbLine
 10
258.2619276588636
 20
0.8158388615198965
 30
0.0
 11
258.2630367310709
 21
0.8164039608451822
 31
0.0
  0
LINE
  5
1FF
330
17
100
AcDbEntity
  8
0
 62
8
100
AcDbLine
 10
258.2630367310709
 20
0.8164039608451822
 30
0.0
 11
258.2639168965339
 21
0.8172841281708862
 31
0.0
  0
LINE
  5
200
330
17
100
AcDbEntity
  8
0
 62
8
100
AcDbLine
 10
258.2639168965339
 20
0.8172841281708862
 30
0.0
 11
258.2644819967901
 21
0.8183932022399496
 31
0.0
  0
LINE
  5
201
330
17
100
AcDbEntity
  8
0
 62
8
100
AcDbLine
 10
258.291324264104
 20
0.822841271225716
 30
0.0
 11
258.2904440995723
 21
0.8219611057626572
 31
0.0
  0
LINE
  5
202
330
17
100
AcDbEntity
  8
0
 62
8
100
AcDbLine
 10
258.2904440995723
 20
0.8219611057626572
 30
0.0
 11
258.2898789993156
 21
0.8208520335557842
 31
0.0
  0
LINE
  5
203
330
17
100
AcDbEntity
  8
0
 62
8
100
AcDbLine
 10
258.2898789993156
 20
0.8208520335557842
 30
0.0
 11
258.2896842784909
 21
0.8196226160354491
 31
0.0
  0
LINE
  5
204
330
17
100
AcDbEntity
  8
0
 62
8
100
AcDbLine
 10
258.2896842784909
 20
0.8196226160354491
 30
0.0
 11
258.2898789993156
 21
0.8183932022399496
 31
0.0
  0
LINE
  5
205
330
17
100
AcDbEntity
  8
0
 62
8
100
AcDbLine
 10
258.2898789993156
 20
0.8183932022399496
 30
0.0
 11
258.2904440995723
 21
0.8172841281708862
 31
0.0
  0
LINE
  5
206
330
17
100
AcDbEntity
  8
0
 62
8
100
AcDbLine
 10
258.2904440995723
 20
0.8172841281708862
 30
0.0
 11
258.291324264104
 21
0.8164039608451822
 31
0.0
  0
LINE
  5
207
330
17
100
AcDbEntity
  8
0
 62
8
100
AcDbLine
 10
258.291324264104
 20
0.8164039608451822
 30
0.0
 11
258.2924333372417
 21
0.8158388615198965
 31
0.0
  0
LINE
  5
208
330
17
100
AcDbEntity
  8
0
 62
8
100
AcDbLine
 10
258.2924333372417
 20
0.8158388615198965
 30
0.0
 11
258.2936627538308
 21
0.8156441406960404
 31
0.0
  0
LINE
  5
209
330
17
100
AcDbEntity
  8
0
 62
8
100
AcDbLine
 10
258.2936627538308
 20
0.8156441406960404
 30
0.0
 11
258.2948921713511
 21
0.8158388615198965
 31
0.0
  0
LINE
  5
20A
330
17
100
AcDbEntity
  8
0
 62
8
100
AcDbLine
 10
258.2948921713511
 20
0.8158388615198965
 30
0.0
 11
258.2960012435584
 21
0.8164039608451822
 31
0.0
  0
LINE
  5
20B
330
17
100
AcDbEntity
  8
0
 62
8
100
AcDbLine
 10
258.2960012435584
 20
0.8164039608451822
 30
0.0
 11
258.2968814080901
 21
0.8172841281708862
 31
0.0
  0
LINE
  5
20C
330
17
100
AcDbEntity
  8
0
 62
8
100
AcDbLine
 10
258.2968814080901
 20
0.8172841281708862
 30
0.0
 11
258.2974465092776
 21
0.8183932022399496
 31
0.0
  0
LINE
  5
20D
330
17
100
AcDbEntity
  8
0
 62
8
100
AcDbLine
 10
258.2974465092776
 20
0.8183932022399496
 30
0.0
 11
258.297641229171
 21
0.8196226160354491
 31
0.0
  0
LINE
  5
20E
330
17
100
AcDbEntity
  8
0
 62
8
100
AcDbLine
 10
258.297641229171
 20
0.8196226160354491
 30
0.0
 11
258.2974465092776
 21
0.8208520335557842
 31
0.0
  0
LINE
  5
20F
330
17
100
AcDbEntity
  8
0
 62
8
100
AcDbLine
 10
258.2974465092776
 20
0.8208520335557842
 30
0.0
 11
258.2968814080901
 21
0.8219611057626572
 31
0.0
  0
LINE
  5
210
330
17
100
AcDbEntity
  8
0
 62
8
100
AcDbLine
 10
258.2968814080901
 20
0.8219611057626572
 30
0.0
 11
258.2960012435584
 21
0.822841271225716
 31
0.0
  0
LINE
  5
211
330
17
100
AcDbEntity
  8
0
 62
8
100
AcDbLine
 10
258.2960012435584
 20
0.822841271225716
 30
0.0
 11
258.2948921713511
 21
0.8234063705510017
 31
0.0
  0
LINE
  5
212
330
17
100
AcDbEntity
  8
0
 62
8
100
AcDbLine
 10
258.2948921713511
 20
0.8234063705510017
 30
0.0
 11
258.2936627538308
 21
0.823601093237503
 31
0.0
  0
LINE
  5
213
330
17
100
AcDbEntity
  8
0
 62
8
100
AcDbLine
 10
258.2936627538308
 20
0.823601093237503
 30
0.0
 11
258.2924333372417
 21
0.8234063705510017
 31
0.0
  0
LINE
  5
214
330
17
100
AcDbEntity
  8
0
 62
8
100
AcDbLine
 10
258.2924333372417
 20
0.8234063705510017
 30
0.0
 11
258.291324264104
 21
0.822841271225716
 31
0.0
  0
LINE
  5
215
330
17
100
AcDbEntity
  8
0
 62
8
100
AcDbLine
 10
258.2690724509331
 20
0.96703352023329
 30
0.0
 11
258.2702833807194
 21
0.964656935868934
 31
0.0
  0
LINE
  5
216
330
17
100
AcDbEntity
  8
0
 62
8
100
AcDbLine
 10
258.2686551929547
 20
0.9696679850173133
 30
0.0
 11
258.2690724509331
 21
0.96703352023329
 31
0.0
  0
LINE
  5
217
330
17
100
AcDbEntity
  8
0
 62
8
100
AcDbLine
 10
258.2690724509331
 20
0.9723024460778653
 30
0.0
 11
258.2686551929547
 21
0.9696679850173133
 31
0.0
  0
LINE
  5
218
330
17
100
AcDbEntity
  8
0
 62
8
100
AcDbLine
 10
258.2702833807194
 20
0.9746790323048664
 30
0.0
 11
258.2690724509331
 21
0.9723024460778653
 31
0.0
  0
LINE
  5
219
330
17
100
AcDbEntity
  8
0
 62
8
100
AcDbLine
 10
258.2721694489034
 20
0.97656509955792
 30
0.0
 11
258.2702833807194
 21
0.9746790323048664
 31
0.0
  0
LINE
  5
21A
330
17
100
AcDbEntity
  8
0
 62
8
100
AcDbLine
 10
258.2745460332686
 20
0.977776029344259
 30
0.0
 11
258.2721694489034
 21
0.97656509955792
 31
0.0
  0
LINE
  5
21B
330
17
100
AcDbEntity
  8
0
 62
8
100
AcDbLine
 10
258.2771804971218
 20
0.9781932901156871
 30
0.0
 11
258.2745460332686
 21
0.977776029344259
 31
0.0
  0
LINE
  5
21C
330
17
100
AcDbEntity
  8
0
 62
8
100
AcDbLine
 10
258.2745460332686
 20
0.9615599351047059
 30
0.0
 11
258.2771804971218
 21
0.9611426780581133
 31
0.0
  0
LINE
  5
21D
330
17
100
AcDbEntity
  8
0
 62
8
100
AcDbLine
 10
258.2721694489034
 20
0.9627708667527805
 30
0.0
 11
258.2745460332686
 21
0.9615599351047059
 31
0.0
  0
LINE
  5
21E
330
17
100
AcDbEntity
  8
0
 62
8
100
AcDbLine
 10
258.2702833807194
 20
0.964656935868934
 30
0.0
 11
258.2721694489034
 21
0.9627708667527805
 31
0.0
  0
LINE
  5
21F
330
17
100
AcDbEntity
  8
0
 62
8
100
AcDbLine
 10
258.4010815954604
 20
0.9781932901156871
 30
0.0
 11
258.4022183033654
 21
0.9759362466012682
 31
0.0
  0
LINE
  5
220
330
17
100
AcDbEntity
  8
0
 62
8
100
AcDbLine
 10
258.4010815954604
 20
0.9611426780581133
 30
0.0
 11
258.4022183033654
 21
0.9633997197094323
 31
0.0
  0
LINE
  5
221
330
17
100
AcDbEntity
  8
0
 62
8
100
AcDbLine
 10
258.1982777582149
 20
-0.0587954730038654
 30
0.0
 11
258.1982777582149
 21
-0.093471239565897
 31
0.0
  0
LINE
  5
222
330
17
100
AcDbEntity
  8
0
 62
8
100
AcDbLine
 10
258.999487129132
 20
-0.0500099690710521
 30
0.0
 11
258.1982777582149
 21
-0.0500099690710521
 31
0.0
  0
LINE
  5
223
330
17
100
AcDbEntity
  8
0
 62
8
100
AcDbLine
 10
258.985746374443
 20
1.080796535257523
 30
0.0
 11
258.9676113789743
 21
1.080796535257523
 31
0.0
  0
LINE
  5
224
330
17
100
AcDbEntity
  8
0
 62
8
100
AcDbLine
 10
258.9857463763052
 20
1.080796533394877
 30
0.0
 11
258.1982777582149
 21
1.080796531533142
 31
0.0
  0
LINE
  5
225
330
17
100
AcDbEntity
  8
0
 62
8
100
AcDbLine
 10
258.999487129132
 20
0.7886477443804872
 30
0.0
 11
258.1982777582149
 21
0.788647748104868
 31
0.0
  0
LINE
  5
226
330
17
100
AcDbEntity
  8
0
 62
8
100
AcDbLine
 10
258.4010815954604
 20
0.9781932901156871
 30
0.0
 11
258.3027564133473
 21
0.9781932901156871
 31
0.0
  0
LINE
  5
227
330
17
100
AcDbEntity
  8
0
 62
8
100
AcDbLine
 10
258.4010815954604
 20
0.9611426780581133
 30
0.0
 11
258.3027564133473
 21
0.9611426780581133
 31
0.0
  0
LINE
  5
228
330
17
100
AcDbEntity
  8
0
 62
8
100
AcDbLine
 10
258.1982777582149
 20
1.949328427972123
 30
0.0
 11
258.1982777582149
 21
1.080796531533142
 31
0.0
  0
LINE
  5
229
330
17
100
AcDbEntity
  8
0
 62
8
100
AcDbLine
 10
258.1982777582149
 20
1.080796531533142
 30
0.0
 11
258.1982777582149
 21
0.788647748104868
 31
0.0
  0
LINE
  5
22A
330
17
100
AcDbEntity
  8
0
 62
8
100
AcDbLine
 10
258.1982777582149
 20
-0.0587954730038654
 30
0.0
 11
258.1982777582149
 21
0.788647748104868
 31
0.0
  0
LINE
  5
22B
330
17
100
AcDbEntity
  8
0
 62
8
100
AcDbLine
 10
259.0594721801809
 20
2.009999999999909
 30
0.0
 11
258.1344721801612
 21
2.009999999999909
 31
0.0
  0
LINE
  5
22C
330
17
100
AcDbEntity
  8
0
 62
8
100
AcDbLine
 10
258.1982777582149
 20
-0.093471239565897
 30
0.0
 11
258.1344721801612
 21
-0.093471239565897
 31
0.0
  0
LINE
  5
22D
330
17
100
AcDbEntity
  8
0
 62
8
100
AcDbLine
 10
258.2771804971218
 20
0.9781932901156871
 30
0.0
 11
258.3027564133473
 21
0.9781932901156871
 31
0.0
  0
LINE
  5
22E
330
17
100
AcDbEntity
  8
0
 62
8
100
AcDbLine
 10
258.2771804971218
 20
0.9611426780581133
 30
0.0
 11
258.3027564133473
 21
0.9611426780581133
 31
0.0
  0
LINE
  5
22F
330
17
100
AcDbEntity
  8
0
 62
8
100
AcDbLine
 10
258.4022183033654
 20
0.9759362466012682
 30
0.0
 11
258.4022183033654
 21
0.9633997197094323
 31
0.0
  0
LINE
  5
230
330
17
100
AcDbEntity
  8
0
 62
8
100
AcDbLine
 10
258.0706666021075
 20
1.950014948951011
 30
0.0
 11
257.2694572312099
 21
1.950014948951011
 31
0.0
  0
LINE
  5
231
330
17
100
AcDbEntity
  8
0
 62
8
100
AcDbLine
 10
257.3387770535179
 20
1.946701097203149
 30
0.0
 11
257.3386613189656
 21
1.946701097203149
 31
0.0
  0
LINE
  5
232
330
17
100
AcDbEntity
  8
0
 62
8
100
AcDbLine
 10
257.2694572302786
 20
-0.0885834519061426
 30
0.0
 11
257.2694572293482
 21
1.950014948951011
 31
0.0
  0
LINE
  5
233
330
17
100
AcDbEntity
  8
0
 62
8
100
AcDbLine
 10
257.209472180161
 20
2.009999999999909
 30
0.0
 11
257.209472180161
 21
-0.0900000018621903
 31
0.0
  0
LINE
  5
234
330
17
100
AcDbEntity
  8
0
 62
8
100
AcDbLine
 10
258.0706666021075
 20
-0.093471239565897
 30
0.0
 11
257.209472180161
 21
-0.0900000018621903
 31
0.0
  0
LINE
  5
235
330
17
100
AcDbEntity
  8
0
 62
8
100
AcDbLine
 10
257.966620580051
 20
1.057096028091255
 30
0.0
 11
257.9678526167287
 21
1.058939898321714
 31
0.0
  0
LINE
  5
236
330
17
100
AcDbEntity
  8
0
 62
8
100
AcDbLine
 10
258.0059076283202
 20
1.054729564680801
 30
0.0
 11
258.0070167014584
 21
1.055294665868732
 31
0.0
  0
LINE
  5
237
330
17
100
AcDbEntity
  8
0
 62
8
100
AcDbLine
 10
257.971497850113
 20
1.050281495695035
 30
0.0
 11
257.97130313022
 21
1.051510909490989
 31
0.0
  0
LINE
  5
238
330
17
100
AcDbEntity
  8
0
 62
8
100
AcDbLine
 10
257.9678526167287
 20
1.058939898321714
 30
0.0
 11
257.9696964888213
 21
1.060171935930757
 31
0.0
  0
LINE
  5
239
330
17
100
AcDbEntity
  8
0
 62
8
100
AcDbLine
 10
257.9696964888213
 20
1.060171935930757
 30
0.0
 11
257.9718714837069
 21
1.060604570869291
 31
0.0
  0
LINE
  5
23A
330
17
100
AcDbEntity
  8
0
 62
8
100
AcDbLine
 10
258.0173397766326
 20
0.8162124951137776
 30
0.0
 11
258.0169071435563
 21
0.8140375011586549
 31
0.0
  0
LINE
  5
23B
330
17
100
AcDbEntity
  8
0
 62
8
100
AcDbLine
 10
258.0169071435563
 20
0.8140375011586549
 30
0.0
 11
258.0156751068786
 21
0.8121936272042695
 31
0.0
  0
LINE
  5
23C
330
17
100
AcDbEntity
  8
0
 62
8
100
AcDbLine
 10
258.0156751068786
 20
0.8121936272042695
 30
0.0
 11
258.0138312347864
 21
0.8109615914578718
 31
0.0
  0
LINE
  5
23D
330
17
100
AcDbEntity
  8
0
 62
8
100
AcDbLine
 10
258.0138312347864
 20
0.8109615914578718
 30
0.0
 11
258.0116562389695
 21
0.8105289583815284
 31
0.0
  0
LINE
  5
23E
330
17
100
AcDbEntity
  8
0
 62
8
100
AcDbLine
 10
257.9696964888213
 20
0.8109615914578718
 30
0.0
 11
257.9718714837069
 21
0.8105289583815284
 31
0.0
  0
LINE
  5
23F
330
17
100
AcDbEntity
  8
0
 62
8
100
AcDbLine
 10
257.9678526167287
 20
0.8121936272042695
 30
0.0
 11
257.9696964888213
 21
0.8109615914578718
 31
0.0
  0
LINE
  5
240
330
17
100
AcDbEntity
  8
0
 62
8
100
AcDbLine
 10
257.966620580051
 20
0.8140375011586549
 30
0.0
 11
257.9678526167287
 21
0.8121936272042695
 31
0.0
  0
LINE
  5
241
330
17
100
AcDbEntity
  8
0
 62
8
100
AcDbLine
 10
257.9661879460442
 20
0.8162124951137776
 30
0.0
 11
257.966620580051
 21
0.8140375011586549
 31
0.0
  0
LINE
  5
242
330
17
100
AcDbEntity
  8
0
 62
8
100
AcDbLine
 10
257.9661879460442
 20
1.054921032274396
 30
0.0
 11
257.966620580051
 21
1.057096028091255
 31
0.0
  0
LINE
  5
243
330
17
100
AcDbEntity
  8
0
 62
8
100
AcDbLine
 10
257.9785002598188
 20
1.049172421625517
 30
0.0
 11
257.9776200952871
 21
1.048292256162913
 31
0.0
  0
LINE
  5
244
330
17
100
AcDbEntity
  8
0
 62
8
100
AcDbLine
 10
258.0050274637884
 20
1.049172421625517
 30
0.0
 11
258.0044623626005
 21
1.050281495695035
 31
0.0
  0
LINE
  5
245
330
17
100
AcDbEntity
  8
0
 62
8
100
AcDbLine
 10
257.9790653610067
 20
1.050281495695035
 30
0.0
 11
257.9785002598188
 21
1.049172421625517
 31
0.0
  0
LINE
  5
246
330
17
100
AcDbEntity
  8
0
 62
8
100
AcDbLine
 10
258.0044623626005
 20
1.052740327010415
 30
0.0
 11
258.0050274637884
 21
1.053849399218197
 31
0.0
  0
LINE
  5
247
330
17
100
AcDbEntity
  8
0
 62
8
100
AcDbLine
 10
258.0044623626005
 20
1.050281495695035
 30
0.0
 11
258.0042676427075
 21
1.051510909490989
 31
0.0
  0
LINE
  5
248
330
17
100
AcDbEntity
  8
0
 62
8
100
AcDbLine
 10
257.97130313022
 20
1.051510909490989
 30
0.0
 11
257.971497850113
 21
1.052740327010415
 31
0.0
  0
LINE
  5
249
330
17
100
AcDbEntity
  8
0
 62
8
100
AcDbLine
 10
258.0116562389695
 20
1.060604570869291
 30
0.0
 11
257.9718714837069
 21
1.060604570869291
 31
0.0
  0
LINE
  5
24A
330
17
100
AcDbEntity
  8
0
 62
8
100
AcDbLine
 10
257.9661879460442
 20
1.054921032274396
 30
0.0
 11
257.9661879460442
 21
0.9781932901156871
 31
0.0
  0
LINE
  5
24B
330
17
100
AcDbEntity
  8
0
 62
8
100
AcDbLine
 10
257.9661879460442
 20
0.9611426780581133
 30
0.0
 11
257.9661879460442
 21
0.8162124951137776
 31
0.0
  0
LINE
  5
24C
330
17
100
AcDbEntity
  8
0
 62
8
100
AcDbLine
 10
257.9718714837069
 20
0.8105289583815284
 30
0.0
 11
258.0116562389695
 21
0.8105289583815284
 31
0.0
  0
LINE
  5
24D
330
17
100
AcDbEntity
  8
0
 62
8
100
AcDbLine
 10
258.0173397766326
 20
0.8162124951137776
 30
0.0
 11
258.0173397766326
 21
1.054921032274396
 31
0.0
  0
LINE
  5
24E
330
17
100
AcDbEntity
  8
0
 62
8
100
AcDbLine
 10
258.0173397766326
 20
1.054921032274396
 30
0.0
 11
258.0169071435563
 21
1.057096028091255
 31
0.0
  0
LINE
  5
24F
330
17
100
AcDbEntity
  8
0
 62
8
100
AcDbLine
 10
258.0169071435563
 20
1.057096028091255
 30
0.0
 11
258.0156751068786
 21
1.058939898321714
 31
0.0
  0
LINE
  5
250
330
17
100
AcDbEntity
  8
0
 62
8
100
AcDbLine
 10
258.0156751068786
 20
1.058939898321714
 30
0.0
 11
258.0138312347864
 21
1.060171935930757
 31
0.0
  0
LINE
  5
251
330
17
100
AcDbEntity
  8
0
 62
8
100
AcDbLine
 10
258.0138312347864
 20
1.060171935930757
 30
0.0
 11
258.0116562389695
 21
1.060604570869291
 31
0.0
  0
LINE
  5
252
330
17
100
AcDbEntity
  8
0
 62
8
100
AcDbLine
 10
257.971497850113
 20
1.052740327010415
 30
0.0
 11
257.9720629513009
 21
1.053849399218197
 31
0.0
  0
LINE
  5
253
330
17
100
AcDbEntity
  8
0
 62
8
100
AcDbLine
 10
257.9720629513009
 20
1.053849399218197
 30
0.0
 11
257.9729431158327
 21
1.054729564680801
 31
0.0
  0
LINE
  5
254
330
17
100
AcDbEntity
  8
0
 62
8
100
AcDbLine
 10
257.9729431158327
 20
1.054729564680801
 30
0.0
 11
257.9740521889708
 21
1.055294665868732
 31
0.0
  0
LINE
  5
255
330
17
100
AcDbEntity
  8
0
 62
8
100
AcDbLine
 10
257.9740521889708
 20
1.055294665868732
 30
0.0
 11
257.9752816055599
 21
1.055489386693043
 31
0.0
  0
LINE
  5
256
330
17
100
AcDbEntity
  8
0
 62
8
100
AcDbLine
 10
257.9752816055599
 20
1.055489386693043
 30
0.0
 11
257.9765110221489
 21
1.055294665868732
 31
0.0
  0
LINE
  5
257
330
17
100
AcDbEntity
  8
0
 62
8
100
AcDbLine
 10
257.9765110221489
 20
1.055294665868732
 30
0.0
 11
257.9776200952871
 21
1.054729564680801
 31
0.0
  0
LINE
  5
258
330
17
100
AcDbEntity
  8
0
 62
8
100
AcDbLine
 10
257.9776200952871
 20
1.054729564680801
 30
0.0
 11
257.9785002598188
 21
1.053849399218197
 31
0.0
  0
LINE
  5
259
330
17
100
AcDbEntity
  8
0
 62
8
100
AcDbLine
 10
257.9785002598188
 20
1.053849399218197
 30
0.0
 11
257.9790653610067
 21
1.052740327010415
 31
0.0
  0
LINE
  5
25A
330
17
100
AcDbEntity
  8
0
 62
8
100
AcDbLine
 10
257.9790653610067
 20
1.052740327010415
 30
0.0
 11
257.9792600808997
 21
1.051510909490989
 31
0.0
  0
LINE
  5
25B
330
17
100
AcDbEntity
  8
0
 62
8
100
AcDbLine
 10
257.9792600808997
 20
1.051510909490989
 30
0.0
 11
257.9790653610067
 21
1.050281495695035
 31
0.0
  0
LINE
  5
25C
330
17
100
AcDbEntity
  8
0
 62
8
100
AcDbLine
 10
257.9776200952871
 20
1.048292256162913
 30
0.0
 11
257.9765110221489
 21
1.047727154974982
 31
0.0
  0
LINE
  5
25D
330
17
100
AcDbEntity
  8
0
 62
8
100
AcDbLine
 10
257.9765110221489
 20
1.047727154974982
 30
0.0
 11
257.9752816055599
 21
1.047532434150671
 31
0.0
  0
LINE
  5
25E
330
17
100
AcDbEntity
  8
0
 62
8
100
AcDbLine
 10
257.9752816055599
 20
1.047532434150671
 30
0.0
 11
257.9740521889708
 21
1.047727154974982
 31
0.0
  0
LINE
  5
25F
330
17
100
AcDbEntity
  8
0
 62
8
100
AcDbLine
 10
257.9740521889708
 20
1.047727154974982
 30
0.0
 11
257.9729431158327
 21
1.048292256162913
 31
0.0
  0
LINE
  5
260
330
17
100
AcDbEntity
  8
0
 62
8
100
AcDbLine
 10
257.9729431158327
 20
1.048292256162913
 30
0.0
 11
257.9720629513009
 21
1.049172421625517
 31
0.0
  0
LINE
  5
261
330
17
100
AcDbEntity
  8
0
 62
8
100
AcDbLine
 10
257.9720629513009
 20
1.049172421625517
 30
0.0
 11
257.971497850113
 21
1.050281495695035
 31
0.0
  0
LINE
  5
262
330
17
100
AcDbEntity
  8
0
 62
8
100
AcDbLine
 10
258.0114647723064
 20
1.049172421625517
 30
0.0
 11
258.0105846077746
 21
1.048292256162913
 31
0.0
  0
LINE
  5
263
330
17
100
AcDbEntity
  8
0
 62
8
100
AcDbLine
 10
258.0105846077746
 20
1.048292256162913
 30
0.0
 11
258.0094755346364
 21
1.047727154974982
 31
0.0
  0
LINE
  5
264
330
17
100
AcDbEntity
  8
0
 62
8
100
AcDbLine
 10
258.0094755346364
 20
1.047727154974982
 30
0.0
 11
258.0082461180474
 21
1.047532434150671
 31
0.0
  0
LINE
  5
265
330
17
100
AcDbEntity
  8
0
 62
8
100
AcDbLine
 10
258.0082461180474
 20
1.047532434150671
 30
0.0
 11
258.0070167014584
 21
1.047727154974982
 31
0.0
  0
LINE
  5
266
330
17
100
AcDbEntity
  8
0
 62
8
100
AcDbLine
 10
258.0070167014584
 20
1.047727154974982
 30
0.0
 11
258.0059076283202
 21
1.048292256162913
 31
0.0
  0
LINE
  5
267
330
17
100
AcDbEntity
  8
0
 62
8
100
AcDbLine
 10
258.0059076283202
 20
1.048292256162913
 30
0.0
 11
258.0050274637884
 21
1.049172421625517
 31
0.0
  0
LINE
  5
268
330
17
100
AcDbEntity
  8
0
 62
8
100
AcDbLine
 10
258.0042676427075
 20
1.051510909490989
 30
0.0
 11
258.0044623626005
 21
1.052740327010415
 31
0.0
  0
LINE
  5
269
330
17
100
AcDbEntity
  8
0
 62
8
100
AcDbLine
 10
258.0050274637884
 20
1.053849399218197
 30
0.0
 11
258.0059076283202
 21
1.054729564680801
 31
0.0
  0
LINE
  5
26A
330
17
100
AcDbEntity
  8
0
 62
8
100
AcDbLine
 10
258.0070167014584
 20
1.055294665868732
 30
0.0
 11
258.0082461180474
 21
1.055489386693043
 31
0.0
  0
LINE
  5
26B
330
17
100
AcDbEntity
  8
0
 62
8
100
AcDbLine
 10
258.0082461180474
 20
1.055489386693043
 30
0.0
 11
258.0094755346364
 21
1.055294665868732
 31
0.0
  0
LINE
  5
26C
330
17
100
AcDbEntity
  8
0
 62
8
100
AcDbLine
 10
258.0094755346364
 20
1.055294665868732
 30
0.0
 11
258.0105846077746
 21
1.054729564680801
 31
0.0
  0
LINE
  5
26D
330
17
100
AcDbEntity
  8
0
 62
8
100
AcDbLine
 10
258.0105846077746
 20
1.054729564680801
 30
0.0
 11
258.0114647723064
 21
1.053849399218197
 31
0.0
  0
LINE
  5
26E
330
17
100
AcDbEntity
  8
0
 62
8
100
AcDbLine
 10
258.0114647723064
 20
1.053849399218197
 30
0.0
 11
258.0120298734943
 21
1.052740327010415
 31
0.0
  0
LINE
  5
26F
330
17
100
AcDbEntity
  8
0
 62
8
100
AcDbLine
 10
258.0120298734943
 20
1.052740327010415
 30
0.0
 11
258.0122245933873
 21
1.051510909490989
 31
0.0
  0
LINE
  5
270
330
17
100
AcDbEntity
  8
0
 62
8
100
AcDbLine
 10
258.0122245933873
 20
1.051510909490989
 30
0.0
 11
258.0120298734943
 21
1.050281495695035
 31
0.0
  0
LINE
  5
271
330
17
100
AcDbEntity
  8
0
 62
8
100
AcDbLine
 10
258.0120298734943
 20
1.050281495695035
 30
0.0
 11
258.0114647723064
 21
1.049172421625517
 31
0.0
  0
LINE
  5
272
330
17
100
AcDbEntity
  8
0
 62
8
100
AcDbLine
 10
258.0044623626005
 20
0.8183932022399496
 30
0.0
 11
258.0042676427075
 21
0.8196226160354491
 31
0.0
  0
LINE
  5
273
330
17
100
AcDbEntity
  8
0
 62
8
100
AcDbLine
 10
258.0042676427075
 20
0.8196226160354491
 30
0.0
 11
258.0044623626005
 21
0.8208520335557842
 31
0.0
  0
LINE
  5
274
330
17
100
AcDbEntity
  8
0
 62
8
100
AcDbLine
 10
258.0044623626005
 20
0.8208520335557842
 30
0.0
 11
258.0050274637884
 21
0.8219611057626572
 31
0.0
  0
LINE
  5
275
330
17
100
AcDbEntity
  8
0
 62
8
100
AcDbLine
 10
258.0050274637884
 20
0.8219611057626572
 30
0.0
 11
258.0059076283202
 21
0.822841271225716
 31
0.0
  0
LINE
  5
276
330
17
100
AcDbEntity
  8
0
 62
8
100
AcDbLine
 10
258.0059076283202
 20
0.822841271225716
 30
0.0
 11
258.0070167014584
 21
0.8234063705510017
 31
0.0
  0
LINE
  5
277
330
17
100
AcDbEntity
  8
0
 62
8
100
AcDbLine
 10
258.0070167014584
 20
0.8234063705510017
 30
0.0
 11
258.0082461180474
 21
0.823601093237503
 31
0.0
  0
LINE
  5
278
330
17
100
AcDbEntity
  8
0
 62
8
100
AcDbLine
 10
258.0082461180474
 20
0.823601093237503
 30
0.0
 11
258.0094755346364
 21
0.8234063705510017
 31
0.0
  0
LINE
  5
279
330
17
100
AcDbEntity
  8
0
 62
8
100
AcDbLine
 10
258.0094755346364
 20
0.8234063705510017
 30
0.0
 11
258.0105846077746
 21
0.822841271225716
 31
0.0
  0
LINE
  5
27A
330
17
100
AcDbEntity
  8
0
 62
8
100
AcDbLine
 10
258.0105846077746
 20
0.822841271225716
 30
0.0
 11
258.0114647723064
 21
0.8219611057626572
 31
0.0
  0
LINE
  5
27B
330
17
100
AcDbEntity
  8
0
 62
8
100
AcDbLine
 10
258.0114647723064
 20
0.8219611057626572
 30
0.0
 11
258.0120298734943
 21
0.8208520335557842
 31
0.0
  0
LINE
  5
27C
330
17
100
AcDbEntity
  8
0
 62
8
100
AcDbLine
 10
258.0120298734943
 20
0.8208520335557842
 30
0.0
 11
258.0122245933873
 21
0.8196226160354491
 31
0.0
  0
LINE
  5
27D
330
17
100
AcDbEntity
  8
0
 62
8
100
AcDbLine
 10
258.0122245933873
 20
0.8196226160354491
 30
0.0
 11
258.0120298734943
 21
0.8183932022399496
 31
0.0
  0
LINE
  5
27E
330
17
100
AcDbEntity
  8
0
 62
8
100
AcDbLine
 10
258.0120298734943
 20
0.8183932022399496
 30
0.0
 11
258.0114647723064
 21
0.8172841281708862
 31
0.0
  0
LINE
  5
27F
330
17
100
AcDbEntity
  8
0
 62
8
100
AcDbLine
 10
258.0114647723064
 20
0.8172841281708862
 30
0.0
 11
258.0105846077746
 21
0.8164039608451822
 31
0.0
  0
LINE
  5
280
330
17
100
AcDbEntity
  8
0
 62
8
100
AcDbLine
 10
258.0105846077746
 20
0.8164039608451822
 30
0.0
 11
258.0094755346364
 21
0.8158388615198965
 31
0.0
  0
LINE
  5
281
330
17
100
AcDbEntity
  8
0
 62
8
100
AcDbLine
 10
258.0094755346364
 20
0.8158388615198965
 30
0.0
 11
258.0082461180474
 21
0.8156441406960404
 31
0.0
  0
LINE
  5
282
330
17
100
AcDbEntity
  8
0
 62
8
100
AcDbLine
 10
258.0082461180474
 20
0.8156441406960404
 30
0.0
 11
258.0070167014584
 21
0.8158388615198965
 31
0.0
  0
LINE
  5
283
330
17
100
AcDbEntity
  8
0
 62
8
100
AcDbLine
 10
258.0070167014584
 20
0.8158388615198965
 30
0.0
 11
258.0059076283202
 21
0.8164039608451822
 31
0.0
  0
LINE
  5
284
330
17
100
AcDbEntity
  8
0
 62
8
100
AcDbLine
 10
258.0059076283202
 20
0.8164039608451822
 30
0.0
 11
258.0050274637884
 21
0.8172841281708862
 31
0.0
  0
LINE
  5
285
330
17
100
AcDbEntity
  8
0
 62
8
100
AcDbLine
 10
258.0050274637884
 20
0.8172841281708862
 30
0.0
 11
258.0044623626005
 21
0.8183932022399496
 31
0.0
  0
LINE
  5
286
330
17
100
AcDbEntity
  8
0
 62
8
100
AcDbLine
 10
257.9776200952871
 20
0.822841271225716
 30
0.0
 11
257.9785002598188
 21
0.8219611057626572
 31
0.0
  0
LINE
  5
287
330
17
100
AcDbEntity
  8
0
 62
8
100
AcDbLine
 10
257.9785002598188
 20
0.8219611057626572
 30
0.0
 11
257.9790653610067
 21
0.8208520335557842
 31
0.0
  0
LINE
  5
288
330
17
100
AcDbEntity
  8
0
 62
8
100
AcDbLine
 10
257.9790653610067
 20
0.8208520335557842
 30
0.0
 11
257.9792600808997
 21
0.8196226160354491
 31
0.0
  0
LINE
  5
289
330
17
100
AcDbEntity
  8
0
 62
8
100
AcDbLine
 10
257.9792600808997
 20
0.8196226160354491
 30
0.0
 11
257.9790653610067
 21
0.8183932022399496
 31
0.0
  0
LINE
  5
28A
330
17
100
AcDbEntity
  8
0
 62
8
100
AcDbLine
 10
257.9790653610067
 20
0.8183932022399496
 30
0.0
 11
257.9785002598188
 21
0.8172841281708862
 31
0.0
  0
LINE
  5
28B
330
17
100
AcDbEntity
  8
0
 62
8
100
AcDbLine
 10
257.9785002598188
 20
0.8172841281708862
 30
0.0
 11
257.9776200952871
 21
0.8164039608451822
 31
0.0
  0
LINE
  5
28C
330
17
100
AcDbEntity
  8
0
 62
8
100
AcDbLine
 10
257.9776200952871
 20
0.8164039608451822
 30
0.0
 11
257.9765110221489
 21
0.8158388615198965
 31
0.0
  0
LINE
  5
28D
330
17
100
AcDbEntity
  8
0
 62
8
100
AcDbLine
 10
257.9765110221489
 20
0.8158388615198965
 30
0.0
 11
257.9752816055599
 21
0.8156441406960404
 31
0.0
  0
LINE
  5
28E
330
17
100
AcDbEntity
  8
0
 62
8
100
AcDbLine
 10
257.9752816055599
 20
0.8156441406960404
 30
0.0
 11
257.9740521889708
 21
0.8158388615198965
 31
0.0
  0
LINE
  5
28F
330
17
100
AcDbEntity
  8
0
 62
8
100
AcDbLine
 10
257.9740521889708
 20
0.8158388615198965
 30
0.0
 11
257.9729431158327
 21
0.8164039608451822
 31
0.0
  0
LINE
  5
290
330
17
100
AcDbEntity
  8
0
 62
8
100
AcDbLine
 10
257.9729431158327
 20
0.8164039608451822
 30
0.0
 11
257.9720629513009
 21
0.8172841281708862
 31
0.0
  0
LINE
  5
291
330
17
100
AcDbEntity
  8
0
 62
8
100
AcDbLine
 10
257.9720629513009
 20
0.8172841281708862
 30
0.0
 11
257.971497850113
 21
0.8183932022399496
 31
0.0
  0
LINE
  5
292
330
17
100
AcDbEntity
  8
0
 62
8
100
AcDbLine
 10
257.971497850113
 20
0.8183932022399496
 30
0.0
 11
257.97130313022
 21
0.8196226160354491
 31
0.0
  0
LINE
  5
293
330
17
100
AcDbEntity
  8
0
 62
8
100
AcDbLine
 10
257.97130313022
 20
0.8196226160354491
 30
0.0
 11
257.971497850113
 21
0.8208520335557842
 31
0.0
  0
LINE
  5
294
330
17
100
AcDbEntity
  8
0
 62
8
100
AcDbLine
 10
257.971497850113
 20
0.8208520335557842
 30
0.0
 11
257.9720629513009
 21
0.8219611057626572
 31
0.0
  0
LINE
  5
295
330
17
100
AcDbEntity
  8
0
 62
8
100
AcDbLine
 10
257.9720629513009
 20
0.8219611057626572
 30
0.0
 11
257.9729431158327
 21
0.822841271225716
 31
0.0
  0
LINE
  5
296
330
17
100
AcDbEntity
  8
0
 62
8
100
AcDbLine
 10
257.9729431158327
 20
0.822841271225716
 30
0.0
 11
257.9740521889708
 21
0.8234063705510017
 31
0.0
  0
LINE
  5
297
330
17
100
AcDbEntity
  8
0
 62
8
100
AcDbLine
 10
257.9740521889708
 20
0.8234063705510017
 30
0.0
 11
257.9752816055599
 21
0.823601093237503
 31
0.0
  0
LINE
  5
298
330
17
100
AcDbEntity
  8
0
 62
8
100
AcDbLine
 10
257.9752816055599
 20
0.823601093237503
 30
0.0
 11
257.9765110221489
 21
0.8234063705510017
 31
0.0
  0
LINE
  5
299
330
17
100
AcDbEntity
  8
0
 62
8
100
AcDbLine
 10
257.9765110221489
 20
0.8234063705510017
 30
0.0
 11
257.9776200952871
 21
0.822841271225716
 31
0.0
  0
LINE
  5
29A
330
17
100
AcDbEntity
  8
0
 62
8
100
AcDbLine
 10
257.999871908458
 20
0.96703352023329
 30
0.0
 11
257.9986609786717
 21
0.964656935868934
 31
0.0
  0
LINE
  5
29B
330
17
100
AcDbEntity
  8
0
 62
8
100
AcDbLine
 10
258.0002891664364
 20
0.9696679850173133
 30
0.0
 11
257.999871908458
 21
0.96703352023329
 31
0.0
  0
LINE
  5
29C
330
17
100
AcDbEntity
  8
0
 62
8
100
AcDbLine
 10
257.999871908458
 20
0.9723024460778653
 30
0.0
 11
258.0002891664364
 21
0.9696679850173133
 31
0.0
  0
LINE
  5
29D
330
17
100
AcDbEntity
  8
0
 62
8
100
AcDbLine
 10
257.9986609786717
 20
0.9746790323048664
 30
0.0
 11
257.999871908458
 21
0.9723024460778653
 31
0.0
  0
LINE
  5
29E
330
17
100
AcDbEntity
  8
0
 62
8
100
AcDbLine
 10
257.9967749104873
 20
0.97656509955792
 30
0.0
 11
257.9986609786717
 21
0.9746790323048664
 31
0.0
  0
LINE
  5
29F
330
17
100
AcDbEntity
  8
0
 62
8
100
AcDbLine
 10
257.9943983261224
 20
0.977776029344259
 30
0.0
 11
257.9967749104873
 21
0.97656509955792
 31
0.0
  0
LINE
  5
2A0
330
17
100
AcDbEntity
  8
0
 62
8
100
AcDbLine
 10
257.9917638622693
 20
0.9781932901156871
 30
0.0
 11
257.9943983261224
 21
0.977776029344259
 31
0.0
  0
LINE
  5
2A1
330
17
100
AcDbEntity
  8
0
 62
8
100
AcDbLine
 10
257.9943983261224
 20
0.9615599351047059
 30
0.0
 11
257.9917638622693
 21
0.9611426780581133
 31
0.0
  0
LINE
  5
2A2
330
17
100
AcDbEntity
  8
0
 62
8
100
AcDbLine
 10
257.9967749104873
 20
0.9627708667527805
 30
0.0
 11
257.9943983261224
 21
0.9615599351047059
 31
0.0
  0
LINE
  5
2A3
330
17
100
AcDbEntity
  8
0
 62
8
100
AcDbLine
 10
257.9986609786717
 20
0.964656935868934
 30
0.0
 11
257.9967749104873
 21
0.9627708667527805
 31
0.0
  0
LINE
  5
2A4
330
17
100
AcDbEntity
  8
0
 62
8
100
AcDbLine
 10
257.8678627639307
 20
0.9781932901156871
 30
0.0
 11
257.8667260560256
 21
0.9759362466012682
 31
0.0
  0
LINE
  5
2A5
330
17
100
AcDbEntity
  8
0
 62
8
100
AcDbLine
 10
257.8678627639307
 20
0.9611426780581133
 30
0.0
 11
257.8667260560256
 21
0.9633997197094323
 31
0.0
  0
LINE
  5
2A6
330
17
100
AcDbEntity
  8
0
 62
8
100
AcDbLine
 10
258.0706666021075
 20
-0.0587954730038654
 30
0.0
 11
258.0706666021075
 21
-0.093471239565897
 31
0.0
  0
LINE
  5
2A7
330
17
100
AcDbEntity
  8
0
 62
8
100
AcDbLine
 10
257.2694572302786
 20
-0.0500099690710521
 30
0.0
 11
258.0706666021075
 21
-0.0500099690710521
 31
0.0
  0
LINE
  5
2A8
330
17
100
AcDbEntity
  8
0
 62
8
100
AcDbLine
 10
257.2694572302786
 20
1.080796535257523
 30
0.0
 11
258.0706666021075
 21
1.080796531533142
 31
0.0
  0
LINE
  5
2A9
330
17
100
AcDbEntity
  8
0
 62
8
100
AcDbLine
 10
257.2694572312099
 20
0.7886477462426776
 30
0.0
 11
258.0706666021075
 21
0.788647748104868
 31
0.0
  0
LINE
  5
2AA
330
17
100
AcDbEntity
  8
0
 62
8
100
AcDbLine
 10
257.8678627639307
 20
0.9781932901156871
 30
0.0
 11
257.9661879460442
 21
0.9781932901156871
 31
0.0
  0
LINE
  5
2AB
330
17
100
AcDbEntity
  8
0
 62
8
100
AcDbLine
 10
257.8678627639307
 20
0.9611426780581133
 30
0.0
 11
257.9661879460442
 21
0.9611426780581133
 31
0.0
  0
LINE
  5
2AC
330
17
100
AcDbEntity
  8
0
 62
8
100
AcDbLine
 10
258.0706666011762
 20
1.950014947089275
 30
0.0
 11
258.0706666021075
 21
1.080796531533142
 31
0.0
  0
LINE
  5
2AD
330
17
100
AcDbEntity
  8
0
 62
8
100
AcDbLine
 10
258.0706666021075
 20
1.080796531533142
 30
0.0
 11
258.0706666021075
 21
0.788647748104868
 31
0.0
  0
LINE
  5
2AE
330
17
100
AcDbEntity
  8
0
 62
8
100
AcDbLine
 10
258.0706666021075
 20
-0.0587954730038654
 30
0.0
 11
258.0706666021075
 21
0.788647748104868
 31
0.0
  0
LINE
  5
2AF
330
17
100
AcDbEntity
  8
0
 62
8
100
AcDbLine
 10
257.209472180161
 20
2.009999999999909
 30
0.0
 11
258.1344721801612
 21
2.009999999999909
 31
0.0
  0
LINE
  5
2B0
330
17
100
AcDbEntity
  8
0
 62
8
100
AcDbLine
 10
258.0706666021075
 20
-0.093471239565897
 30
0.0
 11
258.1344721801612
 21
-0.093471239565897
 31
0.0
  0
LINE
  5
2B1
330
17
100
AcDbEntity
  8
0
 62
8
100
AcDbLine
 10
257.9917638622693
 20
0.9781932901156871
 30
0.0
 11
257.9661879460442
 21
0.9781932901156871
 31
0.0
  0
LINE
  5
2B2
330
17
100
AcDbEntity
  8
0
 62
8
100
AcDbLine
 10
257.9917638622693
 20
0.9611426780581133
 30
0.0
 11
257.9661879460442
 21
0.9611426780581133
 31
0.0
  0
LINE
  5
2B3
330
17
100
AcDbEntity
  8
0
 62
8
100
AcDbLine
 10
257.8667260560256
 20
0.9759362466012682
 30
0.0
 11
257.8667260560256
 21
0.9633997197094323
 31
0.0
  0
LINE
  5
2B4
330
17
100
AcDbEntity
  8
0
 62
8
100
AcDbLine
 10
258.1336425766382
 20
0.969667981293842
 30
0.0
 11
257.9151159127065
 21
0.969667981293842
 31
0.0
  0
LWPOLYLINE
  5
2B5
330
17
100
AcDbEntity
  8
0
 62
8
100
AcDbPolyline
 90
3
 70
0
 10
257.2694572293482
 20
1.950014948951011
 10
258.0706666021075
 20
0.969667981293842
 10
257.2694572302786
 20
-0.0500099690710521
  0
LINE
  5
2B6
330
17
100
AcDbEntity
  8
0
 62
8
100
AcDbLine
 10
258.1353017836838
 20
0.969667981293842
 30
0.0
 11
258.3538284476154
 21
0.969667981293842
 31
0.0
  0
LWPOLYLINE
  5
2B7
330
17
100
AcDbEntity
  8
0
 62
8
100
AcDbPolyline
 90
3
 70
0
 10
258.9994871282012
 20
1.950014948951011
 10
258.1982777582149
 20
0.969667981293842
 10
258.999487129132
 20
-0.0500099690710521
  0
LWPOLYLINE
  5
2B8
330
17
100
AcDbEntity
  8
0
 62
8
100
AcDbPolyline
 90
4
 70
1
 10
257.2694572312099
 20
2.790014948950702
 10
258.9994871291116
 20
2.790014948950702
 10
258.9994871291116
 20
2.069985051048806
 10
257.2694572312099
 20
2.069985051048806
  0
LINE
  5
2B9
330
17
100
AcDbEntity
  8
0
 62
8
100
AcDbLine
 10
254.9841913461875
 20
2.849999999999599
 30
0.0
 11
253.134191346188
 21
2.849999999999599
 31
0.0
  0
LINE
  5
2BA
330
17
100
AcDbEntity
  8
0
 62
8
100
AcDbLine
 10
254.9841913461875
 20
-0.0900000000004546
 30
0.0
 11
254.9841913461875
 21
2.849999999999599
 31
0.0
  0
LINE
  5
2BB
330
17
100
AcDbEntity
  8
0
 62
8
100
AcDbLine
 10
253.134191346188
 20
-0.0900000000004546
 30
0.0
 11
253.134191346188
 21
2.849999999999599
 31
0.0
  0
LINE
  5
2BC
330
17
100
AcDbEntity
  8
0
 62
8
100
AcDbLine
 10
254.1229969242419
 20
1.950014948951011
 30
0.0
 11
254.924206295159
 21
1.950014948951011
 31
0.0
  0
LINE
  5
2BD
330
17
100
AcDbEntity
  8
0
 62
8
100
AcDbLine
 10
254.0591913461882
 20
-0.093471239565897
 30
0.0
 11
254.0591913461882
 21
2.009999999999909
 31
0.0
  0
LINE
  5
2BE
330
17
100
AcDbEntity
  8
0
 62
8
100
AcDbLine
 10
254.924206295159
 20
-0.0885834519061426
 30
0.0
 11
254.9242062942282
 21
1.950014948951011
 31
0.0
  0
LINE
  5
2BF
330
17
100
AcDbEntity
  8
0
 62
8
100
AcDbLine
 10
254.9841913462079
 20
2.009999999999909
 30
0.0
 11
254.9841913471388
 21
-0.0900000000004546
 31
0.0
  0
LINE
  5
2C0
330
17
100
AcDbEntity
  8
0
 62
8
100
AcDbLine
 10
254.1229969242419
 20
-0.093471239565897
 30
0.0
 11
254.9841913471388
 21
-0.0900000000004546
 31
0.0
  0
LINE
  5
2C1
330
17
100
AcDbEntity
  8
0
 62
8
100
AcDbLine
 10
254.2270429453671
 20
1.057096028091255
 30
0.0
 11
254.2258109096207
 21
1.058939898321714
 31
0.0
  0
LINE
  5
2C2
330
17
100
AcDbEntity
  8
0
 62
8
100
AcDbLine
 10
254.1877558970979
 20
1.054729564680801
 30
0.0
 11
254.1866468248906
 21
1.055294665868732
 31
0.0
  0
LINE
  5
2C3
330
17
100
AcDbEntity
  8
0
 62
8
100
AcDbLine
 10
254.2221656753046
 20
1.050281495695035
 30
0.0
 11
254.2223603951981
 21
1.051510909490989
 31
0.0
  0
LINE
  5
2C4
330
17
100
AcDbEntity
  8
0
 62
8
100
AcDbLine
 10
254.2258109096207
 20
1.058939898321714
 30
0.0
 11
254.2239670365967
 21
1.060171935930757
 31
0.0
  0
LINE
  5
2C5
330
17
100
AcDbEntity
  8
0
 62
8
100
AcDbLine
 10
254.2239670365967
 20
1.060171935930757
 30
0.0
 11
254.2217920417112
 21
1.060604570869291
 31
0.0
  0
LINE
  5
2C6
330
17
100
AcDbEntity
  8
0
 62
8
100
AcDbLine
 10
254.1763237487854
 20
0.8162124951137776
 30
0.0
 11
254.1767563827931
 21
0.8140375011586549
 31
0.0
  0
LINE
  5
2C7
330
17
100
AcDbEntity
  8
0
 62
8
100
AcDbLine
 10
254.1767563827931
 20
0.8140375011586549
 30
0.0
 11
254.177988418539
 21
0.8121936272042695
 31
0.0
  0
LINE
  5
2C8
330
17
100
AcDbEntity
  8
0
 62
8
100
AcDbLine
 10
254.177988418539
 20
0.8121936272042695
 30
0.0
 11
254.1798322906317
 21
0.8109615914578718
 31
0.0
  0
LINE
  5
2C9
330
17
100
AcDbEntity
  8
0
 62
8
100
AcDbLine
 10
254.1798322906317
 20
0.8109615914578718
 30
0.0
 11
254.182007286449
 21
0.8105289583815284
 31
0.0
  0
LINE
  5
2CA
330
17
100
AcDbEntity
  8
0
 62
8
100
AcDbLine
 10
254.2239670365967
 20
0.8109615914578718
 30
0.0
 11
254.2217920417112
 21
0.8105289583815284
 31
0.0
  0
LINE
  5
2CB
330
17
100
AcDbEntity
  8
0
 62
8
100
AcDbLine
 10
254.2258109096207
 20
0.8121936272042695
 30
0.0
 11
254.2239670365967
 21
0.8109615914578718
 31
0.0
  0
LINE
  5
2CC
330
17
100
AcDbEntity
  8
0
 62
8
100
AcDbLine
 10
254.2270429453671
 20
0.8140375011586549
 30
0.0
 11
254.2258109096207
 21
0.8121936272042695
 31
0.0
  0
LINE
  5
2CD
330
17
100
AcDbEntity
  8
0
 62
8
100
AcDbLine
 10
254.2274755793743
 20
0.8162124951137776
 30
0.0
 11
254.2270429453671
 21
0.8140375011586549
 31
0.0
  0
LINE
  5
2CE
330
17
100
AcDbEntity
  8
0
 62
8
100
AcDbLine
 10
254.2274755793743
 20
1.054921032274396
 30
0.0
 11
254.2270429453671
 21
1.057096028091255
 31
0.0
  0
LINE
  5
2CF
330
17
100
AcDbEntity
  8
0
 62
8
100
AcDbLine
 10
254.2151632655992
 20
1.049172421625517
 30
0.0
 11
254.216043430131
 21
1.048292256162913
 31
0.0
  0
LINE
  5
2D0
330
17
100
AcDbEntity
  8
0
 62
8
100
AcDbLine
 10
254.1886360625609
 20
1.049172421625517
 30
0.0
 11
254.1892011628171
 21
1.050281495695035
 31
0.0
  0
LINE
  5
2D1
330
17
100
AcDbEntity
  8
0
 62
8
100
AcDbLine
 10
254.2145981653426
 20
1.050281495695035
 30
0.0
 11
254.2151632655992
 21
1.049172421625517
 31
0.0
  0
LINE
  5
2D2
330
17
100
AcDbEntity
  8
0
 62
8
100
AcDbLine
 10
254.1892011628171
 20
1.052740327010415
 30
0.0
 11
254.1886360625609
 21
1.053849399218197
 31
0.0
  0
LINE
  5
2D3
330
17
100
AcDbEntity
  8
0
 62
8
100
AcDbLine
 10
254.1892011628171
 20
1.050281495695035
 30
0.0
 11
254.1893958827105
 21
1.051510909490989
 31
0.0
  0
LINE
  5
2D4
330
17
100
AcDbEntity
  8
0
 62
8
100
AcDbLine
 10
254.2223603951981
 20
1.051510909490989
 30
0.0
 11
254.2221656753046
 21
1.052740327010415
 31
0.0
  0
LINE
  5
2D5
330
17
100
AcDbEntity
  8
0
 62
8
100
AcDbLine
 10
254.182007286449
 20
1.060604570869291
 30
0.0
 11
254.2217920417112
 21
1.060604570869291
 31
0.0
  0
LINE
  5
2D6
330
17
100
AcDbEntity
  8
0
 62
8
100
AcDbLine
 10
254.2274755793743
 20
1.054921032274396
 30
0.0
 11
254.2274755793743
 21
0.9781932901156871
 31
0.0
  0
LINE
  5
2D7
330
17
100
AcDbEntity
  8
0
 62
8
100
AcDbLine
 10
254.2274755793743
 20
0.9611426780581133
 30
0.0
 11
254.2274755793743
 21
0.8162124951137776
 31
0.0
  0
LINE
  5
2D8
330
17
100
AcDbEntity
  8
0
 62
8
100
AcDbLine
 10
254.2217920417112
 20
0.8105289583815284
 30
0.0
 11
254.182007286449
 21
0.8105289583815284
 31
0.0
  0
LINE
  5
2D9
330
17
100
AcDbEntity
  8
0
 62
8
100
AcDbLine
 10
254.1763237487854
 20
0.8162124951137776
 30
0.0
 11
254.1763237487854
 21
1.054921032274396
 31
0.0
  0
LINE
  5
2DA
330
17
100
AcDbEntity
  8
0
 62
8
100
AcDbLine
 10
254.1763237487854
 20
1.054921032274396
 30
0.0
 11
254.1767563827931
 21
1.057096028091255
 31
0.0
  0
LINE
  5
2DB
330
17
100
AcDbEntity
  8
0
 62
8
100
AcDbLine
 10
254.1767563827931
 20
1.057096028091255
 30
0.0
 11
254.177988418539
 21
1.058939898321714
 31
0.0
  0
LINE
  5
2DC
330
17
100
AcDbEntity
  8
0
 62
8
100
AcDbLine
 10
254.177988418539
 20
1.058939898321714
 30
0.0
 11
254.1798322906317
 21
1.060171935930757
 31
0.0
  0
LINE
  5
2DD
330
17
100
AcDbEntity
  8
0
 62
8
100
AcDbLine
 10
254.1798322906317
 20
1.060171935930757
 30
0.0
 11
254.182007286449
 21
1.060604570869291
 31
0.0
  0
LINE
  5
2DE
330
17
100
AcDbEntity
  8
0
 62
8
100
AcDbLine
 10
254.2221656753046
 20
1.052740327010415
 30
0.0
 11
254.2216005741171
 21
1.053849399218197
 31
0.0
  0
LINE
  5
2DF
330
17
100
AcDbEntity
  8
0
 62
8
100
AcDbLine
 10
254.2216005741171
 20
1.053849399218197
 30
0.0
 11
254.2207204095854
 21
1.054729564680801
 31
0.0
  0
LINE
  5
2E0
330
17
100
AcDbEntity
  8
0
 62
8
100
AcDbLine
 10
254.2207204095854
 20
1.054729564680801
 30
0.0
 11
254.2196113373781
 21
1.055294665868732
 31
0.0
  0
LINE
  5
2E1
330
17
100
AcDbEntity
  8
0
 62
8
100
AcDbLine
 10
254.2196113373781
 20
1.055294665868732
 30
0.0
 11
254.2183819198577
 21
1.055489386693043
 31
0.0
  0
LINE
  5
2E2
330
17
100
AcDbEntity
  8
0
 62
8
100
AcDbLine
 10
254.2183819198577
 20
1.055489386693043
 30
0.0
 11
254.2171525032687
 21
1.055294665868732
 31
0.0
  0
LINE
  5
2E3
330
17
100
AcDbEntity
  8
0
 62
8
100
AcDbLine
 10
254.2171525032687
 20
1.055294665868732
 30
0.0
 11
254.216043430131
 21
1.054729564680801
 31
0.0
  0
LINE
  5
2E4
330
17
100
AcDbEntity
  8
0
 62
8
100
AcDbLine
 10
254.216043430131
 20
1.054729564680801
 30
0.0
 11
254.2151632655992
 21
1.053849399218197
 31
0.0
  0
LINE
  5
2E5
330
17
100
AcDbEntity
  8
0
 62
8
100
AcDbLine
 10
254.2151632655992
 20
1.053849399218197
 30
0.0
 11
254.2145981653426
 21
1.052740327010415
 31
0.0
  0
LINE
  5
2E6
330
17
100
AcDbEntity
  8
0
 62
8
100
AcDbLine
 10
254.2145981653426
 20
1.052740327010415
 30
0.0
 11
254.2144034445179
 21
1.051510909490989
 31
0.0
  0
LINE
  5
2E7
330
17
100
AcDbEntity
  8
0
 62
8
100
AcDbLine
 10
254.2144034445179
 20
1.051510909490989
 30
0.0
 11
254.2145981653426
 21
1.050281495695035
 31
0.0
  0
LINE
  5
2E8
330
17
100
AcDbEntity
  8
0
 62
8
100
AcDbLine
 10
254.216043430131
 20
1.048292256162913
 30
0.0
 11
254.2171525032687
 21
1.047727154974982
 31
0.0
  0
LINE
  5
2E9
330
17
100
AcDbEntity
  8
0
 62
8
100
AcDbLine
 10
254.2171525032687
 20
1.047727154974982
 30
0.0
 11
254.2183819198577
 21
1.047532434150671
 31
0.0
  0
LINE
  5
2EA
330
17
100
AcDbEntity
  8
0
 62
8
100
AcDbLine
 10
254.2183819198577
 20
1.047532434150671
 30
0.0
 11
254.2196113373781
 21
1.047727154974982
 31
0.0
  0
LINE
  5
2EB
330
17
100
AcDbEntity
  8
0
 62
8
100
AcDbLine
 10
254.2196113373781
 20
1.047727154974982
 30
0.0
 11
254.2207204095854
 21
1.048292256162913
 31
0.0
  0
LINE
  5
2EC
330
17
100
AcDbEntity
  8
0
 62
8
100
AcDbLine
 10
254.2207204095854
 20
1.048292256162913
 30
0.0
 11
254.2216005741171
 21
1.049172421625517
 31
0.0
  0
LINE
  5
2ED
330
17
100
AcDbEntity
  8
0
 62
8
100
AcDbLine
 10
254.2216005741171
 20
1.049172421625517
 30
0.0
 11
254.2221656753046
 21
1.050281495695035
 31
0.0
  0
LINE
  5
2EE
330
17
100
AcDbEntity
  8
0
 62
8
100
AcDbLine
 10
254.1821987531117
 20
1.049172421625517
 30
0.0
 11
254.1830789176434
 21
1.048292256162913
 31
0.0
  0
LINE
  5
2EF
330
17
100
AcDbEntity
  8
0
 62
8
100
AcDbLine
 10
254.1830789176434
 20
1.048292256162913
 30
0.0
 11
254.1841879907817
 21
1.047727154974982
 31
0.0
  0
LINE
  5
2F0
330
17
100
AcDbEntity
  8
0
 62
8
100
AcDbLine
 10
254.1841879907817
 20
1.047727154974982
 30
0.0
 11
254.1854174073707
 21
1.047532434150671
 31
0.0
  0
LINE
  5
2F1
330
17
100
AcDbEntity
  8
0
 62
8
100
AcDbLine
 10
254.1854174073707
 20
1.047532434150671
 30
0.0
 11
254.1866468248906
 21
1.047727154974982
 31
0.0
  0
LINE
  5
2F2
330
17
100
AcDbEntity
  8
0
 62
8
100
AcDbLine
 10
254.1866468248906
 20
1.047727154974982
 30
0.0
 11
254.1877558970979
 21
1.048292256162913
 31
0.0
  0
LINE
  5
2F3
330
17
100
AcDbEntity
  8
0
 62
8
100
AcDbLine
 10
254.1877558970979
 20
1.048292256162913
 30
0.0
 11
254.1886360625609
 21
1.049172421625517
 31
0.0
  0
LINE
  5
2F4
330
17
100
AcDbEntity
  8
0
 62
8
100
AcDbLine
 10
254.1893958827105
 20
1.051510909490989
 30
0.0
 11
254.1892011628171
 21
1.052740327010415
 31
0.0
  0
LINE
  5
2F5
330
17
100
AcDbEntity
  8
0
 62
8
100
AcDbLine
 10
254.1886360625609
 20
1.053849399218197
 30
0.0
 11
254.1877558970979
 21
1.054729564680801
 31
0.0
  0
LINE
  5
2F6
330
17
100
AcDbEntity
  8
0
 62
8
100
AcDbLine
 10
254.1866468248906
 20
1.055294665868732
 30
0.0
 11
254.1854174073707
 21
1.055489386693043
 31
0.0
  0
LINE
  5
2F7
330
17
100
AcDbEntity
  8
0
 62
8
100
AcDbLine
 10
254.1854174073707
 20
1.055489386693043
 30
0.0
 11
254.1841879907817
 21
1.055294665868732
 31
0.0
  0
LINE
  5
2F8
330
17
100
AcDbEntity
  8
0
 62
8
100
AcDbLine
 10
254.1841879907817
 20
1.055294665868732
 30
0.0
 11
254.1830789176434
 21
1.054729564680801
 31
0.0
  0
LINE
  5
2F9
330
17
100
AcDbEntity
  8
0
 62
8
100
AcDbLine
 10
254.1830789176434
 20
1.054729564680801
 30
0.0
 11
254.1821987531117
 21
1.053849399218197
 31
0.0
  0
LINE
  5
2FA
330
17
100
AcDbEntity
  8
0
 62
8
100
AcDbLine
 10
254.1821987531117
 20
1.053849399218197
 30
0.0
 11
254.1816336528551
 21
1.052740327010415
 31
0.0
  0
LINE
  5
2FB
330
17
100
AcDbEntity
  8
0
 62
8
100
AcDbLine
 10
254.1816336528551
 20
1.052740327010415
 30
0.0
 11
254.1814389320304
 21
1.051510909490989
 31
0.0
  0
LINE
  5
2FC
330
17
100
AcDbEntity
  8
0
 62
8
100
AcDbLine
 10
254.1814389320304
 20
1.051510909490989
 30
0.0
 11
254.1816336528551
 21
1.050281495695035
 31
0.0
  0
LINE
  5
2FD
330
17
100
AcDbEntity
  8
0
 62
8
100
AcDbLine
 10
254.1816336528551
 20
1.050281495695035
 30
0.0
 11
254.1821987531117
 21
1.049172421625517
 31
0.0
  0
LINE
  5
2FE
330
17
100
AcDbEntity
  8
0
 62
8
100
AcDbLine
 10
254.1892011628171
 20
0.8183932022399496
 30
0.0
 11
254.1893958827105
 21
0.8196226160354491
 31
0.0
  0
LINE
  5
2FF
330
17
100
AcDbEntity
  8
0
 62
8
100
AcDbLine
 10
254.1893958827105
 20
0.8196226160354491
 30
0.0
 11
254.1892011628171
 21
0.8208520335557842
 31
0.0
  0
LINE
  5
300
330
17
100
AcDbEntity
  8
0
 62
8
100
AcDbLine
 10
254.1892011628171
 20
0.8208520335557842
 30
0.0
 11
254.1886360625609
 21
0.8219611057626572
 31
0.0
  0
LINE
  5
301
330
17
100
AcDbEntity
  8
0
 62
8
100
AcDbLine
 10
254.1886360625609
 20
0.8219611057626572
 30
0.0
 11
254.1877558970979
 21
0.822841271225716
 31
0.0
  0
LINE
  5
302
330
17
100
AcDbEntity
  8
0
 62
8
100
AcDbLine
 10
254.1877558970979
 20
0.822841271225716
 30
0.0
 11
254.1866468248906
 21
0.8234063705510017
 31
0.0
  0
LINE
  5
303
330
17
100
AcDbEntity
  8
0
 62
8
100
AcDbLine
 10
254.1866468248906
 20
0.8234063705510017
 30
0.0
 11
254.1854174073707
 21
0.823601093237503
 31
0.0
  0
LINE
  5
304
330
17
100
AcDbEntity
  8
0
 62
8
100
AcDbLine
 10
254.1854174073707
 20
0.823601093237503
 30
0.0
 11
254.1841879907817
 21
0.8234063705510017
 31
0.0
  0
LINE
  5
305
330
17
100
AcDbEntity
  8
0
 62
8
100
AcDbLine
 10
254.1841879907817
 20
0.8234063705510017
 30
0.0
 11
254.1830789176434
 21
0.822841271225716
 31
0.0
  0
LINE
  5
306
330
17
100
AcDbEntity
  8
0
 62
8
100
AcDbLine
 10
254.1830789176434
 20
0.822841271225716
 30
0.0
 11
254.1821987531117
 21
0.8219611057626572
 31
0.0
  0
LINE
  5
307
330
17
100
AcDbEntity
  8
0
 62
8
100
AcDbLine
 10
254.1821987531117
 20
0.8219611057626572
 30
0.0
 11
254.1816336528551
 21
0.8208520335557842
 31
0.0
  0
LINE
  5
308
330
17
100
AcDbEntity
  8
0
 62
8
100
AcDbLine
 10
254.1816336528551
 20
0.8208520335557842
 30
0.0
 11
254.1814389320304
 21
0.8196226160354491
 31
0.0
  0
LINE
  5
309
330
17
100
AcDbEntity
  8
0
 62
8
100
AcDbLine
 10
254.1814389320304
 20
0.8196226160354491
 30
0.0
 11
254.1816336528551
 21
0.8183932022399496
 31
0.0
  0
LINE
  5
30A
330
17
100
AcDbEntity
  8
0
 62
8
100
AcDbLine
 10
254.1816336528551
 20
0.8183932022399496
 30
0.0
 11
254.1821987531117
 21
0.8172841281708862
 31
0.0
  0
LINE
  5
30B
330
17
100
AcDbEntity
  8
0
 62
8
100
AcDbLine
 10
254.1821987531117
 20
0.8172841281708862
 30
0.0
 11
254.1830789176434
 21
0.8164039608451822
 31
0.0
  0
LINE
  5
30C
330
17
100
AcDbEntity
  8
0
 62
8
100
AcDbLine
 10
254.1830789176434
 20
0.8164039608451822
 30
0.0
 11
254.1841879907817
 21
0.8158388615198965
 31
0.0
  0
LINE
  5
30D
330
17
100
AcDbEntity
  8
0
 62
8
100
AcDbLine
 10
254.1841879907817
 20
0.8158388615198965
 30
0.0
 11
254.1854174073707
 21
0.8156441406960404
 31
0.0
  0
LINE
  5
30E
330
17
100
AcDbEntity
  8
0
 62
8
100
AcDbLine
 10
254.1854174073707
 20
0.8156441406960404
 30
0.0
 11
254.1866468248906
 21
0.8158388615198965
 31
0.0
  0
LINE
  5
30F
330
17
100
AcDbEntity
  8
0
 62
8
100
AcDbLine
 10
254.1866468248906
 20
0.8158388615198965
 30
0.0
 11
254.1877558970979
 21
0.8164039608451822
 31
0.0
  0
LINE
  5
310
330
17
100
AcDbEntity
  8
0
 62
8
100
AcDbLine
 10
254.1877558970979
 20
0.8164039608451822
 30
0.0
 11
254.1886360625609
 21
0.8172841281708862
 31
0.0
  0
LINE
  5
311
330
17
100
AcDbEntity
  8
0
 62
8
100
AcDbLine
 10
254.1886360625609
 20
0.8172841281708862
 30
0.0
 11
254.1892011628171
 21
0.8183932022399496
 31
0.0
  0
LINE
  5
312
330
17
100
AcDbEntity
  8
0
 62
8
100
AcDbLine
 10
254.216043430131
 20
0.822841271225716
 30
0.0
 11
254.2151632655992
 21
0.8219611057626572
 31
0.0
  0
LINE
  5
313
330
17
100
AcDbEntity
  8
0
 62
8
100
AcDbLine
 10
254.2151632655992
 20
0.8219611057626572
 30
0.0
 11
254.2145981653426
 21
0.8208520335557842
 31
0.0
  0
LINE
  5
314
330
17
100
AcDbEntity
  8
0
 62
8
100
AcDbLine
 10
254.2145981653426
 20
0.8208520335557842
 30
0.0
 11
254.2144034445179
 21
0.8196226160354491
 31
0.0
  0
LINE
  5
315
330
17
100
AcDbEntity
  8
0
 62
8
100
AcDbLine
 10
254.2144034445179
 20
0.8196226160354491
 30
0.0
 11
254.2145981653426
 21
0.8183932022399496
 31
0.0
  0
LINE
  5
316
330
17
100
AcDbEntity
  8
0
 62
8
100
AcDbLine
 10
254.2145981653426
 20
0.8183932022399496
 30
0.0
 11
254.2151632655992
 21
0.8172841281708862
 31
0.0
  0
LINE
  5
317
330
17
100
AcDbEntity
  8
0
 62
8
100
AcDbLine
 10
254.2151632655992
 20
0.8172841281708862
 30
0.0
 11
254.216043430131
 21
0.8164039608451822
 31
0.0
  0
LINE
  5
318
330
17
100
AcDbEntity
  8
0
 62
8
100
AcDbLine
 10
254.216043430131
 20
0.8164039608451822
 30
0.0
 11
254.2171525032687
 21
0.8158388615198965
 31
0.0
  0
LINE
  5
319
330
17
100
AcDbEntity
  8
0
 62
8
100
AcDbLine
 10
254.2171525032687
 20
0.8158388615198965
 30
0.0
 11
254.2183819198577
 21
0.8156441406960404
 31
0.0
  0
LINE
  5
31A
330
17
100
AcDbEntity
  8
0
 62
8
100
AcDbLine
 10
254.2183819198577
 20
0.8156441406960404
 30
0.0
 11
254.2196113373781
 21
0.8158388615198965
 31
0.0
  0
LINE
  5
31B
330
17
100
AcDbEntity
  8
0
 62
8
100
AcDbLine
 10
254.2196113373781
 20
0.8158388615198965
 30
0.0
 11
254.2207204095854
 21
0.8164039608451822
 31
0.0
  0
LINE
  5
31C
330
17
100
AcDbEntity
  8
0
 62
8
100
AcDbLine
 10
254.2207204095854
 20
0.8164039608451822
 30
0.0
 11
254.2216005741171
 21
0.8172841281708862
 31
0.0
  0
LINE
  5
31D
330
17
100
AcDbEntity
  8
0
 62
8
100
AcDbLine
 10
254.2216005741171
 20
0.8172841281708862
 30
0.0
 11
254.2221656753046
 21
0.8183932022399496
 31
0.0
  0
LINE
  5
31E
330
17
100
AcDbEntity
  8
0
 62
8
100
AcDbLine
 10
254.2221656753046
 20
0.8183932022399496
 30
0.0
 11
254.2223603951981
 21
0.8196226160354491
 31
0.0
  0
LINE
  5
31F
330
17
100
AcDbEntity
  8
0
 62
8
100
AcDbLine
 10
254.2223603951981
 20
0.8196226160354491
 30
0.0
 11
254.2221656753046
 21
0.8208520335557842
 31
0.0
  0
LINE
  5
320
330
17
100
AcDbEntity
  8
0
 62
8
100
AcDbLine
 10
254.2221656753046
 20
0.8208520335557842
 30
0.0
 11
254.2216005741171
 21
0.8219611057626572
 31
0.0
  0
LINE
  5
321
330
17
100
AcDbEntity
  8
0
 62
8
100
AcDbLine
 10
254.2216005741171
 20
0.8219611057626572
 30
0.0
 11
254.2207204095854
 21
0.822841271225716
 31
0.0
  0
LINE
  5
322
330
17
100
AcDbEntity
  8
0
 62
8
100
AcDbLine
 10
254.2207204095854
 20
0.822841271225716
 30
0.0
 11
254.2196113373781
 21
0.8234063705510017
 31
0.0
  0
LINE
  5
323
330
17
100
AcDbEntity
  8
0
 62
8
100
AcDbLine
 10
254.2196113373781
 20
0.8234063705510017
 30
0.0
 11
254.2183819198577
 21
0.823601093237503
 31
0.0
  0
LINE
  5
324
330
17
100
AcDbEntity
  8
0
 62
8
100
AcDbLine
 10
254.2183819198577
 20
0.823601093237503
 30
0.0
 11
254.2171525032687
 21
0.8234063705510017
 31
0.0
  0
LINE
  5
325
330
17
100
AcDbEntity
  8
0
 62
8
100
AcDbLine
 10
254.2171525032687
 20
0.8234063705510017
 30
0.0
 11
254.216043430131
 21
0.822841271225716
 31
0.0
  0
LINE
  5
326
330
17
100
AcDbEntity
  8
0
 62
8
100
AcDbLine
 10
254.1937916169601
 20
0.96703352023329
 30
0.0
 11
254.1950025467464
 21
0.964656935868934
 31
0.0
  0
LINE
  5
327
330
17
100
AcDbEntity
  8
0
 62
8
100
AcDbLine
 10
254.1933743589817
 20
0.9696679850173133
 30
0.0
 11
254.1937916169601
 21
0.96703352023329
 31
0.0
  0
LINE
  5
328
330
17
100
AcDbEntity
  8
0
 62
8
100
AcDbLine
 10
254.1937916169601
 20
0.9723024460778653
 30
0.0
 11
254.1933743589817
 21
0.9696679850173133
 31
0.0
  0
LINE
  5
329
330
17
100
AcDbEntity
  8
0
 62
8
100
AcDbLine
 10
254.1950025467464
 20
0.9746790323048664
 30
0.0
 11
254.1937916169601
 21
0.9723024460778653
 31
0.0
  0
LINE
  5
32A
330
17
100
AcDbEntity
  8
0
 62
8
100
AcDbLine
 10
254.1968886149303
 20
0.97656509955792
 30
0.0
 11
254.1950025467464
 21
0.9746790323048664
 31
0.0
  0
LINE
  5
32B
330
17
100
AcDbEntity
  8
0
 62
8
100
AcDbLine
 10
254.1992651992956
 20
0.977776029344259
 30
0.0
 11
254.1968886149303
 21
0.97656509955792
 31
0.0
  0
LINE
  5
32C
330
17
100
AcDbEntity
  8
0
 62
8
100
AcDbLine
 10
254.2018996631488
 20
0.9781932901156871
 30
0.0
 11
254.1992651992956
 21
0.977776029344259
 31
0.0
  0
LINE
  5
32D
330
17
100
AcDbEntity
  8
0
 62
8
100
AcDbLine
 10
254.1992651992956
 20
0.9615599351047059
 30
0.0
 11
254.2018996631488
 21
0.9611426780581133
 31
0.0
  0
LINE
  5
32E
330
17
100
AcDbEntity
  8
0
 62
8
100
AcDbLine
 10
254.1968886149303
 20
0.9627708667527805
 30
0.0
 11
254.1992651992956
 21
0.9615599351047059
 31
0.0
  0
LINE
  5
32F
330
17
100
AcDbEntity
  8
0
 62
8
100
AcDbLine
 10
254.1950025467464
 20
0.964656935868934
 30
0.0
 11
254.1968886149303
 21
0.9627708667527805
 31
0.0
  0
LINE
  5
330
330
17
100
AcDbEntity
  8
0
 62
8
100
AcDbLine
 10
254.3258007614873
 20
0.9781932901156871
 30
0.0
 11
254.3269374693924
 21
0.9759362466012682
 31
0.0
  0
LINE
  5
331
330
17
100
AcDbEntity
  8
0
 62
8
100
AcDbLine
 10
254.3258007614873
 20
0.9611426780581133
 30
0.0
 11
254.3269374693924
 21
0.9633997197094323
 31
0.0
  0
LINE
  5
332
330
17
100
AcDbEntity
  8
0
 62
8
100
AcDbLine
 10
254.1229969242419
 20
-0.0587954730038654
 30
0.0
 11
254.1229969242419
 21
-0.093471239565897
 31
0.0
  0
LINE
  5
333
330
17
100
AcDbEntity
  8
0
 62
8
100
AcDbLine
 10
254.924206295159
 20
-0.0500099690710521
 30
0.0
 11
254.1229969242419
 21
-0.0500099690710521
 31
0.0
  0
LINE
  5
334
330
17
100
AcDbEntity
  8
0
 62
8
100
AcDbLine
 10
254.91046554047
 20
1.080796535257523
 30
0.0
 11
254.8923305450013
 21
1.080796535257523
 31
0.0
  0
LINE
  5
335
330
17
100
AcDbEntity
  8
0
 62
8
100
AcDbLine
 10
254.9104655423322
 20
1.080796533394877
 30
0.0
 11
254.1229969242419
 21
1.080796531533142
 31
0.0
  0
LINE
  5
336
330
17
100
AcDbEntity
  8
0
 62
8
100
AcDbLine
 10
254.924206295159
 20
0.7886477443804872
 30
0.0
 11
254.1229969242419
 21
0.788647748104868
 31
0.0
  0
LINE
  5
337
330
17
100
AcDbEntity
  8
0
 62
8
100
AcDbLine
 10
254.3258007614873
 20
0.9781932901156871
 30
0.0
 11
254.2274755793743
 21
0.9781932901156871
 31
0.0
  0
LINE
  5
338
330
17
100
AcDbEntity
  8
0
 62
8
100
AcDbLine
 10
254.3258007614873
 20
0.9611426780581133
 30
0.0
 11
254.2274755793743
 21
0.9611426780581133
 31
0.0
  0
LINE
  5
339
330
17
100
AcDbEntity
  8
0
 62
8
100
AcDbLine
 10
254.1229969242419
 20
1.949328427972123
 30
0.0
 11
254.1229969242419
 21
1.080796531533142
 31
0.0
  0
LINE
  5
33A
330
17
100
AcDbEntity
  8
0
 62
8
100
AcDbLine
 10
254.1229969242419
 20
1.080796531533142
 30
0.0
 11
254.1229969242419
 21
0.788647748104868
 31
0.0
  0
LINE
  5
33B
330
17
100
AcDbEntity
  8
0
 62
8
100
AcDbLine
 10
254.1229969242419
 20
-0.0587954730038654
 30
0.0
 11
254.1229969242419
 21
0.788647748104868
 31
0.0
  0
LINE
  5
33C
330
17
100
AcDbEntity
  8
0
 62
8
100
AcDbLine
 10
254.9841913462079
 20
2.009999999999909
 30
0.0
 11
254.0591913461882
 21
2.009999999999909
 31
0.0
  0
LINE
  5
33D
330
17
100
AcDbEntity
  8
0
 62
8
100
AcDbLine
 10
254.1229969242419
 20
-0.093471239565897
 30
0.0
 11
254.0591913461882
 21
-0.093471239565897
 31
0.0
  0
LINE
  5
33E
330
17
100
AcDbEntity
  8
0
 62
8
100
AcDbLine
 10
254.2018996631488
 20
0.9781932901156871
 30
0.0
 11
254.2274755793743
 21
0.9781932901156871
 31
0.0
  0
LINE
  5
33F
330
17
100
AcDbEntity
  8
0
 62
8
100
AcDbLine
 10
254.2018996631488
 20
0.9611426780581133
 30
0.0
 11
254.2274755793743
 21
0.9611426780581133
 31
0.0
  0
LINE
  5
340
330
17
100
AcDbEntity
  8
0
 62
8
100
AcDbLine
 10
254.3269374693924
 20
0.9759362466012682
 30
0.0
 11
254.3269374693924
 21
0.9633997197094323
 31
0.0
  0
LINE
  5
341
330
17
100
AcDbEntity
  8
0
 62
8
100
AcDbLine
 10
253.9953857681345
 20
1.950014948951011
 30
0.0
 11
253.1941763972369
 21
1.950014948951011
 31
0.0
  0
LINE
  5
342
330
17
100
AcDbEntity
  8
0
 62
8
100
AcDbLine
 10
253.2634962195449
 20
1.946701097203149
 30
0.0
 11
253.2633804849926
 21
1.946701097203149
 31
0.0
  0
LINE
  5
343
330
17
100
AcDbEntity
  8
0
 62
8
100
AcDbLine
 10
253.1941763963056
 20
-0.0885834519061426
 30
0.0
 11
253.1941763953752
 21
1.950014948951011
 31
0.0
  0
LINE
  5
344
330
17
100
AcDbEntity
  8
0
 62
8
100
AcDbLine
 10
253.134191346188
 20
2.009999999999909
 30
0.0
 11
253.134191346188
 21
-0.0900000018621903
 31
0.0
  0
LINE
  5
345
330
17
100
AcDbEntity
  8
0
 62
8
100
AcDbLine
 10
253.9953857681345
 20
-0.093471239565897
 30
0.0
 11
253.134191346188
 21
-0.0900000018621903
 31
0.0
  0
LINE
  5
346
330
17
100
AcDbEntity
  8
0
 62
8
100
AcDbLine
 10
253.891339746078
 20
1.057096028091255
 30
0.0
 11
253.8925717827557
 21
1.058939898321714
 31
0.0
  0
LINE
  5
347
330
17
100
AcDbEntity
  8
0
 62
8
100
AcDbLine
 10
253.9306267943472
 20
1.054729564680801
 30
0.0
 11
253.9317358674854
 21
1.055294665868732
 31
0.0
  0
LINE
  5
348
330
17
100
AcDbEntity
  8
0
 62
8
100
AcDbLine
 10
253.89621701614
 20
1.050281495695035
 30
0.0
 11
253.896022296247
 21
1.051510909490989
 31
0.0
  0
LINE
  5
349
330
17
100
AcDbEntity
  8
0
 62
8
100
AcDbLine
 10
253.8925717827557
 20
1.058939898321714
 30
0.0
 11
253.8944156548483
 21
1.060171935930757
 31
0.0
  0
LINE
  5
34A
330
17
100
AcDbEntity
  8
0
 62
8
100
AcDbLine
 10
253.8944156548483
 20
1.060171935930757
 30
0.0
 11
253.8965906497339
 21
1.060604570869291
 31
0.0
  0
LINE
  5
34B
330
17
100
AcDbEntity
  8
0
 62
8
100
AcDbLine
 10
253.9420589426596
 20
0.8162124951137776
 30
0.0
 11
253.9416263095833
 21
0.8140375011586549
 31
0.0
  0
LINE
  5
34C
330
17
100
AcDbEntity
  8
0
 62
8
100
AcDbLine
 10
253.9416263095833
 20
0.8140375011586549
 30
0.0
 11
253.9403942729056
 21
0.8121936272042695
 31
0.0
  0
LINE
  5
34D
330
17
100
AcDbEntity
  8
0
 62
8
100
AcDbLine
 10
253.9403942729056
 20
0.8121936272042695
 30
0.0
 11
253.9385504008134
 21
0.8109615914578718
 31
0.0
  0
LINE
  5
34E
330
17
100
AcDbEntity
  8
0
 62
8
100
AcDbLine
 10
253.9385504008134
 20
0.8109615914578718
 30
0.0
 11
253.9363754049965
 21
0.8105289583815284
 31
0.0
  0
LINE
  5
34F
330
17
100
AcDbEntity
  8
0
 62
8
100
AcDbLine
 10
253.8944156548483
 20
0.8109615914578718
 30
0.0
 11
253.8965906497339
 21
0.8105289583815284
 31
0.0
  0
LINE
  5
350
330
17
100
AcDbEntity
  8
0
 62
8
100
AcDbLine
 10
253.8925717827557
 20
0.8121936272042695
 30
0.0
 11
253.8944156548483
 21
0.8109615914578718
 31
0.0
  0
LINE
  5
351
330
17
100
AcDbEntity
  8
0
 62
8
100
AcDbLine
 10
253.891339746078
 20
0.8140375011586549
 30
0.0
 11
253.8925717827557
 21
0.8121936272042695
 31
0.0
  0
LINE
  5
352
330
17
100
AcDbEntity
  8
0
 62
8
100
AcDbLine
 10
253.8909071120712
 20
0.8162124951137776
 30
0.0
 11
253.891339746078
 21
0.8140375011586549
 31
0.0
  0
LINE
  5
353
330
17
100
AcDbEntity
  8
0
 62
8
100
AcDbLine
 10
253.8909071120712
 20
1.054921032274396
 30
0.0
 11
253.891339746078
 21
1.057096028091255
 31
0.0
  0
LINE
  5
354
330
17
100
AcDbEntity
  8
0
 62
8
100
AcDbLine
 10
253.9032194258458
 20
1.049172421625517
 30
0.0
 11
253.9023392613141
 21
1.048292256162913
 31
0.0
  0
LINE
  5
355
330
17
100
AcDbEntity
  8
0
 62
8
100
AcDbLine
 10
253.9297466298155
 20
1.049172421625517
 30
0.0
 11
253.9291815286275
 21
1.050281495695035
 31
0.0
  0
LINE
  5
356
330
17
100
AcDbEntity
  8
0
 62
8
100
AcDbLine
 10
253.9037845270337
 20
1.050281495695035
 30
0.0
 11
253.9032194258458
 21
1.049172421625517
 31
0.0
  0
LINE
  5
357
330
17
100
AcDbEntity
  8
0
 62
8
100
AcDbLine
 10
253.9291815286275
 20
1.052740327010415
 30
0.0
 11
253.9297466298155
 21
1.053849399218197
 31
0.0
  0
LINE
  5
358
330
17
100
AcDbEntity
  8
0
 62
8
100
AcDbLine
 10
253.9291815286275
 20
1.050281495695035
 30
0.0
 11
253.9289868087345
 21
1.051510909490989
 31
0.0
  0
LINE
  5
359
330
17
100
AcDbEntity
  8
0
 62
8
100
AcDbLine
 10
253.896022296247
 20
1.051510909490989
 30
0.0
 11
253.89621701614
 21
1.052740327010415
 31
0.0
  0
LINE
  5
35A
330
17
100
AcDbEntity
  8
0
 62
8
100
AcDbLine
 10
253.9363754049965
 20
1.060604570869291
 30
0.0
 11
253.8965906497339
 21
1.060604570869291
 31
0.0
  0
LINE
  5
35B
330
17
100
AcDbEntity
  8
0
 62
8
100
AcDbLine
 10
253.8909071120712
 20
1.054921032274396
 30
0.0
 11
253.8909071120712
 21
0.9781932901156871
 31
0.0
  0
LINE
  5
35C
330
17
100
AcDbEntity
  8
0
 62
8
100
AcDbLine
 10
253.8909071120712
 20
0.9611426780581133
 30
0.0
 11
253.8909071120712
 21
0.8162124951137776
 31
0.0
  0
LINE
  5
35D
330
17
100
AcDbEntity
  8
0
 62
8
100
AcDbLine
 10
253.8965906497339
 20
0.8105289583815284
 30
0.0
 11
253.9363754049965
 21
0.8105289583815284
 31
0.0
  0
LINE
  5
35E
330
17
100
AcDbEntity
  8
0
 62
8
100
AcDbLine
 10
253.9420589426596
 20
0.8162124951137776
 30
0.0
 11
253.9420589426596
 21
1.054921032274396
 31
0.0
  0
LINE
  5
35F
330
17
100
AcDbEntity
  8
0
 62
8
100
AcDbLine
 10
253.9420589426596
 20
1.054921032274396
 30
0.0
 11
253.9416263095833
 21
1.057096028091255
 31
0.0
  0
LINE
  5
360
330
17
100
AcDbEntity
  8
0
 62
8
100
AcDbLine
 10
253.9416263095833
 20
1.057096028091255
 30
0.0
 11
253.9403942729056
 21
1.058939898321714
 31
0.0
  0
LINE
  5
361
330
17
100
AcDbEntity
  8
0
 62
8
100
AcDbLine
 10
253.9403942729056
 20
1.058939898321714
 30
0.0
 11
253.9385504008134
 21
1.060171935930757
 31
0.0
  0
LINE
  5
362
330
17
100
AcDbEntity
  8
0
 62
8
100
AcDbLine
 10
253.9385504008134
 20
1.060171935930757
 30
0.0
 11
253.9363754049965
 21
1.060604570869291
 31
0.0
  0
LINE
  5
363
330
17
100
AcDbEntity
  8
0
 62
8
100
AcDbLine
 10
253.89621701614
 20
1.052740327010415
 30
0.0
 11
253.8967821173279
 21
1.053849399218197
 31
0.0
  0
LINE
  5
364
330
17
100
AcDbEntity
  8
0
 62
8
100
AcDbLine
 10
253.8967821173279
 20
1.053849399218197
 30
0.0
 11
253.8976622818597
 21
1.054729564680801
 31
0.0
  0
LINE
  5
365
330
17
100
AcDbEntity
  8
0
 62
8
100
AcDbLine
 10
253.8976622818597
 20
1.054729564680801
 30
0.0
 11
253.8987713549978
 21
1.055294665868732
 31
0.0
  0
LINE
  5
366
330
17
100
AcDbEntity
  8
0
 62
8
100
AcDbLine
 10
253.8987713549978
 20
1.055294665868732
 30
0.0
 11
253.9000007715868
 21
1.055489386693043
 31
0.0
  0
LINE
  5
367
330
17
100
AcDbEntity
  8
0
 62
8
100
AcDbLine
 10
253.9000007715868
 20
1.055489386693043
 30
0.0
 11
253.9012301881759
 21
1.055294665868732
 31
0.0
  0
LINE
  5
368
330
17
100
AcDbEntity
  8
0
 62
8
100
AcDbLine
 10
253.9012301881759
 20
1.055294665868732
 30
0.0
 11
253.9023392613141
 21
1.054729564680801
 31
0.0
  0
LINE
  5
369
330
17
100
AcDbEntity
  8
0
 62
8
100
AcDbLine
 10
253.9023392613141
 20
1.054729564680801
 30
0.0
 11
253.9032194258458
 21
1.053849399218197
 31
0.0
  0
LINE
  5
36A
330
17
100
AcDbEntity
  8
0
 62
8
100
AcDbLine
 10
253.9032194258458
 20
1.053849399218197
 30
0.0
 11
253.9037845270337
 21
1.052740327010415
 31
0.0
  0
LINE
  5
36B
330
17
100
AcDbEntity
  8
0
 62
8
100
AcDbLine
 10
253.9037845270337
 20
1.052740327010415
 30
0.0
 11
253.9039792469267
 21
1.051510909490989
 31
0.0
  0
LINE
  5
36C
330
17
100
AcDbEntity
  8
0
 62
8
100
AcDbLine
 10
253.9039792469267
 20
1.051510909490989
 30
0.0
 11
253.9037845270337
 21
1.050281495695035
 31
0.0
  0
LINE
  5
36D
330
17
100
AcDbEntity
  8
0
 62
8
100
AcDbLine
 10
253.9023392613141
 20
1.048292256162913
 30
0.0
 11
253.9012301881759
 21
1.047727154974982
 31
0.0
  0
LINE
  5
36E
330
17
100
AcDbEntity
  8
0
 62
8
100
AcDbLine
 10
253.9012301881759
 20
1.047727154974982
 30
0.0
 11
253.9000007715868
 21
1.047532434150671
 31
0.0
  0
LINE
  5
36F
330
17
100
AcDbEntity
  8
0
 62
8
100
AcDbLine
 10
253.9000007715868
 20
1.047532434150671
 30
0.0
 11
253.8987713549978
 21
1.047727154974982
 31
0.0
  0
LINE
  5
370
330
17
100
AcDbEntity
  8
0
 62
8
100
AcDbLine
 10
253.8987713549978
 20
1.047727154974982
 30
0.0
 11
253.8976622818597
 21
1.048292256162913
 31
0.0
  0
LINE
  5
371
330
17
100
AcDbEntity
  8
0
 62
8
100
AcDbLine
 10
253.8976622818597
 20
1.048292256162913
 30
0.0
 11
253.8967821173279
 21
1.049172421625517
 31
0.0
  0
LINE
  5
372
330
17
100
AcDbEntity
  8
0
 62
8
100
AcDbLine
 10
253.8967821173279
 20
1.049172421625517
 30
0.0
 11
253.89621701614
 21
1.050281495695035
 31
0.0
  0
LINE
  5
373
330
17
100
AcDbEntity
  8
0
 62
8
100
AcDbLine
 10
253.9361839383333
 20
1.049172421625517
 30
0.0
 11
253.9353037738016
 21
1.048292256162913
 31
0.0
  0
LINE
  5
374
330
17
100
AcDbEntity
  8
0
 62
8
100
AcDbLine
 10
253.9353037738016
 20
1.048292256162913
 30
0.0
 11
253.9341947006634
 21
1.047727154974982
 31
0.0
  0
LINE
  5
375
330
17
100
AcDbEntity
  8
0
 62
8
100
AcDbLine
 10
253.9341947006634
 20
1.047727154974982
 30
0.0
 11
253.9329652840744
 21
1.047532434150671
 31
0.0
  0
LINE
  5
376
330
17
100
AcDbEntity
  8
0
 62
8
100
AcDbLine
 10
253.9329652840744
 20
1.047532434150671
 30
0.0
 11
253.9317358674854
 21
1.047727154974982
 31
0.0
  0
LINE
  5
377
330
17
100
AcDbEntity
  8
0
 62
8
100
AcDbLine
 10
253.9317358674854
 20
1.047727154974982
 30
0.0
 11
253.9306267943472
 21
1.048292256162913
 31
0.0
  0
LINE
  5
378
330
17
100
AcDbEntity
  8
0
 62
8
100
AcDbLine
 10
253.9306267943472
 20
1.048292256162913
 30
0.0
 11
253.9297466298155
 21
1.049172421625517
 31
0.0
  0
LINE
  5
379
330
17
100
AcDbEntity
  8
0
 62
8
100
AcDbLine
 10
253.9289868087345
 20
1.051510909490989
 30
0.0
 11
253.9291815286275
 21
1.052740327010415
 31
0.0
  0
LINE
  5
37A
330
17
100
AcDbEntity
  8
0
 62
8
100
AcDbLine
 10
253.9297466298155
 20
1.053849399218197
 30
0.0
 11
253.9306267943472
 21
1.054729564680801
 31
0.0
  0
LINE
  5
37B
330
17
100
AcDbEntity
  8
0
 62
8
100
AcDbLine
 10
253.9317358674854
 20
1.055294665868732
 30
0.0
 11
253.9329652840744
 21
1.055489386693043
 31
0.0
  0
LINE
  5
37C
330
17
100
AcDbEntity
  8
0
 62
8
100
AcDbLine
 10
253.9329652840744
 20
1.055489386693043
 30
0.0
 11
253.9341947006634
 21
1.055294665868732
 31
0.0
  0
LINE
  5
37D
330
17
100
AcDbEntity
  8
0
 62
8
100
AcDbLine
 10
253.9341947006634
 20
1.055294665868732
 30
0.0
 11
253.9353037738016
 21
1.054729564680801
 31
0.0
  0
LINE
  5
37E
330
17
100
AcDbEntity
  8
0
 62
8
100
AcDbLine
 10
253.9353037738016
 20
1.054729564680801
 30
0.0
 11
253.9361839383333
 21
1.053849399218197
 31
0.0
  0
LINE
  5
37F
330
17
100
AcDbEntity
  8
0
 62
8
100
AcDbLine
 10
253.9361839383333
 20
1.053849399218197
 30
0.0
 11
253.9367490395213
 21
1.052740327010415
 31
0.0
  0
LINE
  5
380
330
17
100
AcDbEntity
  8
0
 62
8
100
AcDbLine
 10
253.9367490395213
 20
1.052740327010415
 30
0.0
 11
253.9369437594142
 21
1.051510909490989
 31
0.0
  0
LINE
  5
381
330
17
100
AcDbEntity
  8
0
 62
8
100
AcDbLine
 10
253.9369437594142
 20
1.051510909490989
 30
0.0
 11
253.9367490395213
 21
1.050281495695035
 31
0.0
  0
LINE
  5
382
330
17
100
AcDbEntity
  8
0
 62
8
100
AcDbLine
 10
253.9367490395213
 20
1.050281495695035
 30
0.0
 11
253.9361839383333
 21
1.049172421625517
 31
0.0
  0
LINE
  5
383
330
17
100
AcDbEntity
  8
0
 62
8
100
AcDbLine
 10
253.9291815286275
 20
0.8183932022399496
 30
0.0
 11
253.9289868087345
 21
0.8196226160354491
 31
0.0
  0
LINE
  5
384
330
17
100
AcDbEntity
  8
0
 62
8
100
AcDbLine
 10
253.9289868087345
 20
0.8196226160354491
 30
0.0
 11
253.9291815286275
 21
0.8208520335557842
 31
0.0
  0
LINE
  5
385
330
17
100
AcDbEntity
  8
0
 62
8
100
AcDbLine
 10
253.9291815286275
 20
0.8208520335557842
 30
0.0
 11
253.9297466298155
 21
0.8219611057626572
 31
0.0
  0
LINE
  5
386
330
17
100
AcDbEntity
  8
0
 62
8
100
AcDbLine
 10
253.9297466298155
 20
0.8219611057626572
 30
0.0
 11
253.9306267943472
 21
0.822841271225716
 31
0.0
  0
LINE
  5
387
330
17
100
AcDbEntity
  8
0
 62
8
100
AcDbLine
 10
253.9306267943472
 20
0.822841271225716
 30
0.0
 11
253.9317358674854
 21
0.8234063705510017
 31
0.0
  0
LINE
  5
388
330
17
100
AcDbEntity
  8
0
 62
8
100
AcDbLine
 10
253.9317358674854
 20
0.8234063705510017
 30
0.0
 11
253.9329652840744
 21
0.823601093237503
 31
0.0
  0
LINE
  5
389
330
17
100
AcDbEntity
  8
0
 62
8
100
AcDbLine
 10
253.9329652840744
 20
0.823601093237503
 30
0.0
 11
253.9341947006634
 21
0.8234063705510017
 31
0.0
  0
LINE
  5
38A
330
17
100
AcDbEntity
  8
0
 62
8
100
AcDbLine
 10
253.9341947006634
 20
0.8234063705510017
 30
0.0
 11
253.9353037738016
 21
0.822841271225716
 31
0.0
  0
LINE
  5
38B
330
17
100
AcDbEntity
  8
0
 62
8
100
AcDbLine
 10
253.9353037738016
 20
0.822841271225716
 30
0.0
 11
253.9361839383333
 21
0.8219611057626572
 31
0.0
  0
LINE
  5
38C
330
17
100
AcDbEntity
  8
0
 62
8
100
AcDbLine
 10
253.9361839383333
 20
0.8219611057626572
 30
0.0
 11
253.9367490395213
 21
0.8208520335557842
 31
0.0
  0
LINE
  5
38D
330
17
100
AcDbEntity
  8
0
 62
8
100
AcDbLine
 10
253.9367490395213
 20
0.8208520335557842
 30
0.0
 11
253.9369437594142
 21
0.8196226160354491
 31
0.0
  0
LINE
  5
38E
330
17
100
AcDbEntity
  8
0
 62
8
100
AcDbLine
 10
253.9369437594142
 20
0.8196226160354491
 30
0.0
 11
253.9367490395213
 21
0.8183932022399496
 31
0.0
  0
LINE
  5
38F
330
17
100
AcDbEntity
  8
0
 62
8
100
AcDbLine
 10
253.9367490395213
 20
0.8183932022399496
 30
0.0
 11
253.9361839383333
 21
0.8172841281708862
 31
0.0
  0
LINE
  5
390
330
17
100
AcDbEntity
  8
0
 62
8
100
AcDbLine
 10
253.9361839383333
 20
0.8172841281708862
 30
0.0
 11
253.9353037738016
 21
0.8164039608451822
 31
0.0
  0
LINE
  5
391
330
17
100
AcDbEntity
  8
0
 62
8
100
AcDbLine
 10
253.9353037738016
 20
0.8164039608451822
 30
0.0
 11
253.9341947006634
 21
0.8158388615198965
 31
0.0
  0
LINE
  5
392
330
17
100
AcDbEntity
  8
0
 62
8
100
AcDbLine
 10
253.9341947006634
 20
0.8158388615198965
 30
0.0
 11
253.9329652840744
 21
0.8156441406960404
 31
0.0
  0
LINE
  5
393
330
17
100
AcDbEntity
  8
0
 62
8
100
AcDbLine
 10
253.9329652840744
 20
0.8156441406960404
 30
0.0
 11
253.9317358674854
 21
0.8158388615198965
 31
0.0
  0
LINE
  5
394
330
17
100
AcDbEntity
  8
0
 62
8
100
AcDbLine
 10
253.9317358674854
 20
0.8158388615198965
 30
0.0
 11
253.9306267943472
 21
0.8164039608451822
 31
0.0
  0
LINE
  5
395
330
17
100
AcDbEntity
  8
0
 62
8
100
AcDbLine
 10
253.9306267943472
 20
0.8164039608451822
 30
0.0
 11
253.9297466298155
 21
0.8172841281708862
 31
0.0
  0
LINE
  5
396
330
17
100
AcDbEntity
  8
0
 62
8
100
AcDbLine
 10
253.9297466298155
 20
0.8172841281708862
 30
0.0
 11
253.9291815286275
 21
0.8183932022399496
 31
0.0
  0
LINE
  5
397
330
17
100
AcDbEntity
  8
0
 62
8
100
AcDbLine
 10
253.9023392613141
 20
0.822841271225716
 30
0.0
 11
253.9032194258458
 21
0.8219611057626572
 31
0.0
  0
LINE
  5
398
330
17
100
AcDbEntity
  8
0
 62
8
100
AcDbLine
 10
253.9032194258458
 20
0.8219611057626572
 30
0.0
 11
253.9037845270337
 21
0.8208520335557842
 31
0.0
  0
LINE
  5
399
330
17
100
AcDbEntity
  8
0
 62
8
100
AcDbLine
 10
253.9037845270337
 20
0.8208520335557842
 30
0.0
 11
253.9039792469267
 21
0.8196226160354491
 31
0.0
  0
LINE
  5
39A
330
17
100
AcDbEntity
  8
0
 62
8
100
AcDbLine
 10
253.9039792469267
 20
0.8196226160354491
 30
0.0
 11
253.9037845270337
 21
0.8183932022399496
 31
0.0
  0
LINE
  5
39B
330
17
100
AcDbEntity
  8
0
 62
8
100
AcDbLine
 10
253.9037845270337
 20
0.8183932022399496
 30
0.0
 11
253.9032194258458
 21
0.8172841281708862
 31
0.0
  0
LINE
  5
39C
330
17
100
AcDbEntity
  8
0
 62
8
100
AcDbLine
 10
253.9032194258458
 20
0.8172841281708862
 30
0.0
 11
253.9023392613141
 21
0.8164039608451822
 31
0.0
  0
LINE
  5
39D
330
17
100
AcDbEntity
  8
0
 62
8
100
AcDbLine
 10
253.9023392613141
 20
0.8164039608451822
 30
0.0
 11
253.9012301881759
 21
0.8158388615198965
 31
0.0
  0
LINE
  5
39E
330
17
100
AcDbEntity
  8
0
 62
8
100
AcDbLine
 10
253.9012301881759
 20
0.8158388615198965
 30
0.0
 11
253.9000007715868
 21
0.8156441406960404
 31
0.0
  0
LINE
  5
39F
330
17
100
AcDbEntity
  8
0
 62
8
100
AcDbLine
 10
253.9000007715868
 20
0.8156441406960404
 30
0.0
 11
253.8987713549978
 21
0.8158388615198965
 31
0.0
  0
LINE
  5
3A0
330
17
100
AcDbEntity
  8
0
 62
8
100
AcDbLine
 10
253.8987713549978
 20
0.8158388615198965
 30
0.0
 11
253.8976622818597
 21
0.8164039608451822
 31
0.0
  0
LINE
  5
3A1
330
17
100
AcDbEntity
  8
0
 62
8
100
AcDbLine
 10
253.8976622818597
 20
0.8164039608451822
 30
0.0
 11
253.8967821173279
 21
0.8172841281708862
 31
0.0
  0
LINE
  5
3A2
330
17
100
AcDbEntity
  8
0
 62
8
100
AcDbLine
 10
253.8967821173279
 20
0.8172841281708862
 30
0.0
 11
253.89621701614
 21
0.8183932022399496
 31
0.0
  0
LINE
  5
3A3
330
17
100
AcDbEntity
  8
0
 62
8
100
AcDbLine
 10
253.89621701614
 20
0.8183932022399496
 30
0.0
 11
253.896022296247
 21
0.8196226160354491
 31
0.0
  0
LINE
  5
3A4
330
17
100
AcDbEntity
  8
0
 62
8
100
AcDbLine
 10
253.896022296247
 20
0.8196226160354491
 30
0.0
 11
253.89621701614
 21
0.8208520335557842
 31
0.0
  0
LINE
  5
3A5
330
17
100
AcDbEntity
  8
0
 62
8
100
AcDbLine
 10
253.89621701614
 20
0.8208520335557842
 30
0.0
 11
253.8967821173279
 21
0.8219611057626572
 31
0.0
  0
LINE
  5
3A6
330
17
100
AcDbEntity
  8
0
 62
8
100
AcDbLine
 10
253.8967821173279
 20
0.8219611057626572
 30
0.0
 11
253.8976622818597
 21
0.822841271225716
 31
0.0
  0
LINE
  5
3A7
330
17
100
AcDbEntity
  8
0
 62
8
100
AcDbLine
 10
253.8976622818597
 20
0.822841271225716
 30
0.0
 11
253.8987713549978
 21
0.8234063705510017
 31
0.0
  0
LINE
  5
3A8
330
17
100
AcDbEntity
  8
0
 62
8
100
AcDbLine
 10
253.8987713549978
 20
0.8234063705510017
 30
0.0
 11
253.9000007715868
 21
0.823601093237503
 31
0.0
  0
LINE
  5
3A9
330
17
100
AcDbEntity
  8
0
 62
8
100
AcDbLine
 10
253.9000007715868
 20
0.823601093237503
 30
0.0
 11
253.9012301881759
 21
0.8234063705510017
 31
0.0
  0
LINE
  5
3AA
330
17
100
AcDbEntity
  8
0
 62
8
100
AcDbLine
 10
253.9012301881759
 20
0.8234063705510017
 30
0.0
 11
253.9023392613141
 21
0.822841271225716
 31
0.0
  0
LINE
  5
3AB
330
17
100
AcDbEntity
  8
0
 62
8
100
AcDbLine
 10
253.9245910744849
 20
0.96703352023329
 30
0.0
 11
253.9233801446986
 21
0.964656935868934
 31
0.0
  0
LINE
  5
3AC
330
17
100
AcDbEntity
  8
0
 62
8
100
AcDbLine
 10
253.9250083324633
 20
0.9696679850173133
 30
0.0
 11
253.9245910744849
 21
0.96703352023329
 31
0.0
  0
LINE
  5
3AD
330
17
100
AcDbEntity
  8
0
 62
8
100
AcDbLine
 10
253.9245910744849
 20
0.9723024460778653
 30
0.0
 11
253.9250083324633
 21
0.9696679850173133
 31
0.0
  0
LINE
  5
3AE
330
17
100
AcDbEntity
  8
0
 62
8
100
AcDbLine
 10
253.9233801446986
 20
0.9746790323048664
 30
0.0
 11
253.9245910744849
 21
0.9723024460778653
 31
0.0
  0
LINE
  5
3AF
330
17
100
AcDbEntity
  8
0
 62
8
100
AcDbLine
 10
253.9214940765142
 20
0.97656509955792
 30
0.0
 11
253.9233801446986
 21
0.9746790323048664
 31
0.0
  0
LINE
  5
3B0
330
17
100
AcDbEntity
  8
0
 62
8
100
AcDbLine
 10
253.9191174921494
 20
0.977776029344259
 30
0.0
 11
253.9214940765142
 21
0.97656509955792
 31
0.0
  0
LINE
  5
3B1
330
17
100
AcDbEntity
  8
0
 62
8
100
AcDbLine
 10
253.9164830282963
 20
0.9781932901156871
 30
0.0
 11
253.9191174921494
 21
0.977776029344259
 31
0.0
  0
LINE
  5
3B2
330
17
100
AcDbEntity
  8
0
 62
8
100
AcDbLine
 10
253.9191174921494
 20
0.9615599351047059
 30
0.0
 11
253.9164830282963
 21
0.9611426780581133
 31
0.0
  0
LINE
  5
3B3
330
17
100
AcDbEntity
  8
0
 62
8
100
AcDbLine
 10
253.9214940765142
 20
0.9627708667527805
 30
0.0
 11
253.9191174921494
 21
0.9615599351047059
 31
0.0
  0
LINE
  5
3B4
330
17
100
AcDbEntity
  8
0
 62
8
100
AcDbLine
 10
253.9233801446986
 20
0.964656935868934
 30
0.0
 11
253.9214940765142
 21
0.9627708667527805
 31
0.0
  0
LINE
  5
3B5
330
17
100
AcDbEntity
  8
0
 62
8
100
AcDbLine
 10
253.7925819299577
 20
0.9781932901156871
 30
0.0
 11
253.7914452220526
 21
0.9759362466012682
 31
0.0
  0
LINE
  5
3B6
330
17
100
AcDbEntity
  8
0
 62
8
100
AcDbLine
 10
253.7925819299577
 20
0.9611426780581133
 30
0.0
 11
253.7914452220526
 21
0.9633997197094323
 31
0.0
  0
LINE
  5
3B7
330
17
100
AcDbEntity
  8
0
 62
8
100
AcDbLine
 10
253.9953857681345
 20
-0.0587954730038654
 30
0.0
 11
253.9953857681345
 21
-0.093471239565897
 31
0.0
  0
LINE
  5
3B8
330
17
100
AcDbEntity
  8
0
 62
8
100
AcDbLine
 10
253.1941763963056
 20
-0.0500099690710521
 30
0.0
 11
253.9953857681345
 21
-0.0500099690710521
 31
0.0
  0
LINE
  5
3B9
330
17
100
AcDbEntity
  8
0
 62
8
100
AcDbLine
 10
253.1941763963056
 20
1.080796535257523
 30
0.0
 11
253.9953857681345
 21
1.080796531533142
 31
0.0
  0
LINE
  5
3BA
330
17
100
AcDbEntity
  8
0
 62
8
100
AcDbLine
 10
253.1941763972369
 20
0.7886477462426776
 30
0.0
 11
253.9953857681345
 21
0.788647748104868
 31
0.0
  0
LINE
  5
3BB
330
17
100
AcDbEntity
  8
0
 62
8
100
AcDbLine
 10
253.7925819299577
 20
0.9781932901156871
 30
0.0
 11
253.8909071120712
 21
0.9781932901156871
 31
0.0
  0
LINE
  5
3BC
330
17
100
AcDbEntity
  8
0
 62
8
100
AcDbLine
 10
253.7925819299577
 20
0.9611426780581133
 30
0.0
 11
253.8909071120712
 21
0.9611426780581133
 31
0.0
  0
LINE
  5
3BD
330
17
100
AcDbEntity
  8
0
 62
8
100
AcDbLine
 10
253.9953857672032
 20
1.950014947089275
 30
0.0
 11
253.9953857681345
 21
1.080796531533142
 31
0.0
  0
LINE
  5
3BE
330
17
100
AcDbEntity
  8
0
 62
8
100
AcDbLine
 10
253.9953857681345
 20
1.080796531533142
 30
0.0
 11
253.9953857681345
 21
0.788647748104868
 31
0.0
  0
LINE
  5
3BF
330
17
100
AcDbEntity
  8
0
 62
8
100
AcDbLine
 10
253.9953857681345
 20
-0.0587954730038654
 30
0.0
 11
253.9953857681345
 21
0.788647748104868
 31
0.0
  0
LINE
  5
3C0
330
17
100
AcDbEntity
  8
0
 62
8
100
AcDbLine
 10
253.134191346188
 20
2.009999999999909
 30
0.0
 11
254.0591913461882
 21
2.009999999999909
 31
0.0
  0
LINE
  5
3C1
330
17
100
AcDbEntity
  8
0
 62
8
100
AcDbLine
 10
253.9953857681345
 20
-0.093471239565897
 30
0.0
 11
254.0591913461882
 21
-0.093471239565897
 31
0.0
  0
LINE
  5
3C2
330
17
100
AcDbEntity
  8
0
 62
8
100
AcDbLine
 10
253.9164830282963
 20
0.9781932901156871
 30
0.0
 11
253.8909071120712
 21
0.9781932901156871
 31
0.0
  0
LINE
  5
3C3
330
17
100
AcDbEntity
  8
0
 62
8
100
AcDbLine
 10
253.9164830282963
 20
0.9611426780581133
 30
0.0
 11
253.8909071120712
 21
0.9611426780581133
 31
0.0
  0
LINE
  5
3C4
330
17
100
AcDbEntity
  8
0
 62
8
100
AcDbLine
 10
253.7914452220526
 20
0.9759362466012682
 30
0.0
 11
253.7914452220526
 21
0.9633997197094323
 31
0.0
  0
LINE
  5
3C5
330
17
100
AcDbEntity
  8
0
 62
8
100
AcDbLine
 10
254.0583617426652
 20
0.969667981293842
 30
0.0
 11
253.8398350787335
 21
0.969667981293842
 31
0.0
  0
LWPOLYLINE
  5
3C6
330
17
100
AcDbEntity
  8
0
 62
8
100
AcDbPolyline
 90
3
 70
0
 10
253.1941763953752
 20
1.950014948951011
 10
253.9953857681345
 20
0.969667981293842
 10
253.1941763963056
 20
-0.0500099690710521
  0
LINE
  5
3C7
330
17
100
AcDbEntity
  8
0
 62
8
100
AcDbLine
 10
254.0600209497108
 20
0.969667981293842
 30
0.0
 11
254.2785476136424
 21
0.969667981293842
 31
0.0
  0
LWPOLYLINE
  5
3C8
330
17
100
AcDbEntity
  8
0
 62
8
100
AcDbPolyline
 90
3
 70
0
 10
254.9242062942282
 20
1.950014948951011
 10
254.1229969242419
 20
0.969667981293842
 10
254.924206295159
 20
-0.0500099690710521
  0
LWPOLYLINE
  5
3C9
330
17
100
AcDbEntity
  8
0
 62
8
100
AcDbPolyline
 90
4
 70
1
 10
253.1941763972369
 20
2.790014948950702
 10
254.9242062951385
 20
2.790014948950702
 10
254.9242062951385
 20
2.069985051048806
 10
253.1941763972369
 20
2.069985051048806
  0
LINE
  5
3CA
330
17
100
AcDbEntity
  8
0
 62
8
100
AcDbLine
 10
254.9841913472516
 20
2.849999999999599
 30
0.0
 11
253.1811073539035
 21
2.849999999999599
 31
0.0
  0
LINE
  5
3CB
330
17
100
AcDbEntity
  8
0
 62
8
100
AcDbLine
 10
254.9841913472516
 20
1.599205041616787
 30
0.0
 11
254.9841913472516
 21
1.374425150144961
 31
0.0
  0
LINE
  5
3CC
330
17
100
AcDbEntity
  8
0
 62
8
100
AcDbLine
 10
257.1898488991398
 20
1.954681836469408
 30
0.0
 11
257.1912088470432
 21
1.960325616812642
 31
0.0
  0
LINE
  5
3CD
330
17
100
AcDbEntity
  8
0
 62
8
100
AcDbLine
 10
257.1881837431998
 20
1.949120454396652
 30
0.0
 11
257.1898488991398
 21
1.954681836469408
 31
0.0
  0
LINE
  5
3CE
330
17
100
AcDbEntity
  8
0
 62
8
100
AcDbLine
 10
257.1934217081522
 20
1.977583059476874
 30
0.0
 11
257.1935297089627
 21
1.983387372587603
 31
0.0
  0
LINE
  5
3CF
330
17
100
AcDbEntity
  8
0
 62
8
100
AcDbLine
 10
257.1929979042467
 20
1.971793231749561
 30
0.0
 11
257.1934217081522
 21
1.977583059476874
 31
0.0
  0
LINE
  5
3D0
330
17
100
AcDbEntity
  8
0
 62
8
100
AcDbLine
 10
257.1922595540251
 20
1.966035058965335
 30
0.0
 11
257.1929979042467
 21
1.971793231749561
 31
0.0
  0
LINE
  5
3D1
330
17
100
AcDbEntity
  8
0
 62
8
100
AcDbLine
 10
257.1912088470432
 20
1.960325616812642
 30
0.0
 11
257.1922595540251
 21
1.966035058965335
 31
0.0
  0
LINE
  5
3D2
330
17
100
AcDbEntity
  8
0
 62
8
100
AcDbLine
 10
257.1927979576654
 20
1.994970612982942
 30
0.0
 11
257.1919603755429
 21
2.00071519051713
 31
0.0
  0
LINE
  5
3D3
330
17
100
AcDbEntity
  8
0
 62
8
100
AcDbLine
 10
257.193321586407
 20
1.989188958565737
 30
0.0
 11
257.1927979576654
 21
1.994970612982942
 31
0.0
  0
LINE
  5
3D4
330
17
100
AcDbEntity
  8
0
 62
8
100
AcDbLine
 10
257.1935297089627
 20
1.983387372587603
 30
0.0
 11
257.193321586407
 21
1.989188958565737
 31
0.0
  0
LINE
  5
3D5
330
17
100
AcDbEntity
  8
0
 62
8
100
AcDbLine
 10
257.1908113238638
 20
2.006405655797298
 30
0.0
 11
257.1893542101076
 21
2.012025133918687
 31
0.0
  0
LINE
  5
3D6
330
17
100
AcDbEntity
  8
0
 62
8
100
AcDbLine
 10
257.1919603755429
 20
2.00071519051713
 30
0.0
 11
257.1908113238638
 21
2.006405655797298
 31
0.0
  0
LWPOLYLINE
  5
3D7
330
17
100
AcDbEntity
  8
0
 62
8
100
AcDbPolyline
 90
4
 70
0
 10
294.6369282665588
 20
8.360947887379698
 10
297.4756814898975
 20
7.300154104557496
 10
298.3500798770839
 20
6.909999999999545
 10
294.6369237396285
 20
6.909999999999545
  0
LWPOLYLINE
  5
3D9
330
17
100
AcDbEntity
  8
0-LOUVRE
  6
CONTINUOUS
 62
8
100
AcDbPolyline
 90
8
 70
1
 10
249.7069279251415
 20
6.200000000000016
 10
250.7069279251415
 20
5.200000000000005
 10
251.7069279251415
 20
6.200000000000019
 10
252.7069279251415
 20
5.200000000000005
 10
253.7069279251415
 20
6.200000000000016
 10
254.7069279251415
 20
5.233383792237069
 10
254.7069279251415
 20
0.2000000000000233
 10
249.7069279251415
 20
0.2000000000000233
  0
LWPOLYLINE
  5
3DA
330
17
100
AcDbEntity
  8
0-LOUVRE
  6
CONTINUOUS
 62
8
100
AcDbPolyline
 90
8
 70
1
 10
259.7069279251415
 20
6.200000000000016
 10
258.7069279251415
 20
5.200000000000005
 10
257.7069279251415
 20
6.200000000000019
 10
256.7069279251415
 20
5.200000000000005
 10
255.7069279251415
 20
6.200000000000016
 10
254.7069279251415
 20
5.233383792237069
 10
254.7069279251415
 20
0.2000000000000233
 10
259.7069279251415
 20
0.2000000000000233
  0
LINE
  5
3DB
330
17
100
AcDbEntity
  8
0
 62
8
100
AcDbLine
 10
294.6369237396285
 20
3.669999999751013
 30
0.0
 11
294.6369237396285
 21
7.879999999751049
 31
0.0
  0
LINE
  5
3DC
330
17
100
AcDbEntity
  8
0
 62
8
100
AcDbLine
 10
294.6369237396285
 20
7.879999999751049
 30
0.0
 11
294.6369282665588
 21
7.879999999751049
 31
0.0
  0
LINE
  5
3DD
330
17
100
AcDbEntity
  8
0
 62
8
100
AcDbLine
 10
294.6369282665588
 20
7.879999999751049
 30
0.0
 11
294.6369282665588
 21
8.360947887379695
 31
0.0
  0
LINE
  5
3DE
330
17
100
AcDbEntity
  8
0
 62
8
100
AcDbLine
 10
294.6369282665588
 20
8.360947887379695
 30
0.0
 11
287.7964386238988
 21
10.8633224199531
 31
0.0
  0
LINE
  5
3DF
330
17
100
AcDbEntity
  8
0
 62
8
100
AcDbLine
 10
287.7964386238988
 20
10.8633224199531
 30
0.0
 11
278.4387189784221
 21
12.92251542636873
 31
0.0
  0
LINE
  5
3E0
330
17
100
AcDbEntity
  8
0
 62
8
100
AcDbLine
 10
278.4387189784221
 20
12.92251542636873
 30
0.0
 11
278.3068303842639
 21
12.92380282878653
 31
0.0
  0
LINE
  5
3E1
330
17
100
AcDbEntity
  8
0
 62
8
100
AcDbLine
 10
278.3068303842639
 20
12.92380282878653
 30
0.0
 11
266.4639499320448
 21
11.67658665964259
 31
0.0
  0
LINE
  5
3E2
330
17
100
AcDbEntity
  8
0
 62
8
100
AcDbLine
 10
266.4639499320448
 20
11.67658665964259
 30
0.0
 11
249.9369282665731
 21
8.87004270498906
 31
0.0
  0
LINE
  5
3E3
330
17
100
AcDbEntity
  8
0
 62
8
100
AcDbLine
 10
249.9369282665731
 20
8.87004270498906
 30
0.0
 11
249.7869282665735
 21
8.813844039650263
 31
0.0
  0
LINE
  5
3E4
330
17
100
AcDbEntity
  8
0
 62
8
100
AcDbLine
 10
249.7869282665735
 20
8.813844039650263
 30
0.0
 11
249.7869282665735
 21
4.410000000013764
 31
0.0
  0
LINE
  5
3E5
330
17
100
AcDbEntity
  8
0
 62
8
100
AcDbLine
 10
294.6369237396285
 20
3.669999999751013
 30
0.0
 11
294.6369237396285
 21
3.669999999751013
 31
0.0
  0
LWPOLYLINE
  5
3E7
330
17
100
AcDbEntity
  8
0-cortes
 62
251
100
AcDbPolyline
 90
195
 70
0
 10
281.8427793010429
 20
1.334024736101607
 10
281.8347605532737
 20
1.376989497611881
 10
281.8305429480678
 20
1.416069416994753
 10
281.8409771809233
 20
1.439457420775856
 10
281.8437427975284
 20
1.479189844103312
 10
281.8396744811124
 20
1.51005961485226
 10
281.8493060065382
 20
1.537928386499959
 10
281.8498838365071
 20
1.564214256382736
 10
281.8739208712457
 20
1.589304680177461
 10
281.8903104423764
 20
1.597874404453163
 10
281.9067064641755
 20
1.609912355285414
 10
281.9369837014256
 20
1.609030575285403
 10
281.9654248226675
 20
1.606827624764715
 10
282.0019616382377
 20
1.59039111852039
 10
282.0258897184077
 20
1.563221404989788
 10
282.0453719639482
 20
1.528259623151229
 10
282.0549283215537
 20
1.503074723081124
 10
282.067972855102
 20
1.482688957292397
 10
282.07202952905
 20
1.45819897542613
 10
282.077599652583
 20
1.438499002770913
 10
282.0831701615678
 20
1.425325972801642
 10
282.0831281370094
 20
1.402731308654431
 10
282.0808231537
 20
1.389470543146555
 10
282.0870996780008
 20
1.364067779602875
 10
282.0838992729826
 20
1.337038108731066
 10
282.0846653445789
 20
1.325499351580031
 10
282.0975510891596
 20
1.320855332865554
 10
282.111555868639
 20
1.311173248057297
 10
282.1214978932474
 20
1.291113200933221
 10
282.1246551127484
 20
1.269645203056789
 10
282.1293436239832
 20
1.237764952348443
 10
282.1337183799181
 20
1.208018128887706
 10
282.1383113322087
 20
1.173673735380362
 10
282.1382236054969
 20
1.126507134013329
 10
282.1444946385568
 20
1.091832281670795
 10
282.1432470014433
 20
1.053005687908182
 10
282.1447712227726
 20
1.031988654787186
 10
282.1574405443211
 20
0.9868203988284221
 10
282.1670308738868
 20
0.9526292656338334
 10
282.173740763676
 20
0.9287073832908209
 10
282.1736854199241
 20
0.8989516039666196
 10
282.177211224271
 20
0.8604680749497642
 10
282.1848126129692
 20
0.8142982086746052
 10
282.1920050616337
 20
0.775769466161015
 10
282.1919561817523
 20
0.7494890114309674
 10
282.1964118625002
 20
0.718336965789451
 10
282.201616894996
 20
0.6856157801934173
 10
282.2082407769446
 20
0.6636998060325717
 10
282.2057650654571
 20
0.6408025181021224
 10
282.1985761101562
 20
0.6243321575016743
 10
282.1929171311621
 20
0.6152177599866993
 10
282.2672357144329
 20
0.4301366713968604
 10
282.2878084594335
 20
0.3811143371290382
 10
282.2975520032301
 20
0.3554555655600997
 10
282.3129718225422
 20
0.3039728152371683
 10
282.3258828642222
 20
0.2560525551242172
 10
282.3275739465046
 20
0.2109943034511379
 10
282.3259796063315
 20
0.1690328621136579
 10
282.3220394422568
 20
0.1487298784354207
 10
282.316952229553
 20
0.1225163516539762
 10
282.2898265816037
 20
0.1137490646684749
 10
282.2674508040432
 20
0.1097209409318167
 10
282.2428628315593
 20
0.0980821644261743
 10
282.2211763659668
 20
0.0981224997961983
 10
282.2001513790961
 20
0.0935863455134531
 10
282.1376274222412
 20
0.0918405373170828
 10
282.1223780489617
 20
0.1085701964821055
 10
282.1292562870468
 20
0.134933933526467
 10
282.126058532591
 20
0.1535672656899991
 10
282.1103470248221
 20
0.2062151700038961
 10
282.1039732555377
 20
0.2488505247939465
 10
282.1117948668881
 20
0.3147645044571838
 10
282.1205781980669
 20
0.3732155032209414
 10
282.1313392667126
 20
0.4332945593765039
 10
282.1622683733124
 20
0.6122608525180407
 10
282.1534422415814
 20
0.6255935128648998
 10
282.1445496981129
 20
0.6348181617689117
 10
282.1419097540232
 20
0.6184161278819374
 10
282.1406200531516
 20
0.6012117121183694
 10
282.1370656677984
 20
0.5924133484068297
 10
282.1248167034155
 20
0.5918410269953749
 10
282.1154059789083
 20
0.5878911725560175
 10
282.085869909706
 20
0.5891235170596194
 10
282.0752694931814
 20
0.5395832560087146
 10
282.0642260907429
 20
0.4879727331176258
 10
282.0563295810122
 20
0.4427125703306669
 10
282.0530333050911
 20
0.4083754607477608
 10
282.053366231493
 20
0.3788244252178559
 10
282.0540246423005
 20
0.3599590543900124
 10
282.0580909235427
 20
0.3279950645618084
 10
282.0539197185709
 20
0.2719478970262865
 10
282.048183743508
 20
0.2151165672710777
 10
282.0330862102558
 20
0.1491713275852238
 10
282.0189046865796
 20
0.0891050322107767
 10
282.0106012884952
 20
0.061182598623069
 10
282.0075439020253
 20
0.0415306673782325
 10
282.0047823841737
 20
0.0103216566351621
 10
282.0114493526204
 20
-0.0010681016846936
 10
282.0132309354859
 20
-0.0290668833374803
 10
282.0335897671007
 20
-0.054067108431991
 10
282.0381172959196
 20
-0.0655488719998538
 10
282.0311479878796
 20
-0.090319097593965
 10
281.9515709624981
 20
-0.0908237840098445
 10
281.9427261425541
 20
-0.0748995084345077
 10
281.9480673393808
 20
-0.0533705294720566
 10
281.9457271330356
 20
-0.0286917711961285
 10
281.9457746442328
 20
-0.0031471947941899
 10
281.9528294906852
 20
0.0044160571835965
 10
281.9499524722051
 20
0.1133381765422965
 10
281.950047982565
 20
0.1646896859672564
 10
281.9469700953417
 20
0.1908927697408802
 10
281.9465995014733
 20
0.2507493694049043
 10
281.9508310180607
 20
0.2823459828598574
 10
281.952901217174
 20
0.3147272898437516
 10
281.9503454650203
 20
0.3435913715544596
 10
281.9483069993838
 20
0.3661899052737429
 10
281.9444132818656
 20
0.3961379004478367
 10
281.9418175413115
 20
0.4161026835167286
 10
281.9418590630526
 20
0.4384270060318963
 10
281.9387681931488
 20
0.4450492837438796
 10
281.9345607224006
 20
0.4327007096396703
 10
281.9308572678809
 20
0.4069517672304941
 10
281.9271122658353
 20
0.3809139580771301
 10
281.9185838061974
 20
0.3552901618432371
 10
281.9223641044526
 20
0.3338785957588555
 10
281.9273491161374
 20
0.3029367314127884
 10
281.9333983477481
 20
0.2754035355649251
 10
281.9333478016424
 20
0.2482272289570102
 10
281.9353554110241
 20
0.2153584152145487
 10
281.9341531739237
 20
0.1946216085806518
 10
281.9313154512168
 20
0.1729983878257775
 10
281.9280512363095
 20
0.1369398972631171
 10
281.9250068425851
 20
0.0863553492927167
 10
281.922898246999
 20
0.0143709247824737
 10
281.9319658892347
 20
0.0044932558669535
 10
281.9365073088154
 20
-0.0627171120637358
 10
281.9220830782839
 20
-0.070004299953216
 10
281.8998420219518
 20
-0.0900748773129161
 10
281.8193258759835
 20
-0.0899251226870837
 10
281.8103303536563
 20
-0.0791901267172797
 10
281.8195052823311
 20
-0.056663640871804
 10
281.8398887970736
 20
-0.0367943754614535
 10
281.8523975382202
 20
-0.0103067325282318
 10
281.8568198882871
 20
-0.002501822610895
 10
281.858832968911
 20
0.0118089159320953
 10
281.8691836114142
 20
0.0155330584419429
 10
281.8714163319979
 20
0.0278597095922599
 10
281.8681396142159
 20
0.0419563230608913
 10
281.8347926142445
 20
0.1492457880111617
 10
281.8336269226727
 20
0.2239942560128694
 10
281.8259182202334
 20
0.2819832086146055
 10
281.825667781935
 20
0.3369251803529623
 10
281.8260046764824
 20
0.3979834693905144
 10
281.8260817036536
 20
0.439397421914284
 10
281.8213504281147
 20
0.4677280369662769
 10
281.8142242675716
 20
0.5039786249616154
 10
281.8119057386467
 20
0.5466320331343888
 10
281.8103125209933
 20
0.57594206767976
 10
281.7938096626581
 20
0.5937876624047785
 10
281.7891366416588
 20
0.6155208370998447
 10
281.7867146156029
 20
0.6341271306040146
 10
281.7790994759497
 20
0.6665840423444607
 10
281.7690025092903
 20
0.6918147406599747
 10
281.7680752868092
 20
0.7431041626582596
 10
281.7614971838218
 20
0.7643545594040773
 10
281.7683623393486
 20
0.7963238133513518
 10
281.7794017766527
 20
0.8291171687496973
 10
281.7878855981208
 20
0.8655690859342142
 10
281.797426810694
 20
0.8891187247762282
 10
281.8057278000542
 20
0.909426395540053
 10
281.8136747503656
 20
0.9163352939250323
 10
281.8099808996432
 20
0.9273483825269067
 10
281.8117645736939
 20
0.9447118536357596
 10
281.7768981446267
 20
0.9555205636118046
 10
281.7511866284381
 20
0.9654547848720543
 10
281.7303784151423
 20
0.9763525288639943
 10
281.7232574563954
 20
0.9838013696777348
 10
281.7183582998623
 20
0.9913868552985224
 10
281.7178173310594
 20
1.003878639428032
 10
281.7174238035989
 20
1.01980639305897
 10
281.7176023511298
 20
1.033647020365271
 10
281.7208589114035
 20
1.046630860546429
 10
281.7264262180612
 20
1.063334600013113
 10
281.7311328364866
 20
1.091263723369498
 10
281.7353213379836
 20
1.112372514636037
 10
281.7440271605291
 20
1.154429511483671
 10
281.7536958638639
 20
1.214926532033758
 10
281.7585179413286
 20
1.241735621922926
 10
281.7675850398932
 20
1.269483863047993
 10
281.7788473332888
 20
1.289382891245506
 10
281.7923450708337
 20
1.304113797621758
 10
281.8115028017079
 20
1.315865057438684
 10
281.8277160839132
 20
1.324447907528738
 10
281.8401610773778
 20
1.329300771336318
 10
281.8427793010429
 20
1.334024736101607
  0
LWPOLYLINE
  5
3E9
330
17
100
AcDbEntity
  8
0-VENTANAS
 62
8
100
AcDbPolyline
 90
4
 70
1
 10
283.3694282666762
 20
1.012943725152289
 10
282.5209001292524
 20
1.86147186257613
 10
283.3694282666762
 20
2.709999999999999
 10
284.2179564041
 20
1.86147186257613
  0
LWPOLYLINE
  5
3EA
330
17
100
AcDbEntity
  8
0-VENTANAS
 62
8
100
AcDbPolyline
 90
4
 70
1
 10
283.3694282666762
 20
1.104867606706526
 10
282.6128240108066
 20
1.86147186257613
 10
283.3694282666762
 20
2.61807611844572
 10
284.1260325225458
 20
1.861471862576116
  0
LWPOLYLINE
  5
3EB
330
17
100
AcDbEntity
  8
0-VENTANAS
 62
8
100
AcDbPolyline
 90
4
 70
1
 10
289.2494282666763
 20
1.012943725152289
 10
288.4009001292525
 20
1.86147186257613
 10
289.2494282666763
 20
2.709999999999999
 10
290.0979564041001
 20
1.86147186257613
  0
LWPOLYLINE
  5
3EC
330
17
100
AcDbEntity
  8
0-VENTANAS
 62
8
100
AcDbPolyline
 90
4
 70
1
 10
289.2494282666763
 20
1.104867606706526
 10
288.4928240108067
 20
1.86147186257613
 10
289.2494282666763
 20
2.61807611844572
 10
290.0060325225459
 20
1.861471862576116
  0
LINE
  5
3ED
330
17
100
AcDbEntity
  8
A-WALL
 62
11
100
AcDbLine
 10
249.7869282665735
 20
4.410000000013764
 30
0.0
 11
249.7869282665735
 21
-0.0899999999999999
 31
0.0
  0
LWPOLYLINE
  5
3EF
330
17
100
AcDbEntity
  8
0-COD LOU
100
AcDbPolyline
 90
8
 70
1
 10
249.7069279251416
 20
6.2000000000002
 10
250.7069279251417
 20
5.20000000000019
 10
251.7069279251416
 20
6.200000000000204
 10
252.7069279251417
 20
5.20000000000019
 10
253.7069279251416
 20
6.2000000000002
 10
254.7069279251417
 20
5.233383792237254
 10
254.7069279251417
 20
0.200000000000208
 10
249.7069279251416
 20
0.200000000000208
  0
LWPOLYLINE
  5
3F0
330
17
100
AcDbEntity
  8
0-COD LOU
100
AcDbPolyline
 90
8
 70
1
 10
259.7069279251413
 20
6.2000000000002
 10
258.7069279251413
 20
5.20000000000019
 10
257.7069279251413
 20
6.200000000000204
 10
256.7069279251413
 20
5.20000000000019
 10
255.7069279251413
 20
6.2000000000002
 10
254.7069279251413
 20
5.233383792237254
 10
254.7069279251413
 20
0.200000000000208
 10
259.7069279251413
 20
0.200000000000208
  0
ENDSEC
  0
SECTION
  2
OBJECTS
  0
DICTIONARY
  5
A
330
0
100
AcDbDictionary
281
1
  3
ACAD_COLOR
350
B
  3
ACAD_GROUP
350
C
  3
ACAD_LAYOUT
350
D
  3
ACAD_MATERIAL
350
E
  3
ACAD_MLEADERSTYLE
350
F
  3
ACAD_MLINESTYLE
350
10
  3
ACAD_PLOTSETTINGS
350
11
  3
ACAD_PLOTSTYLENAME
350
12
  3
ACAD_SCALELIST
350
14
  3
ACAD_TABLESTYLE
350
15
  3
ACAD_VISUALSTYLE
350
16
  3
EZDXF_META
350
2D
  0
DICTIONARY
  5
B
330
A
100
AcDbDictionary
281
1
  0
DICTIONARY
  5
C
330
A
100
AcDbDictionary
281
1
  0
DICTIONARY
  5
D
330
A
100
AcDbDictionary
281
1
  3
Model
350
1A
  3
Layout1
350
1E
  0
DICTIONARY
  5
E
330
A
100
AcDbDictionary
281
1
  3
ByBlock
350
1F
  3
ByLayer
350
20
  3
Global
350
21
  0
DICTIONARY
  5
F
330
A
100
AcDbDictionary
281
1
  3
Standard
350
2C
  0
DICTIONARY
  5
10
330
A
100
AcDbDictionary
281
1
  3
Standard
350
22
  0
DICTIONARY
  5
11
330
A
100
AcDbDictionary
281
1
  0
ACDBDICTIONARYWDFLT
  5
12
330
A
100
AcDbDictionary
281
1
  3
Normal
350
13
100
AcDbDictionaryWithDefault
340
13
  0
ACDBPLACEHOLDER
  5
13
330
12
  0
DICTIONARY
  5
14
330
A
100
AcDbDictionary
281
1
  0
DICTIONARY
  5
15
330
A
100
AcDbDictionary
281
1
  0
DICTIONARY
  5
16
330
A
100
AcDbDictionary
281
1
  0
LAYOUT
  5
1A
330
D
100
AcDbPlotSettings
  1

  4
A3
  6

 40
7.5
 41
20.0
 42
7.5
 43
20.0
 44
420.0
 45
297.0
 46
0.0
 47
0.0
 48
0.0
 49
0.0
140
0.0
141
0.0
142
1.0
143
1.0
 70
1024
 72
1
 73
0
 74
5
  7

 75
16
 76
0
 77
2
 78
300
147
1.0
148
0.0
149
0.0
100
AcDbLayout
  1
Model
 70
1
 71
0
 10
0.0
 20
0.0
 11
420.0
 21
297.0
 12
0.0
 22
0.0
 32
0.0
 14
1e+20
 24
1e+20
 34
1e+20
 15
-1e+20
 25
-1e+20
 35
-1e+20
146
0.0
 13
0.0
 23
0.0
 33
0.0
 16
1.0
 26
0.0
 36
0.0
 17
0.0
 27
1.0
 37
0.0
 76
1
330
17
  0
LAYOUT
  5
1E
330
D
100
AcDbPlotSettings
  1

  4
A3
  6

 40
7.5
 41
20.0
 42
7.5
 43
20.0
 44
420.0
 45
297.0
 46
0.0
 47
0.0
 48
0.0
 49
0.0
140
0.0
141
0.0
142
1.0
143
1.0
 70
0
 72
1
 73
0
 74
5
  7

 75
16
 76
0
 77
2
 78
300
147
1.0
148
0.0
149
0.0
100
AcDbLayout
  1
Layout1
 70
1
 71
1
 10
0.0
 20
0.0
 11
420.0
 21
297.0
 12
0.0
 22
0.0
 32
0.0
 14
1e+20
 24
1e+20
 34
1e+20
 15
-1e+20
 25
-1e+20
 35
-1e+20
146
0.0
 13
0.0
 23
0.0
 33
0.0
 16
1.0
 26
0.0
 36
0.0
 17
0.0
 27
1.0
 37
0.0
 76
1
330
1B
  0
MATERIAL
  5
1F
102
{ACAD_REACTORS
330
E
102
}
330
E
100
AcDbMaterial
  1
ByBlock
  2

 70
0
 40
1.0
 71
1
 41
1.0
 91
-1023410177
 42
1.0
 72
1
  3

 73
1
 74
1
 75
1
 44
0.5
 73
0
 45
1.0
 46
1.0
 77
1
  4

 78
1
 79
1
170
1
 48
1.0
171
1
  6

172
1
173
1
174
1
140
1.0
141
1.0
175
1
  7

176
1
177
1
178
1
143
1.0
179
1
  8

270
1
271
1
272
1
145
1.0
146
1.0
273
1
  9

274
1
275
1
276
1
 42
1.0
 72
1
  3

 73
1
 74
1
 75
1
 94
63
  0
MATERIAL
  5
20
102
{ACAD_REACTORS
330
E
102
}
330
E
100
AcDbMaterial
  1
ByLayer
  2

 70
0
 40
1.0
 71
1
 41
1.0
 91
-1023410177
 42
1.0
 72
1
  3

 73
1
 74
1
 75
1
 44
0.5
 73
0
 45
1.0
 46
1.0
 77
1
  4

 78
1
 79
1
170
1
 48
1.0
171
1
  6

172
1
173
1
174
1
140
1.0
141
1.0
175
1
  7

176
1
177
1
178
1
143
1.0
179
1
  8

270
1
271
1
272
1
145
1.0
146
1.0
273
1
  9

274
1
275
1
276
1
 42
1.0
 72
1
  3

 73
1
 74
1
 75
1
 94
63
  0
MATERIAL
  5
21
102
{ACAD_REACTORS
330
E
102
}
330
E
100
AcDbMaterial
  1
Global
  2

 70
0
 40
1.0
 71
1
 41
1.0
 91
-1023410177
 42
1.0
 72
1
  3

 73
1
 74
1
 75
1
 44
0.5
 73
0
 45
1.0
 46
1.0
 77
1
  4

 78
1
 79
1
170
1
 48
1.0
171
1
  6

172
1
173
1
174
1
140
1.0
141
1.0
175
1
  7

176
1
177
1
178
1
143
1.0
179
1
  8

270
1
271
1
272
1
145
1.0
146
1.0
273
1
  9

274
1
275
1
276
1
 42
1.0
 72
1
  3

 73
1
 74
1
 75
1
 94
63
  0
MLINESTYLE
  5
22
102
{ACAD_REACTORS
330
10
102
}
330
10
100
AcDbMlineStyle
  2
Standard
 70
0
  3

 62
256
 51
90.0
 52
90.0
 71
2
 49
0.5
 62
256
  6
BYLAYER
 49
-0.5
 62
256
  6
BYLAYER
  0
MLEADERSTYLE
  5
2C
102
{ACAD_REACTORS
330
F
102
}
330
F
100
AcDbMLeaderStyle
179
2
170
2
171
1
172
0
 90
2
 40
0.0
 41
0.0
173
1
 91
-1056964608
 92
-2
290
1
 42
2.0
291
1
 43
8.0
  3
Standard
 44
4.0
300

342
29
174
1
175
1
176
0
178
1
 93
-1056964608
 45
4.0
292
0
297
0
 46
4.0
 94
-1056964608
 47
1.0
 49
1.0
140
1.0
294
1
141
0.0
177
0
142
1.0
295
0
296
0
143
3.75
271
0
272
9
273
9
  0
DICTIONARY
  5
2D
330
A
100
AcDbDictionary
280
1
281
1
  3
CREATED_BY_EZDXF
350
2E
  3
WRITTEN_BY_EZDXF
350
3F3
  0
DICTIONARYVAR
  5
2E
330
2D
100
DictionaryVariables
280
0
  1
1.4.4 @ 2026-10-03T07:35:23.382257+00:00
  0
DICTIONARYVAR
  5
3F3
330
2D
100
DictionaryVariables
280
0
  1
1.4.4 @ 2026-10-03T07:35:23.400742+00:00
  0
ENDSEC
  0
EOF
