  0
SECTION
  2
HEADER
  9
$ACADVER
  1
AC1032
  9
$ACADMAINTVER
 90
4
  9
$DWGCODEPAGE
  3
ANSI_1252
  9
$LASTSAVEDBY
  1
ezdxf
  9
$REQUIREDVERSIONS
160
0
  9
$INSBASE
 10
0.0
 20
0.0
 30
0.0
  9
$EXTMIN
 10
1e+20
 20
1e+20
 30
1e+20
  9
$EXTMAX
 10
-1e+20
 20
-1e+20
 30
-1e+20
  9
$LIMMIN
 10
0.0
 20
0.0
  9
$LIMMAX
 10
420.0
 20
297.0
  9
$ORTHOMODE
 70
0
  9
$REGENMODE
 70
1
  9
$FILLMODE
 70
1
  9
$QTEXTMODE
 70
0
  9
$MIRRTEXT
 70
1
  9
$LTSCALE
 40
1.0
  9
$ATTMODE
 70
1
  9
$TEXTSIZE
 40
2.5
  9
$TRACEWID
 40
1.0
  9
$TEXTSTYLE
  7
Standard
  9
$CLAYER
  8
0
  9
$CELTYPE
  6
ByLayer
  9
$CECOLOR
 62
256
  9
$CELTSCALE
 40
1.0
  9
$DISPSILH
 70
0
  9
$DIMSCALE
 40
1.0
  9
$DIMASZ
 40
2.5
  9
$DIMEXO
 40
0.625
  9
$DIMDLI
 40
3.75
  9
$DIMRND
 40
0.0
  9
$DIMDLE
 40
0.0
  9
$DIMEXE
 40
1.25
  9
$DIMTP
 40
0.0
  9
$DIMTM
 40
0.0
  9
$DIMTXT
 40
2.5
  9
$DIMCEN
 40
2.5
  9
$DIMTSZ
 40
0.0
  9
$DIMTOL
 70
0
  9
$DIMLIM
 70
0
  9
$DIMTIH
 70
0
  9
$DIMTOH
 70
0
  9
$DIMSE1
 70
0
  9
$DIMSE2
 70
0
  9
$DIMTAD
 70
1
  9
$DIMZIN
 70
8
  9
$DIMBLK
  1

  9
$DIMASO
 70
1
  9
$DIMSHO
 70
1
  9
$DIMPOST
  1

  9
$DIMAPOST
  1

  9
$DIMALT
 70
0
  9
$DIMALTD
 70
3
  9
$DIMALTF
 40
0.03937007874
  9
$DIMLFAC
 40
1.0
  9
$DIMTOFL
 70
1
  9
$DIMTVP
 40
0.0
  9
$DIMTIX
 70
0
  9
$DIMSOXD
 70
0
  9
$DIMSAH
 70
0
  9
$DIMBLK1
  1

  9
$DIMBLK2
  1

  9
$DIMSTYLE
  2
ISO-25
  9
$DIMCLRD
 70
0
  9
$DIMCLRE
 70
0
  9
$DIMCLRT
 70
0
  9
$DIMTFAC
 40
1.0
  9
$DIMGAP
 40
0.625
  9
$DIMJUST
 70
0
  9
$DIMSD1
 70
0
  9
$DIMSD2
 70
0
  9
$DIMTOLJ
 70
0
  9
$DIMTZIN
 70
8
  9
$DIMALTZ
 70
0
  9
$DIMALTTZ
 70
0
  9
$DIMUPT
 70
0
  9
$DIMDEC
 70
2
  9
$DIMTDEC
 70
2
  9
$DIMALTU
 70
2
  9
$DIMALTTD
 70
3
  9
$DIMTXSTY
  7
Standard
  9
$DIMAUNIT
 70
0
  9
$DIMADEC
 70
0
  9
$DIMALTRND
 40
0.0
  9
$DIMAZIN
 70
0
  9
$DIMDSEP
 70
44
  9
$DIMATFIT
 70
3
  9
$DIMFRAC
 70
0
  9
$DIMLDRBLK
  1

  9
$DIMLUNIT
 70
2
  9
$DIMLWD
 70
-2
  9
$DIMLWE
 70
-2
  9
$DIMTMOVE
 70
0
  9
$DIMFXL
 40
1.0
  9
$DIMFXLON
 70
0
  9
$DIMJOGANG
 40
0.785398163397
  9
$DIMTFILL
 70
0
  9
$DIMTFILLCLR
 70
0
  9
$DIMARCSYM
 70
0
  9
$DIMLTYPE
  6

  9
$DIMLTEX1
  6

  9
$DIMLTEX2
  6

  9
$DIMTXTDIRECTION
 70
0
  9
$LUNITS
 70
2
  9
$LUPREC
 70
4
  9
$SKETCHINC
 40
1.0
  9
$FILLETRAD
 40
10.0
  9
$AUNITS
 70
0
  9
$AUPREC
 70
2
  9
$MENU
  1
.
  9
$ELEVATION
 40
0.0
  9
$PELEVATION
 40
0.0
  9
$THICKNESS
 40
0.0
  9
$LIMCHECK
 70
0
  9
$CHAMFERA
 40
0.0
  9
$CHAMFERB
 40
0.0
  9
$CHAMFERC
 40
0.0
  9
$CHAMFERD
 40
0.0
  9
$SKPOLY
 70
0
  9
$TDCREATE
 40
2461317.316284722
  9
$TDUCREATE
 40
2458532.153996898
  9
$TDUPDATE
 40
2461317.316284722
  9
$TDUUPDATE
 40
2458532.1544311
  9
$TDINDWG
 40
0.0
  9
$TDUSRTIMER
 40
0.0
  9
$USRTIMER
 70
1
  9
$ANGBASE
 50
0.0
  9
$ANGDIR
 70
0
  9
$PDMODE
 70
0
  9
$PDSIZE
 40
0.0
  9
$PLINEWID
 40
0.0
  9
$SPLFRAME
 70
0
  9
$SPLINETYPE
 70
6
  9
$SPLINESEGS
 70
8
  9
$HANDSEED
  5
19F
  9
$SURFTAB1
 70
6
  9
$SURFTAB2
 70
6
  9
$SURFTYPE
 70
6
  9
$SURFU
 70
6
  9
$SURFV
 70
6
  9
$UCSBASE
  2

  9
$UCSNAME
  2

  9
$UCSORG
 10
0.0
 20
0.0
 30
0.0
  9
$UCSXDIR
 10
1.0
 20
0.0
 30
0.0
  9
$UCSYDIR
 10
0.0
 20
1.0
 30
0.0
  9
$UCSORTHOREF
  2

  9
$UCSORTHOVIEW
 70
0
  9
$UCSORGTOP
 10
0.0
 20
0.0
 30
0.0
  9
$UCSORGBOTTOM
 10
0.0
 20
0.0
 30
0.0
  9
$UCSORGLEFT
 10
0.0
 20
0.0
 30
0.0
  9
$UCSORGRIGHT
 10
0.0
 20
0.0
 30
0.0
  9
$UCSORGFRONT
 10
0.0
 20
0.0
 30
0.0
  9
$UCSORGBACK
 10
0.0
 20
0.0
 30
0.0
  9
$PUCSBASE
  2

  9
$PUCSNAME
  2

  9
$PUCSORG
 10
0.0
 20
0.0
 30
0.0
  9
$PUCSXDIR
 10
1.0
 20
0.0
 30
0.0
  9
$PUCSYDIR
 10
0.0
 20
1.0
 30
0.0
  9
$PUCSORTHOREF
  2

  9
$PUCSORTHOVIEW
 70
0
  9
$PUCSORGTOP
 10
0.0
 20
0.0
 30
0.0
  9
$PUCSORGBOTTOM
 10
0.0
 20
0.0
 30
0.0
  9
$PUCSORGLEFT
 10
0.0
 20
0.0
 30
0.0
  9
$PUCSORGRIGHT
 10
0.0
 20
0.0
 30
0.0
  9
$PUCSORGFRONT
 10
0.0
 20
0.0
 30
0.0
  9
$PUCSORGBACK
 10
0.0
 20
0.0
 30
0.0
  9
$USERI1
 70
0
  9
$USERI2
 70
0
  9
$USERI3
 70
0
  9
$USERI4
 70
0
  9
$USERI5
 70
0
  9
$USERR1
 40
0.0
  9
$USERR2
 40
0.0
  9
$USERR3
 40
0.0
  9
$USERR4
 40
0.0
  9
$USERR5
 40
0.0
  9
$WORLDVIEW
 70
1
  9
$SHADEDGE
 70
3
  9
$SHADEDIF
 70
70
  9
$TILEMODE
 70
1
  9
$MAXACTVP
 70
64
  9
$PINSBASE
 10
0.0
 20
0.0
 30
0.0
  9
$PLIMCHECK
 70
0
  9
$PEXTMIN
 10
1e+20
 20
1e+20
 30
1e+20
  9
$PEXTMAX
 10
-1e+20
 20
-1e+20
 30
-1e+20
  9
$PLIMMIN
 10
0.0
 20
0.0
  9
$PLIMMAX
 10
420.0
 20
297.0
  9
$UNITMODE
 70
0
  9
$VISRETAIN
 70
1
  9
$PLINEGEN
 70
0
  9
$PSLTSCALE
 70
1
  9
$TREEDEPTH
 70
3020
  9
$CMLSTYLE
  2
Standard
  9
$CMLJUST
 70
0
  9
$CMLSCALE
 40
20.0
  9
$PROXYGRAPHICS
 70
1
  9
$MEASUREMENT
 70
1
  9
$CELWEIGHT
370
-1
  9
$ENDCAPS
280
0
  9
$JOINSTYLE
280
0
  9
$LWDISPLAY
290
0
  9
$INSUNITS
 70
6
  9
$HYPERLINKBASE
  1

  9
$STYLESHEET
  1

  9
$XEDIT
290
1
  9
$CEPSNTYPE
380
0
  9
$PSTYLEMODE
290
1
  9
$FINGERPRINTGUID
  2
{48485802-C506-4301-9C7D-A696F82BC852}
  9
$VERSIONGUID
  2
{6C328F76-0F07-4558-88E9-6DF7F5E17885}
  9
$EXTNAMES
290
1
  9
$PSVPSCALE
 40
0.0
  9
$OLESTARTUP
290
0
  9
$SORTENTS
280
127
  9
$INDEXCTL
280
0
  9
$HIDETEXT
280
1
  9
$XCLIPFRAME
280
1
  9
$HALOGAP
280
0
  9
$OBSCOLOR
 70
257
  9
$OBSLTYPE
280
0
  9
$INTERSECTIONDISPLAY
280
0
  9
$INTERSECTIONCOLOR
 70
257
  9
$DIMASSOC
280
2
  9
$PROJECTNAME
  1

  9
$CAMERADISPLAY
290
0
  9
$LENSLENGTH
 40
50.0
  9
$CAMERAHEIGHT
 40
0.0
  9
$STEPSPERSEC
 40
24.0
  9
$STEPSIZE
 40
100.0
  9
$3DDWFPREC
 40
2.0
  9
$PSOLWIDTH
 40
0.005
  9
$PSOLHEIGHT
 40
0.08
  9
$LOFTANG1
 40
1.570796326795
  9
$LOFTANG2
 40
1.570796326795
  9
$LOFTMAG1
 40
0.0
  9
$LOFTMAG2
 40
0.0
  9
$LOFTPARAM
 70
7
  9
$LOFTNORMALS
280
1
  9
$LATITUDE
 40
37.795
  9
$LONGITUDE
 40
-122.394
  9
$NORTHDIRECTION
 40
0.0
  9
$TIMEZONE
 70
-8000
  9
$LIGHTGLYPHDISPLAY
280
1
  9
$TILEMODELIGHTSYNCH
280
1
  9
$CMATERIAL
347
20
  9
$SOLIDHIST
280
0
  9
$SHOWHIST
280
1
  9
$DWFFRAME
280
2
  9
$DGNFRAME
280
2
  9
$REALWORLDSCALE
290
1
  9
$INTERFERECOLOR
 62
256
  9
$CSHADOW
280
0
  9
$SHADOWPLANELOCATION
 40
0.0
  0
ENDSEC
  0
SECTION
  2
CLASSES
  0
CLASS
  1
ACDBDICTIONARYWDFLT
  2
AcDbDictionaryWithDefault
  3
ObjectDBX Classes
 90
0
 91
0
280
0
281
0
  0
CLASS
  1
SUN
  2
AcDbSun
  3
SCENEOE
 90
1153
 91
0
280
0
281
0
  0
CLASS
  1
VISUALSTYLE
  2
AcDbVisualStyle
  3
ObjectDBX Classes
 90
4095
 91
0
280
0
281
0
  0
CLASS
  1
MATERIAL
  2
AcDbMaterial
  3
ObjectDBX Classes
 90
1153
 91
0
280
0
281
0
  0
CLASS
  1
SCALE
  2
AcDbScale
  3
ObjectDBX Classes
 90
1153
 91
0
280
0
281
0
  0
CLASS
  1
TABLESTYLE
  2
AcDbTableStyle
  3
ObjectDBX Classes
 90
4095
 91
0
280
0
281
0
  0
CLASS
  1
MLEADERSTYLE
  2
AcDbMLeaderStyle
  3
ACDB_MLEADERSTYLE_CLASS
 90
4095
 91
0
280
0
281
0
  0
CLASS
  1
DICTIONARYVAR
  2
AcDbDictionaryVar
  3
ObjectDBX Classes
 90
0
 91
0
280
0
281
0
  0
CLASS
  1
CELLSTYLEMAP
  2
AcDbCellStyleMap
  3
ObjectDBX Classes
 90
1152
 91
0
280
0
281
0
  0
CLASS
  1
MENTALRAYRENDERSETTINGS
  2
AcDbMentalRayRenderSettings
  3
SCENEOE
 90
1024
 91
0
280
0
281
0
  0
CLASS
  1
ACDBDETAILVIEWSTYLE
  2
AcDbDetailViewStyle
  3
ObjectDBX Classes
 90
1025
 91
0
280
0
281
0
  0
CLASS
  1
ACDBSECTIONVIEWSTYLE
  2
AcDbSectionViewStyle
  3
ObjectDBX Classes
 90
1025
 91
0
280
0
281
0
  0
CLASS
  1
RASTERVARIABLES
  2
AcDbRasterVariables
  3
ISM
 90
0
 91
0
280
0
281
0
  0
CLASS
  1
ACDBPLACEHOLDER
  2
AcDbPlaceHolder
  3
ObjectDBX Classes
 90
0
 91
0
280
0
281
0
  0
CLASS
  1
LAYOUT
  2
AcDbLayout
  3
ObjectDBX Classes
 90
0
 91
0
280
0
281
0
  0
ENDSEC
  0
SECTION
  2
TABLES
  0
TABLE
  2
VPORT
  5
8
330
0
100
AcDbSymbolTable
 70
1
  0
VPORT
  5
23
330
8
100
AcDbSymbolTableRecord
100
AcDbViewportTableRecord
  2
*Active
 70
0
 10
0.0
 20
0.0
 11
1.0
 21
1.0
 12
0.0
 22
0.0
 13
0.0
 23
0.0
 14
0.5
 24
0.5
 15
0.5
 25
0.5
 16
0.0
 26
0.0
 36
1.0
 17
0.0
 27
0.0
 37
0.0
 40
1000.0
 41
1.34
 42
50.0
 43
0.0
 44
0.0
 50
0.0
 51
0.0
 71
0
 72
1000
 73
1
 74
3
 75
0
 76
0
 77
0
 78
0
281
0
 65
0
146
0.0
  0
ENDTAB
  0
TABLE
  2
LTYPE
  5
2
330
0
100
AcDbSymbolTable
 70
3
  0
LTYPE
  5
24
330
2
100
AcDbSymbolTableRecord
100
AcDbLinetypeTableRecord
  2
ByBlock
 70
0
  3

 72
65
 73
0
 40
0.0
  0
LTYPE
  5
25
330
2
100
AcDbSymbolTableRecord
100
AcDbLinetypeTableRecord
  2
ByLayer
 70
0
  3

 72
65
 73
0
 40
0.0
  0
LTYPE
  5
26
330
2
100
AcDbSymbolTableRecord
100
AcDbLinetypeTableRecord
  2
Continuous
 70
0
  3

 72
65
 73
0
 40
0.0
  0
ENDTAB
  0
TABLE
  2
LAYER
  5
1
330
0
100
AcDbSymbolTable
 70
6
  0
LAYER
  5
27
330
1
100
AcDbSymbolTableRecord
100
AcDbLayerTableRecord
  2
0
 70
0
 62
7
  6
Continuous
370
-3
390
13
347
21
  0
LAYER
  5
28
330
1
100
AcDbSymbolTableRecord
100
AcDbLayerTableRecord
  2
Defpoints
 70
0
 62
7
  6
Continuous
290
0
370
-3
390
13
347
21
  0
LAYER
  5
3B
330
1
100
AcDbSymbolTableRecord
100
AcDbLayerTableRecord
  2
0-COTAS REF
 70
0
 62
7
  6
Continuous
370
-3
390
13
347
21
  0
LAYER
  5
B5
330
1
100
AcDbSymbolTableRecord
100
AcDbLayerTableRecord
  2
0-TEXTO
 70
0
 62
7
  6
Continuous
370
-3
390
13
347
21
  0
LAYER
  5
13A
330
1
100
AcDbSymbolTableRecord
100
AcDbLayerTableRecord
  2
0-TEXTO DETALLE
 70
0
 62
7
  6
Continuous
370
-3
390
13
347
21
  0
LAYER
  5
196
330
1
100
AcDbSymbolTableRecord
100
AcDbLayerTableRecord
  2
0-cortes
 70
0
 62
7
  6
Continuous
370
-3
390
13
347
21
  0
ENDTAB
  0
TABLE
  2
STYLE
  5
5
330
0
100
AcDbSymbolTable
 70
1
  0
STYLE
  5
29
330
5
100
AcDbSymbolTableRecord
100
AcDbTextStyleTableRecord
  2
Standard
 70
0
 40
0.0
 41
1.0
 50
0.0
 71
0
 42
2.5
  3
txt
  4

  0
ENDTAB
  0
TABLE
  2
VIEW
  5
7
330
0
100
AcDbSymbolTable
 70
0
  0
ENDTAB
  0
TABLE
  2
UCS
  5
6
330
0
100
AcDbSymbolTable
 70
0
  0
ENDTAB
  0
TABLE
  2
APPID
  5
3
330
0
100
AcDbSymbolTable
 70
3
  0
APPID
  5
2A
330
3
100
AcDbSymbolTableRecord
100
AcDbRegAppTableRecord
  2
ACAD
 70
0
  0
APPID
  5
19C
330
3
100
AcDbSymbolTableRecord
100
AcDbRegAppTableRecord
  2
HATCHBACKGROUNDCOLOR
 70
0
  0
APPID
  5
19D
330
3
100
AcDbSymbolTableRecord
100
AcDbRegAppTableRecord
  2
EZDXF
 70
0
  0
ENDTAB
  0
TABLE
  2
DIMSTYLE
  5
4
330
0
100
AcDbSymbolTable
 70
1
100
AcDbDimStyleTable
  0
DIMSTYLE
105
2B
330
4
100
AcDbSymbolTableRecord
100
AcDbDimStyleTableRecord
  2
Standard
 70
0
 40
1.0
 41
2.5
 42
0.625
 43
3.75
 44
1.25
 45
0.0
 46
0.0
 47
0.0
 48
0.0
 49
2.5
140
2.5
141
2.5
142
0.0
143
0.03937007874
144
1.0
145
0.0
146
1.0
147
0.625
148
0.0
 69
0
 70
0
 71
0
 72
0
 73
0
 74
0
 75
0
 76
0
 77
1
 78
8
 79
3
170
0
171
3
172
1
173
0
174
0
175
0
176
0
177
0
178
0
179
2
271
2
272
2
273
2
274
3
275
0
276
0
277
2
278
44
279
0
280
0
281
0
282
0
283
0
284
8
285
0
286
0
288
0
289
3
290
0
371
-2
372
-2
  0
ENDTAB
  0
TABLE
  2
BLOCK_RECORD
  5
9
330
0
100
AcDbSymbolTable
 70
2
  0
BLOCK_RECORD
  5
17
330
9
100
AcDbSymbolTableRecord
100
AcDbBlockTableRecord
  2
*Model_Space
340
1A
 70
0
280
1
281
0
  0
BLOCK_RECORD
  5
1B
330
9
100
AcDbSymbolTableRecord
100
AcDbBlockTableRecord
  2
*Paper_Space
340
1E
 70
0
280
1
281
0
  0
ENDTAB
  0
ENDSEC
  0
SECTION
  2
BLOCKS
  0
BLOCK
  5
18
330
17
100
AcDbEntity
  8
0
100
AcDbBlockBegin
  2
*Model_Space
 70
0
 10
0.0
 20
0.0
 30
0.0
  3
*Model_Space
  1

  0
ENDBLK
  5
19
330
17
100
AcDbEntity
  8
0
100
AcDbBlockEnd
  0
BLOCK
  5
1C
330
1B
100
AcDbEntity
  8
0
100
AcDbBlockBegin
  2
*Paper_Space
 70
0
 10
0.0
 20
0.0
 30
0.0
  3
*Paper_Space
  1

  0
ENDBLK
  5
1D
330
1B
100
AcDbEntity
  8
0
100
AcDbBlockEnd
  0
ENDSEC
  0
SECTION
  2
ENTITIES
  0
LINE
  5
2F
330
17
100
AcDbEntity
  8
0
 62
11
100
AcDbLine
 10
12.99190832368745
 20
-18.91057947372224
 30
0.0
 11
15.14190832368744
 21
-18.91057947372224
 31
0.0
  0
LINE
  5
30
330
17
100
AcDbEntity
  8
0
 62
11
100
AcDbLine
 10
12.99190832368745
 20
-18.91057947372224
 30
0.0
 11
12.99190832368745
 21
-24.42057947372224
 31
0.0
  0
LINE
  5
31
330
17
100
AcDbEntity
  8
0
 62
11
100
AcDbLine
 10
15.14190832368744
 20
-18.91057947372224
 30
0.0
 11
15.14190832368744
 21
-24.42057947372224
 31
0.0
  0
LINE
  5
32
330
17
100
AcDbEntity
  8
0
100
AcDbLine
 10
12.96690832368745
 20
-24.42057947372224
 30
0.0
 11
15.16690832368745
 21
-24.42057947372224
 31
0.0
  0
LINE
  5
33
330
17
100
AcDbEntity
  8
0
 62
8
100
AcDbLine
 10
13.05690832368745
 20
-18.91057947372224
 30
0.0
 11
13.05690832368745
 21
-24.42057947372224
 31
0.0
  0
LINE
  5
34
330
17
100
AcDbEntity
  8
0
 62
8
100
AcDbLine
 10
15.07690832368744
 20
-18.91057947372224
 30
0.0
 11
15.07690832368744
 21
-24.42057947372224
 31
0.0
  0
LINE
  5
35
330
17
100
AcDbEntity
  8
0
 62
8
100
AcDbLine
 10
13.05690832368745
 20
-18.97557947372224
 30
0.0
 11
14.03440832368744
 21
-18.97557947372224
 31
0.0
  0
LINE
  5
36
330
17
100
AcDbEntity
  8
0
 62
8
100
AcDbLine
 10
13.05690832368745
 20
-24.35557947372224
 30
0.0
 11
14.03440832368744
 21
-24.35557947372224
 31
0.0
  0
LINE
  5
37
330
17
100
AcDbEntity
  8
0
 62
8
100
AcDbLine
 10
14.09940832368745
 20
-24.42057947372224
 30
0.0
 11
14.09940832368745
 21
-18.91057947372224
 31
0.0
  0
LINE
  5
38
330
17
100
AcDbEntity
  8
0
 62
8
100
AcDbLine
 10
14.03440832368744
 20
-24.42057947372224
 30
0.0
 11
14.03440832368745
 21
-18.91057947372224
 31
0.0
  0
LINE
  5
39
330
17
100
AcDbEntity
  8
0
 62
8
100
AcDbLine
 10
14.09940832368745
 20
-18.97557947372224
 30
0.0
 11
15.07690832368744
 21
-18.97557947372224
 31
0.0
  0
LINE
  5
3A
330
17
100
AcDbEntity
  8
0
 62
8
100
AcDbLine
 10
14.09940832368745
 20
-24.35557947372224
 30
0.0
 11
15.07690832368744
 21
-24.35557947372223
 31
0.0
  0
LINE
  5
3C
330
17
100
AcDbEntity
  8
0-COTAS REF
100
AcDbLine
 10
12.36690832368745
 20
-18.71057947372223
 30
0.0
 11
15.6395019928932
 21
-18.71057947372223
 31
0.0
  0
LINE
  5
3D
330
17
100
AcDbEntity
  8
0-COTAS REF
100
AcDbLine
 10
12.36690832368745
 20
-18.51057947372224
 30
0.0
 11
15.6395019928932
 21
-18.51057947372224
 31
0.0
  0
LINE
  5
3E
330
17
100
AcDbEntity
  8
0-COTAS REF
100
AcDbLine
 10
12.76690832368745
 20
-24.42057947372224
 30
0.0
 11
12.76690832368745
 21
-18.31057947372224
 31
0.0
  0
LINE
  5
3F
330
17
100
AcDbEntity
  8
0-COTAS REF
100
AcDbLine
 10
12.56690832368745
 20
-24.42057947372224
 30
0.0
 11
12.56690832368745
 21
-18.31057947372224
 31
0.0
  0
LINE
  5
40
330
17
100
AcDbEntity
  8
0
 62
4
100
AcDbLine
 10
11.4400295501423
 20
-24.42057947372224
 30
0.0
 11
18.20115305060017
 21
-24.42057947372224
 31
0.0
  0
LWPOLYLINE
  5
41
330
17
100
AcDbEntity
  8
0
 62
8
100
AcDbPolyline
 90
4
 70
1
 10
17.37055338965342
 20
-18.88743357221119
 10
17.54055338965342
 20
-18.88743357221119
 10
17.54055338965342
 20
-24.42057947372224
 10
17.37055338965342
 20
-24.42057947372224
  0
LINE
  5
42
330
17
100
AcDbEntity
  8
0
 62
8
100
AcDbLine
 10
14.03440832368744
 20
-22.02057947372225
 30
0.0
 11
13.05690832368745
 21
-22.02057947372225
 31
0.0
  0
LINE
  5
43
330
17
100
AcDbEntity
  8
0
 62
8
100
AcDbLine
 10
14.03440832368744
 20
-21.95557947372224
 30
0.0
 11
13.05690832368745
 21
-21.95557947372224
 31
0.0
  0
LINE
  5
44
330
17
100
AcDbEntity
  8
0
 62
8
100
AcDbLine
 10
15.07690832368744
 20
-22.02057947372225
 30
0.0
 11
14.09940832368745
 21
-22.02057947372224
 31
0.0
  0
LINE
  5
45
330
17
100
AcDbEntity
  8
0
 62
8
100
AcDbLine
 10
15.07690832368744
 20
-21.95557947372224
 30
0.0
 11
14.09940832368745
 21
-21.95557947372224
 31
0.0
  0
LWPOLYLINE
  5
46
330
17
100
AcDbEntity
  8
0
 62
8
100
AcDbPolyline
 90
6
 70
0
 10
15.90090443378369
 20
-24.17917624852954
 10
15.4306868556273
 20
-24.17917624852954
 10
15.4306868556273
 20
-24.42057947372224
 10
15.32462083844933
 20
-24.31451345654427
 10
15.4306868556273
 20
-24.42057947372224
 10
15.54028840671122
 20
-24.31097792263831
  0
LINE
  5
47
330
17
100
AcDbEntity
  8
0
 62
11
100
AcDbLine
 10
17.35335338965372
 20
-24.41091454398691
 30
0.0
 11
17.35335338965358
 21
-21.99507947372241
 31
0.0
  0
LINE
  5
48
330
17
100
AcDbEntity
  8
0
 62
11
100
AcDbLine
 10
17.35035338965311
 20
-24.41091454398751
 30
0.0
 11
17.35035338965324
 21
-21.99507947372207
 31
0.0
  0
LINE
  5
49
330
17
100
AcDbEntity
  8
0
 62
11
100
AcDbLine
 10
17.34735338965341
 20
-24.41115022433224
 30
0.0
 11
17.34735338965341
 21
-21.99507947372225
 31
0.0
  0
LINE
  5
4A
330
17
100
AcDbEntity
  8
0
 62
11
100
AcDbLine
 10
17.33535338965342
 20
-24.41115022433242
 30
0.0
 11
17.33535338965341
 21
-21.99507947372207
 31
0.0
  0
LINE
  5
4B
330
17
100
AcDbEntity
  8
0
 62
11
100
AcDbLine
 10
17.33135338965311
 20
-24.41091454398769
 30
0.0
 11
17.33135338965323
 21
-21.9950794737219
 31
0.0
  0
LINE
  5
4C
330
17
100
AcDbEntity
  8
0
 62
11
100
AcDbLine
 10
17.32735338965371
 20
-24.41091454398733
 30
0.0
 11
17.32735338965358
 21
-21.99507947372226
 31
0.0
  0
LINE
  5
4D
330
17
100
AcDbEntity
  8
0
 62
11
100
AcDbLine
 10
17.35285338965342
 20
-18.88743357221119
 30
0.0
 11
17.35085338965342
 21
-18.88743357221119
 31
0.0
  0
LINE
  5
4E
330
17
100
AcDbEntity
  8
0
 62
11
100
AcDbLine
 10
17.33085338965342
 20
-18.88743357221119
 30
0.0
 11
17.32785338965341
 21
-18.88743357221119
 31
0.0
  0
LINE
  5
4F
330
17
100
AcDbEntity
  8
0
 62
11
100
AcDbLine
 10
17.33485338965341
 20
-18.88743357221119
 30
0.0
 11
17.33185338965341
 21
-18.88743357221119
 31
0.0
  0
LINE
  5
50
330
17
100
AcDbEntity
  8
0
 62
11
100
AcDbLine
 10
17.32735338965341
 20
-18.88793357221119
 30
0.0
 11
17.32785338965341
 21
-18.88743357221119
 31
0.0
  0
LINE
  5
51
330
17
100
AcDbEntity
  8
0
 62
11
100
AcDbLine
 10
17.33535338965341
 20
-18.88793357221118
 30
0.0
 11
17.33485338965341
 21
-18.88743357221119
 31
0.0
  0
LINE
  5
52
330
17
100
AcDbEntity
  8
0
 62
11
100
AcDbLine
 10
17.33135338965341
 20
-18.88793357221118
 30
0.0
 11
17.33085338965342
 21
-18.88743357221119
 31
0.0
  0
LINE
  5
53
330
17
100
AcDbEntity
  8
0
 62
11
100
AcDbLine
 10
17.33135338965341
 20
-18.88793357221118
 30
0.0
 11
17.33185338965341
 21
-18.88743357221119
 31
0.0
  0
LINE
  5
54
330
17
100
AcDbEntity
  8
0
 62
8
100
AcDbLine
 10
17.33535338965341
 20
-18.90011906927767
 30
0.0
 11
17.34735338965341
 21
-18.90011906927767
 31
0.0
  0
LWPOLYLINE
  5
55
330
17
100
AcDbEntity
  8
0
 62
8
100
AcDbPolyline
 90
6
 70
1
 10
17.34635338965341
 20
-18.90011906927767
 10
17.33635338965341
 20
-18.90011906927767
 10
17.33635338965341
 20
-18.89511906927767
 10
17.33985338965341
 20
-18.89211906927767
 10
17.34285338965341
 20
-18.89211906927767
 10
17.34635338965341
 20
-18.89511906927767
  0
LWPOLYLINE
  5
56
330
17
100
AcDbEntity
  8
0
 62
8
100
AcDbPolyline
 90
6
 70
1
 10
17.34585338965341
 20
-18.89961906927767
 10
17.33685338965341
 20
-18.89961906927767
 10
17.33685338965341
 20
-18.89527045709653
 10
17.34012098153265
 20
-18.89261906927767
 10
17.34258579777416
 20
-18.89261906927767
 10
17.34585338965341
 20
-18.89527045709653
  0
LINE
  5
57
330
17
100
AcDbEntity
  8
0
 62
11
100
AcDbLine
 10
17.35035338965342
 20
-18.88793357221118
 30
0.0
 11
17.34985338965342
 21
-18.88743357221119
 31
0.0
  0
LINE
  5
58
330
17
100
AcDbEntity
  8
0
 62
11
100
AcDbLine
 10
17.35035338965342
 20
-18.88793357221118
 30
0.0
 11
17.35085338965341
 21
-18.88743357221119
 31
0.0
  0
LINE
  5
59
330
17
100
AcDbEntity
  8
0
 62
11
100
AcDbLine
 10
17.34985338965342
 20
-18.88743357221119
 30
0.0
 11
17.34785338965341
 21
-18.88743357221119
 31
0.0
  0
LINE
  5
5A
330
17
100
AcDbEntity
  8
0
 62
11
100
AcDbLine
 10
17.34735338965341
 20
-18.88793357221119
 30
0.0
 11
17.34785338965341
 21
-18.88743357221119
 31
0.0
  0
LINE
  5
5B
330
17
100
AcDbEntity
  8
0
 62
11
100
AcDbLine
 10
17.35335338965342
 20
-18.88793357221119
 30
0.0
 11
17.35285338965342
 21
-18.88743357221119
 31
0.0
  0
LWPOLYLINE
  5
5C
330
17
100
AcDbEntity
  8
0
 62
11
100
AcDbPolyline
 90
14
 70
1
 10
17.37755338965342
 20
-18.92893357221119
 42
-0.4142135623730951
 10
17.37655338965342
 20
-18.92993357221119
 10
17.37355338965342
 20
-18.92993357221119
 10
17.37355338965342
 20
-18.94873357221119
 42
0.4142135623730966
 10
17.37455338965342
 20
-18.94973357221118
 10
17.53655338965343
 20
-18.94973357221118
 42
0.4142135623730951
 10
17.53755338965342
 20
-18.94873357221119
 10
17.53755338965342
 20
-18.89113357221119
 42
0.4142135623730951
 10
17.53655338965343
 20
-18.89013357221119
 10
17.37455338965342
 20
-18.89013357221119
 42
0.4142135623730948
 10
17.37355338965342
 20
-18.89113357221119
 10
17.37355338965342
 20
-18.90993357221119
 10
17.37655338965342
 20
-18.90993357221119
 42
-0.4142135623730951
 10
17.37755338965342
 20
-18.91093357221119
  0
LWPOLYLINE
  5
5D
330
17
100
AcDbEntity
  8
0
 62
11
100
AcDbPolyline
 90
11
 70
1
 10
17.37055338965342
 20
-18.92093357221119
 10
17.37055338965342
 20
-18.95143357221119
 42
0.4142135623730951
 10
17.37155338965342
 20
-18.95243357221119
 10
17.53955338965343
 20
-18.95243357221119
 42
0.4142135623730951
 10
17.54055338965342
 20
-18.95143357221119
 10
17.54055338965342
 20
-18.88843357221119
 42
0.4142135623730951
 10
17.53955338965343
 20
-18.88743357221119
 10
17.37155338965342
 20
-18.88743357221119
 42
0.4142135623730951
 10
17.37055338965342
 20
-18.88843357221119
 10
17.37055338965342
 20
-18.91893357221119
 10
17.37155338965342
 20
-18.91993357221119
  0
ARC
  5
5E
330
17
100
AcDbEntity
  8
0
 62
8
100
AcDbCircle
 10
17.34135338965341
 20
-18.87574292604434
 30
0.0
 40
0.0133761432333217
100
AcDbArc
 50
240.9259378909825
 51
299.0740621090308
  0
LINE
  5
5F
330
17
100
AcDbEntity
  8
0
 62
8
100
AcDbLine
 10
17.34635338965341
 20
-18.89511906927767
 30
0.0
 11
17.34735338965341
 21
-18.89511906927767
 31
0.0
  0
LINE
  5
60
330
17
100
AcDbEntity
  8
0
 62
8
100
AcDbLine
 10
17.33635338965341
 20
-18.89511906927767
 30
0.0
 11
17.33535338965341
 21
-18.89511906927767
 31
0.0
  0
LINE
  5
61
330
17
100
AcDbEntity
  8
0
 62
8
100
AcDbLine
 10
17.35455338965342
 20
-18.90043357221119
 30
0.0
 11
17.35335338965341
 21
-18.90043357221119
 31
0.0
  0
LINE
  5
62
330
17
100
AcDbEntity
  8
0
 62
8
100
AcDbLine
 10
17.35335338965342
 20
-18.88793357221119
 30
0.0
 11
17.35455338965342
 21
-18.88793357221119
 31
0.0
  0
LWPOLYLINE
  5
63
330
17
100
AcDbEntity
  8
0
 62
11
100
AcDbPolyline
 90
14
 70
1
 10
17.37755338965342
 20
-24.39707947372224
 42
-0.4142135623730951
 10
17.37655338965342
 20
-24.39807947372224
 10
17.37355338965342
 20
-24.39807947372224
 10
17.37355338965342
 20
-24.41687947372224
 42
0.4142135623730966
 10
17.37455338965342
 20
-24.41787947372224
 10
17.53655338965343
 20
-24.41787947372224
 42
0.4142135623730951
 10
17.53755338965342
 20
-24.41687947372224
 10
17.53755338965342
 20
-24.35927947372224
 42
0.4142135623730951
 10
17.53655338965343
 20
-24.35827947372224
 10
17.37455338965342
 20
-24.35827947372224
 42
0.4142135623730948
 10
17.37355338965342
 20
-24.35927947372224
 10
17.37355338965342
 20
-24.37807947372224
 10
17.37655338965342
 20
-24.37807947372224
 42
-0.4142135623730951
 10
17.37755338965342
 20
-24.37907947372224
  0
LWPOLYLINE
  5
64
330
17
100
AcDbEntity
  8
0
 62
11
100
AcDbPolyline
 90
11
 70
1
 10
17.37055338965342
 20
-24.38907947372224
 10
17.37055338965342
 20
-24.41957947372224
 42
0.4142135623730951
 10
17.37155338965342
 20
-24.42057947372224
 10
17.53955338965343
 20
-24.42057947372224
 42
0.4142135623730951
 10
17.54055338965342
 20
-24.41957947372224
 10
17.54055338965342
 20
-24.35657947372224
 42
0.4142135623730951
 10
17.53955338965343
 20
-24.35557947372224
 10
17.37155338965342
 20
-24.35557947372224
 42
0.4142135623730951
 10
17.37055338965342
 20
-24.35657947372224
 10
17.37055338965342
 20
-24.38707947372224
 10
17.37155338965342
 20
-24.38807947372224
  0
LINE
  5
65
330
17
100
AcDbEntity
  8
0
 62
11
100
AcDbLine
 10
17.35335338965358
 20
-21.98094714819997
 30
0.0
 11
17.35335338965341
 21
-18.88793357221118
 31
0.0
  0
LINE
  5
66
330
17
100
AcDbEntity
  8
0
 62
11
100
AcDbLine
 10
17.35035338965325
 20
-21.9809471482003
 30
0.0
 11
17.35035338965342
 21
-18.88793357221118
 31
0.0
  0
LINE
  5
67
330
17
100
AcDbEntity
  8
0
 62
11
100
AcDbLine
 10
17.34735338965341
 20
-21.98094714820013
 30
0.0
 11
17.34735338965341
 21
-18.88793357221119
 31
0.0
  0
LINE
  5
68
330
17
100
AcDbEntity
  8
0
 62
11
100
AcDbLine
 10
17.33535338965341
 20
-21.9809471482003
 30
0.0
 11
17.33535338965341
 21
-18.88793357221118
 31
0.0
  0
LINE
  5
69
330
17
100
AcDbEntity
  8
0
 62
11
100
AcDbLine
 10
17.33135338965324
 20
-21.98094714820049
 30
0.0
 11
17.33135338965341
 21
-18.88793357221118
 31
0.0
  0
LINE
  5
6A
330
17
100
AcDbEntity
  8
0
 62
11
100
AcDbLine
 10
17.32735338965357
 20
-21.98094714820012
 30
0.0
 11
17.32735338965341
 21
-18.88793357221119
 31
0.0
  0
LINE
  5
6B
330
17
100
AcDbEntity
  8
0
 62
11
100
AcDbLine
 10
17.33485338965359
 20
-21.99457947372225
 30
0.0
 11
17.33185338965359
 21
-21.99457947372225
 31
0.0
  0
LINE
  5
6C
330
17
100
AcDbEntity
  8
0
 62
11
100
AcDbLine
 10
17.33085338965359
 20
-21.99457947372225
 30
0.0
 11
17.32785338965359
 21
-21.99457947372225
 31
0.0
  0
LINE
  5
6D
330
17
100
AcDbEntity
  8
0
 62
11
100
AcDbLine
 10
17.32735338965358
 20
-21.99507947372226
 30
0.0
 11
17.32785338965359
 21
-21.99457947372225
 31
0.0
  0
LINE
  5
6E
330
17
100
AcDbEntity
  8
0
 62
8
100
AcDbLine
 10
17.33535338965358
 20
-21.99507947372225
 30
0.0
 11
17.33485338965359
 21
-21.99457947372225
 31
0.0
  0
LINE
  5
6F
330
17
100
AcDbEntity
  8
0
 62
11
100
AcDbLine
 10
17.33135338965359
 20
-21.99507947372225
 30
0.0
 11
17.33085338965359
 21
-21.99457947372225
 31
0.0
  0
LINE
  5
70
330
17
100
AcDbEntity
  8
0
 62
11
100
AcDbLine
 10
17.33135338965359
 20
-21.99507947372225
 30
0.0
 11
17.33185338965359
 21
-21.99457947372225
 31
0.0
  0
LINE
  5
71
330
17
100
AcDbEntity
  8
0
 62
11
100
AcDbLine
 10
17.35285338965342
 20
-21.99457947372225
 30
0.0
 11
17.35085338965342
 21
-21.99457947372225
 31
0.0
  0
LINE
  5
72
330
17
100
AcDbEntity
  8
0
 62
11
100
AcDbLine
 10
17.34985338965342
 20
-21.99457947372225
 30
0.0
 11
17.34785338965341
 21
-21.99457947372225
 31
0.0
  0
LINE
  5
73
330
17
100
AcDbEntity
  8
0
 62
11
100
AcDbLine
 10
17.35035338965342
 20
-21.99507947372225
 30
0.0
 11
17.34985338965342
 21
-21.99457947372225
 31
0.0
  0
LINE
  5
74
330
17
100
AcDbEntity
  8
0
 62
11
100
AcDbLine
 10
17.35035338965342
 20
-21.99507947372225
 30
0.0
 11
17.35085338965341
 21
-21.99457947372225
 31
0.0
  0
LINE
  5
75
330
17
100
AcDbEntity
  8
0
 62
8
100
AcDbLine
 10
17.34735338965341
 20
-21.99507947372225
 30
0.0
 11
17.34785338965341
 21
-21.99457947372225
 31
0.0
  0
LINE
  5
76
330
17
100
AcDbEntity
  8
0
 62
11
100
AcDbLine
 10
17.35335338965342
 20
-21.99507947372225
 30
0.0
 11
17.35285338965342
 21
-21.99457947372225
 31
0.0
  0
LINE
  5
77
330
17
100
AcDbEntity
  8
0
 62
11
100
AcDbLine
 10
17.33485338965359
 20
-21.98144714820013
 30
0.0
 11
17.33185338965359
 21
-21.98144714820013
 31
0.0
  0
LINE
  5
78
330
17
100
AcDbEntity
  8
0
 62
11
100
AcDbLine
 10
17.33085338965359
 20
-21.98144714820013
 30
0.0
 11
17.32785338965359
 21
-21.98144714820013
 31
0.0
  0
LINE
  5
79
330
17
100
AcDbEntity
  8
0
 62
11
100
AcDbLine
 10
17.32735338965358
 20
-21.98094714820012
 30
0.0
 11
17.32785338965359
 21
-21.98144714820013
 31
0.0
  0
LINE
  5
7A
330
17
100
AcDbEntity
  8
0
 62
11
100
AcDbLine
 10
17.33535338965358
 20
-21.98094714820013
 30
0.0
 11
17.33485338965359
 21
-21.98144714820013
 31
0.0
  0
LINE
  5
7B
330
17
100
AcDbEntity
  8
0
 62
11
100
AcDbLine
 10
17.33135338965359
 20
-21.98094714820013
 30
0.0
 11
17.33085338965359
 21
-21.98144714820013
 31
0.0
  0
LINE
  5
7C
330
17
100
AcDbEntity
  8
0
 62
11
100
AcDbLine
 10
17.33135338965359
 20
-21.98094714820013
 30
0.0
 11
17.33185338965359
 21
-21.98144714820013
 31
0.0
  0
LINE
  5
7D
330
17
100
AcDbEntity
  8
0
 62
11
100
AcDbLine
 10
17.35285338965342
 20
-21.98144714820013
 30
0.0
 11
17.35085338965342
 21
-21.98144714820013
 31
0.0
  0
LINE
  5
7E
330
17
100
AcDbEntity
  8
0
 62
11
100
AcDbLine
 10
17.34985338965342
 20
-21.98144714820013
 30
0.0
 11
17.34785338965341
 21
-21.98144714820013
 31
0.0
  0
LINE
  5
7F
330
17
100
AcDbEntity
  8
0
 62
11
100
AcDbLine
 10
17.35035338965342
 20
-21.98094714820014
 30
0.0
 11
17.34985338965342
 21
-21.98144714820013
 31
0.0
  0
LINE
  5
80
330
17
100
AcDbEntity
  8
0
 62
11
100
AcDbLine
 10
17.35035338965342
 20
-21.98094714820014
 30
0.0
 11
17.35085338965341
 21
-21.98144714820013
 31
0.0
  0
LINE
  5
81
330
17
100
AcDbEntity
  8
0
 62
11
100
AcDbLine
 10
17.34735338965341
 20
-21.98094714820013
 30
0.0
 11
17.34785338965341
 21
-21.98144714820013
 31
0.0
  0
LINE
  5
82
330
17
100
AcDbEntity
  8
0
 62
11
100
AcDbLine
 10
17.35335338965342
 20
-21.98094714820013
 30
0.0
 11
17.35285338965342
 21
-21.98144714820013
 31
0.0
  0
LINE
  5
83
330
17
100
AcDbEntity
  8
0
 62
8
100
AcDbLine
 10
17.33535338965358
 20
-21.99507947372225
 30
0.0
 11
17.33485338965359
 21
-21.99457947372225
 31
0.0
  0
LINE
  5
84
330
17
100
AcDbEntity
  8
0
 62
8
100
AcDbLine
 10
17.33535338965358
 20
-22.00726497078873
 30
0.0
 11
17.34735338965359
 21
-22.00726497078873
 31
0.0
  0
LWPOLYLINE
  5
85
330
17
100
AcDbEntity
  8
0
 62
8
100
AcDbPolyline
 90
6
 70
1
 10
17.34635338965358
 20
-22.00726497078873
 10
17.33635338965359
 20
-22.00726497078873
 10
17.33635338965359
 20
-22.00226497078874
 10
17.33985338965358
 20
-21.99926497078874
 10
17.34285338965358
 20
-21.99926497078874
 10
17.34635338965358
 20
-22.00226497078874
  0
LWPOLYLINE
  5
86
330
17
100
AcDbEntity
  8
0
 62
8
100
AcDbPolyline
 90
6
 70
1
 10
17.34585338965358
 20
-22.00676497078874
 10
17.33685338965358
 20
-22.00676497078874
 10
17.33685338965358
 20
-22.0024163586076
 10
17.34012098153282
 20
-21.99976497078873
 10
17.34258579777434
 20
-21.99976497078873
 10
17.34585338965358
 20
-22.0024163586076
  0
LINE
  5
87
330
17
100
AcDbEntity
  8
0
 62
8
100
AcDbLine
 10
17.34735338965359
 20
-21.99507947372225
 30
0.0
 11
17.34785338965359
 21
-21.99457947372225
 31
0.0
  0
ARC
  5
88
330
17
100
AcDbEntity
  8
0
 62
8
100
AcDbCircle
 10
17.34135338965359
 20
-21.98288882755541
 30
0.0
 40
0.0133761432333217
100
AcDbArc
 50
240.9259378909825
 51
299.0740621090308
  0
LINE
  5
89
330
17
100
AcDbEntity
  8
0
 62
8
100
AcDbLine
 10
17.34635338965358
 20
-22.00226497078874
 30
0.0
 11
17.34735338965359
 21
-22.00226497078874
 31
0.0
  0
LINE
  5
8A
330
17
100
AcDbEntity
  8
0
 62
8
100
AcDbLine
 10
17.33635338965359
 20
-22.00226497078874
 30
0.0
 11
17.33535338965358
 21
-22.00226497078874
 31
0.0
  0
LINE
  5
8B
330
17
100
AcDbEntity
  8
0
 62
11
100
AcDbLine
 10
17.33535338965358
 20
-21.98094714820013
 30
0.0
 11
17.33485338965359
 21
-21.98144714820013
 31
0.0
  0
LINE
  5
8C
330
17
100
AcDbEntity
  8
0
 62
11
100
AcDbLine
 10
17.34735338965341
 20
-21.98094714820013
 30
0.0
 11
17.34785338965341
 21
-21.98144714820013
 31
0.0
  0
LINE
  5
8D
330
17
100
AcDbEntity
  8
0
 62
11
100
AcDbLine
 10
17.33535338965358
 20
-21.98094714820013
 30
0.0
 11
17.33485338965359
 21
-21.98144714820013
 31
0.0
  0
LINE
  5
8E
330
17
100
AcDbEntity
  8
0
 62
8
100
AcDbLine
 10
17.33535338965358
 20
-21.96876165113365
 30
0.0
 11
17.34735338965359
 21
-21.96876165113365
 31
0.0
  0
LWPOLYLINE
  5
8F
330
17
100
AcDbEntity
  8
0
 62
8
100
AcDbPolyline
 90
6
 70
1
 10
17.34635338965358
 20
-21.96876165113365
 10
17.33635338965359
 20
-21.96876165113365
 10
17.33635338965359
 20
-21.97376165113364
 10
17.33985338965358
 20
-21.97676165113364
 10
17.34285338965358
 20
-21.97676165113364
 10
17.34635338965358
 20
-21.97376165113364
  0
LWPOLYLINE
  5
90
330
17
100
AcDbEntity
  8
0
 62
8
100
AcDbPolyline
 90
6
 70
1
 10
17.34585338965358
 20
-21.96926165113364
 10
17.33685338965358
 20
-21.96926165113364
 10
17.33685338965358
 20
-21.97361026331478
 10
17.34012098153282
 20
-21.97626165113365
 10
17.34258579777434
 20
-21.97626165113365
 10
17.34585338965358
 20
-21.97361026331478
  0
LINE
  5
91
330
17
100
AcDbEntity
  8
0
 62
11
100
AcDbLine
 10
17.34735338965359
 20
-21.98094714820013
 30
0.0
 11
17.34785338965359
 21
-21.98144714820013
 31
0.0
  0
ARC
  5
92
330
17
100
AcDbEntity
  8
0
 62
8
100
AcDbCircle
 10
17.34135338965359
 20
-21.99313779436697
 30
0.0
 40
0.0133761432333217
100
AcDbArc
 50
60.92593789096929
 51
119.0740621090174
  0
LINE
  5
93
330
17
100
AcDbEntity
  8
0
 62
8
100
AcDbLine
 10
17.34635338965358
 20
-21.97376165113364
 30
0.0
 11
17.34735338965359
 21
-21.97376165113364
 31
0.0
  0
LINE
  5
94
330
17
100
AcDbEntity
  8
0
 62
8
100
AcDbLine
 10
17.33635338965359
 20
-21.97376165113364
 30
0.0
 11
17.33535338965358
 21
-21.97376165113364
 31
0.0
  0
LINE
  5
95
330
17
100
AcDbEntity
  8
0
 62
11
100
AcDbLine
 10
17.33485338965359
 20
-24.4114145439872
 30
0.0
 11
17.33185338965359
 21
-24.4114145439872
 31
0.0
  0
LINE
  5
96
330
17
100
AcDbEntity
  8
0
 62
11
100
AcDbLine
 10
17.33085338965359
 20
-24.4114145439872
 30
0.0
 11
17.32785338965359
 21
-24.4114145439872
 31
0.0
  0
LINE
  5
97
330
17
100
AcDbEntity
  8
0
 62
11
100
AcDbLine
 10
17.32735338965358
 20
-24.4109145439872
 30
0.0
 11
17.32785338965359
 21
-24.4114145439872
 31
0.0
  0
LINE
  5
98
330
17
100
AcDbEntity
  8
0
 62
8
100
AcDbLine
 10
17.33535338965358
 20
-24.4109145439872
 30
0.0
 11
17.33485338965359
 21
-24.4114145439872
 31
0.0
  0
LINE
  5
99
330
17
100
AcDbEntity
  8
0
 62
11
100
AcDbLine
 10
17.33135338965359
 20
-24.4109145439872
 30
0.0
 11
17.33085338965359
 21
-24.4114145439872
 31
0.0
  0
LINE
  5
9A
330
17
100
AcDbEntity
  8
0
 62
11
100
AcDbLine
 10
17.33135338965359
 20
-24.4109145439872
 30
0.0
 11
17.33185338965359
 21
-24.4114145439872
 31
0.0
  0
LINE
  5
9B
330
17
100
AcDbEntity
  8
0
 62
11
100
AcDbLine
 10
17.35285338965342
 20
-24.4114145439872
 30
0.0
 11
17.35085338965342
 21
-24.4114145439872
 31
0.0
  0
LINE
  5
9C
330
17
100
AcDbEntity
  8
0
 62
11
100
AcDbLine
 10
17.34985338965342
 20
-24.41141454398721
 30
0.0
 11
17.34785338965341
 21
-24.4114145439872
 31
0.0
  0
LINE
  5
9D
330
17
100
AcDbEntity
  8
0
 62
11
100
AcDbLine
 10
17.35035338965342
 20
-24.41091454398721
 30
0.0
 11
17.34985338965342
 21
-24.4114145439872
 31
0.0
  0
LINE
  5
9E
330
17
100
AcDbEntity
  8
0
 62
11
100
AcDbLine
 10
17.35035338965342
 20
-24.41091454398721
 30
0.0
 11
17.35085338965341
 21
-24.4114145439872
 31
0.0
  0
LINE
  5
9F
330
17
100
AcDbEntity
  8
0
 62
8
100
AcDbLine
 10
17.34735338965341
 20
-24.4109145439872
 30
0.0
 11
17.34785338965341
 21
-24.4114145439872
 31
0.0
  0
LINE
  5
A0
330
17
100
AcDbEntity
  8
0
 62
11
100
AcDbLine
 10
17.35335338965342
 20
-24.4109145439872
 30
0.0
 11
17.35285338965342
 21
-24.4114145439872
 31
0.0
  0
LINE
  5
A1
330
17
100
AcDbEntity
  8
0
 62
8
100
AcDbLine
 10
17.33535338965358
 20
-24.4109145439872
 30
0.0
 11
17.33485338965359
 21
-24.4114145439872
 31
0.0
  0
LINE
  5
A2
330
17
100
AcDbEntity
  8
0
 62
8
100
AcDbLine
 10
17.34735338965341
 20
-24.4109145439872
 30
0.0
 11
17.34785338965341
 21
-24.4114145439872
 31
0.0
  0
LINE
  5
A3
330
17
100
AcDbEntity
  8
0
 62
8
100
AcDbLine
 10
17.33535338965358
 20
-24.4109145439872
 30
0.0
 11
17.33485338965359
 21
-24.4114145439872
 31
0.0
  0
LINE
  5
A4
330
17
100
AcDbEntity
  8
0
 62
8
100
AcDbLine
 10
17.33535338965358
 20
-24.39872904692072
 30
0.0
 11
17.34735338965359
 21
-24.39872904692072
 31
0.0
  0
LWPOLYLINE
  5
A5
330
17
100
AcDbEntity
  8
0
 62
8
100
AcDbPolyline
 90
6
 70
1
 10
17.34635338965358
 20
-24.39872904692072
 10
17.33635338965359
 20
-24.39872904692072
 10
17.33635338965359
 20
-24.40372904692072
 10
17.33985338965358
 20
-24.40672904692072
 10
17.34285338965358
 20
-24.40672904692072
 10
17.34635338965358
 20
-24.40372904692072
  0
LWPOLYLINE
  5
A6
330
17
100
AcDbEntity
  8
0
 62
8
100
AcDbPolyline
 90
6
 70
1
 10
17.34585338965358
 20
-24.39922904692072
 10
17.33685338965358
 20
-24.39922904692072
 10
17.33685338965358
 20
-24.40357765910186
 10
17.34012098153282
 20
-24.40622904692072
 10
17.34258579777434
 20
-24.40622904692072
 10
17.34585338965358
 20
-24.40357765910186
  0
LINE
  5
A7
330
17
100
AcDbEntity
  8
0
 62
8
100
AcDbLine
 10
17.34735338965359
 20
-24.4109145439872
 30
0.0
 11
17.34785338965359
 21
-24.4114145439872
 31
0.0
  0
ARC
  5
A8
330
17
100
AcDbEntity
  8
0
 62
8
100
AcDbCircle
 10
17.34135338965359
 20
-24.42310519015404
 30
0.0
 40
0.0133761432333217
100
AcDbArc
 50
60.92593789096929
 51
119.0740621090174
  0
LINE
  5
A9
330
17
100
AcDbEntity
  8
0
 62
8
100
AcDbLine
 10
17.34635338965358
 20
-24.40372904692072
 30
0.0
 11
17.34735338965359
 21
-24.40372904692072
 31
0.0
  0
LINE
  5
AA
330
17
100
AcDbEntity
  8
0
 62
8
100
AcDbLine
 10
17.33635338965359
 20
-24.40372904692072
 30
0.0
 11
17.33535338965358
 21
-24.40372904692072
 31
0.0
  0
ARC
  5
AB
330
17
100
AcDbEntity
  8
0
 62
8
100
AcDbCircle
 10
17.31351790254593
 20
-21.9880133109612
 30
0.0
 40
0.0155354871076451
100
AcDbArc
 50
332.9453525040861
 51
27.05464749598413
  0
LINE
  5
AC
330
17
100
AcDbEntity
  8
0
 62
11
100
AcDbLine
 10
14.06690832368744
 20
-18.91057947372224
 30
0.0
 11
14.06690832368744
 21
-24.42057947372224
 31
0.0
  0
LINE
  5
AD
330
17
100
AcDbEntity
  8
0
 62
11
100
AcDbLine
 10
15.14190832368744
 20
-21.98807947372224
 30
0.0
 11
12.99190832368745
 21
-21.98807947372224
 31
0.0
  0
LWPOLYLINE
  5
AE
330
17
100
AcDbEntity
  8
0
 62
11
100
AcDbPolyline
 90
21
 70
1
 10
17.43340338965342
 20
-21.95640955665922
 42
-0.3642142242882249
 10
17.43298978939242
 20
-21.95690203517155
 10
17.43055338965342
 20
-21.95732947372225
 10
17.42855338965342
 20
-21.95732947372225
 10
17.42855338965342
 20
-21.95982947372225
 10
17.42950338965342
 20
-21.95982947372225
 42
-0.4142135623731395
 10
17.43025338965342
 20
-21.96057947372225
 42
-0.4142135623730507
 10
17.42950338965342
 20
-21.96132947372225
 10
17.42705338965342
 20
-21.96132947372225
 10
17.42705338965342
 20
-21.95732947372225
 10
17.37655338965342
 20
-21.95732947372225
 10
17.37655338965342
 20
-21.96332947372225
 42
-0.8252846317787602
 10
17.37558937610621
 20
-21.9635157300725
 10
17.3740749815251
 20
-21.9602412275324
 42
-0.530985777794659
 10
17.37435338965342
 20
-21.95982947372225
 10
17.37505338965342
 20
-21.95982947372225
 10
17.37505338965342
 20
-21.95732947372225
 10
17.37110338965342
 20
-21.95732947372225
 10
17.37110338965342
 20
-21.95582947372225
 10
17.43290338965342
 20
-21.95582947372225
 42
-0.4142135623730951
 10
17.43340338965342
 20
-21.95632947372225
  0
LINE
  5
AF
330
17
100
AcDbEntity
  8
0
  6
CONTINUOUS
 62
8
 48
100.0
100
AcDbLine
 10
17.33080338965324
 20
-21.98094714820049
 30
0.0
 11
17.33080338965341
 21
-18.88793357221118
 31
0.0
  0
LINE
  5
B0
330
17
100
AcDbEntity
  8
0
  6
CONTINUOUS
 62
8
 48
100.0
100
AcDbLine
 10
17.33080338965311
 20
-24.41091454398769
 30
0.0
 11
17.33080338965323
 21
-21.9950794737219
 31
0.0
  0
LINE
  5
B1
330
17
100
AcDbEntity
  8
0
 62
4
100
AcDbLine
 10
17.28400541876613
 20
-18.88243357221119
 30
0.0
 11
17.58400541876613
 21
-18.88243357221119
 31
0.0
  0
LINE
  5
B2
330
17
100
AcDbEntity
  8
0
 62
4
100
AcDbLine
 10
17.28400541876613
 20
-18.88243357221119
 30
0.0
 11
17.28400541876613
 21
-18.78809313584276
 31
0.0
  0
LINE
  5
B3
330
17
100
AcDbEntity
  8
0
 62
4
100
AcDbLine
 10
17.58400541876613
 20
-18.88243357221119
 30
0.0
 11
17.58400541876613
 21
-18.78809313584276
 31
0.0
  0
LWPOLYLINE
  5
B4
330
17
100
AcDbEntity
  8
0
 62
11
100
AcDbPolyline
 90
4
 70
1
 10
12.99190832368745
 20
-18.91057947372224
 10
15.14190832368744
 20
-18.91057947372224
 10
15.14190832368744
 20
-24.42057947372224
 10
12.99190832368745
 20
-24.42057947372224
  0
LWPOLYLINE
  5
B6
330
17
100
AcDbEntity
  8
0-TEXTO
  6
CONTINUOUS
 48
5.0
100
AcDbPolyline
 90
8
 70
1
 10
17.27693567185591
 20
-21.77875880072615
 10
17.53993722920817
 20
-21.77875880072615
 42
-0.4142135623730951
 10
17.61493722927801
 20
-21.85375880184373
 10
17.61493722927801
 20
-22.12226782007864
 42
-0.4142135623730951
 10
17.53993722920817
 20
-22.19726782119623
 10
17.27693567185591
 20
-22.19726782119623
 42
-0.4142135623730951
 10
17.20193567187337
 20
-22.12226782007864
 10
17.20193567187337
 20
-21.85375880184373
 42
-0.4142135623730951
  0
LINE
  5
B7
330
17
100
AcDbEntity
  8
0
 62
4
100
AcDbLine
 10
12.98690832368745
 20
-24.76116071723363
 30
0.0
 11
12.98690832368745
 21
-24.99602785595558
 31
0.0
  0
LINE
  5
B8
330
17
100
AcDbEntity
  8
0
 62
4
100
AcDbLine
 10
15.14690832368744
 20
-24.99602785595558
 30
0.0
 11
15.27172658766119
 21
-24.99602785595558
 31
0.0
  0
LINE
  5
B9
330
17
100
AcDbEntity
  8
0
 62
4
100
AcDbLine
 10
15.14690832368745
 20
-24.76116071723363
 30
0.0
 11
15.27172658766119
 21
-24.76116071723363
 31
0.0
  0
LWPOLYLINE
  5
BA
330
17
100
AcDbEntity
  8
0
 62
11
100
AcDbPolyline
 90
14
 70
1
 10
15.11840832368745
 20
-24.94043267518503
 42
-0.4142135623730951
 10
15.11940832368745
 20
-24.94143267518504
 10
15.11940832368745
 20
-24.94443267518504
 10
15.13820832368744
 20
-24.94443267518504
 42
0.4142135623730966
 10
15.13920832368744
 20
-24.94343267518503
 10
15.13920832368744
 20
-24.78143267518503
 42
0.4142135623730951
 10
15.13820832368744
 20
-24.78043267518503
 10
15.08060832368744
 20
-24.78043267518503
 42
0.4142135623730951
 10
15.07960832368745
 20
-24.78143267518503
 10
15.07960832368745
 20
-24.94343267518503
 42
0.4142135623730948
 10
15.08060832368744
 20
-24.94443267518504
 10
15.09940832368745
 20
-24.94443267518504
 10
15.09940832368745
 20
-24.94143267518504
 42
-0.4142135623730951
 10
15.10040832368744
 20
-24.94043267518503
  0
LWPOLYLINE
  5
BB
330
17
100
AcDbEntity
  8
0
 62
11
100
AcDbPolyline
 90
11
 70
1
 10
15.11040832368745
 20
-24.94743267518503
 10
15.14090832368745
 20
-24.94743267518503
 42
0.4142135623730951
 10
15.14190832368744
 20
-24.94643267518503
 10
15.14190832368744
 20
-24.77843267518503
 42
0.4142135623730951
 10
15.14090832368745
 20
-24.77743267518504
 10
15.07790832368744
 20
-24.77743267518504
 42
0.4142135623730951
 10
15.07690832368744
 20
-24.77843267518503
 10
15.07690832368744
 20
-24.94643267518503
 42
0.4142135623730951
 10
15.07790832368744
 20
-24.94743267518503
 10
15.10840832368744
 20
-24.94743267518503
 10
15.10940832368745
 20
-24.94643267518503
  0
LINE
  5
BC
330
17
100
AcDbEntity
  8
0
 62
4
100
AcDbLine
 10
15.14690832368745
 20
-24.76116071723363
 30
0.0
 11
15.14690832368744
 21
-24.99602785595558
 31
0.0
  0
LWPOLYLINE
  5
BD
330
17
100
AcDbEntity
  8
0
 62
11
100
AcDbPolyline
 90
14
 70
1
 10
13.03340832368745
 20
-24.94043267518501
 42
-0.4142135623730951
 10
13.03440832368745
 20
-24.94143267518501
 10
13.03440832368745
 20
-24.94443267518501
 10
13.05320832368745
 20
-24.94443267518501
 42
0.4142135623730966
 10
13.05420832368745
 20
-24.94343267518501
 10
13.05420832368745
 20
-24.78143267518501
 42
0.4142135623730951
 10
13.05320832368745
 20
-24.78043267518501
 10
12.99560832368745
 20
-24.78043267518501
 42
0.4142135623730951
 10
12.99460832368745
 20
-24.78143267518501
 10
12.99460832368745
 20
-24.94343267518501
 42
0.4142135623730948
 10
12.99560832368745
 20
-24.94443267518501
 10
13.01440832368745
 20
-24.94443267518501
 10
13.01440832368745
 20
-24.94143267518501
 42
-0.4142135623730951
 10
13.01540832368745
 20
-24.94043267518501
  0
LWPOLYLINE
  5
BE
330
17
100
AcDbEntity
  8
0
 62
11
100
AcDbPolyline
 90
11
 70
1
 10
13.02540832368745
 20
-24.94743267518501
 10
13.05590832368745
 20
-24.94743267518501
 42
0.4142135623730951
 10
13.05690832368745
 20
-24.94643267518501
 10
13.05690832368745
 20
-24.77843267518501
 42
0.4142135623730951
 10
13.05590832368745
 20
-24.77743267518501
 10
12.99290832368745
 20
-24.77743267518501
 42
0.4142135623730951
 10
12.99190832368745
 20
-24.77843267518501
 10
12.99190832368745
 20
-24.94643267518501
 42
0.4142135623730951
 10
12.99290832368745
 20
-24.94743267518501
 10
13.02340832368745
 20
-24.94743267518501
 10
13.02440832368745
 20
-24.94643267518501
  0
LWPOLYLINE
  5
BF
330
17
100
AcDbEntity
  8
0
 62
11
100
AcDbPolyline
 90
14
 70
1
 10
14.07590832368745
 20
-24.94043267518501
 42
-0.4142135623730951
 10
14.07690832368745
 20
-24.94143267518501
 10
14.07690832368745
 20
-24.94443267518501
 10
14.09570832368745
 20
-24.94443267518501
 42
0.4142135623730966
 10
14.09670832368744
 20
-24.94343267518501
 10
14.09670832368744
 20
-24.78143267518501
 42
0.4142135623730951
 10
14.09570832368745
 20
-24.78043267518501
 10
14.03810832368745
 20
-24.78043267518501
 42
0.4142135623730951
 10
14.03710832368745
 20
-24.78143267518501
 10
14.03710832368745
 20
-24.94343267518501
 42
0.4142135623730948
 10
14.03810832368745
 20
-24.94443267518501
 10
14.05690832368745
 20
-24.94443267518501
 10
14.05690832368745
 20
-24.94143267518501
 42
-0.4142135623730951
 10
14.05790832368745
 20
-24.94043267518501
  0
LWPOLYLINE
  5
C0
330
17
100
AcDbEntity
  8
0
 62
11
100
AcDbPolyline
 90
11
 70
1
 10
14.06790832368745
 20
-24.94743267518501
 10
14.09840832368745
 20
-24.94743267518501
 42
0.4142135623730951
 10
14.09940832368745
 20
-24.94643267518501
 10
14.09940832368745
 20
-24.77843267518501
 42
0.4142135623730951
 10
14.09840832368745
 20
-24.77743267518501
 10
14.03540832368745
 20
-24.77743267518501
 42
0.4142135623730951
 10
14.03440832368745
 20
-24.77843267518501
 10
14.03440832368745
 20
-24.94643267518501
 42
0.4142135623730951
 10
14.03540832368745
 20
-24.94743267518501
 10
14.06590832368745
 20
-24.94743267518501
 10
14.06690832368745
 20
-24.94643267518501
  0
LINE
  5
C1
330
17
100
AcDbEntity
  8
0
 62
11
100
AcDbLine
 10
15.14140832368715
 20
-24.96463267518473
 30
0.0
 11
14.07407278129412
 21
-24.9646326751848
 31
0.0
  0
LINE
  5
C2
330
17
100
AcDbEntity
  8
0
 62
11
100
AcDbLine
 10
15.14140832368775
 20
-24.96763267518534
 30
0.0
 11
14.07407278129363
 21
-24.96763267518529
 31
0.0
  0
LINE
  5
C3
330
17
100
AcDbEntity
  8
0
 62
11
100
AcDbLine
 10
15.14164400403249
 20
-24.97063267518504
 30
0.0
 11
14.07407278129404
 21
-24.97063267518505
 31
0.0
  0
LINE
  5
C4
330
17
100
AcDbEntity
  8
0
 62
11
100
AcDbLine
 10
15.14164400403266
 20
-24.98263267518504
 30
0.0
 11
14.07407278129372
 21
-24.98263267518503
 31
0.0
  0
LINE
  5
C5
330
17
100
AcDbEntity
  8
0
 62
11
100
AcDbLine
 10
15.14140832368793
 20
-24.98663267518534
 30
0.0
 11
14.07407278129345
 21
-24.98663267518529
 31
0.0
  0
LINE
  5
C6
330
17
100
AcDbEntity
  8
0
  6
CONTINUOUS
 62
8
 48
100.0
100
AcDbLine
 10
15.14140832368793
 20
-24.98718267518535
 30
0.0
 11
14.07357278129397
 21
-24.98718267518529
 31
0.0
  0
LINE
  5
C7
330
17
100
AcDbEntity
  8
0
 62
11
100
AcDbLine
 10
15.14140832368757
 20
-24.99063267518474
 30
0.0
 11
14.07407278129397
 21
-24.9906326751848
 31
0.0
  0
LINE
  5
C8
330
17
100
AcDbEntity
  8
0
 62
11
100
AcDbLine
 10
15.14190832368744
 20
-24.98313267518487
 30
0.0
 11
15.14190832368744
 21
-24.98613267518487
 31
0.0
  0
LINE
  5
C9
330
17
100
AcDbEntity
  8
0
 62
11
100
AcDbLine
 10
15.14190832368744
 20
-24.98713267518486
 30
0.0
 11
15.14190832368744
 21
-24.99013267518487
 31
0.0
  0
LINE
  5
CA
330
17
100
AcDbEntity
  8
0
 62
11
100
AcDbLine
 10
15.14140832368744
 20
-24.99063267518487
 30
0.0
 11
15.14190832368744
 21
-24.99013267518487
 31
0.0
  0
LINE
  5
CB
330
17
100
AcDbEntity
  8
0
 62
8
100
AcDbLine
 10
15.14140832368745
 20
-24.98263267518487
 30
0.0
 11
15.14190832368744
 21
-24.98313267518487
 31
0.0
  0
LINE
  5
CC
330
17
100
AcDbEntity
  8
0
 62
11
100
AcDbLine
 10
15.14140832368745
 20
-24.98663267518486
 30
0.0
 11
15.14190832368744
 21
-24.98713267518486
 31
0.0
  0
LINE
  5
CD
330
17
100
AcDbEntity
  8
0
 62
11
100
AcDbLine
 10
15.14140832368745
 20
-24.98663267518486
 30
0.0
 11
15.14190832368744
 21
-24.98613267518487
 31
0.0
  0
LINE
  5
CE
330
17
100
AcDbEntity
  8
0
 62
11
100
AcDbLine
 10
15.14190832368744
 20
-24.96513267518503
 30
0.0
 11
15.14190832368744
 21
-24.96713267518503
 31
0.0
  0
LINE
  5
CF
330
17
100
AcDbEntity
  8
0
 62
11
100
AcDbLine
 10
15.14190832368745
 20
-24.96813267518504
 30
0.0
 11
15.14190832368744
 21
-24.97013267518504
 31
0.0
  0
LINE
  5
D0
330
17
100
AcDbEntity
  8
0
 62
11
100
AcDbLine
 10
15.14140832368745
 20
-24.96763267518504
 30
0.0
 11
15.14190832368744
 21
-24.96813267518504
 31
0.0
  0
LINE
  5
D1
330
17
100
AcDbEntity
  8
0
 62
11
100
AcDbLine
 10
15.14140832368745
 20
-24.96763267518504
 30
0.0
 11
15.14190832368744
 21
-24.96713267518504
 31
0.0
  0
LINE
  5
D2
330
17
100
AcDbEntity
  8
0
 62
8
100
AcDbLine
 10
15.14140832368745
 20
-24.97063267518504
 30
0.0
 11
15.14190832368744
 21
-24.97013267518504
 31
0.0
  0
LINE
  5
D3
330
17
100
AcDbEntity
  8
0
 62
11
100
AcDbLine
 10
15.14140832368745
 20
-24.96463267518504
 30
0.0
 11
15.14190832368744
 21
-24.96513267518503
 31
0.0
  0
LINE
  5
D4
330
17
100
AcDbEntity
  8
0
 62
8
100
AcDbLine
 10
15.14140832368745
 20
-24.98263267518487
 30
0.0
 11
15.14190832368744
 21
-24.98313267518487
 31
0.0
  0
LINE
  5
D5
330
17
100
AcDbEntity
  8
0
 62
8
100
AcDbLine
 10
15.14140832368745
 20
-24.97063267518504
 30
0.0
 11
15.14190832368744
 21
-24.97013267518504
 31
0.0
  0
LINE
  5
D6
330
17
100
AcDbEntity
  8
0
 62
8
100
AcDbLine
 10
15.14140832368745
 20
-24.98263267518487
 30
0.0
 11
15.14190832368744
 21
-24.98313267518487
 31
0.0
  0
LWPOLYLINE
  5
D7
330
17
100
AcDbEntity
  8
0
 62
8
100
AcDbPolyline
 90
6
 70
1
 10
15.12922282662096
 20
-24.97163267518487
 10
15.12922282662096
 20
-24.98163267518487
 10
15.13422282662096
 20
-24.98163267518487
 10
15.13722282662096
 20
-24.97813267518487
 10
15.13722282662096
 20
-24.97513267518487
 10
15.13422282662096
 20
-24.97163267518487
  0
LWPOLYLINE
  5
D8
330
17
100
AcDbEntity
  8
0
 62
8
100
AcDbPolyline
 90
6
 70
1
 10
15.12972282662096
 20
-24.97213267518487
 10
15.12972282662096
 20
-24.98113267518487
 10
15.1340714388021
 20
-24.98113267518487
 10
15.13672282662096
 20
-24.97786508330563
 10
15.13672282662096
 20
-24.97540026706412
 10
15.1340714388021
 20
-24.97213267518487
  0
LINE
  5
D9
330
17
100
AcDbEntity
  8
0
 62
8
100
AcDbLine
 10
15.14140832368744
 20
-24.97063267518487
 30
0.0
 11
15.14190832368744
 21
-24.97013267518486
 31
0.0
  0
ARC
  5
DA
330
17
100
AcDbEntity
  8
0
 62
8
100
AcDbCircle
 10
15.15359896985429
 20
-24.97663267518487
 30
0.0
 40
0.0133761432333217
100
AcDbArc
 50
150.9259378909695
 51
209.0740621090173
  0
LINE
  5
DB
330
17
100
AcDbEntity
  8
0
 62
8
100
AcDbLine
 10
15.13422282662096
 20
-24.97163267518487
 30
0.0
 11
15.13422282662096
 21
-24.97063267518487
 31
0.0
  0
LINE
  5
DC
330
17
100
AcDbEntity
  8
0
 62
8
100
AcDbLine
 10
15.13422282662096
 20
-24.98163267518487
 30
0.0
 11
15.13422282662096
 21
-24.98263267518487
 31
0.0
  0
LINE
  5
DD
330
17
100
AcDbEntity
  8
0
 62
8
100
AcDbLine
 10
15.12922282662096
 20
-24.98263267518504
 30
0.0
 11
15.12922282662096
 21
-24.97063267518487
 31
0.0
  0
LINE
  5
DE
330
17
100
AcDbEntity
  8
0
 62
11
100
AcDbLine
 10
14.05994045577168
 20
-24.9646326751848
 30
0.0
 11
12.99257278129405
 21
-24.96463267518485
 31
0.0
  0
LINE
  5
DF
330
17
100
AcDbEntity
  8
0
 62
11
100
AcDbLine
 10
14.05994045577201
 20
-24.96763267518513
 30
0.0
 11
12.99257278129385
 21
-24.96763267518507
 31
0.0
  0
LINE
  5
E0
330
17
100
AcDbEntity
  8
0
 62
11
100
AcDbLine
 10
14.05994045577184
 20
-24.97063267518497
 30
0.0
 11
12.99257278129396
 21
-24.97063267518497
 31
0.0
  0
LINE
  5
E1
330
17
100
AcDbEntity
  8
0
 62
11
100
AcDbLine
 10
14.05994045577202
 20
-24.98263267518497
 30
0.0
 11
12.99257278129378
 21
-24.98263267518497
 31
0.0
  0
LINE
  5
E2
330
17
100
AcDbEntity
  8
0
 62
11
100
AcDbLine
 10
14.0599404557722
 20
-24.98663267518514
 30
0.0
 11
12.99257278129366
 21
-24.98663267518507
 31
0.0
  0
LINE
  5
E3
330
17
100
AcDbEntity
  8
0
  6
CONTINUOUS
 62
8
 48
100.0
100
AcDbLine
 10
14.0599404557722
 20
-24.98718267518513
 30
0.0
 11
12.99207278129397
 21
-24.98718267518507
 31
0.0
  0
LINE
  5
E4
330
17
100
AcDbEntity
  8
0
 62
11
100
AcDbLine
 10
14.05994045577183
 20
-24.99063267518481
 30
0.0
 11
12.99257278129404
 21
-24.99063267518486
 31
0.0
  0
LINE
  5
E5
330
17
100
AcDbEntity
  8
0
 62
11
100
AcDbLine
 10
14.07357278129397
 20
-24.98313267518478
 30
0.0
 11
14.07357278129397
 21
-24.98613267518479
 31
0.0
  0
LINE
  5
E6
330
17
100
AcDbEntity
  8
0
 62
11
100
AcDbLine
 10
14.07357278129397
 20
-24.98713267518479
 30
0.0
 11
14.07357278129397
 21
-24.99013267518479
 31
0.0
  0
LINE
  5
E7
330
17
100
AcDbEntity
  8
0
 62
11
100
AcDbLine
 10
14.07407278129397
 20
-24.99063267518479
 30
0.0
 11
14.07357278129397
 21
-24.99013267518479
 31
0.0
  0
LINE
  5
E8
330
17
100
AcDbEntity
  8
0
 62
11
100
AcDbLine
 10
14.07407278129396
 20
-24.98263267518479
 30
0.0
 11
14.07357278129397
 21
-24.98313267518478
 31
0.0
  0
LINE
  5
E9
330
17
100
AcDbEntity
  8
0
 62
11
100
AcDbLine
 10
14.07407278129396
 20
-24.98663267518479
 30
0.0
 11
14.07357278129397
 21
-24.98713267518479
 31
0.0
  0
LINE
  5
EA
330
17
100
AcDbEntity
  8
0
 62
11
100
AcDbLine
 10
14.07407278129396
 20
-24.98663267518479
 30
0.0
 11
14.07357278129397
 21
-24.98613267518479
 31
0.0
  0
LINE
  5
EB
330
17
100
AcDbEntity
  8
0
 62
11
100
AcDbLine
 10
14.07357278129397
 20
-24.96513267518496
 30
0.0
 11
14.07357278129397
 21
-24.96713267518496
 31
0.0
  0
LINE
  5
EC
330
17
100
AcDbEntity
  8
0
 62
11
100
AcDbLine
 10
14.07357278129396
 20
-24.96813267518496
 30
0.0
 11
14.07357278129397
 21
-24.97013267518497
 31
0.0
  0
LINE
  5
ED
330
17
100
AcDbEntity
  8
0
 62
11
100
AcDbLine
 10
14.07407278129396
 20
-24.96763267518496
 30
0.0
 11
14.07357278129397
 21
-24.96813267518496
 31
0.0
  0
LINE
  5
EE
330
17
100
AcDbEntity
  8
0
 62
11
100
AcDbLine
 10
14.07407278129396
 20
-24.96763267518496
 30
0.0
 11
14.07357278129397
 21
-24.96713267518496
 31
0.0
  0
LINE
  5
EF
330
17
100
AcDbEntity
  8
0
 62
11
100
AcDbLine
 10
14.07407278129396
 20
-24.97063267518497
 30
0.0
 11
14.07357278129397
 21
-24.97013267518497
 31
0.0
  0
LINE
  5
F0
330
17
100
AcDbEntity
  8
0
 62
11
100
AcDbLine
 10
14.07407278129396
 20
-24.96463267518495
 30
0.0
 11
14.07357278129397
 21
-24.96513267518496
 31
0.0
  0
LINE
  5
F1
330
17
100
AcDbEntity
  8
0
 62
11
100
AcDbLine
 10
14.06044045577184
 20
-24.98313267518478
 30
0.0
 11
14.06044045577184
 21
-24.98613267518479
 31
0.0
  0
LINE
  5
F2
330
17
100
AcDbEntity
  8
0
 62
11
100
AcDbLine
 10
14.06044045577184
 20
-24.98713267518479
 30
0.0
 11
14.06044045577184
 21
-24.99013267518479
 31
0.0
  0
LINE
  5
F3
330
17
100
AcDbEntity
  8
0
 62
11
100
AcDbLine
 10
14.05994045577183
 20
-24.99063267518479
 30
0.0
 11
14.06044045577184
 21
-24.99013267518479
 31
0.0
  0
LINE
  5
F4
330
17
100
AcDbEntity
  8
0
 62
11
100
AcDbLine
 10
14.05994045577184
 20
-24.98263267518479
 30
0.0
 11
14.06044045577184
 21
-24.98313267518478
 31
0.0
  0
LINE
  5
F5
330
17
100
AcDbEntity
  8
0
 62
11
100
AcDbLine
 10
14.05994045577184
 20
-24.98663267518479
 30
0.0
 11
14.06044045577184
 21
-24.98713267518479
 31
0.0
  0
LINE
  5
F6
330
17
100
AcDbEntity
  8
0
 62
11
100
AcDbLine
 10
14.05994045577184
 20
-24.98663267518479
 30
0.0
 11
14.06044045577184
 21
-24.98613267518479
 31
0.0
  0
LINE
  5
F7
330
17
100
AcDbEntity
  8
0
 62
11
100
AcDbLine
 10
14.06044045577184
 20
-24.96513267518496
 30
0.0
 11
14.06044045577184
 21
-24.96713267518496
 31
0.0
  0
LINE
  5
F8
330
17
100
AcDbEntity
  8
0
 62
11
100
AcDbLine
 10
14.06044045577185
 20
-24.96813267518496
 30
0.0
 11
14.06044045577184
 21
-24.97013267518497
 31
0.0
  0
LINE
  5
F9
330
17
100
AcDbEntity
  8
0
 62
11
100
AcDbLine
 10
14.05994045577185
 20
-24.96763267518496
 30
0.0
 11
14.06044045577184
 21
-24.96813267518496
 31
0.0
  0
LINE
  5
FA
330
17
100
AcDbEntity
  8
0
 62
11
100
AcDbLine
 10
14.05994045577185
 20
-24.96763267518496
 30
0.0
 11
14.06044045577184
 21
-24.96713267518496
 31
0.0
  0
LINE
  5
FB
330
17
100
AcDbEntity
  8
0
 62
11
100
AcDbLine
 10
14.05994045577184
 20
-24.97063267518497
 30
0.0
 11
14.06044045577184
 21
-24.97013267518497
 31
0.0
  0
LINE
  5
FC
330
17
100
AcDbEntity
  8
0
 62
11
100
AcDbLine
 10
14.05994045577184
 20
-24.96463267518495
 30
0.0
 11
14.06044045577184
 21
-24.96513267518496
 31
0.0
  0
LINE
  5
FD
330
17
100
AcDbEntity
  8
0
 62
11
100
AcDbLine
 10
14.07407278129396
 20
-24.98263267518479
 30
0.0
 11
14.07357278129397
 21
-24.98313267518478
 31
0.0
  0
LWPOLYLINE
  5
FE
330
17
100
AcDbEntity
  8
0
 62
8
100
AcDbPolyline
 90
6
 70
1
 10
14.08625827836045
 20
-24.97163267518479
 10
14.08625827836045
 20
-24.98163267518479
 10
14.08125827836045
 20
-24.98163267518479
 10
14.07825827836045
 20
-24.97813267518479
 10
14.07825827836045
 20
-24.97513267518479
 10
14.08125827836045
 20
-24.97163267518479
  0
LWPOLYLINE
  5
FF
330
17
100
AcDbEntity
  8
0
 62
8
100
AcDbPolyline
 90
6
 70
1
 10
14.08575827836045
 20
-24.97213267518479
 10
14.08575827836045
 20
-24.98113267518479
 10
14.08140966617931
 20
-24.98113267518479
 10
14.07875827836044
 20
-24.97786508330555
 10
14.07875827836044
 20
-24.97540026706404
 10
14.08140966617931
 20
-24.97213267518479
  0
LINE
  5
100
330
17
100
AcDbEntity
  8
0
 62
11
100
AcDbLine
 10
14.07407278129397
 20
-24.97063267518479
 30
0.0
 11
14.07357278129397
 21
-24.97013267518479
 31
0.0
  0
ARC
  5
101
330
17
100
AcDbEntity
  8
0
 62
8
100
AcDbCircle
 10
14.06188213512713
 20
-24.97663267518479
 30
0.0
 40
0.0133761432333217
100
AcDbArc
 50
330.9259378909825
 51
29.07406210903057
  0
LINE
  5
102
330
17
100
AcDbEntity
  8
0
 62
8
100
AcDbLine
 10
14.08125827836045
 20
-24.97163267518479
 30
0.0
 11
14.08125827836045
 21
-24.97063267518479
 31
0.0
  0
LINE
  5
103
330
17
100
AcDbEntity
  8
0
 62
8
100
AcDbLine
 10
14.08125827836045
 20
-24.98163267518479
 30
0.0
 11
14.08125827836045
 21
-24.98263267518479
 31
0.0
  0
LINE
  5
104
330
17
100
AcDbEntity
  8
0
 62
11
100
AcDbLine
 10
14.05994045577184
 20
-24.97063267518497
 30
0.0
 11
14.06044045577184
 21
-24.97013267518497
 31
0.0
  0
LINE
  5
105
330
17
100
AcDbEntity
  8
0
 62
8
100
AcDbLine
 10
14.04775495870536
 20
-24.98263267518479
 30
0.0
 11
14.04775495870536
 21
-24.97063267518479
 31
0.0
  0
LWPOLYLINE
  5
106
330
17
100
AcDbEntity
  8
0
 62
8
100
AcDbPolyline
 90
6
 70
1
 10
14.04775495870536
 20
-24.97163267518479
 10
14.04775495870536
 20
-24.98163267518479
 10
14.05275495870536
 20
-24.98163267518479
 10
14.05575495870535
 20
-24.97813267518479
 10
14.05575495870535
 20
-24.97513267518479
 10
14.05275495870536
 20
-24.97163267518479
  0
LWPOLYLINE
  5
107
330
17
100
AcDbEntity
  8
0
 62
8
100
AcDbPolyline
 90
6
 70
1
 10
14.04825495870535
 20
-24.97213267518479
 10
14.04825495870535
 20
-24.98113267518479
 10
14.05260357088649
 20
-24.98113267518479
 10
14.05525495870536
 20
-24.97786508330555
 10
14.05525495870536
 20
-24.97540026706404
 10
14.05260357088649
 20
-24.97213267518479
  0
LINE
  5
108
330
17
100
AcDbEntity
  8
0
 62
11
100
AcDbLine
 10
14.05994045577184
 20
-24.97063267518479
 30
0.0
 11
14.06044045577184
 21
-24.97013267518479
 31
0.0
  0
ARC
  5
109
330
17
100
AcDbEntity
  8
0
 62
8
100
AcDbCircle
 10
14.07213110193868
 20
-24.97663267518479
 30
0.0
 40
0.0133761432333217
100
AcDbArc
 50
150.9259378909695
 51
209.0740621090174
  0
LINE
  5
10A
330
17
100
AcDbEntity
  8
0
 62
8
100
AcDbLine
 10
14.05275495870536
 20
-24.97163267518479
 30
0.0
 11
14.05275495870536
 21
-24.97063267518479
 31
0.0
  0
LINE
  5
10B
330
17
100
AcDbEntity
  8
0
 62
8
100
AcDbLine
 10
14.05275495870536
 20
-24.98163267518479
 30
0.0
 11
14.05275495870536
 21
-24.98263267518479
 31
0.0
  0
ARC
  5
10C
330
17
100
AcDbEntity
  8
0
 62
8
100
AcDbCircle
 10
14.06700661853291
 20
-25.00446816229245
 30
0.0
 40
0.0155354871076451
100
AcDbArc
 50
62.94535250408608
 51
117.0546474959841
  0
LINE
  5
10D
330
17
100
AcDbEntity
  8
0
 62
8
100
AcDbLine
 10
14.08625827836045
 20
-24.97063267518505
 30
0.0
 11
14.08625827836045
 21
-24.98263267518479
 31
0.0
  0
LINE
  5
10E
330
17
100
AcDbEntity
  8
0
 62
11
100
AcDbLine
 10
12.99207278129397
 20
-24.98313267518478
 30
0.0
 11
12.99207278129397
 21
-24.98613267518478
 31
0.0
  0
LINE
  5
10F
330
17
100
AcDbEntity
  8
0
 62
11
100
AcDbLine
 10
12.99207278129397
 20
-24.98713267518479
 30
0.0
 11
12.99207278129397
 21
-24.99013267518479
 31
0.0
  0
LINE
  5
110
330
17
100
AcDbEntity
  8
0
 62
11
100
AcDbLine
 10
12.99257278129397
 20
-24.99063267518479
 30
0.0
 11
12.99207278129397
 21
-24.99013267518479
 31
0.0
  0
LINE
  5
111
330
17
100
AcDbEntity
  8
0
 62
11
100
AcDbLine
 10
12.99257278129396
 20
-24.98263267518479
 30
0.0
 11
12.99207278129397
 21
-24.98313267518478
 31
0.0
  0
LINE
  5
112
330
17
100
AcDbEntity
  8
0
 62
11
100
AcDbLine
 10
12.99257278129396
 20
-24.98663267518479
 30
0.0
 11
12.99207278129397
 21
-24.98713267518479
 31
0.0
  0
LINE
  5
113
330
17
100
AcDbEntity
  8
0
 62
11
100
AcDbLine
 10
12.99257278129396
 20
-24.98663267518479
 30
0.0
 11
12.99207278129397
 21
-24.98613267518478
 31
0.0
  0
LINE
  5
114
330
17
100
AcDbEntity
  8
0
 62
11
100
AcDbLine
 10
12.99207278129397
 20
-24.96513267518495
 30
0.0
 11
12.99207278129397
 21
-24.96713267518495
 31
0.0
  0
LINE
  5
115
330
17
100
AcDbEntity
  8
0
 62
11
100
AcDbLine
 10
12.99207278129396
 20
-24.96813267518495
 30
0.0
 11
12.99207278129397
 21
-24.97013267518496
 31
0.0
  0
LINE
  5
116
330
17
100
AcDbEntity
  8
0
 62
11
100
AcDbLine
 10
12.99257278129395
 20
-24.96763267518496
 30
0.0
 11
12.99207278129397
 21
-24.96813267518495
 31
0.0
  0
LINE
  5
117
330
17
100
AcDbEntity
  8
0
 62
11
100
AcDbLine
 10
12.99257278129395
 20
-24.96763267518496
 30
0.0
 11
12.99207278129397
 21
-24.96713267518496
 31
0.0
  0
LINE
  5
118
330
17
100
AcDbEntity
  8
0
 62
11
100
AcDbLine
 10
12.99257278129396
 20
-24.97063267518496
 30
0.0
 11
12.99207278129397
 21
-24.97013267518496
 31
0.0
  0
LINE
  5
119
330
17
100
AcDbEntity
  8
0
 62
11
100
AcDbLine
 10
12.99257278129396
 20
-24.96463267518495
 30
0.0
 11
12.99207278129397
 21
-24.96513267518495
 31
0.0
  0
LINE
  5
11A
330
17
100
AcDbEntity
  8
0
 62
11
100
AcDbLine
 10
12.99257278129396
 20
-24.98263267518479
 30
0.0
 11
12.99207278129397
 21
-24.98313267518478
 31
0.0
  0
LWPOLYLINE
  5
11B
330
17
100
AcDbEntity
  8
0
 62
8
100
AcDbPolyline
 90
6
 70
1
 10
13.00475827836044
 20
-24.97163267518478
 10
13.00475827836044
 20
-24.98163267518479
 10
12.99975827836045
 20
-24.98163267518479
 10
12.99675827836045
 20
-24.97813267518479
 10
12.99675827836045
 20
-24.97513267518479
 10
12.99975827836045
 20
-24.97163267518478
  0
LWPOLYLINE
  5
11C
330
17
100
AcDbEntity
  8
0
 62
8
100
AcDbPolyline
 90
6
 70
1
 10
13.00425827836045
 20
-24.97213267518479
 10
13.00425827836045
 20
-24.98113267518478
 10
12.99990966617931
 20
-24.98113267518478
 10
12.99725827836044
 20
-24.97786508330555
 10
12.99725827836044
 20
-24.97540026706404
 10
12.99990966617931
 20
-24.97213267518479
  0
LINE
  5
11D
330
17
100
AcDbEntity
  8
0
 62
11
100
AcDbLine
 10
12.99257278129397
 20
-24.97063267518479
 30
0.0
 11
12.99207278129397
 21
-24.97013267518478
 31
0.0
  0
ARC
  5
11E
330
17
100
AcDbEntity
  8
0
 62
8
100
AcDbCircle
 10
12.98038213512712
 20
-24.97663267518479
 30
0.0
 40
0.0133761432333217
100
AcDbArc
 50
330.9259378909825
 51
29.07406210903057
  0
LINE
  5
11F
330
17
100
AcDbEntity
  8
0
 62
8
100
AcDbLine
 10
12.99975827836045
 20
-24.97163267518478
 30
0.0
 11
12.99975827836045
 21
-24.97063267518479
 31
0.0
  0
LINE
  5
120
330
17
100
AcDbEntity
  8
0
 62
8
100
AcDbLine
 10
12.99975827836045
 20
-24.98163267518479
 30
0.0
 11
12.99975827836045
 21
-24.98263267518479
 31
0.0
  0
LINE
  5
121
330
17
100
AcDbEntity
  8
0
 62
8
100
AcDbLine
 10
13.00475827836044
 20
-24.97063267518504
 30
0.0
 11
13.00475827836044
 21
-24.98263267518479
 31
0.0
  0
LWPOLYLINE
  5
122
330
17
100
AcDbEntity
  8
0-TEXTO
  6
CONTINUOUS
 48
5.0
100
AcDbPolyline
 90
8
 70
1
 10
13.93540754501132
 20
-24.67477816494986
 10
14.19840910236358
 20
-24.67477816494986
 42
-0.4142135623730951
 10
14.27340910243342
 20
-24.74977816606745
 10
14.27340910243342
 20
-25.01828718430236
 42
-0.4142135623730951
 10
14.19840910236358
 20
-25.09328718541995
 10
13.93540754501132
 20
-25.09328718541995
 42
-0.4142135623730951
 10
13.86040754502878
 20
-25.01828718430236
 10
13.86040754502878
 20
-24.74977816606745
 42
-0.4142135623730951
  0
LINE
  5
123
330
17
100
AcDbEntity
  8
0-COTAS REF
100
AcDbLine
 10
12.36690832368745
 20
-24.42057947372223
 30
0.0
 11
12.36690832368745
 21
-18.31057947372224
 31
0.0
  0
LINE
  5
124
330
17
100
AcDbEntity
  8
0-COTAS REF
100
AcDbLine
 10
12.36690832368745
 20
-18.31057947372224
 30
0.0
 11
15.6395019928932
 21
-18.31057947372224
 31
0.0
  0
LWPOLYLINE
  5
125
330
17
100
AcDbEntity
  8
0
 62
8
100
AcDbPolyline
 90
6
 70
0
 10
18.23423054393549
 20
-24.17917624852954
 10
17.7640129657791
 20
-24.17917624852954
 10
17.7640129657791
 20
-24.42057947372224
 10
17.65794694860113
 20
-24.31451345654427
 10
17.7640129657791
 20
-24.42057947372224
 10
17.87361451686303
 20
-24.31097792263831
  0
LINE
  5
126
330
17
100
AcDbEntity
  8
0-TEXTO
 62
4
100
AcDbLine
 10
14.430485490938
 20
-18.41227297472777
 30
0.0
 11
14.430485490938
 21
-18.01227297528656
 31
0.0
  0
LINE
  5
127
330
17
100
AcDbEntity
  8
0-TEXTO
 62
4
100
AcDbLine
 10
14.42048549092868
 20
-18.41227297472777
 30
0.0
 11
14.42048549092868
 21
-18.01227297528656
 31
0.0
  0
LINE
  5
128
330
17
100
AcDbEntity
  8
0-TEXTO
 62
251
100
AcDbLine
 10
14.430485490938
 20
-18.11227297491403
 30
0.0
 11
15.03048549091471
 21
-18.11227297491403
 31
0.0
  0
LINE
  5
129
330
17
100
AcDbEntity
  8
0-TEXTO
 62
251
100
AcDbLine
 10
14.50119616905721
 20
-18.18298365256758
 30
0.0
 11
14.430485490938
 21
-18.11227297491403
 31
0.0
  0
LINE
  5
12A
330
17
100
AcDbEntity
  8
0-TEXTO
 62
251
100
AcDbLine
 10
14.430485490938
 20
-18.11227297491403
 30
0.0
 11
14.50119616905721
 21
-18.04156229632916
 31
0.0
  0
LINE
  5
12B
330
17
100
AcDbEntity
  8
0-TEXTO
 62
4
100
AcDbLine
 10
12.21810534263105
 20
-22.77974325125166
 30
0.0
 11
11.81810534318984
 21
-22.77974325125166
 31
0.0
  0
LINE
  5
12C
330
17
100
AcDbEntity
  8
0-TEXTO
 62
4
100
AcDbLine
 10
12.21810534263105
 20
-22.78974325126097
 30
0.0
 11
11.81810534318984
 21
-22.78974325126097
 31
0.0
  0
LINE
  5
12D
330
17
100
AcDbEntity
  8
0-TEXTO
 62
251
100
AcDbLine
 10
11.91810534281731
 20
-22.77974325125166
 30
0.0
 11
11.91810534281731
 21
-22.17974325127494
 31
0.0
  0
LINE
  5
12E
330
17
100
AcDbEntity
  8
0-TEXTO
 62
251
100
AcDbLine
 10
11.98881602047086
 20
-22.70903257313245
 30
0.0
 11
11.91810534281731
 21
-22.77974325125166
 31
0.0
  0
LINE
  5
12F
330
17
100
AcDbEntity
  8
0-TEXTO
 62
251
100
AcDbLine
 10
11.91810534281731
 20
-22.77974325125166
 30
0.0
 11
11.84739466423244
 21
-22.70903257313245
 31
0.0
  0
LINE
  5
130
330
17
100
AcDbEntity
  8
0-TEXTO
 62
12
100
AcDbLine
 10
15.478970941331
 20
-19.70158650949992
 30
0.0
 11
14.72165873771496
 21
-19.70158650949992
 31
0.0
  0
CIRCLE
  5
131
330
17
100
AcDbEntity
  8
0-TEXTO
100
AcDbCircle
 10
14.72165873771496
 20
-19.70158650949992
 30
0.0
 40
0.0143465129660836
  0
LINE
  5
132
330
17
100
AcDbEntity
  8
0-TEXTO
 62
12
100
AcDbLine
 10
15.478970941331
 20
-20.63795632271235
 30
0.0
 11
15.1099572133579
 21
-20.63795632271235
 31
0.0
  0
CIRCLE
  5
133
330
17
100
AcDbEntity
  8
0-TEXTO
100
AcDbCircle
 10
15.1099572133579
 20
-20.63795632271235
 30
0.0
 40
0.0143465129660836
  0
LINE
  5
134
330
17
100
AcDbEntity
  8
0-TEXTO
 62
12
100
AcDbLine
 10
15.478970941331
 20
-21.50210165553591
 30
0.0
 11
14.75272250352373
 21
-21.50210165553591
 31
0.0
  0
CIRCLE
  5
135
330
17
100
AcDbEntity
  8
0-TEXTO
100
AcDbCircle
 10
14.75272250352373
 20
-21.97096600970167
 30
0.0
 40
0.0143465129660836
  0
LINE
  5
136
330
17
100
AcDbEntity
  8
0-TEXTO
 62
12
100
AcDbLine
 10
14.75272250352373
 20
-21.97096600970167
 30
0.0
 11
14.75272250352373
 21
-21.50210165553591
 31
0.0
  0
LINE
  5
137
330
17
100
AcDbEntity
  8
0-TEXTO
 62
12
100
AcDbLine
 10
15.478970941331
 20
-19.22695127131539
 30
0.0
 11
14.75272250352373
 21
-19.22695127131539
 31
0.0
  0
CIRCLE
  5
138
330
17
100
AcDbEntity
  8
0-TEXTO
100
AcDbCircle
 10
14.75272250352373
 20
-18.94568378361186
 30
0.0
 40
0.0143465129660836
  0
LINE
  5
139
330
17
100
AcDbEntity
  8
0-TEXTO
 62
12
100
AcDbLine
 10
14.75272250352373
 20
-19.22695127131539
 30
0.0
 11
14.75272250352373
 21
-18.94568378361186
 31
0.0
  0
LINE
  5
13B
330
17
100
AcDbEntity
  8
0-TEXTO DETALLE
 62
12
100
AcDbLine
 10
17.40269629106751
 20
-22.00154734554576
 30
0.0
 11
17.49688471392778
 21
-22.00154734554576
 31
0.0
  0
CIRCLE
  5
13C
330
17
100
AcDbEntity
  8
0-TEXTO DETALLE
100
AcDbCircle
 10
17.40269629106751
 20
-22.00154734554576
 30
0.0
 40
0.0008966570603802
  0
LINE
  5
13D
330
17
100
AcDbEntity
  8
0-TEXTO
 62
12
100
AcDbLine
 10
15.478970941331
 20
-23.91642985912239
 30
0.0
 11
14.75272250352373
 21
-23.91642985912239
 31
0.0
  0
CIRCLE
  5
13E
330
17
100
AcDbEntity
  8
0-TEXTO
100
AcDbCircle
 10
14.75272250352373
 20
-24.38529421328815
 30
0.0
 40
0.0143465129660836
  0
LINE
  5
13F
330
17
100
AcDbEntity
  8
0-TEXTO
 62
12
100
AcDbLine
 10
14.75272250352373
 20
-24.38529421328815
 30
0.0
 11
14.75272250352373
 21
-23.91642985912239
 31
0.0
  0
LWPOLYLINE
  5
140
330
17
100
AcDbEntity
  8
0
 62
8
100
AcDbPolyline
 90
4
 70
1
 10
12.99190832368745
 20
-24.77743267518501
 10
15.14190832368744
 20
-24.77743267518504
 10
15.14190832368744
 20
-24.94743267518503
 10
12.99190832368745
 20
-24.94743267518501
  0
LINE
  5
141
330
17
100
AcDbEntity
  8
0
 62
4
100
AcDbLine
 10
12.98690832368745
 20
-24.76116071723363
 30
0.0
 11
12.8622866494046
 21
-24.76116071723363
 31
0.0
  0
LINE
  5
142
330
17
100
AcDbEntity
  8
0
 62
4
100
AcDbLine
 10
12.98710491337835
 20
-24.99602785595558
 30
0.0
 11
12.8622866494046
 21
-24.99602785595558
 31
0.0
  0
LINE
  5
143
330
17
100
AcDbEntity
  8
0-TEXTO
 62
12
100
AcDbLine
 10
17.84165711258822
 20
-20.63795632271235
 30
0.0
 11
17.47264338461512
 21
-20.63795632271235
 31
0.0
  0
CIRCLE
  5
144
330
17
100
AcDbEntity
  8
0-TEXTO
100
AcDbCircle
 10
17.47264338461512
 20
-20.63795632271235
 30
0.0
 40
0.0143465129660836
  0
LINE
  5
145
330
17
100
AcDbEntity
  8
0-TEXTO
 62
12
100
AcDbLine
 10
17.84165711258822
 20
-21.36725065181696
 30
0.0
 11
17.4002472786841
 21
-21.36725065181696
 31
0.0
  0
CIRCLE
  5
146
330
17
100
AcDbEntity
  8
0-TEXTO
100
AcDbCircle
 10
17.4002472786841
 20
-21.98088831096119
 30
0.0
 40
0.0143465129660836
  0
LINE
  5
147
330
17
100
AcDbEntity
  8
0-TEXTO
 62
12
100
AcDbLine
 10
17.4002472786841
 20
-21.98088831096119
 30
0.0
 11
17.4002472786841
 21
-21.36725065181696
 31
0.0
  0
LINE
  5
148
330
17
100
AcDbEntity
  8
0-TEXTO
 62
12
100
AcDbLine
 10
17.84165711258822
 20
-19.70158650949992
 30
0.0
 11
17.33535338965341
 21
-19.70158650949992
 31
0.0
  0
CIRCLE
  5
149
330
17
100
AcDbEntity
  8
0-TEXTO
100
AcDbCircle
 10
17.33535338965341
 20
-19.70158650949992
 30
0.0
 40
0.0143465129660836
  0
LINE
  5
14A
330
17
100
AcDbEntity
  8
0-TEXTO
 62
12
100
AcDbLine
 10
17.84165711258822
 20
-23.78157885540344
 30
0.0
 11
17.44870134523455
 21
-23.78157885540344
 31
0.0
  0
CIRCLE
  5
14B
330
17
100
AcDbEntity
  8
0-TEXTO
100
AcDbCircle
 10
17.44870134523455
 20
-24.38529421328815
 30
0.0
 40
0.0143465129660836
  0
LINE
  5
14C
330
17
100
AcDbEntity
  8
0-TEXTO
 62
12
100
AcDbLine
 10
17.44870134523455
 20
-24.38529421328815
 30
0.0
 11
17.44870134523455
 21
-23.78157885540344
 31
0.0
  0
LINE
  5
14D
330
17
100
AcDbEntity
  8
0-TEXTO DETALLE
 62
12
100
AcDbLine
 10
17.33135338965324
 20
-21.90219847205642
 30
0.0
 11
17.49688471392778
 21
-21.90219847205642
 31
0.0
  0
CIRCLE
  5
14E
330
17
100
AcDbEntity
  8
0-TEXTO DETALLE
100
AcDbCircle
 10
17.33135338965324
 20
-21.90219847205642
 30
0.0
 40
0.0008966570603802
  0
LINE
  5
14F
330
17
100
AcDbEntity
  8
0-TEXTO DETALLE
 62
12
100
AcDbLine
 10
17.34131743273598
 20
-22.07053541538153
 30
0.0
 11
17.49688471392778
 21
-22.07053541538153
 31
0.0
  0
CIRCLE
  5
150
330
17
100
AcDbEntity
  8
0-TEXTO DETALLE
100
AcDbCircle
 10
17.34131743273598
 20
-22.07053541538153
 30
0.0
 40
0.0008966570603802
  0
LINE
  5
151
330
17
100
AcDbEntity
  8
0-TEXTO DETALLE
 62
12
100
AcDbLine
 10
17.35046079910899
 20
-22.11981779020665
 30
0.0
 11
17.49688471392778
 21
-22.11981779020665
 31
0.0
  0
CIRCLE
  5
152
330
17
100
AcDbEntity
  8
0-TEXTO DETALLE
100
AcDbCircle
 10
17.35045222714801
 20
-22.11981779020665
 30
0.0
 40
0.0008966570603802
  0
LINE
  5
153
330
17
100
AcDbEntity
  8
0
 62
251
100
AcDbLine
 10
17.357885428700794
 20
-21.988356190015615
 30
0.0
 11
17.357885428700794
 21
-21.987670431906757
 31
0.0
  0
LINE
  5
154
330
17
100
AcDbEntity
  8
0
 62
251
100
AcDbLine
 10
17.359885428700853
 20
-21.990013310961185
 30
0.0
 11
17.359885428700853
 21
-21.986013310961198
 31
0.0
  0
LINE
  5
155
330
17
100
AcDbEntity
  8
0
 62
251
100
AcDbLine
 10
17.380248491317353
 20
-21.990013310961196
 30
0.0
 11
17.359885428700853
 21
-21.990013310961185
 31
0.0
  0
LINE
  5
156
330
17
100
AcDbEntity
  8
0
 62
251
100
AcDbLine
 10
17.380248491317072
 20
-21.986013310961308
 30
0.0
 11
17.359885428700853
 21
-21.986013310961198
 31
0.0
  0
LINE
  5
157
330
17
100
AcDbEntity
  8
0
 62
251
100
AcDbLine
 10
17.359885428700853
 20
-21.990013310961185
 30
0.0
 11
17.357885428700904
 21
-21.993013310961196
 31
0.0
  0
LINE
  5
158
330
17
100
AcDbEntity
  8
0
 62
251
100
AcDbLine
 10
17.359885428700853
 20
-21.986013310961198
 30
0.0
 11
17.357885428700904
 21
-21.983013310961177
 31
0.0
  0
LINE
  5
159
330
17
100
AcDbEntity
  8
0
 62
251
100
AcDbLine
 10
17.38453750515807
 20
-21.988013310961318
 30
0.0
 11
17.380248491317072
 21
-21.986013310961308
 31
0.0
  0
LINE
  5
15A
330
17
100
AcDbEntity
  8
0
 62
251
100
AcDbLine
 10
17.38453750515807
 20
-21.988013310961318
 30
0.0
 11
17.380248491317122
 21
-21.990013310961295
 31
0.0
  0
LINE
  5
15B
330
17
100
AcDbEntity
  8
0
 62
251
100
AcDbLine
 10
17.365328804373853
 20
-21.990513310961205
 30
0.0
 11
17.362442053027895
 21
-21.985513310961206
 31
0.0
  0
LINE
  5
15C
330
17
100
AcDbEntity
  8
0
 62
251
100
AcDbLine
 10
17.367328804373862
 20
-21.990513310961205
 30
0.0
 11
17.364442053027904
 21
-21.985513310961206
 31
0.0
  0
LINE
  5
15D
330
17
100
AcDbEntity
  8
0
 62
251
100
AcDbLine
 10
17.363328804373843
 20
-21.990513310961205
 30
0.0
 11
17.360442053027885
 21
-21.985513310961206
 31
0.0
  0
ARC
  5
15E
330
17
100
AcDbEntity
  8
0
 62
251
100
AcDbCircle
 10
17.380793812665665
 20
-21.988013310961055
 30
0.0
 40
0.0234476876445912
100
AcDbArc
 50
167.68766983888
 51
179.1621253568056
  0
ARC
  5
15F
330
17
100
AcDbEntity
  8
0
 62
251
100
AcDbCircle
 10
17.380793812665665
 20
-21.988013310961055
 30
0.0
 40
0.0234476876445912
100
AcDbArc
 50
-179.1621253563204
 51
-167.68766983823994
  0
LINE
  5
160
330
17
100
AcDbEntity
  8
0
 62
251
100
AcDbLine
 10
17.357885428700904
 20
-21.987670431906757
 30
0.0
 11
17.357346125021074
 21
-21.987670431906757
 31
0.0
  0
LINE
  5
161
330
17
100
AcDbEntity
  8
0
 62
251
100
AcDbLine
 10
17.357885428700904
 20
-21.988356190015597
 30
0.0
 11
17.357346125021074
 21
-21.988356190015597
 31
0.0
  0
LINE
  5
162
330
17
100
AcDbEntity
  8
0
 62
251
100
AcDbLine
 10
17.369328804373872
 20
-21.990513310961205
 30
0.0
 11
17.366442053027914
 21
-21.985513310961206
 31
0.0
  0
LINE
  5
163
330
17
100
AcDbEntity
  8
0
 62
251
100
AcDbLine
 10
17.371328804373874
 20
-21.990513310961205
 30
0.0
 11
17.368442053027923
 21
-21.985513310961206
 31
0.0
  0
LINE
  5
164
330
17
100
AcDbEntity
  8
0
 62
251
100
AcDbLine
 10
17.373328804373894
 20
-21.990513310961205
 30
0.0
 11
17.370442053027933
 21
-21.985513310961206
 31
0.0
  0
LINE
  5
165
330
17
100
AcDbEntity
  8
0
 62
251
100
AcDbLine
 10
17.375328804373893
 20
-21.990513310961205
 30
0.0
 11
17.372442053027942
 21
-21.985513310961206
 31
0.0
  0
LINE
  5
166
330
17
100
AcDbEntity
  8
0
 62
251
100
AcDbLine
 10
17.377328804373914
 20
-21.990513310961205
 30
0.0
 11
17.374442053027952
 21
-21.985513310961206
 31
0.0
  0
LINE
  5
167
330
17
100
AcDbEntity
  8
0
 62
251
100
AcDbLine
 10
17.379328804373912
 20
-21.990513310961205
 30
0.0
 11
17.376442053027965
 21
-21.985513310961206
 31
0.0
  0
LINE
  5
168
330
17
100
AcDbEntity
  8
0
 62
8
100
AcDbLine
 10
17.35335338965358
 20
-21.96749100079737
 30
0.0
 11
17.35455338965342
 21
-21.96749100079737
 31
0.0
  0
LINE
  5
169
330
17
100
AcDbEntity
  8
0
 62
8
100
AcDbLine
 10
17.35985338965342
 20
-21.98007947372225
 30
0.0
 11
17.3602551605805
 21
-21.98007947372225
 31
0.0
  0
LINE
  5
16A
330
17
100
AcDbEntity
  8
0
 62
8
100
AcDbLine
 10
17.35335338965358
 20
-22.00853562112503
 30
0.0
 11
17.35455338965342
 21
-22.00853562112503
 31
0.0
  0
LINE
  5
16B
330
17
100
AcDbEntity
  8
0
 62
8
100
AcDbLine
 10
17.35985338965342
 20
-21.99607947372225
 30
0.0
 11
17.3602551605805
 21
-21.99607947372225
 31
0.0
  0
LINE
  5
16C
330
17
100
AcDbEntity
  8
0-TEXTO
 62
12
100
AcDbLine
 10
15.478970941331
 20
-24.68942973993222
 30
0.0
 11
14.83876561352133
 21
-24.68942973993222
 31
0.0
  0
CIRCLE
  5
16D
330
17
100
AcDbEntity
  8
0-TEXTO
100
AcDbCircle
 10
14.83876561352133
 20
-24.87480950927981
 30
0.0
 40
0.0143465129660836
  0
LINE
  5
16E
330
17
100
AcDbEntity
  8
0-TEXTO
 62
12
100
AcDbLine
 10
14.83876561352133
 20
-24.87480950927981
 30
0.0
 11
14.83876561352133
 21
-24.68942973993222
 31
0.0
  0
LINE
  5
16F
330
17
100
AcDbEntity
  8
0-TEXTO DETALLE
 62
12
100
AcDbLine
 10
17.42147533729754
 20
-21.83688695153789
 30
0.0
 11
17.49688471392778
 21
-21.83688695153789
 31
0.0
  0
CIRCLE
  5
170
330
17
100
AcDbEntity
  8
0-TEXTO DETALLE
100
AcDbCircle
 10
17.42147533729754
 20
-21.83688695153789
 30
0.0
 40
0.0008966570603802
  0
LINE
  5
171
330
17
100
AcDbEntity
  8
0-TEXTO DETALLE
 62
12
100
AcDbLine
 10
14.06633684309464
 20
-24.74348017473613
 30
0.0
 11
14.17481770031769
 21
-24.74348017473613
 31
0.0
  0
CIRCLE
  5
172
330
17
100
AcDbEntity
  8
0-TEXTO DETALLE
100
AcDbCircle
 10
14.06633684309464
 20
-24.77868848654577
 30
0.0
 40
0.0008966570603802
  0
LINE
  5
173
330
17
100
AcDbEntity
  8
0
 62
8
100
AcDbLine
 10
14.05890832368745
 20
-24.95813267518502
 30
0.0
 11
14.05890832368745
 21
-24.95773090425793
 31
0.0
  0
LINE
  5
174
330
17
100
AcDbEntity
  8
0
 62
8
100
AcDbLine
 10
14.07490832368745
 20
-24.95813267518502
 30
0.0
 11
14.07490832368745
 21
-24.95773090425793
 31
0.0
  0
LINE
  5
175
330
17
100
AcDbEntity
  8
0
 62
8
100
AcDbLine
 10
14.08542477670814
 20
-24.96343267518501
 30
0.0
 11
14.08542477670814
 21
-24.9646326751848
 31
0.0
  0
LINE
  5
176
330
17
100
AcDbEntity
  8
0
 62
8
100
AcDbLine
 10
14.04858846035765
 20
-24.96343267518501
 30
0.0
 11
14.04858846035765
 21
-24.9646326751848
 31
0.0
  0
LINE
  5
177
330
17
100
AcDbEntity
  8
0
 62
251
100
AcDbLine
 10
14.067584436128957
 20
-24.9598134463653
 30
0.0
 11
14.066898678020099
 21
-24.9598134463653
 31
0.0
  0
LINE
  5
178
330
17
100
AcDbEntity
  8
0
 62
251
100
AcDbLine
 10
14.069241557074527
 20
-24.95781344636524
 30
0.0
 11
14.06524155707454
 21
-24.95781344636524
 31
0.0
  0
LINE
  5
179
330
17
100
AcDbEntity
  8
0
 62
251
100
AcDbLine
 10
14.069241557074537
 20
-24.93745038374874
 30
0.0
 11
14.069241557074527
 21
-24.95781344636524
 31
0.0
  0
LINE
  5
17A
330
17
100
AcDbEntity
  8
0
 62
251
100
AcDbLine
 10
14.06524155707465
 20
-24.93745038374902
 30
0.0
 11
14.06524155707454
 21
-24.95781344636524
 31
0.0
  0
LINE
  5
17B
330
17
100
AcDbEntity
  8
0
 62
251
100
AcDbLine
 10
14.069241557074527
 20
-24.95781344636524
 30
0.0
 11
14.072241557074538
 21
-24.95981344636519
 31
0.0
  0
LINE
  5
17C
330
17
100
AcDbEntity
  8
0
 62
251
100
AcDbLine
 10
14.06524155707454
 20
-24.95781344636524
 30
0.0
 11
14.062241557074518
 21
-24.95981344636519
 31
0.0
  0
LINE
  5
17D
330
17
100
AcDbEntity
  8
0
 62
251
100
AcDbLine
 10
14.06724155707466
 20
-24.93316136990802
 30
0.0
 11
14.06524155707465
 21
-24.93745038374902
 31
0.0
  0
LINE
  5
17E
330
17
100
AcDbEntity
  8
0
 62
251
100
AcDbLine
 10
14.06724155707466
 20
-24.93316136990802
 30
0.0
 11
14.069241557074637
 21
-24.93745038374897
 31
0.0
  0
LINE
  5
17F
330
17
100
AcDbEntity
  8
0
 62
251
100
AcDbLine
 10
14.069741557074547
 20
-24.95237007069224
 30
0.0
 11
14.064741557074548
 21
-24.955256822038198
 31
0.0
  0
LINE
  5
180
330
17
100
AcDbEntity
  8
0
 62
251
100
AcDbLine
 10
14.069741557074547
 20
-24.95037007069223
 30
0.0
 11
14.064741557074548
 21
-24.95325682203819
 31
0.0
  0
LINE
  5
181
330
17
100
AcDbEntity
  8
0
 62
251
100
AcDbLine
 10
14.069741557074547
 20
-24.95437007069225
 30
0.0
 11
14.064741557074548
 21
-24.957256822038207
 31
0.0
  0
ARC
  5
182
330
17
100
AcDbEntity
  8
0
 62
251
100
AcDbCircle
 10
14.067241557074396
 20
-24.936905062400427
 30
0.0
 40
0.0234476876445912
100
AcDbArc
 50
-102.31233016112002
 51
-90.83787464319441
  0
ARC
  5
183
330
17
100
AcDbEntity
  8
0
 62
251
100
AcDbCircle
 10
14.067241557074396
 20
-24.936905062400427
 30
0.0
 40
0.0234476876445912
100
AcDbArc
 50
-89.16212535632039
 51
-77.68766983823993
  0
LINE
  5
184
330
17
100
AcDbEntity
  8
0
 62
251
100
AcDbLine
 10
14.066898678020099
 20
-24.95981344636519
 30
0.0
 11
14.066898678020099
 21
-24.96035275004502
 31
0.0
  0
LINE
  5
185
330
17
100
AcDbEntity
  8
0
 62
251
100
AcDbLine
 10
14.06758443612894
 20
-24.95981344636519
 30
0.0
 11
14.06758443612894
 21
-24.96035275004502
 31
0.0
  0
LINE
  5
186
330
17
100
AcDbEntity
  8
0
 62
251
100
AcDbLine
 10
14.069741557074547
 20
-24.94837007069222
 30
0.0
 11
14.064741557074548
 21
-24.95125682203818
 31
0.0
  0
LINE
  5
187
330
17
100
AcDbEntity
  8
0
 62
251
100
AcDbLine
 10
14.069741557074547
 20
-24.94637007069222
 30
0.0
 11
14.064741557074548
 21
-24.94925682203817
 31
0.0
  0
LINE
  5
188
330
17
100
AcDbEntity
  8
0
 62
251
100
AcDbLine
 10
14.069741557074547
 20
-24.944370070692198
 30
0.0
 11
14.064741557074548
 21
-24.94725682203816
 31
0.0
  0
LINE
  5
189
330
17
100
AcDbEntity
  8
0
 62
251
100
AcDbLine
 10
14.069741557074547
 20
-24.9423700706922
 30
0.0
 11
14.064741557074548
 21
-24.94525682203815
 31
0.0
  0
LINE
  5
18A
330
17
100
AcDbEntity
  8
0
 62
251
100
AcDbLine
 10
14.069741557074547
 20
-24.94037007069218
 30
0.0
 11
14.064741557074548
 21
-24.94325682203814
 31
0.0
  0
LINE
  5
18B
330
17
100
AcDbEntity
  8
0
 62
251
100
AcDbLine
 10
14.069741557074547
 20
-24.93837007069218
 30
0.0
 11
14.064741557074548
 21
-24.941256822038127
 31
0.0
  0
LINE
  5
18C
330
17
100
AcDbEntity
  8
0-TEXTO DETALLE
 62
12
100
AcDbLine
 10
14.09899009452059
 20
-25.02182412060364
 30
0.0
 11
14.17472351174519
 21
-25.02182412060364
 31
0.0
  0
LINE
  5
18D
330
17
100
AcDbEntity
  8
0-TEXTO DETALLE
 62
12
100
AcDbLine
 10
14.12825897689677
 20
-24.88640426323664
 30
0.0
 11
14.17472351174519
 21
-24.88640426323664
 31
0.0
  0
LINE
  5
18E
330
17
100
AcDbEntity
  8
0-TEXTO DETALLE
 62
12
100
AcDbLine
 10
14.11489516513324
 20
-24.83774074298419
 30
0.0
 11
14.17472351174519
 21
-24.83774074298419
 31
0.0
  0
LINE
  5
18F
330
17
100
AcDbEntity
  8
0-TEXTO DETALLE
 62
12
100
AcDbLine
 10
14.06633684309464
 20
-24.77868848654577
 30
0.0
 11
14.06633684309464
 21
-24.74348017473613
 31
0.0
  0
LINE
  5
190
330
17
100
AcDbEntity
  8
0-TEXTO DETALLE
 62
12
100
AcDbLine
 10
14.11489516513324
 20
-24.96763267518529
 30
0.0
 11
14.11489516513324
 21
-24.83774074298419
 31
0.0
  0
LINE
  5
191
330
17
100
AcDbEntity
  8
0-TEXTO DETALLE
 62
12
100
AcDbLine
 10
14.12825897689676
 20
-24.97666382935582
 30
0.0
 11
14.12825897689677
 21
-24.88640426323664
 31
0.0
  0
CIRCLE
  5
192
330
17
100
AcDbEntity
  8
0-TEXTO DETALLE
100
AcDbCircle
 10
14.11489516513324
 20
-24.96763267518529
 30
0.0
 40
0.0008966570603802
  0
CIRCLE
  5
193
330
17
100
AcDbEntity
  8
0-TEXTO DETALLE
100
AcDbCircle
 10
14.12825897689676
 20
-24.97666382935582
 30
0.0
 40
0.0008966570603802
  0
LINE
  5
194
330
17
100
AcDbEntity
  8
0-TEXTO DETALLE
 62
12
100
AcDbLine
 10
14.09899009452059
 20
-24.98663267518529
 30
0.0
 11
14.09899009452059
 21
-25.02182412060364
 31
0.0
  0
CIRCLE
  5
195
330
17
100
AcDbEntity
  8
0-TEXTO DETALLE
100
AcDbCircle
 10
14.09899009452059
 20
-24.98718267518529
 30
0.0
 40
0.0008966570603802
  0
LWPOLYLINE
  5
197
330
17
100
AcDbEntity
  8
0-cortes
 62
251
100
AcDbPolyline
 90
195
 70
0
 10
13.55397988719997
 20
-22.99655473762063
 10
13.5459611394308
 20
-22.95358997611036
 10
13.54174353422491
 20
-22.91451005672749
 10
13.55217776708042
 20
-22.89112205294638
 10
13.55494338368552
 20
-22.85138962961893
 10
13.55087506726943
 20
-22.82051985886998
 10
13.5605065926953
 20
-22.79265108722228
 10
13.56108442266424
 20
-22.7663652173395
 10
13.58512145740275
 20
-22.74127479354478
 10
13.60151102853345
 20
-22.73270506926908
 10
13.61790705033263
 20
-22.72066711843683
 10
13.64818428758264
 20
-22.72154889843684
 10
13.67662540882452
 20
-22.72375184895752
 10
13.71316222439478
 20
-22.74018835520185
 10
13.73709030456479
 20
-22.76735806873245
 10
13.75657255010526
 20
-22.80231985057101
 10
13.76612890771076
 20
-22.82750475064112
 10
13.77917344125907
 20
-22.84789051642984
 10
13.78323011520709
 20
-22.87238049829611
 10
13.78880023874015
 20
-22.89208047095133
 10
13.79437074772488
 20
-22.9052535009206
 10
13.79432872316653
 20
-22.92784816506781
 10
13.79202373985705
 20
-22.94110893057569
 10
13.79830026415791
 20
-22.96651169411937
 10
13.79509985913969
 20
-22.99354136499117
 10
13.795865930736
 20
-23.00508012214221
 10
13.80875167531664
 20
-23.00972414085669
 10
13.82275645479612
 20
-23.01940622566494
 10
13.83269847940454
 20
-23.03946627278902
 10
13.83585569890553
 20
-23.06093427066545
 10
13.84054421014028
 20
-23.0928145213738
 10
13.84491896607523
 20
-23.12256134483453
 10
13.84951191836583
 20
-23.15690573834188
 10
13.84942419165395
 20
-23.20407233970891
 10
13.85569522471388
 20
-23.23874719205145
 10
13.85444758760036
 20
-23.27757378581406
 10
13.85597180892975
 20
-23.29859081893506
 10
13.86864113047824
 20
-23.34375907489382
 10
13.87823146004391
 20
-23.37795020808841
 10
13.88494134983304
 20
-23.40187209043142
 10
13.88488600608119
 20
-23.43162786975562
 10
13.88841181042801
 20
-23.47011139877247
 10
13.89601319912634
 20
-23.51628126504763
 10
13.9032056477908
 20
-23.55481000756123
 10
13.90315676790939
 20
-23.58109046229127
 10
13.90761244865726
 20
-23.61224250793279
 10
13.9128174811531
 20
-23.64496369352882
 10
13.9194413631017
 20
-23.66687966768967
 10
13.91696565161422
 20
-23.68977695562012
 10
13.90977669631328
 20
-23.70624731622057
 10
13.90411771731922
 20
-23.71536171373554
 10
13.97843630058998
 20
-23.90044280232538
 10
13.99900904559058
 20
-23.9494651365932
 10
14.00875258938717
 20
-23.97512390816214
 10
14.02417240869934
 20
-24.02660665848507
 10
14.03708345037924
 20
-24.07452691859802
 10
14.0387745326617
 20
-24.1195851702711
 10
14.03718019248859
 20
-24.16154661160858
 10
14.03324002841393
 20
-24.18184959528682
 10
14.02815281571011
 20
-24.20806312206826
 10
14.00102716776075
 20
-24.21683040905377
 10
13.9786513902003
 20
-24.22085853279043
 10
13.95406341771641
 20
-24.23249730929607
 10
13.93237695212383
 20
-24.23245697392604
 10
13.91135196525323
 20
-24.23699312820879
 10
13.8488280083983
 20
-24.23873893640516
 10
13.83357863511878
 20
-24.22200927724013
 10
13.84045687320386
 20
-24.19564554019578
 10
13.83725911874805
 20
-24.17701220803224
 10
13.82154761097917
 20
-24.12436430371835
 10
13.81517384169487
 20
-24.0817289489283
 10
13.82299545304517
 20
-24.01581496926505
 10
13.83177878422404
 20
-23.9573639705013
 10
13.84253985286969
 20
-23.89728491434574
 10
13.87346895946945
 20
-23.7183186212042
 10
13.86464282773852
 20
-23.70498596085734
 10
13.85575028426996
 20
-23.69576131195333
 10
13.85311034018033
 20
-23.7121633458403
 10
13.8518206393087
 20
-23.72936776160387
 10
13.84826625395553
 20
-23.73816612531541
 10
13.83601728957257
 20
-23.73873844672687
 10
13.82660656506539
 20
-23.74268830116622
 10
13.79707049586309
 20
-23.74145595666262
 10
13.78647007933853
 20
-23.79099621771352
 10
13.7754266769
 20
-23.84260674060461
 10
13.76753016716927
 20
-23.88786690339157
 10
13.76423389124812
 20
-23.92220401297448
 10
13.76456681765009
 20
-23.95175504850438
 10
13.76522522845764
 20
-23.97062041933223
 10
13.76929150969977
 20
-24.00258440916043
 10
13.76512030472793
 20
-24.05863157669595
 10
13.75938432966515
 20
-24.11546290645116
 10
13.74428679641283
 20
-24.18140814613702
 10
13.73010527273663
 20
-24.24147444151147
 10
13.72180187465227
 20
-24.26939687509917
 10
13.71874448818241
 20
-24.28904880634401
 10
13.71598297033074
 20
-24.32025781708708
 10
13.72264993877749
 20
-24.33164757540693
 10
13.72443152164294
 20
-24.35964635705972
 10
13.74479035325777
 20
-24.38464658215423
 10
13.74931788207664
 20
-24.39612834572209
 10
13.74234857403667
 20
-24.4208985713162
 10
13.66277154865523
 20
-24.42140325773209
 10
13.65392672871121
 20
-24.40547898215675
 10
13.65926792553793
 20
-24.3839500031943
 10
13.65692771919273
 20
-24.35927124491837
 10
13.65697523038986
 20
-24.33372666851643
 10
13.66403007684226
 20
-24.32616341653865
 10
13.66115305836217
 20
-24.21724129717994
 10
13.6612485687221
 20
-24.16588978775499
 10
13.65817068149883
 20
-24.13968670398136
 10
13.65780008763039
 20
-24.07983010431733
 10
13.66203160421781
 20
-24.04823349086238
 10
13.66410180333105
 20
-24.01585218387849
 10
13.66154605117742
 20
-23.98698810216778
 10
13.65950758554086
 20
-23.9643895684485
 10
13.65561386802261
 20
-23.9344415732744
 10
13.65301812746864
 20
-23.91447679020551
 10
13.65305964920972
 20
-23.89215246769035
 10
13.64996877930591
 20
-23.88553018997836
 10
13.64576130855769
 20
-23.89787876408257
 10
13.64205785403794
 20
-23.92362770649175
 10
13.63831285199242
 20
-23.94966551564511
 10
13.62978439235448
 20
-23.975289311879
 10
13.63356469060969
 20
-23.99670087796339
 10
13.63854970229451
 20
-24.02764274230945
 10
13.64459893390523
 20
-24.05517593815732
 10
13.64454838779951
 20
-24.08235224476523
 10
13.64655599718119
 20
-24.11522105850769
 10
13.64535376008081
 20
-24.13595786514159
 10
13.64251603737386
 20
-24.15758108589646
 10
13.6392518224666
 20
-24.19363957645912
 10
13.63620742874218
 20
-24.24422412442952
 10
13.63409883315614
 20
-24.31620854893977
 10
13.64316647539175
 20
-24.32608621785529
 10
13.64770789497251
 20
-24.39329658578598
 10
13.63328366444102
 20
-24.40058377367546
 10
13.61104260810887
 20
-24.42065435103516
 10
13.53052646214061
 20
-24.42050459640932
 10
13.5215309398134
 20
-24.40976960043952
 10
13.53070586848815
 20
-24.38724311459405
 10
13.55108938323065
 20
-24.36737384918369
 10
13.56359812437725
 20
-24.34088620625047
 10
13.56802047444418
 20
-24.33308129633314
 10
13.57003355506813
 20
-24.31877055779015
 10
13.5803841975713
 20
-24.3150464152803
 10
13.58261691815497
 20
-24.30271976412998
 10
13.57934020037302
 20
-24.28862315066135
 10
13.5459932004016
 20
-24.18133368571108
 10
13.54482750882977
 20
-24.10658521770937
 10
13.53711880639048
 20
-24.04859626510763
 10
13.53686836809208
 20
-23.99365429336928
 10
13.5372052626395
 20
-23.93259600433172
 10
13.53728228981075
 20
-23.89118205180796
 10
13.53255101427177
 20
-23.86285143675596
 10
13.52542485372868
 20
-23.82660084876063
 10
13.52310632480382
 20
-23.78394744058785
 10
13.52151310715038
 20
-23.75463740604248
 10
13.50501024881521
 20
-23.73679181131746
 10
13.50033722781592
 20
-23.71505863662239
 10
13.49791520176001
 20
-23.69645234311823
 10
13.4903000621068
 20
-23.66399543137778
 10
13.48020309544736
 20
-23.63876473306226
 10
13.47927587296627
 20
-23.58747531106398
 10
13.47269776997888
 20
-23.56622491431816
 10
13.47956292550566
 20
-23.53425566037089
 10
13.49060236280979
 20
-23.50146230497254
 10
13.49908618427784
 20
-23.46501038778803
 10
13.50862739685107
 20
-23.44146074894601
 10
13.51692838621133
 20
-23.42115307818219
 10
13.52487533652268
 20
-23.41424417979721
 10
13.5211814858003
 20
-23.40323109119534
 10
13.52296515985105
 20
-23.38586762008648
 10
13.48809873078383
 20
-23.37505891011044
 10
13.46238721459514
 20
-23.36512468885018
 10
13.44157900129937
 20
-23.35422694485824
 10
13.43445804255245
 20
-23.3467781040445
 10
13.42955888601932
 20
-23.33919261842372
 10
13.42901791721653
 20
-23.32670083429421
 10
13.42862438975601
 20
-23.31077308066327
 10
13.42880293728683
 20
-23.29693245335697
 10
13.43205949756054
 20
-23.28394861317581
 10
13.43762680421832
 20
-23.26724487370912
 10
13.44233342264371
 20
-23.23931575035274
 10
13.44652192414074
 20
-23.2182069590862
 10
13.45522774668618
 20
-23.17614996223857
 10
13.464896450021
 20
-23.11565294168848
 10
13.46971852748567
 20
-23.08884385179931
 10
13.47878562605024
 20
-23.06109561067425
 10
13.49004791944583
 20
-23.04119658247673
 10
13.50354565699078
 20
-23.02646567610048
 10
13.52270338786502
 20
-23.01471441628355
 10
13.53891667007025
 20
-23.0061315661935
 10
13.55136166353495
 20
-23.00127870238592
 10
13.55397988719997
 20
-22.99655473762063
  0
LWPOLYLINE
  5
198
330
17
100
AcDbEntity
  8
0-cortes
 62
251
100
AcDbPolyline
 90
21
 70
0
 10
13.52172555853192
 20
-23.31925849697986
 10
13.51344307346443
 20
-23.31697785881475
 10
13.50164651646855
 20
-23.31446032200316
 10
13.49710419395779
 20
-23.31093244332252
 10
13.49711031138145
 20
-23.30764338714248
 10
13.49712635474162
 20
-23.29901761334685
 10
13.50365228871266
 20
-23.27248044900947
 10
13.50675047453265
 20
-23.25988193565992
 10
13.5093587856345
 20
-23.24927545685417
 10
13.51240053972122
 20
-23.23690641842505
 10
13.51627957331493
 20
-23.22649538288387
 10
13.5211105420725
 20
-23.22650436816143
 10
13.5249412106084
 20
-23.2334735659112
 10
13.52662019276752
 20
-23.24711928021038
 10
13.52660418511215
 20
-23.25572585717926
 10
13.52541668679598
 20
-23.26221859709489
 10
13.5245849751611
 20
-23.27333205084453
 10
13.52393367770739
 20
-23.28856037408196
 10
13.52496704407744
 20
-23.30805993974928
 10
13.52405839698923
 20
-23.3163001155145
 10
13.52172555853192
 20
-23.31925849697986
  0
LWPOLYLINE
  5
199
330
17
100
AcDbEntity
  8
0-cortes
 62
251
100
AcDbPolyline
 90
29
 70
0
 10
13.84687210904417
 20
-23.60929479387389
 10
13.84154254388755
 20
-23.58665174514599
 10
13.83550949655304
 20
-23.5693761188857
 10
13.83400961669983
 20
-23.54791120354883
 10
13.82551858856831
 20
-23.53136048751958
 10
13.82214285976164
 20
-23.50730050276087
 10
13.81921236918953
 20
-23.48641388462874
 10
13.81281604155012
 20
-23.46613781620911
 10
13.80739828202425
 20
-23.44667488861372
 10
13.80656906432784
 20
-23.43116865626004
 10
13.80344193017663
 20
-23.41248426373231
 10
13.79490466622269
 20
-23.40183330662654
 10
13.79739931855593
 20
-23.39403121028523
 10
13.80071414527092
 20
-23.38763841151966
 10
13.80208712784903
 20
-23.38253459180655
 10
13.80633953524375
 20
-23.38394387414091
 10
13.80886371625044
 20
-23.39186408756521
 10
13.81490931276633
 20
-23.41083357293679
 10
13.82100878620792
 20
-23.42997210987389
 10
13.83284129947603
 20
-23.46825472518359
 10
13.84172241504774
 20
-23.49698846274645
 10
13.84931707900196
 20
-23.5207696727451
 10
13.85515664419583
 20
-23.54095646781666
 10
13.85975765700334
 20
-23.55716720254532
 10
13.86125042890091
 20
-23.56981433210254
 10
13.86159617063157
 20
-23.57983575297183
 10
13.85823847624576
 20
-23.59031741008022
 10
13.85351885587243
 20
-23.59995826979655
 10
13.84687210904417
 20
-23.60929479387389
  0
LINE
  5
19A
330
17
100
AcDbEntity
  8
0
100
AcDbLine
 10
23.39871895288851
 20
-24.42057947372224
 30
0.0
 11
23.39871895288851
 21
-16.54836224814812
 31
0.0
  0
LINE
  5
19B
330
17
100
AcDbEntity
  8
0
100
AcDbLine
 10
15.14190832368744
 20
-18.91057947372224
 30
0.0
 11
18.61950020467842
 21
-18.91057947372224
 31
0.0
  0
ENDSEC
  0
SECTION
  2
OBJECTS
  0
DICTIONARY
  5
A
330
0
100
AcDbDictionary
281
1
  3
ACAD_COLOR
350
B
  3
ACAD_GROUP
350
C
  3
ACAD_LAYOUT
350
D
  3
ACAD_MATERIAL
350
E
  3
ACAD_MLEADERSTYLE
350
F
  3
ACAD_MLINESTYLE
350
10
  3
ACAD_PLOTSETTINGS
350
11
  3
ACAD_PLOTSTYLENAME
350
12
  3
ACAD_SCALELIST
350
14
  3
ACAD_TABLESTYLE
350
15
  3
ACAD_VISUALSTYLE
350
16
  3
EZDXF_META
350
2D
  0
DICTIONARY
  5
B
330
A
100
AcDbDictionary
281
1
  0
DICTIONARY
  5
C
330
A
100
AcDbDictionary
281
1
  0
DICTIONARY
  5
D
330
A
100
AcDbDictionary
281
1
  3
Model
350
1A
  3
Layout1
350
1E
  0
DICTIONARY
  5
E
330
A
100
AcDbDictionary
281
1
  3
ByBlock
350
1F
  3
ByLayer
350
20
  3
Global
350
21
  0
DICTIONARY
  5
F
330
A
100
AcDbDictionary
281
1
  3
Standard
350
2C
  0
DICTIONARY
  5
10
330
A
100
AcDbDictionary
281
1
  3
Standard
350
22
  0
DICTIONARY
  5
11
330
A
100
AcDbDictionary
281
1
  0
ACDBDICTIONARYWDFLT
  5
12
330
A
100
AcDbDictionary
281
1
  3
Normal
350
13
100
AcDbDictionaryWithDefault
340
13
  0
ACDBPLACEHOLDER
  5
13
330
12
  0
DICTIONARY
  5
14
330
A
100
AcDbDictionary
281
1
  0
DICTIONARY
  5
15
330
A
100
AcDbDictionary
281
1
  0
DICTIONARY
  5
16
330
A
100
AcDbDictionary
281
1
  0
LAYOUT
  5
1A
330
D
100
AcDbPlotSettings
  1

  4
A3
  6

 40
7.5
 41
20.0
 42
7.5
 43
20.0
 44
420.0
 45
297.0
 46
0.0
 47
0.0
 48
0.0
 49
0.0
140
0.0
141
0.0
142
1.0
143
1.0
 70
1024
 72
1
 73
0
 74
5
  7

 75
16
 76
0
 77
2
 78
300
147
1.0
148
0.0
149
0.0
100
AcDbLayout
  1
Model
 70
1
 71
0
 10
0.0
 20
0.0
 11
420.0
 21
297.0
 12
0.0
 22
0.0
 32
0.0
 14
1e+20
 24
1e+20
 34
1e+20
 15
-1e+20
 25
-1e+20
 35
-1e+20
146
0.0
 13
0.0
 23
0.0
 33
0.0
 16
1.0
 26
0.0
 36
0.0
 17
0.0
 27
1.0
 37
0.0
 76
1
330
17
  0
LAYOUT
  5
1E
330
D
100
AcDbPlotSettings
  1

  4
A3
  6

 40
7.5
 41
20.0
 42
7.5
 43
20.0
 44
420.0
 45
297.0
 46
0.0
 47
0.0
 48
0.0
 49
0.0
140
0.0
141
0.0
142
1.0
143
1.0
 70
0
 72
1
 73
0
 74
5
  7

 75
16
 76
0
 77
2
 78
300
147
1.0
148
0.0
149
0.0
100
AcDbLayout
  1
Layout1
 70
1
 71
1
 10
0.0
 20
0.0
 11
420.0
 21
297.0
 12
0.0
 22
0.0
 32
0.0
 14
1e+20
 24
1e+20
 34
1e+20
 15
-1e+20
 25
-1e+20
 35
-1e+20
146
0.0
 13
0.0
 23
0.0
 33
0.0
 16
1.0
 26
0.0
 36
0.0
 17
0.0
 27
1.0
 37
0.0
 76
1
330
1B
  0
MATERIAL
  5
1F
102
{ACAD_REACTORS
330
E
102
}
330
E
100
AcDbMaterial
  1
ByBlock
  2

 70
0
 40
1.0
 71
1
 41
1.0
 91
-1023410177
 42
1.0
 72
1
  3

 73
1
 74
1
 75
1
 44
0.5
 73
0
 45
1.0
 46
1.0
 77
1
  4

 78
1
 79
1
170
1
 48
1.0
171
1
  6

172
1
173
1
174
1
140
1.0
141
1.0
175
1
  7

176
1
177
1
178
1
143
1.0
179
1
  8

270
1
271
1
272
1
145
1.0
146
1.0
273
1
  9

274
1
275
1
276
1
 42
1.0
 72
1
  3

 73
1
 74
1
 75
1
 94
63
  0
MATERIAL
  5
20
102
{ACAD_REACTORS
330
E
102
}
330
E
100
AcDbMaterial
  1
ByLayer
  2

 70
0
 40
1.0
 71
1
 41
1.0
 91
-1023410177
 42
1.0
 72
1
  3

 73
1
 74
1
 75
1
 44
0.5
 73
0
 45
1.0
 46
1.0
 77
1
  4

 78
1
 79
1
170
1
 48
1.0
171
1
  6

172
1
173
1
174
1
140
1.0
141
1.0
175
1
  7

176
1
177
1
178
1
143
1.0
179
1
  8

270
1
271
1
272
1
145
1.0
146
1.0
273
1
  9

274
1
275
1
276
1
 42
1.0
 72
1
  3

 73
1
 74
1
 75
1
 94
63
  0
MATERIAL
  5
21
102
{ACAD_REACTORS
330
E
102
}
330
E
100
AcDbMaterial
  1
Global
  2

 70
0
 40
1.0
 71
1
 41
1.0
 91
-1023410177
 42
1.0
 72
1
  3

 73
1
 74
1
 75
1
 44
0.5
 73
0
 45
1.0
 46
1.0
 77
1
  4

 78
1
 79
1
170
1
 48
1.0
171
1
  6

172
1
173
1
174
1
140
1.0
141
1.0
175
1
  7

176
1
177
1
178
1
143
1.0
179
1
  8

270
1
271
1
272
1
145
1.0
146
1.0
273
1
  9

274
1
275
1
276
1
 42
1.0
 72
1
  3

 73
1
 74
1
 75
1
 94
63
  0
MLINESTYLE
  5
22
102
{ACAD_REACTORS
330
10
102
}
330
10
100
AcDbMlineStyle
  2
Standard
 70
0
  3

 62
256
 51
90.0
 52
90.0
 71
2
 49
0.5
 62
256
  6
BYLAYER
 49
-0.5
 62
256
  6
BYLAYER
  0
MLEADERSTYLE
  5
2C
102
{ACAD_REACTORS
330
F
102
}
330
F
100
AcDbMLeaderStyle
179
2
170
2
171
1
172
0
 90
2
 40
0.0
 41
0.0
173
1
 91
-1056964608
 92
-2
290
1
 42
2.0
291
1
 43
8.0
  3
Standard
 44
4.0
300

342
29
174
1
175
1
176
0
178
1
 93
-1056964608
 45
4.0
292
0
297
0
 46
4.0
 94
-1056964608
 47
1.0
 49
1.0
140
1.0
294
1
141
0.0
177
0
142
1.0
295
0
296
0
143
3.75
271
0
272
9
273
9
  0
DICTIONARY
  5
2D
330
A
100
AcDbDictionary
280
1
281
1
  3
CREATED_BY_EZDXF
350
2E
  3
WRITTEN_BY_EZDXF
350
19E
  0
DICTIONARYVAR
  5
2E
330
2D
100
DictionaryVariables
280
0
  1
1.4.4 @ 2026-10-03T07:35:27.888726+00:00
  0
DICTIONARYVAR
  5
19E
330
2D
100
DictionaryVariables
280
0
  1
1.4.4 @ 2026-10-03T07:35:27.901978+00:00
  0
ENDSEC
  0
EOF
