  0
SECTION
  2
HEADER
  9
$ACADVER
  1
AC1032
  9
$ACADMAINTVER
 90
4
  9
$DWGCODEPAGE
  3
ANSI_1252
  9
$LASTSAVEDBY
  1
ezdxf
  9
$REQUIREDVERSIONS
160
0
  9
$INSBASE
 10
0.0
 20
0.0
 30
0.0
  9
$EXTMIN
 10
1e+20
 20
1e+20
 30
1e+20
  9
$EXTMAX
 10
-1e+20
 20
-1e+20
 30
-1e+20
  9
$LIMMIN
 10
0.0
 20
0.0
  9
$LIMMAX
 10
420.0
 20
297.0
  9
$ORTHOMODE
 70
0
  9
$REGENMODE
 70
1
  9
$FILLMODE
 70
1
  9
$QTEXTMODE
 70
0
  9
$MIRRTEXT
 70
1
  9
$LTSCALE
 40
1.0
  9
$ATTMODE
 70
1
  9
$TEXTSIZE
 40
2.5
  9
$TRACEWID
 40
1.0
  9
$TEXTSTYLE
  7
Standard
  9
$CLAYER
  8
0
  9
$CELTYPE
  6
ByLayer
  9
$CECOLOR
 62
256
  9
$CELTSCALE
 40
1.0
  9
$DISPSILH
 70
0
  9
$DIMSCALE
 40
1.0
  9
$DIMASZ
 40
2.5
  9
$DIMEXO
 40
0.625
  9
$DIMDLI
 40
3.75
  9
$DIMRND
 40
0.0
  9
$DIMDLE
 40
0.0
  9
$DIMEXE
 40
1.25
  9
$DIMTP
 40
0.0
  9
$DIMTM
 40
0.0
  9
$DIMTXT
 40
2.5
  9
$DIMCEN
 40
2.5
  9
$DIMTSZ
 40
0.0
  9
$DIMTOL
 70
0
  9
$DIMLIM
 70
0
  9
$DIMTIH
 70
0
  9
$DIMTOH
 70
0
  9
$DIMSE1
 70
0
  9
$DIMSE2
 70
0
  9
$DIMTAD
 70
1
  9
$DIMZIN
 70
8
  9
$DIMBLK
  1

  9
$DIMASO
 70
1
  9
$DIMSHO
 70
1
  9
$DIMPOST
  1

  9
$DIMAPOST
  1

  9
$DIMALT
 70
0
  9
$DIMALTD
 70
3
  9
$DIMALTF
 40
0.03937007874
  9
$DIMLFAC
 40
1.0
  9
$DIMTOFL
 70
1
  9
$DIMTVP
 40
0.0
  9
$DIMTIX
 70
0
  9
$DIMSOXD
 70
0
  9
$DIMSAH
 70
0
  9
$DIMBLK1
  1

  9
$DIMBLK2
  1

  9
$DIMSTYLE
  2
ISO-25
  9
$DIMCLRD
 70
0
  9
$DIMCLRE
 70
0
  9
$DIMCLRT
 70
0
  9
$DIMTFAC
 40
1.0
  9
$DIMGAP
 40
0.625
  9
$DIMJUST
 70
0
  9
$DIMSD1
 70
0
  9
$DIMSD2
 70
0
  9
$DIMTOLJ
 70
0
  9
$DIMTZIN
 70
8
  9
$DIMALTZ
 70
0
  9
$DIMALTTZ
 70
0
  9
$DIMUPT
 70
0
  9
$DIMDEC
 70
2
  9
$DIMTDEC
 70
2
  9
$DIMALTU
 70
2
  9
$DIMALTTD
 70
3
  9
$DIMTXSTY
  7
Standard
  9
$DIMAUNIT
 70
0
  9
$DIMADEC
 70
0
  9
$DIMALTRND
 40
0.0
  9
$DIMAZIN
 70
0
  9
$DIMDSEP
 70
44
  9
$DIMATFIT
 70
3
  9
$DIMFRAC
 70
0
  9
$DIMLDRBLK
  1

  9
$DIMLUNIT
 70
2
  9
$DIMLWD
 70
-2
  9
$DIMLWE
 70
-2
  9
$DIMTMOVE
 70
0
  9
$DIMFXL
 40
1.0
  9
$DIMFXLON
 70
0
  9
$DIMJOGANG
 40
0.785398163397
  9
$DIMTFILL
 70
0
  9
$DIMTFILLCLR
 70
0
  9
$DIMARCSYM
 70
0
  9
$DIMLTYPE
  6

  9
$DIMLTEX1
  6

  9
$DIMLTEX2
  6

  9
$DIMTXTDIRECTION
 70
0
  9
$LUNITS
 70
2
  9
$LUPREC
 70
4
  9
$SKETCHINC
 40
1.0
  9
$FILLETRAD
 40
10.0
  9
$AUNITS
 70
0
  9
$AUPREC
 70
2
  9
$MENU
  1
.
  9
$ELEVATION
 40
0.0
  9
$PELEVATION
 40
0.0
  9
$THICKNESS
 40
0.0
  9
$LIMCHECK
 70
0
  9
$CHAMFERA
 40
0.0
  9
$CHAMFERB
 40
0.0
  9
$CHAMFERC
 40
0.0
  9
$CHAMFERD
 40
0.0
  9
$SKPOLY
 70
0
  9
$TDCREATE
 40
2461317.3163541667
  9
$TDUCREATE
 40
2458532.153996898
  9
$TDUPDATE
 40
2461317.3163541667
  9
$TDUUPDATE
 40
2458532.1544311
  9
$TDINDWG
 40
0.0
  9
$TDUSRTIMER
 40
0.0
  9
$USRTIMER
 70
1
  9
$ANGBASE
 50
0.0
  9
$ANGDIR
 70
0
  9
$PDMODE
 70
0
  9
$PDSIZE
 40
0.0
  9
$PLINEWID
 40
0.0
  9
$SPLFRAME
 70
0
  9
$SPLINETYPE
 70
6
  9
$SPLINESEGS
 70
8
  9
$HANDSEED
  5
CF
  9
$SURFTAB1
 70
6
  9
$SURFTAB2
 70
6
  9
$SURFTYPE
 70
6
  9
$SURFU
 70
6
  9
$SURFV
 70
6
  9
$UCSBASE
  2

  9
$UCSNAME
  2

  9
$UCSORG
 10
0.0
 20
0.0
 30
0.0
  9
$UCSXDIR
 10
1.0
 20
0.0
 30
0.0
  9
$UCSYDIR
 10
0.0
 20
1.0
 30
0.0
  9
$UCSORTHOREF
  2

  9
$UCSORTHOVIEW
 70
0
  9
$UCSORGTOP
 10
0.0
 20
0.0
 30
0.0
  9
$UCSORGBOTTOM
 10
0.0
 20
0.0
 30
0.0
  9
$UCSORGLEFT
 10
0.0
 20
0.0
 30
0.0
  9
$UCSORGRIGHT
 10
0.0
 20
0.0
 30
0.0
  9
$UCSORGFRONT
 10
0.0
 20
0.0
 30
0.0
  9
$UCSORGBACK
 10
0.0
 20
0.0
 30
0.0
  9
$PUCSBASE
  2

  9
$PUCSNAME
  2

  9
$PUCSORG
 10
0.0
 20
0.0
 30
0.0
  9
$PUCSXDIR
 10
1.0
 20
0.0
 30
0.0
  9
$PUCSYDIR
 10
0.0
 20
1.0
 30
0.0
  9
$PUCSORTHOREF
  2

  9
$PUCSORTHOVIEW
 70
0
  9
$PUCSORGTOP
 10
0.0
 20
0.0
 30
0.0
  9
$PUCSORGBOTTOM
 10
0.0
 20
0.0
 30
0.0
  9
$PUCSORGLEFT
 10
0.0
 20
0.0
 30
0.0
  9
$PUCSORGRIGHT
 10
0.0
 20
0.0
 30
0.0
  9
$PUCSORGFRONT
 10
0.0
 20
0.0
 30
0.0
  9
$PUCSORGBACK
 10
0.0
 20
0.0
 30
0.0
  9
$USERI1
 70
0
  9
$USERI2
 70
0
  9
$USERI3
 70
0
  9
$USERI4
 70
0
  9
$USERI5
 70
0
  9
$USERR1
 40
0.0
  9
$USERR2
 40
0.0
  9
$USERR3
 40
0.0
  9
$USERR4
 40
0.0
  9
$USERR5
 40
0.0
  9
$WORLDVIEW
 70
1
  9
$SHADEDGE
 70
3
  9
$SHADEDIF
 70
70
  9
$TILEMODE
 70
1
  9
$MAXACTVP
 70
64
  9
$PINSBASE
 10
0.0
 20
0.0
 30
0.0
  9
$PLIMCHECK
 70
0
  9
$PEXTMIN
 10
1e+20
 20
1e+20
 30
1e+20
  9
$PEXTMAX
 10
-1e+20
 20
-1e+20
 30
-1e+20
  9
$PLIMMIN
 10
0.0
 20
0.0
  9
$PLIMMAX
 10
420.0
 20
297.0
  9
$UNITMODE
 70
0
  9
$VISRETAIN
 70
1
  9
$PLINEGEN
 70
0
  9
$PSLTSCALE
 70
1
  9
$TREEDEPTH
 70
3020
  9
$CMLSTYLE
  2
Standard
  9
$CMLJUST
 70
0
  9
$CMLSCALE
 40
20.0
  9
$PROXYGRAPHICS
 70
1
  9
$MEASUREMENT
 70
1
  9
$CELWEIGHT
370
-1
  9
$ENDCAPS
280
0
  9
$JOINSTYLE
280
0
  9
$LWDISPLAY
290
0
  9
$INSUNITS
 70
6
  9
$HYPERLINKBASE
  1

  9
$STYLESHEET
  1

  9
$XEDIT
290
1
  9
$CEPSNTYPE
380
0
  9
$PSTYLEMODE
290
1
  9
$FINGERPRINTGUID
  2
{2177AFAF-7A65-47DF-8CE1-6DA9C2B55130}
  9
$VERSIONGUID
  2
{76AD543F-5708-4B14-B9B2-39B8CB2FBF9D}
  9
$EXTNAMES
290
1
  9
$PSVPSCALE
 40
0.0
  9
$OLESTARTUP
290
0
  9
$SORTENTS
280
127
  9
$INDEXCTL
280
0
  9
$HIDETEXT
280
1
  9
$XCLIPFRAME
280
1
  9
$HALOGAP
280
0
  9
$OBSCOLOR
 70
257
  9
$OBSLTYPE
280
0
  9
$INTERSECTIONDISPLAY
280
0
  9
$INTERSECTIONCOLOR
 70
257
  9
$DIMASSOC
280
2
  9
$PROJECTNAME
  1

  9
$CAMERADISPLAY
290
0
  9
$LENSLENGTH
 40
50.0
  9
$CAMERAHEIGHT
 40
0.0
  9
$STEPSPERSEC
 40
24.0
  9
$STEPSIZE
 40
100.0
  9
$3DDWFPREC
 40
2.0
  9
$PSOLWIDTH
 40
0.005
  9
$PSOLHEIGHT
 40
0.08
  9
$LOFTANG1
 40
1.570796326795
  9
$LOFTANG2
 40
1.570796326795
  9
$LOFTMAG1
 40
0.0
  9
$LOFTMAG2
 40
0.0
  9
$LOFTPARAM
 70
7
  9
$LOFTNORMALS
280
1
  9
$LATITUDE
 40
37.795
  9
$LONGITUDE
 40
-122.394
  9
$NORTHDIRECTION
 40
0.0
  9
$TIMEZONE
 70
-8000
  9
$LIGHTGLYPHDISPLAY
280
1
  9
$TILEMODELIGHTSYNCH
280
1
  9
$CMATERIAL
347
20
  9
$SOLIDHIST
280
0
  9
$SHOWHIST
280
1
  9
$DWFFRAME
280
2
  9
$DGNFRAME
280
2
  9
$REALWORLDSCALE
290
1
  9
$INTERFERECOLOR
 62
256
  9
$CSHADOW
280
0
  9
$SHADOWPLANELOCATION
 40
0.0
  0
ENDSEC
  0
SECTION
  2
CLASSES
  0
CLASS
  1
ACDBDICTIONARYWDFLT
  2
AcDbDictionaryWithDefault
  3
ObjectDBX Classes
 90
0
 91
0
280
0
281
0
  0
CLASS
  1
SUN
  2
AcDbSun
  3
SCENEOE
 90
1153
 91
0
280
0
281
0
  0
CLASS
  1
VISUALSTYLE
  2
AcDbVisualStyle
  3
ObjectDBX Classes
 90
4095
 91
0
280
0
281
0
  0
CLASS
  1
MATERIAL
  2
AcDbMaterial
  3
ObjectDBX Classes
 90
1153
 91
0
280
0
281
0
  0
CLASS
  1
SCALE
  2
AcDbScale
  3
ObjectDBX Classes
 90
1153
 91
0
280
0
281
0
  0
CLASS
  1
TABLESTYLE
  2
AcDbTableStyle
  3
ObjectDBX Classes
 90
4095
 91
0
280
0
281
0
  0
CLASS
  1
MLEADERSTYLE
  2
AcDbMLeaderStyle
  3
ACDB_MLEADERSTYLE_CLASS
 90
4095
 91
0
280
0
281
0
  0
CLASS
  1
DICTIONARYVAR
  2
AcDbDictionaryVar
  3
ObjectDBX Classes
 90
0
 91
0
280
0
281
0
  0
CLASS
  1
CELLSTYLEMAP
  2
AcDbCellStyleMap
  3
ObjectDBX Classes
 90
1152
 91
0
280
0
281
0
  0
CLASS
  1
MENTALRAYRENDERSETTINGS
  2
AcDbMentalRayRenderSettings
  3
SCENEOE
 90
1024
 91
0
280
0
281
0
  0
CLASS
  1
ACDBDETAILVIEWSTYLE
  2
AcDbDetailViewStyle
  3
ObjectDBX Classes
 90
1025
 91
0
280
0
281
0
  0
CLASS
  1
ACDBSECTIONVIEWSTYLE
  2
AcDbSectionViewStyle
  3
ObjectDBX Classes
 90
1025
 91
0
280
0
281
0
  0
CLASS
  1
RASTERVARIABLES
  2
AcDbRasterVariables
  3
ISM
 90
0
 91
0
280
0
281
0
  0
CLASS
  1
ACDBPLACEHOLDER
  2
AcDbPlaceHolder
  3
ObjectDBX Classes
 90
0
 91
0
280
0
281
0
  0
CLASS
  1
LAYOUT
  2
AcDbLayout
  3
ObjectDBX Classes
 90
0
 91
0
280
0
281
0
  0
ENDSEC
  0
SECTION
  2
TABLES
  0
TABLE
  2
VPORT
  5
8
330
0
100
AcDbSymbolTable
 70
1
  0
VPORT
  5
23
330
8
100
AcDbSymbolTableRecord
100
AcDbViewportTableRecord
  2
*Active
 70
0
 10
0.0
 20
0.0
 11
1.0
 21
1.0
 12
0.0
 22
0.0
 13
0.0
 23
0.0
 14
0.5
 24
0.5
 15
0.5
 25
0.5
 16
0.0
 26
0.0
 36
1.0
 17
0.0
 27
0.0
 37
0.0
 40
1000.0
 41
1.34
 42
50.0
 43
0.0
 44
0.0
 50
0.0
 51
0.0
 71
0
 72
1000
 73
1
 74
3
 75
0
 76
0
 77
0
 78
0
281
0
 65
0
146
0.0
  0
ENDTAB
  0
TABLE
  2
LTYPE
  5
2
330
0
100
AcDbSymbolTable
 70
3
  0
LTYPE
  5
24
330
2
100
AcDbSymbolTableRecord
100
AcDbLinetypeTableRecord
  2
ByBlock
 70
0
  3

 72
65
 73
0
 40
0.0
  0
LTYPE
  5
25
330
2
100
AcDbSymbolTableRecord
100
AcDbLinetypeTableRecord
  2
ByLayer
 70
0
  3

 72
65
 73
0
 40
0.0
  0
LTYPE
  5
26
330
2
100
AcDbSymbolTableRecord
100
AcDbLinetypeTableRecord
  2
Continuous
 70
0
  3

 72
65
 73
0
 40
0.0
  0
ENDTAB
  0
TABLE
  2
LAYER
  5
1
330
0
100
AcDbSymbolTable
 70
7
  0
LAYER
  5
27
330
1
100
AcDbSymbolTableRecord
100
AcDbLayerTableRecord
  2
0
 70
0
 62
7
  6
Continuous
370
-3
390
13
347
21
  0
LAYER
  5
28
330
1
100
AcDbSymbolTableRecord
100
AcDbLayerTableRecord
  2
Defpoints
 70
0
 62
7
  6
Continuous
290
0
370
-3
390
13
347
21
  0
LAYER
  5
2F
330
1
100
AcDbSymbolTableRecord
100
AcDbLayerTableRecord
  2
0-VENTANAS
 70
0
 62
7
  6
Continuous
370
-3
390
13
347
21
  0
LAYER
  5
34
330
1
100
AcDbSymbolTableRecord
100
AcDbLayerTableRecord
  2
0-cortes
 70
0
 62
7
  6
Continuous
370
-3
390
13
347
21
  0
LAYER
  5
3A
330
1
100
AcDbSymbolTableRecord
100
AcDbLayerTableRecord
  2
0-COTAS REF
 70
0
 62
7
  6
Continuous
370
-3
390
13
347
21
  0
LAYER
  5
41
330
1
100
AcDbSymbolTableRecord
100
AcDbLayerTableRecord
  2
0-TEXTO
 70
0
 62
7
  6
Continuous
370
-3
390
13
347
21
  0
LAYER
  5
6B
330
1
100
AcDbSymbolTableRecord
100
AcDbLayerTableRecord
  2
0-TEXTO DETALLE
 70
0
 62
7
  6
Continuous
370
-3
390
13
347
21
  0
ENDTAB
  0
TABLE
  2
STYLE
  5
5
330
0
100
AcDbSymbolTable
 70
1
  0
STYLE
  5
29
330
5
100
AcDbSymbolTableRecord
100
AcDbTextStyleTableRecord
  2
Standard
 70
0
 40
0.0
 41
1.0
 50
0.0
 71
0
 42
2.5
  3
txt
  4

  0
ENDTAB
  0
TABLE
  2
VIEW
  5
7
330
0
100
AcDbSymbolTable
 70
0
  0
ENDTAB
  0
TABLE
  2
UCS
  5
6
330
0
100
AcDbSymbolTable
 70
0
  0
ENDTAB
  0
TABLE
  2
APPID
  5
3
330
0
100
AcDbSymbolTable
 70
3
  0
APPID
  5
2A
330
3
100
AcDbSymbolTableRecord
100
AcDbRegAppTableRecord
  2
ACAD
 70
0
  0
APPID
  5
CC
330
3
100
AcDbSymbolTableRecord
100
AcDbRegAppTableRecord
  2
HATCHBACKGROUNDCOLOR
 70
0
  0
APPID
  5
CD
330
3
100
AcDbSymbolTableRecord
100
AcDbRegAppTableRecord
  2
EZDXF
 70
0
  0
ENDTAB
  0
TABLE
  2
DIMSTYLE
  5
4
330
0
100
AcDbSymbolTable
 70
1
100
AcDbDimStyleTable
  0
DIMSTYLE
105
2B
330
4
100
AcDbSymbolTableRecord
100
AcDbDimStyleTableRecord
  2
Standard
 70
0
 40
1.0
 41
2.5
 42
0.625
 43
3.75
 44
1.25
 45
0.0
 46
0.0
 47
0.0
 48
0.0
 49
2.5
140
2.5
141
2.5
142
0.0
143
0.03937007874
144
1.0
145
0.0
146
1.0
147
0.625
148
0.0
 69
0
 70
0
 71
0
 72
0
 73
0
 74
0
 75
0
 76
0
 77
1
 78
8
 79
3
170
0
171
3
172
1
173
0
174
0
175
0
176
0
177
0
178
0
179
2
271
2
272
2
273
2
274
3
275
0
276
0
277
2
278
44
279
0
280
0
281
0
282
0
283
0
284
8
285
0
286
0
288
0
289
3
290
0
371
-2
372
-2
  0
ENDTAB
  0
TABLE
  2
BLOCK_RECORD
  5
9
330
0
100
AcDbSymbolTable
 70
2
  0
BLOCK_RECORD
  5
17
330
9
100
AcDbSymbolTableRecord
100
AcDbBlockTableRecord
  2
*Model_Space
340
1A
 70
0
280
1
281
0
  0
BLOCK_RECORD
  5
1B
330
9
100
AcDbSymbolTableRecord
100
AcDbBlockTableRecord
  2
*Paper_Space
340
1E
 70
0
280
1
281
0
  0
ENDTAB
  0
ENDSEC
  0
SECTION
  2
BLOCKS
  0
BLOCK
  5
18
330
17
100
AcDbEntity
  8
0
100
AcDbBlockBegin
  2
*Model_Space
 70
0
 10
0.0
 20
0.0
 30
0.0
  3
*Model_Space
  1

  0
ENDBLK
  5
19
330
17
100
AcDbEntity
  8
0
100
AcDbBlockEnd
  0
BLOCK
  5
1C
330
1B
100
AcDbEntity
  8
0
100
AcDbBlockBegin
  2
*Paper_Space
 70
0
 10
0.0
 20
0.0
 30
0.0
  3
*Paper_Space
  1

  0
ENDBLK
  5
1D
330
1B
100
AcDbEntity
  8
0
100
AcDbBlockEnd
  0
ENDSEC
  0
SECTION
  2
ENTITIES
  0
LWPOLYLINE
  5
30
330
17
100
AcDbEntity
  8
0-VENTANAS
 62
8
100
AcDbPolyline
 90
4
 70
1
 10
72.08294606161103
 20
-22.14305133629838
 10
72.93147419903488
 20
-21.29452319887453
 10
73.78000233645875
 20
-22.14305133629838
 10
72.93147419903488
 20
-22.99157947372224
  0
LWPOLYLINE
  5
31
330
17
100
AcDbEntity
  8
0-VENTANAS
 62
8
100
AcDbPolyline
 90
4
 70
1
 10
72.17486994316528
 20
-22.14305133629838
 10
72.93147419903488
 20
-21.38644708042878
 10
73.68807845490448
 20
-22.14305133629838
 10
72.93147419903488
 20
-22.89965559216799
  0
LINE
  5
32
330
17
100
AcDbEntity
  8
0
100
AcDbLine
 10
63.44657375239559
 20
-24.42057947372224
 30
0.0
 11
63.44657375239559
 21
-16.54836224814812
 31
0.0
  0
LINE
  5
33
330
17
100
AcDbEntity
  8
0
 62
4
100
AcDbLine
 10
67.79605511095161
 20
-24.42057947372224
 30
0.0
 11
77.6715058159233
 21
-24.42057947372224
 31
0.0
  0
LWPOLYLINE
  5
35
330
17
100
AcDbEntity
  8
0-cortes
 62
251
100
AcDbPolyline
 90
195
 70
0
 10
71.69071519690874
 20
-22.99598329681872
 10
71.68269644913957
 20
-22.95301853530845
 10
71.67847884393368
 20
-22.91393861592558
 10
71.68891307678919
 20
-22.89055061214448
 10
71.6916786933943
 20
-22.85081818881702
 10
71.68761037697818
 20
-22.81994841806807
 10
71.69724190240407
 20
-22.79207964642037
 10
71.697819732373
 20
-22.7657937765376
 10
71.7218567671115
 20
-22.74070335274287
 10
71.73824633824222
 20
-22.73213362846717
 10
71.7546423600414
 20
-22.72009567763492
 10
71.7849195972914
 20
-22.72097745763493
 10
71.81336071853329
 20
-22.72318040815562
 10
71.84989753410355
 20
-22.73961691439994
 10
71.87382561427356
 20
-22.76678662793055
 10
71.89330785981403
 20
-22.8017484097691
 10
71.90286421741953
 20
-22.82693330983921
 10
71.91590875096784
 20
-22.84731907562794
 10
71.91996542491586
 20
-22.87180905749421
 10
71.92553554844892
 20
-22.89150903014942
 10
71.93110605743365
 20
-22.90468206011869
 10
71.93106403287528
 20
-22.9272767242659
 10
71.92875904956583
 20
-22.94053748977378
 10
71.93503557386668
 20
-22.96594025331746
 10
71.93183516884847
 20
-22.99296992418927
 10
71.93260124044477
 20
-23.0045086813403
 10
71.94548698502541
 20
-23.00915270005478
 10
71.95949176450489
 20
-23.01883478486304
 10
71.96943378911331
 20
-23.03889483198711
 10
71.9725910086143
 20
-23.06036282986354
 10
71.97727951984905
 20
-23.09224308057189
 10
71.981654275784
 20
-23.12198990403263
 10
71.9862472280746
 20
-23.15633429753997
 10
71.98615950136272
 20
-23.20350089890701
 10
71.99243053442265
 20
-23.23817575124954
 10
71.99118289730913
 20
-23.27700234501215
 10
71.99270711863852
 20
-23.29801937813315
 10
72.005376440187
 20
-23.34318763409191
 10
72.01496676975268
 20
-23.3773787672865
 10
72.02167665954181
 20
-23.40130064962951
 10
72.02162131578996
 20
-23.43105642895372
 10
72.02514712013678
 20
-23.46953995797057
 10
72.03274850883511
 20
-23.51570982424573
 10
72.03994095749957
 20
-23.55423856675932
 10
72.03989207761816
 20
-23.58051902148937
 10
72.04434775836602
 20
-23.61167106713088
 10
72.04955279086187
 20
-23.64439225272692
 10
72.05617667281047
 20
-23.66630822688776
 10
72.05370096132297
 20
-23.68920551481821
 10
72.04651200602206
 20
-23.70567587541866
 10
72.04085302702799
 20
-23.71479027293363
 10
72.11517161029875
 20
-23.89987136152347
 10
72.13574435529935
 20
-23.9488936957913
 10
72.14548789909594
 20
-23.97455246736023
 10
72.16090771840811
 20
-24.02603521768317
 10
72.17381876008801
 20
-24.07395547779612
 10
72.17550984237047
 20
-24.1190137294692
 10
72.17391550219736
 20
-24.16097517080668
 10
72.1699753381227
 20
-24.18127815448491
 10
72.16488812541888
 20
-24.20749168126636
 10
72.13776247746952
 20
-24.21625896825186
 10
72.11538669990907
 20
-24.22028709198852
 10
72.09079872742518
 20
-24.23192586849416
 10
72.0691122618326
 20
-24.23188553312414
 10
72.048087274962
 20
-24.23642168740688
 10
71.98556331810705
 20
-24.23816749560325
 10
71.97031394482755
 20
-24.22143783643823
 10
71.97719218291263
 20
-24.19507409939387
 10
71.97399442845682
 20
-24.17644076723034
 10
71.95828292068794
 20
-24.12379286291644
 10
71.95190915140364
 20
-24.08115750812639
 10
71.95973076275394
 20
-24.01524352846315
 10
71.96851409393281
 20
-23.95679252969939
 10
71.97927516257846
 20
-23.89671347354383
 10
72.0102042691782
 20
-23.71774718040229
 10
72.00137813744729
 20
-23.70441452005543
 10
71.99248559397871
 20
-23.69518987115142
 10
71.9898456498891
 20
-23.7115919050384
 10
71.98855594901747
 20
-23.72879632080197
 10
71.9850015636643
 20
-23.7375946845135
 10
71.97275259928134
 20
-23.73816700592496
 10
71.96334187477416
 20
-23.74211686036431
 10
71.93380580557186
 20
-23.74088451586072
 10
71.9232053890473
 20
-23.79042477691162
 10
71.91216198660877
 20
-23.84203529980271
 10
71.90426547687802
 20
-23.88729546258967
 10
71.9009692009569
 20
-23.92163257217257
 10
71.90130212735886
 20
-23.95118360770248
 10
71.9019605381664
 20
-23.97004897853032
 10
71.90602681940854
 20
-24.00201296835853
 10
71.90185561443668
 20
-24.05806013589405
 10
71.89611963937392
 20
-24.11489146564925
 10
71.8810221061216
 20
-24.18083670533511
 10
71.8668405824454
 20
-24.24090300070956
 10
71.85853718436104
 20
-24.26882543429727
 10
71.85547979789116
 20
-24.2884773655421
 10
71.85271828003951
 20
-24.31968637628517
 10
71.85938524848626
 20
-24.33107613460503
 10
71.86116683135171
 20
-24.35907491625782
 10
71.88152566296654
 20
-24.38407514135233
 10
71.88605319178541
 20
-24.39555690492019
 10
71.87908388374544
 20
-24.4203271305143
 10
71.79950685836398
 20
-24.42083181693018
 10
71.79066203841998
 20
-24.40490754135484
 10
71.7960032352467
 20
-24.38337856239239
 10
71.7936630289015
 20
-24.35869980411646
 10
71.79371054009862
 20
-24.33315522771453
 10
71.80076538655103
 20
-24.32559197573674
 10
71.79788836807094
 20
-24.21666985637804
 10
71.79798387843087
 20
-24.16531834695308
 10
71.7949059912076
 20
-24.13911526317945
 10
71.79453539733916
 20
-24.07925866351543
 10
71.79876691392658
 20
-24.04766205006048
 10
71.80083711303982
 20
-24.01528074307658
 10
71.7982813608862
 20
-23.98641666136587
 10
71.79624289524963
 20
-23.96381812764659
 10
71.79234917773138
 20
-23.9338701324725
 10
71.78975343717741
 20
-23.91390534940361
 10
71.78979495891849
 20
-23.89158102688844
 10
71.78670408901468
 20
-23.88495874917646
 10
71.78249661826646
 20
-23.89730732328066
 10
71.77879316374671
 20
-23.92305626568984
 10
71.77504816170119
 20
-23.9490940748432
 10
71.76651970206325
 20
-23.9747178710771
 10
71.77030000031846
 20
-23.99612943716148
 10
71.77528501200328
 20
-24.02707130150754
 10
71.781334243614
 20
-24.05460449735541
 10
71.78128369750829
 20
-24.08178080396333
 10
71.78329130688996
 20
-24.11464961770578
 10
71.78208906978958
 20
-24.13538642433968
 10
71.77925134708263
 20
-24.15700964509456
 10
71.77598713217537
 20
-24.19306813565722
 10
71.77294273845095
 20
-24.24365268362762
 10
71.77083414286491
 20
-24.31563710813786
 10
71.77990178510052
 20
-24.32551477705338
 10
71.78444320468128
 20
-24.39272514498407
 10
71.77001897414979
 20
-24.40001233287355
 10
71.74777791781764
 20
-24.42008291023325
 10
71.66726177184938
 20
-24.41993315560742
 10
71.65826624952217
 20
-24.40919815963761
 10
71.66744117819692
 20
-24.38667167379214
 10
71.68782469293942
 20
-24.36680240838179
 10
71.70033343408602
 20
-24.34031476544856
 10
71.70475578415295
 20
-24.33250985553123
 10
71.7067688647769
 20
-24.31819911698824
 10
71.71711950728007
 20
-24.31447497447839
 10
71.71935222786372
 20
-24.30214832332807
 10
71.7160755100818
 20
-24.28805170985944
 10
71.68272851011037
 20
-24.18076224490917
 10
71.68156281853852
 20
-24.10601377690746
 10
71.67385411609925
 20
-24.04802482430573
 10
71.67360367780086
 20
-23.99308285256737
 10
71.67394057234827
 20
-23.93202456352982
 10
71.67401759951952
 20
-23.89061061100605
 10
71.66928632398054
 20
-23.86227999595406
 10
71.66216016343745
 20
-23.82602940795872
 10
71.65984163451259
 20
-23.78337599978594
 10
71.65824841685915
 20
-23.75406596524058
 10
71.64174555852397
 20
-23.73622037051555
 10
71.63707253752469
 20
-23.71448719582049
 10
71.63465051146878
 20
-23.69588090231632
 10
71.62703537181557
 20
-23.66342399057587
 10
71.61693840515613
 20
-23.63819329226036
 10
71.61601118267504
 20
-23.58690387026207
 10
71.60943307968763
 20
-23.56565347351626
 10
71.61629823521443
 20
-23.53368421956898
 10
71.62733767251856
 20
-23.50089086417064
 10
71.63582149398661
 20
-23.46443894698612
 10
71.64536270655984
 20
-23.44088930814411
 10
71.6536636959201
 20
-23.42058163738028
 10
71.66161064623145
 20
-23.4136727389953
 10
71.65791679550907
 20
-23.40265965039343
 10
71.65970046955982
 20
-23.38529617928458
 10
71.6248340404926
 20
-23.37448746930853
 10
71.59912252430391
 20
-23.36455324804828
 10
71.57831431100814
 20
-23.35365550405634
 10
71.57119335226122
 20
-23.3462066632426
 10
71.56629419572809
 20
-23.33862117762181
 10
71.5657532269253
 20
-23.3261293934923
 10
71.56535969946478
 20
-23.31020163986136
 10
71.5655382469956
 20
-23.29636101255506
 10
71.56879480726931
 20
-23.2833771723739
 10
71.5743621139271
 20
-23.26667343290722
 10
71.57906873235248
 20
-23.23874430955084
 10
71.58325723384951
 20
-23.2176355182843
 10
71.59196305639495
 20
-23.17557852143666
 10
71.60163175972977
 20
-23.11508150088657
 10
71.60645383719444
 20
-23.08827241099741
 10
71.61552093575901
 20
-23.06052416987234
 10
71.6267832291546
 20
-23.04062514167483
 10
71.64028096669955
 20
-23.02589423529858
 10
71.65943869757379
 20
-23.01414297548165
 10
71.67565197977902
 20
-23.0055601253916
 10
71.68809697324372
 20
-23.00070726158402
 10
71.69071519690874
 20
-22.99598329681872
  0
LWPOLYLINE
  5
36
330
17
100
AcDbEntity
  8
0-cortes
 62
251
100
AcDbPolyline
 90
21
 70
0
 10
71.6584608682407
 20
-23.31868705617795
 10
71.6501783831732
 20
-23.31640641801285
 10
71.63838182617732
 20
-23.31388888120126
 10
71.63383950366656
 20
-23.31036100252061
 10
71.63384562109022
 20
-23.30707194634057
 10
71.6338616644504
 20
-23.29844617254495
 10
71.64038759842143
 20
-23.27190900820757
 10
71.64348578424142
 20
-23.25931049485801
 10
71.64609409534327
 20
-23.24870401605226
 10
71.64913584943
 20
-23.23633497762315
 10
71.6530148830237
 20
-23.22592394208196
 10
71.65784585178127
 20
-23.22593292735952
 10
71.66167652031717
 20
-23.23290212510929
 10
71.66335550247629
 20
-23.24654783940848
 10
71.6633394948209
 20
-23.25515441637735
 10
71.66215199650475
 20
-23.26164715629298
 10
71.66132028486987
 20
-23.27276061004262
 10
71.66066898741616
 20
-23.28798893328005
 10
71.66170235378621
 20
-23.30748849894738
 10
71.660793706698
 20
-23.31572867471259
 10
71.6584608682407
 20
-23.31868705617795
  0
LWPOLYLINE
  5
37
330
17
100
AcDbEntity
  8
0-cortes
 62
251
100
AcDbPolyline
 90
29
 70
0
 10
71.98360741875294
 20
-23.60872335307198
 10
71.97827785359632
 20
-23.58608030434409
 10
71.97224480626181
 20
-23.56880467808379
 10
71.9707449264086
 20
-23.54733976274692
 10
71.96225389827708
 20
-23.53078904671768
 10
71.95887816947041
 20
-23.50672906195896
 10
71.95594767889828
 20
-23.48584244382684
 10
71.94955135125889
 20
-23.4655663754072
 10
71.94413359173302
 20
-23.44610344781181
 10
71.94330437403661
 20
-23.43059721545814
 10
71.9401772398854
 20
-23.4119128229304
 10
71.93163997593146
 20
-23.40126186582464
 10
71.9341346282647
 20
-23.39345976948332
 10
71.93744945497969
 20
-23.38706697071776
 10
71.9388224375578
 20
-23.38196315100464
 10
71.94307484495252
 20
-23.383372433339
 10
71.94559902595921
 20
-23.39129264676331
 10
71.9516446224751
 20
-23.41026213213488
 10
71.9577440959167
 20
-23.42940066907198
 10
71.9695766091848
 20
-23.46768328438168
 10
71.97845772475651
 20
-23.49641702194454
 10
71.98605238871073
 20
-23.5201982319432
 10
71.99189195390458
 20
-23.54038502701476
 10
71.99649296671211
 20
-23.55659576174342
 10
71.99798573860969
 20
-23.56924289130063
 10
71.99833148034034
 20
-23.57926431216992
 10
71.99497378595451
 20
-23.58974596927831
 10
71.9902541655812
 20
-23.59938682899464
 10
71.98360741875294
 20
-23.60872335307198
  0
LWPOLYLINE
  5
38
330
17
100
AcDbEntity
  8
0-cortes
 62
251
100
AcDbPolyline
 90
15
 70
0
 10
72.01269572188542
 20
-23.69270626876919
 10
72.00046543841805
 20
-23.68955442780817
 10
72.00050132174948
 20
-23.67026161772459
 10
72.00291624175281
 20
-23.66108999476539
 10
72.00457896591374
 20
-23.65477513585995
 10
72.00942824624863
 20
-23.64836176909185
 10
72.0146706113724
 20
-23.64837151953903
 10
72.0174270123327
 20
-23.65151213867903
 10
72.01923673518684
 20
-23.65806164493712
 10
72.0217435002588
 20
-23.66713379291234
 10
72.02480554482005
 20
-23.67821553394862
 10
72.02764452731506
 20
-23.68144629983521
 10
72.02333071415691
 20
-23.68777325091105
 10
72.01815331607477
 20
-23.69075193754312
 10
72.01269572188542
 20
-23.69270626876919
  0
LWPOLYLINE
  5
39
330
17
100
AcDbEntity
  8
0-cortes
 62
251
100
AcDbPolyline
 90
15
 70
0
 10
72.00899832275906
 20
-23.89847088108239
 10
72.02086340789987
 20
-23.71879083994469
 10
72.0268227781192
 20
-23.71880192397321
 10
72.03090932969161
 20
-23.72090838491618
 10
72.04856506921723
 20
-23.7773032993806
 10
72.07450354533754
 20
-23.899040643887
 10
72.06861183192379
 20
-23.90057183604861
 10
72.06061494531836
 20
-23.90265013979962
 10
72.05839751006582
 20
-23.91315879741297
 10
72.05595014819545
 20
-23.92081380553699
 10
72.05047856232193
 20
-23.92397111599396
 10
72.04589682360506
 20
-23.92267640247977
 10
72.03237401318819
 20
-23.91296961824592
 10
72.01516923984846
 20
-23.90481733305349
 10
72.00899832275906
 20
-23.89847088108239
  0
LINE
  5
3B
330
17
100
AcDbEntity
  8
0-COTAS REF
100
AcDbLine
 10
71.23441792418701
 20
-22.14305133629854
 30
0.0
 11
72.93147419903505
 21
-20.44599506145051
 31
0.0
  0
LINE
  5
3C
330
17
100
AcDbEntity
  8
0-COTAS REF
100
AcDbLine
 10
71.51726063666165
 20
-22.42589404877315
 30
0.0
 11
73.21431691150967
 21
-20.72883777392513
 31
0.0
  0
LINE
  5
3D
330
17
100
AcDbEntity
  8
0-COTAS REF
100
AcDbLine
 10
71.37583928042433
 20
-22.28447269253584
 30
0.0
 11
73.07289555527235
 21
-20.58741641768782
 31
0.0
  0
LINE
  5
3E
330
17
100
AcDbEntity
  8
0-COTAS REF
100
AcDbLine
 10
74.34568776140809
 20
-21.86020862382357
 30
0.0
 11
72.93147419903505
 21
-20.44599506145052
 31
0.0
  0
LINE
  5
3F
330
17
100
AcDbEntity
  8
0-COTAS REF
100
AcDbLine
 10
74.20426640517076
 20
-22.00162998006091
 30
0.0
 11
72.7900528427977
 21
-20.58741641768785
 31
0.0
  0
LINE
  5
40
330
17
100
AcDbEntity
  8
0-COTAS REF
100
AcDbLine
 10
74.06284504893338
 20
-22.14305133629828
 30
0.0
 11
72.64863148656033
 21
-20.72883777392522
 31
0.0
  0
LINE
  5
42
330
17
100
AcDbEntity
  8
0-TEXTO
 62
4
100
AcDbLine
 10
71.86088183622397
 20
-21.46721856625157
 30
0.0
 11
71.57803912414448
 21
-21.18437585417209
 31
0.0
  0
LINE
  5
43
330
17
100
AcDbEntity
  8
0-TEXTO
 62
4
100
AcDbLine
 10
71.85381076840551
 20
-21.47428963407003
 30
0.0
 11
71.57096805632602
 21
-21.19144692199053
 31
0.0
  0
LINE
  5
44
330
17
100
AcDbEntity
  8
0-TEXTO
 62
251
100
AcDbLine
 10
71.64874980199971
 20
-21.25508653202732
 30
0.0
 11
72.07301387069516
 21
-20.83082246333185
 31
0.0
  0
LINE
  5
45
330
17
100
AcDbEntity
  8
0-TEXTO
 62
251
100
AcDbLine
 10
71.74874980167124
 20
-21.25508653169806
 30
0.0
 11
71.64874980199971
 21
-21.25508653202732
 31
0.0
  0
LINE
  5
46
330
17
100
AcDbEntity
  8
0-TEXTO
 62
251
100
AcDbLine
 10
71.64874980199971
 20
-21.25508653202732
 30
0.0
 11
71.64874980167045
 21
-21.15508653169726
 31
0.0
  0
LWPOLYLINE
  5
47
330
17
100
AcDbEntity
  8
0
 62
8
100
AcDbPolyline
 90
6
 70
0
 10
74.94828966609009
 20
-24.17917624852954
 10
74.4780720879337
 20
-24.17917624852954
 10
74.4780720879337
 20
-24.42057947372224
 10
74.37200607075573
 20
-24.31451345654427
 10
74.4780720879337
 20
-24.42057947372224
 10
74.58767363901762
 20
-24.31097792263831
  0
LINE
  5
48
330
17
100
AcDbEntity
  8
0
 62
8
100
AcDbLine
 10
74.06887470213422
 20
-22.99157947372224
 30
0.0
 11
75.16160261394816
 21
-22.99157947372224
 31
0.0
  0
LWPOLYLINE
  5
49
330
17
100
AcDbEntity
  8
0
 62
8
100
AcDbPolyline
 90
6
 70
0
 10
74.94828966609009
 20
-22.75017624852954
 10
74.4780720879337
 20
-22.75017624852954
 10
74.4780720879337
 20
-22.99157947372224
 10
74.37200607075573
 20
-22.88551345654427
 10
74.4780720879337
 20
-22.99157947372224
 10
74.58767363901762
 20
-22.88197792263831
  0
LINE
  5
4A
330
17
100
AcDbEntity
  8
0
 62
8
100
AcDbLine
 10
74.06887470213422
 20
-21.29452319887452
 30
0.0
 11
75.16160261394816
 21
-21.29452319887452
 31
0.0
  0
LWPOLYLINE
  5
4B
330
17
100
AcDbEntity
  8
0
 62
8
100
AcDbPolyline
 90
6
 70
0
 10
74.94828966609009
 20
-21.05311997368182
 10
74.4780720879337
 20
-21.05311997368182
 10
74.4780720879337
 20
-21.29452319887452
 10
74.37200607075573
 20
-21.18845718169655
 10
74.4780720879337
 20
-21.29452319887452
 10
74.58767363901762
 20
-21.18492164779059
  0
LINE
  5
4C
330
17
100
AcDbEntity
  8
0
 62
11
100
AcDbLine
 10
73.54837208414874
 20
-25.74303648887212
 30
0.0
 11
72.3492544096711
 21
-25.74303648887219
 31
0.0
  0
LINE
  5
4D
330
17
100
AcDbEntity
  8
0
 62
11
100
AcDbLine
 10
73.54837208414907
 20
-25.74603648887246
 30
0.0
 11
72.34925440967088
 21
-25.7460364888724
 31
0.0
  0
LINE
  5
4E
330
17
100
AcDbEntity
  8
0
 62
11
100
AcDbLine
 10
73.5483720841489
 20
-25.74903648887229
 30
0.0
 11
72.34925440967099
 21
-25.74903648887212
 31
0.0
  0
LINE
  5
4F
330
17
100
AcDbEntity
  8
0
 62
11
100
AcDbLine
 10
73.54837208414908
 20
-25.76103648887229
 30
0.0
 11
72.34925440967099
 21
-25.76103648887212
 31
0.0
  0
LINE
  5
50
330
17
100
AcDbEntity
  8
0
 62
11
100
AcDbLine
 10
73.54837208414925
 20
-25.76503648887247
 30
0.0
 11
72.3492544096707
 21
-25.7650364888724
 31
0.0
  0
LINE
  5
51
330
17
100
AcDbEntity
  8
0
  6
CONTINUOUS
 62
8
 48
100.0
100
AcDbLine
 10
73.54837208414925
 20
-25.76558648887247
 30
0.0
 11
72.34875440967099
 21
-25.76558648887241
 31
0.0
  0
LINE
  5
52
330
17
100
AcDbEntity
  8
0
 62
11
100
AcDbLine
 10
73.54837208414888
 20
-25.76903648887213
 30
0.0
 11
72.34925440967108
 21
-25.7690364888722
 31
0.0
  0
LINE
  5
53
330
17
100
AcDbEntity
  8
0
 62
11
100
AcDbLine
 10
73.5488720841489
 20
-25.76153648887212
 30
0.0
 11
73.5488720841489
 21
-25.76453648887213
 31
0.0
  0
LINE
  5
54
330
17
100
AcDbEntity
  8
0
 62
11
100
AcDbLine
 10
73.5488720841489
 20
-25.76553648887213
 30
0.0
 11
73.5488720841489
 21
-25.76853648887212
 31
0.0
  0
LINE
  5
55
330
17
100
AcDbEntity
  8
0
 62
11
100
AcDbLine
 10
73.54837208414888
 20
-25.76903648887213
 30
0.0
 11
73.5488720841489
 21
-25.76853648887212
 31
0.0
  0
LINE
  5
56
330
17
100
AcDbEntity
  8
0
 62
11
100
AcDbLine
 10
73.5483720841489
 20
-25.76103648887212
 30
0.0
 11
73.5488720841489
 21
-25.76153648887212
 31
0.0
  0
LINE
  5
57
330
17
100
AcDbEntity
  8
0
 62
11
100
AcDbLine
 10
73.5483720841489
 20
-25.76503648887213
 30
0.0
 11
73.5488720841489
 21
-25.76553648887213
 31
0.0
  0
LINE
  5
58
330
17
100
AcDbEntity
  8
0
 62
11
100
AcDbLine
 10
73.5483720841489
 20
-25.76503648887213
 30
0.0
 11
73.5488720841489
 21
-25.76453648887213
 31
0.0
  0
LINE
  5
59
330
17
100
AcDbEntity
  8
0
 62
11
100
AcDbLine
 10
73.5488720841489
 20
-25.7435364888723
 30
0.0
 11
73.5488720841489
 21
-25.74553648887229
 31
0.0
  0
LINE
  5
5A
330
17
100
AcDbEntity
  8
0
 62
11
100
AcDbLine
 10
73.5488720841489
 20
-25.7465364888723
 30
0.0
 11
73.5488720841489
 21
-25.74853648887231
 31
0.0
  0
LINE
  5
5B
330
17
100
AcDbEntity
  8
0
 62
11
100
AcDbLine
 10
73.54837208414891
 20
-25.74603648887229
 30
0.0
 11
73.5488720841489
 21
-25.7465364888723
 31
0.0
  0
LINE
  5
5C
330
17
100
AcDbEntity
  8
0
 62
11
100
AcDbLine
 10
73.54837208414891
 20
-25.74603648887229
 30
0.0
 11
73.5488720841489
 21
-25.74553648887229
 31
0.0
  0
LINE
  5
5D
330
17
100
AcDbEntity
  8
0
 62
11
100
AcDbLine
 10
73.5483720841489
 20
-25.74903648887229
 30
0.0
 11
73.5488720841489
 21
-25.74853648887231
 31
0.0
  0
LINE
  5
5E
330
17
100
AcDbEntity
  8
0
 62
11
100
AcDbLine
 10
73.5483720841489
 20
-25.74303648887229
 30
0.0
 11
73.5488720841489
 21
-25.7435364888723
 31
0.0
  0
LINE
  5
5F
330
17
100
AcDbEntity
  8
0
 62
11
100
AcDbLine
 10
73.5483720841489
 20
-25.76103648887212
 30
0.0
 11
73.5488720841489
 21
-25.76153648887212
 31
0.0
  0
LINE
  5
60
330
17
100
AcDbEntity
  8
0
 62
11
100
AcDbLine
 10
73.5483720841489
 20
-25.74903648887229
 30
0.0
 11
73.5488720841489
 21
-25.74853648887231
 31
0.0
  0
LINE
  5
61
330
17
100
AcDbEntity
  8
0
 62
11
100
AcDbLine
 10
73.5483720841489
 20
-25.76103648887212
 30
0.0
 11
73.5488720841489
 21
-25.76153648887212
 31
0.0
  0
LINE
  5
62
330
17
100
AcDbEntity
  8
0
 62
8
100
AcDbLine
 10
73.53618658708241
 20
-25.76103648887212
 30
0.0
 11
73.53618658708241
 21
-25.74903648887212
 31
0.0
  0
LWPOLYLINE
  5
63
330
17
100
AcDbEntity
  8
0
 62
8
100
AcDbPolyline
 90
6
 70
1
 10
73.53618658708241
 20
-25.75003648887213
 10
73.53618658708241
 20
-25.76003648887212
 10
73.54118658708241
 20
-25.76003648887212
 10
73.5441865870824
 20
-25.75653648887213
 10
73.5441865870824
 20
-25.75353648887213
 10
73.54118658708241
 20
-25.75003648887213
  0
LWPOLYLINE
  5
64
330
17
100
AcDbEntity
  8
0
 62
8
100
AcDbPolyline
 90
6
 70
1
 10
73.53668658708241
 20
-25.75053648887213
 10
73.53668658708241
 20
-25.75953648887213
 10
73.54103519926355
 20
-25.75953648887213
 10
73.54368658708242
 20
-25.75626889699288
 10
73.54368658708242
 20
-25.75380408075137
 10
73.54103519926355
 20
-25.75053648887213
  0
LINE
  5
65
330
17
100
AcDbEntity
  8
0
 62
11
100
AcDbLine
 10
73.5483720841489
 20
-25.74903648887212
 30
0.0
 11
73.5488720841489
 21
-25.74853648887212
 31
0.0
  0
ARC
  5
66
330
17
100
AcDbEntity
  8
0
 62
8
100
AcDbCircle
 10
73.56056273031572
 20
-25.75503648887212
 30
0.0
 40
0.0133761432333217
100
AcDbArc
 50
150.9259378909695
 51
209.0740621090173
  0
LINE
  5
67
330
17
100
AcDbEntity
  8
0
 62
8
100
AcDbLine
 10
73.54118658708241
 20
-25.75003648887213
 30
0.0
 11
73.54118658708241
 21
-25.74903648887212
 31
0.0
  0
LINE
  5
68
330
17
100
AcDbEntity
  8
0
 62
8
100
AcDbLine
 10
73.54118658708241
 20
-25.76003648887212
 30
0.0
 11
73.54118658708241
 21
-25.76103648887212
 31
0.0
  0
LWPOLYLINE
  5
69
330
17
100
AcDbEntity
  8
0
 62
11
100
AcDbPolyline
 90
21
 70
1
 10
73.48467234293354
 20
-25.66298648887229
 42
-0.3642142242882249
 10
73.48516482144586
 20
-25.66340008913329
 10
73.48559225999657
 20
-25.66583648887229
 10
73.48559225999657
 20
-25.6678364888723
 10
73.48809225999656
 20
-25.6678364888723
 10
73.48809225999656
 20
-25.66688648887229
 42
-0.4142135623731395
 10
73.48884225999656
 20
-25.6661364888723
 42
-0.4142135623730507
 10
73.48959225999656
 20
-25.66688648887229
 10
73.48959225999656
 20
-25.66933648887229
 10
73.48559225999657
 20
-25.66933648887229
 10
73.48559225999657
 20
-25.71983648887229
 10
73.49159225999657
 20
-25.71983648887229
 42
-0.8252846317787602
 10
73.49177851634681
 20
-25.72080050241949
 10
73.48850401380672
 20
-25.72231489700062
 42
-0.530985777794659
 10
73.48809225999656
 20
-25.72203648887229
 10
73.48809225999656
 20
-25.7213364888723
 10
73.48559225999657
 20
-25.7213364888723
 10
73.48559225999657
 20
-25.72528648887228
 10
73.48409225999656
 20
-25.72528648887228
 10
73.48409225999656
 20
-25.6634864888723
 42
-0.4142135623730951
 10
73.48459225999656
 20
-25.66298648887229
  0
LWPOLYLINE
  5
6A
330
17
100
AcDbEntity
  8
0-TEXTO
  6
CONTINUOUS
 48
5.0
100
AcDbPolyline
 90
8
 70
1
 10
73.30718373667492
 20
-25.8194542066698
 10
73.30718373667492
 20
-25.55645264931755
 42
-0.4142135623730951
 10
73.3821837377925
 20
-25.4814526492477
 10
73.65069275602741
 20
-25.4814526492477
 42
-0.4142135623730951
 10
73.725692757145
 20
-25.55645264931755
 10
73.725692757145
 20
-25.8194542066698
 42
-0.4142135623730951
 10
73.65069275602741
 20
-25.89445420665234
 10
73.3821837377925
 20
-25.89445420665234
 42
-0.4142135623730951
  0
CIRCLE
  5
6C
330
17
100
AcDbEntity
  8
0-TEXTO DETALLE
100
AcDbCircle
 10
73.52997228149452
 20
-25.6760621313561
 30
0.0
 40
0.0008966570603802
  0
LINE
  5
6D
330
17
100
AcDbEntity
  8
0
 62
251
100
AcDbLine
 10
73.51678112596439
 20
-25.738504449824912
 30
0.0
 11
73.51609536785553
 21
-25.738504449824912
 31
0.0
  0
LINE
  5
6E
330
17
100
AcDbEntity
  8
0
 62
251
100
AcDbLine
 10
73.51843824690995
 20
-25.736504449824853
 30
0.0
 11
73.51443824690996
 21
-25.736504449824853
 31
0.0
  0
LINE
  5
6F
330
17
100
AcDbEntity
  8
0
 62
251
100
AcDbLine
 10
73.51843824690997
 20
-25.716141387208353
 30
0.0
 11
73.51843824690995
 21
-25.736504449824853
 31
0.0
  0
LINE
  5
70
330
17
100
AcDbEntity
  8
0
 62
251
100
AcDbLine
 10
73.51443824691007
 20
-25.716141387208634
 30
0.0
 11
73.51443824690996
 21
-25.736504449824853
 31
0.0
  0
LINE
  5
71
330
17
100
AcDbEntity
  8
0
 62
251
100
AcDbLine
 10
73.51843824690995
 20
-25.736504449824853
 30
0.0
 11
73.52143824690997
 21
-25.738504449824802
 31
0.0
  0
LINE
  5
72
330
17
100
AcDbEntity
  8
0
 62
251
100
AcDbLine
 10
73.51443824690996
 20
-25.736504449824853
 30
0.0
 11
73.51143824690995
 21
-25.738504449824802
 31
0.0
  0
LINE
  5
73
330
17
100
AcDbEntity
  8
0
 62
251
100
AcDbLine
 10
73.51643824691008
 20
-25.711852373367634
 30
0.0
 11
73.51443824691007
 21
-25.716141387208634
 31
0.0
  0
LINE
  5
74
330
17
100
AcDbEntity
  8
0
 62
251
100
AcDbLine
 10
73.51643824691008
 20
-25.711852373367634
 30
0.0
 11
73.51843824691007
 21
-25.716141387208584
 31
0.0
  0
LINE
  5
75
330
17
100
AcDbEntity
  8
0
 62
251
100
AcDbLine
 10
73.51893824690997
 20
-25.731061074151853
 30
0.0
 11
73.51393824690997
 21
-25.73394782549781
 31
0.0
  0
LINE
  5
76
330
17
100
AcDbEntity
  8
0
 62
251
100
AcDbLine
 10
73.51893824690997
 20
-25.729061074151844
 30
0.0
 11
73.51393824690997
 21
-25.7319478254978
 31
0.0
  0
LINE
  5
77
330
17
100
AcDbEntity
  8
0
 62
251
100
AcDbLine
 10
73.51893824690997
 20
-25.733061074151863
 30
0.0
 11
73.51393824690997
 21
-25.73594782549782
 31
0.0
  0
ARC
  5
78
330
17
100
AcDbEntity
  8
0
 62
251
100
AcDbCircle
 10
73.51643824690981
 20
-25.71559606586004
 30
0.0
 40
0.0234476876445912
100
AcDbArc
 50
-102.31233016112002
 51
-90.83787464319441
  0
ARC
  5
79
330
17
100
AcDbEntity
  8
0
 62
251
100
AcDbCircle
 10
73.51643824690981
 20
-25.71559606586004
 30
0.0
 40
0.0234476876445912
100
AcDbArc
 50
-89.16212535632039
 51
-77.68766983823993
  0
LINE
  5
7A
330
17
100
AcDbEntity
  8
0
 62
251
100
AcDbLine
 10
73.51609536785553
 20
-25.738504449824802
 30
0.0
 11
73.51609536785553
 21
-25.73904375350463
 31
0.0
  0
LINE
  5
7B
330
17
100
AcDbEntity
  8
0
 62
251
100
AcDbLine
 10
73.51678112596437
 20
-25.738504449824802
 30
0.0
 11
73.51678112596437
 21
-25.73904375350463
 31
0.0
  0
LINE
  5
7C
330
17
100
AcDbEntity
  8
0
 62
251
100
AcDbLine
 10
73.51893824690997
 20
-25.727061074151834
 30
0.0
 11
73.51393824690997
 21
-25.729947825497792
 31
0.0
  0
LINE
  5
7D
330
17
100
AcDbEntity
  8
0
 62
251
100
AcDbLine
 10
73.51893824690997
 20
-25.72506107415183
 30
0.0
 11
73.51393824690997
 21
-25.727947825497782
 31
0.0
  0
LINE
  5
7E
330
17
100
AcDbEntity
  8
0
 62
251
100
AcDbLine
 10
73.51893824690997
 20
-25.72306107415181
 30
0.0
 11
73.51393824690997
 21
-25.725947825497773
 31
0.0
  0
LINE
  5
7F
330
17
100
AcDbEntity
  8
0
 62
251
100
AcDbLine
 10
73.51893824690997
 20
-25.721061074151812
 30
0.0
 11
73.51393824690997
 21
-25.723947825497763
 31
0.0
  0
LINE
  5
80
330
17
100
AcDbEntity
  8
0
 62
251
100
AcDbLine
 10
73.51893824690997
 20
-25.719061074151792
 30
0.0
 11
73.51393824690997
 21
-25.721947825497754
 31
0.0
  0
LINE
  5
81
330
17
100
AcDbEntity
  8
0
 62
251
100
AcDbLine
 10
73.51893824690997
 20
-25.717061074151793
 30
0.0
 11
73.51393824690997
 21
-25.71994782549774
 31
0.0
  0
LINE
  5
82
330
17
100
AcDbEntity
  8
0
 62
8
100
AcDbLine
 10
73.50850440967102
 20
-25.73653648887229
 30
0.0
 11
73.50850440967102
 21
-25.73613471794522
 31
0.0
  0
LINE
  5
83
330
17
100
AcDbEntity
  8
0
 62
8
100
AcDbLine
 10
73.52450440967102
 20
-25.73653648887229
 30
0.0
 11
73.52450440967102
 21
-25.73613471794522
 31
0.0
  0
LINE
  5
84
330
17
100
AcDbEntity
  8
0
 62
11
100
AcDbLine
 10
72.34875440967099
 20
-25.76153648887212
 30
0.0
 11
72.34875440967099
 21
-25.76453648887213
 31
0.0
  0
LINE
  5
85
330
17
100
AcDbEntity
  8
0
 62
11
100
AcDbLine
 10
72.34875440967099
 20
-25.76553648887213
 30
0.0
 11
72.34875440967099
 21
-25.76853648887212
 31
0.0
  0
LINE
  5
86
330
17
100
AcDbEntity
  8
0
 62
11
100
AcDbLine
 10
72.349254409671
 20
-25.76903648887213
 30
0.0
 11
72.34875440967099
 21
-25.76853648887212
 31
0.0
  0
LINE
  5
87
330
17
100
AcDbEntity
  8
0
 62
11
100
AcDbLine
 10
72.34925440967099
 20
-25.76103648887212
 30
0.0
 11
72.34875440967099
 21
-25.76153648887212
 31
0.0
  0
LINE
  5
88
330
17
100
AcDbEntity
  8
0
 62
11
100
AcDbLine
 10
72.34925440967099
 20
-25.76503648887213
 30
0.0
 11
72.34875440967099
 21
-25.76553648887213
 31
0.0
  0
LINE
  5
89
330
17
100
AcDbEntity
  8
0
 62
11
100
AcDbLine
 10
72.34925440967099
 20
-25.76503648887213
 30
0.0
 11
72.34875440967099
 21
-25.76453648887213
 31
0.0
  0
LINE
  5
8A
330
17
100
AcDbEntity
  8
0
 62
11
100
AcDbLine
 10
72.34875440967099
 20
-25.7435364888723
 30
0.0
 11
72.34875440967099
 21
-25.74553648887229
 31
0.0
  0
LINE
  5
8B
330
17
100
AcDbEntity
  8
0
 62
11
100
AcDbLine
 10
72.34875440967099
 20
-25.7465364888723
 30
0.0
 11
72.34875440967099
 21
-25.74853648887231
 31
0.0
  0
LINE
  5
8C
330
17
100
AcDbEntity
  8
0
 62
11
100
AcDbLine
 10
72.34925440967098
 20
-25.74603648887229
 30
0.0
 11
72.34875440967099
 21
-25.7465364888723
 31
0.0
  0
LINE
  5
8D
330
17
100
AcDbEntity
  8
0
 62
11
100
AcDbLine
 10
72.34925440967098
 20
-25.74603648887229
 30
0.0
 11
72.34875440967099
 21
-25.74553648887229
 31
0.0
  0
LINE
  5
8E
330
17
100
AcDbEntity
  8
0
 62
11
100
AcDbLine
 10
72.34925440967099
 20
-25.74903648887229
 30
0.0
 11
72.34875440967099
 21
-25.74853648887231
 31
0.0
  0
LINE
  5
8F
330
17
100
AcDbEntity
  8
0
 62
11
100
AcDbLine
 10
72.34925440967099
 20
-25.74303648887229
 30
0.0
 11
72.34875440967099
 21
-25.7435364888723
 31
0.0
  0
LINE
  5
90
330
17
100
AcDbEntity
  8
0
 62
11
100
AcDbLine
 10
72.34925440967099
 20
-25.76103648887212
 30
0.0
 11
72.34875440967099
 21
-25.76153648887212
 31
0.0
  0
LINE
  5
91
330
17
100
AcDbEntity
  8
0
 62
11
100
AcDbLine
 10
72.34925440967099
 20
-25.74903648887229
 30
0.0
 11
72.34875440967099
 21
-25.74853648887231
 31
0.0
  0
LINE
  5
92
330
17
100
AcDbEntity
  8
0
 62
11
100
AcDbLine
 10
72.34925440967099
 20
-25.76103648887212
 30
0.0
 11
72.34875440967099
 21
-25.76153648887212
 31
0.0
  0
LINE
  5
93
330
17
100
AcDbEntity
  8
0
 62
8
100
AcDbLine
 10
72.36143990673747
 20
-25.76103648887212
 30
0.0
 11
72.36143990673747
 21
-25.74903648887212
 31
0.0
  0
LWPOLYLINE
  5
94
330
17
100
AcDbEntity
  8
0
 62
8
100
AcDbPolyline
 90
6
 70
1
 10
72.36143990673747
 20
-25.75003648887213
 10
72.36143990673747
 20
-25.76003648887212
 10
72.35643990673746
 20
-25.76003648887212
 10
72.35343990673746
 20
-25.75653648887213
 10
72.35343990673746
 20
-25.75353648887213
 10
72.35643990673746
 20
-25.75003648887213
  0
LWPOLYLINE
  5
95
330
17
100
AcDbEntity
  8
0
 62
8
100
AcDbPolyline
 90
6
 70
1
 10
72.36093990673747
 20
-25.75053648887213
 10
72.36093990673747
 20
-25.75953648887213
 10
72.35659129455632
 20
-25.75953648887213
 10
72.35393990673747
 20
-25.75626889699288
 10
72.35393990673747
 20
-25.75380408075137
 10
72.35659129455632
 20
-25.75053648887213
  0
LINE
  5
96
330
17
100
AcDbEntity
  8
0
 62
11
100
AcDbLine
 10
72.34925440967099
 20
-25.74903648887212
 30
0.0
 11
72.34875440967099
 21
-25.74853648887212
 31
0.0
  0
ARC
  5
97
330
17
100
AcDbEntity
  8
0
 62
8
100
AcDbCircle
 10
72.33706376350415
 20
-25.75503648887212
 30
0.0
 40
0.0133761432333217
100
AcDbArc
 50
330.9259378909823
 51
29.07406210903016
  0
LINE
  5
98
330
17
100
AcDbEntity
  8
0
 62
8
100
AcDbLine
 10
72.35643990673746
 20
-25.75003648887213
 30
0.0
 11
72.35643990673746
 21
-25.74903648887212
 31
0.0
  0
LINE
  5
99
330
17
100
AcDbEntity
  8
0
 62
8
100
AcDbLine
 10
72.35643990673746
 20
-25.76003648887212
 30
0.0
 11
72.35643990673746
 21
-25.76103648887212
 31
0.0
  0
LWPOLYLINE
  5
9A
330
17
100
AcDbEntity
  8
0
 62
11
100
AcDbPolyline
 90
21
 70
1
 10
72.41279200121194
 20
-25.66298648887229
 42
0.3642142242882249
 10
72.41229952269961
 20
-25.66340008913329
 10
72.41187208414891
 20
-25.66583648887229
 10
72.41187208414891
 20
-25.6678364888723
 10
72.40937208414891
 20
-25.6678364888723
 10
72.40937208414891
 20
-25.66688648887229
 42
0.4142135623731395
 10
72.40862208414892
 20
-25.6661364888723
 42
0.4142135623730507
 10
72.40787208414892
 20
-25.66688648887229
 10
72.40787208414892
 20
-25.66933648887229
 10
72.41187208414891
 20
-25.66933648887229
 10
72.41187208414891
 20
-25.71983648887229
 10
72.40587208414891
 20
-25.71983648887229
 42
0.8252846317787602
 10
72.40568582779866
 20
-25.72080050241949
 10
72.40896033033876
 20
-25.72231489700062
 42
0.530985777794659
 10
72.40937208414891
 20
-25.72203648887229
 10
72.40937208414891
 20
-25.7213364888723
 10
72.41187208414891
 20
-25.7213364888723
 10
72.41187208414891
 20
-25.72528648887228
 10
72.41337208414892
 20
-25.72528648887228
 10
72.41337208414892
 20
-25.6634864888723
 42
0.4142135623730951
 10
72.41287208414892
 20
-25.66298648887229
  0
LINE
  5
9B
330
17
100
AcDbEntity
  8
0
 62
251
100
AcDbLine
 10
72.38084536785556
 20
-25.73850444982491
 30
0.0
 11
72.38153112596441
 21
-25.73850444982491
 31
0.0
  0
LINE
  5
9C
330
17
100
AcDbEntity
  8
0
 62
251
100
AcDbLine
 10
72.37918824690998
 20
-25.73650444982485
 30
0.0
 11
72.38318824690997
 21
-25.73650444982485
 31
0.0
  0
LINE
  5
9D
330
17
100
AcDbEntity
  8
0
 62
251
100
AcDbLine
 10
72.37918824690996
 20
-25.71614138720835
 30
0.0
 11
72.37918824690998
 21
-25.73650444982485
 31
0.0
  0
LINE
  5
9E
330
17
100
AcDbEntity
  8
0
 62
251
100
AcDbLine
 10
72.38318824690985
 20
-25.71614138720863
 30
0.0
 11
72.38318824690997
 21
-25.73650444982485
 31
0.0
  0
LINE
  5
9F
330
17
100
AcDbEntity
  8
0
 62
251
100
AcDbLine
 10
72.37918824690998
 20
-25.73650444982485
 30
0.0
 11
72.37618824690998
 21
-25.7385044498248
 31
0.0
  0
LINE
  5
A0
330
17
100
AcDbEntity
  8
0
 62
251
100
AcDbLine
 10
72.38318824690997
 20
-25.73650444982485
 30
0.0
 11
72.38618824691
 21
-25.7385044498248
 31
0.0
  0
LINE
  5
A1
330
17
100
AcDbEntity
  8
0
 62
251
100
AcDbLine
 10
72.38118824690984
 20
-25.71185237336763
 30
0.0
 11
72.38318824690985
 21
-25.71614138720863
 31
0.0
  0
LINE
  5
A2
330
17
100
AcDbEntity
  8
0
 62
251
100
AcDbLine
 10
72.38118824690984
 20
-25.71185237336763
 30
0.0
 11
72.37918824690988
 21
-25.71614138720858
 31
0.0
  0
LINE
  5
A3
330
17
100
AcDbEntity
  8
0
 62
251
100
AcDbLine
 10
72.37868824690996
 20
-25.73106107415185
 30
0.0
 11
72.38368824690995
 21
-25.733947825497808
 31
0.0
  0
LINE
  5
A4
330
17
100
AcDbEntity
  8
0
 62
251
100
AcDbLine
 10
72.37868824690996
 20
-25.72906107415184
 30
0.0
 11
72.38368824690995
 21
-25.731947825497798
 31
0.0
  0
LINE
  5
A5
330
17
100
AcDbEntity
  8
0
 62
251
100
AcDbLine
 10
72.37868824690996
 20
-25.73306107415186
 30
0.0
 11
72.38368824690995
 21
-25.735947825497817
 31
0.0
  0
ARC
  5
A6
330
17
100
AcDbEntity
  8
0
 62
251
100
AcDbCircle
 10
-72.38118824691011
 20
-25.715596065860037
 30
0.0
 40
0.0234476876445912
210
0.0
220
0.0
230
-1.0
100
AcDbArc
 50
-102.31233016112
 51
-90.8378746431944
  0
ARC
  5
A7
330
17
100
AcDbEntity
  8
0
 62
251
100
AcDbCircle
 10
-72.38118824691011
 20
-25.715596065860037
 30
0.0
 40
0.0234476876445912
210
0.0
220
0.0
230
-1.0
100
AcDbArc
 50
-89.16212535632037
 51
-77.68766983823991
  0
LINE
  5
A8
330
17
100
AcDbEntity
  8
0
 62
251
100
AcDbLine
 10
72.38153112596441
 20
-25.7385044498248
 30
0.0
 11
72.38153112596441
 21
-25.739043753504628
 31
0.0
  0
LINE
  5
A9
330
17
100
AcDbEntity
  8
0
 62
251
100
AcDbLine
 10
72.38084536785557
 20
-25.7385044498248
 30
0.0
 11
72.38084536785557
 21
-25.739043753504628
 31
0.0
  0
LINE
  5
AA
330
17
100
AcDbEntity
  8
0
 62
251
100
AcDbLine
 10
72.37868824690996
 20
-25.72706107415183
 30
0.0
 11
72.38368824690995
 21
-25.72994782549779
 31
0.0
  0
LINE
  5
AB
330
17
100
AcDbEntity
  8
0
 62
251
100
AcDbLine
 10
72.37868824690996
 20
-25.725061074151828
 30
0.0
 11
72.38368824690995
 21
-25.72794782549778
 31
0.0
  0
LINE
  5
AC
330
17
100
AcDbEntity
  8
0
 62
251
100
AcDbLine
 10
72.37868824690996
 20
-25.723061074151808
 30
0.0
 11
72.38368824690995
 21
-25.72594782549777
 31
0.0
  0
LINE
  5
AD
330
17
100
AcDbEntity
  8
0
 62
251
100
AcDbLine
 10
72.37868824690996
 20
-25.72106107415181
 30
0.0
 11
72.38368824690995
 21
-25.72394782549776
 31
0.0
  0
LINE
  5
AE
330
17
100
AcDbEntity
  8
0
 62
251
100
AcDbLine
 10
72.37868824690996
 20
-25.71906107415179
 30
0.0
 11
72.38368824690995
 21
-25.72194782549775
 31
0.0
  0
LINE
  5
AF
330
17
100
AcDbEntity
  8
0
 62
251
100
AcDbLine
 10
72.37868824690996
 20
-25.71706107415179
 30
0.0
 11
72.38368824690995
 21
-25.719947825497737
 31
0.0
  0
LINE
  5
B0
330
17
100
AcDbEntity
  8
0
 62
8
100
AcDbLine
 10
72.4017105570738
 20
-25.74303648887212
 30
0.0
 11
72.4017105570738
 21
-25.7418364888723
 31
0.0
  0
LINE
  5
B1
330
17
100
AcDbEntity
  8
0
 62
8
100
AcDbLine
 10
72.38912208414891
 20
-25.73653648887229
 30
0.0
 11
72.38912208414891
 21
-25.73613471794522
 31
0.0
  0
LINE
  5
B2
330
17
100
AcDbEntity
  8
0
 62
8
100
AcDbLine
 10
72.36066593674613
 20
-25.74303648887212
 30
0.0
 11
72.36066593674613
 21
-25.7418364888723
 31
0.0
  0
LINE
  5
B3
330
17
100
AcDbEntity
  8
0
 62
8
100
AcDbLine
 10
72.3731220841489
 20
-25.73653648887229
 30
0.0
 11
72.3731220841489
 21
-25.73613471794522
 31
0.0
  0
LINE
  5
B4
330
17
100
AcDbEntity
  8
0-TEXTO
 62
12
100
AcDbLine
 10
74.23756168471724
 20
-25.41944999690259
 30
0.0
 11
73.5234973258039
 21
-25.41944999690259
 31
0.0
  0
CIRCLE
  5
B5
330
17
100
AcDbEntity
  8
0-TEXTO
100
AcDbCircle
 10
73.5234973258039
 20
-25.6914864888723
 30
0.0
 40
0.0143465129660836
  0
LINE
  5
B6
330
17
100
AcDbEntity
  8
0-TEXTO
 62
12
100
AcDbLine
 10
73.5234973258039
 20
-25.6914864888723
 30
0.0
 11
73.5234973258039
 21
-25.41944999690259
 31
0.0
  0
LINE
  5
B7
330
17
100
AcDbEntity
  8
0-TEXTO DETALLE
 62
12
100
AcDbLine
 10
73.52997228149452
 20
-25.6760621313561
 30
0.0
 11
73.5998498625288
 21
-25.6760621313561
 31
0.0
  0
LINE
  5
B8
330
17
100
AcDbEntity
  8
0-TEXTO DETALLE
 62
12
100
AcDbLine
 10
73.52997228149452
 20
-25.70915249019771
 30
0.0
 11
73.5998498625288
 21
-25.70915249019771
 31
0.0
  0
LINE
  5
B9
330
17
100
AcDbEntity
  8
0-TEXTO DETALLE
 62
12
100
AcDbLine
 10
73.52997228149452
 20
-25.70915249019771
 30
0.0
 11
73.52997228149452
 21
-25.74603648887246
 31
0.0
  0
CIRCLE
  5
BA
330
17
100
AcDbEntity
  8
0-TEXTO DETALLE
100
AcDbCircle
 10
73.52997228149452
 20
-25.74603648887246
 30
0.0
 40
0.0008966570603802
  0
LINE
  5
BB
330
17
100
AcDbEntity
  8
0-TEXTO DETALLE
 62
12
100
AcDbLine
 10
73.52997228149452
 20
-25.77728256470442
 30
0.0
 11
73.5998498625288
 21
-25.77728256470442
 31
0.0
  0
LINE
  5
BC
330
17
100
AcDbEntity
  8
0-TEXTO DETALLE
 62
12
100
AcDbLine
 10
73.52997228149452
 20
-25.77728256470442
 30
0.0
 11
73.52997228149452
 21
-25.75573828305897
 31
0.0
  0
LINE
  5
BD
330
17
100
AcDbEntity
  8
0-TEXTO DETALLE
 62
12
100
AcDbLine
 10
73.51105953523707
 20
-25.80579284492461
 30
0.0
 11
73.5998498625288
 21
-25.80579284492461
 31
0.0
  0
LINE
  5
BE
330
17
100
AcDbEntity
  8
0-TEXTO DETALLE
 62
12
100
AcDbLine
 10
73.51105953523707
 20
-25.80579284492461
 30
0.0
 11
73.51105953523707
 21
-25.76558648887247
 31
0.0
  0
CIRCLE
  5
BF
330
17
100
AcDbEntity
  8
0-TEXTO DETALLE
100
AcDbCircle
 10
73.51105953523707
 20
-25.76558648887247
 30
0.0
 40
0.0008966570603802
  0
CIRCLE
  5
C0
330
17
100
AcDbEntity
  8
0-TEXTO DETALLE
100
AcDbCircle
 10
73.52997228149452
 20
-25.75573828305897
 30
0.0
 40
0.0008966570603802
  0
LINE
  5
C1
330
17
100
AcDbEntity
  8
0
 62
4
100
AcDbLine
 10
72.34358995206449
 20
-25.53956453092086
 30
0.0
 11
72.34358995206449
 21
-25.77443166964292
 31
0.0
  0
LINE
  5
C2
330
17
100
AcDbEntity
  8
0
 62
4
100
AcDbLine
 10
72.21877168809074
 20
-25.53956453092086
 30
0.0
 11
72.34358995206449
 21
-25.53956453092086
 31
0.0
  0
LINE
  5
C3
330
17
100
AcDbEntity
  8
0
 62
4
100
AcDbLine
 10
72.21877168809074
 20
-25.77443166964282
 30
0.0
 11
72.34358995206449
 21
-25.77443166964282
 31
0.0
  0
LINE
  5
C4
330
17
100
AcDbEntity
  8
0
 62
4
100
AcDbLine
 10
73.55403654175547
 20
-25.53956453092086
 30
0.0
 11
73.55403654175547
 21
-25.77443166964292
 31
0.0
  0
LINE
  5
C5
330
17
100
AcDbEntity
  8
0
 62
4
100
AcDbLine
 10
73.67885480572922
 20
-25.53956453092086
 30
0.0
 11
73.55403654175547
 21
-25.53956453092086
 31
0.0
  0
LINE
  5
C6
330
17
100
AcDbEntity
  8
0
 62
4
100
AcDbLine
 10
73.67885480572922
 20
-25.77443166964282
 30
0.0
 11
73.55403654175547
 21
-25.77443166964282
 31
0.0
  0
LWPOLYLINE
  5
C7
330
17
100
AcDbEntity
  8
0
 62
8
100
AcDbPolyline
 90
4
 70
1
 10
72.34881324690997
 20
-25.66083648887229
 10
73.54881324690996
 20
-25.66083648887229
 10
73.54881324690996
 20
-25.72583648887229
 10
72.34881324690997
 20
-25.72583648887229
  0
LINE
  5
C8
330
17
100
AcDbEntity
  8
0-TEXTO
 62
12
100
AcDbLine
 10
74.48199007593485
 20
-21.77401849082438
 30
0.0
 11
73.0762685637103
 21
-21.77401849082438
 31
0.0
  0
LINE
  5
C9
330
17
100
AcDbEntity
  8
0-TEXTO
 62
12
100
AcDbLine
 10
74.48199007593485
 20
-22.47634023823449
 30
0.0
 11
73.40023055423922
 21
-22.47634023823449
 31
0.0
  0
CIRCLE
  5
CA
330
17
100
AcDbEntity
  8
0-TEXTO
100
AcDbCircle
 10
73.40023055423922
 20
-22.47634023823449
 30
0.0
 40
0.0143465129660836
  0
CIRCLE
  5
CB
330
17
100
AcDbEntity
  8
0-TEXTO
100
AcDbCircle
 10
73.0762685637103
 20
-21.77401849082438
 30
0.0
 40
0.0143465129660836
  0
ENDSEC
  0
SECTION
  2
OBJECTS
  0
DICTIONARY
  5
A
330
0
100
AcDbDictionary
281
1
  3
ACAD_COLOR
350
B
  3
ACAD_GROUP
350
C
  3
ACAD_LAYOUT
350
D
  3
ACAD_MATERIAL
350
E
  3
ACAD_MLEADERSTYLE
350
F
  3
ACAD_MLINESTYLE
350
10
  3
ACAD_PLOTSETTINGS
350
11
  3
ACAD_PLOTSTYLENAME
350
12
  3
ACAD_SCALELIST
350
14
  3
ACAD_TABLESTYLE
350
15
  3
ACAD_VISUALSTYLE
350
16
  3
EZDXF_META
350
2D
  0
DICTIONARY
  5
B
330
A
100
AcDbDictionary
281
1
  0
DICTIONARY
  5
C
330
A
100
AcDbDictionary
281
1
  0
DICTIONARY
  5
D
330
A
100
AcDbDictionary
281
1
  3
Model
350
1A
  3
Layout1
350
1E
  0
DICTIONARY
  5
E
330
A
100
AcDbDictionary
281
1
  3
ByBlock
350
1F
  3
ByLayer
350
20
  3
Global
350
21
  0
DICTIONARY
  5
F
330
A
100
AcDbDictionary
281
1
  3
Standard
350
2C
  0
DICTIONARY
  5
10
330
A
100
AcDbDictionary
281
1
  3
Standard
350
22
  0
DICTIONARY
  5
11
330
A
100
AcDbDictionary
281
1
  0
ACDBDICTIONARYWDFLT
  5
12
330
A
100
AcDbDictionary
281
1
  3
Normal
350
13
100
AcDbDictionaryWithDefault
340
13
  0
ACDBPLACEHOLDER
  5
13
330
12
  0
DICTIONARY
  5
14
330
A
100
AcDbDictionary
281
1
  0
DICTIONARY
  5
15
330
A
100
AcDbDictionary
281
1
  0
DICTIONARY
  5
16
330
A
100
AcDbDictionary
281
1
  0
LAYOUT
  5
1A
330
D
100
AcDbPlotSettings
  1

  4
A3
  6

 40
7.5
 41
20.0
 42
7.5
 43
20.0
 44
420.0
 45
297.0
 46
0.0
 47
0.0
 48
0.0
 49
0.0
140
0.0
141
0.0
142
1.0
143
1.0
 70
1024
 72
1
 73
0
 74
5
  7

 75
16
 76
0
 77
2
 78
300
147
1.0
148
0.0
149
0.0
100
AcDbLayout
  1
Model
 70
1
 71
0
 10
0.0
 20
0.0
 11
420.0
 21
297.0
 12
0.0
 22
0.0
 32
0.0
 14
1e+20
 24
1e+20
 34
1e+20
 15
-1e+20
 25
-1e+20
 35
-1e+20
146
0.0
 13
0.0
 23
0.0
 33
0.0
 16
1.0
 26
0.0
 36
0.0
 17
0.0
 27
1.0
 37
0.0
 76
1
330
17
  0
LAYOUT
  5
1E
330
D
100
AcDbPlotSettings
  1

  4
A3
  6

 40
7.5
 41
20.0
 42
7.5
 43
20.0
 44
420.0
 45
297.0
 46
0.0
 47
0.0
 48
0.0
 49
0.0
140
0.0
141
0.0
142
1.0
143
1.0
 70
0
 72
1
 73
0
 74
5
  7

 75
16
 76
0
 77
2
 78
300
147
1.0
148
0.0
149
0.0
100
AcDbLayout
  1
Layout1
 70
1
 71
1
 10
0.0
 20
0.0
 11
420.0
 21
297.0
 12
0.0
 22
0.0
 32
0.0
 14
1e+20
 24
1e+20
 34
1e+20
 15
-1e+20
 25
-1e+20
 35
-1e+20
146
0.0
 13
0.0
 23
0.0
 33
0.0
 16
1.0
 26
0.0
 36
0.0
 17
0.0
 27
1.0
 37
0.0
 76
1
330
1B
  0
MATERIAL
  5
1F
102
{ACAD_REACTORS
330
E
102
}
330
E
100
AcDbMaterial
  1
ByBlock
  2

 70
0
 40
1.0
 71
1
 41
1.0
 91
-1023410177
 42
1.0
 72
1
  3

 73
1
 74
1
 75
1
 44
0.5
 73
0
 45
1.0
 46
1.0
 77
1
  4

 78
1
 79
1
170
1
 48
1.0
171
1
  6

172
1
173
1
174
1
140
1.0
141
1.0
175
1
  7

176
1
177
1
178
1
143
1.0
179
1
  8

270
1
271
1
272
1
145
1.0
146
1.0
273
1
  9

274
1
275
1
276
1
 42
1.0
 72
1
  3

 73
1
 74
1
 75
1
 94
63
  0
MATERIAL
  5
20
102
{ACAD_REACTORS
330
E
102
}
330
E
100
AcDbMaterial
  1
ByLayer
  2

 70
0
 40
1.0
 71
1
 41
1.0
 91
-1023410177
 42
1.0
 72
1
  3

 73
1
 74
1
 75
1
 44
0.5
 73
0
 45
1.0
 46
1.0
 77
1
  4

 78
1
 79
1
170
1
 48
1.0
171
1
  6

172
1
173
1
174
1
140
1.0
141
1.0
175
1
  7

176
1
177
1
178
1
143
1.0
179
1
  8

270
1
271
1
272
1
145
1.0
146
1.0
273
1
  9

274
1
275
1
276
1
 42
1.0
 72
1
  3

 73
1
 74
1
 75
1
 94
63
  0
MATERIAL
  5
21
102
{ACAD_REACTORS
330
E
102
}
330
E
100
AcDbMaterial
  1
Global
  2

 70
0
 40
1.0
 71
1
 41
1.0
 91
-1023410177
 42
1.0
 72
1
  3

 73
1
 74
1
 75
1
 44
0.5
 73
0
 45
1.0
 46
1.0
 77
1
  4

 78
1
 79
1
170
1
 48
1.0
171
1
  6

172
1
173
1
174
1
140
1.0
141
1.0
175
1
  7

176
1
177
1
178
1
143
1.0
179
1
  8

270
1
271
1
272
1
145
1.0
146
1.0
273
1
  9

274
1
275
1
276
1
 42
1.0
 72
1
  3

 73
1
 74
1
 75
1
 94
63
  0
MLINESTYLE
  5
22
102
{ACAD_REACTORS
330
10
102
}
330
10
100
AcDbMlineStyle
  2
Standard
 70
0
  3

 62
256
 51
90.0
 52
90.0
 71
2
 49
0.5
 62
256
  6
BYLAYER
 49
-0.5
 62
256
  6
BYLAYER
  0
MLEADERSTYLE
  5
2C
102
{ACAD_REACTORS
330
F
102
}
330
F
100
AcDbMLeaderStyle
179
2
170
2
171
1
172
0
 90
2
 40
0.0
 41
0.0
173
1
 91
-1056964608
 92
-2
290
1
 42
2.0
291
1
 43
8.0
  3
Standard
 44
4.0
300

342
29
174
1
175
1
176
0
178
1
 93
-1056964608
 45
4.0
292
0
297
0
 46
4.0
 94
-1056964608
 47
1.0
 49
1.0
140
1.0
294
1
141
0.0
177
0
142
1.0
295
0
296
0
143
3.75
271
0
272
9
273
9
  0
DICTIONARY
  5
2D
330
A
100
AcDbDictionary
280
1
281
1
  3
CREATED_BY_EZDXF
350
2E
  3
WRITTEN_BY_EZDXF
350
CE
  0
DICTIONARYVAR
  5
2E
330
2D
100
DictionaryVariables
280
0
  1
1.4.4 @ 2026-10-03T07:35:33.861617+00:00
  0
DICTIONARYVAR
  5
CE
330
2D
100
DictionaryVariables
280
0
  1
1.4.4 @ 2026-10-03T07:35:33.867345+00:00
  0
ENDSEC
  0
EOF
