  0
SECTION
  2
HEADER
  9
$ACADVER
  1
AC1032
  9
$ACADMAINTVER
 90
4
  9
$DWGCODEPAGE
  3
ANSI_1252
  9
$LASTSAVEDBY
  1
ezdxf
  9
$REQUIREDVERSIONS
160
0
  9
$INSBASE
 10
0.0
 20
0.0
 30
0.0
  9
$EXTMIN
 10
1e+20
 20
1e+20
 30
1e+20
  9
$EXTMAX
 10
-1e+20
 20
-1e+20
 30
-1e+20
  9
$LIMMIN
 10
0.0
 20
0.0
  9
$LIMMAX
 10
420.0
 20
297.0
  9
$ORTHOMODE
 70
0
  9
$REGENMODE
 70
1
  9
$FILLMODE
 70
1
  9
$QTEXTMODE
 70
0
  9
$MIRRTEXT
 70
1
  9
$LTSCALE
 40
1.0
  9
$ATTMODE
 70
1
  9
$TEXTSIZE
 40
2.5
  9
$TRACEWID
 40
1.0
  9
$TEXTSTYLE
  7
Standard
  9
$CLAYER
  8
0
  9
$CELTYPE
  6
ByLayer
  9
$CECOLOR
 62
256
  9
$CELTSCALE
 40
1.0
  9
$DISPSILH
 70
0
  9
$DIMSCALE
 40
1.0
  9
$DIMASZ
 40
2.5
  9
$DIMEXO
 40
0.625
  9
$DIMDLI
 40
3.75
  9
$DIMRND
 40
0.0
  9
$DIMDLE
 40
0.0
  9
$DIMEXE
 40
1.25
  9
$DIMTP
 40
0.0
  9
$DIMTM
 40
0.0
  9
$DIMTXT
 40
2.5
  9
$DIMCEN
 40
2.5
  9
$DIMTSZ
 40
0.0
  9
$DIMTOL
 70
0
  9
$DIMLIM
 70
0
  9
$DIMTIH
 70
0
  9
$DIMTOH
 70
0
  9
$DIMSE1
 70
0
  9
$DIMSE2
 70
0
  9
$DIMTAD
 70
1
  9
$DIMZIN
 70
8
  9
$DIMBLK
  1

  9
$DIMASO
 70
1
  9
$DIMSHO
 70
1
  9
$DIMPOST
  1

  9
$DIMAPOST
  1

  9
$DIMALT
 70
0
  9
$DIMALTD
 70
3
  9
$DIMALTF
 40
0.03937007874
  9
$DIMLFAC
 40
1.0
  9
$DIMTOFL
 70
1
  9
$DIMTVP
 40
0.0
  9
$DIMTIX
 70
0
  9
$DIMSOXD
 70
0
  9
$DIMSAH
 70
0
  9
$DIMBLK1
  1

  9
$DIMBLK2
  1

  9
$DIMSTYLE
  2
ISO-25
  9
$DIMCLRD
 70
0
  9
$DIMCLRE
 70
0
  9
$DIMCLRT
 70
0
  9
$DIMTFAC
 40
1.0
  9
$DIMGAP
 40
0.625
  9
$DIMJUST
 70
0
  9
$DIMSD1
 70
0
  9
$DIMSD2
 70
0
  9
$DIMTOLJ
 70
0
  9
$DIMTZIN
 70
8
  9
$DIMALTZ
 70
0
  9
$DIMALTTZ
 70
0
  9
$DIMUPT
 70
0
  9
$DIMDEC
 70
2
  9
$DIMTDEC
 70
2
  9
$DIMALTU
 70
2
  9
$DIMALTTD
 70
3
  9
$DIMTXSTY
  7
Standard
  9
$DIMAUNIT
 70
0
  9
$DIMADEC
 70
0
  9
$DIMALTRND
 40
0.0
  9
$DIMAZIN
 70
0
  9
$DIMDSEP
 70
44
  9
$DIMATFIT
 70
3
  9
$DIMFRAC
 70
0
  9
$DIMLDRBLK
  1

  9
$DIMLUNIT
 70
2
  9
$DIMLWD
 70
-2
  9
$DIMLWE
 70
-2
  9
$DIMTMOVE
 70
0
  9
$DIMFXL
 40
1.0
  9
$DIMFXLON
 70
0
  9
$DIMJOGANG
 40
0.785398163397
  9
$DIMTFILL
 70
0
  9
$DIMTFILLCLR
 70
0
  9
$DIMARCSYM
 70
0
  9
$DIMLTYPE
  6

  9
$DIMLTEX1
  6

  9
$DIMLTEX2
  6

  9
$DIMTXTDIRECTION
 70
0
  9
$LUNITS
 70
2
  9
$LUPREC
 70
4
  9
$SKETCHINC
 40
1.0
  9
$FILLETRAD
 40
10.0
  9
$AUNITS
 70
0
  9
$AUPREC
 70
2
  9
$MENU
  1
.
  9
$ELEVATION
 40
0.0
  9
$PELEVATION
 40
0.0
  9
$THICKNESS
 40
0.0
  9
$LIMCHECK
 70
0
  9
$CHAMFERA
 40
0.0
  9
$CHAMFERB
 40
0.0
  9
$CHAMFERC
 40
0.0
  9
$CHAMFERD
 40
0.0
  9
$SKPOLY
 70
0
  9
$TDCREATE
 40
2461317.3163773147
  9
$TDUCREATE
 40
2458532.153996898
  9
$TDUPDATE
 40
2461317.3163773147
  9
$TDUUPDATE
 40
2458532.1544311
  9
$TDINDWG
 40
0.0
  9
$TDUSRTIMER
 40
0.0
  9
$USRTIMER
 70
1
  9
$ANGBASE
 50
0.0
  9
$ANGDIR
 70
0
  9
$PDMODE
 70
0
  9
$PDSIZE
 40
0.0
  9
$PLINEWID
 40
0.0
  9
$SPLFRAME
 70
0
  9
$SPLINETYPE
 70
6
  9
$SPLINESEGS
 70
8
  9
$HANDSEED
  5
1A5
  9
$SURFTAB1
 70
6
  9
$SURFTAB2
 70
6
  9
$SURFTYPE
 70
6
  9
$SURFU
 70
6
  9
$SURFV
 70
6
  9
$UCSBASE
  2

  9
$UCSNAME
  2

  9
$UCSORG
 10
0.0
 20
0.0
 30
0.0
  9
$UCSXDIR
 10
1.0
 20
0.0
 30
0.0
  9
$UCSYDIR
 10
0.0
 20
1.0
 30
0.0
  9
$UCSORTHOREF
  2

  9
$UCSORTHOVIEW
 70
0
  9
$UCSORGTOP
 10
0.0
 20
0.0
 30
0.0
  9
$UCSORGBOTTOM
 10
0.0
 20
0.0
 30
0.0
  9
$UCSORGLEFT
 10
0.0
 20
0.0
 30
0.0
  9
$UCSORGRIGHT
 10
0.0
 20
0.0
 30
0.0
  9
$UCSORGFRONT
 10
0.0
 20
0.0
 30
0.0
  9
$UCSORGBACK
 10
0.0
 20
0.0
 30
0.0
  9
$PUCSBASE
  2

  9
$PUCSNAME
  2

  9
$PUCSORG
 10
0.0
 20
0.0
 30
0.0
  9
$PUCSXDIR
 10
1.0
 20
0.0
 30
0.0
  9
$PUCSYDIR
 10
0.0
 20
1.0
 30
0.0
  9
$PUCSORTHOREF
  2

  9
$PUCSORTHOVIEW
 70
0
  9
$PUCSORGTOP
 10
0.0
 20
0.0
 30
0.0
  9
$PUCSORGBOTTOM
 10
0.0
 20
0.0
 30
0.0
  9
$PUCSORGLEFT
 10
0.0
 20
0.0
 30
0.0
  9
$PUCSORGRIGHT
 10
0.0
 20
0.0
 30
0.0
  9
$PUCSORGFRONT
 10
0.0
 20
0.0
 30
0.0
  9
$PUCSORGBACK
 10
0.0
 20
0.0
 30
0.0
  9
$USERI1
 70
0
  9
$USERI2
 70
0
  9
$USERI3
 70
0
  9
$USERI4
 70
0
  9
$USERI5
 70
0
  9
$USERR1
 40
0.0
  9
$USERR2
 40
0.0
  9
$USERR3
 40
0.0
  9
$USERR4
 40
0.0
  9
$USERR5
 40
0.0
  9
$WORLDVIEW
 70
1
  9
$SHADEDGE
 70
3
  9
$SHADEDIF
 70
70
  9
$TILEMODE
 70
1
  9
$MAXACTVP
 70
64
  9
$PINSBASE
 10
0.0
 20
0.0
 30
0.0
  9
$PLIMCHECK
 70
0
  9
$PEXTMIN
 10
1e+20
 20
1e+20
 30
1e+20
  9
$PEXTMAX
 10
-1e+20
 20
-1e+20
 30
-1e+20
  9
$PLIMMIN
 10
0.0
 20
0.0
  9
$PLIMMAX
 10
420.0
 20
297.0
  9
$UNITMODE
 70
0
  9
$VISRETAIN
 70
1
  9
$PLINEGEN
 70
0
  9
$PSLTSCALE
 70
1
  9
$TREEDEPTH
 70
3020
  9
$CMLSTYLE
  2
Standard
  9
$CMLJUST
 70
0
  9
$CMLSCALE
 40
20.0
  9
$PROXYGRAPHICS
 70
1
  9
$MEASUREMENT
 70
1
  9
$CELWEIGHT
370
-1
  9
$ENDCAPS
280
0
  9
$JOINSTYLE
280
0
  9
$LWDISPLAY
290
0
  9
$INSUNITS
 70
6
  9
$HYPERLINKBASE
  1

  9
$STYLESHEET
  1

  9
$XEDIT
290
1
  9
$CEPSNTYPE
380
0
  9
$PSTYLEMODE
290
1
  9
$FINGERPRINTGUID
  2
{451001A3-D1D4-48BC-933F-F43389C7A666}
  9
$VERSIONGUID
  2
{9134B56F-60C3-45CA-9986-F7CB341F66A0}
  9
$EXTNAMES
290
1
  9
$PSVPSCALE
 40
0.0
  9
$OLESTARTUP
290
0
  9
$SORTENTS
280
127
  9
$INDEXCTL
280
0
  9
$HIDETEXT
280
1
  9
$XCLIPFRAME
280
1
  9
$HALOGAP
280
0
  9
$OBSCOLOR
 70
257
  9
$OBSLTYPE
280
0
  9
$INTERSECTIONDISPLAY
280
0
  9
$INTERSECTIONCOLOR
 70
257
  9
$DIMASSOC
280
2
  9
$PROJECTNAME
  1

  9
$CAMERADISPLAY
290
0
  9
$LENSLENGTH
 40
50.0
  9
$CAMERAHEIGHT
 40
0.0
  9
$STEPSPERSEC
 40
24.0
  9
$STEPSIZE
 40
100.0
  9
$3DDWFPREC
 40
2.0
  9
$PSOLWIDTH
 40
0.005
  9
$PSOLHEIGHT
 40
0.08
  9
$LOFTANG1
 40
1.570796326795
  9
$LOFTANG2
 40
1.570796326795
  9
$LOFTMAG1
 40
0.0
  9
$LOFTMAG2
 40
0.0
  9
$LOFTPARAM
 70
7
  9
$LOFTNORMALS
280
1
  9
$LATITUDE
 40
37.795
  9
$LONGITUDE
 40
-122.394
  9
$NORTHDIRECTION
 40
0.0
  9
$TIMEZONE
 70
-8000
  9
$LIGHTGLYPHDISPLAY
280
1
  9
$TILEMODELIGHTSYNCH
280
1
  9
$CMATERIAL
347
20
  9
$SOLIDHIST
280
0
  9
$SHOWHIST
280
1
  9
$DWFFRAME
280
2
  9
$DGNFRAME
280
2
  9
$REALWORLDSCALE
290
1
  9
$INTERFERECOLOR
 62
256
  9
$CSHADOW
280
0
  9
$SHADOWPLANELOCATION
 40
0.0
  0
ENDSEC
  0
SECTION
  2
CLASSES
  0
CLASS
  1
ACDBDICTIONARYWDFLT
  2
AcDbDictionaryWithDefault
  3
ObjectDBX Classes
 90
0
 91
0
280
0
281
0
  0
CLASS
  1
SUN
  2
AcDbSun
  3
SCENEOE
 90
1153
 91
0
280
0
281
0
  0
CLASS
  1
VISUALSTYLE
  2
AcDbVisualStyle
  3
ObjectDBX Classes
 90
4095
 91
0
280
0
281
0
  0
CLASS
  1
MATERIAL
  2
AcDbMaterial
  3
ObjectDBX Classes
 90
1153
 91
0
280
0
281
0
  0
CLASS
  1
SCALE
  2
AcDbScale
  3
ObjectDBX Classes
 90
1153
 91
0
280
0
281
0
  0
CLASS
  1
TABLESTYLE
  2
AcDbTableStyle
  3
ObjectDBX Classes
 90
4095
 91
0
280
0
281
0
  0
CLASS
  1
MLEADERSTYLE
  2
AcDbMLeaderStyle
  3
ACDB_MLEADERSTYLE_CLASS
 90
4095
 91
0
280
0
281
0
  0
CLASS
  1
DICTIONARYVAR
  2
AcDbDictionaryVar
  3
ObjectDBX Classes
 90
0
 91
0
280
0
281
0
  0
CLASS
  1
CELLSTYLEMAP
  2
AcDbCellStyleMap
  3
ObjectDBX Classes
 90
1152
 91
0
280
0
281
0
  0
CLASS
  1
MENTALRAYRENDERSETTINGS
  2
AcDbMentalRayRenderSettings
  3
SCENEOE
 90
1024
 91
0
280
0
281
0
  0
CLASS
  1
ACDBDETAILVIEWSTYLE
  2
AcDbDetailViewStyle
  3
ObjectDBX Classes
 90
1025
 91
0
280
0
281
0
  0
CLASS
  1
ACDBSECTIONVIEWSTYLE
  2
AcDbSectionViewStyle
  3
ObjectDBX Classes
 90
1025
 91
0
280
0
281
0
  0
CLASS
  1
RASTERVARIABLES
  2
AcDbRasterVariables
  3
ISM
 90
0
 91
0
280
0
281
0
  0
CLASS
  1
ACDBPLACEHOLDER
  2
AcDbPlaceHolder
  3
ObjectDBX Classes
 90
0
 91
0
280
0
281
0
  0
CLASS
  1
LAYOUT
  2
AcDbLayout
  3
ObjectDBX Classes
 90
0
 91
0
280
0
281
0
  0
ENDSEC
  0
SECTION
  2
TABLES
  0
TABLE
  2
VPORT
  5
8
330
0
100
AcDbSymbolTable
 70
1
  0
VPORT
  5
23
330
8
100
AcDbSymbolTableRecord
100
AcDbViewportTableRecord
  2
*Active
 70
0
 10
0.0
 20
0.0
 11
1.0
 21
1.0
 12
0.0
 22
0.0
 13
0.0
 23
0.0
 14
0.5
 24
0.5
 15
0.5
 25
0.5
 16
0.0
 26
0.0
 36
1.0
 17
0.0
 27
0.0
 37
0.0
 40
1000.0
 41
1.34
 42
50.0
 43
0.0
 44
0.0
 50
0.0
 51
0.0
 71
0
 72
1000
 73
1
 74
3
 75
0
 76
0
 77
0
 78
0
281
0
 65
0
146
0.0
  0
ENDTAB
  0
TABLE
  2
LTYPE
  5
2
330
0
100
AcDbSymbolTable
 70
3
  0
LTYPE
  5
24
330
2
100
AcDbSymbolTableRecord
100
AcDbLinetypeTableRecord
  2
ByBlock
 70
0
  3

 72
65
 73
0
 40
0.0
  0
LTYPE
  5
25
330
2
100
AcDbSymbolTableRecord
100
AcDbLinetypeTableRecord
  2
ByLayer
 70
0
  3

 72
65
 73
0
 40
0.0
  0
LTYPE
  5
26
330
2
100
AcDbSymbolTableRecord
100
AcDbLinetypeTableRecord
  2
Continuous
 70
0
  3

 72
65
 73
0
 40
0.0
  0
ENDTAB
  0
TABLE
  2
LAYER
  5
1
330
0
100
AcDbSymbolTable
 70
7
  0
LAYER
  5
27
330
1
100
AcDbSymbolTableRecord
100
AcDbLayerTableRecord
  2
0
 70
0
 62
7
  6
Continuous
370
-3
390
13
347
21
  0
LAYER
  5
28
330
1
100
AcDbSymbolTableRecord
100
AcDbLayerTableRecord
  2
Defpoints
 70
0
 62
7
  6
Continuous
290
0
370
-3
390
13
347
21
  0
LAYER
  5
31
330
1
100
AcDbSymbolTableRecord
100
AcDbLayerTableRecord
  2
0-cortes
 70
0
 62
7
  6
Continuous
370
-3
390
13
347
21
  0
LAYER
  5
5A
330
1
100
AcDbSymbolTableRecord
100
AcDbLayerTableRecord
  2
0-TEXTO
 70
0
 62
7
  6
Continuous
370
-3
390
13
347
21
  0
LAYER
  5
5C
330
1
100
AcDbSymbolTableRecord
100
AcDbLayerTableRecord
  2
0-TEXTO DETALLE
 70
0
 62
7
  6
Continuous
370
-3
390
13
347
21
  0
LAYER
  5
B8
330
1
100
AcDbSymbolTableRecord
100
AcDbLayerTableRecord
  2
0-VENTANAS
 70
0
 62
7
  6
Continuous
370
-3
390
13
347
21
  0
LAYER
  5
BD
330
1
100
AcDbSymbolTableRecord
100
AcDbLayerTableRecord
  2
0-COTAS REF
 70
0
 62
7
  6
Continuous
370
-3
390
13
347
21
  0
ENDTAB
  0
TABLE
  2
STYLE
  5
5
330
0
100
AcDbSymbolTable
 70
1
  0
STYLE
  5
29
330
5
100
AcDbSymbolTableRecord
100
AcDbTextStyleTableRecord
  2
Standard
 70
0
 40
0.0
 41
1.0
 50
0.0
 71
0
 42
2.5
  3
txt
  4

  0
ENDTAB
  0
TABLE
  2
VIEW
  5
7
330
0
100
AcDbSymbolTable
 70
0
  0
ENDTAB
  0
TABLE
  2
UCS
  5
6
330
0
100
AcDbSymbolTable
 70
0
  0
ENDTAB
  0
TABLE
  2
APPID
  5
3
330
0
100
AcDbSymbolTable
 70
3
  0
APPID
  5
2A
330
3
100
AcDbSymbolTableRecord
100
AcDbRegAppTableRecord
  2
ACAD
 70
0
  0
APPID
  5
1A2
330
3
100
AcDbSymbolTableRecord
100
AcDbRegAppTableRecord
  2
HATCHBACKGROUNDCOLOR
 70
0
  0
APPID
  5
1A3
330
3
100
AcDbSymbolTableRecord
100
AcDbRegAppTableRecord
  2
EZDXF
 70
0
  0
ENDTAB
  0
TABLE
  2
DIMSTYLE
  5
4
330
0
100
AcDbSymbolTable
 70
1
100
AcDbDimStyleTable
  0
DIMSTYLE
105
2B
330
4
100
AcDbSymbolTableRecord
100
AcDbDimStyleTableRecord
  2
Standard
 70
0
 40
1.0
 41
2.5
 42
0.625
 43
3.75
 44
1.25
 45
0.0
 46
0.0
 47
0.0
 48
0.0
 49
2.5
140
2.5
141
2.5
142
0.0
143
0.03937007874
144
1.0
145
0.0
146
1.0
147
0.625
148
0.0
 69
0
 70
0
 71
0
 72
0
 73
0
 74
0
 75
0
 76
0
 77
1
 78
8
 79
3
170
0
171
3
172
1
173
0
174
0
175
0
176
0
177
0
178
0
179
2
271
2
272
2
273
2
274
3
275
0
276
0
277
2
278
44
279
0
280
0
281
0
282
0
283
0
284
8
285
0
286
0
288
0
289
3
290
0
371
-2
372
-2
  0
ENDTAB
  0
TABLE
  2
BLOCK_RECORD
  5
9
330
0
100
AcDbSymbolTable
 70
2
  0
BLOCK_RECORD
  5
17
330
9
100
AcDbSymbolTableRecord
100
AcDbBlockTableRecord
  2
*Model_Space
340
1A
 70
0
280
1
281
0
  0
BLOCK_RECORD
  5
1B
330
9
100
AcDbSymbolTableRecord
100
AcDbBlockTableRecord
  2
*Paper_Space
340
1E
 70
0
280
1
281
0
  0
ENDTAB
  0
ENDSEC
  0
SECTION
  2
BLOCKS
  0
BLOCK
  5
18
330
17
100
AcDbEntity
  8
0
100
AcDbBlockBegin
  2
*Model_Space
 70
0
 10
0.0
 20
0.0
 30
0.0
  3
*Model_Space
  1

  0
ENDBLK
  5
19
330
17
100
AcDbEntity
  8
0
100
AcDbBlockEnd
  0
BLOCK
  5
1C
330
1B
100
AcDbEntity
  8
0
100
AcDbBlockBegin
  2
*Paper_Space
 70
0
 10
0.0
 20
0.0
 30
0.0
  3
*Paper_Space
  1

  0
ENDBLK
  5
1D
330
1B
100
AcDbEntity
  8
0
100
AcDbBlockEnd
  0
ENDSEC
  0
SECTION
  2
ENTITIES
  0
LINE
  5
2F
330
17
100
AcDbEntity
  8
0
100
AcDbLine
 10
83.2238460423543
 20
-24.42057947372224
 30
0.0
 11
83.2238460423543
 21
-16.54836224814812
 31
0.0
  0
LINE
  5
30
330
17
100
AcDbEntity
  8
0
 62
4
100
AcDbLine
 10
87.5733274009103
 20
-24.42057947372224
 30
0.0
 11
97.44877810588198
 21
-24.42057947372224
 31
0.0
  0
LWPOLYLINE
  5
32
330
17
100
AcDbEntity
  8
0-cortes
 62
251
100
AcDbPolyline
 90
195
 70
0
 10
91.46798748686743
 20
-22.99598329681872
 10
91.45996873909826
 20
-22.95301853530845
 10
91.45575113389236
 20
-22.91393861592558
 10
91.46618536674788
 20
-22.89055061214448
 10
91.46895098335297
 20
-22.85081818881702
 10
91.46488266693689
 20
-22.81994841806807
 10
91.47451419236276
 20
-22.79207964642037
 10
91.4750920223317
 20
-22.7657937765376
 10
91.4991290570702
 20
-22.74070335274287
 10
91.5155186282009
 20
-22.73213362846717
 10
91.53191465000009
 20
-22.72009567763492
 10
91.5621918872501
 20
-22.72097745763493
 10
91.59063300849196
 20
-22.72318040815562
 10
91.62716982406224
 20
-22.73961691439994
 10
91.65109790423224
 20
-22.76678662793055
 10
91.6705801497727
 20
-22.8017484097691
 10
91.68013650737822
 20
-22.82693330983921
 10
91.69318104092653
 20
-22.84731907562794
 10
91.69723771487455
 20
-22.87180905749421
 10
91.70280783840761
 20
-22.89150903014942
 10
91.70837834739234
 20
-22.90468206011869
 10
91.70833632283399
 20
-22.9272767242659
 10
91.70603133952451
 20
-22.94053748977378
 10
91.71230786382537
 20
-22.96594025331746
 10
91.70910745880715
 20
-22.99296992418927
 10
91.70987353040346
 20
-23.0045086813403
 10
91.72275927498409
 20
-23.00915270005478
 10
91.73676405446356
 20
-23.01883478486304
 10
91.746706079072
 20
-23.03889483198711
 10
91.74986329857299
 20
-23.06036282986354
 10
91.75455180980774
 20
-23.09224308057189
 10
91.75892656574268
 20
-23.12198990403263
 10
91.76351951803329
 20
-23.15633429753997
 10
91.76343179132141
 20
-23.20350089890701
 10
91.76970282438134
 20
-23.23817575124954
 10
91.76845518726782
 20
-23.27700234501215
 10
91.7699794085972
 20
-23.29801937813315
 10
91.7826487301457
 20
-23.34318763409191
 10
91.79223905971136
 20
-23.3773787672865
 10
91.7989489495005
 20
-23.40130064962951
 10
91.79889360574865
 20
-23.43105642895372
 10
91.80241941009545
 20
-23.46953995797057
 10
91.8100207987938
 20
-23.51570982424573
 10
91.81721324745826
 20
-23.55423856675932
 10
91.81716436757685
 20
-23.58051902148937
 10
91.82162004832472
 20
-23.61167106713088
 10
91.82682508082056
 20
-23.64439225272692
 10
91.83344896276915
 20
-23.66630822688776
 10
91.83097325128168
 20
-23.68920551481821
 10
91.82378429598074
 20
-23.70567587541866
 10
91.81812531698668
 20
-23.71479027293363
 10
91.89244390025743
 20
-23.89987136152347
 10
91.91301664525804
 20
-23.9488936957913
 10
91.92276018905463
 20
-23.97455246736023
 10
91.9381800083668
 20
-24.02603521768317
 10
91.9510910500467
 20
-24.07395547779612
 10
91.95278213232915
 20
-24.1190137294692
 10
91.95118779215603
 20
-24.16097517080668
 10
91.94724762808139
 20
-24.18127815448491
 10
91.94216041537757
 20
-24.20749168126636
 10
91.91503476742822
 20
-24.21625896825186
 10
91.89265898986775
 20
-24.22028709198852
 10
91.86807101738385
 20
-24.23192586849416
 10
91.84638455179129
 20
-24.23188553312414
 10
91.82535956492069
 20
-24.23642168740688
 10
91.76283560806576
 20
-24.23816749560325
 10
91.74758623478624
 20
-24.22143783643823
 10
91.75446447287132
 20
-24.19507409939387
 10
91.75126671841551
 20
-24.17644076723034
 10
91.73555521064661
 20
-24.12379286291644
 10
91.72918144136231
 20
-24.08115750812639
 10
91.73700305271262
 20
-24.01524352846315
 10
91.74578638389148
 20
-23.95679252969939
 10
91.75654745253713
 20
-23.89671347354383
 10
91.7874765591369
 20
-23.71774718040229
 10
91.77865042740596
 20
-23.70441452005543
 10
91.76975788393742
 20
-23.69518987115142
 10
91.7671179398478
 20
-23.7115919050384
 10
91.76582823897616
 20
-23.72879632080197
 10
91.76227385362299
 20
-23.7375946845135
 10
91.75002488924002
 20
-23.73816700592496
 10
91.74061416473285
 20
-23.74211686036431
 10
91.71107809553054
 20
-23.74088451586072
 10
91.70047767900599
 20
-23.79042477691162
 10
91.68943427656745
 20
-23.84203529980271
 10
91.68153776683673
 20
-23.88729546258967
 10
91.67824149091558
 20
-23.92163257217257
 10
91.67857441731753
 20
-23.95118360770248
 10
91.6792328281251
 20
-23.97004897853032
 10
91.68329910936723
 20
-24.00201296835853
 10
91.67912790439539
 20
-24.05806013589405
 10
91.6733919293326
 20
-24.11489146564925
 10
91.6582943960803
 20
-24.18083670533511
 10
91.6441128724041
 20
-24.24090300070956
 10
91.63580947431971
 20
-24.26882543429727
 10
91.63275208784987
 20
-24.2884773655421
 10
91.6299905699982
 20
-24.31968637628517
 10
91.63665753844496
 20
-24.33107613460503
 10
91.6384391213104
 20
-24.35907491625782
 10
91.65879795292523
 20
-24.38407514135233
 10
91.6633254817441
 20
-24.39555690492019
 10
91.65635617370413
 20
-24.4203271305143
 10
91.57677914832269
 20
-24.42083181693018
 10
91.56793432837867
 20
-24.40490754135484
 10
91.57327552520539
 20
-24.38337856239239
 10
91.5709353188602
 20
-24.35869980411646
 10
91.57098283005732
 20
-24.33315522771453
 10
91.57803767650972
 20
-24.32559197573674
 10
91.57516065802965
 20
-24.21666985637804
 10
91.57525616838956
 20
-24.16531834695308
 10
91.57217828116627
 20
-24.13911526317945
 10
91.57180768729785
 20
-24.07925866351543
 10
91.57603920388527
 20
-24.04766205006048
 10
91.5781094029985
 20
-24.01528074307658
 10
91.5755536508449
 20
-23.98641666136587
 10
91.57351518520831
 20
-23.96381812764659
 10
91.56962146769007
 20
-23.9338701324725
 10
91.5670257271361
 20
-23.91390534940361
 10
91.56706724887717
 20
-23.89158102688844
 10
91.56397637897336
 20
-23.88495874917646
 10
91.55976890822515
 20
-23.89730732328066
 10
91.5560654537054
 20
-23.92305626568984
 10
91.55232045165988
 20
-23.9490940748432
 10
91.54379199202194
 20
-23.9747178710771
 10
91.54757229027715
 20
-23.99612943716148
 10
91.55255730196197
 20
-24.02707130150754
 10
91.55860653357269
 20
-24.05460449735541
 10
91.55855598746697
 20
-24.08178080396333
 10
91.56056359684867
 20
-24.11464961770578
 10
91.55936135974827
 20
-24.13538642433968
 10
91.55652363704132
 20
-24.15700964509456
 10
91.55325942213408
 20
-24.19306813565722
 10
91.55021502840964
 20
-24.24365268362762
 10
91.5481064328236
 20
-24.31563710813786
 10
91.55717407505921
 20
-24.32551477705338
 10
91.56171549463996
 20
-24.39272514498407
 10
91.54729126410847
 20
-24.40001233287355
 10
91.52505020777633
 20
-24.42008291023325
 10
91.44453406180806
 20
-24.41993315560742
 10
91.43553853948086
 20
-24.40919815963761
 10
91.44471346815563
 20
-24.38667167379214
 10
91.46509698289809
 20
-24.36680240838179
 10
91.4776057240447
 20
-24.34031476544856
 10
91.48202807411164
 20
-24.33250985553123
 10
91.48404115473558
 20
-24.31819911698824
 10
91.49439179723875
 20
-24.31447497447839
 10
91.49662451782243
 20
-24.30214832332807
 10
91.49334780004048
 20
-24.28805170985944
 10
91.46000080006905
 20
-24.18076224490917
 10
91.45883510849723
 20
-24.10601377690746
 10
91.45112640605792
 20
-24.04802482430573
 10
91.45087596775954
 20
-23.99308285256737
 10
91.45121286230695
 20
-23.93202456352982
 10
91.4512898894782
 20
-23.89061061100605
 10
91.44655861393923
 20
-23.86227999595406
 10
91.43943245339614
 20
-23.82602940795872
 10
91.43711392447128
 20
-23.78337599978594
 10
91.43552070681783
 20
-23.75406596524058
 10
91.41901784848267
 20
-23.73622037051555
 10
91.41434482748338
 20
-23.71448719582049
 10
91.41192280142747
 20
-23.69588090231632
 10
91.40430766177425
 20
-23.66342399057587
 10
91.39421069511484
 20
-23.63819329226036
 10
91.39328347263373
 20
-23.58690387026207
 10
91.38670536964634
 20
-23.56565347351626
 10
91.3935705251731
 20
-23.53368421956898
 10
91.40460996247725
 20
-23.50089086417064
 10
91.41309378394529
 20
-23.46443894698612
 10
91.42263499651852
 20
-23.44088930814411
 10
91.4309359858788
 20
-23.42058163738028
 10
91.43888293619014
 20
-23.4136727389953
 10
91.43518908546775
 20
-23.40265965039343
 10
91.43697275951851
 20
-23.38529617928458
 10
91.40210633045128
 20
-23.37448746930853
 10
91.3763948142626
 20
-23.36455324804828
 10
91.35558660096682
 20
-23.35365550405634
 10
91.3484656422199
 20
-23.3462066632426
 10
91.34356648568678
 20
-23.33862117762181
 10
91.34302551688397
 20
-23.3261293934923
 10
91.34263198942347
 20
-23.31020163986136
 10
91.34281053695429
 20
-23.29636101255506
 10
91.34606709722802
 20
-23.2833771723739
 10
91.3516344038858
 20
-23.26667343290722
 10
91.35634102231117
 20
-23.23874430955084
 10
91.3605295238082
 20
-23.2176355182843
 10
91.36923534635362
 20
-23.17557852143666
 10
91.37890404968846
 20
-23.11508150088657
 10
91.38372612715312
 20
-23.08827241099741
 10
91.3927932257177
 20
-23.06052416987234
 10
91.40405551911329
 20
-23.04062514167483
 10
91.41755325665824
 20
-23.02589423529858
 10
91.43671098753248
 20
-23.01414297548165
 10
91.45292426973771
 20
-23.0055601253916
 10
91.4653692632024
 20
-23.00070726158402
 10
91.46798748686743
 20
-22.99598329681872
  0
LWPOLYLINE
  5
33
330
17
100
AcDbEntity
  8
0-cortes
 62
251
100
AcDbPolyline
 90
21
 70
0
 10
91.43573315819938
 20
-23.47868705618053
 10
91.42745067313189
 20
-23.47640641801543
 10
91.41565411613601
 20
-23.47388888120384
 10
91.41111179362525
 20
-23.4703610025232
 10
91.4111179110489
 20
-23.46707194634315
 10
91.4111339544091
 20
-23.45844617254753
 10
91.41765988838011
 20
-23.43190900821015
 10
91.42075807420011
 20
-23.4193104948606
 10
91.42336638530196
 20
-23.40870401605484
 10
91.42640813938868
 20
-23.39633497762573
 10
91.43028717298239
 20
-23.38592394208455
 10
91.43511814173995
 20
-23.3859329273621
 10
91.43894881027586
 20
-23.39290212511187
 10
91.44062779243498
 20
-23.40654783941106
 10
91.4406117847796
 20
-23.41515441637993
 10
91.43942428646344
 20
-23.42164715629556
 10
91.43859257482858
 20
-23.4327606100452
 10
91.43794127737485
 20
-23.44798893328263
 10
91.43897464374488
 20
-23.46748849894996
 10
91.43806599665669
 20
-23.47572867471518
 10
91.43573315819938
 20
-23.47868705618053
  0
LWPOLYLINE
  5
34
330
17
100
AcDbEntity
  8
0-cortes
 62
251
100
AcDbPolyline
 90
29
 70
0
 10
91.76087970871163
 20
-23.76872335307457
 10
91.755550143555
 20
-23.74608030434667
 10
91.7495170962205
 20
-23.72880467808637
 10
91.74801721636729
 20
-23.70733976274951
 10
91.73952618823577
 20
-23.69078904672026
 10
91.73615045942908
 20
-23.66672906196154
 10
91.73321996885699
 20
-23.64584244382943
 10
91.72682364121758
 20
-23.62556637540978
 10
91.7214058816917
 20
-23.60610344781439
 10
91.72057666399529
 20
-23.59059721546072
 10
91.71744952984409
 20
-23.57191282293299
 10
91.70891226589015
 20
-23.56126186582722
 10
91.71140691822339
 20
-23.55345976948591
 10
91.71472174493837
 20
-23.54706697072034
 10
91.71609472751649
 20
-23.54196315100723
 10
91.7203471349112
 20
-23.54337243334158
 10
91.7228713159179
 20
-23.55129264676589
 10
91.72891691243377
 20
-23.57026213213747
 10
91.73501638587538
 20
-23.58940066907457
 10
91.74684889914349
 20
-23.62768328438427
 10
91.75573001471518
 20
-23.65641702194712
 10
91.76332467866942
 20
-23.68019823194578
 10
91.76916424386329
 20
-23.70038502701734
 10
91.7737652566708
 20
-23.716595761746
 10
91.77525802856837
 20
-23.72924289130321
 10
91.77560377029903
 20
-23.73926431217251
 10
91.77224607591322
 20
-23.7497459692809
 10
91.7675264555399
 20
-23.75938682899722
 10
91.76087970871163
 20
-23.76872335307457
  0
LWPOLYLINE
  5
35
330
17
100
AcDbEntity
  8
0-cortes
 62
251
100
AcDbPolyline
 90
15
 70
0
 10
91.7899680118441
 20
-23.69270626876919
 10
91.77773772837674
 20
-23.68955442780817
 10
91.77777361170816
 20
-23.67026161772459
 10
91.78018853171152
 20
-23.66108999476539
 10
91.78185125587243
 20
-23.65477513585995
 10
91.78670053620733
 20
-23.64836176909185
 10
91.79194290133108
 20
-23.64837151953903
 10
91.7946993022914
 20
-23.65151213867903
 10
91.79650902514553
 20
-23.65806164493712
 10
91.79901579021748
 20
-23.66713379291234
 10
91.80207783477873
 20
-23.67821553394862
 10
91.80491681727374
 20
-23.68144629983521
 10
91.80060300411559
 20
-23.68777325091105
 10
91.79542560603346
 20
-23.69075193754312
 10
91.7899680118441
 20
-23.69270626876919
  0
LWPOLYLINE
  5
36
330
17
100
AcDbEntity
  8
0-cortes
 62
251
100
AcDbPolyline
 90
15
 70
0
 10
91.78627061271773
 20
-23.89847088108239
 10
91.79813569785856
 20
-23.71879083994469
 10
91.80409506807788
 20
-23.71880192397321
 10
91.8081816196503
 20
-23.72090838491618
 10
91.82583735917592
 20
-23.7773032993806
 10
91.85177583529622
 20
-23.899040643887
 10
91.84588412188246
 20
-23.90057183604861
 10
91.83788723527707
 20
-23.90265013979962
 10
91.8356698000245
 20
-23.91315879741297
 10
91.83322243815414
 20
-23.92081380553699
 10
91.82775085228062
 20
-23.92397111599396
 10
91.82316911356375
 20
-23.92267640247977
 10
91.80964630314688
 20
-23.91296961824592
 10
91.79244152980714
 20
-23.90481733305349
 10
91.78627061271773
 20
-23.89847088108239
  0
LWPOLYLINE
  5
37
330
17
100
AcDbEntity
  8
0
 62
8
100
AcDbPolyline
 90
6
 70
0
 10
94.72556195604878
 20
-24.17917624852954
 10
94.25534437789238
 20
-24.17917624852954
 10
94.25534437789238
 20
-24.42057947372224
 10
94.1492783607144
 20
-24.31451345654427
 10
94.25534437789238
 20
-24.42057947372224
 10
94.36494592897631
 20
-24.31097792263831
  0
LINE
  5
38
330
17
100
AcDbEntity
  8
0
 62
8
100
AcDbLine
 10
93.84614699209294
 20
-23.52057947372224
 30
0.0
 11
94.93887490390685
 21
-23.52057947372224
 31
0.0
  0
LWPOLYLINE
  5
39
330
17
100
AcDbEntity
  8
0
 62
8
100
AcDbPolyline
 90
6
 70
0
 10
94.72556195604878
 20
-23.27917624852954
 10
94.25534437789238
 20
-23.27917624852954
 10
94.25534437789238
 20
-23.52057947372224
 10
94.1492783607144
 20
-23.41451345654427
 10
94.25534437789238
 20
-23.52057947372224
 10
94.36494592897631
 20
-23.41097792263831
  0
LINE
  5
3A
330
17
100
AcDbEntity
  8
0
 62
8
100
AcDbLine
 10
93.84614699209294
 20
-21.82352319887453
 30
0.0
 11
94.93887490390685
 21
-21.82352319887452
 31
0.0
  0
LWPOLYLINE
  5
3B
330
17
100
AcDbEntity
  8
0
 62
8
100
AcDbPolyline
 90
6
 70
0
 10
94.72556195604878
 20
-21.58211997368182
 10
94.25534437789238
 20
-21.58211997368182
 10
94.25534437789238
 20
-21.82352319887452
 10
94.1492783607144
 20
-21.71745718169656
 10
94.25534437789238
 20
-21.82352319887452
 10
94.36494592897631
 20
-21.7139216477906
  0
LINE
  5
3C
330
17
100
AcDbEntity
  8
0
 62
11
100
AcDbLine
 10
93.61070276303003
 20
-25.74303648887212
 30
0.0
 11
92.37090396477825
 21
-25.74303648887219
 31
0.0
  0
LINE
  5
3D
330
17
100
AcDbEntity
  8
0
 62
11
100
AcDbLine
 10
93.61070276303035
 20
-25.74603648887246
 30
0.0
 11
92.37090396477801
 21
-25.74603648887241
 31
0.0
  0
LINE
  5
3E
330
17
100
AcDbEntity
  8
0
 62
11
100
AcDbLine
 10
93.61070276303018
 20
-25.74903648887229
 30
0.0
 11
92.37066828443317
 21
-25.7490364888722
 31
0.0
  0
LINE
  5
3F
330
17
100
AcDbEntity
  8
0
 62
11
100
AcDbLine
 10
93.61070276303037
 20
-25.76103648887229
 30
0.0
 11
92.37066828443301
 21
-25.7610364888722
 31
0.0
  0
LINE
  5
40
330
17
100
AcDbEntity
  8
0
 62
11
100
AcDbLine
 10
93.61070276303055
 20
-25.76503648887247
 30
0.0
 11
92.3709039647779
 21
-25.7650364888724
 31
0.0
  0
LINE
  5
41
330
17
100
AcDbEntity
  8
0
  6
CONTINUOUS
 62
8
 48
100.0
100
AcDbLine
 10
93.61070276303055
 20
-25.76558648887247
 30
0.0
 11
92.3704039647782
 21
-25.7655864888724
 31
0.0
  0
LINE
  5
42
330
17
100
AcDbEntity
  8
0
 62
11
100
AcDbLine
 10
93.61070276303018
 20
-25.76903648887213
 30
0.0
 11
92.37090396477836
 21
-25.7690364888722
 31
0.0
  0
LINE
  5
43
330
17
100
AcDbEntity
  8
0
 62
11
100
AcDbLine
 10
93.61120276303019
 20
-25.76153648887212
 30
0.0
 11
93.61120276303019
 21
-25.76453648887213
 31
0.0
  0
LINE
  5
44
330
17
100
AcDbEntity
  8
0
 62
11
100
AcDbLine
 10
93.61120276303019
 20
-25.76553648887213
 30
0.0
 11
93.61120276303019
 21
-25.76853648887212
 31
0.0
  0
LINE
  5
45
330
17
100
AcDbEntity
  8
0
 62
11
100
AcDbLine
 10
93.61070276303018
 20
-25.76903648887213
 30
0.0
 11
93.61120276303019
 21
-25.76853648887212
 31
0.0
  0
LINE
  5
46
330
17
100
AcDbEntity
  8
0
 62
11
100
AcDbLine
 10
93.61070276303018
 20
-25.76103648887212
 30
0.0
 11
93.61120276303019
 21
-25.76153648887212
 31
0.0
  0
LINE
  5
47
330
17
100
AcDbEntity
  8
0
 62
11
100
AcDbLine
 10
93.61070276303018
 20
-25.76503648887213
 30
0.0
 11
93.61120276303019
 21
-25.76553648887213
 31
0.0
  0
LINE
  5
48
330
17
100
AcDbEntity
  8
0
 62
11
100
AcDbLine
 10
93.61070276303018
 20
-25.76503648887213
 30
0.0
 11
93.61120276303019
 21
-25.76453648887213
 31
0.0
  0
LINE
  5
49
330
17
100
AcDbEntity
  8
0
 62
11
100
AcDbLine
 10
93.61120276303019
 20
-25.7435364888723
 30
0.0
 11
93.61120276303019
 21
-25.74553648887229
 31
0.0
  0
LINE
  5
4A
330
17
100
AcDbEntity
  8
0
 62
11
100
AcDbLine
 10
93.61120276303019
 20
-25.7465364888723
 30
0.0
 11
93.61120276303019
 21
-25.74853648887231
 31
0.0
  0
LINE
  5
4B
330
17
100
AcDbEntity
  8
0
 62
11
100
AcDbLine
 10
93.6107027630302
 20
-25.74603648887229
 30
0.0
 11
93.61120276303019
 21
-25.7465364888723
 31
0.0
  0
LINE
  5
4C
330
17
100
AcDbEntity
  8
0
 62
11
100
AcDbLine
 10
93.6107027630302
 20
-25.74603648887229
 30
0.0
 11
93.61120276303019
 21
-25.74553648887229
 31
0.0
  0
LINE
  5
4D
330
17
100
AcDbEntity
  8
0
 62
11
100
AcDbLine
 10
93.61070276303018
 20
-25.74903648887229
 30
0.0
 11
93.61120276303019
 21
-25.74853648887231
 31
0.0
  0
LINE
  5
4E
330
17
100
AcDbEntity
  8
0
 62
11
100
AcDbLine
 10
93.61070276303018
 20
-25.74303648887229
 30
0.0
 11
93.61120276303019
 21
-25.7435364888723
 31
0.0
  0
LINE
  5
4F
330
17
100
AcDbEntity
  8
0
 62
11
100
AcDbLine
 10
93.61070276303018
 20
-25.76103648887212
 30
0.0
 11
93.61120276303019
 21
-25.76153648887212
 31
0.0
  0
LINE
  5
50
330
17
100
AcDbEntity
  8
0
 62
11
100
AcDbLine
 10
93.61070276303018
 20
-25.74903648887229
 30
0.0
 11
93.61120276303019
 21
-25.74853648887231
 31
0.0
  0
LINE
  5
51
330
17
100
AcDbEntity
  8
0
 62
11
100
AcDbLine
 10
93.61070276303018
 20
-25.76103648887212
 30
0.0
 11
93.61120276303019
 21
-25.76153648887212
 31
0.0
  0
LINE
  5
52
330
17
100
AcDbEntity
  8
0
 62
8
100
AcDbLine
 10
93.59851726596371
 20
-25.76103648887212
 30
0.0
 11
93.59851726596371
 21
-25.74903648887212
 31
0.0
  0
LWPOLYLINE
  5
53
330
17
100
AcDbEntity
  8
0
 62
8
100
AcDbPolyline
 90
6
 70
1
 10
93.59851726596371
 20
-25.75003648887213
 10
93.59851726596371
 20
-25.76003648887212
 10
93.6035172659637
 20
-25.76003648887212
 10
93.60651726596369
 20
-25.75653648887213
 10
93.60651726596369
 20
-25.75353648887213
 10
93.6035172659637
 20
-25.75003648887213
  0
LWPOLYLINE
  5
54
330
17
100
AcDbEntity
  8
0
 62
8
100
AcDbPolyline
 90
6
 70
1
 10
93.5990172659637
 20
-25.75053648887213
 10
93.5990172659637
 20
-25.75953648887213
 10
93.60336587814483
 20
-25.75953648887213
 10
93.60601726596369
 20
-25.75626889699288
 10
93.60601726596369
 20
-25.75380408075137
 10
93.60336587814483
 20
-25.75053648887213
  0
LINE
  5
55
330
17
100
AcDbEntity
  8
0
 62
11
100
AcDbLine
 10
93.61070276303018
 20
-25.74903648887212
 30
0.0
 11
93.61120276303019
 21
-25.74853648887212
 31
0.0
  0
ARC
  5
56
330
17
100
AcDbEntity
  8
0
 62
8
100
AcDbCircle
 10
93.62289340919703
 20
-25.75503648887212
 30
0.0
 40
0.0133761432333217
100
AcDbArc
 50
150.9259378909694
 51
209.0740621090173
  0
LINE
  5
57
330
17
100
AcDbEntity
  8
0
 62
8
100
AcDbLine
 10
93.6035172659637
 20
-25.75003648887213
 30
0.0
 11
93.6035172659637
 21
-25.74903648887212
 31
0.0
  0
LINE
  5
58
330
17
100
AcDbEntity
  8
0
 62
8
100
AcDbLine
 10
93.6035172659637
 20
-25.76003648887212
 30
0.0
 11
93.6035172659637
 21
-25.76103648887212
 31
0.0
  0
LWPOLYLINE
  5
59
330
17
100
AcDbEntity
  8
0
 62
11
100
AcDbPolyline
 90
21
 70
1
 10
93.54700302181482
 20
-25.66298648887229
 42
-0.3642142242882249
 10
93.54749550032714
 20
-25.66340008913329
 10
93.54792293887785
 20
-25.66583648887229
 10
93.54792293887785
 20
-25.6678364888723
 10
93.55042293887784
 20
-25.6678364888723
 10
93.55042293887784
 20
-25.66688648887229
 42
-0.4142135623731395
 10
93.55117293887785
 20
-25.6661364888723
 42
-0.4142135623730507
 10
93.55192293887784
 20
-25.66688648887229
 10
93.55192293887784
 20
-25.66933648887229
 10
93.54792293887785
 20
-25.66933648887229
 10
93.54792293887785
 20
-25.71983648887229
 10
93.55392293887785
 20
-25.71983648887229
 42
-0.8252846317787602
 10
93.5541091952281
 20
-25.72080050241949
 10
93.55083469268801
 20
-25.72231489700062
 42
-0.530985777794659
 10
93.55042293887784
 20
-25.72203648887229
 10
93.55042293887784
 20
-25.7213364888723
 10
93.54792293887785
 20
-25.7213364888723
 10
93.54792293887785
 20
-25.72528648887228
 10
93.54642293887785
 20
-25.72528648887228
 10
93.54642293887785
 20
-25.6634864888723
 42
-0.4142135623730951
 10
93.54692293887786
 20
-25.66298648887229
  0
LWPOLYLINE
  5
5B
330
17
100
AcDbEntity
  8
0-TEXTO
  6
CONTINUOUS
 48
5.0
100
AcDbPolyline
 90
8
 70
1
 10
93.3695144155562
 20
-25.8194542066698
 10
93.3695144155562
 20
-25.55645264931755
 42
-0.4142135623730951
 10
93.44451441667378
 20
-25.4814526492477
 10
93.71302343490869
 20
-25.4814526492477
 42
-0.4142135623730951
 10
93.78802343602626
 20
-25.55645264931755
 10
93.78802343602626
 20
-25.8194542066698
 42
-0.4142135623730951
 10
93.71302343490869
 20
-25.89445420665234
 10
93.44451441667378
 20
-25.89445420665234
 42
-0.4142135623730951
  0
CIRCLE
  5
5D
330
17
100
AcDbEntity
  8
0-TEXTO DETALLE
100
AcDbCircle
 10
93.59230296037582
 20
-25.6760621313561
 30
0.0
 40
0.0008966570603802
  0
LINE
  5
5E
330
17
100
AcDbEntity
  8
0
 62
251
100
AcDbLine
 10
93.57911180484568
 20
-25.738504449824912
 30
0.0
 11
93.57842604673682
 21
-25.738504449824912
 31
0.0
  0
LINE
  5
5F
330
17
100
AcDbEntity
  8
0
 62
251
100
AcDbLine
 10
93.58076892579125
 20
-25.736504449824853
 30
0.0
 11
93.57676892579126
 21
-25.736504449824853
 31
0.0
  0
LINE
  5
60
330
17
100
AcDbEntity
  8
0
 62
251
100
AcDbLine
 10
93.58076892579126
 20
-25.716141387208353
 30
0.0
 11
93.58076892579125
 21
-25.736504449824853
 31
0.0
  0
LINE
  5
61
330
17
100
AcDbEntity
  8
0
 62
251
100
AcDbLine
 10
93.57676892579137
 20
-25.716141387208634
 30
0.0
 11
93.57676892579126
 21
-25.736504449824853
 31
0.0
  0
LINE
  5
62
330
17
100
AcDbEntity
  8
0
 62
251
100
AcDbLine
 10
93.58076892579125
 20
-25.736504449824853
 30
0.0
 11
93.58376892579126
 21
-25.738504449824802
 31
0.0
  0
LINE
  5
63
330
17
100
AcDbEntity
  8
0
 62
251
100
AcDbLine
 10
93.57676892579126
 20
-25.736504449824853
 30
0.0
 11
93.57376892579124
 21
-25.738504449824802
 31
0.0
  0
LINE
  5
64
330
17
100
AcDbEntity
  8
0
 62
251
100
AcDbLine
 10
93.57876892579138
 20
-25.711852373367634
 30
0.0
 11
93.57676892579137
 21
-25.716141387208634
 31
0.0
  0
LINE
  5
65
330
17
100
AcDbEntity
  8
0
 62
251
100
AcDbLine
 10
93.57876892579138
 20
-25.711852373367634
 30
0.0
 11
93.58076892579136
 21
-25.716141387208584
 31
0.0
  0
LINE
  5
66
330
17
100
AcDbEntity
  8
0
 62
251
100
AcDbLine
 10
93.58126892579126
 20
-25.731061074151853
 30
0.0
 11
93.57626892579127
 21
-25.73394782549781
 31
0.0
  0
LINE
  5
67
330
17
100
AcDbEntity
  8
0
 62
251
100
AcDbLine
 10
93.58126892579126
 20
-25.729061074151844
 30
0.0
 11
93.57626892579127
 21
-25.7319478254978
 31
0.0
  0
LINE
  5
68
330
17
100
AcDbEntity
  8
0
 62
251
100
AcDbLine
 10
93.58126892579126
 20
-25.733061074151863
 30
0.0
 11
93.57626892579127
 21
-25.73594782549782
 31
0.0
  0
ARC
  5
69
330
17
100
AcDbEntity
  8
0
 62
251
100
AcDbCircle
 10
93.57876892579111
 20
-25.71559606586004
 30
0.0
 40
0.0234476876445912
100
AcDbArc
 50
-102.31233016112002
 51
-90.83787464319441
  0
ARC
  5
6A
330
17
100
AcDbEntity
  8
0
 62
251
100
AcDbCircle
 10
93.57876892579111
 20
-25.71559606586004
 30
0.0
 40
0.0234476876445912
100
AcDbArc
 50
-89.16212535632039
 51
-77.68766983823993
  0
LINE
  5
6B
330
17
100
AcDbEntity
  8
0
 62
251
100
AcDbLine
 10
93.57842604673682
 20
-25.738504449824802
 30
0.0
 11
93.57842604673682
 21
-25.73904375350463
 31
0.0
  0
LINE
  5
6C
330
17
100
AcDbEntity
  8
0
 62
251
100
AcDbLine
 10
93.57911180484567
 20
-25.738504449824802
 30
0.0
 11
93.57911180484567
 21
-25.73904375350463
 31
0.0
  0
LINE
  5
6D
330
17
100
AcDbEntity
  8
0
 62
251
100
AcDbLine
 10
93.58126892579126
 20
-25.727061074151834
 30
0.0
 11
93.57626892579127
 21
-25.729947825497792
 31
0.0
  0
LINE
  5
6E
330
17
100
AcDbEntity
  8
0
 62
251
100
AcDbLine
 10
93.58126892579126
 20
-25.72506107415183
 30
0.0
 11
93.57626892579127
 21
-25.727947825497782
 31
0.0
  0
LINE
  5
6F
330
17
100
AcDbEntity
  8
0
 62
251
100
AcDbLine
 10
93.58126892579126
 20
-25.72306107415181
 30
0.0
 11
93.57626892579127
 21
-25.725947825497773
 31
0.0
  0
LINE
  5
70
330
17
100
AcDbEntity
  8
0
 62
251
100
AcDbLine
 10
93.58126892579126
 20
-25.721061074151812
 30
0.0
 11
93.57626892579127
 21
-25.723947825497763
 31
0.0
  0
LINE
  5
71
330
17
100
AcDbEntity
  8
0
 62
251
100
AcDbLine
 10
93.58126892579126
 20
-25.719061074151792
 30
0.0
 11
93.57626892579127
 21
-25.721947825497754
 31
0.0
  0
LINE
  5
72
330
17
100
AcDbEntity
  8
0
 62
251
100
AcDbLine
 10
93.58126892579126
 20
-25.717061074151793
 30
0.0
 11
93.57626892579127
 21
-25.71994782549774
 31
0.0
  0
LINE
  5
73
330
17
100
AcDbEntity
  8
0
 62
8
100
AcDbLine
 10
93.57083508855231
 20
-25.73653648887229
 30
0.0
 11
93.57083508855231
 21
-25.73613471794522
 31
0.0
  0
LINE
  5
74
330
17
100
AcDbEntity
  8
0
 62
8
100
AcDbLine
 10
93.58683508855232
 20
-25.73653648887229
 30
0.0
 11
93.58683508855232
 21
-25.73613471794522
 31
0.0
  0
LINE
  5
75
330
17
100
AcDbEntity
  8
0
 62
11
100
AcDbLine
 10
91.1161439257912
 20
-25.76153648887212
 30
0.0
 11
91.1161439257912
 21
-25.76453648887212
 31
0.0
  0
LINE
  5
76
330
17
100
AcDbEntity
  8
0
 62
11
100
AcDbLine
 10
91.1161439257912
 20
-25.76553648887213
 30
0.0
 11
91.1161439257912
 21
-25.76853648887211
 31
0.0
  0
LINE
  5
77
330
17
100
AcDbEntity
  8
0
 62
11
100
AcDbLine
 10
91.11664392579122
 20
-25.76903648887213
 30
0.0
 11
91.1161439257912
 21
-25.76853648887211
 31
0.0
  0
LINE
  5
78
330
17
100
AcDbEntity
  8
0
 62
11
100
AcDbLine
 10
91.11664392579122
 20
-25.76103648887212
 30
0.0
 11
91.1161439257912
 21
-25.76153648887212
 31
0.0
  0
LINE
  5
79
330
17
100
AcDbEntity
  8
0
 62
11
100
AcDbLine
 10
91.11664392579122
 20
-25.76503648887213
 30
0.0
 11
91.1161439257912
 21
-25.76553648887213
 31
0.0
  0
LINE
  5
7A
330
17
100
AcDbEntity
  8
0
 62
11
100
AcDbLine
 10
91.11664392579122
 20
-25.76503648887213
 30
0.0
 11
91.1161439257912
 21
-25.76453648887212
 31
0.0
  0
LINE
  5
7B
330
17
100
AcDbEntity
  8
0
 62
11
100
AcDbLine
 10
91.1161439257912
 20
-25.74353648887229
 30
0.0
 11
91.1161439257912
 21
-25.74553648887229
 31
0.0
  0
LINE
  5
7C
330
17
100
AcDbEntity
  8
0
 62
11
100
AcDbLine
 10
91.1161439257912
 20
-25.74653648887229
 30
0.0
 11
91.1161439257912
 21
-25.7485364888723
 31
0.0
  0
LINE
  5
7D
330
17
100
AcDbEntity
  8
0
 62
11
100
AcDbLine
 10
91.1166439257912
 20
-25.74603648887229
 30
0.0
 11
91.1161439257912
 21
-25.74653648887229
 31
0.0
  0
LINE
  5
7E
330
17
100
AcDbEntity
  8
0
 62
11
100
AcDbLine
 10
91.1166439257912
 20
-25.74603648887229
 30
0.0
 11
91.1161439257912
 21
-25.74553648887229
 31
0.0
  0
LINE
  5
7F
330
17
100
AcDbEntity
  8
0
 62
11
100
AcDbLine
 10
91.11664392579122
 20
-25.74903648887229
 30
0.0
 11
91.1161439257912
 21
-25.7485364888723
 31
0.0
  0
LINE
  5
80
330
17
100
AcDbEntity
  8
0
 62
11
100
AcDbLine
 10
91.11664392579122
 20
-25.74303648887229
 30
0.0
 11
91.1161439257912
 21
-25.74353648887229
 31
0.0
  0
LINE
  5
81
330
17
100
AcDbEntity
  8
0
 62
11
100
AcDbLine
 10
91.11664392579122
 20
-25.76103648887212
 30
0.0
 11
91.1161439257912
 21
-25.76153648887212
 31
0.0
  0
LINE
  5
82
330
17
100
AcDbEntity
  8
0
 62
11
100
AcDbLine
 10
91.11664392579122
 20
-25.74903648887229
 30
0.0
 11
91.1161439257912
 21
-25.7485364888723
 31
0.0
  0
LINE
  5
83
330
17
100
AcDbEntity
  8
0
 62
11
100
AcDbLine
 10
91.11664392579122
 20
-25.76103648887212
 30
0.0
 11
91.1161439257912
 21
-25.76153648887212
 31
0.0
  0
LINE
  5
84
330
17
100
AcDbEntity
  8
0
 62
8
100
AcDbLine
 10
91.1288294228577
 20
-25.76103648887212
 30
0.0
 11
91.1288294228577
 21
-25.74903648887212
 31
0.0
  0
LWPOLYLINE
  5
85
330
17
100
AcDbEntity
  8
0
 62
8
100
AcDbPolyline
 90
6
 70
1
 10
91.1288294228577
 20
-25.75003648887213
 10
91.1288294228577
 20
-25.76003648887212
 10
91.1238294228577
 20
-25.76003648887212
 10
91.12082942285772
 20
-25.75653648887213
 10
91.12082942285772
 20
-25.75353648887213
 10
91.1238294228577
 20
-25.75003648887213
  0
LWPOLYLINE
  5
86
330
17
100
AcDbEntity
  8
0
 62
8
100
AcDbPolyline
 90
6
 70
1
 10
91.1283294228577
 20
-25.75053648887213
 10
91.1283294228577
 20
-25.75953648887213
 10
91.12398081067658
 20
-25.75953648887213
 10
91.1213294228577
 20
-25.75626889699288
 10
91.1213294228577
 20
-25.75380408075136
 10
91.12398081067658
 20
-25.75053648887213
  0
LINE
  5
87
330
17
100
AcDbEntity
  8
0
 62
11
100
AcDbLine
 10
91.11664392579122
 20
-25.74903648887212
 30
0.0
 11
91.1161439257912
 21
-25.74853648887212
 31
0.0
  0
ARC
  5
88
330
17
100
AcDbEntity
  8
0
 62
8
100
AcDbCircle
 10
91.10445327962437
 20
-25.75503648887212
 30
0.0
 40
0.0133761432333217
100
AcDbArc
 50
330.9259378909823
 51
29.07406210903018
  0
LINE
  5
89
330
17
100
AcDbEntity
  8
0
 62
8
100
AcDbLine
 10
91.1238294228577
 20
-25.75003648887213
 30
0.0
 11
91.1238294228577
 21
-25.74903648887212
 31
0.0
  0
LINE
  5
8A
330
17
100
AcDbEntity
  8
0
 62
8
100
AcDbLine
 10
91.1238294228577
 20
-25.76003648887212
 30
0.0
 11
91.1238294228577
 21
-25.76103648887212
 31
0.0
  0
LWPOLYLINE
  5
8B
330
17
100
AcDbEntity
  8
0
 62
11
100
AcDbPolyline
 90
21
 70
1
 10
91.18018151733217
 20
-25.66298648887229
 42
0.3642142242882249
 10
91.17968903881983
 20
-25.66340008913329
 10
91.17926160026913
 20
-25.66583648887228
 10
91.17926160026913
 20
-25.66783648887229
 10
91.17676160026913
 20
-25.66783648887229
 10
91.17676160026913
 20
-25.66688648887229
 42
0.4142135623731395
 10
91.17601160026913
 20
-25.66613648887229
 42
0.4142135623730507
 10
91.17526160026914
 20
-25.66688648887229
 10
91.17526160026914
 20
-25.66933648887229
 10
91.17926160026913
 20
-25.66933648887229
 10
91.17926160026913
 20
-25.71983648887229
 10
91.17326160026911
 20
-25.71983648887229
 42
0.8252846317787602
 10
91.1730753439189
 20
-25.72080050241949
 10
91.17634984645899
 20
-25.72231489700061
 42
0.530985777794659
 10
91.17676160026913
 20
-25.72203648887229
 10
91.17676160026913
 20
-25.72133648887229
 10
91.17926160026913
 20
-25.72133648887229
 10
91.17926160026913
 20
-25.72528648887228
 10
91.18076160026914
 20
-25.72528648887228
 10
91.18076160026914
 20
-25.66348648887229
 42
0.4142135623730951
 10
91.18026160026913
 20
-25.66298648887229
  0
LINE
  5
8C
330
17
100
AcDbEntity
  8
0
 62
251
100
AcDbLine
 10
91.14823488397579
 20
-25.73850444982491
 30
0.0
 11
91.14892064208465
 21
-25.73850444982491
 31
0.0
  0
LINE
  5
8D
330
17
100
AcDbEntity
  8
0
 62
251
100
AcDbLine
 10
91.14657776303021
 20
-25.73650444982485
 30
0.0
 11
91.1505777630302
 21
-25.73650444982485
 31
0.0
  0
LINE
  5
8E
330
17
100
AcDbEntity
  8
0
 62
251
100
AcDbLine
 10
91.1465777630302
 20
-25.71614138720835
 30
0.0
 11
91.14657776303021
 21
-25.73650444982485
 31
0.0
  0
LINE
  5
8F
330
17
100
AcDbEntity
  8
0
 62
251
100
AcDbLine
 10
91.15057776303009
 20
-25.71614138720863
 30
0.0
 11
91.1505777630302
 21
-25.73650444982485
 31
0.0
  0
LINE
  5
90
330
17
100
AcDbEntity
  8
0
 62
251
100
AcDbLine
 10
91.14657776303021
 20
-25.73650444982485
 30
0.0
 11
91.14357776303021
 21
-25.7385044498248
 31
0.0
  0
LINE
  5
91
330
17
100
AcDbEntity
  8
0
 62
251
100
AcDbLine
 10
91.1505777630302
 20
-25.73650444982485
 30
0.0
 11
91.15357776303023
 21
-25.7385044498248
 31
0.0
  0
LINE
  5
92
330
17
100
AcDbEntity
  8
0
 62
251
100
AcDbLine
 10
91.14857776303008
 20
-25.71185237336763
 30
0.0
 11
91.15057776303009
 21
-25.71614138720863
 31
0.0
  0
LINE
  5
93
330
17
100
AcDbEntity
  8
0
 62
251
100
AcDbLine
 10
91.14857776303008
 20
-25.71185237336763
 30
0.0
 11
91.14657776303011
 21
-25.71614138720858
 31
0.0
  0
LINE
  5
94
330
17
100
AcDbEntity
  8
0
 62
251
100
AcDbLine
 10
91.14607776303019
 20
-25.73106107415185
 30
0.0
 11
91.15107776303019
 21
-25.733947825497808
 31
0.0
  0
LINE
  5
95
330
17
100
AcDbEntity
  8
0
 62
251
100
AcDbLine
 10
91.14607776303019
 20
-25.72906107415184
 30
0.0
 11
91.15107776303019
 21
-25.731947825497798
 31
0.0
  0
LINE
  5
96
330
17
100
AcDbEntity
  8
0
 62
251
100
AcDbLine
 10
91.14607776303019
 20
-25.73306107415186
 30
0.0
 11
91.15107776303019
 21
-25.735947825497817
 31
0.0
  0
ARC
  5
97
330
17
100
AcDbEntity
  8
0
 62
251
100
AcDbCircle
 10
-91.14857776303035
 20
-25.715596065860037
 30
0.0
 40
0.0234476876445912
210
0.0
220
0.0
230
-1.0
100
AcDbArc
 50
-102.31233016112
 51
-90.8378746431944
  0
ARC
  5
98
330
17
100
AcDbEntity
  8
0
 62
251
100
AcDbCircle
 10
-91.14857776303035
 20
-25.715596065860037
 30
0.0
 40
0.0234476876445912
210
0.0
220
0.0
230
-1.0
100
AcDbArc
 50
-89.16212535632037
 51
-77.68766983823991
  0
LINE
  5
99
330
17
100
AcDbEntity
  8
0
 62
251
100
AcDbLine
 10
91.14892064208465
 20
-25.7385044498248
 30
0.0
 11
91.14892064208465
 21
-25.739043753504628
 31
0.0
  0
LINE
  5
9A
330
17
100
AcDbEntity
  8
0
 62
251
100
AcDbLine
 10
91.1482348839758
 20
-25.7385044498248
 30
0.0
 11
91.1482348839758
 21
-25.739043753504628
 31
0.0
  0
LINE
  5
9B
330
17
100
AcDbEntity
  8
0
 62
251
100
AcDbLine
 10
91.14607776303019
 20
-25.72706107415183
 30
0.0
 11
91.15107776303019
 21
-25.72994782549779
 31
0.0
  0
LINE
  5
9C
330
17
100
AcDbEntity
  8
0
 62
251
100
AcDbLine
 10
91.14607776303019
 20
-25.725061074151828
 30
0.0
 11
91.15107776303019
 21
-25.72794782549778
 31
0.0
  0
LINE
  5
9D
330
17
100
AcDbEntity
  8
0
 62
251
100
AcDbLine
 10
91.14607776303019
 20
-25.723061074151808
 30
0.0
 11
91.15107776303019
 21
-25.72594782549777
 31
0.0
  0
LINE
  5
9E
330
17
100
AcDbEntity
  8
0
 62
251
100
AcDbLine
 10
91.14607776303019
 20
-25.72106107415181
 30
0.0
 11
91.15107776303019
 21
-25.72394782549776
 31
0.0
  0
LINE
  5
9F
330
17
100
AcDbEntity
  8
0
 62
251
100
AcDbLine
 10
91.14607776303019
 20
-25.71906107415179
 30
0.0
 11
91.15107776303019
 21
-25.72194782549775
 31
0.0
  0
LINE
  5
A0
330
17
100
AcDbEntity
  8
0
 62
251
100
AcDbLine
 10
91.14607776303019
 20
-25.71706107415179
 30
0.0
 11
91.15107776303019
 21
-25.719947825497737
 31
0.0
  0
LINE
  5
A1
330
17
100
AcDbEntity
  8
0
 62
8
100
AcDbLine
 10
91.16910007319402
 20
-25.74303648887212
 30
0.0
 11
91.16910007319402
 21
-25.74183648887229
 31
0.0
  0
LINE
  5
A2
330
17
100
AcDbEntity
  8
0
 62
8
100
AcDbLine
 10
91.15651160026913
 20
-25.73653648887229
 30
0.0
 11
91.15651160026913
 21
-25.73613471794522
 31
0.0
  0
LINE
  5
A3
330
17
100
AcDbEntity
  8
0
 62
8
100
AcDbLine
 10
91.12805545286635
 20
-25.74303648887212
 30
0.0
 11
91.12805545286635
 21
-25.74183648887229
 31
0.0
  0
LINE
  5
A4
330
17
100
AcDbEntity
  8
0
 62
8
100
AcDbLine
 10
91.14051160026914
 20
-25.73653648887229
 30
0.0
 11
91.14051160026914
 21
-25.73613471794522
 31
0.0
  0
LINE
  5
A5
330
17
100
AcDbEntity
  8
0-TEXTO
 62
12
100
AcDbLine
 10
94.29989236359852
 20
-25.41944999690259
 30
0.0
 11
93.58582800468518
 21
-25.41944999690259
 31
0.0
  0
CIRCLE
  5
A6
330
17
100
AcDbEntity
  8
0-TEXTO
100
AcDbCircle
 10
93.58582800468518
 20
-25.6914864888723
 30
0.0
 40
0.0143465129660836
  0
LINE
  5
A7
330
17
100
AcDbEntity
  8
0-TEXTO
 62
12
100
AcDbLine
 10
93.58582800468518
 20
-25.6914864888723
 30
0.0
 11
93.58582800468518
 21
-25.41944999690259
 31
0.0
  0
LINE
  5
A8
330
17
100
AcDbEntity
  8
0-TEXTO DETALLE
 62
12
100
AcDbLine
 10
93.59230296037582
 20
-25.6760621313561
 30
0.0
 11
93.66218054141008
 21
-25.6760621313561
 31
0.0
  0
LINE
  5
A9
330
17
100
AcDbEntity
  8
0-TEXTO DETALLE
 62
12
100
AcDbLine
 10
93.59230296037582
 20
-25.70915249019771
 30
0.0
 11
93.66218054141008
 21
-25.70915249019771
 31
0.0
  0
LINE
  5
AA
330
17
100
AcDbEntity
  8
0-TEXTO DETALLE
 62
12
100
AcDbLine
 10
93.59230296037582
 20
-25.70915249019771
 30
0.0
 11
93.59230296037582
 21
-25.74603648887246
 31
0.0
  0
CIRCLE
  5
AB
330
17
100
AcDbEntity
  8
0-TEXTO DETALLE
100
AcDbCircle
 10
93.59230296037582
 20
-25.74603648887246
 30
0.0
 40
0.0008966570603802
  0
LINE
  5
AC
330
17
100
AcDbEntity
  8
0-TEXTO DETALLE
 62
12
100
AcDbLine
 10
93.59230296037582
 20
-25.77728256470442
 30
0.0
 11
93.66218054141008
 21
-25.77728256470442
 31
0.0
  0
LINE
  5
AD
330
17
100
AcDbEntity
  8
0-TEXTO DETALLE
 62
12
100
AcDbLine
 10
93.59230296037582
 20
-25.77728256470442
 30
0.0
 11
93.59230296037582
 21
-25.75573828305897
 31
0.0
  0
LINE
  5
AE
330
17
100
AcDbEntity
  8
0-TEXTO DETALLE
 62
12
100
AcDbLine
 10
93.57339021411838
 20
-25.80579284492461
 30
0.0
 11
93.66218054141008
 21
-25.80579284492461
 31
0.0
  0
LINE
  5
AF
330
17
100
AcDbEntity
  8
0-TEXTO DETALLE
 62
12
100
AcDbLine
 10
93.57339021411838
 20
-25.80579284492461
 30
0.0
 11
93.57339021411838
 21
-25.76558648887247
 31
0.0
  0
CIRCLE
  5
B0
330
17
100
AcDbEntity
  8
0-TEXTO DETALLE
100
AcDbCircle
 10
93.57339021411838
 20
-25.76558648887247
 30
0.0
 40
0.0008966570603802
  0
CIRCLE
  5
B1
330
17
100
AcDbEntity
  8
0-TEXTO DETALLE
100
AcDbCircle
 10
93.59230296037582
 20
-25.75573828305897
 30
0.0
 40
0.0008966570603802
  0
LINE
  5
B2
330
17
100
AcDbEntity
  8
0
 62
4
100
AcDbLine
 10
91.11097946818471
 20
-25.53956453092086
 30
0.0
 11
91.11097946818471
 21
-25.77443166964292
 31
0.0
  0
LINE
  5
B3
330
17
100
AcDbEntity
  8
0
 62
4
100
AcDbLine
 10
90.98616120421096
 20
-25.53956453092086
 30
0.0
 11
91.11097946818471
 21
-25.53956453092086
 31
0.0
  0
LINE
  5
B4
330
17
100
AcDbEntity
  8
0
 62
4
100
AcDbLine
 10
90.98616120421096
 20
-25.77443166964281
 30
0.0
 11
91.11097946818471
 21
-25.77443166964281
 31
0.0
  0
LINE
  5
B5
330
17
100
AcDbEntity
  8
0
 62
4
100
AcDbLine
 10
93.61636722063675
 20
-25.53956453092086
 30
0.0
 11
93.61636722063675
 21
-25.77443166964292
 31
0.0
  0
LINE
  5
B6
330
17
100
AcDbEntity
  8
0
 62
4
100
AcDbLine
 10
93.74118548461051
 20
-25.53956453092086
 30
0.0
 11
93.61636722063675
 21
-25.53956453092086
 31
0.0
  0
LINE
  5
B7
330
17
100
AcDbEntity
  8
0
 62
4
100
AcDbLine
 10
93.74118548461051
 20
-25.77443166964282
 30
0.0
 11
93.61636722063675
 21
-25.77443166964282
 31
0.0
  0
LWPOLYLINE
  5
B9
330
17
100
AcDbEntity
  8
0-VENTANAS
 62
8
100
AcDbPolyline
 90
4
 70
1
 10
91.11620276303019
 20
-21.83057947372482
 10
93.61120276303019
 20
-21.83057947372482
 10
93.61120276303019
 20
-23.52057947372224
 10
91.11620276303019
 20
-23.52057947372224
  0
LWPOLYLINE
  5
BA
330
17
100
AcDbEntity
  8
0-VENTANAS
 62
8
100
AcDbPolyline
 90
4
 70
1
 10
91.18120276303019
 20
-21.89557947372481
 10
93.5462027630302
 20
-21.89557947372481
 10
93.5462027630302
 20
-23.45557947372224
 10
91.18120276303019
 20
-23.45557947372224
  0
LINE
  5
BB
330
17
100
AcDbEntity
  8
0-VENTANAS
 62
8
100
AcDbLine
 10
92.33120276303019
 20
-21.89557947372481
 30
0.0
 11
92.33120276303019
 21
-23.45557947372224
 31
0.0
  0
LINE
  5
BC
330
17
100
AcDbEntity
  8
0-VENTANAS
 62
8
100
AcDbLine
 10
92.39620276303019
 20
-21.89557947372481
 30
0.0
 11
92.39620276303019
 21
-23.45557947372224
 31
0.0
  0
LINE
  5
BE
330
17
100
AcDbEntity
  8
0-COTAS REF
100
AcDbLine
 10
90.49120276303019
 20
-21.16557947372481
 30
0.0
 11
95.82120276303019
 21
-21.16557947372481
 31
0.0
  0
LINE
  5
BF
330
17
100
AcDbEntity
  8
0-COTAS REF
100
AcDbLine
 10
90.49120276303019
 20
-21.56557947372481
 30
0.0
 11
95.82120276303019
 21
-21.56557947372481
 31
0.0
  0
LINE
  5
C0
330
17
100
AcDbEntity
  8
0-COTAS REF
100
AcDbLine
 10
90.49120276303019
 20
-21.36557947372481
 30
0.0
 11
95.82120276303019
 21
-21.36557947372481
 31
0.0
  0
LINE
  5
C1
330
17
100
AcDbEntity
  8
0-TEXTO
 62
4
100
AcDbLine
 10
90.44675240286796
 20
-23.08082258389034
 30
0.0
 11
90.04675240342677
 21
-23.08082258389034
 31
0.0
  0
LINE
  5
C2
330
17
100
AcDbEntity
  8
0-TEXTO
 62
4
100
AcDbLine
 10
90.44675240286796
 20
-23.09082258389965
 30
0.0
 11
90.04675240342677
 21
-23.09082258389965
 31
0.0
  0
LINE
  5
C3
330
17
100
AcDbEntity
  8
0-TEXTO
 62
251
100
AcDbLine
 10
90.14675240305422
 20
-23.08082258389034
 30
0.0
 11
90.14675240305422
 21
-22.48082258391363
 31
0.0
  0
LINE
  5
C4
330
17
100
AcDbEntity
  8
0-TEXTO
 62
251
100
AcDbLine
 10
90.21746308070777
 20
-23.01011190577113
 30
0.0
 11
90.14675240305422
 21
-23.08082258389034
 31
0.0
  0
LINE
  5
C5
330
17
100
AcDbEntity
  8
0-TEXTO
 62
251
100
AcDbLine
 10
90.14675240305422
 20
-23.08082258389034
 30
0.0
 11
90.07604172446935
 21
-23.01011190577113
 31
0.0
  0
LINE
  5
C6
330
17
100
AcDbEntity
  8
0-TEXTO
 62
4
100
AcDbLine
 10
92.85876508720473
 20
-21.092746693882
 30
0.0
 11
92.85876508720473
 21
-20.6927466944408
 31
0.0
  0
LINE
  5
C7
330
17
100
AcDbEntity
  8
0-TEXTO
 62
4
100
AcDbLine
 10
92.8487650871954
 20
-21.092746693882
 30
0.0
 11
92.8487650871954
 21
-20.6927466944408
 31
0.0
  0
LINE
  5
C8
330
17
100
AcDbEntity
  8
0-TEXTO
 62
251
100
AcDbLine
 10
92.85876508720473
 20
-20.79274669406827
 30
0.0
 11
93.45876508718145
 21
-20.79274669406827
 31
0.0
  0
LINE
  5
C9
330
17
100
AcDbEntity
  8
0-TEXTO
 62
251
100
AcDbLine
 10
92.92947576532394
 20
-20.86345737172182
 30
0.0
 11
92.85876508720473
 21
-20.79274669406827
 31
0.0
  0
LINE
  5
CA
330
17
100
AcDbEntity
  8
0-TEXTO
 62
251
100
AcDbLine
 10
92.85876508720473
 20
-20.79274669406827
 30
0.0
 11
92.92947576532394
 21
-20.7220360154834
 31
0.0
  0
LINE
  5
CB
330
17
100
AcDbEntity
  8
0-COTAS REF
100
AcDbLine
 10
90.69120276303023
 20
-24.12256002655809
 30
0.0
 11
90.69120276303023
 21
-21.00557947372223
 31
0.0
  0
LINE
  5
CC
330
17
100
AcDbEntity
  8
0-COTAS REF
100
AcDbLine
 10
90.89120276303034
 20
-24.12256002655809
 30
0.0
 11
90.89120276303034
 21
-21.00557947372223
 31
0.0
  0
LWPOLYLINE
  5
CD
330
17
100
AcDbEntity
  8
0
 62
11
100
AcDbPolyline
 90
21
 70
1
 10
92.39527709871264
 20
-25.66298648887229
 42
0.3642142242882249
 10
92.39478462020028
 20
-25.66340008913329
 10
92.3943571816496
 20
-25.66583648887228
 10
92.3943571816496
 20
-25.66783648887229
 10
92.39185718164958
 20
-25.66783648887229
 10
92.39185718164958
 20
-25.66688648887229
 42
0.4142135623731395
 10
92.39110718164962
 20
-25.66613648887229
 42
0.4142135623730507
 10
92.3903571816496
 20
-25.66688648887229
 10
92.3903571816496
 20
-25.66933648887229
 10
92.3943571816496
 20
-25.66933648887229
 10
92.3943571816496
 20
-25.71983648887229
 10
92.3883571816496
 20
-25.71983648887229
 42
0.8252846317787602
 10
92.38817092529933
 20
-25.72080050241949
 10
92.39144542783944
 20
-25.72231489700061
 42
0.530985777794659
 10
92.39185718164958
 20
-25.72203648887229
 10
92.39185718164958
 20
-25.72133648887229
 10
92.3943571816496
 20
-25.72133648887229
 10
92.3943571816496
 20
-25.72528648887228
 10
92.39585718164962
 20
-25.72528648887228
 10
92.39585718164962
 20
-25.66348648887229
 42
0.4142135623730951
 10
92.3953571816496
 20
-25.66298648887229
  0
LINE
  5
CE
330
17
100
AcDbEntity
  8
0
 62
251
100
AcDbLine
 10
92.36333046535617
 20
-25.73850444982491
 30
0.0
 11
92.36401622346503
 21
-25.73850444982491
 31
0.0
  0
LINE
  5
CF
330
17
100
AcDbEntity
  8
0
 62
251
100
AcDbLine
 10
92.3616733444106
 20
-25.73650444982485
 30
0.0
 11
92.3656733444106
 21
-25.73650444982485
 31
0.0
  0
LINE
  5
D0
330
17
100
AcDbEntity
  8
0
 62
251
100
AcDbLine
 10
92.3616733444106
 20
-25.71614138720835
 30
0.0
 11
92.3616733444106
 21
-25.73650444982485
 31
0.0
  0
LINE
  5
D1
330
17
100
AcDbEntity
  8
0
 62
251
100
AcDbLine
 10
92.36567334441048
 20
-25.71614138720863
 30
0.0
 11
92.3656733444106
 21
-25.73650444982485
 31
0.0
  0
LINE
  5
D2
330
17
100
AcDbEntity
  8
0
 62
251
100
AcDbLine
 10
92.3616733444106
 20
-25.73650444982485
 30
0.0
 11
92.35867334441059
 21
-25.7385044498248
 31
0.0
  0
LINE
  5
D3
330
17
100
AcDbEntity
  8
0
 62
251
100
AcDbLine
 10
92.3656733444106
 20
-25.73650444982485
 30
0.0
 11
92.36867334441061
 21
-25.7385044498248
 31
0.0
  0
LINE
  5
D4
330
17
100
AcDbEntity
  8
0
 62
251
100
AcDbLine
 10
92.36367334441047
 20
-25.71185237336763
 30
0.0
 11
92.36567334441048
 21
-25.71614138720863
 31
0.0
  0
LINE
  5
D5
330
17
100
AcDbEntity
  8
0
 62
251
100
AcDbLine
 10
92.36367334441047
 20
-25.71185237336763
 30
0.0
 11
92.36167334441049
 21
-25.71614138720858
 31
0.0
  0
LINE
  5
D6
330
17
100
AcDbEntity
  8
0
 62
251
100
AcDbLine
 10
92.36117334441059
 20
-25.73106107415185
 30
0.0
 11
92.36617334441058
 21
-25.733947825497808
 31
0.0
  0
LINE
  5
D7
330
17
100
AcDbEntity
  8
0
 62
251
100
AcDbLine
 10
92.36117334441059
 20
-25.72906107415184
 30
0.0
 11
92.36617334441058
 21
-25.731947825497798
 31
0.0
  0
LINE
  5
D8
330
17
100
AcDbEntity
  8
0
 62
251
100
AcDbLine
 10
92.36117334441059
 20
-25.73306107415186
 30
0.0
 11
92.36617334441058
 21
-25.735947825497817
 31
0.0
  0
ARC
  5
D9
330
17
100
AcDbEntity
  8
0
 62
251
100
AcDbCircle
 10
-92.36367334441074
 20
-25.715596065860037
 30
0.0
 40
0.0234476876445912
210
0.0
220
0.0
230
-1.0
100
AcDbArc
 50
-102.31233016112
 51
-90.8378746431944
  0
ARC
  5
DA
330
17
100
AcDbEntity
  8
0
 62
251
100
AcDbCircle
 10
-92.36367334441074
 20
-25.715596065860037
 30
0.0
 40
0.0234476876445912
210
0.0
220
0.0
230
-1.0
100
AcDbArc
 50
-89.16212535632037
 51
-77.68766983823991
  0
LINE
  5
DB
330
17
100
AcDbEntity
  8
0
 62
251
100
AcDbLine
 10
92.36401622346503
 20
-25.7385044498248
 30
0.0
 11
92.36401622346503
 21
-25.739043753504628
 31
0.0
  0
LINE
  5
DC
330
17
100
AcDbEntity
  8
0
 62
251
100
AcDbLine
 10
92.3633304653562
 20
-25.7385044498248
 30
0.0
 11
92.3633304653562
 21
-25.739043753504628
 31
0.0
  0
LINE
  5
DD
330
17
100
AcDbEntity
  8
0
 62
251
100
AcDbLine
 10
92.36117334441059
 20
-25.72706107415183
 30
0.0
 11
92.36617334441058
 21
-25.72994782549779
 31
0.0
  0
LINE
  5
DE
330
17
100
AcDbEntity
  8
0
 62
251
100
AcDbLine
 10
92.36117334441059
 20
-25.725061074151828
 30
0.0
 11
92.36617334441058
 21
-25.72794782549778
 31
0.0
  0
LINE
  5
DF
330
17
100
AcDbEntity
  8
0
 62
251
100
AcDbLine
 10
92.36117334441059
 20
-25.723061074151808
 30
0.0
 11
92.36617334441058
 21
-25.72594782549777
 31
0.0
  0
LINE
  5
E0
330
17
100
AcDbEntity
  8
0
 62
251
100
AcDbLine
 10
92.36117334441059
 20
-25.72106107415181
 30
0.0
 11
92.36617334441058
 21
-25.72394782549776
 31
0.0
  0
LINE
  5
E1
330
17
100
AcDbEntity
  8
0
 62
251
100
AcDbLine
 10
92.36117334441059
 20
-25.71906107415179
 30
0.0
 11
92.36617334441058
 21
-25.72194782549775
 31
0.0
  0
LINE
  5
E2
330
17
100
AcDbEntity
  8
0
 62
251
100
AcDbLine
 10
92.36117334441059
 20
-25.71706107415179
 30
0.0
 11
92.36617334441058
 21
-25.719947825497737
 31
0.0
  0
LINE
  5
E3
330
17
100
AcDbEntity
  8
0
 62
8
100
AcDbLine
 10
92.3841956545745
 20
-25.74303648887212
 30
0.0
 11
92.3841956545745
 21
-25.74183648887229
 31
0.0
  0
LINE
  5
E4
330
17
100
AcDbEntity
  8
0
 62
8
100
AcDbLine
 10
92.3716071816496
 20
-25.73653648887229
 30
0.0
 11
92.3716071816496
 21
-25.73613471794522
 31
0.0
  0
LINE
  5
E5
330
17
100
AcDbEntity
  8
0
 62
8
100
AcDbLine
 10
92.34315103424682
 20
-25.74303648887212
 30
0.0
 11
92.34315103424682
 21
-25.74183648887229
 31
0.0
  0
LINE
  5
E6
330
17
100
AcDbEntity
  8
0
 62
8
100
AcDbLine
 10
92.35560718164959
 20
-25.73653648887229
 30
0.0
 11
92.35560718164959
 21
-25.73613471794522
 31
0.0
  0
LINE
  5
E7
330
17
100
AcDbEntity
  8
0
 62
11
100
AcDbLine
 10
92.3704039647782
 20
-25.76153648887206
 30
0.0
 11
92.3704039647782
 21
-25.76453648887206
 31
0.0
  0
LINE
  5
E8
330
17
100
AcDbEntity
  8
0
 62
11
100
AcDbLine
 10
92.3704039647782
 20
-25.76553648887207
 30
0.0
 11
92.3704039647782
 21
-25.76853648887207
 31
0.0
  0
LINE
  5
E9
330
17
100
AcDbEntity
  8
0
 62
11
100
AcDbLine
 10
92.37090396477824
 20
-25.76903648887207
 30
0.0
 11
92.3704039647782
 21
-25.76853648887207
 31
0.0
  0
LINE
  5
EA
330
17
100
AcDbEntity
  8
0
 62
11
100
AcDbLine
 10
92.37090396477821
 20
-25.76103648887207
 30
0.0
 11
92.3704039647782
 21
-25.76153648887206
 31
0.0
  0
LINE
  5
EB
330
17
100
AcDbEntity
  8
0
 62
11
100
AcDbLine
 10
92.37090396477821
 20
-25.76503648887206
 30
0.0
 11
92.3704039647782
 21
-25.76553648887207
 31
0.0
  0
LINE
  5
EC
330
17
100
AcDbEntity
  8
0
 62
11
100
AcDbLine
 10
92.37090396477821
 20
-25.76503648887206
 30
0.0
 11
92.3704039647782
 21
-25.76453648887206
 31
0.0
  0
LINE
  5
ED
330
17
100
AcDbEntity
  8
0
 62
11
100
AcDbLine
 10
92.3704039647782
 20
-25.74353648887223
 30
0.0
 11
92.3704039647782
 21
-25.74553648887223
 31
0.0
  0
LINE
  5
EE
330
17
100
AcDbEntity
  8
0
 62
11
100
AcDbLine
 10
92.3704039647782
 20
-25.74653648887223
 30
0.0
 11
92.3704039647782
 21
-25.74853648887224
 31
0.0
  0
LINE
  5
EF
330
17
100
AcDbEntity
  8
0
 62
11
100
AcDbLine
 10
92.3709039647782
 20
-25.74603648887224
 30
0.0
 11
92.3704039647782
 21
-25.74653648887223
 31
0.0
  0
LINE
  5
F0
330
17
100
AcDbEntity
  8
0
 62
11
100
AcDbLine
 10
92.3709039647782
 20
-25.74603648887224
 30
0.0
 11
92.3704039647782
 21
-25.74553648887224
 31
0.0
  0
LINE
  5
F1
330
17
100
AcDbEntity
  8
0
 62
11
100
AcDbLine
 10
92.37090396477821
 20
-25.74903648887224
 30
0.0
 11
92.3704039647782
 21
-25.74853648887224
 31
0.0
  0
LINE
  5
F2
330
17
100
AcDbEntity
  8
0
 62
11
100
AcDbLine
 10
92.37090396477821
 20
-25.74303648887223
 30
0.0
 11
92.3704039647782
 21
-25.74353648887223
 31
0.0
  0
LINE
  5
F3
330
17
100
AcDbEntity
  8
0
 62
11
100
AcDbLine
 10
92.35727163925607
 20
-25.76153648887206
 30
0.0
 11
92.35727163925607
 21
-25.76453648887206
 31
0.0
  0
LINE
  5
F4
330
17
100
AcDbEntity
  8
0
 62
11
100
AcDbLine
 10
92.35727163925607
 20
-25.76553648887207
 30
0.0
 11
92.35727163925607
 21
-25.76853648887207
 31
0.0
  0
LINE
  5
F5
330
17
100
AcDbEntity
  8
0
 62
11
100
AcDbLine
 10
92.35677163925608
 20
-25.76903648887207
 30
0.0
 11
92.35727163925607
 21
-25.76853648887207
 31
0.0
  0
LINE
  5
F6
330
17
100
AcDbEntity
  8
0
 62
11
100
AcDbLine
 10
92.3567716392561
 20
-25.76103648887207
 30
0.0
 11
92.35727163925607
 21
-25.76153648887206
 31
0.0
  0
LINE
  5
F7
330
17
100
AcDbEntity
  8
0
 62
11
100
AcDbLine
 10
92.3567716392561
 20
-25.76503648887206
 30
0.0
 11
92.35727163925607
 21
-25.76553648887207
 31
0.0
  0
LINE
  5
F8
330
17
100
AcDbEntity
  8
0
 62
11
100
AcDbLine
 10
92.3567716392561
 20
-25.76503648887206
 30
0.0
 11
92.35727163925607
 21
-25.76453648887206
 31
0.0
  0
LINE
  5
F9
330
17
100
AcDbEntity
  8
0
 62
11
100
AcDbLine
 10
92.35727163925607
 20
-25.74353648887223
 30
0.0
 11
92.35727163925607
 21
-25.74553648887223
 31
0.0
  0
LINE
  5
FA
330
17
100
AcDbEntity
  8
0
 62
11
100
AcDbLine
 10
92.35727163925607
 20
-25.74653648887223
 30
0.0
 11
92.35727163925607
 21
-25.74853648887224
 31
0.0
  0
LINE
  5
FB
330
17
100
AcDbEntity
  8
0
 62
11
100
AcDbLine
 10
92.3567716392561
 20
-25.74603648887224
 30
0.0
 11
92.35727163925607
 21
-25.74653648887223
 31
0.0
  0
LINE
  5
FC
330
17
100
AcDbEntity
  8
0
 62
11
100
AcDbLine
 10
92.3567716392561
 20
-25.74603648887224
 30
0.0
 11
92.35727163925607
 21
-25.74553648887224
 31
0.0
  0
LINE
  5
FD
330
17
100
AcDbEntity
  8
0
 62
11
100
AcDbLine
 10
92.3567716392561
 20
-25.74903648887224
 30
0.0
 11
92.35727163925607
 21
-25.74853648887224
 31
0.0
  0
LINE
  5
FE
330
17
100
AcDbEntity
  8
0
 62
11
100
AcDbLine
 10
92.3567716392561
 20
-25.74303648887223
 30
0.0
 11
92.35727163925607
 21
-25.74353648887223
 31
0.0
  0
LINE
  5
FF
330
17
100
AcDbEntity
  8
0
 62
11
100
AcDbLine
 10
92.37090396477821
 20
-25.76103648887207
 30
0.0
 11
92.3704039647782
 21
-25.76153648887206
 31
0.0
  0
LWPOLYLINE
  5
100
330
17
100
AcDbEntity
  8
0
 62
8
100
AcDbPolyline
 90
6
 70
1
 10
92.38308946184469
 20
-25.75003648887206
 10
92.38308946184469
 20
-25.76003648887207
 10
92.3780894618447
 20
-25.76003648887207
 10
92.3750894618447
 20
-25.75653648887207
 10
92.3750894618447
 20
-25.75353648887207
 10
92.3780894618447
 20
-25.75003648887206
  0
LWPOLYLINE
  5
101
330
17
100
AcDbEntity
  8
0
 62
8
100
AcDbPolyline
 90
6
 70
1
 10
92.38258946184472
 20
-25.75053648887207
 10
92.38258946184472
 20
-25.75953648887207
 10
92.37824084966356
 20
-25.75953648887207
 10
92.37558946184468
 20
-25.75626889699283
 10
92.37558946184468
 20
-25.75380408075132
 10
92.37824084966356
 20
-25.75053648887207
  0
LINE
  5
102
330
17
100
AcDbEntity
  8
0
 62
11
100
AcDbLine
 10
92.37090396477824
 20
-25.74903648887207
 30
0.0
 11
92.3704039647782
 21
-25.74853648887206
 31
0.0
  0
ARC
  5
103
330
17
100
AcDbEntity
  8
0
 62
8
100
AcDbCircle
 10
92.35871331861136
 20
-25.75503648887206
 30
0.0
 40
0.0133761432333217
100
AcDbArc
 50
330.9259378909826
 51
29.07406210903059
  0
LINE
  5
104
330
17
100
AcDbEntity
  8
0
 62
8
100
AcDbLine
 10
92.3780894618447
 20
-25.75003648887206
 30
0.0
 11
92.3780894618447
 21
-25.74903648887207
 31
0.0
  0
LINE
  5
105
330
17
100
AcDbEntity
  8
0
 62
8
100
AcDbLine
 10
92.3780894618447
 20
-25.76003648887207
 30
0.0
 11
92.3780894618447
 21
-25.76103648887207
 31
0.0
  0
LINE
  5
106
330
17
100
AcDbEntity
  8
0
 62
11
100
AcDbLine
 10
92.3567716392561
 20
-25.74903648887224
 30
0.0
 11
92.35727163925607
 21
-25.74853648887224
 31
0.0
  0
LINE
  5
107
330
17
100
AcDbEntity
  8
0
 62
8
100
AcDbLine
 10
92.3445861421896
 20
-25.76103648887207
 30
0.0
 11
92.3445861421896
 21
-25.74903648887207
 31
0.0
  0
LWPOLYLINE
  5
108
330
17
100
AcDbEntity
  8
0
 62
8
100
AcDbPolyline
 90
6
 70
1
 10
92.3445861421896
 20
-25.75003648887206
 10
92.3445861421896
 20
-25.76003648887207
 10
92.3495861421896
 20
-25.76003648887207
 10
92.35258614218961
 20
-25.75653648887207
 10
92.35258614218961
 20
-25.75353648887207
 10
92.3495861421896
 20
-25.75003648887206
  0
LWPOLYLINE
  5
109
330
17
100
AcDbEntity
  8
0
 62
8
100
AcDbPolyline
 90
6
 70
1
 10
92.3450861421896
 20
-25.75053648887207
 10
92.3450861421896
 20
-25.75953648887207
 10
92.34943475437075
 20
-25.75953648887207
 10
92.3520861421896
 20
-25.75626889699283
 10
92.3520861421896
 20
-25.75380408075132
 10
92.34943475437075
 20
-25.75053648887207
  0
LINE
  5
10A
330
17
100
AcDbEntity
  8
0
 62
11
100
AcDbLine
 10
92.35677163925608
 20
-25.74903648887207
 30
0.0
 11
92.35727163925607
 21
-25.74853648887206
 31
0.0
  0
ARC
  5
10B
330
17
100
AcDbEntity
  8
0
 62
8
100
AcDbCircle
 10
92.36896228542292
 20
-25.75503648887206
 30
0.0
 40
0.0133761432333217
100
AcDbArc
 50
150.9259378909694
 51
209.0740621090173
  0
LINE
  5
10C
330
17
100
AcDbEntity
  8
0
 62
8
100
AcDbLine
 10
92.3495861421896
 20
-25.75003648887206
 30
0.0
 11
92.3495861421896
 21
-25.74903648887207
 31
0.0
  0
LINE
  5
10D
330
17
100
AcDbEntity
  8
0
 62
8
100
AcDbLine
 10
92.3495861421896
 20
-25.76003648887207
 30
0.0
 11
92.3495861421896
 21
-25.76103648887207
 31
0.0
  0
ARC
  5
10E
330
17
100
AcDbEntity
  8
0
 62
8
100
AcDbCircle
 10
92.36383780201714
 20
-25.78287197597973
 30
0.0
 40
0.0155354871076451
100
AcDbArc
 50
62.94535250408637
 51
117.054647495984
  0
LINE
  5
10F
330
17
100
AcDbEntity
  8
0
 62
8
100
AcDbLine
 10
92.38308946184469
 20
-25.74903648887233
 30
0.0
 11
92.38308946184469
 21
-25.76103648887207
 31
0.0
  0
LINE
  5
110
330
17
100
AcDbEntity
  8
0
 62
8
100
AcDbLine
 10
92.3822559601924
 20
-25.74183648887229
 30
0.0
 11
92.3822559601924
 21
-25.74303648887207
 31
0.0
  0
LINE
  5
111
330
17
100
AcDbEntity
  8
0
 62
8
100
AcDbLine
 10
92.3454196438419
 20
-25.74183648887229
 30
0.0
 11
92.3454196438419
 21
-25.74303648887207
 31
0.0
  0
LINE
  5
112
330
17
100
AcDbEntity
  8
0
 62
11
100
AcDbLine
 10
92.35700731960112
 20
-25.7490364888722
 30
0.0
 11
91.11664392579122
 21
-25.74903648887212
 31
0.0
  0
LINE
  5
113
330
17
100
AcDbEntity
  8
0
 62
11
100
AcDbLine
 10
92.35677163925624
 20
-25.7460364888724
 30
0.0
 11
91.11664392579115
 21
-25.74603648887233
 31
0.0
  0
LINE
  5
114
330
17
100
AcDbEntity
  8
0
 62
11
100
AcDbLine
 10
92.35677163925607
 20
-25.74303648887219
 30
0.0
 11
91.11664392579125
 21
-25.74303648887226
 31
0.0
  0
LINE
  5
115
330
17
100
AcDbEntity
  8
0
 62
11
100
AcDbLine
 10
92.35700731960127
 20
-25.76103648887221
 30
0.0
 11
91.11664392579122
 21
-25.76103648887212
 31
0.0
  0
LINE
  5
116
330
17
100
AcDbEntity
  8
0
  6
CONTINUOUS
 62
8
 48
100.0
100
AcDbLine
 10
92.35727163925607
 20
-25.7655864888724
 30
0.0
 11
91.1161439257912
 21
-25.76558648887234
 31
0.0
  0
LINE
  5
117
330
17
100
AcDbEntity
  8
0
 62
11
100
AcDbLine
 10
92.35677163925645
 20
-25.7650364888724
 30
0.0
 11
91.116643925791
 21
-25.76503648887233
 31
0.0
  0
LINE
  5
118
330
17
100
AcDbEntity
  8
0
 62
11
100
AcDbLine
 10
92.35677163925595
 20
-25.7690364888722
 30
0.0
 11
91.11664392579134
 21
-25.76903648887227
 31
0.0
  0
LWPOLYLINE
  5
119
330
17
100
AcDbEntity
  8
0
 62
8
100
AcDbPolyline
 90
4
 70
1
 10
91.11620276303017
 20
-25.66083648887229
 10
93.61114392579125
 20
-25.66083648887229
 10
93.61114392579125
 20
-25.72583648887229
 10
91.11620276303017
 20
-25.72583648887229
  0
LINE
  5
11A
330
17
100
AcDbEntity
  8
0
 62
11
100
AcDbLine
 10
95.33942159421886
 20
-23.52013831096101
 30
0.0
 11
95.33942159421873
 21
-21.83102063648591
 31
0.0
  0
LINE
  5
11B
330
17
100
AcDbEntity
  8
0
 62
11
100
AcDbLine
 10
95.33642159421856
 20
-23.52013831096135
 30
0.0
 11
95.33642159421866
 21
-21.83102063648581
 31
0.0
  0
LINE
  5
11C
330
17
100
AcDbEntity
  8
0
 62
11
100
AcDbLine
 10
95.33342159421888
 20
-23.52013831096118
 30
0.0
 11
95.33342159421888
 21
-21.83102063648588
 31
0.0
  0
LINE
  5
11D
330
17
100
AcDbEntity
  8
0
 62
11
100
AcDbLine
 10
95.32142159421888
 20
-23.52013831096118
 30
0.0
 11
95.32142159421888
 21
-21.83102063648588
 31
0.0
  0
LINE
  5
11E
330
17
100
AcDbEntity
  8
0
 62
11
100
AcDbLine
 10
95.31742159421859
 20
-23.52013831096148
 30
0.0
 11
95.31742159421867
 21
-21.83102063648567
 31
0.0
  0
LINE
  5
11F
330
17
100
AcDbEntity
  8
0
  6
CONTINUOUS
 62
8
 48
100.0
100
AcDbLine
 10
95.31687159421858
 20
-23.52057947372224
 30
0.0
 11
95.31687159421865
 21
-21.83052063648586
 31
0.0
  0
LINE
  5
120
330
17
100
AcDbEntity
  8
0
 62
11
100
AcDbLine
 10
95.31342159421884
 20
-23.52013831096114
 30
0.0
 11
95.31342159421872
 21
-21.831020636486
 31
0.0
  0
LINE
  5
121
330
17
100
AcDbEntity
  8
0
 62
11
100
AcDbLine
 10
95.32092159421887
 20
-21.83052063648586
 30
0.0
 11
95.31792159421887
 21
-21.83052063648586
 31
0.0
  0
LINE
  5
122
330
17
100
AcDbEntity
  8
0
 62
11
100
AcDbLine
 10
95.31692159421885
 20
-21.83052063648586
 30
0.0
 11
95.3139215942189
 21
-21.83052063648586
 31
0.0
  0
LINE
  5
123
330
17
100
AcDbEntity
  8
0
 62
11
100
AcDbLine
 10
95.31342159421887
 20
-21.83102063648588
 30
0.0
 11
95.3139215942189
 21
-21.83052063648586
 31
0.0
  0
LINE
  5
124
330
17
100
AcDbEntity
  8
0
 62
11
100
AcDbLine
 10
95.32142159421888
 20
-21.83102063648588
 30
0.0
 11
95.32092159421887
 21
-21.83052063648586
 31
0.0
  0
LINE
  5
125
330
17
100
AcDbEntity
  8
0
 62
11
100
AcDbLine
 10
95.31742159421886
 20
-21.83102063648588
 30
0.0
 11
95.31692159421885
 21
-21.83052063648586
 31
0.0
  0
LINE
  5
126
330
17
100
AcDbEntity
  8
0
 62
11
100
AcDbLine
 10
95.31742159421886
 20
-21.83102063648588
 30
0.0
 11
95.31792159421887
 21
-21.83052063648586
 31
0.0
  0
LINE
  5
127
330
17
100
AcDbEntity
  8
0
 62
11
100
AcDbLine
 10
95.3389215942187
 20
-21.83052063648586
 30
0.0
 11
95.33692159421871
 21
-21.83052063648586
 31
0.0
  0
LINE
  5
128
330
17
100
AcDbEntity
  8
0
 62
11
100
AcDbLine
 10
95.33592159421869
 20
-21.83052063648586
 30
0.0
 11
95.3339215942187
 21
-21.83052063648586
 31
0.0
  0
LINE
  5
129
330
17
100
AcDbEntity
  8
0
 62
11
100
AcDbLine
 10
95.3364215942187
 20
-21.83102063648585
 30
0.0
 11
95.33592159421869
 21
-21.83052063648586
 31
0.0
  0
LINE
  5
12A
330
17
100
AcDbEntity
  8
0
 62
11
100
AcDbLine
 10
95.3364215942187
 20
-21.83102063648585
 30
0.0
 11
95.33692159421871
 21
-21.83052063648586
 31
0.0
  0
LINE
  5
12B
330
17
100
AcDbEntity
  8
0
 62
11
100
AcDbLine
 10
95.3334215942187
 20
-21.83102063648588
 30
0.0
 11
95.3339215942187
 21
-21.83052063648586
 31
0.0
  0
LINE
  5
12C
330
17
100
AcDbEntity
  8
0
 62
11
100
AcDbLine
 10
95.3394215942187
 20
-21.83102063648588
 30
0.0
 11
95.3389215942187
 21
-21.83052063648586
 31
0.0
  0
LINE
  5
12D
330
17
100
AcDbEntity
  8
0
 62
11
100
AcDbLine
 10
95.32142159421888
 20
-21.83102063648588
 30
0.0
 11
95.32092159421887
 21
-21.83052063648586
 31
0.0
  0
LINE
  5
12E
330
17
100
AcDbEntity
  8
0
 62
11
100
AcDbLine
 10
95.3334215942187
 20
-21.83102063648588
 30
0.0
 11
95.3339215942187
 21
-21.83052063648586
 31
0.0
  0
LINE
  5
12F
330
17
100
AcDbEntity
  8
0
 62
11
100
AcDbLine
 10
95.32142159421888
 20
-21.83102063648588
 30
0.0
 11
95.32092159421887
 21
-21.83052063648586
 31
0.0
  0
LINE
  5
130
330
17
100
AcDbEntity
  8
0
 62
8
100
AcDbLine
 10
95.32142159421888
 20
-21.84320613355235
 30
0.0
 11
95.33342159421888
 21
-21.84320613355235
 31
0.0
  0
LWPOLYLINE
  5
131
330
17
100
AcDbEntity
  8
0
 62
8
100
AcDbPolyline
 90
6
 70
1
 10
95.33242159421886
 20
-21.84320613355235
 10
95.3224215942189
 20
-21.84320613355235
 10
95.3224215942189
 20
-21.83820613355235
 10
95.32592159421885
 20
-21.83520613355236
 10
95.32892159421887
 20
-21.83520613355236
 10
95.33242159421886
 20
-21.83820613355235
  0
LWPOLYLINE
  5
132
330
17
100
AcDbEntity
  8
0
 62
8
100
AcDbPolyline
 90
6
 70
1
 10
95.33192159421885
 20
-21.84270613355236
 10
95.32292159421887
 20
-21.84270613355236
 10
95.32292159421887
 20
-21.83835752137122
 10
95.3261891860981
 20
-21.83570613355235
 10
95.32865400233965
 20
-21.83570613355235
 10
95.33192159421885
 20
-21.83835752137122
  0
LINE
  5
133
330
17
100
AcDbEntity
  8
0
 62
11
100
AcDbLine
 10
95.33342159421888
 20
-21.83102063648588
 30
0.0
 11
95.33392159421888
 21
-21.83052063648586
 31
0.0
  0
ARC
  5
134
330
17
100
AcDbEntity
  8
0
 62
8
100
AcDbCircle
 10
95.32742159421888
 20
-21.81882999031902
 30
0.0
 40
0.0133761432333217
100
AcDbArc
 50
240.9259378909826
 51
299.0740621090306
  0
LINE
  5
135
330
17
100
AcDbEntity
  8
0
 62
8
100
AcDbLine
 10
95.33242159421886
 20
-21.83820613355235
 30
0.0
 11
95.33342159421888
 21
-21.83820613355235
 31
0.0
  0
LINE
  5
136
330
17
100
AcDbEntity
  8
0
 62
8
100
AcDbLine
 10
95.3224215942189
 20
-21.83820613355235
 30
0.0
 11
95.32142159421888
 21
-21.83820613355235
 31
0.0
  0
LWPOLYLINE
  5
137
330
17
100
AcDbEntity
  8
0
 62
11
100
AcDbPolyline
 90
21
 70
1
 10
95.4194715942187
 20
-21.89455822802683
 42
0.3642142242882249
 10
95.4190579939577
 20
-21.89406574951449
 10
95.41662159421871
 20
-21.89363831096378
 10
95.4146215942187
 20
-21.89363831096378
 10
95.4146215942187
 20
-21.89113831096379
 10
95.4155715942187
 20
-21.89113831096379
 42
0.4142135623731395
 10
95.41632159421872
 20
-21.89038831096381
 42
0.4142135623730507
 10
95.4155715942187
 20
-21.88963831096379
 10
95.4131215942187
 20
-21.88963831096379
 10
95.4131215942187
 20
-21.89363831096378
 10
95.36262159421871
 20
-21.89363831096378
 10
95.36262159421871
 20
-21.88763831096379
 42
0.8252846317787602
 10
95.3616575806715
 20
-21.88745205461354
 10
95.36014318609038
 20
-21.89072655715365
 42
0.530985777794659
 10
95.3604215942187
 20
-21.89113831096379
 10
95.3611215942187
 20
-21.89113831096379
 10
95.3611215942187
 20
-21.89363831096378
 10
95.35717159421871
 20
-21.89363831096378
 10
95.35717159421871
 20
-21.8951383109638
 10
95.4189715942187
 20
-21.8951383109638
 42
0.4142135623730951
 10
95.4194715942187
 20
-21.89463831096379
  0
LINE
  5
138
330
17
100
AcDbEntity
  8
0
 62
251
100
AcDbLine
 10
95.3439536332661
 20
-21.862611594670412
 30
0.0
 11
95.3439536332661
 21
-21.86329735277927
 31
0.0
  0
LINE
  5
139
330
17
100
AcDbEntity
  8
0
 62
251
100
AcDbLine
 10
95.34595363326615
 20
-21.860954473724842
 30
0.0
 11
95.34595363326615
 21
-21.86495447372483
 31
0.0
  0
LINE
  5
13A
330
17
100
AcDbEntity
  8
0
 62
251
100
AcDbLine
 10
95.36631669588265
 20
-21.86095447372483
 30
0.0
 11
95.34595363326615
 21
-21.860954473724842
 31
0.0
  0
LINE
  5
13B
330
17
100
AcDbEntity
  8
0
 62
251
100
AcDbLine
 10
95.36631669588238
 20
-21.86495447372472
 30
0.0
 11
95.34595363326615
 21
-21.86495447372483
 31
0.0
  0
LINE
  5
13C
330
17
100
AcDbEntity
  8
0
 62
251
100
AcDbLine
 10
95.34595363326615
 20
-21.860954473724842
 30
0.0
 11
95.3439536332662
 21
-21.85795447372483
 31
0.0
  0
LINE
  5
13D
330
17
100
AcDbEntity
  8
0
 62
251
100
AcDbLine
 10
95.34595363326615
 20
-21.86495447372483
 30
0.0
 11
95.3439536332662
 21
-21.86795447372485
 31
0.0
  0
LINE
  5
13E
330
17
100
AcDbEntity
  8
0
 62
251
100
AcDbLine
 10
95.37060570972336
 20
-21.86295447372471
 30
0.0
 11
95.36631669588238
 21
-21.86495447372472
 31
0.0
  0
LINE
  5
13F
330
17
100
AcDbEntity
  8
0
 62
251
100
AcDbLine
 10
95.37060570972336
 20
-21.86295447372471
 30
0.0
 11
95.36631669588242
 21
-21.860954473724732
 31
0.0
  0
LINE
  5
140
330
17
100
AcDbEntity
  8
0
 62
251
100
AcDbLine
 10
95.35139700893914
 20
-21.860454473724822
 30
0.0
 11
95.34851025759319
 21
-21.86545447372482
 31
0.0
  0
LINE
  5
141
330
17
100
AcDbEntity
  8
0
 62
251
100
AcDbLine
 10
95.35339700893915
 20
-21.860454473724822
 30
0.0
 11
95.3505102575932
 21
-21.86545447372482
 31
0.0
  0
LINE
  5
142
330
17
100
AcDbEntity
  8
0
 62
251
100
AcDbLine
 10
95.34939700893914
 20
-21.860454473724822
 30
0.0
 11
95.34651025759318
 21
-21.86545447372482
 31
0.0
  0
ARC
  5
143
330
17
100
AcDbEntity
  8
0
 62
251
100
AcDbCircle
 10
-95.36686201723096
 20
-21.862954473724972
 30
0.0
 40
0.0234476876445912
210
0.0
220
-0.0
230
-1.0
100
AcDbArc
 50
-12.312330161120006
 51
-0.8378746431944022
  0
ARC
  5
144
330
17
100
AcDbEntity
  8
0
 62
251
100
AcDbCircle
 10
-95.36686201723096
 20
-21.862954473724972
 30
0.0
 40
0.0234476876445912
210
0.0
220
-0.0
230
-1.0
100
AcDbArc
 50
0.8378746436796278
 51
12.312330161760084
  0
LINE
  5
145
330
17
100
AcDbEntity
  8
0
 62
251
100
AcDbLine
 10
95.3439536332662
 20
-21.86329735277927
 30
0.0
 11
95.34341432958637
 21
-21.86329735277927
 31
0.0
  0
LINE
  5
146
330
17
100
AcDbEntity
  8
0
 62
251
100
AcDbLine
 10
95.3439536332662
 20
-21.86261159467043
 30
0.0
 11
95.34341432958637
 21
-21.86261159467043
 31
0.0
  0
LINE
  5
147
330
17
100
AcDbEntity
  8
0
 62
251
100
AcDbLine
 10
95.35539700893916
 20
-21.860454473724822
 30
0.0
 11
95.35251025759321
 21
-21.86545447372482
 31
0.0
  0
LINE
  5
148
330
17
100
AcDbEntity
  8
0
 62
251
100
AcDbLine
 10
95.35739700893917
 20
-21.860454473724822
 30
0.0
 11
95.35451025759322
 21
-21.86545447372482
 31
0.0
  0
LINE
  5
149
330
17
100
AcDbEntity
  8
0
 62
251
100
AcDbLine
 10
95.3593970089392
 20
-21.860454473724822
 30
0.0
 11
95.35651025759323
 21
-21.86545447372482
 31
0.0
  0
LINE
  5
14A
330
17
100
AcDbEntity
  8
0
 62
251
100
AcDbLine
 10
95.36139700893919
 20
-21.860454473724822
 30
0.0
 11
95.35851025759324
 21
-21.86545447372482
 31
0.0
  0
LINE
  5
14B
330
17
100
AcDbEntity
  8
0
 62
251
100
AcDbLine
 10
95.36339700893922
 20
-21.860454473724822
 30
0.0
 11
95.36051025759325
 21
-21.86545447372482
 31
0.0
  0
LINE
  5
14C
330
17
100
AcDbEntity
  8
0
 62
251
100
AcDbLine
 10
95.36539700893921
 20
-21.860454473724822
 30
0.0
 11
95.36251025759326
 21
-21.86545447372482
 31
0.0
  0
LINE
  5
14D
330
17
100
AcDbEntity
  8
0
 62
8
100
AcDbLine
 10
95.33942159421888
 20
-21.88347678388868
 30
0.0
 11
95.34062159421869
 21
-21.88347678388868
 31
0.0
  0
LINE
  5
14E
330
17
100
AcDbEntity
  8
0
 62
8
100
AcDbLine
 10
95.34592159421871
 20
-21.87088831096378
 30
0.0
 11
95.34632336514578
 21
-21.87088831096378
 31
0.0
  0
LINE
  5
14F
330
17
100
AcDbEntity
  8
0
 62
8
100
AcDbLine
 10
95.33942159421888
 20
-21.842432163561
 30
0.0
 11
95.34062159421869
 21
-21.842432163561
 31
0.0
  0
LINE
  5
150
330
17
100
AcDbEntity
  8
0
 62
8
100
AcDbLine
 10
95.34592159421871
 20
-21.85488831096379
 30
0.0
 11
95.34632336514578
 21
-21.85488831096379
 31
0.0
  0
LINE
  5
151
330
17
100
AcDbEntity
  8
0
 62
4
100
AcDbLine
 10
95.54289355217013
 20
-21.82535617887936
 30
0.0
 11
95.30802641344808
 21
-21.82535617887936
 31
0.0
  0
LINE
  5
152
330
17
100
AcDbEntity
  8
0
 62
4
100
AcDbLine
 10
95.54289355217013
 20
-21.70053791490563
 30
0.0
 11
95.54289355217013
 21
-21.82535617887936
 31
0.0
  0
LINE
  5
153
330
17
100
AcDbEntity
  8
0
 62
4
100
AcDbLine
 10
95.30802641344818
 20
-21.70053791490563
 30
0.0
 11
95.30802641344818
 21
-21.82535617887936
 31
0.0
  0
LWPOLYLINE
  5
154
330
17
100
AcDbEntity
  8
0
 62
8
100
AcDbPolyline
 90
4
 70
1
 10
95.4216215942187
 20
-21.83057947372483
 10
95.42162159421872
 20
-23.52057947372224
 10
95.35662159421874
 20
-23.52057947372224
 10
95.35662159421871
 20
-21.83057947372483
  0
LINE
  5
155
330
17
100
AcDbEntity
  8
0
 62
11
100
AcDbLine
 10
95.32092159421887
 20
-23.52063831096119
 30
0.0
 11
95.31792159421887
 21
-23.52063831096119
 31
0.0
  0
LINE
  5
156
330
17
100
AcDbEntity
  8
0
 62
11
100
AcDbLine
 10
95.31692159421885
 20
-23.52063831096119
 30
0.0
 11
95.3139215942189
 21
-23.52063831096119
 31
0.0
  0
LINE
  5
157
330
17
100
AcDbEntity
  8
0
 62
11
100
AcDbLine
 10
95.31342159421887
 20
-23.52013831096118
 30
0.0
 11
95.3139215942189
 21
-23.52063831096119
 31
0.0
  0
LINE
  5
158
330
17
100
AcDbEntity
  8
0
 62
11
100
AcDbLine
 10
95.32142159421888
 20
-23.52013831096118
 30
0.0
 11
95.32092159421887
 21
-23.52063831096119
 31
0.0
  0
LINE
  5
159
330
17
100
AcDbEntity
  8
0
 62
11
100
AcDbLine
 10
95.31742159421886
 20
-23.52013831096118
 30
0.0
 11
95.31692159421885
 21
-23.52063831096119
 31
0.0
  0
LINE
  5
15A
330
17
100
AcDbEntity
  8
0
 62
11
100
AcDbLine
 10
95.31742159421886
 20
-23.52013831096118
 30
0.0
 11
95.31792159421887
 21
-23.52063831096119
 31
0.0
  0
LINE
  5
15B
330
17
100
AcDbEntity
  8
0
 62
11
100
AcDbLine
 10
95.3389215942187
 20
-23.52063831096119
 30
0.0
 11
95.33692159421871
 21
-23.52063831096119
 31
0.0
  0
LINE
  5
15C
330
17
100
AcDbEntity
  8
0
 62
11
100
AcDbLine
 10
95.33592159421869
 20
-23.52063831096119
 30
0.0
 11
95.3339215942187
 21
-23.52063831096119
 31
0.0
  0
LINE
  5
15D
330
17
100
AcDbEntity
  8
0
 62
11
100
AcDbLine
 10
95.3364215942187
 20
-23.52013831096121
 30
0.0
 11
95.33592159421869
 21
-23.52063831096119
 31
0.0
  0
LINE
  5
15E
330
17
100
AcDbEntity
  8
0
 62
11
100
AcDbLine
 10
95.3364215942187
 20
-23.52013831096121
 30
0.0
 11
95.33692159421871
 21
-23.52063831096119
 31
0.0
  0
LINE
  5
15F
330
17
100
AcDbEntity
  8
0
 62
11
100
AcDbLine
 10
95.3334215942187
 20
-23.52013831096118
 30
0.0
 11
95.3339215942187
 21
-23.52063831096119
 31
0.0
  0
LINE
  5
160
330
17
100
AcDbEntity
  8
0
 62
11
100
AcDbLine
 10
95.3394215942187
 20
-23.52013831096118
 30
0.0
 11
95.3389215942187
 21
-23.52063831096119
 31
0.0
  0
LINE
  5
161
330
17
100
AcDbEntity
  8
0
 62
11
100
AcDbLine
 10
95.32142159421888
 20
-23.52013831096118
 30
0.0
 11
95.32092159421887
 21
-23.52063831096119
 31
0.0
  0
LINE
  5
162
330
17
100
AcDbEntity
  8
0
 62
11
100
AcDbLine
 10
95.3334215942187
 20
-23.52013831096118
 30
0.0
 11
95.3339215942187
 21
-23.52063831096119
 31
0.0
  0
LINE
  5
163
330
17
100
AcDbEntity
  8
0
 62
11
100
AcDbLine
 10
95.32142159421888
 20
-23.52013831096118
 30
0.0
 11
95.32092159421887
 21
-23.52063831096119
 31
0.0
  0
LINE
  5
164
330
17
100
AcDbEntity
  8
0
 62
8
100
AcDbLine
 10
95.32142159421888
 20
-23.50795281389471
 30
0.0
 11
95.33342159421888
 21
-23.50795281389471
 31
0.0
  0
LWPOLYLINE
  5
165
330
17
100
AcDbEntity
  8
0
 62
8
100
AcDbPolyline
 90
6
 70
1
 10
95.33242159421886
 20
-23.50795281389471
 10
95.3224215942189
 20
-23.50795281389471
 10
95.3224215942189
 20
-23.5129528138947
 10
95.32592159421885
 20
-23.51595281389469
 10
95.32892159421887
 20
-23.51595281389469
 10
95.33242159421886
 20
-23.5129528138947
  0
LWPOLYLINE
  5
166
330
17
100
AcDbEntity
  8
0
 62
8
100
AcDbPolyline
 90
6
 70
1
 10
95.33192159421885
 20
-23.5084528138947
 10
95.32292159421887
 20
-23.5084528138947
 10
95.32292159421887
 20
-23.51280142607583
 10
95.3261891860981
 20
-23.5154528138947
 10
95.32865400233965
 20
-23.5154528138947
 10
95.33192159421885
 20
-23.51280142607583
  0
LINE
  5
167
330
17
100
AcDbEntity
  8
0
 62
11
100
AcDbLine
 10
95.33342159421888
 20
-23.52013831096118
 30
0.0
 11
95.33392159421888
 21
-23.52063831096119
 31
0.0
  0
ARC
  5
168
330
17
100
AcDbEntity
  8
0
 62
8
100
AcDbCircle
 10
95.32742159421888
 20
-23.53232895712803
 30
0.0
 40
0.0133761432333217
100
AcDbArc
 50
60.92593789096946
 51
119.0740621090174
  0
LINE
  5
169
330
17
100
AcDbEntity
  8
0
 62
8
100
AcDbLine
 10
95.33242159421886
 20
-23.5129528138947
 30
0.0
 11
95.33342159421888
 21
-23.5129528138947
 31
0.0
  0
LINE
  5
16A
330
17
100
AcDbEntity
  8
0
 62
8
100
AcDbLine
 10
95.3224215942189
 20
-23.5129528138947
 30
0.0
 11
95.32142159421888
 21
-23.5129528138947
 31
0.0
  0
LWPOLYLINE
  5
16B
330
17
100
AcDbEntity
  8
0
 62
11
100
AcDbPolyline
 90
21
 70
1
 10
95.41929856201564
 20
-23.45631650512228
 42
-0.3642142242882249
 10
95.41888496175466
 20
-23.45680898363462
 10
95.41644856201565
 20
-23.45723642218532
 10
95.41444856201564
 20
-23.45723642218532
 10
95.41444856201564
 20
-23.45973642218532
 10
95.41539856201564
 20
-23.45973642218532
 42
-0.4142135623731395
 10
95.41614856201564
 20
-23.4604864221853
 42
-0.4142135623730507
 10
95.41539856201564
 20
-23.46123642218531
 10
95.41294856201564
 20
-23.46123642218531
 10
95.41294856201564
 20
-23.45723642218532
 10
95.36244856201564
 20
-23.45723642218532
 10
95.36244856201564
 20
-23.46323642218532
 42
-0.8252846317787602
 10
95.36148454846843
 20
-23.46342267853557
 10
95.35997015388732
 20
-23.46014817599546
 42
-0.530985777794659
 10
95.36024856201564
 20
-23.45973642218532
 10
95.36094856201564
 20
-23.45973642218532
 10
95.36094856201564
 20
-23.45723642218532
 10
95.35699856201565
 20
-23.45723642218532
 10
95.35699856201565
 20
-23.4557364221853
 10
95.41879856201564
 20
-23.4557364221853
 42
-0.4142135623730951
 10
95.41929856201564
 20
-23.45623642218532
  0
LINE
  5
16C
330
17
100
AcDbEntity
  8
0
 62
251
100
AcDbLine
 10
95.34432336514573
 20
-23.48854735277664
 30
0.0
 11
95.34432336514573
 21
-23.48786159466778
 31
0.0
  0
LINE
  5
16D
330
17
100
AcDbEntity
  8
0
 62
251
100
AcDbLine
 10
95.34632336514579
 20
-23.49020447372221
 30
0.0
 11
95.34632336514579
 21
-23.48620447372222
 31
0.0
  0
LINE
  5
16E
330
17
100
AcDbEntity
  8
0
 62
251
100
AcDbLine
 10
95.36668642776229
 20
-23.49020447372222
 30
0.0
 11
95.34632336514579
 21
-23.49020447372221
 31
0.0
  0
LINE
  5
16F
330
17
100
AcDbEntity
  8
0
 62
251
100
AcDbLine
 10
95.366686427762
 20
-23.48620447372233
 30
0.0
 11
95.34632336514579
 21
-23.48620447372222
 31
0.0
  0
LINE
  5
170
330
17
100
AcDbEntity
  8
0
 62
251
100
AcDbLine
 10
95.34632336514579
 20
-23.49020447372221
 30
0.0
 11
95.34432336514584
 21
-23.49320447372222
 31
0.0
  0
LINE
  5
171
330
17
100
AcDbEntity
  8
0
 62
251
100
AcDbLine
 10
95.34632336514579
 20
-23.48620447372222
 30
0.0
 11
95.34432336514584
 21
-23.4832044737222
 31
0.0
  0
LINE
  5
172
330
17
100
AcDbEntity
  8
0
 62
251
100
AcDbLine
 10
95.37097544160301
 20
-23.48820447372234
 30
0.0
 11
95.366686427762
 21
-23.48620447372233
 31
0.0
  0
LINE
  5
173
330
17
100
AcDbEntity
  8
0
 62
251
100
AcDbLine
 10
95.37097544160301
 20
-23.48820447372234
 30
0.0
 11
95.36668642776206
 21
-23.49020447372232
 31
0.0
  0
LINE
  5
174
330
17
100
AcDbEntity
  8
0
 62
251
100
AcDbLine
 10
95.35176674081879
 20
-23.49070447372223
 30
0.0
 11
95.34887998947283
 21
-23.48570447372223
 31
0.0
  0
LINE
  5
175
330
17
100
AcDbEntity
  8
0
 62
251
100
AcDbLine
 10
95.3537667408188
 20
-23.49070447372223
 30
0.0
 11
95.35087998947284
 21
-23.48570447372223
 31
0.0
  0
LINE
  5
176
330
17
100
AcDbEntity
  8
0
 62
251
100
AcDbLine
 10
95.34976674081878
 20
-23.49070447372223
 30
0.0
 11
95.34687998947282
 21
-23.48570447372223
 31
0.0
  0
ARC
  5
177
330
17
100
AcDbEntity
  8
0
 62
251
100
AcDbCircle
 10
95.3672317491106
 20
-23.488204473722078
 30
0.0
 40
0.0234476876445912
100
AcDbArc
 50
167.68766983888
 51
179.1621253568056
  0
ARC
  5
178
330
17
100
AcDbEntity
  8
0
 62
251
100
AcDbCircle
 10
95.3672317491106
 20
-23.488204473722078
 30
0.0
 40
0.0234476876445912
100
AcDbArc
 50
-179.1621253563204
 51
-167.68766983823994
  0
LINE
  5
179
330
17
100
AcDbEntity
  8
0
 62
251
100
AcDbLine
 10
95.34432336514584
 20
-23.48786159466778
 30
0.0
 11
95.34378406146601
 21
-23.48786159466778
 31
0.0
  0
LINE
  5
17A
330
17
100
AcDbEntity
  8
0
 62
251
100
AcDbLine
 10
95.34432336514584
 20
-23.48854735277662
 30
0.0
 11
95.34378406146601
 21
-23.48854735277662
 31
0.0
  0
LINE
  5
17B
330
17
100
AcDbEntity
  8
0
 62
251
100
AcDbLine
 10
95.35576674081881
 20
-23.49070447372223
 30
0.0
 11
95.35287998947285
 21
-23.48570447372223
 31
0.0
  0
LINE
  5
17C
330
17
100
AcDbEntity
  8
0
 62
251
100
AcDbLine
 10
95.35776674081882
 20
-23.49070447372223
 30
0.0
 11
95.35487998947286
 21
-23.48570447372223
 31
0.0
  0
LINE
  5
17D
330
17
100
AcDbEntity
  8
0
 62
251
100
AcDbLine
 10
95.35976674081883
 20
-23.49070447372223
 30
0.0
 11
95.35687998947287
 21
-23.48570447372223
 31
0.0
  0
LINE
  5
17E
330
17
100
AcDbEntity
  8
0
 62
251
100
AcDbLine
 10
95.36176674081884
 20
-23.49070447372223
 30
0.0
 11
95.35887998947288
 21
-23.48570447372223
 31
0.0
  0
LINE
  5
17F
330
17
100
AcDbEntity
  8
0
 62
251
100
AcDbLine
 10
95.36376674081885
 20
-23.49070447372223
 30
0.0
 11
95.36087998947289
 21
-23.48570447372223
 31
0.0
  0
LINE
  5
180
330
17
100
AcDbEntity
  8
0
 62
251
100
AcDbLine
 10
95.36576674081886
 20
-23.49070447372223
 30
0.0
 11
95.3628799894729
 21
-23.48570447372223
 31
0.0
  0
LINE
  5
181
330
17
100
AcDbEntity
  8
0
 62
8
100
AcDbLine
 10
95.33942159421888
 20
-23.46768216355837
 30
0.0
 11
95.34062159421869
 21
-23.46768216355837
 31
0.0
  0
LINE
  5
182
330
17
100
AcDbEntity
  8
0
 62
8
100
AcDbLine
 10
95.34592159421871
 20
-23.48027063648327
 30
0.0
 11
95.34632336514578
 21
-23.48027063648327
 31
0.0
  0
LINE
  5
183
330
17
100
AcDbEntity
  8
0
 62
8
100
AcDbLine
 10
95.33942159421888
 20
-23.50872678388605
 30
0.0
 11
95.34062159421869
 21
-23.50872678388605
 31
0.0
  0
LINE
  5
184
330
17
100
AcDbEntity
  8
0
 62
8
100
AcDbLine
 10
95.34592159421871
 20
-23.49627063648326
 30
0.0
 11
95.34632336514578
 21
-23.49627063648326
 31
0.0
  0
LINE
  5
185
330
17
100
AcDbEntity
  8
0
 62
4
100
AcDbLine
 10
95.54289355217013
 20
-23.5258027685677
 30
0.0
 11
95.30802641344808
 21
-23.5258027685677
 31
0.0
  0
LINE
  5
186
330
17
100
AcDbEntity
  8
0
 62
4
100
AcDbLine
 10
95.54289355217013
 20
-24.42057947372224
 30
0.0
 11
95.54289355217013
 21
-23.5258027685677
 31
0.0
  0
LINE
  5
187
330
17
100
AcDbEntity
  8
0
 62
4
100
AcDbLine
 10
95.30802641344818
 20
-24.42057947372224
 30
0.0
 11
95.30802641344818
 21
-23.5258027685677
 31
0.0
  0
LWPOLYLINE
  5
188
330
17
100
AcDbEntity
  8
0-TEXTO
  6
CONTINUOUS
 48
5.0
100
AcDbPolyline
 90
8
 70
1
 10
95.15860641058148
 20
-23.57336415381699
 10
95.15860641058148
 20
-23.31036259646474
 42
-0.4142135623730951
 10
95.23360641169906
 20
-23.23536259639489
 10
95.50211542993398
 20
-23.23536259639489
 42
-0.4142135623730951
 10
95.57711543105157
 20
-23.31036259646474
 10
95.57711543105157
 20
-23.57336415381699
 42
-0.4142135623730951
 10
95.50211542993398
 20
-23.64836415379953
 10
95.23360641169906
 20
-23.64836415379953
 42
-0.4142135623730951
  0
LINE
  5
189
330
17
100
AcDbEntity
  8
0
 62
11
100
AcDbLine
 10
95.38912159421866
 20
-23.52319112114498
 30
0.0
 11
95.38912159421866
 21
-23.52419112114498
 31
0.0
  0
LINE
  5
18A
330
17
100
AcDbEntity
  8
0
 62
11
100
AcDbLine
 10
95.29684552154126
 20
-23.55440432458058
 30
0.0
 11
95.29684552154126
 21
-23.55340432458057
 31
0.0
  0
LINE
  5
18B
330
17
100
AcDbEntity
  8
0
 62
11
100
AcDbLine
 10
95.38912159421866
 20
-23.52319112114498
 30
0.0
 11
95.30805872497685
 21
-23.52319112114498
 31
0.0
  0
LINE
  5
18C
330
17
100
AcDbEntity
  8
0
 62
11
100
AcDbLine
 10
95.30805872497685
 20
-23.52319112114498
 30
0.0
 11
95.28684552154125
 21
-23.54440432458057
 31
0.0
  0
LINE
  5
18D
330
17
100
AcDbEntity
  8
0
 62
11
100
AcDbLine
 10
95.28684552154125
 20
-23.54440432458057
 30
0.0
 11
95.28684552154125
 21
-23.55440432458058
 31
0.0
  0
LINE
  5
18E
330
17
100
AcDbEntity
  8
0
 62
11
100
AcDbLine
 10
95.28684552154125
 20
-23.55440432458058
 30
0.0
 11
95.29684552154126
 21
-23.55440432458058
 31
0.0
  0
LINE
  5
18F
330
17
100
AcDbEntity
  8
0
 62
11
100
AcDbLine
 10
95.30847293853923
 20
-23.52419112114498
 30
0.0
 11
95.28784552154126
 21
-23.54481853814295
 31
0.0
  0
LINE
  5
190
330
17
100
AcDbEntity
  8
0
 62
11
100
AcDbLine
 10
95.28784552154126
 20
-23.54481853814295
 30
0.0
 11
95.28784552154126
 21
-23.55340432458057
 31
0.0
  0
LINE
  5
191
330
17
100
AcDbEntity
  8
0
 62
11
100
AcDbLine
 10
95.28784552154126
 20
-23.55340432458057
 30
0.0
 11
95.29684552154126
 21
-23.55340432458057
 31
0.0
  0
LINE
  5
192
330
17
100
AcDbEntity
  8
0
 62
11
100
AcDbLine
 10
95.38912159421866
 20
-23.52419112114498
 30
0.0
 11
95.30847293853923
 21
-23.52419112114498
 31
0.0
  0
LINE
  5
193
330
17
100
AcDbEntity
  8
0-VENTANAS
 62
8
100
AcDbLine
 10
92.36370276303018
 20
-21.83057947372482
 30
0.0
 11
92.36370276303018
 21
-23.52057947372224
 31
0.0
  0
LINE
  5
194
330
17
100
AcDbEntity
  8
0-TEXTO
 62
12
100
AcDbLine
 10
93.94826538067375
 20
-22.25371441954034
 30
0.0
 11
93.19095317705771
 21
-22.25371441954034
 31
0.0
  0
LINE
  5
195
330
17
100
AcDbEntity
  8
0-TEXTO
 62
12
100
AcDbLine
 10
93.94826538067375
 20
-22.95603616695045
 30
0.0
 11
93.57925165270065
 21
-22.95603616695045
 31
0.0
  0
CIRCLE
  5
196
330
17
100
AcDbEntity
  8
0-TEXTO
100
AcDbCircle
 10
93.57925165270065
 20
-22.95603616695045
 30
0.0
 40
0.0143465129660836
  0
CIRCLE
  5
197
330
17
100
AcDbEntity
  8
0-TEXTO
100
AcDbCircle
 10
93.19095317705771
 20
-22.25371441954034
 30
0.0
 40
0.0143465129660836
  0
LINE
  5
198
330
17
100
AcDbEntity
  8
0-TEXTO DETALLE
 62
12
100
AcDbLine
 10
95.3599204619378
 20
-23.49284278259074
 30
0.0
 11
95.47895379368867
 21
-23.49284278259074
 31
0.0
  0
CIRCLE
  5
199
330
17
100
AcDbEntity
  8
0-TEXTO DETALLE
100
AcDbCircle
 10
95.3599204619378
 20
-23.49284278259074
 30
0.0
 40
0.0008966570603802
  0
LINE
  5
19A
330
17
100
AcDbEntity
  8
0-TEXTO DETALLE
 62
12
100
AcDbLine
 10
95.33642159421856
 20
-23.43156971255042
 30
0.0
 11
95.47895379368867
 21
-23.43156971255041
 31
0.0
  0
LINE
  5
19B
330
17
100
AcDbEntity
  8
0-TEXTO DETALLE
 62
12
100
AcDbLine
 10
95.32707699096397
 20
-23.4123544709347
 30
0.0
 11
95.47895379368867
 21
-23.4123544709347
 31
0.0
  0
LINE
  5
19C
330
17
100
AcDbEntity
  8
0-TEXTO DETALLE
 62
12
100
AcDbLine
 10
95.31742159421859
 20
-23.35382559431388
 30
0.0
 11
95.47895379368867
 21
-23.35382559431389
 31
0.0
  0
CIRCLE
  5
19D
330
17
100
AcDbEntity
  8
0-TEXTO DETALLE
100
AcDbCircle
 10
95.33642159421856
 20
-23.43156971255042
 30
0.0
 40
0.0008966570603802
  0
CIRCLE
  5
19E
330
17
100
AcDbEntity
  8
0-TEXTO DETALLE
100
AcDbCircle
 10
95.32707699096397
 20
-23.4123544709347
 30
0.0
 40
0.0008966570603802
  0
CIRCLE
  5
19F
330
17
100
AcDbEntity
  8
0-TEXTO DETALLE
100
AcDbCircle
 10
95.31742159421859
 20
-23.35382559431388
 30
0.0
 40
0.0008966570603802
  0
LINE
  5
1A0
330
17
100
AcDbEntity
  8
0-TEXTO DETALLE
 62
12
100
AcDbLine
 10
95.38701251660596
 20
-23.30648758877112
 30
0.0
 11
95.47895379368867
 21
-23.30648758877112
 31
0.0
  0
CIRCLE
  5
1A1
330
17
100
AcDbEntity
  8
0-TEXTO DETALLE
100
AcDbCircle
 10
95.38701251660596
 20
-23.30648758877112
 30
0.0
 40
0.0008966570603802
  0
ENDSEC
  0
SECTION
  2
OBJECTS
  0
DICTIONARY
  5
A
330
0
100
AcDbDictionary
281
1
  3
ACAD_COLOR
350
B
  3
ACAD_GROUP
350
C
  3
ACAD_LAYOUT
350
D
  3
ACAD_MATERIAL
350
E
  3
ACAD_MLEADERSTYLE
350
F
  3
ACAD_MLINESTYLE
350
10
  3
ACAD_PLOTSETTINGS
350
11
  3
ACAD_PLOTSTYLENAME
350
12
  3
ACAD_SCALELIST
350
14
  3
ACAD_TABLESTYLE
350
15
  3
ACAD_VISUALSTYLE
350
16
  3
EZDXF_META
350
2D
  0
DICTIONARY
  5
B
330
A
100
AcDbDictionary
281
1
  0
DICTIONARY
  5
C
330
A
100
AcDbDictionary
281
1
  0
DICTIONARY
  5
D
330
A
100
AcDbDictionary
281
1
  3
Model
350
1A
  3
Layout1
350
1E
  0
DICTIONARY
  5
E
330
A
100
AcDbDictionary
281
1
  3
ByBlock
350
1F
  3
ByLayer
350
20
  3
Global
350
21
  0
DICTIONARY
  5
F
330
A
100
AcDbDictionary
281
1
  3
Standard
350
2C
  0
DICTIONARY
  5
10
330
A
100
AcDbDictionary
281
1
  3
Standard
350
22
  0
DICTIONARY
  5
11
330
A
100
AcDbDictionary
281
1
  0
ACDBDICTIONARYWDFLT
  5
12
330
A
100
AcDbDictionary
281
1
  3
Normal
350
13
100
AcDbDictionaryWithDefault
340
13
  0
ACDBPLACEHOLDER
  5
13
330
12
  0
DICTIONARY
  5
14
330
A
100
AcDbDictionary
281
1
  0
DICTIONARY
  5
15
330
A
100
AcDbDictionary
281
1
  0
DICTIONARY
  5
16
330
A
100
AcDbDictionary
281
1
  0
LAYOUT
  5
1A
330
D
100
AcDbPlotSettings
  1

  4
A3
  6

 40
7.5
 41
20.0
 42
7.5
 43
20.0
 44
420.0
 45
297.0
 46
0.0
 47
0.0
 48
0.0
 49
0.0
140
0.0
141
0.0
142
1.0
143
1.0
 70
1024
 72
1
 73
0
 74
5
  7

 75
16
 76
0
 77
2
 78
300
147
1.0
148
0.0
149
0.0
100
AcDbLayout
  1
Model
 70
1
 71
0
 10
0.0
 20
0.0
 11
420.0
 21
297.0
 12
0.0
 22
0.0
 32
0.0
 14
1e+20
 24
1e+20
 34
1e+20
 15
-1e+20
 25
-1e+20
 35
-1e+20
146
0.0
 13
0.0
 23
0.0
 33
0.0
 16
1.0
 26
0.0
 36
0.0
 17
0.0
 27
1.0
 37
0.0
 76
1
330
17
  0
LAYOUT
  5
1E
330
D
100
AcDbPlotSettings
  1

  4
A3
  6

 40
7.5
 41
20.0
 42
7.5
 43
20.0
 44
420.0
 45
297.0
 46
0.0
 47
0.0
 48
0.0
 49
0.0
140
0.0
141
0.0
142
1.0
143
1.0
 70
0
 72
1
 73
0
 74
5
  7

 75
16
 76
0
 77
2
 78
300
147
1.0
148
0.0
149
0.0
100
AcDbLayout
  1
Layout1
 70
1
 71
1
 10
0.0
 20
0.0
 11
420.0
 21
297.0
 12
0.0
 22
0.0
 32
0.0
 14
1e+20
 24
1e+20
 34
1e+20
 15
-1e+20
 25
-1e+20
 35
-1e+20
146
0.0
 13
0.0
 23
0.0
 33
0.0
 16
1.0
 26
0.0
 36
0.0
 17
0.0
 27
1.0
 37
0.0
 76
1
330
1B
  0
MATERIAL
  5
1F
102
{ACAD_REACTORS
330
E
102
}
330
E
100
AcDbMaterial
  1
ByBlock
  2

 70
0
 40
1.0
 71
1
 41
1.0
 91
-1023410177
 42
1.0
 72
1
  3

 73
1
 74
1
 75
1
 44
0.5
 73
0
 45
1.0
 46
1.0
 77
1
  4

 78
1
 79
1
170
1
 48
1.0
171
1
  6

172
1
173
1
174
1
140
1.0
141
1.0
175
1
  7

176
1
177
1
178
1
143
1.0
179
1
  8

270
1
271
1
272
1
145
1.0
146
1.0
273
1
  9

274
1
275
1
276
1
 42
1.0
 72
1
  3

 73
1
 74
1
 75
1
 94
63
  0
MATERIAL
  5
20
102
{ACAD_REACTORS
330
E
102
}
330
E
100
AcDbMaterial
  1
ByLayer
  2

 70
0
 40
1.0
 71
1
 41
1.0
 91
-1023410177
 42
1.0
 72
1
  3

 73
1
 74
1
 75
1
 44
0.5
 73
0
 45
1.0
 46
1.0
 77
1
  4

 78
1
 79
1
170
1
 48
1.0
171
1
  6

172
1
173
1
174
1
140
1.0
141
1.0
175
1
  7

176
1
177
1
178
1
143
1.0
179
1
  8

270
1
271
1
272
1
145
1.0
146
1.0
273
1
  9

274
1
275
1
276
1
 42
1.0
 72
1
  3

 73
1
 74
1
 75
1
 94
63
  0
MATERIAL
  5
21
102
{ACAD_REACTORS
330
E
102
}
330
E
100
AcDbMaterial
  1
Global
  2

 70
0
 40
1.0
 71
1
 41
1.0
 91
-1023410177
 42
1.0
 72
1
  3

 73
1
 74
1
 75
1
 44
0.5
 73
0
 45
1.0
 46
1.0
 77
1
  4

 78
1
 79
1
170
1
 48
1.0
171
1
  6

172
1
173
1
174
1
140
1.0
141
1.0
175
1
  7

176
1
177
1
178
1
143
1.0
179
1
  8

270
1
271
1
272
1
145
1.0
146
1.0
273
1
  9

274
1
275
1
276
1
 42
1.0
 72
1
  3

 73
1
 74
1
 75
1
 94
63
  0
MLINESTYLE
  5
22
102
{ACAD_REACTORS
330
10
102
}
330
10
100
AcDbMlineStyle
  2
Standard
 70
0
  3

 62
256
 51
90.0
 52
90.0
 71
2
 49
0.5
 62
256
  6
BYLAYER
 49
-0.5
 62
256
  6
BYLAYER
  0
MLEADERSTYLE
  5
2C
102
{ACAD_REACTORS
330
F
102
}
330
F
100
AcDbMLeaderStyle
179
2
170
2
171
1
172
0
 90
2
 40
0.0
 41
0.0
173
1
 91
-1056964608
 92
-2
290
1
 42
2.0
291
1
 43
8.0
  3
Standard
 44
4.0
300

342
29
174
1
175
1
176
0
178
1
 93
-1056964608
 45
4.0
292
0
297
0
 46
4.0
 94
-1056964608
 47
1.0
 49
1.0
140
1.0
294
1
141
0.0
177
0
142
1.0
295
0
296
0
143
3.75
271
0
272
9
273
9
  0
DICTIONARY
  5
2D
330
A
100
AcDbDictionary
280
1
281
1
  3
CREATED_BY_EZDXF
350
2E
  3
WRITTEN_BY_EZDXF
350
1A4
  0
DICTIONARYVAR
  5
2E
330
2D
100
DictionaryVariables
280
0
  1
1.4.4 @ 2026-10-03T07:35:35.753643+00:00
  0
DICTIONARYVAR
  5
1A4
330
2D
100
DictionaryVariables
280
0
  1
1.4.4 @ 2026-10-03T07:35:35.762345+00:00
  0
ENDSEC
  0
EOF
