  0
SECTION
  2
HEADER
  9
$ACADVER
  1
AC1032
  9
$ACADMAINTVER
 90
4
  9
$DWGCODEPAGE
  3
ANSI_1252
  9
$LASTSAVEDBY
  1
ezdxf
  9
$REQUIREDVERSIONS
160
0
  9
$INSBASE
 10
0.0
 20
0.0
 30
0.0
  9
$EXTMIN
 10
1e+20
 20
1e+20
 30
1e+20
  9
$EXTMAX
 10
-1e+20
 20
-1e+20
 30
-1e+20
  9
$LIMMIN
 10
0.0
 20
0.0
  9
$LIMMAX
 10
420.0
 20
297.0
  9
$ORTHOMODE
 70
0
  9
$REGENMODE
 70
1
  9
$FILLMODE
 70
1
  9
$QTEXTMODE
 70
0
  9
$MIRRTEXT
 70
1
  9
$LTSCALE
 40
1.0
  9
$ATTMODE
 70
1
  9
$TEXTSIZE
 40
2.5
  9
$TRACEWID
 40
1.0
  9
$TEXTSTYLE
  7
Standard
  9
$CLAYER
  8
0
  9
$CELTYPE
  6
ByLayer
  9
$CECOLOR
 62
256
  9
$CELTSCALE
 40
1.0
  9
$DISPSILH
 70
0
  9
$DIMSCALE
 40
1.0
  9
$DIMASZ
 40
2.5
  9
$DIMEXO
 40
0.625
  9
$DIMDLI
 40
3.75
  9
$DIMRND
 40
0.0
  9
$DIMDLE
 40
0.0
  9
$DIMEXE
 40
1.25
  9
$DIMTP
 40
0.0
  9
$DIMTM
 40
0.0
  9
$DIMTXT
 40
2.5
  9
$DIMCEN
 40
2.5
  9
$DIMTSZ
 40
0.0
  9
$DIMTOL
 70
0
  9
$DIMLIM
 70
0
  9
$DIMTIH
 70
0
  9
$DIMTOH
 70
0
  9
$DIMSE1
 70
0
  9
$DIMSE2
 70
0
  9
$DIMTAD
 70
1
  9
$DIMZIN
 70
8
  9
$DIMBLK
  1

  9
$DIMASO
 70
1
  9
$DIMSHO
 70
1
  9
$DIMPOST
  1

  9
$DIMAPOST
  1

  9
$DIMALT
 70
0
  9
$DIMALTD
 70
3
  9
$DIMALTF
 40
0.03937007874
  9
$DIMLFAC
 40
1.0
  9
$DIMTOFL
 70
1
  9
$DIMTVP
 40
0.0
  9
$DIMTIX
 70
0
  9
$DIMSOXD
 70
0
  9
$DIMSAH
 70
0
  9
$DIMBLK1
  1

  9
$DIMBLK2
  1

  9
$DIMSTYLE
  2
ISO-25
  9
$DIMCLRD
 70
0
  9
$DIMCLRE
 70
0
  9
$DIMCLRT
 70
0
  9
$DIMTFAC
 40
1.0
  9
$DIMGAP
 40
0.625
  9
$DIMJUST
 70
0
  9
$DIMSD1
 70
0
  9
$DIMSD2
 70
0
  9
$DIMTOLJ
 70
0
  9
$DIMTZIN
 70
8
  9
$DIMALTZ
 70
0
  9
$DIMALTTZ
 70
0
  9
$DIMUPT
 70
0
  9
$DIMDEC
 70
2
  9
$DIMTDEC
 70
2
  9
$DIMALTU
 70
2
  9
$DIMALTTD
 70
3
  9
$DIMTXSTY
  7
Standard
  9
$DIMAUNIT
 70
0
  9
$DIMADEC
 70
0
  9
$DIMALTRND
 40
0.0
  9
$DIMAZIN
 70
0
  9
$DIMDSEP
 70
44
  9
$DIMATFIT
 70
3
  9
$DIMFRAC
 70
0
  9
$DIMLDRBLK
  1

  9
$DIMLUNIT
 70
2
  9
$DIMLWD
 70
-2
  9
$DIMLWE
 70
-2
  9
$DIMTMOVE
 70
0
  9
$DIMFXL
 40
1.0
  9
$DIMFXLON
 70
0
  9
$DIMJOGANG
 40
0.785398163397
  9
$DIMTFILL
 70
0
  9
$DIMTFILLCLR
 70
0
  9
$DIMARCSYM
 70
0
  9
$DIMLTYPE
  6

  9
$DIMLTEX1
  6

  9
$DIMLTEX2
  6

  9
$DIMTXTDIRECTION
 70
0
  9
$LUNITS
 70
2
  9
$LUPREC
 70
4
  9
$SKETCHINC
 40
1.0
  9
$FILLETRAD
 40
10.0
  9
$AUNITS
 70
0
  9
$AUPREC
 70
2
  9
$MENU
  1
.
  9
$ELEVATION
 40
0.0
  9
$PELEVATION
 40
0.0
  9
$THICKNESS
 40
0.0
  9
$LIMCHECK
 70
0
  9
$CHAMFERA
 40
0.0
  9
$CHAMFERB
 40
0.0
  9
$CHAMFERC
 40
0.0
  9
$CHAMFERD
 40
0.0
  9
$SKPOLY
 70
0
  9
$TDCREATE
 40
2461317.3164004628
  9
$TDUCREATE
 40
2458532.153996898
  9
$TDUPDATE
 40
2461317.3164004628
  9
$TDUUPDATE
 40
2458532.1544311
  9
$TDINDWG
 40
0.0
  9
$TDUSRTIMER
 40
0.0
  9
$USRTIMER
 70
1
  9
$ANGBASE
 50
0.0
  9
$ANGDIR
 70
0
  9
$PDMODE
 70
0
  9
$PDSIZE
 40
0.0
  9
$PLINEWID
 40
0.0
  9
$SPLFRAME
 70
0
  9
$SPLINETYPE
 70
6
  9
$SPLINESEGS
 70
8
  9
$HANDSEED
  5
1A6
  9
$SURFTAB1
 70
6
  9
$SURFTAB2
 70
6
  9
$SURFTYPE
 70
6
  9
$SURFU
 70
6
  9
$SURFV
 70
6
  9
$UCSBASE
  2

  9
$UCSNAME
  2

  9
$UCSORG
 10
0.0
 20
0.0
 30
0.0
  9
$UCSXDIR
 10
1.0
 20
0.0
 30
0.0
  9
$UCSYDIR
 10
0.0
 20
1.0
 30
0.0
  9
$UCSORTHOREF
  2

  9
$UCSORTHOVIEW
 70
0
  9
$UCSORGTOP
 10
0.0
 20
0.0
 30
0.0
  9
$UCSORGBOTTOM
 10
0.0
 20
0.0
 30
0.0
  9
$UCSORGLEFT
 10
0.0
 20
0.0
 30
0.0
  9
$UCSORGRIGHT
 10
0.0
 20
0.0
 30
0.0
  9
$UCSORGFRONT
 10
0.0
 20
0.0
 30
0.0
  9
$UCSORGBACK
 10
0.0
 20
0.0
 30
0.0
  9
$PUCSBASE
  2

  9
$PUCSNAME
  2

  9
$PUCSORG
 10
0.0
 20
0.0
 30
0.0
  9
$PUCSXDIR
 10
1.0
 20
0.0
 30
0.0
  9
$PUCSYDIR
 10
0.0
 20
1.0
 30
0.0
  9
$PUCSORTHOREF
  2

  9
$PUCSORTHOVIEW
 70
0
  9
$PUCSORGTOP
 10
0.0
 20
0.0
 30
0.0
  9
$PUCSORGBOTTOM
 10
0.0
 20
0.0
 30
0.0
  9
$PUCSORGLEFT
 10
0.0
 20
0.0
 30
0.0
  9
$PUCSORGRIGHT
 10
0.0
 20
0.0
 30
0.0
  9
$PUCSORGFRONT
 10
0.0
 20
0.0
 30
0.0
  9
$PUCSORGBACK
 10
0.0
 20
0.0
 30
0.0
  9
$USERI1
 70
0
  9
$USERI2
 70
0
  9
$USERI3
 70
0
  9
$USERI4
 70
0
  9
$USERI5
 70
0
  9
$USERR1
 40
0.0
  9
$USERR2
 40
0.0
  9
$USERR3
 40
0.0
  9
$USERR4
 40
0.0
  9
$USERR5
 40
0.0
  9
$WORLDVIEW
 70
1
  9
$SHADEDGE
 70
3
  9
$SHADEDIF
 70
70
  9
$TILEMODE
 70
1
  9
$MAXACTVP
 70
64
  9
$PINSBASE
 10
0.0
 20
0.0
 30
0.0
  9
$PLIMCHECK
 70
0
  9
$PEXTMIN
 10
1e+20
 20
1e+20
 30
1e+20
  9
$PEXTMAX
 10
-1e+20
 20
-1e+20
 30
-1e+20
  9
$PLIMMIN
 10
0.0
 20
0.0
  9
$PLIMMAX
 10
420.0
 20
297.0
  9
$UNITMODE
 70
0
  9
$VISRETAIN
 70
1
  9
$PLINEGEN
 70
0
  9
$PSLTSCALE
 70
1
  9
$TREEDEPTH
 70
3020
  9
$CMLSTYLE
  2
Standard
  9
$CMLJUST
 70
0
  9
$CMLSCALE
 40
20.0
  9
$PROXYGRAPHICS
 70
1
  9
$MEASUREMENT
 70
1
  9
$CELWEIGHT
370
-1
  9
$ENDCAPS
280
0
  9
$JOINSTYLE
280
0
  9
$LWDISPLAY
290
0
  9
$INSUNITS
 70
6
  9
$HYPERLINKBASE
  1

  9
$STYLESHEET
  1

  9
$XEDIT
290
1
  9
$CEPSNTYPE
380
0
  9
$PSTYLEMODE
290
1
  9
$FINGERPRINTGUID
  2
{43021566-5DBC-4DAF-9AE9-4BF95B39A419}
  9
$VERSIONGUID
  2
{84DE3718-3280-4812-B25A-9D4F01E2CF22}
  9
$EXTNAMES
290
1
  9
$PSVPSCALE
 40
0.0
  9
$OLESTARTUP
290
0
  9
$SORTENTS
280
127
  9
$INDEXCTL
280
0
  9
$HIDETEXT
280
1
  9
$XCLIPFRAME
280
1
  9
$HALOGAP
280
0
  9
$OBSCOLOR
 70
257
  9
$OBSLTYPE
280
0
  9
$INTERSECTIONDISPLAY
280
0
  9
$INTERSECTIONCOLOR
 70
257
  9
$DIMASSOC
280
2
  9
$PROJECTNAME
  1

  9
$CAMERADISPLAY
290
0
  9
$LENSLENGTH
 40
50.0
  9
$CAMERAHEIGHT
 40
0.0
  9
$STEPSPERSEC
 40
24.0
  9
$STEPSIZE
 40
100.0
  9
$3DDWFPREC
 40
2.0
  9
$PSOLWIDTH
 40
0.005
  9
$PSOLHEIGHT
 40
0.08
  9
$LOFTANG1
 40
1.570796326795
  9
$LOFTANG2
 40
1.570796326795
  9
$LOFTMAG1
 40
0.0
  9
$LOFTMAG2
 40
0.0
  9
$LOFTPARAM
 70
7
  9
$LOFTNORMALS
280
1
  9
$LATITUDE
 40
37.795
  9
$LONGITUDE
 40
-122.394
  9
$NORTHDIRECTION
 40
0.0
  9
$TIMEZONE
 70
-8000
  9
$LIGHTGLYPHDISPLAY
280
1
  9
$TILEMODELIGHTSYNCH
280
1
  9
$CMATERIAL
347
20
  9
$SOLIDHIST
280
0
  9
$SHOWHIST
280
1
  9
$DWFFRAME
280
2
  9
$DGNFRAME
280
2
  9
$REALWORLDSCALE
290
1
  9
$INTERFERECOLOR
 62
256
  9
$CSHADOW
280
0
  9
$SHADOWPLANELOCATION
 40
0.0
  0
ENDSEC
  0
SECTION
  2
CLASSES
  0
CLASS
  1
ACDBDICTIONARYWDFLT
  2
AcDbDictionaryWithDefault
  3
ObjectDBX Classes
 90
0
 91
0
280
0
281
0
  0
CLASS
  1
SUN
  2
AcDbSun
  3
SCENEOE
 90
1153
 91
0
280
0
281
0
  0
CLASS
  1
VISUALSTYLE
  2
AcDbVisualStyle
  3
ObjectDBX Classes
 90
4095
 91
0
280
0
281
0
  0
CLASS
  1
MATERIAL
  2
AcDbMaterial
  3
ObjectDBX Classes
 90
1153
 91
0
280
0
281
0
  0
CLASS
  1
SCALE
  2
AcDbScale
  3
ObjectDBX Classes
 90
1153
 91
0
280
0
281
0
  0
CLASS
  1
TABLESTYLE
  2
AcDbTableStyle
  3
ObjectDBX Classes
 90
4095
 91
0
280
0
281
0
  0
CLASS
  1
MLEADERSTYLE
  2
AcDbMLeaderStyle
  3
ACDB_MLEADERSTYLE_CLASS
 90
4095
 91
0
280
0
281
0
  0
CLASS
  1
DICTIONARYVAR
  2
AcDbDictionaryVar
  3
ObjectDBX Classes
 90
0
 91
0
280
0
281
0
  0
CLASS
  1
CELLSTYLEMAP
  2
AcDbCellStyleMap
  3
ObjectDBX Classes
 90
1152
 91
0
280
0
281
0
  0
CLASS
  1
MENTALRAYRENDERSETTINGS
  2
AcDbMentalRayRenderSettings
  3
SCENEOE
 90
1024
 91
0
280
0
281
0
  0
CLASS
  1
ACDBDETAILVIEWSTYLE
  2
AcDbDetailViewStyle
  3
ObjectDBX Classes
 90
1025
 91
0
280
0
281
0
  0
CLASS
  1
ACDBSECTIONVIEWSTYLE
  2
AcDbSectionViewStyle
  3
ObjectDBX Classes
 90
1025
 91
0
280
0
281
0
  0
CLASS
  1
RASTERVARIABLES
  2
AcDbRasterVariables
  3
ISM
 90
0
 91
0
280
0
281
0
  0
CLASS
  1
ACDBPLACEHOLDER
  2
AcDbPlaceHolder
  3
ObjectDBX Classes
 90
0
 91
0
280
0
281
0
  0
CLASS
  1
LAYOUT
  2
AcDbLayout
  3
ObjectDBX Classes
 90
0
 91
0
280
0
281
0
  0
ENDSEC
  0
SECTION
  2
TABLES
  0
TABLE
  2
VPORT
  5
8
330
0
100
AcDbSymbolTable
 70
1
  0
VPORT
  5
23
330
8
100
AcDbSymbolTableRecord
100
AcDbViewportTableRecord
  2
*Active
 70
0
 10
0.0
 20
0.0
 11
1.0
 21
1.0
 12
0.0
 22
0.0
 13
0.0
 23
0.0
 14
0.5
 24
0.5
 15
0.5
 25
0.5
 16
0.0
 26
0.0
 36
1.0
 17
0.0
 27
0.0
 37
0.0
 40
1000.0
 41
1.34
 42
50.0
 43
0.0
 44
0.0
 50
0.0
 51
0.0
 71
0
 72
1000
 73
1
 74
3
 75
0
 76
0
 77
0
 78
0
281
0
 65
0
146
0.0
  0
ENDTAB
  0
TABLE
  2
LTYPE
  5
2
330
0
100
AcDbSymbolTable
 70
3
  0
LTYPE
  5
24
330
2
100
AcDbSymbolTableRecord
100
AcDbLinetypeTableRecord
  2
ByBlock
 70
0
  3

 72
65
 73
0
 40
0.0
  0
LTYPE
  5
25
330
2
100
AcDbSymbolTableRecord
100
AcDbLinetypeTableRecord
  2
ByLayer
 70
0
  3

 72
65
 73
0
 40
0.0
  0
LTYPE
  5
26
330
2
100
AcDbSymbolTableRecord
100
AcDbLinetypeTableRecord
  2
Continuous
 70
0
  3

 72
65
 73
0
 40
0.0
  0
ENDTAB
  0
TABLE
  2
LAYER
  5
1
330
0
100
AcDbSymbolTable
 70
7
  0
LAYER
  5
27
330
1
100
AcDbSymbolTableRecord
100
AcDbLayerTableRecord
  2
0
 70
0
 62
7
  6
Continuous
370
-3
390
13
347
21
  0
LAYER
  5
28
330
1
100
AcDbSymbolTableRecord
100
AcDbLayerTableRecord
  2
Defpoints
 70
0
 62
7
  6
Continuous
290
0
370
-3
390
13
347
21
  0
LAYER
  5
32
330
1
100
AcDbSymbolTableRecord
100
AcDbLayerTableRecord
  2
0-VENTANAS
 70
0
 62
7
  6
Continuous
370
-3
390
13
347
21
  0
LAYER
  5
39
330
1
100
AcDbSymbolTableRecord
100
AcDbLayerTableRecord
  2
0-cortes
 70
0
 62
7
  6
Continuous
370
-3
390
13
347
21
  0
LAYER
  5
3B
330
1
100
AcDbSymbolTableRecord
100
AcDbLayerTableRecord
  2
0-COTAS REF
 70
0
 62
7
  6
Continuous
370
-3
390
13
347
21
  0
LAYER
  5
3F
330
1
100
AcDbSymbolTableRecord
100
AcDbLayerTableRecord
  2
0-TEXTO
 70
0
 62
7
  6
Continuous
370
-3
390
13
347
21
  0
LAYER
  5
B4
330
1
100
AcDbSymbolTableRecord
100
AcDbLayerTableRecord
  2
0-TEXTO DETALLE
 70
0
 62
7
  6
Continuous
370
-3
390
13
347
21
  0
ENDTAB
  0
TABLE
  2
STYLE
  5
5
330
0
100
AcDbSymbolTable
 70
1
  0
STYLE
  5
29
330
5
100
AcDbSymbolTableRecord
100
AcDbTextStyleTableRecord
  2
Standard
 70
0
 40
0.0
 41
1.0
 50
0.0
 71
0
 42
2.5
  3
txt
  4

  0
ENDTAB
  0
TABLE
  2
VIEW
  5
7
330
0
100
AcDbSymbolTable
 70
0
  0
ENDTAB
  0
TABLE
  2
UCS
  5
6
330
0
100
AcDbSymbolTable
 70
0
  0
ENDTAB
  0
TABLE
  2
APPID
  5
3
330
0
100
AcDbSymbolTable
 70
3
  0
APPID
  5
2A
330
3
100
AcDbSymbolTableRecord
100
AcDbRegAppTableRecord
  2
ACAD
 70
0
  0
APPID
  5
1A3
330
3
100
AcDbSymbolTableRecord
100
AcDbRegAppTableRecord
  2
HATCHBACKGROUNDCOLOR
 70
0
  0
APPID
  5
1A4
330
3
100
AcDbSymbolTableRecord
100
AcDbRegAppTableRecord
  2
EZDXF
 70
0
  0
ENDTAB
  0
TABLE
  2
DIMSTYLE
  5
4
330
0
100
AcDbSymbolTable
 70
1
100
AcDbDimStyleTable
  0
DIMSTYLE
105
2B
330
4
100
AcDbSymbolTableRecord
100
AcDbDimStyleTableRecord
  2
Standard
 70
0
 40
1.0
 41
2.5
 42
0.625
 43
3.75
 44
1.25
 45
0.0
 46
0.0
 47
0.0
 48
0.0
 49
2.5
140
2.5
141
2.5
142
0.0
143
0.03937007874
144
1.0
145
0.0
146
1.0
147
0.625
148
0.0
 69
0
 70
0
 71
0
 72
0
 73
0
 74
0
 75
0
 76
0
 77
1
 78
8
 79
3
170
0
171
3
172
1
173
0
174
0
175
0
176
0
177
0
178
0
179
2
271
2
272
2
273
2
274
3
275
0
276
0
277
2
278
44
279
0
280
0
281
0
282
0
283
0
284
8
285
0
286
0
288
0
289
3
290
0
371
-2
372
-2
  0
ENDTAB
  0
TABLE
  2
BLOCK_RECORD
  5
9
330
0
100
AcDbSymbolTable
 70
2
  0
BLOCK_RECORD
  5
17
330
9
100
AcDbSymbolTableRecord
100
AcDbBlockTableRecord
  2
*Model_Space
340
1A
 70
0
280
1
281
0
  0
BLOCK_RECORD
  5
1B
330
9
100
AcDbSymbolTableRecord
100
AcDbBlockTableRecord
  2
*Paper_Space
340
1E
 70
0
280
1
281
0
  0
ENDTAB
  0
ENDSEC
  0
SECTION
  2
BLOCKS
  0
BLOCK
  5
18
330
17
100
AcDbEntity
  8
0
100
AcDbBlockBegin
  2
*Model_Space
 70
0
 10
0.0
 20
0.0
 30
0.0
  3
*Model_Space
  1

  0
ENDBLK
  5
19
330
17
100
AcDbEntity
  8
0
100
AcDbBlockEnd
  0
BLOCK
  5
1C
330
1B
100
AcDbEntity
  8
0
100
AcDbBlockBegin
  2
*Paper_Space
 70
0
 10
0.0
 20
0.0
 30
0.0
  3
*Paper_Space
  1

  0
ENDBLK
  5
1D
330
1B
100
AcDbEntity
  8
0
100
AcDbBlockEnd
  0
ENDSEC
  0
SECTION
  2
ENTITIES
  0
LINE
  5
2F
330
17
100
AcDbEntity
  8
0
100
AcDbLine
 10
103.001118332313
 20
-24.42057947372224
 30
0.0
 11
103.001118332313
 21
-16.54836224814812
 31
0.0
  0
LINE
  5
30
330
17
100
AcDbEntity
  8
0
 62
4
100
AcDbLine
 10
107.350599690869
 20
-24.42057947372224
 30
0.0
 11
117.2260503958407
 21
-24.42057947372224
 31
0.0
  0
LINE
  5
31
330
17
100
AcDbEntity
  8
0
100
AcDbLine
 10
122.7783906222717
 20
-24.42057947372224
 30
0.0
 11
122.7783906222717
 21
-16.54836224814812
 31
0.0
  0
LWPOLYLINE
  5
33
330
17
100
AcDbEntity
  8
0-VENTANAS
 62
8
100
AcDbPolyline
 90
4
 70
1
 10
110.1183250470133
 20
-21.67057947372397
 10
114.4583250396963
 20
-21.67057947372397
 10
114.4583250396963
 20
-24.42057947372224
 10
110.1183250470133
 20
-24.42057947372224
  0
LWPOLYLINE
  5
34
330
17
100
AcDbEntity
  8
0-VENTANAS
 62
8
100
AcDbPolyline
 90
4
 70
1
 10
110.1833250470133
 20
-21.73557947372397
 10
114.3933250396963
 20
-21.73557947372397
 10
114.3933250396963
 20
-24.35557947372224
 10
110.1833250470133
 20
-24.35557947372224
  0
LINE
  5
35
330
17
100
AcDbEntity
  8
0-VENTANAS
 62
8
100
AcDbLine
 10
111.6191583779077
 20
-21.73557947372397
 30
0.0
 11
111.6191583779077
 21
-24.35557947372224
 31
0.0
  0
LINE
  5
36
330
17
100
AcDbEntity
  8
0-VENTANAS
 62
8
100
AcDbLine
 10
111.5541583779076
 20
-21.73557947372397
 30
0.0
 11
111.5541583779076
 21
-24.35557947372224
 31
0.0
  0
LINE
  5
37
330
17
100
AcDbEntity
  8
0-VENTANAS
 62
8
100
AcDbLine
 10
113.022491708802
 20
-21.73557947372397
 30
0.0
 11
113.022491708802
 21
-24.35557947372224
 31
0.0
  0
LINE
  5
38
330
17
100
AcDbEntity
  8
0-VENTANAS
 62
8
100
AcDbLine
 10
112.957491708802
 20
-21.73557947372397
 30
0.0
 11
112.957491708802
 21
-24.35557947372224
 31
0.0
  0
LWPOLYLINE
  5
3A
330
17
100
AcDbEntity
  8
0-cortes
 62
251
100
AcDbPolyline
 90
195
 70
0
 10
110.8461721875589
 20
-22.99655473762063
 10
110.8381534397897
 20
-22.95358997611035
 10
110.8339358345838
 20
-22.91451005672748
 10
110.8443700674393
 20
-22.89112205294638
 10
110.8471356840444
 20
-22.85138962961893
 10
110.8430673676283
 20
-22.82051985886997
 10
110.8526988930542
 20
-22.79265108722228
 10
110.8532767230231
 20
-22.7663652173395
 10
110.8773137577616
 20
-22.74127479354477
 10
110.8937033288923
 20
-22.73270506926907
 10
110.9100993506915
 20
-22.72066711843682
 10
110.9403765879415
 20
-22.72154889843683
 10
110.9688177091834
 20
-22.72375184895752
 10
111.0053545247537
 20
-22.74018835520184
 10
111.0292826049237
 20
-22.76735806873245
 10
111.0487648504641
 20
-22.80231985057101
 10
111.0583212080697
 20
-22.82750475064111
 10
111.071365741618
 20
-22.84789051642984
 10
111.075422415566
 20
-22.8723804982961
 10
111.080992539099
 20
-22.89208047095132
 10
111.0865630480838
 20
-22.90525350092059
 10
111.0865210235254
 20
-22.92784816506781
 10
111.084216040216
 20
-22.94110893057568
 10
111.0904925645168
 20
-22.96651169411936
 10
111.0872921594986
 20
-22.99354136499117
 10
111.0880582310949
 20
-23.0050801221422
 10
111.1009439756755
 20
-23.00972414085668
 10
111.114948755155
 20
-23.01940622566494
 10
111.1248907797634
 20
-23.03946627278901
 10
111.1280479992644
 20
-23.06093427066544
 10
111.1327365104992
 20
-23.09281452137379
 10
111.1371112664341
 20
-23.12256134483453
 10
111.1417042187247
 20
-23.15690573834187
 10
111.1416164920129
 20
-23.20407233970891
 10
111.1478875250728
 20
-23.23874719205144
 10
111.1466398879592
 20
-23.27757378581405
 10
111.1481641092886
 20
-23.29859081893505
 10
111.1608334308371
 20
-23.34375907489381
 10
111.1704237604028
 20
-23.3779502080884
 10
111.1771336501919
 20
-23.40187209043142
 10
111.1770783064401
 20
-23.43162786975562
 10
111.1806041107869
 20
-23.47011139877247
 10
111.1882054994852
 20
-23.51628126504763
 10
111.1953979481497
 20
-23.55481000756122
 10
111.1953490682683
 20
-23.58109046229127
 10
111.1998047490162
 20
-23.61224250793279
 10
111.205009781512
 20
-23.64496369352882
 10
111.2116336634606
 20
-23.66687966768966
 10
111.2091579519731
 20
-23.68977695562012
 10
111.2019689966722
 20
-23.70624731622056
 10
111.1963100176781
 20
-23.71536171373554
 10
111.2706286009489
 20
-23.90044280232538
 10
111.2912013459495
 20
-23.9494651365932
 10
111.3009448897461
 20
-23.97512390816213
 10
111.3163647090582
 20
-24.02660665848507
 10
111.3292757507381
 20
-24.07452691859802
 10
111.3309668330206
 20
-24.1195851702711
 10
111.3293724928475
 20
-24.16154661160858
 10
111.3254323287728
 20
-24.18184959528682
 10
111.320345116069
 20
-24.20806312206826
 10
111.2932194681196
 20
-24.21683040905376
 10
111.2708436905592
 20
-24.22085853279042
 10
111.2462557180753
 20
-24.23249730929606
 10
111.2245692524827
 20
-24.23245697392604
 10
111.2035442656121
 20
-24.23699312820879
 10
111.1410203087572
 20
-24.23873893640515
 10
111.1257709354777
 20
-24.22200927724013
 10
111.1326491735628
 20
-24.19564554019577
 10
111.1294514191069
 20
-24.17701220803224
 10
111.1137399113381
 20
-24.12436430371834
 10
111.1073661420538
 20
-24.08172894892829
 10
111.1151877534041
 20
-24.01581496926505
 10
111.1239710845829
 20
-23.95736397050129
 10
111.1347321532286
 20
-23.89728491434573
 10
111.1656612598283
 20
-23.71831862120419
 10
111.1568351280974
 20
-23.70498596085734
 10
111.1479425846289
 20
-23.69576131195332
 10
111.1453026405392
 20
-23.7121633458403
 10
111.1440129396676
 20
-23.72936776160387
 10
111.1404585543144
 20
-23.73816612531541
 10
111.1282095899315
 20
-23.73873844672686
 10
111.1187988654243
 20
-23.74268830116622
 10
111.089262796222
 20
-23.74145595666262
 10
111.0786623796974
 20
-23.79099621771352
 10
111.0676189772589
 20
-23.84260674060461
 10
111.0597224675282
 20
-23.88786690339157
 10
111.056426191607
 20
-23.92220401297448
 10
111.056759118009
 20
-23.95175504850438
 10
111.0574175288165
 20
-23.97062041933223
 10
111.0614838100587
 20
-24.00258440916043
 10
111.0573126050868
 20
-24.05863157669595
 10
111.051576630024
 20
-24.11546290645116
 10
111.0364790967717
 20
-24.18140814613702
 10
111.0222975730955
 20
-24.24147444151146
 10
111.0139941750112
 20
-24.26939687509917
 10
111.0109367885413
 20
-24.289048806344
 10
111.0081752706896
 20
-24.32025781708708
 10
111.0148422391364
 20
-24.33164757540693
 10
111.0166238220018
 20
-24.35964635705972
 10
111.0369826536167
 20
-24.38464658215423
 10
111.0415101824355
 20
-24.39612834572209
 10
111.0345408743956
 20
-24.4208985713162
 10
110.9549638490141
 20
-24.42140325773208
 10
110.9461190290701
 20
-24.40547898215675
 10
110.9514602258968
 20
-24.3839500031943
 10
110.9491200195516
 20
-24.35927124491837
 10
110.9491675307488
 20
-24.33372666851643
 10
110.9562223772012
 20
-24.32616341653864
 10
110.9533453587211
 20
-24.21724129717994
 10
110.953440869081
 20
-24.16588978775498
 10
110.9503629818577
 20
-24.13968670398136
 10
110.9499923879893
 20
-24.07983010431733
 10
110.9542239045767
 20
-24.04823349086238
 10
110.9562941036899
 20
-24.01585218387848
 10
110.9537383515363
 20
-23.98698810216778
 10
110.9516998858998
 20
-23.96438956844849
 10
110.9478061683815
 20
-23.9344415732744
 10
110.9452104278275
 20
-23.91447679020551
 10
110.9452519495686
 20
-23.89215246769034
 10
110.9421610796648
 20
-23.88553018997836
 10
110.9379536089166
 20
-23.89787876408257
 10
110.9342501543968
 20
-23.92362770649175
 10
110.9305051523513
 20
-23.94966551564511
 10
110.9219766927134
 20
-23.975289311879
 10
110.9257569909686
 20
-23.99670087796338
 10
110.9307420026534
 20
-24.02764274230945
 10
110.9367912342641
 20
-24.05517593815731
 10
110.9367406881584
 20
-24.08235224476523
 10
110.9387482975401
 20
-24.11522105850769
 10
110.9375460604397
 20
-24.13595786514159
 10
110.9347083377328
 20
-24.15758108589646
 10
110.9314441228255
 20
-24.19363957645912
 10
110.9283997291011
 20
-24.24422412442952
 10
110.926291133515
 20
-24.31620854893977
 10
110.9353587757506
 20
-24.32608621785528
 10
110.9399001953314
 20
-24.39329658578597
 10
110.9254759647999
 20
-24.40058377367546
 10
110.9032349084678
 20
-24.42065435103515
 10
110.8227187624995
 20
-24.42050459640932
 10
110.8137232401723
 20
-24.40976960043951
 10
110.822898168847
 20
-24.38724311459404
 10
110.8432816835895
 20
-24.36737384918369
 10
110.8557904247361
 20
-24.34088620625047
 10
110.8602127748031
 20
-24.33308129633313
 10
110.862225855427
 20
-24.31877055779014
 10
110.8725764979302
 20
-24.31504641528029
 10
110.8748092185139
 20
-24.30271976412998
 10
110.8715325007319
 20
-24.28862315066135
 10
110.8381855007605
 20
-24.18133368571107
 10
110.8370198091887
 20
-24.10658521770937
 10
110.8293111067494
 20
-24.04859626510763
 10
110.829060668451
 20
-23.99365429336928
 10
110.8293975629984
 20
-23.93259600433172
 10
110.8294745901696
 20
-23.89118205180795
 10
110.8247433146307
 20
-23.86285143675596
 10
110.8176171540876
 20
-23.82660084876062
 10
110.8152986251627
 20
-23.78394744058785
 10
110.8137054075093
 20
-23.75463740604248
 10
110.7972025491741
 20
-23.73679181131746
 10
110.7925295281748
 20
-23.71505863662239
 10
110.7901075021189
 20
-23.69645234311822
 10
110.7824923624657
 20
-23.66399543137777
 10
110.7723953958063
 20
-23.63876473306226
 10
110.7714681733252
 20
-23.58747531106398
 10
110.7648900703378
 20
-23.56622491431816
 10
110.7717552258645
 20
-23.53425566037088
 10
110.7827946631687
 20
-23.50146230497254
 10
110.7912784846367
 20
-23.46501038778802
 10
110.80081969721
 20
-23.44146074894601
 10
110.8091206865702
 20
-23.42115307818218
 10
110.8170676368816
 20
-23.41424417979721
 10
110.8133737861592
 20
-23.40323109119533
 10
110.81515746021
 20
-23.38586762008648
 10
110.7802910311427
 20
-23.37505891011043
 10
110.754579514954
 20
-23.36512468885018
 10
110.7337713016583
 20
-23.35422694485824
 10
110.7266503429114
 20
-23.3467781040445
 10
110.7217511863782
 20
-23.33919261842371
 10
110.7212102175754
 20
-23.3267008342942
 10
110.7208166901149
 20
-23.31077308066326
 10
110.7209952376457
 20
-23.29693245335696
 10
110.7242517979194
 20
-23.28394861317581
 10
110.7298191045772
 20
-23.26724487370912
 10
110.7345257230026
 20
-23.23931575035274
 10
110.7387142244996
 20
-23.2182069590862
 10
110.7474200470451
 20
-23.17614996223857
 10
110.7570887503799
 20
-23.11565294168848
 10
110.7619108278446
 20
-23.08884385179931
 10
110.7709779264091
 20
-23.06109561067424
 10
110.7822402198047
 20
-23.04119658247673
 10
110.7957379573497
 20
-23.02646567610048
 10
110.8148956882239
 20
-23.01471441628355
 10
110.8311089704292
 20
-23.0061315661935
 10
110.8435539638938
 20
-23.00127870238592
 10
110.8461721875589
 20
-22.99655473762063
  0
LINE
  5
3C
330
17
100
AcDbEntity
  8
0-COTAS REF
100
AcDbLine
 10
109.4933250470133
 20
-21.00557947372397
 30
0.0
 11
114.8233250470133
 21
-21.00557947372397
 31
0.0
  0
LINE
  5
3D
330
17
100
AcDbEntity
  8
0-COTAS REF
100
AcDbLine
 10
109.4933250470133
 20
-21.40557947372397
 30
0.0
 11
114.8233250470133
 21
-21.40557947372397
 31
0.0
  0
LINE
  5
3E
330
17
100
AcDbEntity
  8
0-COTAS REF
100
AcDbLine
 10
109.4933250470133
 20
-21.20557947372397
 30
0.0
 11
114.8233250470133
 21
-21.20557947372397
 31
0.0
  0
LINE
  5
40
330
17
100
AcDbEntity
  8
0-TEXTO
 62
4
100
AcDbLine
 10
109.4488746868511
 20
-22.9208225838895
 30
0.0
 11
109.0488746874099
 21
-22.9208225838895
 31
0.0
  0
LINE
  5
41
330
17
100
AcDbEntity
  8
0-TEXTO
 62
4
100
AcDbLine
 10
109.4488746868511
 20
-22.93082258389881
 30
0.0
 11
109.0488746874099
 21
-22.93082258389881
 31
0.0
  0
LINE
  5
42
330
17
100
AcDbEntity
  8
0-TEXTO
 62
251
100
AcDbLine
 10
109.1488746870374
 20
-22.9208225838895
 30
0.0
 11
109.1488746870374
 21
-22.32082258391278
 31
0.0
  0
LINE
  5
43
330
17
100
AcDbEntity
  8
0-TEXTO
 62
251
100
AcDbLine
 10
109.2195853646909
 20
-22.85011190577029
 30
0.0
 11
109.1488746870374
 21
-22.9208225838895
 31
0.0
  0
LINE
  5
44
330
17
100
AcDbEntity
  8
0-TEXTO
 62
251
100
AcDbLine
 10
109.1488746870374
 20
-22.9208225838895
 30
0.0
 11
109.0781640084525
 21
-22.85011190577029
 31
0.0
  0
LINE
  5
45
330
17
100
AcDbEntity
  8
0-TEXTO
 62
4
100
AcDbLine
 10
111.8608873711879
 20
-20.93274669388116
 30
0.0
 11
111.8608873711879
 21
-20.53274669443995
 31
0.0
  0
LINE
  5
46
330
17
100
AcDbEntity
  8
0-TEXTO
 62
4
100
AcDbLine
 10
111.8508873711785
 20
-20.93274669388116
 30
0.0
 11
111.8508873711785
 21
-20.53274669443995
 31
0.0
  0
LINE
  5
47
330
17
100
AcDbEntity
  8
0-TEXTO
 62
251
100
AcDbLine
 10
111.8608873711879
 20
-20.63274669406743
 30
0.0
 11
112.4608873711646
 21
-20.63274669406743
 31
0.0
  0
LINE
  5
48
330
17
100
AcDbEntity
  8
0-TEXTO
 62
251
100
AcDbLine
 10
111.9315980493071
 20
-20.70345737172098
 30
0.0
 11
111.8608873711879
 21
-20.63274669406743
 31
0.0
  0
LINE
  5
49
330
17
100
AcDbEntity
  8
0-TEXTO
 62
251
100
AcDbLine
 10
111.8608873711879
 20
-20.63274669406743
 30
0.0
 11
111.9315980493071
 21
-20.56203601548255
 31
0.0
  0
LINE
  5
4A
330
17
100
AcDbEntity
  8
0-COTAS REF
100
AcDbLine
 10
109.8933250470135
 20
-23.96256002655725
 30
0.0
 11
109.8933250470135
 21
-20.84557947372139
 31
0.0
  0
LINE
  5
4B
330
17
100
AcDbEntity
  8
0-VENTANAS
 62
8
100
AcDbLine
 10
111.5866583779077
 20
-21.67057947372397
 30
0.0
 11
111.5866583779077
 21
-24.42057947372224
 31
0.0
  0
LINE
  5
4C
330
17
100
AcDbEntity
  8
0-VENTANAS
 62
8
100
AcDbLine
 10
112.989991708802
 20
-21.67057947372396
 30
0.0
 11
112.989991708802
 21
-24.42057947372223
 31
0.0
  0
LWPOLYLINE
  5
4D
330
17
100
AcDbEntity
  8
0-TEXTO
  6
CONTINUOUS
 48
5.0
100
AcDbPolyline
 90
8
 70
1
 10
116.3059466889302
 20
-24.07202151449764
 10
116.5689482462824
 20
-24.07202151449764
 42
-0.4142135623730951
 10
116.6439482463523
 20
-24.14702151561523
 10
116.6439482463523
 20
-24.41553053385014
 42
-0.4142135623730951
 10
116.5689482462824
 20
-24.49053053496772
 10
116.3059466889302
 20
-24.49053053496772
 42
-0.4142135623730951
 10
116.2309466889477
 20
-24.41553053385014
 10
116.2309466889477
 20
-24.14702151561523
 42
-0.4142135623730951
  0
LINE
  5
4E
330
17
100
AcDbEntity
  8
0
 62
4
100
AcDbLine
 10
116.5340403114857
 20
-21.66557947372397
 30
0.0
 11
116.3018295609179
 21
-21.66557947372397
 31
0.0
  0
LINE
  5
4F
330
17
100
AcDbEntity
  8
0
 62
4
100
AcDbLine
 10
116.3018295609179
 20
-21.66557947372397
 30
0.0
 11
116.3018295609179
 21
-21.61557947372397
 31
0.0
  0
LINE
  5
50
330
17
100
AcDbEntity
  8
0
 62
4
100
AcDbLine
 10
116.5340403114857
 20
-21.66557947372397
 30
0.0
 11
116.5340403114857
 21
-21.61557947372397
 31
0.0
  0
LWPOLYLINE
  5
51
330
17
100
AcDbEntity
  8
0
 62
8
100
AcDbPolyline
 90
4
 70
1
 10
116.3515231927675
 20
-21.67057947372397
 10
116.5215231927675
 20
-21.67057947372397
 10
116.5215231927675
 20
-24.42057947372224
 10
116.3515231927675
 20
-24.42057947372224
  0
LWPOLYLINE
  5
52
330
17
100
AcDbEntity
  8
0
 62
8
100
AcDbPolyline
 90
6
 70
0
 10
115.1219523654254
 20
-24.17917624852954
 10
114.651734787269
 20
-24.17917624852954
 10
114.651734787269
 20
-24.42057947372224
 10
114.5456687700911
 20
-24.31451345654427
 10
114.651734787269
 20
-24.42057947372224
 10
114.7613363383529
 20
-24.31097792263831
  0
LINE
  5
53
330
17
100
AcDbEntity
  8
0
 62
11
100
AcDbLine
 10
116.3338231927675
 20
-21.67057947372397
 30
0.0
 11
116.3318231927675
 21
-21.67057947372397
 31
0.0
  0
LINE
  5
54
330
17
100
AcDbEntity
  8
0
 62
11
100
AcDbLine
 10
116.3308231927675
 20
-21.67057947372396
 30
0.0
 11
116.3288231927675
 21
-21.67057947372397
 31
0.0
  0
LINE
  5
55
330
17
100
AcDbEntity
  8
0
 62
11
100
AcDbLine
 10
116.3313231927675
 20
-21.67107947372396
 30
0.0
 11
116.3308231927675
 21
-21.67057947372397
 31
0.0
  0
LINE
  5
56
330
17
100
AcDbEntity
  8
0
 62
11
100
AcDbLine
 10
116.3313231927675
 20
-21.67107947372396
 30
0.0
 11
116.3318231927675
 21
-21.67057947372397
 31
0.0
  0
LINE
  5
57
330
17
100
AcDbEntity
  8
0
 62
11
100
AcDbLine
 10
116.3283231927675
 20
-21.67107947372397
 30
0.0
 11
116.3288231927675
 21
-21.67057947372397
 31
0.0
  0
LINE
  5
58
330
17
100
AcDbEntity
  8
0
 62
11
100
AcDbLine
 10
116.3343231927675
 20
-21.67107947372397
 30
0.0
 11
116.3338231927675
 21
-21.67057947372397
 31
0.0
  0
LWPOLYLINE
  5
59
330
17
100
AcDbEntity
  8
0
 62
11
100
AcDbPolyline
 90
14
 70
1
 10
116.3585231927675
 20
-21.71207947372396
 42
-0.4142135623730951
 10
116.3575231927675
 20
-21.71307947372397
 10
116.3545231927675
 20
-21.71307947372397
 10
116.3545231927675
 20
-21.73187947372396
 42
0.4142135623730966
 10
116.3555231927675
 20
-21.73287947372396
 10
116.5175231927675
 20
-21.73287947372396
 42
0.4142135623730951
 10
116.5185231927675
 20
-21.73187947372396
 10
116.5185231927675
 20
-21.67427947372396
 42
0.4142135623730951
 10
116.5175231927675
 20
-21.67327947372397
 10
116.3555231927675
 20
-21.67327947372397
 42
0.4142135623730948
 10
116.3545231927675
 20
-21.67427947372396
 10
116.3545231927675
 20
-21.69307947372397
 10
116.3575231927675
 20
-21.69307947372397
 42
-0.4142135623730951
 10
116.3585231927675
 20
-21.69407947372397
  0
LWPOLYLINE
  5
5A
330
17
100
AcDbEntity
  8
0
 62
11
100
AcDbPolyline
 90
11
 70
1
 10
116.3515231927675
 20
-21.70407947372396
 10
116.3515231927675
 20
-21.73457947372396
 42
0.4142135623730951
 10
116.3525231927675
 20
-21.73557947372396
 10
116.5205231927675
 20
-21.73557947372396
 42
0.4142135623730951
 10
116.5215231927675
 20
-21.73457947372396
 10
116.5215231927675
 20
-21.67157947372396
 42
0.4142135623730951
 10
116.5205231927675
 20
-21.67057947372397
 10
116.3525231927675
 20
-21.67057947372397
 42
0.4142135623730951
 10
116.3515231927675
 20
-21.67157947372396
 10
116.3515231927675
 20
-21.70207947372396
 10
116.3525231927675
 20
-21.70307947372396
  0
LINE
  5
5B
330
17
100
AcDbEntity
  8
0
100
AcDbLine
 10
116.3355231927675
 20
-21.68357947372397
 30
0.0
 11
116.3343231927675
 21
-21.68357947372397
 31
0.0
  0
LINE
  5
5C
330
17
100
AcDbEntity
  8
0
100
AcDbLine
 10
116.3343231927675
 20
-21.67107947372397
 30
0.0
 11
116.3355231927675
 21
-21.67107947372397
 31
0.0
  0
LWPOLYLINE
  5
5D
330
17
100
AcDbEntity
  8
0
 62
11
100
AcDbPolyline
 90
14
 70
1
 10
116.3585231927675
 20
-24.37907947372224
 42
0.4142135623730951
 10
116.3575231927675
 20
-24.37807947372224
 10
116.3545231927675
 20
-24.37807947372224
 10
116.3545231927675
 20
-24.35927947372224
 42
-0.4142135623730966
 10
116.3555231927675
 20
-24.35827947372224
 10
116.5175231927675
 20
-24.35827947372224
 42
-0.4142135623730951
 10
116.5185231927675
 20
-24.35927947372224
 10
116.5185231927675
 20
-24.41687947372224
 42
-0.4142135623730951
 10
116.5175231927675
 20
-24.41787947372224
 10
116.3555231927675
 20
-24.41787947372224
 42
-0.4142135623730948
 10
116.3545231927675
 20
-24.41687947372224
 10
116.3545231927675
 20
-24.39807947372224
 10
116.3575231927675
 20
-24.39807947372224
 42
0.4142135623730951
 10
116.3585231927675
 20
-24.39707947372224
  0
LWPOLYLINE
  5
5E
330
17
100
AcDbEntity
  8
0
 62
11
100
AcDbPolyline
 90
11
 70
1
 10
116.3515231927675
 20
-24.38707947372224
 10
116.3515231927675
 20
-24.35657947372224
 42
-0.4142135623730951
 10
116.3525231927675
 20
-24.35557947372224
 10
116.5205231927675
 20
-24.35557947372224
 42
-0.4142135623730951
 10
116.5215231927675
 20
-24.35657947372224
 10
116.5215231927675
 20
-24.41957947372224
 42
-0.4142135623730951
 10
116.5205231927675
 20
-24.42057947372224
 10
116.3525231927675
 20
-24.42057947372224
 42
-0.4142135623730951
 10
116.3515231927675
 20
-24.41957947372224
 10
116.3515231927675
 20
-24.38907947372224
 10
116.3525231927675
 20
-24.38807947372224
  0
LINE
  5
5F
330
17
100
AcDbEntity
  8
0
 62
8
100
AcDbLine
 10
116.3355231927675
 20
-24.40757947372223
 30
0.0
 11
116.3343231927675
 21
-24.40757947372223
 31
0.0
  0
LINE
  5
60
330
17
100
AcDbEntity
  8
0
 62
11
100
AcDbLine
 10
116.3338231927675
 20
-21.67057947372397
 30
0.0
 11
116.3318231927675
 21
-21.67057947372397
 31
0.0
  0
LINE
  5
61
330
17
100
AcDbEntity
  8
0
 62
11
100
AcDbLine
 10
116.3308231927675
 20
-21.67057947372396
 30
0.0
 11
116.3288231927675
 21
-21.67057947372397
 31
0.0
  0
LINE
  5
62
330
17
100
AcDbEntity
  8
0
 62
11
100
AcDbLine
 10
116.3158231927675
 20
-21.67057947372397
 30
0.0
 11
116.3128231927675
 21
-21.67057947372397
 31
0.0
  0
LINE
  5
63
330
17
100
AcDbEntity
  8
0
 62
11
100
AcDbLine
 10
116.3118231927675
 20
-21.67057947372397
 30
0.0
 11
116.3088231927675
 21
-21.67057947372397
 31
0.0
  0
LINE
  5
64
330
17
100
AcDbEntity
  8
0
 62
11
100
AcDbLine
 10
116.3083231927675
 20
-21.67107947372397
 30
0.0
 11
116.3088231927675
 21
-21.67057947372397
 31
0.0
  0
LINE
  5
65
330
17
100
AcDbEntity
  8
0
 62
11
100
AcDbLine
 10
116.3163231927675
 20
-21.67107947372396
 30
0.0
 11
116.3158231927675
 21
-21.67057947372397
 31
0.0
  0
LINE
  5
66
330
17
100
AcDbEntity
  8
0
 62
11
100
AcDbLine
 10
116.3123231927675
 20
-21.67107947372396
 30
0.0
 11
116.3118231927675
 21
-21.67057947372397
 31
0.0
  0
LINE
  5
67
330
17
100
AcDbEntity
  8
0
 62
11
100
AcDbLine
 10
116.3123231927675
 20
-21.67107947372396
 30
0.0
 11
116.3128231927675
 21
-21.67057947372397
 31
0.0
  0
LINE
  5
68
330
17
100
AcDbEntity
  8
0
 62
8
100
AcDbLine
 10
116.3163231927675
 20
-21.68326497079045
 30
0.0
 11
116.3283231927675
 21
-21.68326497079045
 31
0.0
  0
LWPOLYLINE
  5
69
330
17
100
AcDbEntity
  8
0
 62
8
100
AcDbPolyline
 90
6
 70
1
 10
116.3273231927675
 20
-21.68326497079045
 10
116.3173231927675
 20
-21.68326497079045
 10
116.3173231927675
 20
-21.67826497079045
 10
116.3208231927675
 20
-21.67526497079045
 10
116.3238231927675
 20
-21.67526497079045
 10
116.3273231927675
 20
-21.67826497079045
  0
LWPOLYLINE
  5
6A
330
17
100
AcDbEntity
  8
0
 62
8
100
AcDbPolyline
 90
6
 70
1
 10
116.3268231927675
 20
-21.68276497079045
 10
116.3178231927675
 20
-21.68276497079045
 10
116.3178231927675
 20
-21.67841635860931
 10
116.3210907846467
 20
-21.67576497079044
 10
116.3235556008882
 20
-21.67576497079044
 10
116.3268231927675
 20
-21.67841635860931
  0
LINE
  5
6B
330
17
100
AcDbEntity
  8
0
 62
11
100
AcDbLine
 10
116.3313231927675
 20
-21.67107947372396
 30
0.0
 11
116.3308231927675
 21
-21.67057947372397
 31
0.0
  0
LINE
  5
6C
330
17
100
AcDbEntity
  8
0
 62
11
100
AcDbLine
 10
116.3313231927675
 20
-21.67107947372396
 30
0.0
 11
116.3318231927675
 21
-21.67057947372397
 31
0.0
  0
LINE
  5
6D
330
17
100
AcDbEntity
  8
0
 62
11
100
AcDbLine
 10
116.3283231927675
 20
-21.67107947372397
 30
0.0
 11
116.3288231927675
 21
-21.67057947372397
 31
0.0
  0
LINE
  5
6E
330
17
100
AcDbEntity
  8
0
 62
11
100
AcDbLine
 10
116.3343231927675
 20
-21.67107947372397
 30
0.0
 11
116.3338231927675
 21
-21.67057947372397
 31
0.0
  0
ARC
  5
6F
330
17
100
AcDbEntity
  8
0
 62
8
100
AcDbCircle
 10
116.3223231927675
 20
-21.65888882755712
 30
0.0
 40
0.0133761432333217
100
AcDbArc
 50
240.9259378909825
 51
299.0740621090306
  0
LINE
  5
70
330
17
100
AcDbEntity
  8
0
 62
8
100
AcDbLine
 10
116.3273231927675
 20
-21.67826497079045
 30
0.0
 11
116.3283231927675
 21
-21.67826497079045
 31
0.0
  0
LINE
  5
71
330
17
100
AcDbEntity
  8
0
 62
8
100
AcDbLine
 10
116.3173231927675
 20
-21.67826497079045
 30
0.0
 11
116.3163231927675
 21
-21.67826497079045
 31
0.0
  0
LINE
  5
72
330
17
100
AcDbEntity
  8
0
 62
8
100
AcDbLine
 10
116.3355231927675
 20
-21.68357947372397
 30
0.0
 11
116.3343231927675
 21
-21.68357947372397
 31
0.0
  0
LINE
  5
73
330
17
100
AcDbEntity
  8
0
 62
8
100
AcDbLine
 10
116.3343231927675
 20
-21.67107947372397
 30
0.0
 11
116.3355231927675
 21
-21.67107947372397
 31
0.0
  0
LINE
  5
74
330
17
100
AcDbEntity
  8
0
 62
11
100
AcDbLine
 10
116.3158231927676
 20
-24.41141454398718
 30
0.0
 11
116.3128231927676
 21
-24.41141454398718
 31
0.0
  0
LINE
  5
75
330
17
100
AcDbEntity
  8
0
 62
11
100
AcDbLine
 10
116.3118231927676
 20
-24.41141454398718
 30
0.0
 11
116.3088231927676
 21
-24.41141454398718
 31
0.0
  0
LINE
  5
76
330
17
100
AcDbEntity
  8
0
 62
11
100
AcDbLine
 10
116.3083231927676
 20
-24.41091454398718
 30
0.0
 11
116.3088231927676
 21
-24.41141454398718
 31
0.0
  0
LINE
  5
77
330
17
100
AcDbEntity
  8
0
 62
8
100
AcDbLine
 10
116.3163231927676
 20
-24.41091454398719
 30
0.0
 11
116.3158231927676
 21
-24.41141454398718
 31
0.0
  0
LINE
  5
78
330
17
100
AcDbEntity
  8
0
 62
11
100
AcDbLine
 10
116.3123231927676
 20
-24.41091454398719
 30
0.0
 11
116.3118231927676
 21
-24.41141454398718
 31
0.0
  0
LINE
  5
79
330
17
100
AcDbEntity
  8
0
 62
11
100
AcDbLine
 10
116.3123231927676
 20
-24.41091454398719
 30
0.0
 11
116.3128231927676
 21
-24.41141454398718
 31
0.0
  0
LINE
  5
7A
330
17
100
AcDbEntity
  8
0
 62
11
100
AcDbLine
 10
116.3338231927675
 20
-24.41141454398719
 30
0.0
 11
116.3318231927675
 21
-24.41141454398718
 31
0.0
  0
LINE
  5
7B
330
17
100
AcDbEntity
  8
0
 62
11
100
AcDbLine
 10
116.3308231927675
 20
-24.41141454398719
 30
0.0
 11
116.3288231927675
 21
-24.41141454398719
 31
0.0
  0
LINE
  5
7C
330
17
100
AcDbEntity
  8
0
 62
11
100
AcDbLine
 10
116.3313231927675
 20
-24.41091454398719
 30
0.0
 11
116.3308231927675
 21
-24.41141454398719
 31
0.0
  0
LINE
  5
7D
330
17
100
AcDbEntity
  8
0
 62
11
100
AcDbLine
 10
116.3313231927675
 20
-24.41091454398719
 30
0.0
 11
116.3318231927674
 21
-24.41141454398719
 31
0.0
  0
LINE
  5
7E
330
17
100
AcDbEntity
  8
0
 62
8
100
AcDbLine
 10
116.3283231927674
 20
-24.41091454398719
 30
0.0
 11
116.3288231927675
 21
-24.41141454398719
 31
0.0
  0
LINE
  5
7F
330
17
100
AcDbEntity
  8
0
 62
11
100
AcDbLine
 10
116.3343231927675
 20
-24.41091454398719
 30
0.0
 11
116.3338231927675
 21
-24.41141454398719
 31
0.0
  0
LINE
  5
80
330
17
100
AcDbEntity
  8
0
 62
8
100
AcDbLine
 10
116.3163231927676
 20
-24.41091454398719
 30
0.0
 11
116.3158231927676
 21
-24.41141454398718
 31
0.0
  0
LINE
  5
81
330
17
100
AcDbEntity
  8
0
 62
8
100
AcDbLine
 10
116.3283231927674
 20
-24.41091454398719
 30
0.0
 11
116.3288231927675
 21
-24.41141454398719
 31
0.0
  0
LINE
  5
82
330
17
100
AcDbEntity
  8
0
 62
8
100
AcDbLine
 10
116.3163231927676
 20
-24.41091454398719
 30
0.0
 11
116.3158231927676
 21
-24.41141454398718
 31
0.0
  0
LINE
  5
83
330
17
100
AcDbEntity
  8
0
 62
8
100
AcDbLine
 10
116.3163231927676
 20
-24.3987290469207
 30
0.0
 11
116.3283231927676
 21
-24.3987290469207
 31
0.0
  0
LWPOLYLINE
  5
84
330
17
100
AcDbEntity
  8
0
 62
8
100
AcDbPolyline
 90
6
 70
1
 10
116.3273231927676
 20
-24.3987290469207
 10
116.3173231927676
 20
-24.3987290469207
 10
116.3173231927676
 20
-24.4037290469207
 10
116.3208231927676
 20
-24.4067290469207
 10
116.3238231927676
 20
-24.4067290469207
 10
116.3273231927676
 20
-24.4037290469207
  0
LWPOLYLINE
  5
85
330
17
100
AcDbEntity
  8
0
 62
8
100
AcDbPolyline
 90
6
 70
1
 10
116.3268231927676
 20
-24.3992290469207
 10
116.3178231927676
 20
-24.3992290469207
 10
116.3178231927676
 20
-24.40357765910184
 10
116.3210907846469
 20
-24.4062290469207
 10
116.3235556008884
 20
-24.4062290469207
 10
116.3268231927676
 20
-24.40357765910184
  0
LINE
  5
86
330
17
100
AcDbEntity
  8
0
 62
8
100
AcDbLine
 10
116.3283231927676
 20
-24.41091454398718
 30
0.0
 11
116.3288231927676
 21
-24.41141454398718
 31
0.0
  0
ARC
  5
87
330
17
100
AcDbEntity
  8
0
 62
8
100
AcDbCircle
 10
116.3223231927676
 20
-24.42310519015403
 30
0.0
 40
0.0133761432333217
100
AcDbArc
 50
60.92593789096944
 51
119.0740621090175
  0
LINE
  5
88
330
17
100
AcDbEntity
  8
0
 62
8
100
AcDbLine
 10
116.3273231927676
 20
-24.4037290469207
 30
0.0
 11
116.3283231927676
 21
-24.4037290469207
 31
0.0
  0
LINE
  5
89
330
17
100
AcDbEntity
  8
0
 62
8
100
AcDbLine
 10
116.3173231927676
 20
-24.4037290469207
 30
0.0
 11
116.3163231927676
 21
-24.4037290469207
 31
0.0
  0
LINE
  5
8A
330
17
100
AcDbEntity
  8
0
 62
11
100
AcDbLine
 10
116.3343231927676
 20
-24.41091454398701
 30
0.0
 11
116.3343231927675
 21
-21.67107947372395
 31
0.0
  0
LINE
  5
8B
330
17
100
AcDbEntity
  8
0
 62
11
100
AcDbLine
 10
116.3313231927673
 20
-24.41091454398732
 30
0.0
 11
116.3313231927675
 21
-21.67107947372396
 31
0.0
  0
LINE
  5
8C
330
17
100
AcDbEntity
  8
0
 62
11
100
AcDbLine
 10
116.3283231927675
 20
-24.41115022433224
 30
0.0
 11
116.3283231927675
 21
-21.67107947372397
 31
0.0
  0
LINE
  5
8D
330
17
100
AcDbEntity
  8
0
 62
11
100
AcDbLine
 10
116.3163231927675
 20
-24.41115022433239
 30
0.0
 11
116.3163231927675
 21
-21.67107947372396
 31
0.0
  0
LINE
  5
8E
330
17
100
AcDbEntity
  8
0
 62
11
100
AcDbLine
 10
116.3123231927673
 20
-24.41091454398748
 30
0.0
 11
116.3123231927675
 21
-21.67107947372396
 31
0.0
  0
LINE
  5
8F
330
17
100
AcDbEntity
  8
0
  6
CONTINUOUS
 62
8
 48
100.0
100
AcDbLine
 10
116.3117731927673
 20
-24.41141454398718
 30
0.0
 11
116.3117731927675
 21
-21.67107947372396
 31
0.0
  0
LINE
  5
90
330
17
100
AcDbEntity
  8
0
 62
11
100
AcDbLine
 10
116.3083231927676
 20
-24.41091454398716
 30
0.0
 11
116.3083231927675
 21
-21.67107947372397
 31
0.0
  0
LINE
  5
91
330
17
100
AcDbEntity
  8
0-TEXTO
 62
12
100
AcDbLine
 10
114.7953876573399
 20
-22.46158650950165
 30
0.0
 11
114.0380754537238
 21
-22.46158650950165
 31
0.0
  0
CIRCLE
  5
92
330
17
100
AcDbEntity
  8
0-TEXTO
100
AcDbCircle
 10
114.0380754537238
 20
-22.46158650950165
 30
0.0
 40
0.0143465129660836
  0
LINE
  5
93
330
17
100
AcDbEntity
  8
0-TEXTO
 62
12
100
AcDbLine
 10
114.7953876573399
 20
-23.39795632271407
 30
0.0
 11
114.4263739293668
 21
-23.39795632271407
 31
0.0
  0
CIRCLE
  5
94
330
17
100
AcDbEntity
  8
0-TEXTO
100
AcDbCircle
 10
114.4263739293668
 20
-23.39795632271407
 30
0.0
 40
0.0143465129660836
  0
LINE
  5
95
330
17
100
AcDbEntity
  8
0-TEXTO
 62
12
100
AcDbLine
 10
114.7953876573399
 20
-21.98695127131712
 30
0.0
 11
114.0691392195326
 21
-21.98695127131712
 31
0.0
  0
CIRCLE
  5
96
330
17
100
AcDbEntity
  8
0-TEXTO
100
AcDbCircle
 10
114.0691392195326
 20
-21.70568378361359
 30
0.0
 40
0.0143465129660836
  0
LINE
  5
97
330
17
100
AcDbEntity
  8
0-TEXTO
 62
12
100
AcDbLine
 10
114.0691392195326
 20
-21.98695127131712
 30
0.0
 11
114.0691392195326
 21
-21.70568378361359
 31
0.0
  0
LINE
  5
98
330
17
100
AcDbEntity
  8
0-TEXTO
 62
12
100
AcDbLine
 10
116.8226269157023
 20
-23.42110222422512
 30
0.0
 11
116.4536131877292
 21
-23.42110222422512
 31
0.0
  0
CIRCLE
  5
99
330
17
100
AcDbEntity
  8
0-TEXTO
100
AcDbCircle
 10
116.4536131877292
 20
-23.42110222422512
 30
0.0
 40
0.0143465129660836
  0
LINE
  5
9A
330
17
100
AcDbEntity
  8
0-TEXTO
 62
12
100
AcDbLine
 10
116.8226269157023
 20
-22.4847324110127
 30
0.0
 11
116.3163231927675
 21
-22.4847324110127
 31
0.0
  0
CIRCLE
  5
9B
330
17
100
AcDbEntity
  8
0-TEXTO
100
AcDbCircle
 10
116.3163231927675
 20
-22.4847324110127
 30
0.0
 40
0.0143465129660836
  0
LINE
  5
9C
330
17
100
AcDbEntity
  8
0
 62
8
100
AcDbLine
 10
116.3355231927675
 20
-24.36871179924435
 30
0.0
 11
116.3343231927675
 21
-24.36871179924435
 31
0.0
  0
LINE
  5
9D
330
17
100
AcDbEntity
  8
0
 62
8
100
AcDbLine
 10
116.3408231927675
 20
-24.38007947372223
 30
0.0
 11
116.3412249636945
 21
-24.38007947372223
 31
0.0
  0
LINE
  5
9E
330
17
100
AcDbEntity
  8
0
 62
8
100
AcDbLine
 10
116.3408231927675
 20
-24.39607947372223
 30
0.0
 11
116.3412249636945
 21
-24.39607947372223
 31
0.0
  0
LINE
  5
9F
330
17
100
AcDbEntity
  8
0
 62
251
100
AcDbLine
 10
116.33922496369452
 20
-24.388488515537738
 30
0.0
 11
116.33922496369452
 21
-24.38780275742888
 31
0.0
  0
LINE
  5
A0
330
17
100
AcDbEntity
  8
0
 62
251
100
AcDbLine
 10
116.34122496369459
 20
-24.390145636483307
 30
0.0
 11
116.34122496369459
 21
-24.38614563648332
 31
0.0
  0
LINE
  5
A1
330
17
100
AcDbEntity
  8
0
 62
251
100
AcDbLine
 10
116.36158802631108
 20
-24.390145636483318
 30
0.0
 11
116.34122496369459
 21
-24.390145636483307
 31
0.0
  0
LINE
  5
A2
330
17
100
AcDbEntity
  8
0
 62
251
100
AcDbLine
 10
116.3615880263108
 20
-24.38614563648343
 30
0.0
 11
116.34122496369459
 21
-24.38614563648332
 31
0.0
  0
LINE
  5
A3
330
17
100
AcDbEntity
  8
0
 62
251
100
AcDbLine
 10
116.34122496369459
 20
-24.390145636483307
 30
0.0
 11
116.33922496369463
 21
-24.393145636483318
 31
0.0
  0
LINE
  5
A4
330
17
100
AcDbEntity
  8
0
 62
251
100
AcDbLine
 10
116.34122496369459
 20
-24.38614563648332
 30
0.0
 11
116.33922496369463
 21
-24.3831456364833
 31
0.0
  0
LINE
  5
A5
330
17
100
AcDbEntity
  8
0
 62
251
100
AcDbLine
 10
116.3658770401518
 20
-24.38814563648344
 30
0.0
 11
116.3615880263108
 21
-24.38614563648343
 31
0.0
  0
LINE
  5
A6
330
17
100
AcDbEntity
  8
0
 62
251
100
AcDbLine
 10
116.3658770401518
 20
-24.38814563648344
 30
0.0
 11
116.36158802631086
 21
-24.390145636483417
 31
0.0
  0
LINE
  5
A7
330
17
100
AcDbEntity
  8
0
 62
251
100
AcDbLine
 10
116.34666833936758
 20
-24.390645636483328
 30
0.0
 11
116.34378158802163
 21
-24.38564563648333
 31
0.0
  0
LINE
  5
A8
330
17
100
AcDbEntity
  8
0
 62
251
100
AcDbLine
 10
116.34866833936759
 20
-24.390645636483328
 30
0.0
 11
116.34578158802164
 21
-24.38564563648333
 31
0.0
  0
LINE
  5
A9
330
17
100
AcDbEntity
  8
0
 62
251
100
AcDbLine
 10
116.34466833936757
 20
-24.390645636483328
 30
0.0
 11
116.34178158802162
 21
-24.38564563648333
 31
0.0
  0
ARC
  5
AA
330
17
100
AcDbEntity
  8
0
 62
251
100
AcDbCircle
 10
116.3621333476594
 20
-24.388145636483177
 30
0.0
 40
0.0234476876445912
100
AcDbArc
 50
167.68766983888
 51
179.1621253568056
  0
ARC
  5
AB
330
17
100
AcDbEntity
  8
0
 62
251
100
AcDbCircle
 10
116.3621333476594
 20
-24.388145636483177
 30
0.0
 40
0.0234476876445912
100
AcDbArc
 50
-179.1621253563204
 51
-167.68766983823994
  0
LINE
  5
AC
330
17
100
AcDbEntity
  8
0
 62
251
100
AcDbLine
 10
116.33922496369463
 20
-24.38780275742888
 30
0.0
 11
116.3386856600148
 21
-24.38780275742888
 31
0.0
  0
LINE
  5
AD
330
17
100
AcDbEntity
  8
0
 62
251
100
AcDbLine
 10
116.33922496369463
 20
-24.38848851553772
 30
0.0
 11
116.3386856600148
 21
-24.38848851553772
 31
0.0
  0
LINE
  5
AE
330
17
100
AcDbEntity
  8
0
 62
251
100
AcDbLine
 10
116.3506683393676
 20
-24.390645636483328
 30
0.0
 11
116.34778158802165
 21
-24.38564563648333
 31
0.0
  0
LINE
  5
AF
330
17
100
AcDbEntity
  8
0
 62
251
100
AcDbLine
 10
116.3526683393676
 20
-24.390645636483328
 30
0.0
 11
116.34978158802166
 21
-24.38564563648333
 31
0.0
  0
LINE
  5
B0
330
17
100
AcDbEntity
  8
0
 62
251
100
AcDbLine
 10
116.35466833936762
 20
-24.390645636483328
 30
0.0
 11
116.35178158802167
 21
-24.38564563648333
 31
0.0
  0
LINE
  5
B1
330
17
100
AcDbEntity
  8
0
 62
251
100
AcDbLine
 10
116.35666833936762
 20
-24.390645636483328
 30
0.0
 11
116.35378158802168
 21
-24.38564563648333
 31
0.0
  0
LINE
  5
B2
330
17
100
AcDbEntity
  8
0
 62
251
100
AcDbLine
 10
116.35866833936764
 20
-24.390645636483328
 30
0.0
 11
116.35578158802169
 21
-24.38564563648333
 31
0.0
  0
LINE
  5
B3
330
17
100
AcDbEntity
  8
0
 62
251
100
AcDbLine
 10
116.36066833936763
 20
-24.390645636483328
 30
0.0
 11
116.3577815880217
 21
-24.38564563648333
 31
0.0
  0
LINE
  5
B5
330
17
100
AcDbEntity
  8
0-TEXTO DETALLE
 62
12
100
AcDbLine
 10
116.3233399164686
 20
-24.30748659960147
 30
0.0
 11
116.5724328697923
 21
-24.30748659960148
 31
0.0
  0
LINE
  5
B6
330
17
100
AcDbEntity
  8
0-TEXTO DETALLE
 62
12
100
AcDbLine
 10
116.3313231927673
 20
-24.32826047028652
 30
0.0
 11
116.5724328697923
 21
-24.32826047028652
 31
0.0
  0
LINE
  5
B7
330
17
100
AcDbEntity
  8
0-TEXTO DETALLE
 62
12
100
AcDbLine
 10
116.4168655886005
 20
-24.39126505304637
 30
0.0
 11
116.5724328697923
 21
-24.39126505304637
 31
0.0
  0
LINE
  5
B8
330
17
100
AcDbEntity
  8
0-TEXTO DETALLE
 62
12
100
AcDbLine
 10
116.3123231927673
 20
-24.26202313179954
 30
0.0
 11
116.5724328697923
 21
-24.26063459515603
 31
0.0
  0
CIRCLE
  5
B9
330
17
100
AcDbEntity
  8
0-TEXTO DETALLE
100
AcDbCircle
 10
116.3123231927673
 20
-24.26202313179954
 30
0.0
 40
0.0008966570603802
  0
CIRCLE
  5
BA
330
17
100
AcDbEntity
  8
0-TEXTO DETALLE
100
AcDbCircle
 10
116.3233399164686
 20
-24.30748659960147
 30
0.0
 40
0.0008966570603802
  0
CIRCLE
  5
BB
330
17
100
AcDbEntity
  8
0-TEXTO DETALLE
100
AcDbCircle
 10
116.3313231927673
 20
-24.32826047028652
 30
0.0
 40
0.0008966570603802
  0
CIRCLE
  5
BC
330
17
100
AcDbEntity
  8
0-TEXTO DETALLE
100
AcDbCircle
 10
116.4168655886005
 20
-24.39126505304637
 30
0.0
 40
0.0008966570603802
  0
LWPOLYLINE
  5
BD
330
17
100
AcDbEntity
  8
0
 62
8
100
AcDbPolyline
 90
4
 70
1
 10
110.1183250470133
 20
-25.37404291188481
 10
114.4583250396963
 20
-25.37404291188483
 10
114.4583250396963
 20
-25.54404291188484
 10
110.1183250470133
 20
-25.54404291188481
  0
LINE
  5
BE
330
17
100
AcDbEntity
  8
0
 62
4
100
AcDbLine
 10
110.1133250470133
 20
-25.35777095393343
 30
0.0
 11
110.1133250470133
 21
-25.59263809265539
 31
0.0
  0
LINE
  5
BF
330
17
100
AcDbEntity
  8
0
 62
4
100
AcDbLine
 10
114.4633250396963
 20
-25.35777095393343
 30
0.0
 11
114.4633250396963
 21
-25.59263809265539
 31
0.0
  0
LINE
  5
C0
330
17
100
AcDbEntity
  8
0
 62
4
100
AcDbLine
 10
114.4633250396963
 20
-25.35777095393343
 30
0.0
 11
114.5881433036701
 21
-25.35777095393343
 31
0.0
  0
LINE
  5
C1
330
17
100
AcDbEntity
  8
0
 62
4
100
AcDbLine
 10
114.4633250396963
 20
-25.59263809265539
 30
0.0
 11
114.5881433036701
 21
-25.59263809265539
 31
0.0
  0
LWPOLYLINE
  5
C2
330
17
100
AcDbEntity
  8
0
 62
11
100
AcDbPolyline
 90
14
 70
1
 10
114.4348250396963
 20
-25.53704291188484
 42
-0.4142135623730951
 10
114.4358250396963
 20
-25.53804291188484
 10
114.4358250396963
 20
-25.54104291188484
 10
114.4546250396963
 20
-25.54104291188484
 42
0.4142135623730966
 10
114.4556250396963
 20
-25.54004291188484
 10
114.4556250396963
 20
-25.37804291188483
 42
0.4142135623730951
 10
114.4546250396963
 20
-25.37704291188484
 10
114.3970250396963
 20
-25.37704291188484
 42
0.4142135623730951
 10
114.3960250396963
 20
-25.37804291188483
 10
114.3960250396963
 20
-25.54004291188484
 42
0.4142135623730948
 10
114.3970250396963
 20
-25.54104291188484
 10
114.4158250396963
 20
-25.54104291188484
 10
114.4158250396963
 20
-25.53804291188484
 42
-0.4142135623730951
 10
114.4168250396963
 20
-25.53704291188484
  0
LWPOLYLINE
  5
C3
330
17
100
AcDbEntity
  8
0
 62
11
100
AcDbPolyline
 90
11
 70
1
 10
114.4268250396963
 20
-25.54404291188484
 10
114.4573250396963
 20
-25.54404291188484
 42
0.4142135623730951
 10
114.4583250396963
 20
-25.54304291188484
 10
114.4583250396963
 20
-25.37504291188483
 42
0.4142135623730951
 10
114.4573250396963
 20
-25.37404291188483
 10
114.3943250396963
 20
-25.37404291188483
 42
0.4142135623730951
 10
114.3933250396963
 20
-25.37504291188483
 10
114.3933250396963
 20
-25.54304291188484
 42
0.4142135623730951
 10
114.3943250396963
 20
-25.54404291188484
 10
114.4248250396963
 20
-25.54404291188484
 10
114.4258250396963
 20
-25.54304291188484
  0
LWPOLYLINE
  5
C4
330
17
100
AcDbEntity
  8
0
 62
11
100
AcDbPolyline
 90
14
 70
1
 10
110.1598250470133
 20
-25.53704291188481
 42
-0.4142135623730951
 10
110.1608250470133
 20
-25.53804291188481
 10
110.1608250470133
 20
-25.54104291188481
 10
110.1796250470133
 20
-25.54104291188481
 42
0.4142135623730966
 10
110.1806250470133
 20
-25.54004291188481
 10
110.1806250470133
 20
-25.37804291188481
 42
0.4142135623730951
 10
110.1796250470133
 20
-25.37704291188481
 10
110.1220250470133
 20
-25.37704291188481
 42
0.4142135623730951
 10
110.1210250470133
 20
-25.37804291188481
 10
110.1210250470133
 20
-25.54004291188481
 42
0.4142135623730948
 10
110.1220250470133
 20
-25.54104291188481
 10
110.1408250470133
 20
-25.54104291188481
 10
110.1408250470133
 20
-25.53804291188481
 42
-0.4142135623730951
 10
110.1418250470133
 20
-25.53704291188481
  0
LWPOLYLINE
  5
C5
330
17
100
AcDbEntity
  8
0
 62
11
100
AcDbPolyline
 90
11
 70
1
 10
110.1518250470133
 20
-25.54404291188481
 10
110.1823250470133
 20
-25.54404291188481
 42
0.4142135623730951
 10
110.1833250470133
 20
-25.54304291188481
 10
110.1833250470133
 20
-25.37504291188481
 42
0.4142135623730951
 10
110.1823250470133
 20
-25.37404291188481
 10
110.1193250470133
 20
-25.37404291188481
 42
0.4142135623730951
 10
110.1183250470133
 20
-25.37504291188481
 10
110.1183250470133
 20
-25.54304291188481
 42
0.4142135623730951
 10
110.1193250470133
 20
-25.54404291188481
 10
110.1498250470133
 20
-25.54404291188481
 10
110.1508250470133
 20
-25.54304291188481
  0
LWPOLYLINE
  5
C6
330
17
100
AcDbEntity
  8
0
 62
11
100
AcDbPolyline
 90
14
 70
1
 10
111.5955600830622
 20
-25.53704291188481
 42
-0.4142135623730951
 10
111.5965600830622
 20
-25.53804291188482
 10
111.5965600830622
 20
-25.54104291188482
 10
111.6153600830622
 20
-25.54104291188482
 42
0.4142135623730966
 10
111.6163600830622
 20
-25.54004291188482
 10
111.6163600830622
 20
-25.37804291188481
 42
0.4142135623730951
 10
111.6153600830622
 20
-25.37704291188481
 10
111.5577600830622
 20
-25.37704291188481
 42
0.4142135623730951
 10
111.5567600830622
 20
-25.37804291188481
 10
111.5567600830622
 20
-25.54004291188482
 42
0.4142135623730948
 10
111.5577600830622
 20
-25.54104291188482
 10
111.5765600830622
 20
-25.54104291188482
 10
111.5765600830622
 20
-25.53804291188482
 42
-0.4142135623730951
 10
111.5775600830622
 20
-25.53704291188481
  0
LWPOLYLINE
  5
C7
330
17
100
AcDbEntity
  8
0
 62
11
100
AcDbPolyline
 90
11
 70
1
 10
111.5875600830622
 20
-25.54404291188482
 10
111.6180600830622
 20
-25.54404291188482
 42
0.4142135623730951
 10
111.6190600830622
 20
-25.54304291188481
 10
111.6190600830622
 20
-25.37504291188481
 42
0.4142135623730951
 10
111.6180600830622
 20
-25.37404291188482
 10
111.5550600830622
 20
-25.37404291188482
 42
0.4142135623730951
 10
111.5540600830622
 20
-25.37504291188481
 10
111.5540600830622
 20
-25.54304291188481
 42
0.4142135623730951
 10
111.5550600830622
 20
-25.54404291188482
 10
111.5855600830622
 20
-25.54404291188482
 10
111.5865600830622
 20
-25.54304291188481
  0
LINE
  5
C8
330
17
100
AcDbEntity
  8
0
 62
11
100
AcDbLine
 10
114.4578250396959
 20
-25.56124291188441
 30
0.0
 11
112.9970578715633
 21
-25.56124291188449
 31
0.0
  0
LINE
  5
C9
330
17
100
AcDbEntity
  8
0
 62
11
100
AcDbLine
 10
114.4578250396967
 20
-25.56424291188526
 30
0.0
 11
112.9970578715626
 21
-25.56424291188517
 31
0.0
  0
LINE
  5
CA
330
17
100
AcDbEntity
  8
0
 62
11
100
AcDbLine
 10
114.4456395426298
 20
-25.56724291188484
 30
0.0
 11
112.9970578715631
 21
-25.56724291188484
 31
0.0
  0
LINE
  5
CB
330
17
100
AcDbEntity
  8
0
 62
11
100
AcDbLine
 10
114.4456395426298
 20
-25.57924291188485
 30
0.0
 11
112.9970578715628
 21
-25.57924291188485
 31
0.0
  0
LINE
  5
CC
330
17
100
AcDbEntity
  8
0
 62
11
100
AcDbLine
 10
114.4578250396969
 20
-25.58324291188526
 30
0.0
 11
112.9970578715625
 21
-25.58324291188519
 31
0.0
  0
LINE
  5
CD
330
17
100
AcDbEntity
  8
0
  6
CONTINUOUS
 62
8
 48
100.0
100
AcDbLine
 10
114.4583250396963
 20
-25.58379291188526
 30
0.0
 11
112.9965578715631
 21
-25.58379291188519
 31
0.0
  0
LINE
  5
CE
330
17
100
AcDbEntity
  8
0
 62
11
100
AcDbLine
 10
114.4578250396966
 20
-25.58724291188443
 30
0.0
 11
112.997057871563
 21
-25.5872429118845
 31
0.0
  0
LINE
  5
CF
330
17
100
AcDbEntity
  8
0
 62
11
100
AcDbLine
 10
114.4583250396963
 20
-25.57974291188467
 30
0.0
 11
114.4583250396963
 21
-25.58274291188467
 31
0.0
  0
LINE
  5
D0
330
17
100
AcDbEntity
  8
0
 62
11
100
AcDbLine
 10
114.4583250396963
 20
-25.58374291188467
 30
0.0
 11
114.4583250396963
 21
-25.58674291188467
 31
0.0
  0
LINE
  5
D1
330
17
100
AcDbEntity
  8
0
 62
11
100
AcDbLine
 10
114.4578250396963
 20
-25.58724291188468
 30
0.0
 11
114.4583250396963
 21
-25.58674291188467
 31
0.0
  0
LINE
  5
D2
330
17
100
AcDbEntity
  8
0
 62
8
100
AcDbLine
 10
114.4578250396963
 20
-25.57924291188467
 30
0.0
 11
114.4583250396963
 21
-25.57974291188467
 31
0.0
  0
LINE
  5
D3
330
17
100
AcDbEntity
  8
0
 62
11
100
AcDbLine
 10
114.4578250396963
 20
-25.58324291188467
 30
0.0
 11
114.4583250396963
 21
-25.58374291188467
 31
0.0
  0
LINE
  5
D4
330
17
100
AcDbEntity
  8
0
 62
11
100
AcDbLine
 10
114.4578250396963
 20
-25.58324291188467
 30
0.0
 11
114.4583250396963
 21
-25.58274291188467
 31
0.0
  0
LINE
  5
D5
330
17
100
AcDbEntity
  8
0
 62
11
100
AcDbLine
 10
114.4583250396963
 20
-25.56174291188484
 30
0.0
 11
114.4583250396963
 21
-25.56374291188484
 31
0.0
  0
LINE
  5
D6
330
17
100
AcDbEntity
  8
0
 62
11
100
AcDbLine
 10
114.4583250396963
 20
-25.56474291188484
 30
0.0
 11
114.4583250396963
 21
-25.56674291188484
 31
0.0
  0
LINE
  5
D7
330
17
100
AcDbEntity
  8
0
 62
11
100
AcDbLine
 10
114.4578250396963
 20
-25.56424291188484
 30
0.0
 11
114.4583250396963
 21
-25.56474291188484
 31
0.0
  0
LINE
  5
D8
330
17
100
AcDbEntity
  8
0
 62
11
100
AcDbLine
 10
114.4578250396963
 20
-25.56424291188484
 30
0.0
 11
114.4583250396963
 21
-25.56374291188484
 31
0.0
  0
LINE
  5
D9
330
17
100
AcDbEntity
  8
0
 62
8
100
AcDbLine
 10
114.4578250396963
 20
-25.56724291188484
 30
0.0
 11
114.4583250396963
 21
-25.56674291188484
 31
0.0
  0
LINE
  5
DA
330
17
100
AcDbEntity
  8
0
 62
11
100
AcDbLine
 10
114.4578250396963
 20
-25.56124291188484
 30
0.0
 11
114.4583250396963
 21
-25.56174291188484
 31
0.0
  0
LINE
  5
DB
330
17
100
AcDbEntity
  8
0
 62
8
100
AcDbLine
 10
114.4578250396963
 20
-25.57924291188467
 30
0.0
 11
114.4583250396963
 21
-25.57974291188467
 31
0.0
  0
LINE
  5
DC
330
17
100
AcDbEntity
  8
0
 62
8
100
AcDbLine
 10
114.4578250396963
 20
-25.56724291188484
 30
0.0
 11
114.4583250396963
 21
-25.56674291188484
 31
0.0
  0
LINE
  5
DD
330
17
100
AcDbEntity
  8
0
 62
8
100
AcDbLine
 10
114.4578250396963
 20
-25.57924291188467
 30
0.0
 11
114.4583250396963
 21
-25.57974291188467
 31
0.0
  0
LWPOLYLINE
  5
DE
330
17
100
AcDbEntity
  8
0
 62
8
100
AcDbPolyline
 90
6
 70
1
 10
114.4456395426298
 20
-25.56824291188467
 10
114.4456395426298
 20
-25.57824291188467
 10
114.4506395426298
 20
-25.57824291188467
 10
114.4536395426298
 20
-25.57474291188468
 10
114.4536395426298
 20
-25.57174291188467
 10
114.4506395426298
 20
-25.56824291188467
  0
LWPOLYLINE
  5
DF
330
17
100
AcDbEntity
  8
0
 62
8
100
AcDbPolyline
 90
6
 70
1
 10
114.4461395426298
 20
-25.56874291188468
 10
114.4461395426298
 20
-25.57774291188467
 10
114.450488154811
 20
-25.57774291188467
 10
114.4531395426298
 20
-25.57447532000543
 10
114.4531395426298
 20
-25.57201050376392
 10
114.450488154811
 20
-25.56874291188468
  0
LINE
  5
E0
330
17
100
AcDbEntity
  8
0
 62
8
100
AcDbLine
 10
114.4578250396963
 20
-25.56724291188467
 30
0.0
 11
114.4583250396963
 21
-25.56674291188467
 31
0.0
  0
ARC
  5
E1
330
17
100
AcDbEntity
  8
0
 62
8
100
AcDbCircle
 10
114.4700156858631
 20
-25.57324291188467
 30
0.0
 40
0.0133761432333217
100
AcDbArc
 50
150.9259378909694
 51
209.0740621090173
  0
LINE
  5
E2
330
17
100
AcDbEntity
  8
0
 62
8
100
AcDbLine
 10
114.4506395426298
 20
-25.56824291188467
 30
0.0
 11
114.4506395426298
 21
-25.56724291188467
 31
0.0
  0
LINE
  5
E3
330
17
100
AcDbEntity
  8
0
 62
8
100
AcDbLine
 10
114.4506395426298
 20
-25.57824291188467
 30
0.0
 11
114.4506395426298
 21
-25.57924291188467
 31
0.0
  0
LINE
  5
E4
330
17
100
AcDbEntity
  8
0
 62
8
100
AcDbLine
 10
114.4456395426298
 20
-25.57924291188484
 30
0.0
 11
114.4456395426298
 21
-25.56724291188467
 31
0.0
  0
LINE
  5
E5
330
17
100
AcDbEntity
  8
0
 62
11
100
AcDbLine
 10
111.3800593044036
 20
-25.56124291188459
 30
0.0
 11
110.1189895046199
 21
-25.56124291188466
 31
0.0
  0
LINE
  5
E6
330
17
100
AcDbEntity
  8
0
 62
11
100
AcDbLine
 10
111.3800593044036
 20
-25.56424291188494
 30
0.0
 11
110.1189895046197
 21
-25.56424291188487
 31
0.0
  0
LINE
  5
E7
330
17
100
AcDbEntity
  8
0
 62
11
100
AcDbLine
 10
111.3800593044036
 20
-25.56724291188477
 30
0.0
 11
110.1189895046198
 21
-25.56724291188477
 31
0.0
  0
LINE
  5
E8
330
17
100
AcDbEntity
  8
0
 62
11
100
AcDbLine
 10
111.3800593044036
 20
-25.57924291188477
 30
0.0
 11
110.1189895046196
 21
-25.57924291188477
 31
0.0
  0
LINE
  5
E9
330
17
100
AcDbEntity
  8
0
 62
11
100
AcDbLine
 10
111.3800593044036
 20
-25.58324291188495
 30
0.0
 11
110.1189895046195
 21
-25.58324291188488
 31
0.0
  0
LINE
  5
EA
330
17
100
AcDbEntity
  8
0
  6
CONTINUOUS
 62
8
 48
100.0
100
AcDbLine
 10
111.3800593044036
 20
-25.58379291188495
 30
0.0
 11
110.1184895046198
 21
-25.58379291188487
 31
0.0
  0
LINE
  5
EB
330
17
100
AcDbEntity
  8
0
 62
11
100
AcDbLine
 10
111.3800593044036
 20
-25.5872429118846
 30
0.0
 11
110.1189895046199
 21
-25.58724291188466
 31
0.0
  0
LINE
  5
EC
330
17
100
AcDbEntity
  8
0
 62
11
100
AcDbLine
 10
111.5932245406687
 20
-25.57974291188459
 30
0.0
 11
111.5932245406687
 21
-25.58274291188459
 31
0.0
  0
LINE
  5
ED
330
17
100
AcDbEntity
  8
0
 62
11
100
AcDbLine
 10
111.5932245406687
 20
-25.58374291188459
 30
0.0
 11
111.5932245406687
 21
-25.58674291188459
 31
0.0
  0
LINE
  5
EE
330
17
100
AcDbEntity
  8
0
 62
11
100
AcDbLine
 10
111.5937245406688
 20
-25.5872429118846
 30
0.0
 11
111.5932245406687
 21
-25.58674291188459
 31
0.0
  0
LINE
  5
EF
330
17
100
AcDbEntity
  8
0
 62
11
100
AcDbLine
 10
111.5937245406687
 20
-25.57924291188459
 30
0.0
 11
111.5932245406687
 21
-25.57974291188459
 31
0.0
  0
LINE
  5
F0
330
17
100
AcDbEntity
  8
0
 62
11
100
AcDbLine
 10
111.5937245406687
 20
-25.58324291188459
 30
0.0
 11
111.5932245406687
 21
-25.58374291188459
 31
0.0
  0
LINE
  5
F1
330
17
100
AcDbEntity
  8
0
 62
11
100
AcDbLine
 10
111.5937245406687
 20
-25.58324291188459
 30
0.0
 11
111.5932245406687
 21
-25.58274291188459
 31
0.0
  0
LINE
  5
F2
330
17
100
AcDbEntity
  8
0
 62
11
100
AcDbLine
 10
111.5932245406687
 20
-25.56174291188476
 30
0.0
 11
111.5932245406687
 21
-25.56374291188476
 31
0.0
  0
LINE
  5
F3
330
17
100
AcDbEntity
  8
0
 62
11
100
AcDbLine
 10
111.5932245406687
 20
-25.56474291188476
 30
0.0
 11
111.5932245406687
 21
-25.56674291188477
 31
0.0
  0
LINE
  5
F4
330
17
100
AcDbEntity
  8
0
 62
11
100
AcDbLine
 10
111.5937245406687
 20
-25.56424291188476
 30
0.0
 11
111.5932245406687
 21
-25.56474291188476
 31
0.0
  0
LINE
  5
F5
330
17
100
AcDbEntity
  8
0
 62
11
100
AcDbLine
 10
111.5937245406687
 20
-25.56424291188476
 30
0.0
 11
111.5932245406687
 21
-25.56374291188477
 31
0.0
  0
LINE
  5
F6
330
17
100
AcDbEntity
  8
0
 62
11
100
AcDbLine
 10
111.5937245406687
 20
-25.56724291188477
 30
0.0
 11
111.5932245406687
 21
-25.56674291188477
 31
0.0
  0
LINE
  5
F7
330
17
100
AcDbEntity
  8
0
 62
11
100
AcDbLine
 10
111.5937245406687
 20
-25.56124291188476
 30
0.0
 11
111.5932245406687
 21
-25.56174291188476
 31
0.0
  0
LINE
  5
F8
330
17
100
AcDbEntity
  8
0
 62
11
100
AcDbLine
 10
111.5800922151466
 20
-25.57974291188459
 30
0.0
 11
111.5800922151466
 21
-25.58274291188459
 31
0.0
  0
LINE
  5
F9
330
17
100
AcDbEntity
  8
0
 62
11
100
AcDbLine
 10
111.5800922151466
 20
-25.58374291188459
 30
0.0
 11
111.5800922151466
 21
-25.58674291188459
 31
0.0
  0
LINE
  5
FA
330
17
100
AcDbEntity
  8
0
 62
11
100
AcDbLine
 10
111.5795922151466
 20
-25.5872429118846
 30
0.0
 11
111.5800922151466
 21
-25.58674291188459
 31
0.0
  0
LINE
  5
FB
330
17
100
AcDbEntity
  8
0
 62
11
100
AcDbLine
 10
111.5795922151466
 20
-25.57924291188459
 30
0.0
 11
111.5800922151466
 21
-25.57974291188459
 31
0.0
  0
LINE
  5
FC
330
17
100
AcDbEntity
  8
0
 62
11
100
AcDbLine
 10
111.5795922151466
 20
-25.58324291188459
 30
0.0
 11
111.5800922151466
 21
-25.58374291188459
 31
0.0
  0
LINE
  5
FD
330
17
100
AcDbEntity
  8
0
 62
11
100
AcDbLine
 10
111.5795922151466
 20
-25.58324291188459
 30
0.0
 11
111.5800922151466
 21
-25.58274291188459
 31
0.0
  0
LINE
  5
FE
330
17
100
AcDbEntity
  8
0
 62
11
100
AcDbLine
 10
111.5800922151466
 20
-25.56174291188476
 30
0.0
 11
111.5800922151466
 21
-25.56374291188476
 31
0.0
  0
LINE
  5
FF
330
17
100
AcDbEntity
  8
0
 62
11
100
AcDbLine
 10
111.5800922151466
 20
-25.56474291188476
 30
0.0
 11
111.5800922151466
 21
-25.56674291188477
 31
0.0
  0
LINE
  5
100
330
17
100
AcDbEntity
  8
0
 62
11
100
AcDbLine
 10
111.5795922151466
 20
-25.56424291188476
 30
0.0
 11
111.5800922151466
 21
-25.56474291188476
 31
0.0
  0
LINE
  5
101
330
17
100
AcDbEntity
  8
0
 62
11
100
AcDbLine
 10
111.5795922151466
 20
-25.56424291188476
 30
0.0
 11
111.5800922151466
 21
-25.56374291188477
 31
0.0
  0
LINE
  5
102
330
17
100
AcDbEntity
  8
0
 62
11
100
AcDbLine
 10
111.5795922151466
 20
-25.56724291188477
 30
0.0
 11
111.5800922151466
 21
-25.56674291188477
 31
0.0
  0
LINE
  5
103
330
17
100
AcDbEntity
  8
0
 62
11
100
AcDbLine
 10
111.5795922151466
 20
-25.56124291188476
 30
0.0
 11
111.5800922151466
 21
-25.56174291188476
 31
0.0
  0
LINE
  5
104
330
17
100
AcDbEntity
  8
0
 62
11
100
AcDbLine
 10
111.5937245406687
 20
-25.57924291188459
 30
0.0
 11
111.5932245406687
 21
-25.57974291188459
 31
0.0
  0
LWPOLYLINE
  5
105
330
17
100
AcDbEntity
  8
0
 62
8
100
AcDbPolyline
 90
6
 70
1
 10
111.6059100377352
 20
-25.56824291188459
 10
111.6059100377352
 20
-25.5782429118846
 10
111.6009100377352
 20
-25.5782429118846
 10
111.5979100377352
 20
-25.57474291188459
 10
111.5979100377352
 20
-25.57174291188459
 10
111.6009100377352
 20
-25.56824291188459
  0
LWPOLYLINE
  5
106
330
17
100
AcDbEntity
  8
0
 62
8
100
AcDbPolyline
 90
6
 70
1
 10
111.6054100377352
 20
-25.56874291188459
 10
111.6054100377352
 20
-25.57774291188459
 10
111.6010614255541
 20
-25.57774291188459
 10
111.5984100377352
 20
-25.57447532000536
 10
111.5984100377352
 20
-25.57201050376384
 10
111.6010614255541
 20
-25.56874291188459
  0
ARC
  5
107
330
17
100
AcDbEntity
  8
0
 62
8
100
AcDbCircle
 10
111.5815338945019
 20
-25.57324291188459
 30
0.0
 40
0.0133761432333217
100
AcDbArc
 50
330.9259378909826
 51
29.07406210903059
  0
LINE
  5
108
330
17
100
AcDbEntity
  8
0
 62
8
100
AcDbLine
 10
111.6009100377352
 20
-25.56824291188459
 30
0.0
 11
111.6009100377352
 21
-25.56724291188459
 31
0.0
  0
LINE
  5
109
330
17
100
AcDbEntity
  8
0
 62
8
100
AcDbLine
 10
111.6009100377352
 20
-25.5782429118846
 30
0.0
 11
111.6009100377352
 21
-25.57924291188459
 31
0.0
  0
LINE
  5
10A
330
17
100
AcDbEntity
  8
0
 62
8
100
AcDbLine
 10
111.5674067180801
 20
-25.57924291188459
 30
0.0
 11
111.5674067180801
 21
-25.56724291188459
 31
0.0
  0
LWPOLYLINE
  5
10B
330
17
100
AcDbEntity
  8
0
 62
8
100
AcDbPolyline
 90
6
 70
1
 10
111.5674067180801
 20
-25.56824291188459
 10
111.5674067180801
 20
-25.5782429118846
 10
111.5724067180801
 20
-25.5782429118846
 10
111.5754067180801
 20
-25.57474291188459
 10
111.5754067180801
 20
-25.57174291188459
 10
111.5724067180801
 20
-25.56824291188459
  0
LWPOLYLINE
  5
10C
330
17
100
AcDbEntity
  8
0
 62
8
100
AcDbPolyline
 90
6
 70
1
 10
111.5679067180801
 20
-25.56874291188459
 10
111.5679067180801
 20
-25.57774291188459
 10
111.5722553302613
 20
-25.57774291188459
 10
111.5749067180801
 20
-25.57447532000536
 10
111.5749067180801
 20
-25.57201050376384
 10
111.5722553302613
 20
-25.56874291188459
  0
ARC
  5
10D
330
17
100
AcDbEntity
  8
0
 62
8
100
AcDbCircle
 10
111.5917828613135
 20
-25.57324291188459
 30
0.0
 40
0.0133761432333217
100
AcDbArc
 50
150.9259378909694
 51
209.0740621090173
  0
LINE
  5
10E
330
17
100
AcDbEntity
  8
0
 62
8
100
AcDbLine
 10
111.5724067180801
 20
-25.56824291188459
 30
0.0
 11
111.5724067180801
 21
-25.56724291188459
 31
0.0
  0
LINE
  5
10F
330
17
100
AcDbEntity
  8
0
 62
8
100
AcDbLine
 10
111.5724067180801
 20
-25.5782429118846
 30
0.0
 11
111.5724067180801
 21
-25.57924291188459
 31
0.0
  0
ARC
  5
110
330
17
100
AcDbEntity
  8
0
 62
8
100
AcDbCircle
 10
111.5866583779077
 20
-25.60107839899225
 30
0.0
 40
0.0155354871076451
100
AcDbArc
 50
62.94535250408637
 51
117.054647495984
  0
LINE
  5
111
330
17
100
AcDbEntity
  8
0
 62
8
100
AcDbLine
 10
111.6059100377352
 20
-25.56724291188485
 30
0.0
 11
111.6059100377352
 21
-25.57924291188459
 31
0.0
  0
LINE
  5
112
330
17
100
AcDbEntity
  8
0
 62
11
100
AcDbLine
 10
110.1184895046198
 20
-25.57974291188458
 30
0.0
 11
110.1184895046198
 21
-25.58274291188459
 31
0.0
  0
LINE
  5
113
330
17
100
AcDbEntity
  8
0
 62
11
100
AcDbLine
 10
110.1184895046198
 20
-25.58374291188459
 30
0.0
 11
110.1184895046198
 21
-25.58674291188459
 31
0.0
  0
LINE
  5
114
330
17
100
AcDbEntity
  8
0
 62
11
100
AcDbLine
 10
110.1189895046198
 20
-25.58724291188459
 30
0.0
 11
110.1184895046198
 21
-25.58674291188459
 31
0.0
  0
LINE
  5
115
330
17
100
AcDbEntity
  8
0
 62
11
100
AcDbLine
 10
110.1189895046198
 20
-25.57924291188459
 30
0.0
 11
110.1184895046198
 21
-25.57974291188458
 31
0.0
  0
LINE
  5
116
330
17
100
AcDbEntity
  8
0
 62
11
100
AcDbLine
 10
110.1189895046198
 20
-25.58324291188459
 30
0.0
 11
110.1184895046198
 21
-25.58374291188459
 31
0.0
  0
LINE
  5
117
330
17
100
AcDbEntity
  8
0
 62
11
100
AcDbLine
 10
110.1189895046198
 20
-25.58324291188459
 30
0.0
 11
110.1184895046198
 21
-25.58274291188459
 31
0.0
  0
LINE
  5
118
330
17
100
AcDbEntity
  8
0
 62
11
100
AcDbLine
 10
110.1184895046198
 20
-25.56174291188475
 30
0.0
 11
110.1184895046198
 21
-25.56374291188476
 31
0.0
  0
LINE
  5
119
330
17
100
AcDbEntity
  8
0
 62
11
100
AcDbLine
 10
110.1184895046198
 20
-25.56474291188476
 30
0.0
 11
110.1184895046198
 21
-25.56674291188476
 31
0.0
  0
LINE
  5
11A
330
17
100
AcDbEntity
  8
0
 62
11
100
AcDbLine
 10
110.1189895046198
 20
-25.56424291188476
 30
0.0
 11
110.1184895046198
 21
-25.56474291188476
 31
0.0
  0
LINE
  5
11B
330
17
100
AcDbEntity
  8
0
 62
11
100
AcDbLine
 10
110.1189895046198
 20
-25.56424291188476
 30
0.0
 11
110.1184895046198
 21
-25.56374291188476
 31
0.0
  0
LINE
  5
11C
330
17
100
AcDbEntity
  8
0
 62
11
100
AcDbLine
 10
110.1189895046198
 20
-25.56724291188477
 30
0.0
 11
110.1184895046198
 21
-25.56674291188476
 31
0.0
  0
LINE
  5
11D
330
17
100
AcDbEntity
  8
0
 62
11
100
AcDbLine
 10
110.1189895046198
 20
-25.56124291188475
 30
0.0
 11
110.1184895046198
 21
-25.56174291188475
 31
0.0
  0
LINE
  5
11E
330
17
100
AcDbEntity
  8
0
 62
11
100
AcDbLine
 10
110.1189895046198
 20
-25.57924291188459
 30
0.0
 11
110.1184895046198
 21
-25.57974291188458
 31
0.0
  0
LWPOLYLINE
  5
11F
330
17
100
AcDbEntity
  8
0
 62
8
100
AcDbPolyline
 90
6
 70
1
 10
110.1311750016863
 20
-25.56824291188459
 10
110.1311750016863
 20
-25.57824291188459
 10
110.1261750016863
 20
-25.57824291188459
 10
110.1231750016863
 20
-25.57474291188459
 10
110.1231750016863
 20
-25.57174291188459
 10
110.1261750016863
 20
-25.56824291188459
  0
LWPOLYLINE
  5
120
330
17
100
AcDbEntity
  8
0
 62
8
100
AcDbPolyline
 90
6
 70
1
 10
110.1306750016863
 20
-25.56874291188459
 10
110.1306750016863
 20
-25.57774291188459
 10
110.1263263895052
 20
-25.57774291188459
 10
110.1236750016863
 20
-25.57447532000535
 10
110.1236750016863
 20
-25.57201050376384
 10
110.1263263895052
 20
-25.56874291188459
  0
LINE
  5
121
330
17
100
AcDbEntity
  8
0
 62
11
100
AcDbLine
 10
110.1189895046198
 20
-25.56724291188459
 30
0.0
 11
110.1184895046198
 21
-25.56674291188459
 31
0.0
  0
ARC
  5
122
330
17
100
AcDbEntity
  8
0
 62
8
100
AcDbCircle
 10
110.106798858453
 20
-25.57324291188459
 30
0.0
 40
0.0133761432333217
100
AcDbArc
 50
330.9259378909826
 51
29.07406210903059
  0
LINE
  5
123
330
17
100
AcDbEntity
  8
0
 62
8
100
AcDbLine
 10
110.1261750016863
 20
-25.56824291188459
 30
0.0
 11
110.1261750016863
 21
-25.56724291188459
 31
0.0
  0
LINE
  5
124
330
17
100
AcDbEntity
  8
0
 62
8
100
AcDbLine
 10
110.1261750016863
 20
-25.57824291188459
 30
0.0
 11
110.1261750016863
 21
-25.57924291188459
 31
0.0
  0
LINE
  5
125
330
17
100
AcDbEntity
  8
0
 62
8
100
AcDbLine
 10
110.1311750016863
 20
-25.56724291188485
 30
0.0
 11
110.1311750016863
 21
-25.57924291188459
 31
0.0
  0
LWPOLYLINE
  5
126
330
17
100
AcDbEntity
  8
0-TEXTO
  6
CONTINUOUS
 48
5.0
100
AcDbPolyline
 90
8
 70
1
 10
111.4550593043861
 20
-25.27138840164967
 10
111.7180608617383
 20
-25.27138840164967
 42
-0.4142135623730951
 10
111.7930608618082
 20
-25.34638840276726
 10
111.7930608618082
 20
-25.61489742100216
 42
-0.4142135623730951
 10
111.7180608617383
 20
-25.68989742211975
 10
111.4550593043861
 20
-25.68989742211975
 42
-0.4142135623730951
 10
111.3800593044036
 20
-25.61489742100216
 10
111.3800593044036
 20
-25.34638840276726
 42
-0.4142135623730951
  0
LINE
  5
127
330
17
100
AcDbEntity
  8
0
 62
4
100
AcDbLine
 10
110.1133250470133
 20
-25.35777095393343
 30
0.0
 11
109.9887033727305
 21
-25.35777095393343
 31
0.0
  0
LINE
  5
128
330
17
100
AcDbEntity
  8
0
 62
4
100
AcDbLine
 10
110.1135216367042
 20
-25.59263809265539
 30
0.0
 11
109.9887033727305
 21
-25.59263809265539
 31
0.0
  0
LINE
  5
129
330
17
100
AcDbEntity
  8
0-TEXTO
 62
12
100
AcDbLine
 10
114.7953876573399
 20
-25.28603997663202
 30
0.0
 11
114.1551823295302
 21
-25.28603997663202
 31
0.0
  0
CIRCLE
  5
12A
330
17
100
AcDbEntity
  8
0-TEXTO
100
AcDbCircle
 10
114.1551823295302
 20
-25.47141974597961
 30
0.0
 40
0.0143465129660836
  0
LINE
  5
12B
330
17
100
AcDbEntity
  8
0-TEXTO
 62
12
100
AcDbLine
 10
114.1551823295302
 20
-25.47141974597961
 30
0.0
 11
114.1551823295302
 21
-25.28603997663202
 31
0.0
  0
LINE
  5
12C
330
17
100
AcDbEntity
  8
0-TEXTO DETALLE
 62
12
100
AcDbLine
 10
111.5859886024694
 20
-25.40712270152612
 30
0.0
 11
111.6944694596925
 21
-25.40712270152612
 31
0.0
  0
CIRCLE
  5
12D
330
17
100
AcDbEntity
  8
0-TEXTO DETALLE
100
AcDbCircle
 10
111.5859886024694
 20
-25.40712270152613
 30
0.0
 40
0.0008966570603802
  0
LINE
  5
12E
330
17
100
AcDbEntity
  8
0
 62
8
100
AcDbLine
 10
111.5785600830622
 20
-25.55474291188482
 30
0.0
 11
111.5785600830622
 21
-25.55434114095774
 31
0.0
  0
LINE
  5
12F
330
17
100
AcDbEntity
  8
0
 62
8
100
AcDbLine
 10
111.5945600830622
 20
-25.55474291188482
 30
0.0
 11
111.5945600830622
 21
-25.55434114095774
 31
0.0
  0
LINE
  5
130
330
17
100
AcDbEntity
  8
0
 62
8
100
AcDbLine
 10
111.6050765360829
 20
-25.56004291188481
 30
0.0
 11
111.6050765360829
 21
-25.5612429118846
 31
0.0
  0
LINE
  5
131
330
17
100
AcDbEntity
  8
0
 62
8
100
AcDbLine
 10
111.5682402197324
 20
-25.56004291188481
 30
0.0
 11
111.5682402197324
 21
-25.5612429118846
 31
0.0
  0
LINE
  5
132
330
17
100
AcDbEntity
  8
0
 62
251
100
AcDbLine
 10
111.58723619550375
 20
-25.556423683065102
 30
0.0
 11
111.58655043739489
 21
-25.556423683065102
 31
0.0
  0
LINE
  5
133
330
17
100
AcDbEntity
  8
0
 62
251
100
AcDbLine
 10
111.58889331644932
 20
-25.554423683065043
 30
0.0
 11
111.58489331644932
 21
-25.554423683065043
 31
0.0
  0
LINE
  5
134
330
17
100
AcDbEntity
  8
0
 62
251
100
AcDbLine
 10
111.58889331644933
 20
-25.534060620448543
 30
0.0
 11
111.58889331644932
 21
-25.554423683065043
 31
0.0
  0
LINE
  5
135
330
17
100
AcDbEntity
  8
0
 62
251
100
AcDbLine
 10
111.58489331644944
 20
-25.534060620448823
 30
0.0
 11
111.58489331644932
 21
-25.554423683065043
 31
0.0
  0
LINE
  5
136
330
17
100
AcDbEntity
  8
0
 62
251
100
AcDbLine
 10
111.58889331644932
 20
-25.554423683065043
 30
0.0
 11
111.59189331644933
 21
-25.556423683064992
 31
0.0
  0
LINE
  5
137
330
17
100
AcDbEntity
  8
0
 62
251
100
AcDbLine
 10
111.58489331644932
 20
-25.554423683065043
 30
0.0
 11
111.58189331644931
 21
-25.556423683064992
 31
0.0
  0
LINE
  5
138
330
17
100
AcDbEntity
  8
0
 62
251
100
AcDbLine
 10
111.58689331644945
 20
-25.529771606607824
 30
0.0
 11
111.58489331644944
 21
-25.534060620448823
 31
0.0
  0
LINE
  5
139
330
17
100
AcDbEntity
  8
0
 62
251
100
AcDbLine
 10
111.58689331644945
 20
-25.529771606607824
 30
0.0
 11
111.58889331644943
 21
-25.534060620448773
 31
0.0
  0
LINE
  5
13A
330
17
100
AcDbEntity
  8
0
 62
251
100
AcDbLine
 10
111.58939331644933
 20
-25.548980307392043
 30
0.0
 11
111.58439331644934
 21
-25.551867058738
 31
0.0
  0
LINE
  5
13B
330
17
100
AcDbEntity
  8
0
 62
251
100
AcDbLine
 10
111.58939331644933
 20
-25.546980307392033
 30
0.0
 11
111.58439331644934
 21
-25.54986705873799
 31
0.0
  0
LINE
  5
13C
330
17
100
AcDbEntity
  8
0
 62
251
100
AcDbLine
 10
111.58939331644933
 20
-25.550980307392052
 30
0.0
 11
111.58439331644934
 21
-25.55386705873801
 31
0.0
  0
ARC
  5
13D
330
17
100
AcDbEntity
  8
0
 62
251
100
AcDbCircle
 10
111.58689331644919
 20
-25.53351529910023
 30
0.0
 40
0.0234476876445912
100
AcDbArc
 50
-102.31233016112002
 51
-90.83787464319441
  0
ARC
  5
13E
330
17
100
AcDbEntity
  8
0
 62
251
100
AcDbCircle
 10
111.58689331644919
 20
-25.53351529910023
 30
0.0
 40
0.0234476876445912
100
AcDbArc
 50
-89.16212535632039
 51
-77.68766983823993
  0
LINE
  5
13F
330
17
100
AcDbEntity
  8
0
 62
251
100
AcDbLine
 10
111.58655043739489
 20
-25.556423683064992
 30
0.0
 11
111.58655043739489
 21
-25.55696298674482
 31
0.0
  0
LINE
  5
140
330
17
100
AcDbEntity
  8
0
 62
251
100
AcDbLine
 10
111.58723619550372
 20
-25.556423683064992
 30
0.0
 11
111.58723619550372
 21
-25.55696298674482
 31
0.0
  0
LINE
  5
141
330
17
100
AcDbEntity
  8
0
 62
251
100
AcDbLine
 10
111.58939331644933
 20
-25.544980307392024
 30
0.0
 11
111.58439331644934
 21
-25.54786705873798
 31
0.0
  0
LINE
  5
142
330
17
100
AcDbEntity
  8
0
 62
251
100
AcDbLine
 10
111.58939331644933
 20
-25.54298030739202
 30
0.0
 11
111.58439331644934
 21
-25.545867058737972
 31
0.0
  0
LINE
  5
143
330
17
100
AcDbEntity
  8
0
 62
251
100
AcDbLine
 10
111.58939331644933
 20
-25.540980307392
 30
0.0
 11
111.58439331644934
 21
-25.543867058737963
 31
0.0
  0
LINE
  5
144
330
17
100
AcDbEntity
  8
0
 62
251
100
AcDbLine
 10
111.58939331644933
 20
-25.538980307392002
 30
0.0
 11
111.58439331644934
 21
-25.541867058737953
 31
0.0
  0
LINE
  5
145
330
17
100
AcDbEntity
  8
0
 62
251
100
AcDbLine
 10
111.58939331644933
 20
-25.536980307391982
 30
0.0
 11
111.58439331644934
 21
-25.539867058737943
 31
0.0
  0
LINE
  5
146
330
17
100
AcDbEntity
  8
0
 62
251
100
AcDbLine
 10
111.58939331644933
 20
-25.534980307391983
 30
0.0
 11
111.58439331644934
 21
-25.53786705873793
 31
0.0
  0
LINE
  5
147
330
17
100
AcDbEntity
  8
0-TEXTO DETALLE
 62
12
100
AcDbLine
 10
111.6186418538954
 20
-25.61843435730345
 30
0.0
 11
111.69437527112
 21
-25.61843435730345
 31
0.0
  0
LINE
  5
148
330
17
100
AcDbEntity
  8
0-TEXTO DETALLE
 62
12
100
AcDbLine
 10
111.6479107362715
 20
-25.53419180709775
 30
0.0
 11
111.69437527112
 21
-25.53419180709775
 31
0.0
  0
LINE
  5
149
330
17
100
AcDbEntity
  8
0-TEXTO DETALLE
 62
12
100
AcDbLine
 10
111.634546924508
 20
-25.48552828684531
 30
0.0
 11
111.69437527112
 21
-25.48552828684531
 31
0.0
  0
LINE
  5
14A
330
17
100
AcDbEntity
  8
0-TEXTO DETALLE
 62
12
100
AcDbLine
 10
111.634546924508
 20
-25.56424291188509
 30
0.0
 11
111.634546924508
 21
-25.48552828684531
 31
0.0
  0
LINE
  5
14B
330
17
100
AcDbEntity
  8
0-TEXTO DETALLE
 62
12
100
AcDbLine
 10
111.6479107362715
 20
-25.57327406605562
 30
0.0
 11
111.6479107362715
 21
-25.53419180709775
 31
0.0
  0
CIRCLE
  5
14C
330
17
100
AcDbEntity
  8
0-TEXTO DETALLE
100
AcDbCircle
 10
111.634546924508
 20
-25.5642429118851
 30
0.0
 40
0.0008966570603802
  0
CIRCLE
  5
14D
330
17
100
AcDbEntity
  8
0-TEXTO DETALLE
100
AcDbCircle
 10
111.6479107362715
 20
-25.57327406605562
 30
0.0
 40
0.0008966570603802
  0
LINE
  5
14E
330
17
100
AcDbEntity
  8
0-TEXTO DETALLE
 62
12
100
AcDbLine
 10
111.6186418538954
 20
-25.58324291188509
 30
0.0
 11
111.6186418538954
 21
-25.61843435730345
 31
0.0
  0
CIRCLE
  5
14F
330
17
100
AcDbEntity
  8
0-TEXTO DETALLE
100
AcDbCircle
 10
111.6186418538954
 20
-25.58379291188509
 30
0.0
 40
0.0008966570603802
  0
LWPOLYLINE
  5
150
330
17
100
AcDbEntity
  8
0
 62
11
100
AcDbPolyline
 90
14
 70
1
 10
112.9988934139566
 20
-25.53704291188481
 42
-0.4142135623730951
 10
112.9998934139565
 20
-25.53804291188482
 10
112.9998934139565
 20
-25.54104291188482
 10
113.0186934139565
 20
-25.54104291188482
 42
0.4142135623730966
 10
113.0196934139565
 20
-25.54004291188482
 10
113.0196934139565
 20
-25.37804291188481
 42
0.4142135623730951
 10
113.0186934139565
 20
-25.37704291188481
 10
112.9610934139565
 20
-25.37704291188481
 42
0.4142135623730951
 10
112.9600934139565
 20
-25.37804291188481
 10
112.9600934139565
 20
-25.54004291188482
 42
0.4142135623730948
 10
112.9610934139565
 20
-25.54104291188482
 10
112.9798934139566
 20
-25.54104291188482
 10
112.9798934139566
 20
-25.53804291188482
 42
-0.4142135623730951
 10
112.9808934139566
 20
-25.53704291188481
  0
LWPOLYLINE
  5
151
330
17
100
AcDbEntity
  8
0
 62
11
100
AcDbPolyline
 90
11
 70
1
 10
112.9908934139566
 20
-25.54404291188482
 10
113.0213934139566
 20
-25.54404291188482
 42
0.4142135623730951
 10
113.0223934139565
 20
-25.54304291188481
 10
113.0223934139565
 20
-25.37504291188481
 42
0.4142135623730951
 10
113.0213934139566
 20
-25.37404291188482
 10
112.9583934139565
 20
-25.37404291188482
 42
0.4142135623730951
 10
112.9573934139565
 20
-25.37504291188481
 10
112.9573934139565
 20
-25.54304291188481
 42
0.4142135623730951
 10
112.9583934139565
 20
-25.54404291188482
 10
112.9888934139565
 20
-25.54404291188482
 10
112.9898934139565
 20
-25.54304291188481
  0
LINE
  5
152
330
17
100
AcDbEntity
  8
0
 62
11
100
AcDbLine
 10
112.9965578715631
 20
-25.57974291188459
 30
0.0
 11
112.9965578715631
 21
-25.58274291188459
 31
0.0
  0
LINE
  5
153
330
17
100
AcDbEntity
  8
0
 62
11
100
AcDbLine
 10
112.9965578715631
 20
-25.58374291188459
 30
0.0
 11
112.9965578715631
 21
-25.58674291188459
 31
0.0
  0
LINE
  5
154
330
17
100
AcDbEntity
  8
0
 62
11
100
AcDbLine
 10
112.9970578715631
 20
-25.5872429118846
 30
0.0
 11
112.9965578715631
 21
-25.58674291188459
 31
0.0
  0
LINE
  5
155
330
17
100
AcDbEntity
  8
0
 62
11
100
AcDbLine
 10
112.9970578715631
 20
-25.57924291188459
 30
0.0
 11
112.9965578715631
 21
-25.57974291188459
 31
0.0
  0
LINE
  5
156
330
17
100
AcDbEntity
  8
0
 62
11
100
AcDbLine
 10
112.9970578715631
 20
-25.58324291188459
 30
0.0
 11
112.9965578715631
 21
-25.58374291188459
 31
0.0
  0
LINE
  5
157
330
17
100
AcDbEntity
  8
0
 62
11
100
AcDbLine
 10
112.9970578715631
 20
-25.58324291188459
 30
0.0
 11
112.9965578715631
 21
-25.58274291188459
 31
0.0
  0
LINE
  5
158
330
17
100
AcDbEntity
  8
0
 62
11
100
AcDbLine
 10
112.9965578715631
 20
-25.56174291188476
 30
0.0
 11
112.9965578715631
 21
-25.56374291188476
 31
0.0
  0
LINE
  5
159
330
17
100
AcDbEntity
  8
0
 62
11
100
AcDbLine
 10
112.9965578715631
 20
-25.56474291188476
 30
0.0
 11
112.9965578715631
 21
-25.56674291188477
 31
0.0
  0
LINE
  5
15A
330
17
100
AcDbEntity
  8
0
 62
11
100
AcDbLine
 10
112.997057871563
 20
-25.56424291188476
 30
0.0
 11
112.9965578715631
 21
-25.56474291188476
 31
0.0
  0
LINE
  5
15B
330
17
100
AcDbEntity
  8
0
 62
11
100
AcDbLine
 10
112.997057871563
 20
-25.56424291188476
 30
0.0
 11
112.9965578715631
 21
-25.56374291188477
 31
0.0
  0
LINE
  5
15C
330
17
100
AcDbEntity
  8
0
 62
11
100
AcDbLine
 10
112.9970578715631
 20
-25.56724291188477
 30
0.0
 11
112.9965578715631
 21
-25.56674291188477
 31
0.0
  0
LINE
  5
15D
330
17
100
AcDbEntity
  8
0
 62
11
100
AcDbLine
 10
112.9970578715631
 20
-25.56124291188476
 30
0.0
 11
112.9965578715631
 21
-25.56174291188476
 31
0.0
  0
LINE
  5
15E
330
17
100
AcDbEntity
  8
0
 62
11
100
AcDbLine
 10
112.9834255460409
 20
-25.57974291188459
 30
0.0
 11
112.9834255460409
 21
-25.58274291188459
 31
0.0
  0
LINE
  5
15F
330
17
100
AcDbEntity
  8
0
 62
11
100
AcDbLine
 10
112.9834255460409
 20
-25.58374291188459
 30
0.0
 11
112.9834255460409
 21
-25.58674291188459
 31
0.0
  0
LINE
  5
160
330
17
100
AcDbEntity
  8
0
 62
11
100
AcDbLine
 10
112.9829255460409
 20
-25.5872429118846
 30
0.0
 11
112.9834255460409
 21
-25.58674291188459
 31
0.0
  0
LINE
  5
161
330
17
100
AcDbEntity
  8
0
 62
11
100
AcDbLine
 10
112.9829255460409
 20
-25.57924291188459
 30
0.0
 11
112.9834255460409
 21
-25.57974291188459
 31
0.0
  0
LINE
  5
162
330
17
100
AcDbEntity
  8
0
 62
11
100
AcDbLine
 10
112.9829255460409
 20
-25.58324291188459
 30
0.0
 11
112.9834255460409
 21
-25.58374291188459
 31
0.0
  0
LINE
  5
163
330
17
100
AcDbEntity
  8
0
 62
11
100
AcDbLine
 10
112.9829255460409
 20
-25.58324291188459
 30
0.0
 11
112.9834255460409
 21
-25.58274291188459
 31
0.0
  0
LINE
  5
164
330
17
100
AcDbEntity
  8
0
 62
11
100
AcDbLine
 10
112.9834255460409
 20
-25.56174291188476
 30
0.0
 11
112.9834255460409
 21
-25.56374291188476
 31
0.0
  0
LINE
  5
165
330
17
100
AcDbEntity
  8
0
 62
11
100
AcDbLine
 10
112.9834255460409
 20
-25.56474291188476
 30
0.0
 11
112.9834255460409
 21
-25.56674291188477
 31
0.0
  0
LINE
  5
166
330
17
100
AcDbEntity
  8
0
 62
11
100
AcDbLine
 10
112.9829255460409
 20
-25.56424291188476
 30
0.0
 11
112.9834255460409
 21
-25.56474291188476
 31
0.0
  0
LINE
  5
167
330
17
100
AcDbEntity
  8
0
 62
11
100
AcDbLine
 10
112.9829255460409
 20
-25.56424291188476
 30
0.0
 11
112.9834255460409
 21
-25.56374291188477
 31
0.0
  0
LINE
  5
168
330
17
100
AcDbEntity
  8
0
 62
11
100
AcDbLine
 10
112.9829255460409
 20
-25.56724291188477
 30
0.0
 11
112.9834255460409
 21
-25.56674291188477
 31
0.0
  0
LINE
  5
169
330
17
100
AcDbEntity
  8
0
 62
11
100
AcDbLine
 10
112.9829255460409
 20
-25.56124291188476
 30
0.0
 11
112.9834255460409
 21
-25.56174291188476
 31
0.0
  0
LINE
  5
16A
330
17
100
AcDbEntity
  8
0
 62
11
100
AcDbLine
 10
112.9970578715631
 20
-25.57924291188459
 30
0.0
 11
112.9965578715631
 21
-25.57974291188459
 31
0.0
  0
LWPOLYLINE
  5
16B
330
17
100
AcDbEntity
  8
0
 62
8
100
AcDbPolyline
 90
6
 70
1
 10
113.0092433686295
 20
-25.56824291188459
 10
113.0092433686295
 20
-25.5782429118846
 10
113.0042433686295
 20
-25.5782429118846
 10
113.0012433686296
 20
-25.57474291188459
 10
113.0012433686296
 20
-25.57174291188459
 10
113.0042433686295
 20
-25.56824291188459
  0
LWPOLYLINE
  5
16C
330
17
100
AcDbEntity
  8
0
 62
8
100
AcDbPolyline
 90
6
 70
1
 10
113.0087433686296
 20
-25.56874291188459
 10
113.0087433686296
 20
-25.57774291188459
 10
113.0043947564484
 20
-25.57774291188459
 10
113.0017433686296
 20
-25.57447532000536
 10
113.0017433686296
 20
-25.57201050376384
 10
113.0043947564484
 20
-25.56874291188459
  0
LINE
  5
16D
330
17
100
AcDbEntity
  8
0
 62
11
100
AcDbLine
 10
112.9970578715631
 20
-25.56724291188459
 30
0.0
 11
112.9965578715631
 21
-25.56674291188459
 31
0.0
  0
ARC
  5
16E
330
17
100
AcDbEntity
  8
0
 62
8
100
AcDbCircle
 10
112.9848672253962
 20
-25.57324291188459
 30
0.0
 40
0.0133761432333217
100
AcDbArc
 50
330.9259378909826
 51
29.07406210903059
  0
LINE
  5
16F
330
17
100
AcDbEntity
  8
0
 62
8
100
AcDbLine
 10
113.0042433686295
 20
-25.56824291188459
 30
0.0
 11
113.0042433686295
 21
-25.56724291188459
 31
0.0
  0
LINE
  5
170
330
17
100
AcDbEntity
  8
0
 62
8
100
AcDbLine
 10
113.0042433686295
 20
-25.5782429118846
 30
0.0
 11
113.0042433686295
 21
-25.57924291188459
 31
0.0
  0
LINE
  5
171
330
17
100
AcDbEntity
  8
0
 62
11
100
AcDbLine
 10
112.9829255460409
 20
-25.56724291188477
 30
0.0
 11
112.9834255460409
 21
-25.56674291188477
 31
0.0
  0
LINE
  5
172
330
17
100
AcDbEntity
  8
0
 62
8
100
AcDbLine
 10
112.9707400489744
 20
-25.57924291188459
 30
0.0
 11
112.9707400489744
 21
-25.56724291188459
 31
0.0
  0
LWPOLYLINE
  5
173
330
17
100
AcDbEntity
  8
0
 62
8
100
AcDbPolyline
 90
6
 70
1
 10
112.9707400489744
 20
-25.56824291188459
 10
112.9707400489744
 20
-25.5782429118846
 10
112.9757400489745
 20
-25.5782429118846
 10
112.9787400489745
 20
-25.57474291188459
 10
112.9787400489745
 20
-25.57174291188459
 10
112.9757400489745
 20
-25.56824291188459
  0
LWPOLYLINE
  5
174
330
17
100
AcDbEntity
  8
0
 62
8
100
AcDbPolyline
 90
6
 70
1
 10
112.9712400489744
 20
-25.56874291188459
 10
112.9712400489744
 20
-25.57774291188459
 10
112.9755886611556
 20
-25.57774291188459
 10
112.9782400489744
 20
-25.57447532000536
 10
112.9782400489744
 20
-25.57201050376384
 10
112.9755886611556
 20
-25.56874291188459
  0
LINE
  5
175
330
17
100
AcDbEntity
  8
0
 62
11
100
AcDbLine
 10
112.9829255460409
 20
-25.56724291188459
 30
0.0
 11
112.9834255460409
 21
-25.56674291188459
 31
0.0
  0
ARC
  5
176
330
17
100
AcDbEntity
  8
0
 62
8
100
AcDbCircle
 10
112.9951161922078
 20
-25.57324291188459
 30
0.0
 40
0.0133761432333217
100
AcDbArc
 50
150.9259378909694
 51
209.0740621090173
  0
LINE
  5
177
330
17
100
AcDbEntity
  8
0
 62
8
100
AcDbLine
 10
112.9757400489745
 20
-25.56824291188459
 30
0.0
 11
112.9757400489745
 21
-25.56724291188459
 31
0.0
  0
LINE
  5
178
330
17
100
AcDbEntity
  8
0
 62
8
100
AcDbLine
 10
112.9757400489745
 20
-25.5782429118846
 30
0.0
 11
112.9757400489745
 21
-25.57924291188459
 31
0.0
  0
ARC
  5
179
330
17
100
AcDbEntity
  8
0
 62
8
100
AcDbCircle
 10
112.989991708802
 20
-25.60107839899225
 30
0.0
 40
0.0155354871076451
100
AcDbArc
 50
62.94535250408637
 51
117.054647495984
  0
LINE
  5
17A
330
17
100
AcDbEntity
  8
0
 62
8
100
AcDbLine
 10
113.0092433686295
 20
-25.56724291188485
 30
0.0
 11
113.0092433686295
 21
-25.57924291188459
 31
0.0
  0
LINE
  5
17B
330
17
100
AcDbEntity
  8
0
 62
8
100
AcDbLine
 10
112.9818934139566
 20
-25.55474291188482
 30
0.0
 11
112.9818934139566
 21
-25.55434114095774
 31
0.0
  0
LINE
  5
17C
330
17
100
AcDbEntity
  8
0
 62
8
100
AcDbLine
 10
112.9978934139566
 20
-25.55474291188482
 30
0.0
 11
112.9978934139566
 21
-25.55434114095774
 31
0.0
  0
LINE
  5
17D
330
17
100
AcDbEntity
  8
0
 62
8
100
AcDbLine
 10
113.0084098669772
 20
-25.56004291188481
 30
0.0
 11
113.0084098669772
 21
-25.5612429118846
 31
0.0
  0
LINE
  5
17E
330
17
100
AcDbEntity
  8
0
 62
8
100
AcDbLine
 10
112.9715735506267
 20
-25.56004291188481
 30
0.0
 11
112.9715735506267
 21
-25.5612429118846
 31
0.0
  0
LINE
  5
17F
330
17
100
AcDbEntity
  8
0
 62
251
100
AcDbLine
 10
112.99056952639808
 20
-25.556423683065102
 30
0.0
 11
112.98988376828922
 21
-25.556423683065102
 31
0.0
  0
LINE
  5
180
330
17
100
AcDbEntity
  8
0
 62
251
100
AcDbLine
 10
112.99222664734364
 20
-25.554423683065043
 30
0.0
 11
112.98822664734365
 21
-25.554423683065043
 31
0.0
  0
LINE
  5
181
330
17
100
AcDbEntity
  8
0
 62
251
100
AcDbLine
 10
112.99222664734366
 20
-25.534060620448543
 30
0.0
 11
112.99222664734364
 21
-25.554423683065043
 31
0.0
  0
LINE
  5
182
330
17
100
AcDbEntity
  8
0
 62
251
100
AcDbLine
 10
112.98822664734377
 20
-25.534060620448823
 30
0.0
 11
112.98822664734365
 21
-25.554423683065043
 31
0.0
  0
LINE
  5
183
330
17
100
AcDbEntity
  8
0
 62
251
100
AcDbLine
 10
112.99222664734364
 20
-25.554423683065043
 30
0.0
 11
112.99522664734366
 21
-25.556423683064992
 31
0.0
  0
LINE
  5
184
330
17
100
AcDbEntity
  8
0
 62
251
100
AcDbLine
 10
112.98822664734365
 20
-25.554423683065043
 30
0.0
 11
112.98522664734364
 21
-25.556423683064992
 31
0.0
  0
LINE
  5
185
330
17
100
AcDbEntity
  8
0
 62
251
100
AcDbLine
 10
112.99022664734377
 20
-25.529771606607824
 30
0.0
 11
112.98822664734377
 21
-25.534060620448823
 31
0.0
  0
LINE
  5
186
330
17
100
AcDbEntity
  8
0
 62
251
100
AcDbLine
 10
112.99022664734377
 20
-25.529771606607824
 30
0.0
 11
112.99222664734376
 21
-25.534060620448773
 31
0.0
  0
LINE
  5
187
330
17
100
AcDbEntity
  8
0
 62
251
100
AcDbLine
 10
112.99272664734366
 20
-25.548980307392043
 30
0.0
 11
112.98772664734366
 21
-25.551867058738
 31
0.0
  0
LINE
  5
188
330
17
100
AcDbEntity
  8
0
 62
251
100
AcDbLine
 10
112.99272664734366
 20
-25.546980307392033
 30
0.0
 11
112.98772664734366
 21
-25.54986705873799
 31
0.0
  0
LINE
  5
189
330
17
100
AcDbEntity
  8
0
 62
251
100
AcDbLine
 10
112.99272664734366
 20
-25.550980307392052
 30
0.0
 11
112.98772664734366
 21
-25.55386705873801
 31
0.0
  0
ARC
  5
18A
330
17
100
AcDbEntity
  8
0
 62
251
100
AcDbCircle
 10
112.99022664734352
 20
-25.53351529910023
 30
0.0
 40
0.0234476876445912
100
AcDbArc
 50
-102.31233016112002
 51
-90.83787464319441
  0
ARC
  5
18B
330
17
100
AcDbEntity
  8
0
 62
251
100
AcDbCircle
 10
112.99022664734352
 20
-25.53351529910023
 30
0.0
 40
0.0234476876445912
100
AcDbArc
 50
-89.16212535632039
 51
-77.68766983823993
  0
LINE
  5
18C
330
17
100
AcDbEntity
  8
0
 62
251
100
AcDbLine
 10
112.98988376828922
 20
-25.556423683064992
 30
0.0
 11
112.98988376828922
 21
-25.55696298674482
 31
0.0
  0
LINE
  5
18D
330
17
100
AcDbEntity
  8
0
 62
251
100
AcDbLine
 10
112.99056952639805
 20
-25.556423683064992
 30
0.0
 11
112.99056952639805
 21
-25.55696298674482
 31
0.0
  0
LINE
  5
18E
330
17
100
AcDbEntity
  8
0
 62
251
100
AcDbLine
 10
112.99272664734366
 20
-25.544980307392024
 30
0.0
 11
112.98772664734366
 21
-25.54786705873798
 31
0.0
  0
LINE
  5
18F
330
17
100
AcDbEntity
  8
0
 62
251
100
AcDbLine
 10
112.99272664734366
 20
-25.54298030739202
 30
0.0
 11
112.98772664734366
 21
-25.545867058737972
 31
0.0
  0
LINE
  5
190
330
17
100
AcDbEntity
  8
0
 62
251
100
AcDbLine
 10
112.99272664734366
 20
-25.540980307392
 30
0.0
 11
112.98772664734366
 21
-25.543867058737963
 31
0.0
  0
LINE
  5
191
330
17
100
AcDbEntity
  8
0
 62
251
100
AcDbLine
 10
112.99272664734366
 20
-25.538980307392002
 30
0.0
 11
112.98772664734366
 21
-25.541867058737953
 31
0.0
  0
LINE
  5
192
330
17
100
AcDbEntity
  8
0
 62
251
100
AcDbLine
 10
112.99272664734366
 20
-25.536980307391982
 30
0.0
 11
112.98772664734366
 21
-25.539867058737943
 31
0.0
  0
LINE
  5
193
330
17
100
AcDbEntity
  8
0
 62
251
100
AcDbLine
 10
112.99272664734366
 20
-25.534980307391983
 30
0.0
 11
112.98772664734366
 21
-25.53786705873793
 31
0.0
  0
LINE
  5
194
330
17
100
AcDbEntity
  8
0
 62
11
100
AcDbLine
 10
112.982925546041
 20
-25.5872429118845
 30
0.0
 11
111.5937245406687
 21
-25.58724291188458
 31
0.0
  0
LINE
  5
195
330
17
100
AcDbEntity
  8
0
 62
11
100
AcDbLine
 10
112.9829255460415
 20
-25.58324291188519
 30
0.0
 11
111.5937245406682
 21
-25.58324291188512
 31
0.0
  0
LINE
  5
196
330
17
100
AcDbEntity
  8
0
 62
11
100
AcDbLine
 10
112.9829255460412
 20
-25.57924291188485
 30
0.0
 11
111.5934888603235
 21
-25.57924291188484
 31
0.0
  0
LINE
  5
197
330
17
100
AcDbEntity
  8
0
  6
CONTINUOUS
 62
8
 48
100.0
100
AcDbLine
 10
112.9834255460409
 20
-25.58379291188519
 30
0.0
 11
111.5932245406687
 21
-25.58379291188512
 31
0.0
  0
LINE
  5
198
330
17
100
AcDbEntity
  8
0
 62
11
100
AcDbLine
 10
112.9829255460409
 20
-25.56724291188484
 30
0.0
 11
111.5937245406688
 21
-25.56724291188485
 31
0.0
  0
LINE
  5
199
330
17
100
AcDbEntity
  8
0
 62
11
100
AcDbLine
 10
112.9829255460414
 20
-25.56424291188518
 30
0.0
 11
111.5937245406684
 21
-25.56424291188511
 31
0.0
  0
LINE
  5
19A
330
17
100
AcDbEntity
  8
0
 62
11
100
AcDbLine
 10
112.9829255460407
 20
-25.56124291188449
 30
0.0
 11
111.5937245406689
 21
-25.56124291188457
 31
0.0
  0
LINE
  5
19B
330
17
100
AcDbEntity
  8
0
 62
11
100
AcDbLine
 10
111.5795922151466
 20
-25.58724291188457
 30
0.0
 11
111.3800593044036
 21
-25.58724291188459
 31
0.0
  0
LINE
  5
19C
330
17
100
AcDbEntity
  8
0
 62
11
100
AcDbLine
 10
111.5795922151471
 20
-25.58324291188512
 30
0.0
 11
111.3800593044036
 21
-25.5832429118851
 31
0.0
  0
LINE
  5
19D
330
17
100
AcDbEntity
  8
0
 62
11
100
AcDbLine
 10
111.5798278954919
 20
-25.57924291188484
 30
0.0
 11
111.3800593044036
 21
-25.57924291188484
 31
0.0
  0
LINE
  5
19E
330
17
100
AcDbEntity
  8
0
  6
CONTINUOUS
 62
8
 48
100.0
100
AcDbLine
 10
111.5800922151466
 20
-25.58379291188512
 30
0.0
 11
111.3800593044036
 21
-25.5837929118851
 31
0.0
  0
LINE
  5
19F
330
17
100
AcDbEntity
  8
0
 62
11
100
AcDbLine
 10
111.579592215147
 20
-25.5642429118851
 30
0.0
 11
111.3800593044036
 21
-25.5642429118851
 31
0.0
  0
LINE
  5
1A0
330
17
100
AcDbEntity
  8
0
 62
11
100
AcDbLine
 10
111.5795922151465
 20
-25.56724291188484
 30
0.0
 11
111.3800593044036
 21
-25.56724291188485
 31
0.0
  0
LINE
  5
1A1
330
17
100
AcDbEntity
  8
0
 62
11
100
AcDbLine
 10
111.5795922151465
 20
-25.56124291188457
 30
0.0
 11
111.3800593044036
 21
-25.56124291188459
 31
0.0
  0
LINE
  5
1A2
330
17
100
AcDbEntity
  8
0
100
AcDbLine
 10
111.9320960225958
 20
-25.29911682323166
 30
0.0
 11
111.9320960225958
 21
-25.74520481264244
 31
0.0
  0
ENDSEC
  0
SECTION
  2
OBJECTS
  0
DICTIONARY
  5
A
330
0
100
AcDbDictionary
281
1
  3
ACAD_COLOR
350
B
  3
ACAD_GROUP
350
C
  3
ACAD_LAYOUT
350
D
  3
ACAD_MATERIAL
350
E
  3
ACAD_MLEADERSTYLE
350
F
  3
ACAD_MLINESTYLE
350
10
  3
ACAD_PLOTSETTINGS
350
11
  3
ACAD_PLOTSTYLENAME
350
12
  3
ACAD_SCALELIST
350
14
  3
ACAD_TABLESTYLE
350
15
  3
ACAD_VISUALSTYLE
350
16
  3
EZDXF_META
350
2D
  0
DICTIONARY
  5
B
330
A
100
AcDbDictionary
281
1
  0
DICTIONARY
  5
C
330
A
100
AcDbDictionary
281
1
  0
DICTIONARY
  5
D
330
A
100
AcDbDictionary
281
1
  3
Model
350
1A
  3
Layout1
350
1E
  0
DICTIONARY
  5
E
330
A
100
AcDbDictionary
281
1
  3
ByBlock
350
1F
  3
ByLayer
350
20
  3
Global
350
21
  0
DICTIONARY
  5
F
330
A
100
AcDbDictionary
281
1
  3
Standard
350
2C
  0
DICTIONARY
  5
10
330
A
100
AcDbDictionary
281
1
  3
Standard
350
22
  0
DICTIONARY
  5
11
330
A
100
AcDbDictionary
281
1
  0
ACDBDICTIONARYWDFLT
  5
12
330
A
100
AcDbDictionary
281
1
  3
Normal
350
13
100
AcDbDictionaryWithDefault
340
13
  0
ACDBPLACEHOLDER
  5
13
330
12
  0
DICTIONARY
  5
14
330
A
100
AcDbDictionary
281
1
  0
DICTIONARY
  5
15
330
A
100
AcDbDictionary
281
1
  0
DICTIONARY
  5
16
330
A
100
AcDbDictionary
281
1
  0
LAYOUT
  5
1A
330
D
100
AcDbPlotSettings
  1

  4
A3
  6

 40
7.5
 41
20.0
 42
7.5
 43
20.0
 44
420.0
 45
297.0
 46
0.0
 47
0.0
 48
0.0
 49
0.0
140
0.0
141
0.0
142
1.0
143
1.0
 70
1024
 72
1
 73
0
 74
5
  7

 75
16
 76
0
 77
2
 78
300
147
1.0
148
0.0
149
0.0
100
AcDbLayout
  1
Model
 70
1
 71
0
 10
0.0
 20
0.0
 11
420.0
 21
297.0
 12
0.0
 22
0.0
 32
0.0
 14
1e+20
 24
1e+20
 34
1e+20
 15
-1e+20
 25
-1e+20
 35
-1e+20
146
0.0
 13
0.0
 23
0.0
 33
0.0
 16
1.0
 26
0.0
 36
0.0
 17
0.0
 27
1.0
 37
0.0
 76
1
330
17
  0
LAYOUT
  5
1E
330
D
100
AcDbPlotSettings
  1

  4
A3
  6

 40
7.5
 41
20.0
 42
7.5
 43
20.0
 44
420.0
 45
297.0
 46
0.0
 47
0.0
 48
0.0
 49
0.0
140
0.0
141
0.0
142
1.0
143
1.0
 70
0
 72
1
 73
0
 74
5
  7

 75
16
 76
0
 77
2
 78
300
147
1.0
148
0.0
149
0.0
100
AcDbLayout
  1
Layout1
 70
1
 71
1
 10
0.0
 20
0.0
 11
420.0
 21
297.0
 12
0.0
 22
0.0
 32
0.0
 14
1e+20
 24
1e+20
 34
1e+20
 15
-1e+20
 25
-1e+20
 35
-1e+20
146
0.0
 13
0.0
 23
0.0
 33
0.0
 16
1.0
 26
0.0
 36
0.0
 17
0.0
 27
1.0
 37
0.0
 76
1
330
1B
  0
MATERIAL
  5
1F
102
{ACAD_REACTORS
330
E
102
}
330
E
100
AcDbMaterial
  1
ByBlock
  2

 70
0
 40
1.0
 71
1
 41
1.0
 91
-1023410177
 42
1.0
 72
1
  3

 73
1
 74
1
 75
1
 44
0.5
 73
0
 45
1.0
 46
1.0
 77
1
  4

 78
1
 79
1
170
1
 48
1.0
171
1
  6

172
1
173
1
174
1
140
1.0
141
1.0
175
1
  7

176
1
177
1
178
1
143
1.0
179
1
  8

270
1
271
1
272
1
145
1.0
146
1.0
273
1
  9

274
1
275
1
276
1
 42
1.0
 72
1
  3

 73
1
 74
1
 75
1
 94
63
  0
MATERIAL
  5
20
102
{ACAD_REACTORS
330
E
102
}
330
E
100
AcDbMaterial
  1
ByLayer
  2

 70
0
 40
1.0
 71
1
 41
1.0
 91
-1023410177
 42
1.0
 72
1
  3

 73
1
 74
1
 75
1
 44
0.5
 73
0
 45
1.0
 46
1.0
 77
1
  4

 78
1
 79
1
170
1
 48
1.0
171
1
  6

172
1
173
1
174
1
140
1.0
141
1.0
175
1
  7

176
1
177
1
178
1
143
1.0
179
1
  8

270
1
271
1
272
1
145
1.0
146
1.0
273
1
  9

274
1
275
1
276
1
 42
1.0
 72
1
  3

 73
1
 74
1
 75
1
 94
63
  0
MATERIAL
  5
21
102
{ACAD_REACTORS
330
E
102
}
330
E
100
AcDbMaterial
  1
Global
  2

 70
0
 40
1.0
 71
1
 41
1.0
 91
-1023410177
 42
1.0
 72
1
  3

 73
1
 74
1
 75
1
 44
0.5
 73
0
 45
1.0
 46
1.0
 77
1
  4

 78
1
 79
1
170
1
 48
1.0
171
1
  6

172
1
173
1
174
1
140
1.0
141
1.0
175
1
  7

176
1
177
1
178
1
143
1.0
179
1
  8

270
1
271
1
272
1
145
1.0
146
1.0
273
1
  9

274
1
275
1
276
1
 42
1.0
 72
1
  3

 73
1
 74
1
 75
1
 94
63
  0
MLINESTYLE
  5
22
102
{ACAD_REACTORS
330
10
102
}
330
10
100
AcDbMlineStyle
  2
Standard
 70
0
  3

 62
256
 51
90.0
 52
90.0
 71
2
 49
0.5
 62
256
  6
BYLAYER
 49
-0.5
 62
256
  6
BYLAYER
  0
MLEADERSTYLE
  5
2C
102
{ACAD_REACTORS
330
F
102
}
330
F
100
AcDbMLeaderStyle
179
2
170
2
171
1
172
0
 90
2
 40
0.0
 41
0.0
173
1
 91
-1056964608
 92
-2
290
1
 42
2.0
291
1
 43
8.0
  3
Standard
 44
4.0
300

342
29
174
1
175
1
176
0
178
1
 93
-1056964608
 45
4.0
292
0
297
0
 46
4.0
 94
-1056964608
 47
1.0
 49
1.0
140
1.0
294
1
141
0.0
177
0
142
1.0
295
0
296
0
143
3.75
271
0
272
9
273
9
  0
DICTIONARY
  5
2D
330
A
100
AcDbDictionary
280
1
281
1
  3
CREATED_BY_EZDXF
350
2E
  3
WRITTEN_BY_EZDXF
350
1A5
  0
DICTIONARYVAR
  5
2E
330
2D
100
DictionaryVariables
280
0
  1
1.4.4 @ 2026-10-03T07:35:37.476642+00:00
  0
DICTIONARYVAR
  5
1A5
330
2D
100
DictionaryVariables
280
0
  1
1.4.4 @ 2026-10-03T07:35:37.487613+00:00
  0
ENDSEC
  0
EOF
