  0
SECTION
  2
HEADER
  9
$ACADVER
  1
AC1032
  9
$ACADMAINTVER
 90
4
  9
$DWGCODEPAGE
  3
ANSI_1252
  9
$LASTSAVEDBY
  1
ezdxf
  9
$REQUIREDVERSIONS
160
0
  9
$INSBASE
 10
0.0
 20
0.0
 30
0.0
  9
$EXTMIN
 10
1e+20
 20
1e+20
 30
1e+20
  9
$EXTMAX
 10
-1e+20
 20
-1e+20
 30
-1e+20
  9
$LIMMIN
 10
0.0
 20
0.0
  9
$LIMMAX
 10
420.0
 20
297.0
  9
$ORTHOMODE
 70
0
  9
$REGENMODE
 70
1
  9
$FILLMODE
 70
1
  9
$QTEXTMODE
 70
0
  9
$MIRRTEXT
 70
1
  9
$LTSCALE
 40
1.0
  9
$ATTMODE
 70
1
  9
$TEXTSIZE
 40
2.5
  9
$TRACEWID
 40
1.0
  9
$TEXTSTYLE
  7
Standard
  9
$CLAYER
  8
0
  9
$CELTYPE
  6
ByLayer
  9
$CECOLOR
 62
256
  9
$CELTSCALE
 40
1.0
  9
$DISPSILH
 70
0
  9
$DIMSCALE
 40
1.0
  9
$DIMASZ
 40
2.5
  9
$DIMEXO
 40
0.625
  9
$DIMDLI
 40
3.75
  9
$DIMRND
 40
0.0
  9
$DIMDLE
 40
0.0
  9
$DIMEXE
 40
1.25
  9
$DIMTP
 40
0.0
  9
$DIMTM
 40
0.0
  9
$DIMTXT
 40
2.5
  9
$DIMCEN
 40
2.5
  9
$DIMTSZ
 40
0.0
  9
$DIMTOL
 70
0
  9
$DIMLIM
 70
0
  9
$DIMTIH
 70
0
  9
$DIMTOH
 70
0
  9
$DIMSE1
 70
0
  9
$DIMSE2
 70
0
  9
$DIMTAD
 70
1
  9
$DIMZIN
 70
8
  9
$DIMBLK
  1

  9
$DIMASO
 70
1
  9
$DIMSHO
 70
1
  9
$DIMPOST
  1

  9
$DIMAPOST
  1

  9
$DIMALT
 70
0
  9
$DIMALTD
 70
3
  9
$DIMALTF
 40
0.03937007874
  9
$DIMLFAC
 40
1.0
  9
$DIMTOFL
 70
1
  9
$DIMTVP
 40
0.0
  9
$DIMTIX
 70
0
  9
$DIMSOXD
 70
0
  9
$DIMSAH
 70
0
  9
$DIMBLK1
  1

  9
$DIMBLK2
  1

  9
$DIMSTYLE
  2
ISO-25
  9
$DIMCLRD
 70
0
  9
$DIMCLRE
 70
0
  9
$DIMCLRT
 70
0
  9
$DIMTFAC
 40
1.0
  9
$DIMGAP
 40
0.625
  9
$DIMJUST
 70
0
  9
$DIMSD1
 70
0
  9
$DIMSD2
 70
0
  9
$DIMTOLJ
 70
0
  9
$DIMTZIN
 70
8
  9
$DIMALTZ
 70
0
  9
$DIMALTTZ
 70
0
  9
$DIMUPT
 70
0
  9
$DIMDEC
 70
2
  9
$DIMTDEC
 70
2
  9
$DIMALTU
 70
2
  9
$DIMALTTD
 70
3
  9
$DIMTXSTY
  7
Standard
  9
$DIMAUNIT
 70
0
  9
$DIMADEC
 70
0
  9
$DIMALTRND
 40
0.0
  9
$DIMAZIN
 70
0
  9
$DIMDSEP
 70
44
  9
$DIMATFIT
 70
3
  9
$DIMFRAC
 70
0
  9
$DIMLDRBLK
  1

  9
$DIMLUNIT
 70
2
  9
$DIMLWD
 70
-2
  9
$DIMLWE
 70
-2
  9
$DIMTMOVE
 70
0
  9
$DIMFXL
 40
1.0
  9
$DIMFXLON
 70
0
  9
$DIMJOGANG
 40
0.785398163397
  9
$DIMTFILL
 70
0
  9
$DIMTFILLCLR
 70
0
  9
$DIMARCSYM
 70
0
  9
$DIMLTYPE
  6

  9
$DIMLTEX1
  6

  9
$DIMLTEX2
  6

  9
$DIMTXTDIRECTION
 70
0
  9
$LUNITS
 70
2
  9
$LUPREC
 70
4
  9
$SKETCHINC
 40
1.0
  9
$FILLETRAD
 40
10.0
  9
$AUNITS
 70
0
  9
$AUPREC
 70
2
  9
$MENU
  1
.
  9
$ELEVATION
 40
0.0
  9
$PELEVATION
 40
0.0
  9
$THICKNESS
 40
0.0
  9
$LIMCHECK
 70
0
  9
$CHAMFERA
 40
0.0
  9
$CHAMFERB
 40
0.0
  9
$CHAMFERC
 40
0.0
  9
$CHAMFERD
 40
0.0
  9
$SKPOLY
 70
0
  9
$TDCREATE
 40
2461317.3164467593
  9
$TDUCREATE
 40
2458532.153996898
  9
$TDUPDATE
 40
2461317.3164467593
  9
$TDUUPDATE
 40
2458532.1544311
  9
$TDINDWG
 40
0.0
  9
$TDUSRTIMER
 40
0.0
  9
$USRTIMER
 70
1
  9
$ANGBASE
 50
0.0
  9
$ANGDIR
 70
0
  9
$PDMODE
 70
0
  9
$PDSIZE
 40
0.0
  9
$PLINEWID
 40
0.0
  9
$SPLFRAME
 70
0
  9
$SPLINETYPE
 70
6
  9
$SPLINESEGS
 70
8
  9
$HANDSEED
  5
37E
  9
$SURFTAB1
 70
6
  9
$SURFTAB2
 70
6
  9
$SURFTYPE
 70
6
  9
$SURFU
 70
6
  9
$SURFV
 70
6
  9
$UCSBASE
  2

  9
$UCSNAME
  2

  9
$UCSORG
 10
0.0
 20
0.0
 30
0.0
  9
$UCSXDIR
 10
1.0
 20
0.0
 30
0.0
  9
$UCSYDIR
 10
0.0
 20
1.0
 30
0.0
  9
$UCSORTHOREF
  2

  9
$UCSORTHOVIEW
 70
0
  9
$UCSORGTOP
 10
0.0
 20
0.0
 30
0.0
  9
$UCSORGBOTTOM
 10
0.0
 20
0.0
 30
0.0
  9
$UCSORGLEFT
 10
0.0
 20
0.0
 30
0.0
  9
$UCSORGRIGHT
 10
0.0
 20
0.0
 30
0.0
  9
$UCSORGFRONT
 10
0.0
 20
0.0
 30
0.0
  9
$UCSORGBACK
 10
0.0
 20
0.0
 30
0.0
  9
$PUCSBASE
  2

  9
$PUCSNAME
  2

  9
$PUCSORG
 10
0.0
 20
0.0
 30
0.0
  9
$PUCSXDIR
 10
1.0
 20
0.0
 30
0.0
  9
$PUCSYDIR
 10
0.0
 20
1.0
 30
0.0
  9
$PUCSORTHOREF
  2

  9
$PUCSORTHOVIEW
 70
0
  9
$PUCSORGTOP
 10
0.0
 20
0.0
 30
0.0
  9
$PUCSORGBOTTOM
 10
0.0
 20
0.0
 30
0.0
  9
$PUCSORGLEFT
 10
0.0
 20
0.0
 30
0.0
  9
$PUCSORGRIGHT
 10
0.0
 20
0.0
 30
0.0
  9
$PUCSORGFRONT
 10
0.0
 20
0.0
 30
0.0
  9
$PUCSORGBACK
 10
0.0
 20
0.0
 30
0.0
  9
$USERI1
 70
0
  9
$USERI2
 70
0
  9
$USERI3
 70
0
  9
$USERI4
 70
0
  9
$USERI5
 70
0
  9
$USERR1
 40
0.0
  9
$USERR2
 40
0.0
  9
$USERR3
 40
0.0
  9
$USERR4
 40
0.0
  9
$USERR5
 40
0.0
  9
$WORLDVIEW
 70
1
  9
$SHADEDGE
 70
3
  9
$SHADEDIF
 70
70
  9
$TILEMODE
 70
1
  9
$MAXACTVP
 70
64
  9
$PINSBASE
 10
0.0
 20
0.0
 30
0.0
  9
$PLIMCHECK
 70
0
  9
$PEXTMIN
 10
1e+20
 20
1e+20
 30
1e+20
  9
$PEXTMAX
 10
-1e+20
 20
-1e+20
 30
-1e+20
  9
$PLIMMIN
 10
0.0
 20
0.0
  9
$PLIMMAX
 10
420.0
 20
297.0
  9
$UNITMODE
 70
0
  9
$VISRETAIN
 70
1
  9
$PLINEGEN
 70
0
  9
$PSLTSCALE
 70
1
  9
$TREEDEPTH
 70
3020
  9
$CMLSTYLE
  2
Standard
  9
$CMLJUST
 70
0
  9
$CMLSCALE
 40
20.0
  9
$PROXYGRAPHICS
 70
1
  9
$MEASUREMENT
 70
1
  9
$CELWEIGHT
370
-1
  9
$ENDCAPS
280
0
  9
$JOINSTYLE
280
0
  9
$LWDISPLAY
290
0
  9
$INSUNITS
 70
6
  9
$HYPERLINKBASE
  1

  9
$STYLESHEET
  1

  9
$XEDIT
290
1
  9
$CEPSNTYPE
380
0
  9
$PSTYLEMODE
290
1
  9
$FINGERPRINTGUID
  2
{3B7D051D-FD9B-42DE-AB68-954C9E6447C7}
  9
$VERSIONGUID
  2
{69D078D1-ED27-4EB9-A6DF-5EAEDF7BA30C}
  9
$EXTNAMES
290
1
  9
$PSVPSCALE
 40
0.0
  9
$OLESTARTUP
290
0
  9
$SORTENTS
280
127
  9
$INDEXCTL
280
0
  9
$HIDETEXT
280
1
  9
$XCLIPFRAME
280
1
  9
$HALOGAP
280
0
  9
$OBSCOLOR
 70
257
  9
$OBSLTYPE
280
0
  9
$INTERSECTIONDISPLAY
280
0
  9
$INTERSECTIONCOLOR
 70
257
  9
$DIMASSOC
280
2
  9
$PROJECTNAME
  1

  9
$CAMERADISPLAY
290
0
  9
$LENSLENGTH
 40
50.0
  9
$CAMERAHEIGHT
 40
0.0
  9
$STEPSPERSEC
 40
24.0
  9
$STEPSIZE
 40
100.0
  9
$3DDWFPREC
 40
2.0
  9
$PSOLWIDTH
 40
0.005
  9
$PSOLHEIGHT
 40
0.08
  9
$LOFTANG1
 40
1.570796326795
  9
$LOFTANG2
 40
1.570796326795
  9
$LOFTMAG1
 40
0.0
  9
$LOFTMAG2
 40
0.0
  9
$LOFTPARAM
 70
7
  9
$LOFTNORMALS
280
1
  9
$LATITUDE
 40
37.795
  9
$LONGITUDE
 40
-122.394
  9
$NORTHDIRECTION
 40
0.0
  9
$TIMEZONE
 70
-8000
  9
$LIGHTGLYPHDISPLAY
280
1
  9
$TILEMODELIGHTSYNCH
280
1
  9
$CMATERIAL
347
20
  9
$SOLIDHIST
280
0
  9
$SHOWHIST
280
1
  9
$DWFFRAME
280
2
  9
$DGNFRAME
280
2
  9
$REALWORLDSCALE
290
1
  9
$INTERFERECOLOR
 62
256
  9
$CSHADOW
280
0
  9
$SHADOWPLANELOCATION
 40
0.0
  0
ENDSEC
  0
SECTION
  2
CLASSES
  0
CLASS
  1
ACDBDICTIONARYWDFLT
  2
AcDbDictionaryWithDefault
  3
ObjectDBX Classes
 90
0
 91
0
280
0
281
0
  0
CLASS
  1
SUN
  2
AcDbSun
  3
SCENEOE
 90
1153
 91
0
280
0
281
0
  0
CLASS
  1
VISUALSTYLE
  2
AcDbVisualStyle
  3
ObjectDBX Classes
 90
4095
 91
0
280
0
281
0
  0
CLASS
  1
MATERIAL
  2
AcDbMaterial
  3
ObjectDBX Classes
 90
1153
 91
0
280
0
281
0
  0
CLASS
  1
SCALE
  2
AcDbScale
  3
ObjectDBX Classes
 90
1153
 91
0
280
0
281
0
  0
CLASS
  1
TABLESTYLE
  2
AcDbTableStyle
  3
ObjectDBX Classes
 90
4095
 91
0
280
0
281
0
  0
CLASS
  1
MLEADERSTYLE
  2
AcDbMLeaderStyle
  3
ACDB_MLEADERSTYLE_CLASS
 90
4095
 91
0
280
0
281
0
  0
CLASS
  1
DICTIONARYVAR
  2
AcDbDictionaryVar
  3
ObjectDBX Classes
 90
0
 91
0
280
0
281
0
  0
CLASS
  1
CELLSTYLEMAP
  2
AcDbCellStyleMap
  3
ObjectDBX Classes
 90
1152
 91
0
280
0
281
0
  0
CLASS
  1
MENTALRAYRENDERSETTINGS
  2
AcDbMentalRayRenderSettings
  3
SCENEOE
 90
1024
 91
0
280
0
281
0
  0
CLASS
  1
ACDBDETAILVIEWSTYLE
  2
AcDbDetailViewStyle
  3
ObjectDBX Classes
 90
1025
 91
0
280
0
281
0
  0
CLASS
  1
ACDBSECTIONVIEWSTYLE
  2
AcDbSectionViewStyle
  3
ObjectDBX Classes
 90
1025
 91
0
280
0
281
0
  0
CLASS
  1
RASTERVARIABLES
  2
AcDbRasterVariables
  3
ISM
 90
0
 91
0
280
0
281
0
  0
CLASS
  1
ACDBPLACEHOLDER
  2
AcDbPlaceHolder
  3
ObjectDBX Classes
 90
0
 91
0
280
0
281
0
  0
CLASS
  1
LAYOUT
  2
AcDbLayout
  3
ObjectDBX Classes
 90
0
 91
0
280
0
281
0
  0
ENDSEC
  0
SECTION
  2
TABLES
  0
TABLE
  2
VPORT
  5
8
330
0
100
AcDbSymbolTable
 70
1
  0
VPORT
  5
23
330
8
100
AcDbSymbolTableRecord
100
AcDbViewportTableRecord
  2
*Active
 70
0
 10
0.0
 20
0.0
 11
1.0
 21
1.0
 12
0.0
 22
0.0
 13
0.0
 23
0.0
 14
0.5
 24
0.5
 15
0.5
 25
0.5
 16
0.0
 26
0.0
 36
1.0
 17
0.0
 27
0.0
 37
0.0
 40
1000.0
 41
1.34
 42
50.0
 43
0.0
 44
0.0
 50
0.0
 51
0.0
 71
0
 72
1000
 73
1
 74
3
 75
0
 76
0
 77
0
 78
0
281
0
 65
0
146
0.0
  0
ENDTAB
  0
TABLE
  2
LTYPE
  5
2
330
0
100
AcDbSymbolTable
 70
3
  0
LTYPE
  5
24
330
2
100
AcDbSymbolTableRecord
100
AcDbLinetypeTableRecord
  2
ByBlock
 70
0
  3

 72
65
 73
0
 40
0.0
  0
LTYPE
  5
25
330
2
100
AcDbSymbolTableRecord
100
AcDbLinetypeTableRecord
  2
ByLayer
 70
0
  3

 72
65
 73
0
 40
0.0
  0
LTYPE
  5
26
330
2
100
AcDbSymbolTableRecord
100
AcDbLinetypeTableRecord
  2
Continuous
 70
0
  3

 72
65
 73
0
 40
0.0
  0
ENDTAB
  0
TABLE
  2
LAYER
  5
1
330
0
100
AcDbSymbolTable
 70
3
  0
LAYER
  5
27
330
1
100
AcDbSymbolTableRecord
100
AcDbLayerTableRecord
  2
0
 70
0
 62
7
  6
Continuous
370
-3
390
13
347
21
  0
LAYER
  5
28
330
1
100
AcDbSymbolTableRecord
100
AcDbLayerTableRecord
  2
Defpoints
 70
0
 62
7
  6
Continuous
290
0
370
-3
390
13
347
21
  0
LAYER
  5
C3
330
1
100
AcDbSymbolTableRecord
100
AcDbLayerTableRecord
  2
0-LOUVRE
 70
0
 62
7
  6
Continuous
370
-3
390
13
347
21
  0
ENDTAB
  0
TABLE
  2
STYLE
  5
5
330
0
100
AcDbSymbolTable
 70
1
  0
STYLE
  5
29
330
5
100
AcDbSymbolTableRecord
100
AcDbTextStyleTableRecord
  2
Standard
 70
0
 40
0.0
 41
1.0
 50
0.0
 71
0
 42
2.5
  3
txt
  4

  0
ENDTAB
  0
TABLE
  2
VIEW
  5
7
330
0
100
AcDbSymbolTable
 70
0
  0
ENDTAB
  0
TABLE
  2
UCS
  5
6
330
0
100
AcDbSymbolTable
 70
0
  0
ENDTAB
  0
TABLE
  2
APPID
  5
3
330
0
100
AcDbSymbolTable
 70
3
  0
APPID
  5
2A
330
3
100
AcDbSymbolTableRecord
100
AcDbRegAppTableRecord
  2
ACAD
 70
0
  0
APPID
  5
37B
330
3
100
AcDbSymbolTableRecord
100
AcDbRegAppTableRecord
  2
HATCHBACKGROUNDCOLOR
 70
0
  0
APPID
  5
37C
330
3
100
AcDbSymbolTableRecord
100
AcDbRegAppTableRecord
  2
EZDXF
 70
0
  0
ENDTAB
  0
TABLE
  2
DIMSTYLE
  5
4
330
0
100
AcDbSymbolTable
 70
1
100
AcDbDimStyleTable
  0
DIMSTYLE
105
2B
330
4
100
AcDbSymbolTableRecord
100
AcDbDimStyleTableRecord
  2
Standard
 70
0
 40
1.0
 41
2.5
 42
0.625
 43
3.75
 44
1.25
 45
0.0
 46
0.0
 47
0.0
 48
0.0
 49
2.5
140
2.5
141
2.5
142
0.0
143
0.03937007874
144
1.0
145
0.0
146
1.0
147
0.625
148
0.0
 69
0
 70
0
 71
0
 72
0
 73
0
 74
0
 75
0
 76
0
 77
1
 78
8
 79
3
170
0
171
3
172
1
173
0
174
0
175
0
176
0
177
0
178
0
179
2
271
2
272
2
273
2
274
3
275
0
276
0
277
2
278
44
279
0
280
0
281
0
282
0
283
0
284
8
285
0
286
0
288
0
289
3
290
0
371
-2
372
-2
  0
ENDTAB
  0
TABLE
  2
BLOCK_RECORD
  5
9
330
0
100
AcDbSymbolTable
 70
2
  0
BLOCK_RECORD
  5
17
330
9
100
AcDbSymbolTableRecord
100
AcDbBlockTableRecord
  2
*Model_Space
340
1A
 70
0
280
1
281
0
  0
BLOCK_RECORD
  5
1B
330
9
100
AcDbSymbolTableRecord
100
AcDbBlockTableRecord
  2
*Paper_Space
340
1E
 70
0
280
1
281
0
  0
ENDTAB
  0
ENDSEC
  0
SECTION
  2
BLOCKS
  0
BLOCK
  5
18
330
17
100
AcDbEntity
  8
0
100
AcDbBlockBegin
  2
*Model_Space
 70
0
 10
0.0
 20
0.0
 30
0.0
  3
*Model_Space
  1

  0
ENDBLK
  5
19
330
17
100
AcDbEntity
  8
0
100
AcDbBlockEnd
  0
BLOCK
  5
1C
330
1B
100
AcDbEntity
  8
0
100
AcDbBlockBegin
  2
*Paper_Space
 70
0
 10
0.0
 20
0.0
 30
0.0
  3
*Paper_Space
  1

  0
ENDBLK
  5
1D
330
1B
100
AcDbEntity
  8
0
100
AcDbBlockEnd
  0
ENDSEC
  0
SECTION
  2
ENTITIES
  0
LWPOLYLINE
  5
2F
330
17
100
AcDbEntity
  8
0
  6
CONTINUOUS
 62
8
100
AcDbPolyline
 90
8
 70
1
 10
24.359419612918458
 20
-55.51622574854564
 10
23.359419612918458
 20
-56.51622574854565
 10
22.359419612918458
 20
-55.51622574854564
 10
21.359419612918458
 20
-56.51622574854565
 10
20.359419612918458
 20
-55.51622574854564
 10
19.359419612918458
 20
-56.48284195630859
 10
19.359419612918458
 20
-61.51622574854563
 10
24.359419612918458
 20
-61.51622574854563
  0
LINE
  5
30
330
17
100
AcDbEntity
  8
0
  6
CONTINUOUS
 62
8
100
AcDbLine
 10
19.359419612918458
 20
-56.46697054322777
 30
0.0
 11
19.359419612918458
 21
-56.849029053522926
 31
0.0
  0
LINE
  5
31
330
17
100
AcDbEntity
  8
0
  6
CONTINUOUS
 62
8
100
AcDbLine
 10
19.359419612918458
 20
-56.849029053522926
 30
0.0
 11
19.698571089794456
 21
-56.849029053522926
 31
0.0
  0
LINE
  5
32
330
17
100
AcDbEntity
  8
0
  6
CONTINUOUS
 62
8
100
AcDbLine
 10
19.698571089794456
 20
-56.849029053522926
 30
0.0
 11
19.359419612918458
 21
-57.18301399941055
 31
0.0
  0
LINE
  5
33
330
17
100
AcDbEntity
  8
0
  6
CONTINUOUS
 62
8
100
AcDbLine
 10
19.359419612918458
 20
-57.18301399941055
 30
0.0
 11
19.359419612918458
 21
-57.72330001485461
 31
0.0
  0
ARC
  5
34
330
17
100
AcDbEntity
  8
0
  6
CONTINUOUS
 62
8
100
AcDbCircle
 10
19.359419612918458
 20
-57.89552830775982
 30
0.0
 40
0.1722282929052101
100
AcDbArc
 50
-89.9999999999846
 51
89.99999999998695
  0
LINE
  5
35
330
17
100
AcDbEntity
  8
0
  6
CONTINUOUS
 62
8
100
AcDbLine
 10
19.421915039547557
 20
-58.56127797720204
 30
0.0
 11
20.29037740547666
 21
-59.42974034308631
 31
0.0
  0
LINE
  5
36
330
17
100
AcDbEntity
  8
0
  6
CONTINUOUS
 62
8
100
AcDbLine
 10
20.29037740547666
 20
-59.42974034308631
 30
0.0
 11
19.421915039547557
 21
-60.298202709060206
 31
0.0
  0
LINE
  5
37
330
17
100
AcDbEntity
  8
0
  6
CONTINUOUS
 62
8
100
AcDbLine
 10
19.359419612918458
 20
-60.8019915145847
 30
0.0
 11
19.971324391559264
 21
-61.41389629322547
 31
0.0
  0
LINE
  5
38
330
17
100
AcDbEntity
  8
0
  6
CONTINUOUS
 62
8
100
AcDbLine
 10
19.971324391559264
 20
-61.41389629322547
 30
0.0
 11
19.359419612918458
 21
-61.41389629322547
 31
0.0
  0
LINE
  5
39
330
17
100
AcDbEntity
  8
0
  6
CONTINUOUS
 62
8
100
AcDbLine
 10
23.186496493615252
 20
-56.84902905352561
 30
0.0
 11
23.865066282764957
 21
-56.84902905352561
 31
0.0
  0
LINE
  5
3A
330
17
100
AcDbEntity
  8
0
  6
CONTINUOUS
 62
8
100
AcDbLine
 10
23.865066282764957
 20
-56.84902905352561
 30
0.0
 11
23.52578138818896
 21
-57.18314538466676
 31
0.0
  0
LINE
  5
3B
330
17
100
AcDbEntity
  8
0
  6
CONTINUOUS
 62
8
100
AcDbLine
 10
23.52578138818896
 20
-57.18314538466676
 30
0.0
 11
23.186496493615252
 21
-56.84902905352561
 31
0.0
  0
LINE
  5
3C
330
17
100
AcDbEntity
  8
0
  6
CONTINUOUS
 62
8
100
AcDbLine
 10
22.35322413856096
 20
-56.8490290535256
 30
0.0
 11
23.031793927710652
 21
-56.8490290535256
 31
0.0
  0
LINE
  5
3D
330
17
100
AcDbEntity
  8
0
  6
CONTINUOUS
 62
8
100
AcDbLine
 10
23.031793927710652
 20
-56.8490290535256
 30
0.0
 11
22.692509033135863
 21
-57.18314538466674
 31
0.0
  0
LINE
  5
3E
330
17
100
AcDbEntity
  8
0
  6
CONTINUOUS
 62
8
100
AcDbLine
 10
22.692509033135863
 20
-57.18314538466674
 30
0.0
 11
22.35322413856096
 21
-56.8490290535256
 31
0.0
  0
LINE
  5
3F
330
17
100
AcDbEntity
  8
0
  6
CONTINUOUS
 62
8
100
AcDbLine
 10
22.19852157265626
 20
-56.84902905351987
 30
0.0
 11
21.859236678082056
 21
-57.183145384661586
 31
0.0
  0
LINE
  5
40
330
17
100
AcDbEntity
  8
0
  6
CONTINUOUS
 62
8
100
AcDbLine
 10
21.859236678082056
 20
-57.183145384661586
 30
0.0
 11
21.519951783505462
 21
-56.84902905351987
 31
0.0
  0
LINE
  5
41
330
17
100
AcDbEntity
  8
0
  6
CONTINUOUS
 62
8
100
AcDbLine
 10
21.519951783505462
 20
-56.84902905351987
 30
0.0
 11
22.19852157265626
 21
-56.84902905351987
 31
0.0
  0
LINE
  5
42
330
17
100
AcDbEntity
  8
0
  6
CONTINUOUS
 62
8
100
AcDbLine
 10
21.365249217601956
 20
-56.84902905351987
 30
0.0
 11
21.025964323027154
 21
-57.18314538465795
 31
0.0
  0
LINE
  5
43
330
17
100
AcDbEntity
  8
0
  6
CONTINUOUS
 62
8
100
AcDbLine
 10
21.025964323027154
 20
-57.18314538465795
 30
0.0
 11
20.68667942845225
 21
-56.84902905351987
 31
0.0
  0
LINE
  5
44
330
17
100
AcDbEntity
  8
0
  6
CONTINUOUS
 62
8
100
AcDbLine
 10
20.68667942845225
 20
-56.84902905351987
 30
0.0
 11
21.365249217601956
 21
-56.84902905351987
 31
0.0
  0
LINE
  5
45
330
17
100
AcDbEntity
  8
0
  6
CONTINUOUS
 62
8
100
AcDbLine
 10
20.53197686254876
 20
-56.849029053522926
 30
0.0
 11
20.192691967972763
 21
-57.18314538466407
 31
0.0
  0
LINE
  5
46
330
17
100
AcDbEntity
  8
0
  6
CONTINUOUS
 62
8
100
AcDbLine
 10
20.192691967972763
 20
-57.18314538466407
 30
0.0
 11
19.853407073399055
 21
-56.849029053522926
 31
0.0
  0
LINE
  5
47
330
17
100
AcDbEntity
  8
0
  6
CONTINUOUS
 62
8
100
AcDbLine
 10
19.853407073399055
 20
-56.849029053522926
 30
0.0
 11
20.53197686254876
 21
-56.849029053522926
 31
0.0
  0
ARC
  5
48
330
17
100
AcDbEntity
  8
0
  6
CONTINUOUS
 62
8
100
AcDbCircle
 10
23.13064456637815
 20
-57.895528307762845
 30
0.0
 40
0.1065976083175258
100
AcDbArc
 50
15.02588689196348
 51
164.9741131080396
  0
LINE
  5
49
330
17
100
AcDbEntity
  8
0
  6
CONTINUOUS
 62
8
100
AcDbLine
 10
23.027691659241853
 20
-57.867892298441575
 30
0.0
 11
22.598373485574356
 21
-57.86789229844156
 31
0.0
  0
ARC
  5
4A
330
17
100
AcDbEntity
  8
0
  6
CONTINUOUS
 62
8
100
AcDbCircle
 10
23.13064456637815
 20
-57.86789229844159
 30
0.0
 40
0.532271080803773
100
AcDbArc
 50
-4.211444178243999e-13
 51
179.9999999999998
  0
LINE
  5
4B
330
17
100
AcDbEntity
  8
0
  6
CONTINUOUS
 62
8
100
AcDbLine
 10
23.66291564718196
 20
-57.86789229844159
 30
0.0
 11
23.233597473514465
 21
-57.86789229844156
 31
0.0
  0
LINE
  5
4C
330
17
100
AcDbEntity
  8
0
  6
CONTINUOUS
 62
8
100
AcDbLine
 10
23.233597473514465
 20
-57.923164317081046
 30
0.0
 11
23.66291564718196
 21
-57.92316431708106
 31
0.0
  0
ARC
  5
4D
330
17
100
AcDbEntity
  8
0
  6
CONTINUOUS
 62
8
100
AcDbCircle
 10
23.13064456637815
 20
-57.923164317081046
 30
0.0
 40
0.5322710808037662
100
AcDbArc
 50
-179.99999999999972
 51
-4.211444178243999e-13
  0
LINE
  5
4E
330
17
100
AcDbEntity
  8
0
  6
CONTINUOUS
 62
8
100
AcDbLine
 10
22.598373485574356
 20
-57.92316431708106
 30
0.0
 11
23.027691659241853
 21
-57.92316431708106
 31
0.0
  0
ARC
  5
4F
330
17
100
AcDbEntity
  8
0
  6
CONTINUOUS
 62
8
100
AcDbCircle
 10
23.13064456637815
 20
-57.895528307762845
 30
0.0
 40
0.1065976083167457
100
AcDbArc
 50
-164.97411310963253
 51
-15.025886890369938
  0
ARC
  5
50
330
17
100
AcDbEntity
  8
0
  6
CONTINUOUS
 62
8
100
AcDbCircle
 10
20.587828789782463
 20
-57.89552830776017
 30
0.0
 40
0.1065976083175401
100
AcDbArc
 50
15.025886891963061
 51
164.974113108038
  0
LINE
  5
51
330
17
100
AcDbEntity
  8
0
  6
CONTINUOUS
 62
8
100
AcDbLine
 10
20.484875882646165
 20
-57.8678922984389
 30
0.0
 11
20.055557708978654
 21
-57.86789229843889
 31
0.0
  0
ARC
  5
52
330
17
100
AcDbEntity
  8
0
  6
CONTINUOUS
 62
8
100
AcDbCircle
 10
20.587828789782463
 20
-57.8678922984389
 30
0.0
 40
0.5322710808037662
100
AcDbArc
 50
-4.211444178243999e-13
 51
179.9999999999998
  0
LINE
  5
53
330
17
100
AcDbEntity
  8
0
  6
CONTINUOUS
 62
8
100
AcDbLine
 10
21.12009987058626
 20
-57.86789229843889
 30
0.0
 11
20.690781696918762
 21
-57.8678922984389
 31
0.0
  0
LINE
  5
54
330
17
100
AcDbEntity
  8
0
  6
CONTINUOUS
 62
8
100
AcDbLine
 10
20.690781696918762
 20
-57.92316431707837
 30
0.0
 11
21.12009987058626
 21
-57.92316431707837
 31
0.0
  0
ARC
  5
55
330
17
100
AcDbEntity
  8
0
  6
CONTINUOUS
 62
8
100
AcDbCircle
 10
20.587828789782463
 20
-57.92316431707837
 30
0.0
 40
0.5322710808037725
100
AcDbArc
 50
-179.99999999999972
 51
-4.211444178243999e-13
  0
LINE
  5
56
330
17
100
AcDbEntity
  8
0
  6
CONTINUOUS
 62
8
100
AcDbLine
 10
20.055557708978654
 20
-57.92316431707837
 30
0.0
 11
20.484875882646165
 21
-57.92316431707837
 31
0.0
  0
ARC
  5
57
330
17
100
AcDbEntity
  8
0
  6
CONTINUOUS
 62
8
100
AcDbCircle
 10
20.587828789782463
 20
-57.89552830776017
 30
0.0
 40
0.1065976083167457
100
AcDbArc
 50
-164.97411310963253
 51
-15.025886890368103
  0
ARC
  5
58
330
17
100
AcDbEntity
  8
0
  6
CONTINUOUS
 62
8
100
AcDbCircle
 10
21.85923667808146
 20
-57.89552830775558
 30
0.0
 40
0.1718624232298842
100
AcDbArc
 50
2.036e-13
 51
180.0
  0
ARC
  5
59
330
17
100
AcDbEntity
  8
0
  6
CONTINUOUS
 62
8
100
AcDbCircle
 10
21.85923667808146
 20
-57.89552830775558
 30
0.0
 40
0.1718624232298694
100
AcDbArc
 50
-179.99999999999972
 51
-6.24699917438065e-13
  0
LINE
  5
5A
330
17
100
AcDbEntity
  8
0
  6
CONTINUOUS
 62
8
100
AcDbLine
 10
23.35990047652855
 20
-59.67706766402149
 30
0.0
 11
21.95039463855896
 21
-61.08657350199181
 31
0.0
  0
ARC
  5
5B
330
17
100
AcDbEntity
  8
0
  6
CONTINUOUS
 62
8
100
AcDbCircle
 10
21.859236678082652
 20
-61.14997637810727
 30
0.0
 40
0.1110391753297565
100
AcDbArc
 50
145.180321594915
 51
34.8196784050884
  0
LINE
  5
5C
330
17
100
AcDbEntity
  8
0
  6
CONTINUOUS
 62
8
100
AcDbLine
 10
21.768078717606357
 20
-61.08657350199181
 30
0.0
 11
20.358572879636753
 21
-59.677067664021465
 31
0.0
  0
LINE
  5
5D
330
17
100
AcDbEntity
  8
0
  6
CONTINUOUS
 62
8
100
AcDbLine
 10
20.358572879636753
 20
-59.677067664021465
 30
0.0
 11
19.969062866386253
 21
-60.06657767727174
 31
0.0
  0
LINE
  5
5E
330
17
100
AcDbEntity
  8
0
  6
CONTINUOUS
 62
8
100
AcDbLine
 10
19.969062866386253
 20
-60.06657767727174
 30
0.0
 11
20.08067039392806
 21
-60.17818520481353
 31
0.0
  0
LINE
  5
5F
330
17
100
AcDbEntity
  8
0
  6
CONTINUOUS
 62
8
100
AcDbLine
 10
20.08067039392806
 20
-60.17818520481353
 30
0.0
 11
20.752027622294165
 21
-60.17818520481353
 31
0.0
  0
LINE
  5
60
330
17
100
AcDbEntity
  8
0
  6
CONTINUOUS
 62
8
100
AcDbLine
 10
20.752027622294165
 20
-60.17818520481353
 30
0.0
 11
20.358572879636753
 21
-60.57163994747088
 31
0.0
  0
LINE
  5
61
330
17
100
AcDbEntity
  8
0
  6
CONTINUOUS
 62
8
100
AcDbLine
 10
20.358572879636753
 20
-60.57163994747088
 30
0.0
 11
19.853510609437564
 21
-60.06657767727164
 31
0.0
  0
LINE
  5
62
330
17
100
AcDbEntity
  8
0
  6
CONTINUOUS
 62
8
100
AcDbLine
 10
19.853510609437564
 20
-60.06657767727164
 30
0.0
 11
20.358572879636753
 21
-59.561515407024885
 31
0.0
  0
LINE
  5
63
330
17
100
AcDbEntity
  8
0
  6
CONTINUOUS
 62
8
100
AcDbLine
 10
20.358572879636753
 20
-59.561515407024885
 30
0.0
 11
21.83803715879506
 21
-61.04097968623117
 31
0.0
  0
ARC
  5
64
330
17
100
AcDbEntity
  8
0
  6
CONTINUOUS
 62
8
100
AcDbCircle
 10
21.859236678082652
 20
-61.13656301808706
 30
0.0
 40
0.097906041420818
100
AcDbArc
 50
77.49474094213768
 51
102.5052590578706
  0
LINE
  5
65
330
17
100
AcDbEntity
  8
0
  6
CONTINUOUS
 62
8
100
AcDbLine
 10
21.88043619737026
 20
-61.040979686231154
 30
0.0
 11
23.35990047652855
 21
-59.561515407072605
 31
0.0
  0
LINE
  5
66
330
17
100
AcDbEntity
  8
0
  6
CONTINUOUS
 62
8
100
AcDbLine
 10
23.35990047652855
 20
-59.561515407072605
 30
0.0
 11
23.864962746727755
 21
-60.06657767727169
 31
0.0
  0
LINE
  5
67
330
17
100
AcDbEntity
  8
0
  6
CONTINUOUS
 62
8
100
AcDbLine
 10
23.864962746727755
 20
-60.06657767727169
 30
0.0
 11
23.35990047652855
 21
-60.57163994747091
 31
0.0
  0
LINE
  5
68
330
17
100
AcDbEntity
  8
0
  6
CONTINUOUS
 62
8
100
AcDbLine
 10
23.35990047652855
 20
-60.57163994747091
 30
0.0
 11
22.966445733871154
 21
-60.17818520481357
 31
0.0
  0
LINE
  5
69
330
17
100
AcDbEntity
  8
0
  6
CONTINUOUS
 62
8
100
AcDbLine
 10
22.966445733871154
 20
-60.17818520481357
 30
0.0
 11
23.63780296223736
 21
-60.17818520481357
 31
0.0
  0
LINE
  5
6A
330
17
100
AcDbEntity
  8
0
  6
CONTINUOUS
 62
8
100
AcDbLine
 10
23.63780296223736
 20
-60.17818520481357
 30
0.0
 11
23.749410489779052
 21
-60.06657767727176
 31
0.0
  0
LINE
  5
6B
330
17
100
AcDbEntity
  8
0
  6
CONTINUOUS
 62
8
100
AcDbLine
 10
23.749410489779052
 20
-60.06657767727176
 30
0.0
 11
23.35990047652855
 21
-59.67706766402149
 31
0.0
  0
LINE
  5
6C
330
17
100
AcDbEntity
  8
0
  6
CONTINUOUS
 62
8
100
AcDbLine
 10
22.251992513528762
 20
-58.19929132250615
 30
0.0
 11
21.93930713250856
 21
-58.51197670352815
 31
0.0
  0
LINE
  5
6D
330
17
100
AcDbEntity
  8
0
  6
CONTINUOUS
 62
8
100
AcDbLine
 10
21.93930713250856
 20
-58.51197670352815
 30
0.0
 11
22.721565062271964
 21
-58.51197670352815
 31
0.0
  0
LINE
  5
6E
330
17
100
AcDbEntity
  8
0
  6
CONTINUOUS
 62
8
100
AcDbLine
 10
22.721565062271964
 20
-58.51197670352815
 30
0.0
 11
22.404589734345052
 21
-58.82895203145469
 31
0.0
  0
LINE
  5
6F
330
17
100
AcDbEntity
  8
0
  6
CONTINUOUS
 62
8
100
AcDbLine
 10
22.404589734345052
 20
-58.82895203145469
 30
0.0
 11
22.09226204285146
 21
-58.82895203145469
 31
0.0
  0
LINE
  5
70
330
17
100
AcDbEntity
  8
0
  6
CONTINUOUS
 62
8
100
AcDbLine
 10
22.09226204285146
 20
-58.82895203145469
 30
0.0
 11
21.859236678082652
 21
-58.59592666668581
 31
0.0
  0
LINE
  5
71
330
17
100
AcDbEntity
  8
0
  6
CONTINUOUS
 62
8
100
AcDbLine
 10
21.859236678082652
 20
-58.59592666668581
 30
0.0
 11
21.62621131331386
 21
-58.82895203145453
 31
0.0
  0
LINE
  5
72
330
17
100
AcDbEntity
  8
0
  6
CONTINUOUS
 62
8
100
AcDbLine
 10
21.62621131331386
 20
-58.82895203145453
 30
0.0
 11
21.313883621820153
 21
-58.82895203145453
 31
0.0
  0
LINE
  5
73
330
17
100
AcDbEntity
  8
0
  6
CONTINUOUS
 62
8
100
AcDbLine
 10
21.313883621820153
 20
-58.82895203145453
 30
0.0
 11
20.996908293893256
 21
-58.51197670352815
 31
0.0
  0
LINE
  5
74
330
17
100
AcDbEntity
  8
0
  6
CONTINUOUS
 62
8
100
AcDbLine
 10
20.996908293893256
 20
-58.51197670352815
 30
0.0
 11
21.77916622365676
 21
-58.51197670352815
 31
0.0
  0
LINE
  5
75
330
17
100
AcDbEntity
  8
0
  6
CONTINUOUS
 62
8
100
AcDbLine
 10
21.77916622365676
 20
-58.51197670352815
 30
0.0
 11
21.466480842634255
 21
-58.19929132250615
 31
0.0
  0
LINE
  5
76
330
17
100
AcDbEntity
  8
0
  6
CONTINUOUS
 62
8
100
AcDbLine
 10
21.466480842634255
 20
-58.19929132250615
 30
0.0
 11
22.251992513528762
 21
-58.19929132250615
 31
0.0
  0
LINE
  5
77
330
17
100
AcDbEntity
  8
0
  6
CONTINUOUS
 62
8
100
AcDbLine
 10
23.114320897722763
 20
-58.90473253897687
 30
0.0
 11
22.721565062271964
 21
-59.29748837443858
 31
0.0
  0
LINE
  5
78
330
17
100
AcDbEntity
  8
0
  6
CONTINUOUS
 62
8
100
AcDbLine
 10
22.721565062271964
 20
-59.29748837443858
 30
0.0
 11
23.507076733172255
 21
-59.29748837443858
 31
0.0
  0
LINE
  5
79
330
17
100
AcDbEntity
  8
0
  6
CONTINUOUS
 62
8
100
AcDbLine
 10
23.507076733172255
 20
-59.29748837443858
 30
0.0
 11
22.52734322030065
 21
-60.27722188730252
 31
0.0
  0
LINE
  5
7A
330
17
100
AcDbEntity
  8
0
  6
CONTINUOUS
 62
8
100
AcDbLine
 10
22.52734322030065
 20
-60.27722188730252
 30
0.0
 11
22.446959882076555
 21
-60.196838549077114
 31
0.0
  0
LINE
  5
7B
330
17
100
AcDbEntity
  8
0
  6
CONTINUOUS
 62
8
100
AcDbLine
 10
22.446959882076555
 20
-60.196838549077114
 30
0.0
 11
22.95355422127325
 21
-59.69024420988823
 31
0.0
  0
LINE
  5
7C
330
17
100
AcDbEntity
  8
0
  6
CONTINUOUS
 62
8
100
AcDbLine
 10
22.95355422127325
 20
-59.69024420988823
 30
0.0
 11
22.168042550374153
 21
-58.90473253897687
 31
0.0
  0
LINE
  5
7D
330
17
100
AcDbEntity
  8
0
  6
CONTINUOUS
 62
8
100
AcDbLine
 10
22.168042550374153
 20
-58.90473253897687
 30
0.0
 11
23.114320897722763
 21
-58.90473253897687
 31
0.0
  0
LINE
  5
7E
330
17
100
AcDbEntity
  8
0
  6
CONTINUOUS
 62
8
100
AcDbLine
 10
21.859236678082652
 20
-60.78456175307096
 30
0.0
 11
22.406395449677362
 21
-60.23740298147638
 31
0.0
  0
LINE
  5
7F
330
17
100
AcDbEntity
  8
0
  6
CONTINUOUS
 62
8
100
AcDbLine
 10
22.406395449677362
 20
-60.23740298147638
 30
0.0
 11
22.48677878790265
 21
-60.31778631970171
 31
0.0
  0
LINE
  5
80
330
17
100
AcDbEntity
  8
0
  6
CONTINUOUS
 62
8
100
AcDbLine
 10
22.48677878790265
 20
-60.31778631970171
 30
0.0
 11
21.859236678082652
 21
-60.94532842952156
 31
0.0
  0
LINE
  5
81
330
17
100
AcDbEntity
  8
0
  6
CONTINUOUS
 62
8
100
AcDbLine
 10
21.859236678082652
 20
-60.94532842952156
 30
0.0
 11
21.231694568262554
 21
-60.31778631970133
 31
0.0
  0
LINE
  5
82
330
17
100
AcDbEntity
  8
0
  6
CONTINUOUS
 62
8
100
AcDbLine
 10
21.231694568262554
 20
-60.31778631970133
 30
0.0
 11
21.312077906487957
 21
-60.23740298147606
 31
0.0
  0
LINE
  5
83
330
17
100
AcDbEntity
  8
0
  6
CONTINUOUS
 62
8
100
AcDbLine
 10
21.312077906487957
 20
-60.23740298147606
 30
0.0
 11
21.859236678082652
 21
-60.78456175307096
 31
0.0
  0
LINE
  5
84
330
17
100
AcDbEntity
  8
0
  6
CONTINUOUS
 62
8
100
AcDbLine
 10
21.271513474088763
 20
-60.19683854907679
 30
0.0
 11
21.191130135864654
 21
-60.27722188730213
 31
0.0
  0
LINE
  5
85
330
17
100
AcDbEntity
  8
0
  6
CONTINUOUS
 62
8
100
AcDbLine
 10
21.191130135864654
 20
-60.27722188730213
 30
0.0
 11
20.211396622992964
 21
-59.29748837437569
 31
0.0
  0
LINE
  5
86
330
17
100
AcDbEntity
  8
0
  6
CONTINUOUS
 62
8
100
AcDbLine
 10
20.211396622992964
 20
-59.29748837437569
 30
0.0
 11
20.996908293893256
 21
-59.29748837437569
 31
0.0
  0
LINE
  5
87
330
17
100
AcDbEntity
  8
0
  6
CONTINUOUS
 62
8
100
AcDbLine
 10
20.996908293893256
 20
-59.29748837437569
 30
0.0
 11
20.604152458442556
 21
-58.9047325389767
 31
0.0
  0
LINE
  5
88
330
17
100
AcDbEntity
  8
0
  6
CONTINUOUS
 62
8
100
AcDbLine
 10
20.604152458442556
 20
-58.9047325389767
 30
0.0
 11
21.55043080579115
 21
-58.9047325389767
 31
0.0
  0
LINE
  5
89
330
17
100
AcDbEntity
  8
0
  6
CONTINUOUS
 62
8
100
AcDbLine
 10
21.55043080579115
 20
-58.9047325389767
 30
0.0
 11
20.764919134892054
 21
-59.690244209873
 31
0.0
  0
LINE
  5
8A
330
17
100
AcDbEntity
  8
0
  6
CONTINUOUS
 62
8
100
AcDbLine
 10
20.764919134892054
 20
-59.690244209873
 30
0.0
 11
21.271513474088763
 21
-60.19683854907679
 31
0.0
  0
LINE
  5
8B
330
17
100
AcDbEntity
  8
0
  6
CONTINUOUS
 62
8
100
AcDbLine
 10
21.859236678082652
 20
-58.88298007442941
 30
0.0
 11
22.666500813533858
 21
-59.69024420988823
 31
0.0
  0
LINE
  5
8C
330
17
100
AcDbEntity
  8
0
  6
CONTINUOUS
 62
8
100
AcDbLine
 10
22.666500813533858
 20
-59.69024420988823
 30
0.0
 11
21.859236678082652
 21
-60.49750834533184
 31
0.0
  0
LINE
  5
8D
330
17
100
AcDbEntity
  8
0
  6
CONTINUOUS
 62
8
100
AcDbLine
 10
21.859236678082652
 20
-60.49750834533184
 30
0.0
 11
21.05197254263146
 21
-59.690244209873
 31
0.0
  0
LINE
  5
8E
330
17
100
AcDbEntity
  8
0
  6
CONTINUOUS
 62
8
100
AcDbLine
 10
21.05197254263146
 20
-59.690244209873
 30
0.0
 11
21.859236678082652
 21
-58.88298007442941
 31
0.0
  0
LINE
  5
8F
330
17
100
AcDbEntity
  8
0
  6
CONTINUOUS
 62
8
100
AcDbLine
 10
24.359419612918458
 20
-61.41389629322547
 30
0.0
 11
23.642845681649163
 21
-61.41389629322547
 31
0.0
  0
LINE
  5
90
330
17
100
AcDbEntity
  8
0
  6
CONTINUOUS
 62
8
100
AcDbLine
 10
23.642845681649163
 20
-61.41389629322547
 30
0.0
 11
24.359048374323564
 21
-60.69769360055106
 31
0.0
  0
LINE
  5
91
330
17
100
AcDbEntity
  8
0
  6
CONTINUOUS
 62
8
100
AcDbLine
 10
20.186084860362158
 20
-59.42974034308631
 30
0.0
 11
19.421915039547557
 21
-58.66557052231601
 31
0.0
  0
LINE
  5
92
330
17
100
AcDbEntity
  8
0
  6
CONTINUOUS
 62
8
100
AcDbLine
 10
19.421915039547557
 20
-58.75657168737524
 30
0.0
 11
20.078441213554257
 21
-59.41309786137479
 31
0.0
  0
LINE
  5
93
330
17
100
AcDbEntity
  8
0
  6
CONTINUOUS
 62
8
100
AcDbLine
 10
20.078441213554257
 20
-59.41309786137479
 30
0.0
 11
19.421915039547557
 21
-60.0696240353887
 31
0.0
  0
LINE
  5
94
330
17
100
AcDbEntity
  8
0
  6
CONTINUOUS
 62
8
100
AcDbLine
 10
19.421915039547557
 20
-60.19391016394535
 30
0.0
 11
20.186084860362158
 21
-59.42974034308631
 31
0.0
  0
LINE
  5
95
330
17
100
AcDbEntity
  8
0
  6
CONTINUOUS
 62
8
100
AcDbLine
 10
19.989444760140657
 20
-59.41309786137479
 30
0.0
 11
19.421915039547557
 21
-58.84556814080331
 31
0.0
  0
LINE
  5
96
330
17
100
AcDbEntity
  8
0
  6
CONTINUOUS
 62
8
100
AcDbLine
 10
19.421915039547557
 20
-58.957106360184156
 30
0.0
 11
19.877906540757664
 21
-59.41309786137479
 31
0.0
  0
LINE
  5
97
330
17
100
AcDbEntity
  8
0
  6
CONTINUOUS
 62
8
100
AcDbLine
 10
19.877906540757664
 20
-59.41309786137479
 30
0.0
 11
19.421915039547557
 21
-59.86908936260434
 31
0.0
  0
LINE
  5
98
330
17
100
AcDbEntity
  8
0
  6
CONTINUOUS
 62
8
100
AcDbLine
 10
19.421915039547557
 20
-59.98062758198963
 30
0.0
 11
19.989444760140657
 21
-59.41309786137479
 31
0.0
  0
LINE
  5
99
330
17
100
AcDbEntity
  8
0
  6
CONTINUOUS
 62
8
100
AcDbLine
 10
19.788910087378454
 20
-59.41309786137479
 30
0.0
 11
19.421915039547557
 21
-59.04610281354591
 31
0.0
  0
LINE
  5
9A
330
17
100
AcDbEntity
  8
0
  6
CONTINUOUS
 62
8
100
AcDbLine
 10
19.421915039547557
 20
-59.16479074363421
 30
0.0
 11
19.67022215728825
 21
-59.41309786137479
 31
0.0
  0
LINE
  5
9B
330
17
100
AcDbEntity
  8
0
  6
CONTINUOUS
 62
8
100
AcDbLine
 10
19.67022215728825
 20
-59.41309786137479
 30
0.0
 11
19.421915039547557
 21
-59.66140497911552
 31
0.0
  0
LINE
  5
9C
330
17
100
AcDbEntity
  8
0
  6
CONTINUOUS
 62
8
100
AcDbLine
 10
19.421915039547557
 20
-59.780092909207625
 30
0.0
 11
19.788910087378454
 21
-59.41309786137479
 31
0.0
  0
LINE
  5
9D
330
17
100
AcDbEntity
  8
0
  6
CONTINUOUS
 62
8
100
AcDbLine
 10
23.659342099029658
 20
-59.32264682259169
 30
0.0
 11
24.29692418628946
 21
-59.96022890985148
 31
0.0
  0
LINE
  5
9E
330
17
100
AcDbEntity
  8
0
  6
CONTINUOUS
 62
8
100
AcDbLine
 10
24.29692418628946
 20
-59.87123245645459
 30
0.0
 11
23.74833855242656
 21
-59.32264682259169
 31
0.0
  0
LINE
  5
9F
330
17
100
AcDbEntity
  8
0
  6
CONTINUOUS
 62
8
100
AcDbLine
 10
23.74833855242656
 20
-59.32264682259169
 30
0.0
 11
24.29692418628946
 21
-58.77406118872838
 31
0.0
  0
LINE
  5
A0
330
17
100
AcDbEntity
  8
0
  6
CONTINUOUS
 62
8
100
AcDbLine
 10
24.29692418628946
 20
-60.05213453404545
 30
0.0
 11
23.551246222654157
 21
-59.30645657041018
 31
0.0
  0
LINE
  5
A1
330
17
100
AcDbEntity
  8
0
  6
CONTINUOUS
 62
8
100
AcDbLine
 10
23.551246222654157
 20
-59.30645657041018
 30
0.0
 11
24.268921433258058
 21
-58.58878135980629
 31
0.0
  0
LINE
  5
A2
330
17
100
AcDbEntity
  8
0
  6
CONTINUOUS
 62
8
100
AcDbLine
 10
24.268921433258058
 20
-58.58878135980629
 30
0.0
 11
24.29692418628946
 21
-58.61678411283793
 31
0.0
  0
LINE
  5
A3
330
17
100
AcDbEntity
  8
0
  6
CONTINUOUS
 62
8
100
AcDbLine
 10
24.29692418628946
 20
-58.68506473533146
 30
0.0
 11
23.659342099029658
 21
-59.32264682259169
 31
0.0
  0
LINE
  5
A4
330
17
100
AcDbEntity
  8
0
  6
CONTINUOUS
 62
8
100
AcDbLine
 10
24.33106449753606
 20
-60.17527129868946
 30
0.0
 11
24.25227358259076
 21
-60.25406221363528
 31
0.0
  0
LINE
  5
A5
330
17
100
AcDbEntity
  8
0
  6
CONTINUOUS
 62
8
100
AcDbLine
 10
24.25227358259076
 20
-60.25406221363528
 30
0.0
 11
23.427957081010362
 21
-59.42974571205443
 31
0.0
  0
LINE
  5
A6
330
17
100
AcDbEntity
  8
0
  6
CONTINUOUS
 62
8
100
AcDbLine
 10
23.427957081010362
 20
-59.42974571205443
 30
0.0
 11
23.506747995955664
 21
-59.35095479710861
 31
0.0
  0
LINE
  5
A7
330
17
100
AcDbEntity
  8
0
  6
CONTINUOUS
 62
8
100
AcDbLine
 10
23.506747995955664
 20
-59.35095479710861
 30
0.0
 11
24.33106449753606
 21
-60.17527129868946
 31
0.0
  0
LINE
  5
A8
330
17
100
AcDbEntity
  8
0
  6
CONTINUOUS
 62
8
100
AcDbLine
 10
23.942631782965663
 20
-59.30925566964346
 30
0.0
 11
24.29692418628946
 21
-58.95496326631928
 31
0.0
  0
LINE
  5
A9
330
17
100
AcDbEntity
  8
0
  6
CONTINUOUS
 62
8
100
AcDbLine
 10
24.29692418628936
 20
-58.86596681292238
 30
0.0
 11
23.85363532956876
 21
-59.30925566964347
 31
0.0
  0
LINE
  5
AA
330
17
100
AcDbEntity
  8
0
  6
CONTINUOUS
 62
8
100
AcDbLine
 10
23.85363532956876
 20
-59.30925566964347
 30
0.0
 11
24.29692418628946
 21
-59.752544526364076
 31
0.0
  0
LINE
  5
AB
330
17
100
AcDbEntity
  8
0
  6
CONTINUOUS
 62
8
100
AcDbLine
 10
24.29692418628946
 20
-59.66354807296721
 30
0.0
 11
23.942631782965663
 21
-59.30925566964346
 31
0.0
  0
LINE
  5
AC
330
17
100
AcDbEntity
  8
0
  6
CONTINUOUS
 62
8
100
AcDbLine
 10
24.358914873567258
 20
-57.18315075358579
 30
0.0
 11
24.019629978992853
 21
-56.84903442244473
 31
0.0
  0
LINE
  5
AD
330
17
100
AcDbEntity
  8
0
  6
CONTINUOUS
 62
8
100
AcDbLine
 10
24.019629978992853
 20
-56.84903442244473
 30
0.0
 11
24.359419612918458
 21
-56.84903442244472
 31
0.0
  0
CIRCLE
  5
AE
330
17
100
AcDbEntity
  8
0
  6
CONTINUOUS
 62
8
100
AcDbCircle
 10
20.192343117167255
 20
-61.014693525473106
 30
0.0
 40
0.1113061109157168
  0
CIRCLE
  5
AF
330
17
100
AcDbEntity
  8
0
  6
CONTINUOUS
 62
8
100
AcDbCircle
 10
23.525781388189756
 20
-61.01469352547316
 30
0.0
 40
0.1113061109157168
  0
ARC
  5
B0
330
17
100
AcDbEntity
  8
0
  6
CONTINUOUS
 62
8
100
AcDbCircle
 10
24.359419612918458
 20
-57.89552830776134
 30
0.0
 40
0.1718624232298773
100
AcDbArc
 50
90.0
 51
-90.00000000000001
  0
LINE
  5
B1
330
17
100
AcDbEntity
  8
0
  6
CONTINUOUS
 62
8
100
AcDbLine
 10
24.359419612918458
 20
-55.51622574854563
 30
0.0
 11
24.359419612918458
 21
-61.51622574854563
 31
0.0
  0
LINE
  5
B2
330
17
100
AcDbEntity
  8
0
  6
CONTINUOUS
 62
8
100
AcDbLine
 10
24.29692418628946
 20
-58.616784112837934
 30
0.0
 11
24.29692418628946
 21
-58.68506473533145
 31
0.0
  0
LINE
  5
B3
330
17
100
AcDbEntity
  8
0
  6
CONTINUOUS
 62
8
100
AcDbLine
 10
24.29692418628946
 20
-58.77406118872834
 30
0.0
 11
24.29692418628946
 21
-58.86596681292231
 31
0.0
  0
LINE
  5
B4
330
17
100
AcDbEntity
  8
0
  6
CONTINUOUS
 62
8
100
AcDbLine
 10
24.29692418628946
 20
-58.95496326631922
 30
0.0
 11
24.29692418628946
 21
-59.66354807296723
 31
0.0
  0
LINE
  5
B5
330
17
100
AcDbEntity
  8
0
  6
CONTINUOUS
 62
8
100
AcDbLine
 10
24.29692418628946
 20
-59.7525445263641
 30
0.0
 11
24.29692418628946
 21
-59.87123245645461
 31
0.0
  0
LINE
  5
B6
330
17
100
AcDbEntity
  8
0
  6
CONTINUOUS
 62
8
100
AcDbLine
 10
24.29692418628946
 20
-59.960228909851494
 30
0.0
 11
24.29692418628946
 21
-60.052134534045436
 31
0.0
  0
LINE
  5
B7
330
17
100
AcDbEntity
  8
0
  6
CONTINUOUS
 62
8
100
AcDbLine
 10
19.421915039547557
 20
-60.29820270906022
 30
0.0
 11
19.421915039547557
 21
-60.19391016394536
 31
0.0
  0
LINE
  5
B8
330
17
100
AcDbEntity
  8
0
  6
CONTINUOUS
 62
8
100
AcDbLine
 10
19.421915039547557
 20
-60.0696240353887
 30
0.0
 11
19.421915039547557
 21
-59.98062758198963
 31
0.0
  0
LINE
  5
B9
330
17
100
AcDbEntity
  8
0
  6
CONTINUOUS
 62
8
100
AcDbLine
 10
19.421915039547557
 20
-59.86908936260438
 30
0.0
 11
19.421915039547557
 21
-59.78009290920764
 31
0.0
  0
LINE
  5
BA
330
17
100
AcDbEntity
  8
0
  6
CONTINUOUS
 62
8
100
AcDbLine
 10
19.421915039547557
 20
-59.66140497911556
 30
0.0
 11
19.421915039547557
 21
-59.16479074363421
 31
0.0
  0
LINE
  5
BB
330
17
100
AcDbEntity
  8
0
  6
CONTINUOUS
 62
8
100
AcDbLine
 10
19.421915039547557
 20
-59.0461028135459
 30
0.0
 11
19.421915039547557
 21
-58.95710636018417
 31
0.0
  0
LINE
  5
BC
330
17
100
AcDbEntity
  8
0
  6
CONTINUOUS
 62
8
100
AcDbLine
 10
19.421915039547457
 20
-58.84556814080331
 30
0.0
 11
19.421915039547557
 21
-58.75657168737525
 31
0.0
  0
LINE
  5
BD
330
17
100
AcDbEntity
  8
0
  6
CONTINUOUS
 62
8
100
AcDbLine
 10
19.421915039547557
 20
-58.66557052231601
 30
0.0
 11
19.421915039547557
 21
-58.561277977202025
 31
0.0
  0
LINE
  5
BE
330
17
100
AcDbEntity
  8
0
  6
CONTINUOUS
 62
8
100
AcDbLine
 10
21.359419612918458
 20
-56.51622574854564
 30
0.0
 11
21.359419612918458
 21
-61.51622574854563
 31
0.0
  0
LINE
  5
BF
330
17
100
AcDbEntity
  8
0
  6
CONTINUOUS
 62
8
100
AcDbLine
 10
20.359419612918458
 20
-55.51622574854564
 30
0.0
 11
20.359419612918458
 21
-61.51622574854563
 31
0.0
  0
LINE
  5
C0
330
17
100
AcDbEntity
  8
0
  6
CONTINUOUS
 62
8
100
AcDbLine
 10
22.359419612918458
 20
-55.51622574854564
 30
0.0
 11
22.359419612918458
 21
-61.51622574854563
 31
0.0
  0
LINE
  5
C1
330
17
100
AcDbEntity
  8
0
  6
CONTINUOUS
 62
8
100
AcDbLine
 10
23.359419612918458
 20
-56.51622574854565
 30
0.0
 11
23.359419612918458
 21
-61.51622574854563
 31
0.0
  0
LINE
  5
C2
330
17
100
AcDbEntity
  8
0
  6
CONTINUOUS
 62
8
100
AcDbLine
 10
19.359419612918458
 20
-58.51622574854563
 30
0.0
 11
24.359419612918458
 21
-58.51622574854563
 31
0.0
  0
LINE
  5
C4
330
17
100
AcDbEntity
  8
0-LOUVRE
  6
CONTINUOUS
 62
250
100
AcDbLine
 10
19.3120492556901
 20
-66.51892291670072
 30
0.0
 11
19.3120492556901
 21
-66.90098142699587
 31
0.0
  0
LINE
  5
C5
330
17
100
AcDbEntity
  8
0-LOUVRE
  6
CONTINUOUS
 62
250
100
AcDbLine
 10
19.3120492556901
 20
-66.90098142699587
 30
0.0
 11
19.65120073256614
 21
-66.90098142699587
 31
0.0
  0
LINE
  5
C6
330
17
100
AcDbEntity
  8
0-LOUVRE
  6
CONTINUOUS
 62
250
100
AcDbLine
 10
19.65120073256614
 20
-66.90098142699587
 30
0.0
 11
19.3120492556901
 21
-67.23496637288349
 31
0.0
  0
LINE
  5
C7
330
17
100
AcDbEntity
  8
0-LOUVRE
  6
CONTINUOUS
 62
250
100
AcDbLine
 10
19.3120492556901
 20
-67.23496637288349
 30
0.0
 11
19.31204925569014
 21
-67.77525238832754
 31
0.0
  0
ARC
  5
C8
330
17
100
AcDbEntity
  8
0-LOUVRE
  6
CONTINUOUS
 62
250
100
AcDbCircle
 10
19.3120492556901
 20
-67.94748068123276
 30
0.0
 40
0.1722282929052101
100
AcDbArc
 50
-89.9999999999845
 51
89.99999999998697
  0
LINE
  5
C9
330
17
100
AcDbEntity
  8
0-LOUVRE
  6
CONTINUOUS
 62
250
100
AcDbLine
 10
19.37454468231915
 20
-68.61323035067495
 30
0.0
 11
20.24300704824826
 21
-69.48169271655925
 31
0.0
  0
LINE
  5
CA
330
17
100
AcDbEntity
  8
0-LOUVRE
  6
CONTINUOUS
 62
250
100
AcDbLine
 10
20.24300704824826
 20
-69.48169271655925
 30
0.0
 11
19.37454468231915
 21
-70.35015508253315
 31
0.0
  0
LINE
  5
CB
330
17
100
AcDbEntity
  8
0-LOUVRE
  6
CONTINUOUS
 62
250
100
AcDbLine
 10
19.3120492556901
 20
-70.85394388805764
 30
0.0
 11
19.92395403433089
 21
-71.4658486666984
 31
0.0
  0
LINE
  5
CC
330
17
100
AcDbEntity
  8
0-LOUVRE
  6
CONTINUOUS
 62
250
100
AcDbLine
 10
19.92395403433089
 20
-71.4658486666984
 30
0.0
 11
19.3120492556901
 21
-71.4658486666984
 31
0.0
  0
LINE
  5
CD
330
17
100
AcDbEntity
  8
0-LOUVRE
  6
CONTINUOUS
 62
250
100
AcDbLine
 10
23.13912613638693
 20
-66.90098142699856
 30
0.0
 11
23.81769592553661
 21
-66.90098142699856
 31
0.0
  0
LINE
  5
CE
330
17
100
AcDbEntity
  8
0-LOUVRE
  6
CONTINUOUS
 62
250
100
AcDbLine
 10
23.81769592553661
 20
-66.90098142699856
 30
0.0
 11
23.47841103096062
 21
-67.23509775813969
 31
0.0
  0
LINE
  5
CF
330
17
100
AcDbEntity
  8
0-LOUVRE
  6
CONTINUOUS
 62
250
100
AcDbLine
 10
23.47841103096062
 20
-67.23509775813969
 30
0.0
 11
23.13912613638693
 21
-66.90098142699856
 31
0.0
  0
LINE
  5
D0
330
17
100
AcDbEntity
  8
0-LOUVRE
  6
CONTINUOUS
 62
250
100
AcDbLine
 10
22.3058537813326
 20
-66.90098142699854
 30
0.0
 11
22.98442357048228
 21
-66.90098142699854
 31
0.0
  0
LINE
  5
D1
330
17
100
AcDbEntity
  8
0-LOUVRE
  6
CONTINUOUS
 62
250
100
AcDbLine
 10
22.98442357048228
 20
-66.90098142699854
 30
0.0
 11
22.64513867590745
 21
-67.23509775813969
 31
0.0
  0
LINE
  5
D2
330
17
100
AcDbEntity
  8
0-LOUVRE
  6
CONTINUOUS
 62
250
100
AcDbLine
 10
22.64513867590745
 20
-67.23509775813969
 30
0.0
 11
22.3058537813326
 21
-66.90098142699854
 31
0.0
  0
LINE
  5
D3
330
17
100
AcDbEntity
  8
0-LOUVRE
  6
CONTINUOUS
 62
250
100
AcDbLine
 10
22.15115121542793
 20
-66.90098142699281
 30
0.0
 11
21.81186632085367
 21
-67.23509775813453
 31
0.0
  0
LINE
  5
D4
330
17
100
AcDbEntity
  8
0-LOUVRE
  6
CONTINUOUS
 62
250
100
AcDbLine
 10
21.81186632085367
 20
-67.23509775813453
 30
0.0
 11
21.4725814262771
 21
-66.90098142699281
 31
0.0
  0
LINE
  5
D5
330
17
100
AcDbEntity
  8
0-LOUVRE
  6
CONTINUOUS
 62
250
100
AcDbLine
 10
21.4725814262771
 20
-66.90098142699281
 30
0.0
 11
22.15115121542793
 21
-66.90098142699281
 31
0.0
  0
LINE
  5
D6
330
17
100
AcDbEntity
  8
0-LOUVRE
  6
CONTINUOUS
 62
250
100
AcDbLine
 10
21.3178788603736
 20
-66.90098142699281
 30
0.0
 11
20.97859396579875
 21
-67.23509775813089
 31
0.0
  0
LINE
  5
D7
330
17
100
AcDbEntity
  8
0-LOUVRE
  6
CONTINUOUS
 62
250
100
AcDbLine
 10
20.97859396579875
 20
-67.23509775813089
 30
0.0
 11
20.63930907122392
 21
-66.90098142699281
 31
0.0
  0
LINE
  5
D8
330
17
100
AcDbEntity
  8
0-LOUVRE
  6
CONTINUOUS
 62
250
100
AcDbLine
 10
20.63930907122392
 20
-66.90098142699281
 30
0.0
 11
21.3178788603736
 21
-66.90098142699281
 31
0.0
  0
LINE
  5
D9
330
17
100
AcDbEntity
  8
0-LOUVRE
  6
CONTINUOUS
 62
250
100
AcDbLine
 10
20.4846065053204
 20
-66.90098142699587
 30
0.0
 11
20.1453216107444
 21
-67.23509775813702
 31
0.0
  0
LINE
  5
DA
330
17
100
AcDbEntity
  8
0-LOUVRE
  6
CONTINUOUS
 62
250
100
AcDbLine
 10
20.1453216107444
 20
-67.23509775813702
 30
0.0
 11
19.80603671617074
 21
-66.90098142699587
 31
0.0
  0
LINE
  5
DB
330
17
100
AcDbEntity
  8
0-LOUVRE
  6
CONTINUOUS
 62
250
100
AcDbLine
 10
19.80603671617074
 20
-66.90098142699587
 30
0.0
 11
20.4846065053204
 21
-66.90098142699587
 31
0.0
  0
ARC
  5
DC
330
17
100
AcDbEntity
  8
0-LOUVRE
  6
CONTINUOUS
 62
250
100
AcDbCircle
 10
23.08327420914981
 20
-67.94748068123579
 30
0.0
 40
0.1065976083175258
100
AcDbArc
 50
15.02588689196348
 51
164.9741131080396
  0
LINE
  5
DD
330
17
100
AcDbEntity
  8
0-LOUVRE
  6
CONTINUOUS
 62
250
100
AcDbLine
 10
22.98032130201352
 20
-67.9198446719145
 30
0.0
 11
22.55100312834603
 21
-67.9198446719145
 31
0.0
  0
ARC
  5
DE
330
17
100
AcDbEntity
  8
0-LOUVRE
  6
CONTINUOUS
 62
250
100
AcDbCircle
 10
23.08327420914981
 20
-67.91984467191453
 30
0.0
 40
0.532271080803773
100
AcDbArc
 50
-4.211444178243999e-13
 51
179.9999999999998
  0
LINE
  5
DF
330
17
100
AcDbEntity
  8
0-LOUVRE
  6
CONTINUOUS
 62
250
100
AcDbLine
 10
23.61554528995357
 20
-67.91984467191453
 30
0.0
 11
23.18622711628612
 21
-67.9198446719145
 31
0.0
  0
LINE
  5
E0
330
17
100
AcDbEntity
  8
0-LOUVRE
  6
CONTINUOUS
 62
250
100
AcDbLine
 10
23.18622711628609
 20
-67.97511669055399
 30
0.0
 11
23.61554528995357
 21
-67.975116690554
 31
0.0
  0
ARC
  5
E1
330
17
100
AcDbEntity
  8
0-LOUVRE
  6
CONTINUOUS
 62
250
100
AcDbCircle
 10
23.08327420914981
 20
-67.97511669055399
 30
0.0
 40
0.5322710808037662
100
AcDbArc
 50
-179.99999999999983
 51
-4.211444178243999e-13
  0
LINE
  5
E2
330
17
100
AcDbEntity
  8
0-LOUVRE
  6
CONTINUOUS
 62
250
100
AcDbLine
 10
22.55100312834603
 20
-67.975116690554
 30
0.0
 11
22.98032130201352
 21
-67.975116690554
 31
0.0
  0
ARC
  5
E3
330
17
100
AcDbEntity
  8
0-LOUVRE
  6
CONTINUOUS
 62
250
100
AcDbCircle
 10
23.08327420914981
 20
-67.94748068123579
 30
0.0
 40
0.1065976083167457
100
AcDbArc
 50
-164.97411310963244
 51
-15.025886890370087
  0
ARC
  5
E4
330
17
100
AcDbEntity
  8
0-LOUVRE
  6
CONTINUOUS
 62
250
100
AcDbCircle
 10
20.5404584325541
 20
-67.94748068123312
 30
0.0
 40
0.1065976083175401
100
AcDbArc
 50
15.025886891963061
 51
164.974113108038
  0
LINE
  5
E5
330
17
100
AcDbEntity
  8
0-LOUVRE
  6
CONTINUOUS
 62
250
100
AcDbLine
 10
20.43750552541782
 20
-67.91984467191185
 30
0.0
 11
20.00818735175034
 21
-67.91984467191183
 31
0.0
  0
ARC
  5
E6
330
17
100
AcDbEntity
  8
0-LOUVRE
  6
CONTINUOUS
 62
250
100
AcDbCircle
 10
20.5404584325541
 20
-67.91984467191185
 30
0.0
 40
0.5322710808037662
100
AcDbArc
 50
-4.211444178243999e-13
 51
179.9999999999998
  0
LINE
  5
E7
330
17
100
AcDbEntity
  8
0-LOUVRE
  6
CONTINUOUS
 62
250
100
AcDbLine
 10
21.07272951335788
 20
-67.91984467191183
 30
0.0
 11
20.64341133969042
 21
-67.91984467191185
 31
0.0
  0
LINE
  5
E8
330
17
100
AcDbEntity
  8
0-LOUVRE
  6
CONTINUOUS
 62
250
100
AcDbLine
 10
20.64341133969042
 20
-67.97511669055132
 30
0.0
 11
21.07272951335788
 21
-67.97511669055132
 31
0.0
  0
ARC
  5
E9
330
17
100
AcDbEntity
  8
0-LOUVRE
  6
CONTINUOUS
 62
250
100
AcDbCircle
 10
20.5404584325541
 20
-67.97511669055132
 30
0.0
 40
0.5322710808037725
100
AcDbArc
 50
-179.99999999999983
 51
-4.211444178243999e-13
  0
LINE
  5
EA
330
17
100
AcDbEntity
  8
0-LOUVRE
  6
CONTINUOUS
 62
250
100
AcDbLine
 10
20.00818735175034
 20
-67.9751166905513
 30
0.0
 11
20.43750552541782
 21
-67.97511669055132
 31
0.0
  0
ARC
  5
EB
330
17
100
AcDbEntity
  8
0-LOUVRE
  6
CONTINUOUS
 62
250
100
AcDbCircle
 10
20.5404584325541
 20
-67.94748068123312
 30
0.0
 40
0.1065976083167457
100
AcDbArc
 50
-164.97411310963244
 51
-15.025886890368103
  0
ARC
  5
EC
330
17
100
AcDbEntity
  8
0-LOUVRE
  6
CONTINUOUS
 62
250
100
AcDbCircle
 10
21.81186632085314
 20
-67.94748068122854
 30
0.0
 40
0.1718624232298842
100
AcDbArc
 50
2.036e-13
 51
180.0
  0
ARC
  5
ED
330
17
100
AcDbEntity
  8
0-LOUVRE
  6
CONTINUOUS
 62
250
100
AcDbCircle
 10
21.81186632085314
 20
-67.94748068122854
 30
0.0
 40
0.1718624232298694
100
AcDbArc
 50
-179.99999999999983
 51
-6.24699917438065e-13
  0
LINE
  5
EE
330
17
100
AcDbEntity
  8
0-LOUVRE
  6
CONTINUOUS
 62
250
100
AcDbLine
 10
23.31253011930021
 20
-69.72902003749442
 30
0.0
 11
21.9030242813306
 21
-71.13852587546475
 31
0.0
  0
ARC
  5
EF
330
17
100
AcDbEntity
  8
0-LOUVRE
  6
CONTINUOUS
 62
250
100
AcDbCircle
 10
21.81186632085429
 20
-71.20192875158021
 30
0.0
 40
0.1110391753297565
100
AcDbArc
 50
145.180321594915
 51
34.81967840508836
  0
LINE
  5
F0
330
17
100
AcDbEntity
  8
0-LOUVRE
  6
CONTINUOUS
 62
250
100
AcDbLine
 10
21.72070836037796
 20
-71.13852587546475
 30
0.0
 11
20.31120252240838
 21
-69.72902003749441
 31
0.0
  0
LINE
  5
F1
330
17
100
AcDbEntity
  8
0-LOUVRE
  6
CONTINUOUS
 62
250
100
AcDbLine
 10
20.31120252240838
 20
-69.72902003749441
 30
0.0
 11
19.92169250915789
 21
-70.11853005074468
 31
0.0
  0
LINE
  5
F2
330
17
100
AcDbEntity
  8
0-LOUVRE
  6
CONTINUOUS
 62
250
100
AcDbLine
 10
19.92169250915789
 20
-70.11853005074468
 30
0.0
 11
20.03330003669964
 21
-70.23013757828647
 31
0.0
  0
LINE
  5
F3
330
17
100
AcDbEntity
  8
0-LOUVRE
  6
CONTINUOUS
 62
250
100
AcDbLine
 10
20.03330003669964
 20
-70.23013757828647
 30
0.0
 11
20.70465726506579
 21
-70.23013757828647
 31
0.0
  0
LINE
  5
F4
330
17
100
AcDbEntity
  8
0-LOUVRE
  6
CONTINUOUS
 62
250
100
AcDbLine
 10
20.70465726506579
 20
-70.23013757828647
 30
0.0
 11
20.31120252240838
 21
-70.62359232094381
 31
0.0
  0
LINE
  5
F5
330
17
100
AcDbEntity
  8
0-LOUVRE
  6
CONTINUOUS
 62
250
100
AcDbLine
 10
20.31120252240838
 20
-70.62359232094381
 30
0.0
 11
19.80614025220923
 21
-70.11853005074458
 31
0.0
  0
LINE
  5
F6
330
17
100
AcDbEntity
  8
0-LOUVRE
  6
CONTINUOUS
 62
250
100
AcDbLine
 10
19.80614025220923
 20
-70.11853005074458
 30
0.0
 11
20.31120252240838
 21
-69.61346778049783
 31
0.0
  0
LINE
  5
F7
330
17
100
AcDbEntity
  8
0-LOUVRE
  6
CONTINUOUS
 62
250
100
AcDbLine
 10
20.31120252240838
 20
-69.61346778049783
 30
0.0
 11
21.79066680156672
 21
-71.09293205970411
 31
0.0
  0
ARC
  5
F8
330
17
100
AcDbEntity
  8
0-LOUVRE
  6
CONTINUOUS
 62
250
100
AcDbCircle
 10
21.81186632085429
 20
-71.18851539156
 30
0.0
 40
0.097906041420818
100
AcDbArc
 50
77.49474094213771
 51
102.5052590578706
  0
LINE
  5
F9
330
17
100
AcDbEntity
  8
0-LOUVRE
  6
CONTINUOUS
 62
250
100
AcDbLine
 10
21.83306584014186
 20
-71.09293205970411
 30
0.0
 11
23.31253011930021
 21
-69.61346778054553
 31
0.0
  0
LINE
  5
FA
330
17
100
AcDbEntity
  8
0-LOUVRE
  6
CONTINUOUS
 62
250
100
AcDbLine
 10
23.31253011930021
 20
-69.61346778054553
 30
0.0
 11
23.81759238949936
 21
-70.11853005074462
 31
0.0
  0
LINE
  5
FB
330
17
100
AcDbEntity
  8
0-LOUVRE
  6
CONTINUOUS
 62
250
100
AcDbLine
 10
23.81759238949936
 20
-70.11853005074462
 30
0.0
 11
23.31253011930021
 21
-70.62359232094386
 31
0.0
  0
LINE
  5
FC
330
17
100
AcDbEntity
  8
0-LOUVRE
  6
CONTINUOUS
 62
250
100
AcDbLine
 10
23.31253011930021
 20
-70.62359232094386
 30
0.0
 11
22.91907537664279
 21
-70.23013757828652
 31
0.0
  0
LINE
  5
FD
330
17
100
AcDbEntity
  8
0-LOUVRE
  6
CONTINUOUS
 62
250
100
AcDbLine
 10
22.91907537664279
 20
-70.23013757828652
 30
0.0
 11
23.59043260500894
 21
-70.23013757828652
 31
0.0
  0
LINE
  5
FE
330
17
100
AcDbEntity
  8
0-LOUVRE
  6
CONTINUOUS
 62
250
100
AcDbLine
 10
23.59043260500894
 20
-70.23013757828652
 30
0.0
 11
23.70204013255068
 21
-70.1185300507447
 31
0.0
  0
LINE
  5
FF
330
17
100
AcDbEntity
  8
0-LOUVRE
  6
CONTINUOUS
 62
250
100
AcDbLine
 10
23.70204013255068
 20
-70.1185300507447
 30
0.0
 11
23.31253011930021
 21
-69.72902003749442
 31
0.0
  0
LINE
  5
100
330
17
100
AcDbEntity
  8
0-LOUVRE
  6
CONTINUOUS
 62
250
100
AcDbLine
 10
22.20462215630039
 20
-68.25124369597908
 30
0.0
 11
21.8919367752802
 21
-68.56392907700109
 31
0.0
  0
LINE
  5
101
330
17
100
AcDbEntity
  8
0-LOUVRE
  6
CONTINUOUS
 62
250
100
AcDbLine
 10
21.8919367752802
 20
-68.56392907700109
 30
0.0
 11
22.67419470504362
 21
-68.56392907700109
 31
0.0
  0
LINE
  5
102
330
17
100
AcDbEntity
  8
0-LOUVRE
  6
CONTINUOUS
 62
250
100
AcDbLine
 10
22.67419470504362
 20
-68.56392907700109
 30
0.0
 11
22.35721937711673
 21
-68.88090440492763
 31
0.0
  0
LINE
  5
103
330
17
100
AcDbEntity
  8
0-LOUVRE
  6
CONTINUOUS
 62
250
100
AcDbLine
 10
22.35721937711673
 20
-68.88090440492763
 30
0.0
 11
22.04489168562307
 21
-68.88090440492763
 31
0.0
  0
LINE
  5
104
330
17
100
AcDbEntity
  8
0-LOUVRE
  6
CONTINUOUS
 62
250
100
AcDbLine
 10
22.04489168562307
 20
-68.88090440492763
 30
0.0
 11
21.81186632085429
 21
-68.64787904015876
 31
0.0
  0
LINE
  5
105
330
17
100
AcDbEntity
  8
0-LOUVRE
  6
CONTINUOUS
 62
250
100
AcDbLine
 10
21.81186632085429
 20
-68.64787904015876
 30
0.0
 11
21.57884095608549
 21
-68.88090440492746
 31
0.0
  0
LINE
  5
106
330
17
100
AcDbEntity
  8
0-LOUVRE
  6
CONTINUOUS
 62
250
100
AcDbLine
 10
21.57884095608549
 20
-68.88090440492746
 30
0.0
 11
21.26651326459183
 21
-68.88090440492746
 31
0.0
  0
LINE
  5
107
330
17
100
AcDbEntity
  8
0-LOUVRE
  6
CONTINUOUS
 62
250
100
AcDbLine
 10
21.26651326459183
 20
-68.88090440492746
 30
0.0
 11
20.94953793666494
 21
-68.56392907700109
 31
0.0
  0
LINE
  5
108
330
17
100
AcDbEntity
  8
0-LOUVRE
  6
CONTINUOUS
 62
250
100
AcDbLine
 10
20.94953793666494
 20
-68.56392907700109
 30
0.0
 11
21.73179586642838
 21
-68.56392907700109
 31
0.0
  0
LINE
  5
109
330
17
100
AcDbEntity
  8
0-LOUVRE
  6
CONTINUOUS
 62
250
100
AcDbLine
 10
21.73179586642838
 20
-68.56392907700109
 30
0.0
 11
21.41911048540591
 21
-68.25124369597908
 31
0.0
  0
LINE
  5
10A
330
17
100
AcDbEntity
  8
0-LOUVRE
  6
CONTINUOUS
 62
250
100
AcDbLine
 10
21.41911048540591
 20
-68.25124369597908
 30
0.0
 11
22.20462215630039
 21
-68.25124369597908
 31
0.0
  0
LINE
  5
10B
330
17
100
AcDbEntity
  8
0-LOUVRE
  6
CONTINUOUS
 62
250
100
AcDbLine
 10
23.06695054049436
 20
-68.9566849124498
 30
0.0
 11
22.67419470504362
 21
-69.34944074791153
 31
0.0
  0
LINE
  5
10C
330
17
100
AcDbEntity
  8
0-LOUVRE
  6
CONTINUOUS
 62
250
100
AcDbLine
 10
22.67419470504362
 20
-69.34944074791153
 30
0.0
 11
23.45970637594392
 21
-69.34944074791153
 31
0.0
  0
LINE
  5
10D
330
17
100
AcDbEntity
  8
0-LOUVRE
  6
CONTINUOUS
 62
250
100
AcDbLine
 10
23.45970637594392
 20
-69.34944074791153
 30
0.0
 11
22.47997286307229
 21
-70.32917426077545
 31
0.0
  0
LINE
  5
10E
330
17
100
AcDbEntity
  8
0-LOUVRE
  6
CONTINUOUS
 62
250
100
AcDbLine
 10
22.47997286307229
 20
-70.32917426077545
 30
0.0
 11
22.39958952484814
 21
-70.24879092255004
 31
0.0
  0
LINE
  5
10F
330
17
100
AcDbEntity
  8
0-LOUVRE
  6
CONTINUOUS
 62
250
100
AcDbLine
 10
22.39958952484814
 20
-70.24879092255004
 30
0.0
 11
22.9061838640449
 21
-69.74219658336116
 31
0.0
  0
LINE
  5
110
330
17
100
AcDbEntity
  8
0-LOUVRE
  6
CONTINUOUS
 62
250
100
AcDbLine
 10
22.9061838640449
 20
-69.74219658336116
 30
0.0
 11
22.12067219314575
 21
-68.9566849124498
 31
0.0
  0
LINE
  5
111
330
17
100
AcDbEntity
  8
0-LOUVRE
  6
CONTINUOUS
 62
250
100
AcDbLine
 10
22.12067219314575
 20
-68.9566849124498
 30
0.0
 11
23.06695054049436
 21
-68.9566849124498
 31
0.0
  0
LINE
  5
112
330
17
100
AcDbEntity
  8
0-LOUVRE
  6
CONTINUOUS
 62
250
100
AcDbLine
 10
21.81186632085429
 20
-70.8365141265439
 30
0.0
 11
22.35902509244903
 21
-70.28935535494932
 31
0.0
  0
LINE
  5
113
330
17
100
AcDbEntity
  8
0-LOUVRE
  6
CONTINUOUS
 62
250
100
AcDbLine
 10
22.35902509244903
 20
-70.28935535494932
 30
0.0
 11
22.43940843067432
 21
-70.36973869317465
 31
0.0
  0
LINE
  5
114
330
17
100
AcDbEntity
  8
0-LOUVRE
  6
CONTINUOUS
 62
250
100
AcDbLine
 10
22.43940843067432
 20
-70.36973869317465
 30
0.0
 11
21.81186632085429
 21
-70.9972808029945
 31
0.0
  0
LINE
  5
115
330
17
100
AcDbEntity
  8
0-LOUVRE
  6
CONTINUOUS
 62
250
100
AcDbLine
 10
21.81186632085429
 20
-70.9972808029945
 30
0.0
 11
21.18432421103425
 21
-70.36973869317427
 31
0.0
  0
LINE
  5
116
330
17
100
AcDbEntity
  8
0-LOUVRE
  6
CONTINUOUS
 62
250
100
AcDbLine
 10
21.18432421103425
 20
-70.36973869317427
 30
0.0
 11
21.26470754925955
 21
-70.289355354949
 31
0.0
  0
LINE
  5
117
330
17
100
AcDbEntity
  8
0-LOUVRE
  6
CONTINUOUS
 62
250
100
AcDbLine
 10
21.26470754925955
 20
-70.289355354949
 30
0.0
 11
21.81186632085429
 21
-70.8365141265439
 31
0.0
  0
LINE
  5
118
330
17
100
AcDbEntity
  8
0-LOUVRE
  6
CONTINUOUS
 62
250
100
AcDbLine
 10
21.22414311686042
 20
-70.24879092254973
 30
0.0
 11
21.14375977863628
 21
-70.32917426077508
 31
0.0
  0
LINE
  5
119
330
17
100
AcDbEntity
  8
0-LOUVRE
  6
CONTINUOUS
 62
250
100
AcDbLine
 10
21.14375977863628
 20
-70.32917426077508
 30
0.0
 11
20.16402626576463
 21
-69.34944074784863
 31
0.0
  0
LINE
  5
11A
330
17
100
AcDbEntity
  8
0-LOUVRE
  6
CONTINUOUS
 62
250
100
AcDbLine
 10
20.16402626576463
 20
-69.34944074784863
 30
0.0
 11
20.94953793666494
 21
-69.34944074784863
 31
0.0
  0
LINE
  5
11B
330
17
100
AcDbEntity
  8
0-LOUVRE
  6
CONTINUOUS
 62
250
100
AcDbLine
 10
20.94953793666494
 20
-69.34944074784863
 30
0.0
 11
20.55678210121422
 21
-68.95668491244965
 31
0.0
  0
LINE
  5
11C
330
17
100
AcDbEntity
  8
0-LOUVRE
  6
CONTINUOUS
 62
250
100
AcDbLine
 10
20.55678210121422
 20
-68.95668491244965
 30
0.0
 11
21.5030604485628
 21
-68.95668491244965
 31
0.0
  0
LINE
  5
11D
330
17
100
AcDbEntity
  8
0-LOUVRE
  6
CONTINUOUS
 62
250
100
AcDbLine
 10
21.5030604485628
 20
-68.95668491244965
 30
0.0
 11
20.71754877766367
 21
-69.74219658334594
 31
0.0
  0
LINE
  5
11E
330
17
100
AcDbEntity
  8
0-LOUVRE
  6
CONTINUOUS
 62
250
100
AcDbLine
 10
20.71754877766367
 20
-69.74219658334594
 30
0.0
 11
21.22414311686042
 21
-70.24879092254973
 31
0.0
  0
LINE
  5
11F
330
17
100
AcDbEntity
  8
0-LOUVRE
  6
CONTINUOUS
 62
250
100
AcDbLine
 10
21.81186632085429
 20
-68.93493244790236
 30
0.0
 11
22.6191304563055
 21
-69.74219658336116
 31
0.0
  0
LINE
  5
120
330
17
100
AcDbEntity
  8
0-LOUVRE
  6
CONTINUOUS
 62
250
100
AcDbLine
 10
22.6191304563055
 20
-69.74219658336116
 30
0.0
 11
21.81186632085429
 21
-70.54946071880478
 31
0.0
  0
LINE
  5
121
330
17
100
AcDbEntity
  8
0-LOUVRE
  6
CONTINUOUS
 62
250
100
AcDbLine
 10
21.81186632085429
 20
-70.54946071880478
 30
0.0
 11
21.00460218540307
 21
-69.74219658334594
 31
0.0
  0
LINE
  5
122
330
17
100
AcDbEntity
  8
0-LOUVRE
  6
CONTINUOUS
 62
250
100
AcDbLine
 10
21.00460218540307
 20
-69.74219658334594
 30
0.0
 11
21.81186632085429
 21
-68.93493244790236
 31
0.0
  0
LINE
  5
123
330
17
100
AcDbEntity
  8
0-LOUVRE
  6
CONTINUOUS
 62
250
100
AcDbLine
 10
24.31204925569009
 20
-71.4658486666984
 30
0.0
 11
23.59547532442083
 21
-71.4658486666984
 31
0.0
  0
LINE
  5
124
330
17
100
AcDbEntity
  8
0-LOUVRE
  6
CONTINUOUS
 62
250
100
AcDbLine
 10
23.59547532442083
 20
-71.4658486666984
 30
0.0
 11
24.31167801709522
 21
-70.749645974024
 31
0.0
  0
LINE
  5
125
330
17
100
AcDbEntity
  8
0-LOUVRE
  6
CONTINUOUS
 62
250
100
AcDbLine
 10
20.13871450313382
 20
-69.48169271655925
 30
0.0
 11
19.37454468231917
 21
-68.71752289578895
 31
0.0
  0
LINE
  5
126
330
17
100
AcDbEntity
  8
0-LOUVRE
  6
CONTINUOUS
 62
250
100
AcDbLine
 10
19.37454468231915
 20
-68.80852406084819
 30
0.0
 11
20.03107085632588
 21
-69.46505023484772
 31
0.0
  0
LINE
  5
127
330
17
100
AcDbEntity
  8
0-LOUVRE
  6
CONTINUOUS
 62
250
100
AcDbLine
 10
20.03107085632588
 20
-69.46505023484772
 30
0.0
 11
19.37454468231915
 21
-70.12157640886164
 31
0.0
  0
LINE
  5
128
330
17
100
AcDbEntity
  8
0-LOUVRE
  6
CONTINUOUS
 62
250
100
AcDbLine
 10
19.37454468231915
 20
-70.24586253741829
 30
0.0
 11
20.13871450313382
 21
-69.48169271655925
 31
0.0
  0
LINE
  5
129
330
17
100
AcDbEntity
  8
0-LOUVRE
  6
CONTINUOUS
 62
250
100
AcDbLine
 10
19.94207440291234
 20
-69.46505023484772
 30
0.0
 11
19.37454468231915
 21
-68.89752051427625
 31
0.0
  0
LINE
  5
12A
330
17
100
AcDbEntity
  8
0-LOUVRE
  6
CONTINUOUS
 62
250
100
AcDbLine
 10
19.37454468231915
 20
-69.0090587336571
 30
0.0
 11
19.83053618352926
 21
-69.46505023484772
 31
0.0
  0
LINE
  5
12B
330
17
100
AcDbEntity
  8
0-LOUVRE
  6
CONTINUOUS
 62
250
100
AcDbLine
 10
19.83053618352926
 20
-69.46505023484772
 30
0.0
 11
19.37454468231917
 21
-69.92104173607729
 31
0.0
  0
LINE
  5
12C
330
17
100
AcDbEntity
  8
0-LOUVRE
  6
CONTINUOUS
 62
250
100
AcDbLine
 10
19.37454468231915
 20
-70.03257995546257
 30
0.0
 11
19.94207440291234
 21
-69.46505023484772
 31
0.0
  0
LINE
  5
12D
330
17
100
AcDbEntity
  8
0-LOUVRE
  6
CONTINUOUS
 62
250
100
AcDbLine
 10
19.74153973015004
 20
-69.46505023484772
 30
0.0
 11
19.37454468231917
 21
-69.09805518701886
 31
0.0
  0
LINE
  5
12E
330
17
100
AcDbEntity
  8
0-LOUVRE
  6
CONTINUOUS
 62
250
100
AcDbLine
 10
19.37454468231915
 20
-69.21674311710714
 30
0.0
 11
19.62285180005985
 21
-69.46505023484772
 31
0.0
  0
LINE
  5
12F
330
17
100
AcDbEntity
  8
0-LOUVRE
  6
CONTINUOUS
 62
250
100
AcDbLine
 10
19.62285180005985
 20
-69.46505023484772
 30
0.0
 11
19.37454468231915
 21
-69.71335735258846
 31
0.0
  0
LINE
  5
130
330
17
100
AcDbEntity
  8
0-LOUVRE
  6
CONTINUOUS
 62
250
100
AcDbLine
 10
19.37454468231917
 20
-69.83204528268057
 30
0.0
 11
19.74153973015004
 21
-69.46505023484772
 31
0.0
  0
LINE
  5
131
330
17
100
AcDbEntity
  8
0-LOUVRE
  6
CONTINUOUS
 62
250
100
AcDbLine
 10
23.6119717418013
 20
-69.37459919606465
 30
0.0
 11
24.24955382906106
 21
-70.01218128332442
 31
0.0
  0
LINE
  5
132
330
17
100
AcDbEntity
  8
0-LOUVRE
  6
CONTINUOUS
 62
250
100
AcDbLine
 10
24.24955382906106
 20
-69.92318482992754
 30
0.0
 11
23.70096819519816
 21
-69.37459919606465
 31
0.0
  0
LINE
  5
133
330
17
100
AcDbEntity
  8
0-LOUVRE
  6
CONTINUOUS
 62
250
100
AcDbLine
 10
23.70096819519816
 20
-69.37459919606465
 30
0.0
 11
24.24955382906106
 21
-68.82601356220133
 31
0.0
  0
LINE
  5
134
330
17
100
AcDbEntity
  8
0-LOUVRE
  6
CONTINUOUS
 62
250
100
AcDbLine
 10
24.24955382906107
 20
-70.1040869075184
 30
0.0
 11
23.50387586542578
 21
-69.35840894388312
 31
0.0
  0
LINE
  5
135
330
17
100
AcDbEntity
  8
0-LOUVRE
  6
CONTINUOUS
 62
250
100
AcDbLine
 10
23.50387586542578
 20
-69.35840894388312
 30
0.0
 11
24.22155107602967
 21
-68.64073373327923
 31
0.0
  0
LINE
  5
136
330
17
100
AcDbEntity
  8
0-LOUVRE
  6
CONTINUOUS
 62
250
100
AcDbLine
 10
24.22155107602967
 20
-68.64073373327923
 30
0.0
 11
24.24955382906109
 21
-68.66873648631086
 31
0.0
  0
LINE
  5
137
330
17
100
AcDbEntity
  8
0-LOUVRE
  6
CONTINUOUS
 62
250
100
AcDbLine
 10
24.2495538290611
 20
-68.7370171088044
 30
0.0
 11
23.6119717418013
 21
-69.37459919606465
 31
0.0
  0
LINE
  5
138
330
17
100
AcDbEntity
  8
0-LOUVRE
  6
CONTINUOUS
 62
250
100
AcDbLine
 10
24.28369414030771
 20
-70.2272236721624
 30
0.0
 11
24.20490322536236
 21
-70.30601458710822
 31
0.0
  0
LINE
  5
139
330
17
100
AcDbEntity
  8
0-LOUVRE
  6
CONTINUOUS
 62
250
100
AcDbLine
 10
24.20490322536236
 20
-70.30601458710822
 30
0.0
 11
23.380586723782
 21
-69.48169808552737
 31
0.0
  0
LINE
  5
13A
330
17
100
AcDbEntity
  8
0-LOUVRE
  6
CONTINUOUS
 62
250
100
AcDbLine
 10
23.380586723782
 20
-69.48169808552737
 30
0.0
 11
23.45937763872733
 21
-69.40290717058156
 31
0.0
  0
LINE
  5
13B
330
17
100
AcDbEntity
  8
0-LOUVRE
  6
CONTINUOUS
 62
250
100
AcDbLine
 10
23.45937763872733
 20
-69.40290717058156
 30
0.0
 11
24.28369414030771
 21
-70.2272236721624
 31
0.0
  0
LINE
  5
13C
330
17
100
AcDbEntity
  8
0-LOUVRE
  6
CONTINUOUS
 62
250
100
AcDbLine
 10
23.89526142573733
 20
-69.3612080431164
 30
0.0
 11
24.24955382906107
 21
-69.00691563979223
 31
0.0
  0
LINE
  5
13D
330
17
100
AcDbEntity
  8
0-LOUVRE
  6
CONTINUOUS
 62
250
100
AcDbLine
 10
24.24955382906104
 20
-68.91791918639532
 30
0.0
 11
23.80626497234044
 21
-69.36120804311642
 31
0.0
  0
LINE
  5
13E
330
17
100
AcDbEntity
  8
0-LOUVRE
  6
CONTINUOUS
 62
250
100
AcDbLine
 10
23.80626497234044
 20
-69.36120804311642
 30
0.0
 11
24.24955382906107
 21
-69.80449689983702
 31
0.0
  0
LINE
  5
13F
330
17
100
AcDbEntity
  8
0-LOUVRE
  6
CONTINUOUS
 62
250
100
AcDbLine
 10
24.24955382906109
 20
-69.71550044644016
 30
0.0
 11
23.89526142573733
 21
-69.3612080431164
 31
0.0
  0
LINE
  5
140
330
17
100
AcDbEntity
  8
0-LOUVRE
  6
CONTINUOUS
 62
250
100
AcDbLine
 10
24.31154451633887
 20
-67.23510312705874
 30
0.0
 11
23.97225962176452
 21
-66.90098679591767
 31
0.0
  0
LINE
  5
141
330
17
100
AcDbEntity
  8
0-LOUVRE
  6
CONTINUOUS
 62
250
100
AcDbLine
 10
23.97225962176452
 20
-66.90098679591767
 30
0.0
 11
24.31204925569009
 21
-66.90098679591766
 31
0.0
  0
ARC
  5
142
330
17
100
AcDbEntity
  8
0-LOUVRE
  6
CONTINUOUS
 62
250
100
AcDbCircle
 10
21.81186632085313
 20
-66.13559156202895
 30
0.0
 40
0.1110391753297771
100
AcDbArc
 50
145.1803215949061
 51
34.81967840508989
  0
ARC
  5
143
330
17
100
AcDbEntity
  8
0-LOUVRE
  6
CONTINUOUS
 62
250
100
AcDbCircle
 10
21.81186632085313
 20
-66.13321459238998
 30
0.0
 40
0.1087068755320826
100
AcDbArc
 50
78.75437437764751
 51
101.2456256223442
  0
LINE
  5
144
330
17
100
AcDbEntity
  8
0-LOUVRE
  6
CONTINUOUS
 62
250
100
AcDbLine
 10
24.31204925569009
 20
-66.5347943297815
 30
0.0
 11
23.59584119409591
 21
-66.5347943297815
 31
0.0
  0
LINE
  5
145
330
17
100
AcDbEntity
  8
0-LOUVRE
  6
CONTINUOUS
 62
250
100
AcDbLine
 10
23.59584119409591
 20
-66.5347943297815
 30
0.0
 11
24.31204925569009
 21
-65.81858626818736
 31
0.0
  0
CIRCLE
  5
146
330
17
100
AcDbEntity
  8
0-LOUVRE
  6
CONTINUOUS
 62
250
100
AcDbCircle
 10
20.14497275993891
 20
-71.06664589894605
 30
0.0
 40
0.1113061109157168
  0
CIRCLE
  5
147
330
17
100
AcDbEntity
  8
0-LOUVRE
  6
CONTINUOUS
 62
250
100
AcDbCircle
 10
23.39508379545172
 20
-66.13559156202967
 30
0.0
 40
0.1110941698407611
  0
CIRCLE
  5
148
330
17
100
AcDbEntity
  8
0-LOUVRE
  6
CONTINUOUS
 62
250
100
AcDbCircle
 10
23.47841103096143
 20
-71.0666458989461
 30
0.0
 40
0.1113061109157168
  0
ARC
  5
149
330
17
100
AcDbEntity
  8
0-LOUVRE
  6
CONTINUOUS
 62
250
100
AcDbCircle
 10
24.31204925569009
 20
-67.94748068123428
 30
0.0
 40
0.1718624232298773
100
AcDbArc
 50
90.0
 51
-90.00000000000001
  0
LINE
  5
14A
330
17
100
AcDbEntity
  8
0-LOUVRE
  6
CONTINUOUS
 62
250
100
AcDbLine
 10
24.3120492556901
 20
-65.56817812201857
 30
0.0
 11
24.31204925569009
 21
-71.56817812201857
 31
0.0
  0
LINE
  5
14B
330
17
100
AcDbEntity
  8
0-LOUVRE
  6
CONTINUOUS
 62
250
100
AcDbLine
 10
24.24955382906107
 20
-68.66873648631088
 30
0.0
 11
24.24955382906109
 21
-68.7370171088044
 31
0.0
  0
LINE
  5
14C
330
17
100
AcDbEntity
  8
0-LOUVRE
  6
CONTINUOUS
 62
250
100
AcDbLine
 10
24.24955382906111
 20
-68.82601356220128
 30
0.0
 11
24.24955382906111
 21
-68.91791918639525
 31
0.0
  0
LINE
  5
14D
330
17
100
AcDbEntity
  8
0-LOUVRE
  6
CONTINUOUS
 62
250
100
AcDbLine
 10
24.2495538290611
 20
-69.00691563979215
 30
0.0
 11
24.2495538290611
 21
-69.71550044644017
 31
0.0
  0
LINE
  5
14E
330
17
100
AcDbEntity
  8
0-LOUVRE
  6
CONTINUOUS
 62
250
100
AcDbLine
 10
24.24955382906109
 20
-69.80449689983703
 30
0.0
 11
24.24955382906109
 21
-69.92318482992755
 31
0.0
  0
LINE
  5
14F
330
17
100
AcDbEntity
  8
0-LOUVRE
  6
CONTINUOUS
 62
250
100
AcDbLine
 10
24.24955382906107
 20
-70.01218128332442
 30
0.0
 11
24.24955382906107
 21
-70.10408690751837
 31
0.0
  0
LINE
  5
150
330
17
100
AcDbEntity
  8
0-LOUVRE
  6
CONTINUOUS
 62
250
100
AcDbLine
 10
19.31204925569011
 20
-71.56817812201857
 30
0.0
 11
19.3120492556901
 21
-65.56817812201857
 31
0.0
  0
LINE
  5
151
330
17
100
AcDbEntity
  8
0-LOUVRE
  6
CONTINUOUS
 62
250
100
AcDbLine
 10
19.37454468231915
 20
-70.35015508253316
 30
0.0
 11
19.37454468231917
 21
-70.2458625374183
 31
0.0
  0
LINE
  5
152
330
17
100
AcDbEntity
  8
0-LOUVRE
  6
CONTINUOUS
 62
250
100
AcDbLine
 10
19.37454468231915
 20
-70.12157640886164
 30
0.0
 11
19.37454468231915
 21
-70.03257995546257
 31
0.0
  0
LINE
  5
153
330
17
100
AcDbEntity
  8
0-LOUVRE
  6
CONTINUOUS
 62
250
100
AcDbLine
 10
19.37454468231917
 20
-69.92104173607731
 30
0.0
 11
19.37454468231917
 21
-69.83204528268058
 31
0.0
  0
LINE
  5
154
330
17
100
AcDbEntity
  8
0-LOUVRE
  6
CONTINUOUS
 62
250
100
AcDbLine
 10
19.37454468231918
 20
-69.7133573525885
 30
0.0
 11
19.37454468231917
 21
-69.21674311710716
 31
0.0
  0
LINE
  5
155
330
17
100
AcDbEntity
  8
0-LOUVRE
  6
CONTINUOUS
 62
250
100
AcDbLine
 10
19.37454468231915
 20
-69.09805518701884
 30
0.0
 11
19.37454468231915
 21
-69.00905873365711
 31
0.0
  0
LINE
  5
156
330
17
100
AcDbEntity
  8
0-LOUVRE
  6
CONTINUOUS
 62
250
100
AcDbLine
 10
19.37454468231914
 20
-68.89752051427624
 30
0.0
 11
19.37454468231915
 21
-68.80852406084819
 31
0.0
  0
LINE
  5
157
330
17
100
AcDbEntity
  8
0-LOUVRE
  6
CONTINUOUS
 62
250
100
AcDbLine
 10
19.37454468231917
 20
-68.71752289578895
 30
0.0
 11
19.37454468231915
 21
-68.61323035067495
 31
0.0
  0
LINE
  5
158
330
17
100
AcDbEntity
  8
0-LOUVRE
  6
CONTINUOUS
 62
250
100
AcDbLine
 10
19.31204925569008
 20
-66.5347943297815
 30
0.0
 11
20.02825731728426
 21
-66.5347943297815
 31
0.0
  0
LINE
  5
159
330
17
100
AcDbEntity
  8
0-LOUVRE
  6
CONTINUOUS
 62
250
100
AcDbLine
 10
20.02825731728426
 20
-66.5347943297815
 30
0.0
 11
19.31204925569008
 21
-65.81858626818736
 31
0.0
  0
CIRCLE
  5
15A
330
17
100
AcDbEntity
  8
0-LOUVRE
  6
CONTINUOUS
 62
250
100
AcDbCircle
 10
20.22901471592846
 20
-66.13559156202967
 30
0.0
 40
0.1110941698407611
  0
LWPOLYLINE
  5
15B
330
17
100
AcDbEntity
  8
0-LOUVRE
  6
CONTINUOUS
 62
250
100
AcDbPolyline
 90
6
 70
1
 10
22.11213638564883
 20
-65.63067354864762
 10
21.95136970919937
 20
-65.63067354864762
 10
21.81186632085313
 20
-65.77017693699386
 10
21.67236293250689
 20
-65.63067354864762
 10
21.51159625605743
 20
-65.63067354864762
 10
21.81186632085313
 20
-65.9309436134433
  0
LWPOLYLINE
  5
15C
330
17
100
AcDbEntity
  8
0-LOUVRE
  6
CONTINUOUS
 62
250
100
AcDbPolyline
 90
8
 70
1
 10
21.90302428132945
 20
-66.07218868591349
 10
22.3445394185954
 20
-65.63067354864762
 10
22.22898716164669
 20
-65.63067354864762
 10
21.83306584014069
 20
-66.02659487015285
 42
0.0984528595500955
 10
21.79066680156557
 20
-66.02659487015285
 10
21.39474548005958
 20
-65.63067354864762
 10
21.27919322311084
 20
-65.63067354864762
 10
21.72070836037679
 20
-66.07218868591347
 42
1.91362389563935
  0
LWPOLYLINE
  5
15D
330
17
100
AcDbEntity
  8
0-LOUVRE
  6
CONTINUOUS
 62
250
100
AcDbPolyline
 90
4
 70
1
 10
19.31204925569011
 20
-65.56817812201857
 10
24.3120492556901
 20
-65.56817812201857
 10
24.3120492556901
 20
-71.56817812201857
 10
19.31204925569011
 20
-71.56817812201857
  0
LINE
  5
15E
330
17
100
AcDbEntity
  8
0-LOUVRE
  6
CONTINUOUS
 62
250
100
AcDbLine
 10
21.31204925569011
 20
-65.56817812201858
 30
0.0
 11
21.31204925569011
 21
-71.56817812201857
 31
0.0
  0
LINE
  5
15F
330
17
100
AcDbEntity
  8
0-LOUVRE
  6
CONTINUOUS
 62
250
100
AcDbLine
 10
20.31204925569011
 20
-65.56817812201858
 30
0.0
 11
20.31204925569011
 21
-71.56817812201857
 31
0.0
  0
LINE
  5
160
330
17
100
AcDbEntity
  8
0-LOUVRE
  6
CONTINUOUS
 62
250
100
AcDbLine
 10
22.3120492556901
 20
-65.56817812201858
 30
0.0
 11
22.3120492556901
 21
-71.56817812201857
 31
0.0
  0
LINE
  5
161
330
17
100
AcDbEntity
  8
0-LOUVRE
  6
CONTINUOUS
 62
250
100
AcDbLine
 10
23.3120492556901
 20
-65.56817812201858
 30
0.0
 11
23.3120492556901
 21
-71.56817812201857
 31
0.0
  0
LINE
  5
162
330
17
100
AcDbEntity
  8
0-LOUVRE
  6
CONTINUOUS
 62
250
100
AcDbLine
 10
19.31204925569011
 20
-68.56817812201857
 30
0.0
 11
24.3120492556901
 21
-68.56817812201857
 31
0.0
  0
LINE
  5
163
330
17
100
AcDbEntity
  8
0-LOUVRE
  6
CONTINUOUS
 62
250
100
AcDbLine
 10
24.31204925569009
 20
-67.33302263741675
 30
0.0
 11
19.3120492556901
 21
-67.33302263741675
 31
0.0
  0
LINE
  5
164
330
17
100
AcDbEntity
  8
0-LOUVRE
  6
CONTINUOUS
 62
250
100
AcDbLine
 10
24.3120492556901
 20
-69.74219658334593
 30
0.0
 11
19.31204925569011
 21
-69.74219658334594
 31
0.0
  0
LINE
  5
165
330
17
100
AcDbEntity
  8
0
100
AcDbLine
 10
39.39462230716097
 20
-51.35301489214203
 30
0.0
 11
41.39462230716097
 21
-51.35301489214203
 31
0.0
  0
LINE
  5
166
330
17
100
AcDbEntity
  8
0
100
AcDbLine
 10
39.39462230716097
 20
-51.35301489214203
 30
0.0
 11
39.39462230716097
 21
-53.35301489214202
 31
0.0
  0
LINE
  5
167
330
17
100
AcDbEntity
  8
0
100
AcDbLine
 10
39.39462230716097
 20
-53.35301489214202
 30
0.0
 11
41.39462230716097
 21
-53.35301489214202
 31
0.0
  0
LINE
  5
168
330
17
100
AcDbEntity
  8
0
100
AcDbLine
 10
40.39462230716097
 20
-51.35301489214203
 30
0.0
 11
40.39462230716097
 21
-53.35301489214202
 31
0.0
  0
LINE
  5
169
330
17
100
AcDbEntity
  8
0
100
AcDbLine
 10
41.39462230716097
 20
-51.35301489214203
 30
0.0
 11
41.39462230716097
 21
-53.35301489214202
 31
0.0
  0
LINE
  5
16A
330
17
100
AcDbEntity
  8
0
100
AcDbLine
 10
39.39462230716097
 20
-52.35301489214203
 30
0.0
 11
41.39462230716097
 21
-52.35301489214203
 31
0.0
  0
LWPOLYLINE
  5
16B
330
17
100
AcDbEntity
  8
0
100
AcDbPolyline
 90
3
 70
1
 10
40.34462230716097
 20
-51.47372557026068
 10
39.51533298527963
 20
-52.30301489214203
 10
40.34462230716097
 20
-52.30301489214203
  0
CIRCLE
  5
16C
330
17
100
AcDbEntity
  8
0
100
AcDbCircle
 10
38.10419543743142
 20
-51.428997262497
 30
0.0
 40
0.025
  0
LWPOLYLINE
  5
16D
330
17
100
AcDbEntity
  8
0
100
AcDbPolyline
 90
4
 70
0
 10
37.29990611555007
 20
-51.3470027639285
 10
38.12919543743142
 20
-51.3470027639285
 10
38.12919543743142
 20
-52.17629208580985
 10
37.29990611555007
 20
-51.3470027639285
  0
CIRCLE
  5
16E
330
17
100
AcDbEntity
  8
0
100
AcDbCircle
 10
37.7622284460204
 20
-51.428997262497
 30
0.0
 40
0.025
  0
CIRCLE
  5
16F
330
17
100
AcDbEntity
  8
0
100
AcDbCircle
 10
37.42026145460939
 20
-51.428997262497
 30
0.0
 40
0.025
  0
CIRCLE
  5
170
330
17
100
AcDbEntity
  8
0
100
AcDbCircle
 10
37.87621744315741
 20
-51.428997262497
 30
0.0
 40
0.025
  0
CIRCLE
  5
171
330
17
100
AcDbEntity
  8
0
100
AcDbCircle
 10
37.99020644029442
 20
-51.428997262497
 30
0.0
 40
0.025
  0
CIRCLE
  5
172
330
17
100
AcDbEntity
  8
0
100
AcDbCircle
 10
37.6482394488834
 20
-51.428997262497
 30
0.0
 40
0.025
  0
CIRCLE
  5
173
330
17
100
AcDbEntity
  8
0
100
AcDbCircle
 10
37.53425045174639
 20
-51.428997262497
 30
0.0
 40
0.025
  0
CIRCLE
  5
174
330
17
100
AcDbEntity
  8
0
100
AcDbCircle
 10
38.04720093886292
 20
-51.37200276392849
 30
0.0
 40
0.025
  0
CIRCLE
  5
175
330
17
100
AcDbEntity
  8
0
100
AcDbCircle
 10
37.93321194172591
 20
-51.37200276392849
 30
0.0
 40
0.025
  0
CIRCLE
  5
176
330
17
100
AcDbEntity
  8
0
100
AcDbCircle
 10
37.8192229445889
 20
-51.37200276392849
 30
0.0
 40
0.025
  0
CIRCLE
  5
177
330
17
100
AcDbEntity
  8
0
100
AcDbCircle
 10
37.7052339474519
 20
-51.37200276392849
 30
0.0
 40
0.025
  0
CIRCLE
  5
178
330
17
100
AcDbEntity
  8
0
100
AcDbCircle
 10
37.59124495031489
 20
-51.37200276392849
 30
0.0
 40
0.025
  0
CIRCLE
  5
179
330
17
100
AcDbEntity
  8
0
100
AcDbCircle
 10
37.47725595317788
 20
-51.37200276392849
 30
0.0
 40
0.025
  0
CIRCLE
  5
17A
330
17
100
AcDbEntity
  8
0
100
AcDbCircle
 10
37.36326695604088
 20
-51.37200276392849
 30
0.0
 40
0.025
  0
CIRCLE
  5
17B
330
17
100
AcDbEntity
  8
0
100
AcDbCircle
 10
38.04720093886292
 20
-51.4859917610655
 30
0.0
 40
0.025
  0
CIRCLE
  5
17C
330
17
100
AcDbEntity
  8
0
100
AcDbCircle
 10
37.93321194172591
 20
-51.4859917610655
 30
0.0
 40
0.025
  0
CIRCLE
  5
17D
330
17
100
AcDbEntity
  8
0
100
AcDbCircle
 10
37.8192229445889
 20
-51.4859917610655
 30
0.0
 40
0.025
  0
CIRCLE
  5
17E
330
17
100
AcDbEntity
  8
0
100
AcDbCircle
 10
37.7052339474519
 20
-51.4859917610655
 30
0.0
 40
0.025
  0
CIRCLE
  5
17F
330
17
100
AcDbEntity
  8
0
100
AcDbCircle
 10
37.59124495031489
 20
-51.4859917610655
 30
0.0
 40
0.025
  0
CIRCLE
  5
180
330
17
100
AcDbEntity
  8
0
100
AcDbCircle
 10
37.47725595317788
 20
-51.4859917610655
 30
0.0
 40
0.025
  0
CIRCLE
  5
181
330
17
100
AcDbEntity
  8
0
100
AcDbCircle
 10
38.10419543743142
 20
-51.542986259634
 30
0.0
 40
0.025
  0
CIRCLE
  5
182
330
17
100
AcDbEntity
  8
0
100
AcDbCircle
 10
37.7622284460204
 20
-51.542986259634
 30
0.0
 40
0.025
  0
CIRCLE
  5
183
330
17
100
AcDbEntity
  8
0
100
AcDbCircle
 10
37.87621744315741
 20
-51.542986259634
 30
0.0
 40
0.025
  0
CIRCLE
  5
184
330
17
100
AcDbEntity
  8
0
100
AcDbCircle
 10
37.99020644029442
 20
-51.542986259634
 30
0.0
 40
0.025
  0
CIRCLE
  5
185
330
17
100
AcDbEntity
  8
0
100
AcDbCircle
 10
37.6482394488834
 20
-51.542986259634
 30
0.0
 40
0.025
  0
CIRCLE
  5
186
330
17
100
AcDbEntity
  8
0
100
AcDbCircle
 10
37.53425045174639
 20
-51.542986259634
 30
0.0
 40
0.025
  0
CIRCLE
  5
187
330
17
100
AcDbEntity
  8
0
100
AcDbCircle
 10
38.04720093886292
 20
-51.5999807582025
 30
0.0
 40
0.025
  0
CIRCLE
  5
188
330
17
100
AcDbEntity
  8
0
100
AcDbCircle
 10
37.93321194172591
 20
-51.5999807582025
 30
0.0
 40
0.025
  0
CIRCLE
  5
189
330
17
100
AcDbEntity
  8
0
100
AcDbCircle
 10
37.8192229445889
 20
-51.5999807582025
 30
0.0
 40
0.025
  0
CIRCLE
  5
18A
330
17
100
AcDbEntity
  8
0
100
AcDbCircle
 10
37.7052339474519
 20
-51.5999807582025
 30
0.0
 40
0.025
  0
CIRCLE
  5
18B
330
17
100
AcDbEntity
  8
0
100
AcDbCircle
 10
37.59124495031489
 20
-51.5999807582025
 30
0.0
 40
0.025
  0
CIRCLE
  5
18C
330
17
100
AcDbEntity
  8
0
100
AcDbCircle
 10
38.10419543743142
 20
-51.65697525677099
 30
0.0
 40
0.025
  0
CIRCLE
  5
18D
330
17
100
AcDbEntity
  8
0
100
AcDbCircle
 10
37.7622284460204
 20
-51.65697525677099
 30
0.0
 40
0.025
  0
CIRCLE
  5
18E
330
17
100
AcDbEntity
  8
0
100
AcDbCircle
 10
37.87621744315741
 20
-51.65697525677099
 30
0.0
 40
0.025
  0
CIRCLE
  5
18F
330
17
100
AcDbEntity
  8
0
100
AcDbCircle
 10
37.99020644029442
 20
-51.65697525677099
 30
0.0
 40
0.025
  0
CIRCLE
  5
190
330
17
100
AcDbEntity
  8
0
100
AcDbCircle
 10
37.6482394488834
 20
-51.65697525677099
 30
0.0
 40
0.025
  0
CIRCLE
  5
191
330
17
100
AcDbEntity
  8
0
100
AcDbCircle
 10
38.04720093886292
 20
-51.7139697553395
 30
0.0
 40
0.025
  0
CIRCLE
  5
192
330
17
100
AcDbEntity
  8
0
100
AcDbCircle
 10
37.93321194172591
 20
-51.7139697553395
 30
0.0
 40
0.025
  0
CIRCLE
  5
193
330
17
100
AcDbEntity
  8
0
100
AcDbCircle
 10
37.8192229445889
 20
-51.7139697553395
 30
0.0
 40
0.025
  0
CIRCLE
  5
194
330
17
100
AcDbEntity
  8
0
100
AcDbCircle
 10
37.7052339474519
 20
-51.7139697553395
 30
0.0
 40
0.025
  0
CIRCLE
  5
195
330
17
100
AcDbEntity
  8
0
100
AcDbCircle
 10
38.10419543743142
 20
-51.770964253908
 30
0.0
 40
0.025
  0
CIRCLE
  5
196
330
17
100
AcDbEntity
  8
0
100
AcDbCircle
 10
37.7622284460204
 20
-51.770964253908
 30
0.0
 40
0.025
  0
CIRCLE
  5
197
330
17
100
AcDbEntity
  8
0
100
AcDbCircle
 10
37.87621744315741
 20
-51.770964253908
 30
0.0
 40
0.025
  0
CIRCLE
  5
198
330
17
100
AcDbEntity
  8
0
100
AcDbCircle
 10
37.99020644029442
 20
-51.770964253908
 30
0.0
 40
0.025
  0
CIRCLE
  5
199
330
17
100
AcDbEntity
  8
0
100
AcDbCircle
 10
38.04720093886292
 20
-51.82795875247649
 30
0.0
 40
0.025
  0
CIRCLE
  5
19A
330
17
100
AcDbEntity
  8
0
100
AcDbCircle
 10
37.93321194172591
 20
-51.82795875247649
 30
0.0
 40
0.025
  0
CIRCLE
  5
19B
330
17
100
AcDbEntity
  8
0
100
AcDbCircle
 10
37.8192229445889
 20
-51.82795875247649
 30
0.0
 40
0.025
  0
CIRCLE
  5
19C
330
17
100
AcDbEntity
  8
0
100
AcDbCircle
 10
38.10419543743142
 20
-51.884953251045
 30
0.0
 40
0.025
  0
CIRCLE
  5
19D
330
17
100
AcDbEntity
  8
0
100
AcDbCircle
 10
37.87621744315741
 20
-51.884953251045
 30
0.0
 40
0.025
  0
CIRCLE
  5
19E
330
17
100
AcDbEntity
  8
0
100
AcDbCircle
 10
37.99020644029442
 20
-51.884953251045
 30
0.0
 40
0.025
  0
CIRCLE
  5
19F
330
17
100
AcDbEntity
  8
0
100
AcDbCircle
 10
38.04720093886292
 20
-51.94194774961349
 30
0.0
 40
0.025
  0
CIRCLE
  5
1A0
330
17
100
AcDbEntity
  8
0
100
AcDbCircle
 10
37.93321194172591
 20
-51.94194774961349
 30
0.0
 40
0.025
  0
CIRCLE
  5
1A1
330
17
100
AcDbEntity
  8
0
100
AcDbCircle
 10
38.10419543743142
 20
-51.998942248182
 30
0.0
 40
0.025
  0
CIRCLE
  5
1A2
330
17
100
AcDbEntity
  8
0
100
AcDbCircle
 10
37.99020644029442
 20
-51.998942248182
 30
0.0
 40
0.025
  0
CIRCLE
  5
1A3
330
17
100
AcDbEntity
  8
0
100
AcDbCircle
 10
38.04720093886292
 20
-52.0559367467505
 30
0.0
 40
0.025
  0
CIRCLE
  5
1A4
330
17
100
AcDbEntity
  8
0
100
AcDbCircle
 10
38.10419543743142
 20
-52.11293124531899
 30
0.0
 40
0.025
  0
CIRCLE
  5
1A5
330
17
100
AcDbEntity
  8
0
100
AcDbCircle
 10
40.31962230716097
 20
-52.48500939071052
 30
0.0
 40
0.025
  0
CIRCLE
  5
1A6
330
17
100
AcDbEntity
  8
0
100
AcDbCircle
 10
39.97765531574996
 20
-52.48500939071052
 30
0.0
 40
0.025
  0
CIRCLE
  5
1A7
330
17
100
AcDbEntity
  8
0
100
AcDbCircle
 10
39.63568832433895
 20
-52.48500939071052
 30
0.0
 40
0.025
  0
CIRCLE
  5
1A8
330
17
100
AcDbEntity
  8
0
100
AcDbCircle
 10
40.09164431288696
 20
-52.48500939071052
 30
0.0
 40
0.025
  0
CIRCLE
  5
1A9
330
17
100
AcDbEntity
  8
0
100
AcDbCircle
 10
40.20563331002397
 20
-52.48500939071052
 30
0.0
 40
0.025
  0
CIRCLE
  5
1AA
330
17
100
AcDbEntity
  8
0
100
AcDbCircle
 10
39.86366631861295
 20
-52.48500939071052
 30
0.0
 40
0.025
  0
CIRCLE
  5
1AB
330
17
100
AcDbEntity
  8
0
100
AcDbCircle
 10
39.74967732147595
 20
-52.48500939071052
 30
0.0
 40
0.025
  0
CIRCLE
  5
1AC
330
17
100
AcDbEntity
  8
0
100
AcDbCircle
 10
40.26262780859247
 20
-52.42801489214202
 30
0.0
 40
0.025
  0
CIRCLE
  5
1AD
330
17
100
AcDbEntity
  8
0
100
AcDbCircle
 10
40.14863881145546
 20
-52.42801489214202
 30
0.0
 40
0.025
  0
CIRCLE
  5
1AE
330
17
100
AcDbEntity
  8
0
100
AcDbCircle
 10
40.03464981431846
 20
-52.42801489214202
 30
0.0
 40
0.025
  0
CIRCLE
  5
1AF
330
17
100
AcDbEntity
  8
0
100
AcDbCircle
 10
39.92066081718145
 20
-52.42801489214202
 30
0.0
 40
0.025
  0
CIRCLE
  5
1B0
330
17
100
AcDbEntity
  8
0
100
AcDbCircle
 10
39.80667182004444
 20
-52.42801489214202
 30
0.0
 40
0.025
  0
CIRCLE
  5
1B1
330
17
100
AcDbEntity
  8
0
100
AcDbCircle
 10
39.69268282290744
 20
-52.42801489214202
 30
0.0
 40
0.025
  0
CIRCLE
  5
1B2
330
17
100
AcDbEntity
  8
0
100
AcDbCircle
 10
39.57869382577044
 20
-52.42801489214202
 30
0.0
 40
0.025
  0
CIRCLE
  5
1B3
330
17
100
AcDbEntity
  8
0
100
AcDbCircle
 10
40.26262780859247
 20
-52.54200388927902
 30
0.0
 40
0.025
  0
CIRCLE
  5
1B4
330
17
100
AcDbEntity
  8
0
100
AcDbCircle
 10
40.14863881145546
 20
-52.54200388927902
 30
0.0
 40
0.025
  0
CIRCLE
  5
1B5
330
17
100
AcDbEntity
  8
0
100
AcDbCircle
 10
40.03464981431846
 20
-52.54200388927902
 30
0.0
 40
0.025
  0
CIRCLE
  5
1B6
330
17
100
AcDbEntity
  8
0
100
AcDbCircle
 10
39.92066081718145
 20
-52.54200388927902
 30
0.0
 40
0.025
  0
CIRCLE
  5
1B7
330
17
100
AcDbEntity
  8
0
100
AcDbCircle
 10
39.80667182004444
 20
-52.54200388927902
 30
0.0
 40
0.025
  0
CIRCLE
  5
1B8
330
17
100
AcDbEntity
  8
0
100
AcDbCircle
 10
39.69268282290744
 20
-52.54200388927902
 30
0.0
 40
0.025
  0
CIRCLE
  5
1B9
330
17
100
AcDbEntity
  8
0
100
AcDbCircle
 10
40.31962230716097
 20
-52.59899838784752
 30
0.0
 40
0.025
  0
CIRCLE
  5
1BA
330
17
100
AcDbEntity
  8
0
100
AcDbCircle
 10
39.97765531574996
 20
-52.59899838784752
 30
0.0
 40
0.025
  0
CIRCLE
  5
1BB
330
17
100
AcDbEntity
  8
0
100
AcDbCircle
 10
40.09164431288696
 20
-52.59899838784752
 30
0.0
 40
0.025
  0
CIRCLE
  5
1BC
330
17
100
AcDbEntity
  8
0
100
AcDbCircle
 10
40.20563331002397
 20
-52.59899838784752
 30
0.0
 40
0.025
  0
CIRCLE
  5
1BD
330
17
100
AcDbEntity
  8
0
100
AcDbCircle
 10
39.86366631861295
 20
-52.59899838784752
 30
0.0
 40
0.025
  0
CIRCLE
  5
1BE
330
17
100
AcDbEntity
  8
0
100
AcDbCircle
 10
39.74967732147595
 20
-52.59899838784752
 30
0.0
 40
0.025
  0
CIRCLE
  5
1BF
330
17
100
AcDbEntity
  8
0
100
AcDbCircle
 10
40.26262780859247
 20
-52.65599288641602
 30
0.0
 40
0.025
  0
CIRCLE
  5
1C0
330
17
100
AcDbEntity
  8
0
100
AcDbCircle
 10
40.14863881145546
 20
-52.65599288641602
 30
0.0
 40
0.025
  0
CIRCLE
  5
1C1
330
17
100
AcDbEntity
  8
0
100
AcDbCircle
 10
40.03464981431846
 20
-52.65599288641602
 30
0.0
 40
0.025
  0
CIRCLE
  5
1C2
330
17
100
AcDbEntity
  8
0
100
AcDbCircle
 10
39.92066081718145
 20
-52.65599288641602
 30
0.0
 40
0.025
  0
CIRCLE
  5
1C3
330
17
100
AcDbEntity
  8
0
100
AcDbCircle
 10
39.80667182004444
 20
-52.65599288641602
 30
0.0
 40
0.025
  0
CIRCLE
  5
1C4
330
17
100
AcDbEntity
  8
0
100
AcDbCircle
 10
40.31962230716097
 20
-52.71298738498452
 30
0.0
 40
0.025
  0
CIRCLE
  5
1C5
330
17
100
AcDbEntity
  8
0
100
AcDbCircle
 10
39.97765531574996
 20
-52.71298738498452
 30
0.0
 40
0.025
  0
CIRCLE
  5
1C6
330
17
100
AcDbEntity
  8
0
100
AcDbCircle
 10
40.09164431288696
 20
-52.71298738498452
 30
0.0
 40
0.025
  0
CIRCLE
  5
1C7
330
17
100
AcDbEntity
  8
0
100
AcDbCircle
 10
40.20563331002397
 20
-52.71298738498452
 30
0.0
 40
0.025
  0
CIRCLE
  5
1C8
330
17
100
AcDbEntity
  8
0
100
AcDbCircle
 10
39.86366631861295
 20
-52.71298738498452
 30
0.0
 40
0.025
  0
CIRCLE
  5
1C9
330
17
100
AcDbEntity
  8
0
100
AcDbCircle
 10
40.26262780859247
 20
-52.76998188355302
 30
0.0
 40
0.025
  0
CIRCLE
  5
1CA
330
17
100
AcDbEntity
  8
0
100
AcDbCircle
 10
40.14863881145546
 20
-52.76998188355302
 30
0.0
 40
0.025
  0
CIRCLE
  5
1CB
330
17
100
AcDbEntity
  8
0
100
AcDbCircle
 10
40.03464981431846
 20
-52.76998188355302
 30
0.0
 40
0.025
  0
CIRCLE
  5
1CC
330
17
100
AcDbEntity
  8
0
100
AcDbCircle
 10
39.92066081718145
 20
-52.76998188355302
 30
0.0
 40
0.025
  0
CIRCLE
  5
1CD
330
17
100
AcDbEntity
  8
0
100
AcDbCircle
 10
40.31962230716097
 20
-52.82697638212152
 30
0.0
 40
0.025
  0
CIRCLE
  5
1CE
330
17
100
AcDbEntity
  8
0
100
AcDbCircle
 10
39.97765531574996
 20
-52.82697638212152
 30
0.0
 40
0.025
  0
CIRCLE
  5
1CF
330
17
100
AcDbEntity
  8
0
100
AcDbCircle
 10
40.09164431288696
 20
-52.82697638212152
 30
0.0
 40
0.025
  0
CIRCLE
  5
1D0
330
17
100
AcDbEntity
  8
0
100
AcDbCircle
 10
40.20563331002397
 20
-52.82697638212152
 30
0.0
 40
0.025
  0
CIRCLE
  5
1D1
330
17
100
AcDbEntity
  8
0
100
AcDbCircle
 10
40.26262780859247
 20
-52.88397088069002
 30
0.0
 40
0.025
  0
CIRCLE
  5
1D2
330
17
100
AcDbEntity
  8
0
100
AcDbCircle
 10
40.14863881145546
 20
-52.88397088069002
 30
0.0
 40
0.025
  0
CIRCLE
  5
1D3
330
17
100
AcDbEntity
  8
0
100
AcDbCircle
 10
40.03464981431846
 20
-52.88397088069002
 30
0.0
 40
0.025
  0
CIRCLE
  5
1D4
330
17
100
AcDbEntity
  8
0
100
AcDbCircle
 10
40.31962230716097
 20
-52.94096537925852
 30
0.0
 40
0.025
  0
CIRCLE
  5
1D5
330
17
100
AcDbEntity
  8
0
100
AcDbCircle
 10
40.09164431288696
 20
-52.94096537925852
 30
0.0
 40
0.025
  0
CIRCLE
  5
1D6
330
17
100
AcDbEntity
  8
0
100
AcDbCircle
 10
40.20563331002397
 20
-52.94096537925852
 30
0.0
 40
0.025
  0
CIRCLE
  5
1D7
330
17
100
AcDbEntity
  8
0
100
AcDbCircle
 10
40.26262780859247
 20
-52.99795987782702
 30
0.0
 40
0.025
  0
CIRCLE
  5
1D8
330
17
100
AcDbEntity
  8
0
100
AcDbCircle
 10
40.14863881145546
 20
-52.99795987782702
 30
0.0
 40
0.025
  0
CIRCLE
  5
1D9
330
17
100
AcDbEntity
  8
0
100
AcDbCircle
 10
40.31962230716097
 20
-53.05495437639552
 30
0.0
 40
0.025
  0
CIRCLE
  5
1DA
330
17
100
AcDbEntity
  8
0
100
AcDbCircle
 10
40.20563331002397
 20
-53.05495437639552
 30
0.0
 40
0.025
  0
CIRCLE
  5
1DB
330
17
100
AcDbEntity
  8
0
100
AcDbCircle
 10
40.26262780859247
 20
-53.11194887496402
 30
0.0
 40
0.025
  0
CIRCLE
  5
1DC
330
17
100
AcDbEntity
  8
0
100
AcDbCircle
 10
40.31962230716097
 20
-53.16894337353252
 30
0.0
 40
0.025
  0
CIRCLE
  5
1DD
330
17
100
AcDbEntity
  8
0
100
AcDbCircle
 10
39.52661680572947
 20
-53.27801489214203
 30
0.0
 40
0.025
  0
CIRCLE
  5
1DE
330
17
100
AcDbEntity
  8
0
100
AcDbCircle
 10
39.52661680572947
 20
-52.93604790073101
 30
0.0
 40
0.025
  0
CIRCLE
  5
1DF
330
17
100
AcDbEntity
  8
0
100
AcDbCircle
 10
39.52661680572947
 20
-52.59408090932
 30
0.0
 40
0.025
  0
CIRCLE
  5
1E0
330
17
100
AcDbEntity
  8
0
100
AcDbCircle
 10
39.52661680572947
 20
-53.05003689786802
 30
0.0
 40
0.025
  0
CIRCLE
  5
1E1
330
17
100
AcDbEntity
  8
0
100
AcDbCircle
 10
39.52661680572947
 20
-53.16402589500502
 30
0.0
 40
0.025
  0
CIRCLE
  5
1E2
330
17
100
AcDbEntity
  8
0
100
AcDbCircle
 10
39.52661680572947
 20
-52.822058903594
 30
0.0
 40
0.025
  0
CIRCLE
  5
1E3
330
17
100
AcDbEntity
  8
0
100
AcDbCircle
 10
39.52661680572947
 20
-52.708069906457
 30
0.0
 40
0.025
  0
CIRCLE
  5
1E4
330
17
100
AcDbEntity
  8
0
100
AcDbCircle
 10
39.46962230716097
 20
-53.22102039357353
 30
0.0
 40
0.025
  0
CIRCLE
  5
1E5
330
17
100
AcDbEntity
  8
0
100
AcDbCircle
 10
39.46962230716097
 20
-53.10703139643652
 30
0.0
 40
0.025
  0
CIRCLE
  5
1E6
330
17
100
AcDbEntity
  8
0
100
AcDbCircle
 10
39.46962230716097
 20
-52.99304239929951
 30
0.0
 40
0.025
  0
CIRCLE
  5
1E7
330
17
100
AcDbEntity
  8
0
100
AcDbCircle
 10
39.46962230716097
 20
-52.87905340216251
 30
0.0
 40
0.025
  0
CIRCLE
  5
1E8
330
17
100
AcDbEntity
  8
0
100
AcDbCircle
 10
39.46962230716097
 20
-52.7650644050255
 30
0.0
 40
0.025
  0
CIRCLE
  5
1E9
330
17
100
AcDbEntity
  8
0
100
AcDbCircle
 10
39.46962230716097
 20
-52.65107540788849
 30
0.0
 40
0.025
  0
CIRCLE
  5
1EA
330
17
100
AcDbEntity
  8
0
100
AcDbCircle
 10
39.46962230716097
 20
-52.53708641075149
 30
0.0
 40
0.025
  0
CIRCLE
  5
1EB
330
17
100
AcDbEntity
  8
0
100
AcDbCircle
 10
39.58361130429797
 20
-53.22102039357353
 30
0.0
 40
0.025
  0
CIRCLE
  5
1EC
330
17
100
AcDbEntity
  8
0
100
AcDbCircle
 10
39.58361130429797
 20
-53.10703139643652
 30
0.0
 40
0.025
  0
CIRCLE
  5
1ED
330
17
100
AcDbEntity
  8
0
100
AcDbCircle
 10
39.58361130429797
 20
-52.99304239929951
 30
0.0
 40
0.025
  0
CIRCLE
  5
1EE
330
17
100
AcDbEntity
  8
0
100
AcDbCircle
 10
39.58361130429797
 20
-52.87905340216251
 30
0.0
 40
0.025
  0
CIRCLE
  5
1EF
330
17
100
AcDbEntity
  8
0
100
AcDbCircle
 10
39.58361130429797
 20
-52.7650644050255
 30
0.0
 40
0.025
  0
CIRCLE
  5
1F0
330
17
100
AcDbEntity
  8
0
100
AcDbCircle
 10
39.58361130429797
 20
-52.65107540788849
 30
0.0
 40
0.025
  0
CIRCLE
  5
1F1
330
17
100
AcDbEntity
  8
0
100
AcDbCircle
 10
39.64060580286647
 20
-53.27801489214203
 30
0.0
 40
0.025
  0
CIRCLE
  5
1F2
330
17
100
AcDbEntity
  8
0
100
AcDbCircle
 10
39.64060580286647
 20
-52.93604790073101
 30
0.0
 40
0.025
  0
CIRCLE
  5
1F3
330
17
100
AcDbEntity
  8
0
100
AcDbCircle
 10
39.64060580286647
 20
-53.05003689786802
 30
0.0
 40
0.025
  0
CIRCLE
  5
1F4
330
17
100
AcDbEntity
  8
0
100
AcDbCircle
 10
39.64060580286647
 20
-53.16402589500502
 30
0.0
 40
0.025
  0
CIRCLE
  5
1F5
330
17
100
AcDbEntity
  8
0
100
AcDbCircle
 10
39.64060580286647
 20
-52.822058903594
 30
0.0
 40
0.025
  0
CIRCLE
  5
1F6
330
17
100
AcDbEntity
  8
0
100
AcDbCircle
 10
39.64060580286647
 20
-52.708069906457
 30
0.0
 40
0.025
  0
CIRCLE
  5
1F7
330
17
100
AcDbEntity
  8
0
100
AcDbCircle
 10
39.69760030143497
 20
-53.22102039357353
 30
0.0
 40
0.025
  0
CIRCLE
  5
1F8
330
17
100
AcDbEntity
  8
0
100
AcDbCircle
 10
39.69760030143497
 20
-53.10703139643652
 30
0.0
 40
0.025
  0
CIRCLE
  5
1F9
330
17
100
AcDbEntity
  8
0
100
AcDbCircle
 10
39.69760030143497
 20
-52.99304239929951
 30
0.0
 40
0.025
  0
CIRCLE
  5
1FA
330
17
100
AcDbEntity
  8
0
100
AcDbCircle
 10
39.69760030143497
 20
-52.87905340216251
 30
0.0
 40
0.025
  0
CIRCLE
  5
1FB
330
17
100
AcDbEntity
  8
0
100
AcDbCircle
 10
39.69760030143497
 20
-52.7650644050255
 30
0.0
 40
0.025
  0
CIRCLE
  5
1FC
330
17
100
AcDbEntity
  8
0
100
AcDbCircle
 10
39.75459480000347
 20
-53.27801489214203
 30
0.0
 40
0.025
  0
CIRCLE
  5
1FD
330
17
100
AcDbEntity
  8
0
100
AcDbCircle
 10
39.75459480000347
 20
-52.93604790073101
 30
0.0
 40
0.025
  0
CIRCLE
  5
1FE
330
17
100
AcDbEntity
  8
0
100
AcDbCircle
 10
39.75459480000347
 20
-53.05003689786802
 30
0.0
 40
0.025
  0
CIRCLE
  5
1FF
330
17
100
AcDbEntity
  8
0
100
AcDbCircle
 10
39.75459480000347
 20
-53.16402589500502
 30
0.0
 40
0.025
  0
CIRCLE
  5
200
330
17
100
AcDbEntity
  8
0
100
AcDbCircle
 10
39.75459480000347
 20
-52.822058903594
 30
0.0
 40
0.025
  0
CIRCLE
  5
201
330
17
100
AcDbEntity
  8
0
100
AcDbCircle
 10
39.81158929857197
 20
-53.22102039357353
 30
0.0
 40
0.025
  0
CIRCLE
  5
202
330
17
100
AcDbEntity
  8
0
100
AcDbCircle
 10
39.81158929857197
 20
-53.10703139643652
 30
0.0
 40
0.025
  0
CIRCLE
  5
203
330
17
100
AcDbEntity
  8
0
100
AcDbCircle
 10
39.81158929857197
 20
-52.99304239929951
 30
0.0
 40
0.025
  0
CIRCLE
  5
204
330
17
100
AcDbEntity
  8
0
100
AcDbCircle
 10
39.81158929857197
 20
-52.87905340216251
 30
0.0
 40
0.025
  0
CIRCLE
  5
205
330
17
100
AcDbEntity
  8
0
100
AcDbCircle
 10
39.86858379714047
 20
-53.27801489214203
 30
0.0
 40
0.025
  0
CIRCLE
  5
206
330
17
100
AcDbEntity
  8
0
100
AcDbCircle
 10
39.86858379714047
 20
-52.93604790073101
 30
0.0
 40
0.025
  0
CIRCLE
  5
207
330
17
100
AcDbEntity
  8
0
100
AcDbCircle
 10
39.86858379714047
 20
-53.05003689786802
 30
0.0
 40
0.025
  0
CIRCLE
  5
208
330
17
100
AcDbEntity
  8
0
100
AcDbCircle
 10
39.86858379714047
 20
-53.16402589500502
 30
0.0
 40
0.025
  0
CIRCLE
  5
209
330
17
100
AcDbEntity
  8
0
100
AcDbCircle
 10
39.92557829570897
 20
-53.22102039357353
 30
0.0
 40
0.025
  0
CIRCLE
  5
20A
330
17
100
AcDbEntity
  8
0
100
AcDbCircle
 10
39.92557829570897
 20
-53.10703139643652
 30
0.0
 40
0.025
  0
CIRCLE
  5
20B
330
17
100
AcDbEntity
  8
0
100
AcDbCircle
 10
39.92557829570897
 20
-52.99304239929951
 30
0.0
 40
0.025
  0
CIRCLE
  5
20C
330
17
100
AcDbEntity
  8
0
100
AcDbCircle
 10
39.98257279427747
 20
-53.27801489214203
 30
0.0
 40
0.025
  0
CIRCLE
  5
20D
330
17
100
AcDbEntity
  8
0
100
AcDbCircle
 10
39.98257279427747
 20
-53.05003689786802
 30
0.0
 40
0.025
  0
CIRCLE
  5
20E
330
17
100
AcDbEntity
  8
0
100
AcDbCircle
 10
39.98257279427747
 20
-53.16402589500502
 30
0.0
 40
0.025
  0
CIRCLE
  5
20F
330
17
100
AcDbEntity
  8
0
100
AcDbCircle
 10
40.03956729284596
 20
-53.22102039357353
 30
0.0
 40
0.025
  0
CIRCLE
  5
210
330
17
100
AcDbEntity
  8
0
100
AcDbCircle
 10
40.03956729284596
 20
-53.10703139643652
 30
0.0
 40
0.025
  0
CIRCLE
  5
211
330
17
100
AcDbEntity
  8
0
100
AcDbCircle
 10
40.09656179141447
 20
-53.27801489214203
 30
0.0
 40
0.025
  0
CIRCLE
  5
212
330
17
100
AcDbEntity
  8
0
100
AcDbCircle
 10
40.09656179141447
 20
-53.16402589500502
 30
0.0
 40
0.025
  0
CIRCLE
  5
213
330
17
100
AcDbEntity
  8
0
100
AcDbCircle
 10
40.15355628998296
 20
-53.22102039357353
 30
0.0
 40
0.025
  0
CIRCLE
  5
214
330
17
100
AcDbEntity
  8
0
100
AcDbCircle
 10
40.21055078855146
 20
-53.27801489214203
 30
0.0
 40
0.025
  0
LWPOLYLINE
  5
215
330
17
100
AcDbEntity
  8
0
100
AcDbPolyline
 90
3
 70
1
 10
40.27391162904232
 20
-51.40301489214202
 10
39.44462230716097
 20
-52.23230421402337
 10
39.44462230716097
 20
-51.40301489214202
  0
LWPOLYLINE
  5
216
330
17
100
AcDbEntity
  8
0
100
AcDbPolyline
 90
3
 70
1
 10
40.44462230716097
 20
-51.47372557026068
 10
41.27391162904231
 20
-52.30301489214203
 10
40.44462230716097
 20
-52.30301489214203
  0
CIRCLE
  5
217
330
17
100
AcDbEntity
  8
0
100
AcDbCircle
 10
40.46962230716096
 20
-52.48500939071052
 30
0.0
 40
0.025
  0
CIRCLE
  5
218
330
17
100
AcDbEntity
  8
0
100
AcDbCircle
 10
40.81158929857198
 20
-52.48500939071052
 30
0.0
 40
0.025
  0
CIRCLE
  5
219
330
17
100
AcDbEntity
  8
0
100
AcDbCircle
 10
41.153556289983
 20
-52.48500939071052
 30
0.0
 40
0.025
  0
CIRCLE
  5
21A
330
17
100
AcDbEntity
  8
0
100
AcDbCircle
 10
40.69760030143497
 20
-52.48500939071052
 30
0.0
 40
0.025
  0
CIRCLE
  5
21B
330
17
100
AcDbEntity
  8
0
100
AcDbCircle
 10
40.58361130429797
 20
-52.48500939071052
 30
0.0
 40
0.025
  0
CIRCLE
  5
21C
330
17
100
AcDbEntity
  8
0
100
AcDbCircle
 10
40.92557829570899
 20
-52.48500939071052
 30
0.0
 40
0.025
  0
CIRCLE
  5
21D
330
17
100
AcDbEntity
  8
0
100
AcDbCircle
 10
41.03956729284599
 20
-52.48500939071052
 30
0.0
 40
0.025
  0
CIRCLE
  5
21E
330
17
100
AcDbEntity
  8
0
100
AcDbCircle
 10
40.52661680572947
 20
-52.42801489214202
 30
0.0
 40
0.025
  0
CIRCLE
  5
21F
330
17
100
AcDbEntity
  8
0
100
AcDbCircle
 10
40.64060580286648
 20
-52.42801489214202
 30
0.0
 40
0.025
  0
CIRCLE
  5
220
330
17
100
AcDbEntity
  8
0
100
AcDbCircle
 10
40.75459480000349
 20
-52.42801489214202
 30
0.0
 40
0.025
  0
CIRCLE
  5
221
330
17
100
AcDbEntity
  8
0
100
AcDbCircle
 10
40.86858379714049
 20
-52.42801489214202
 30
0.0
 40
0.025
  0
CIRCLE
  5
222
330
17
100
AcDbEntity
  8
0
100
AcDbCircle
 10
40.9825727942775
 20
-52.42801489214202
 30
0.0
 40
0.025
  0
CIRCLE
  5
223
330
17
100
AcDbEntity
  8
0
100
AcDbCircle
 10
41.09656179141451
 20
-52.42801489214202
 30
0.0
 40
0.025
  0
CIRCLE
  5
224
330
17
100
AcDbEntity
  8
0
100
AcDbCircle
 10
41.2105507885515
 20
-52.42801489214202
 30
0.0
 40
0.025
  0
CIRCLE
  5
225
330
17
100
AcDbEntity
  8
0
100
AcDbCircle
 10
40.52661680572947
 20
-52.54200388927902
 30
0.0
 40
0.025
  0
CIRCLE
  5
226
330
17
100
AcDbEntity
  8
0
100
AcDbCircle
 10
40.64060580286648
 20
-52.54200388927902
 30
0.0
 40
0.025
  0
CIRCLE
  5
227
330
17
100
AcDbEntity
  8
0
100
AcDbCircle
 10
40.75459480000349
 20
-52.54200388927902
 30
0.0
 40
0.025
  0
CIRCLE
  5
228
330
17
100
AcDbEntity
  8
0
100
AcDbCircle
 10
40.86858379714049
 20
-52.54200388927902
 30
0.0
 40
0.025
  0
CIRCLE
  5
229
330
17
100
AcDbEntity
  8
0
100
AcDbCircle
 10
40.9825727942775
 20
-52.54200388927902
 30
0.0
 40
0.025
  0
CIRCLE
  5
22A
330
17
100
AcDbEntity
  8
0
100
AcDbCircle
 10
41.09656179141451
 20
-52.54200388927902
 30
0.0
 40
0.025
  0
CIRCLE
  5
22B
330
17
100
AcDbEntity
  8
0
100
AcDbCircle
 10
40.46962230716096
 20
-52.59899838784752
 30
0.0
 40
0.025
  0
CIRCLE
  5
22C
330
17
100
AcDbEntity
  8
0
100
AcDbCircle
 10
40.81158929857198
 20
-52.59899838784752
 30
0.0
 40
0.025
  0
CIRCLE
  5
22D
330
17
100
AcDbEntity
  8
0
100
AcDbCircle
 10
40.69760030143497
 20
-52.59899838784752
 30
0.0
 40
0.025
  0
CIRCLE
  5
22E
330
17
100
AcDbEntity
  8
0
100
AcDbCircle
 10
40.58361130429797
 20
-52.59899838784752
 30
0.0
 40
0.025
  0
CIRCLE
  5
22F
330
17
100
AcDbEntity
  8
0
100
AcDbCircle
 10
40.92557829570899
 20
-52.59899838784752
 30
0.0
 40
0.025
  0
CIRCLE
  5
230
330
17
100
AcDbEntity
  8
0
100
AcDbCircle
 10
41.03956729284599
 20
-52.59899838784752
 30
0.0
 40
0.025
  0
CIRCLE
  5
231
330
17
100
AcDbEntity
  8
0
100
AcDbCircle
 10
40.52661680572947
 20
-52.65599288641602
 30
0.0
 40
0.025
  0
CIRCLE
  5
232
330
17
100
AcDbEntity
  8
0
100
AcDbCircle
 10
40.64060580286648
 20
-52.65599288641602
 30
0.0
 40
0.025
  0
CIRCLE
  5
233
330
17
100
AcDbEntity
  8
0
100
AcDbCircle
 10
40.75459480000349
 20
-52.65599288641602
 30
0.0
 40
0.025
  0
CIRCLE
  5
234
330
17
100
AcDbEntity
  8
0
100
AcDbCircle
 10
40.86858379714049
 20
-52.65599288641602
 30
0.0
 40
0.025
  0
CIRCLE
  5
235
330
17
100
AcDbEntity
  8
0
100
AcDbCircle
 10
40.9825727942775
 20
-52.65599288641602
 30
0.0
 40
0.025
  0
CIRCLE
  5
236
330
17
100
AcDbEntity
  8
0
100
AcDbCircle
 10
40.46962230716096
 20
-52.71298738498452
 30
0.0
 40
0.025
  0
CIRCLE
  5
237
330
17
100
AcDbEntity
  8
0
100
AcDbCircle
 10
40.81158929857198
 20
-52.71298738498452
 30
0.0
 40
0.025
  0
CIRCLE
  5
238
330
17
100
AcDbEntity
  8
0
100
AcDbCircle
 10
40.69760030143497
 20
-52.71298738498452
 30
0.0
 40
0.025
  0
CIRCLE
  5
239
330
17
100
AcDbEntity
  8
0
100
AcDbCircle
 10
40.58361130429797
 20
-52.71298738498452
 30
0.0
 40
0.025
  0
CIRCLE
  5
23A
330
17
100
AcDbEntity
  8
0
100
AcDbCircle
 10
40.92557829570899
 20
-52.71298738498452
 30
0.0
 40
0.025
  0
CIRCLE
  5
23B
330
17
100
AcDbEntity
  8
0
100
AcDbCircle
 10
40.52661680572947
 20
-52.76998188355302
 30
0.0
 40
0.025
  0
CIRCLE
  5
23C
330
17
100
AcDbEntity
  8
0
100
AcDbCircle
 10
40.64060580286648
 20
-52.76998188355302
 30
0.0
 40
0.025
  0
CIRCLE
  5
23D
330
17
100
AcDbEntity
  8
0
100
AcDbCircle
 10
40.75459480000349
 20
-52.76998188355302
 30
0.0
 40
0.025
  0
CIRCLE
  5
23E
330
17
100
AcDbEntity
  8
0
100
AcDbCircle
 10
40.86858379714049
 20
-52.76998188355302
 30
0.0
 40
0.025
  0
CIRCLE
  5
23F
330
17
100
AcDbEntity
  8
0
100
AcDbCircle
 10
40.46962230716096
 20
-52.82697638212152
 30
0.0
 40
0.025
  0
CIRCLE
  5
240
330
17
100
AcDbEntity
  8
0
100
AcDbCircle
 10
40.81158929857198
 20
-52.82697638212152
 30
0.0
 40
0.025
  0
CIRCLE
  5
241
330
17
100
AcDbEntity
  8
0
100
AcDbCircle
 10
40.69760030143497
 20
-52.82697638212152
 30
0.0
 40
0.025
  0
CIRCLE
  5
242
330
17
100
AcDbEntity
  8
0
100
AcDbCircle
 10
40.58361130429797
 20
-52.82697638212152
 30
0.0
 40
0.025
  0
CIRCLE
  5
243
330
17
100
AcDbEntity
  8
0
100
AcDbCircle
 10
40.52661680572947
 20
-52.88397088069002
 30
0.0
 40
0.025
  0
CIRCLE
  5
244
330
17
100
AcDbEntity
  8
0
100
AcDbCircle
 10
40.64060580286648
 20
-52.88397088069002
 30
0.0
 40
0.025
  0
CIRCLE
  5
245
330
17
100
AcDbEntity
  8
0
100
AcDbCircle
 10
40.75459480000349
 20
-52.88397088069002
 30
0.0
 40
0.025
  0
CIRCLE
  5
246
330
17
100
AcDbEntity
  8
0
100
AcDbCircle
 10
40.46962230716096
 20
-52.94096537925852
 30
0.0
 40
0.025
  0
CIRCLE
  5
247
330
17
100
AcDbEntity
  8
0
100
AcDbCircle
 10
40.69760030143497
 20
-52.94096537925852
 30
0.0
 40
0.025
  0
CIRCLE
  5
248
330
17
100
AcDbEntity
  8
0
100
AcDbCircle
 10
40.58361130429797
 20
-52.94096537925852
 30
0.0
 40
0.025
  0
CIRCLE
  5
249
330
17
100
AcDbEntity
  8
0
100
AcDbCircle
 10
40.52661680572947
 20
-52.99795987782702
 30
0.0
 40
0.025
  0
CIRCLE
  5
24A
330
17
100
AcDbEntity
  8
0
100
AcDbCircle
 10
40.64060580286648
 20
-52.99795987782702
 30
0.0
 40
0.025
  0
CIRCLE
  5
24B
330
17
100
AcDbEntity
  8
0
100
AcDbCircle
 10
40.46962230716096
 20
-53.05495437639552
 30
0.0
 40
0.025
  0
CIRCLE
  5
24C
330
17
100
AcDbEntity
  8
0
100
AcDbCircle
 10
40.58361130429797
 20
-53.05495437639552
 30
0.0
 40
0.025
  0
CIRCLE
  5
24D
330
17
100
AcDbEntity
  8
0
100
AcDbCircle
 10
40.52661680572947
 20
-53.11194887496402
 30
0.0
 40
0.025
  0
CIRCLE
  5
24E
330
17
100
AcDbEntity
  8
0
100
AcDbCircle
 10
40.46962230716096
 20
-53.16894337353252
 30
0.0
 40
0.025
  0
CIRCLE
  5
24F
330
17
100
AcDbEntity
  8
0
100
AcDbCircle
 10
41.26262780859248
 20
-53.27801489214203
 30
0.0
 40
0.025
  0
CIRCLE
  5
250
330
17
100
AcDbEntity
  8
0
100
AcDbCircle
 10
41.26262780859248
 20
-52.93604790073101
 30
0.0
 40
0.025
  0
CIRCLE
  5
251
330
17
100
AcDbEntity
  8
0
100
AcDbCircle
 10
41.26262780859248
 20
-52.59408090932
 30
0.0
 40
0.025
  0
CIRCLE
  5
252
330
17
100
AcDbEntity
  8
0
100
AcDbCircle
 10
41.26262780859248
 20
-53.05003689786802
 30
0.0
 40
0.025
  0
CIRCLE
  5
253
330
17
100
AcDbEntity
  8
0
100
AcDbCircle
 10
41.26262780859248
 20
-53.16402589500502
 30
0.0
 40
0.025
  0
CIRCLE
  5
254
330
17
100
AcDbEntity
  8
0
100
AcDbCircle
 10
41.26262780859248
 20
-52.822058903594
 30
0.0
 40
0.025
  0
CIRCLE
  5
255
330
17
100
AcDbEntity
  8
0
100
AcDbCircle
 10
41.26262780859248
 20
-52.708069906457
 30
0.0
 40
0.025
  0
CIRCLE
  5
256
330
17
100
AcDbEntity
  8
0
100
AcDbCircle
 10
41.31962230716097
 20
-53.22102039357353
 30
0.0
 40
0.025
  0
CIRCLE
  5
257
330
17
100
AcDbEntity
  8
0
100
AcDbCircle
 10
41.31962230716097
 20
-53.10703139643652
 30
0.0
 40
0.025
  0
CIRCLE
  5
258
330
17
100
AcDbEntity
  8
0
100
AcDbCircle
 10
41.31962230716097
 20
-52.99304239929951
 30
0.0
 40
0.025
  0
CIRCLE
  5
259
330
17
100
AcDbEntity
  8
0
100
AcDbCircle
 10
41.31962230716097
 20
-52.87905340216251
 30
0.0
 40
0.025
  0
CIRCLE
  5
25A
330
17
100
AcDbEntity
  8
0
100
AcDbCircle
 10
41.31962230716097
 20
-52.7650644050255
 30
0.0
 40
0.025
  0
CIRCLE
  5
25B
330
17
100
AcDbEntity
  8
0
100
AcDbCircle
 10
41.31962230716097
 20
-52.65107540788849
 30
0.0
 40
0.025
  0
CIRCLE
  5
25C
330
17
100
AcDbEntity
  8
0
100
AcDbCircle
 10
41.31962230716097
 20
-52.53708641075149
 30
0.0
 40
0.025
  0
CIRCLE
  5
25D
330
17
100
AcDbEntity
  8
0
100
AcDbCircle
 10
41.20563331002397
 20
-53.22102039357353
 30
0.0
 40
0.025
  0
CIRCLE
  5
25E
330
17
100
AcDbEntity
  8
0
100
AcDbCircle
 10
41.20563331002397
 20
-53.10703139643652
 30
0.0
 40
0.025
  0
CIRCLE
  5
25F
330
17
100
AcDbEntity
  8
0
100
AcDbCircle
 10
41.20563331002397
 20
-52.99304239929951
 30
0.0
 40
0.025
  0
CIRCLE
  5
260
330
17
100
AcDbEntity
  8
0
100
AcDbCircle
 10
41.20563331002397
 20
-52.87905340216251
 30
0.0
 40
0.025
  0
CIRCLE
  5
261
330
17
100
AcDbEntity
  8
0
100
AcDbCircle
 10
41.20563331002397
 20
-52.7650644050255
 30
0.0
 40
0.025
  0
CIRCLE
  5
262
330
17
100
AcDbEntity
  8
0
100
AcDbCircle
 10
41.20563331002397
 20
-52.65107540788849
 30
0.0
 40
0.025
  0
CIRCLE
  5
263
330
17
100
AcDbEntity
  8
0
100
AcDbCircle
 10
41.14863881145548
 20
-53.27801489214203
 30
0.0
 40
0.025
  0
CIRCLE
  5
264
330
17
100
AcDbEntity
  8
0
100
AcDbCircle
 10
41.14863881145548
 20
-52.93604790073101
 30
0.0
 40
0.025
  0
CIRCLE
  5
265
330
17
100
AcDbEntity
  8
0
100
AcDbCircle
 10
41.14863881145548
 20
-53.05003689786802
 30
0.0
 40
0.025
  0
CIRCLE
  5
266
330
17
100
AcDbEntity
  8
0
100
AcDbCircle
 10
41.14863881145548
 20
-53.16402589500502
 30
0.0
 40
0.025
  0
CIRCLE
  5
267
330
17
100
AcDbEntity
  8
0
100
AcDbCircle
 10
41.14863881145548
 20
-52.822058903594
 30
0.0
 40
0.025
  0
CIRCLE
  5
268
330
17
100
AcDbEntity
  8
0
100
AcDbCircle
 10
41.14863881145548
 20
-52.708069906457
 30
0.0
 40
0.025
  0
CIRCLE
  5
269
330
17
100
AcDbEntity
  8
0
100
AcDbCircle
 10
41.09164431288697
 20
-53.22102039357353
 30
0.0
 40
0.025
  0
CIRCLE
  5
26A
330
17
100
AcDbEntity
  8
0
100
AcDbCircle
 10
41.09164431288697
 20
-53.10703139643652
 30
0.0
 40
0.025
  0
CIRCLE
  5
26B
330
17
100
AcDbEntity
  8
0
100
AcDbCircle
 10
41.09164431288697
 20
-52.99304239929951
 30
0.0
 40
0.025
  0
CIRCLE
  5
26C
330
17
100
AcDbEntity
  8
0
100
AcDbCircle
 10
41.09164431288697
 20
-52.87905340216251
 30
0.0
 40
0.025
  0
CIRCLE
  5
26D
330
17
100
AcDbEntity
  8
0
100
AcDbCircle
 10
41.09164431288697
 20
-52.7650644050255
 30
0.0
 40
0.025
  0
CIRCLE
  5
26E
330
17
100
AcDbEntity
  8
0
100
AcDbCircle
 10
41.03464981431847
 20
-53.27801489214203
 30
0.0
 40
0.025
  0
CIRCLE
  5
26F
330
17
100
AcDbEntity
  8
0
100
AcDbCircle
 10
41.03464981431847
 20
-52.93604790073101
 30
0.0
 40
0.025
  0
CIRCLE
  5
270
330
17
100
AcDbEntity
  8
0
100
AcDbCircle
 10
41.03464981431847
 20
-53.05003689786802
 30
0.0
 40
0.025
  0
CIRCLE
  5
271
330
17
100
AcDbEntity
  8
0
100
AcDbCircle
 10
41.03464981431847
 20
-53.16402589500502
 30
0.0
 40
0.025
  0
CIRCLE
  5
272
330
17
100
AcDbEntity
  8
0
100
AcDbCircle
 10
41.03464981431847
 20
-52.822058903594
 30
0.0
 40
0.025
  0
CIRCLE
  5
273
330
17
100
AcDbEntity
  8
0
100
AcDbCircle
 10
40.97765531574998
 20
-53.22102039357353
 30
0.0
 40
0.025
  0
CIRCLE
  5
274
330
17
100
AcDbEntity
  8
0
100
AcDbCircle
 10
40.97765531574998
 20
-53.10703139643652
 30
0.0
 40
0.025
  0
CIRCLE
  5
275
330
17
100
AcDbEntity
  8
0
100
AcDbCircle
 10
40.97765531574998
 20
-52.99304239929951
 30
0.0
 40
0.025
  0
CIRCLE
  5
276
330
17
100
AcDbEntity
  8
0
100
AcDbCircle
 10
40.97765531574998
 20
-52.87905340216251
 30
0.0
 40
0.025
  0
CIRCLE
  5
277
330
17
100
AcDbEntity
  8
0
100
AcDbCircle
 10
40.92066081718147
 20
-53.27801489214203
 30
0.0
 40
0.025
  0
CIRCLE
  5
278
330
17
100
AcDbEntity
  8
0
100
AcDbCircle
 10
40.92066081718147
 20
-52.93604790073101
 30
0.0
 40
0.025
  0
CIRCLE
  5
279
330
17
100
AcDbEntity
  8
0
100
AcDbCircle
 10
40.92066081718147
 20
-53.05003689786802
 30
0.0
 40
0.025
  0
CIRCLE
  5
27A
330
17
100
AcDbEntity
  8
0
100
AcDbCircle
 10
40.92066081718147
 20
-53.16402589500502
 30
0.0
 40
0.025
  0
CIRCLE
  5
27B
330
17
100
AcDbEntity
  8
0
100
AcDbCircle
 10
40.86366631861298
 20
-53.22102039357353
 30
0.0
 40
0.025
  0
CIRCLE
  5
27C
330
17
100
AcDbEntity
  8
0
100
AcDbCircle
 10
40.86366631861298
 20
-53.10703139643652
 30
0.0
 40
0.025
  0
CIRCLE
  5
27D
330
17
100
AcDbEntity
  8
0
100
AcDbCircle
 10
40.86366631861298
 20
-52.99304239929951
 30
0.0
 40
0.025
  0
CIRCLE
  5
27E
330
17
100
AcDbEntity
  8
0
100
AcDbCircle
 10
40.80667182004448
 20
-53.27801489214203
 30
0.0
 40
0.025
  0
CIRCLE
  5
27F
330
17
100
AcDbEntity
  8
0
100
AcDbCircle
 10
40.80667182004448
 20
-53.05003689786802
 30
0.0
 40
0.025
  0
CIRCLE
  5
280
330
17
100
AcDbEntity
  8
0
100
AcDbCircle
 10
40.80667182004448
 20
-53.16402589500502
 30
0.0
 40
0.025
  0
CIRCLE
  5
281
330
17
100
AcDbEntity
  8
0
100
AcDbCircle
 10
40.74967732147597
 20
-53.22102039357353
 30
0.0
 40
0.025
  0
CIRCLE
  5
282
330
17
100
AcDbEntity
  8
0
100
AcDbCircle
 10
40.74967732147597
 20
-53.10703139643652
 30
0.0
 40
0.025
  0
CIRCLE
  5
283
330
17
100
AcDbEntity
  8
0
100
AcDbCircle
 10
40.69268282290748
 20
-53.27801489214203
 30
0.0
 40
0.025
  0
CIRCLE
  5
284
330
17
100
AcDbEntity
  8
0
100
AcDbCircle
 10
40.69268282290748
 20
-53.16402589500502
 30
0.0
 40
0.025
  0
CIRCLE
  5
285
330
17
100
AcDbEntity
  8
0
100
AcDbCircle
 10
40.63568832433897
 20
-53.22102039357353
 30
0.0
 40
0.025
  0
CIRCLE
  5
286
330
17
100
AcDbEntity
  8
0
100
AcDbCircle
 10
40.57869382577048
 20
-53.27801489214203
 30
0.0
 40
0.025
  0
LWPOLYLINE
  5
287
330
17
100
AcDbEntity
  8
0
100
AcDbPolyline
 90
3
 70
1
 10
40.51533298527963
 20
-51.40301489214202
 10
41.34462230716097
 20
-52.23230421402337
 10
41.34462230716097
 20
-51.40301489214202
  0
LINE
  5
288
330
17
100
AcDbEntity
  8
0
100
AcDbLine
 10
40.39462230716097
 20
-51.35301489214203
 30
0.0
 11
39.39462230716097
 21
-52.35301489214203
 31
0.0
  0
LINE
  5
289
330
17
100
AcDbEntity
  8
0
100
AcDbLine
 10
39.39462230716097
 20
-52.35301489214203
 30
0.0
 11
40.39462230716097
 21
-53.35301489214202
 31
0.0
  0
LINE
  5
28A
330
17
100
AcDbEntity
  8
0
100
AcDbLine
 10
40.39462230716097
 20
-53.35301489214202
 30
0.0
 11
41.39462230716097
 21
-52.35301489214203
 31
0.0
  0
LINE
  5
28B
330
17
100
AcDbEntity
  8
0
100
AcDbLine
 10
41.39462230716097
 20
-52.35301489214203
 30
0.0
 11
40.39462230716097
 21
-51.35301489214203
 31
0.0
  0
LINE
  5
28C
330
17
100
AcDbEntity
  8
0
100
AcDbLine
 10
39.48921030291561
 20
-55.26933925745265
 30
0.0
 11
40.48921030291561
 21
-55.26933925745265
 31
0.0
  0
LINE
  5
28D
330
17
100
AcDbEntity
  8
0
100
AcDbLine
 10
39.48921030291561
 20
-55.26933925745265
 30
0.0
 11
39.4892103029156
 21
-56.26933925745264
 31
0.0
  0
LINE
  5
28E
330
17
100
AcDbEntity
  8
0
100
AcDbLine
 10
39.98921030291561
 20
-55.26933925745266
 30
0.0
 11
39.9892103029156
 21
-56.26933925745266
 31
0.0
  0
LINE
  5
28F
330
17
100
AcDbEntity
  8
0
100
AcDbLine
 10
40.48921030291561
 20
-55.26933925745265
 30
0.0
 11
40.4892103029156
 21
-56.26933925745266
 31
0.0
  0
LINE
  5
290
330
17
100
AcDbEntity
  8
0
100
AcDbLine
 10
39.4892103029156
 20
-56.26933925745265
 30
0.0
 11
40.4892103029156
 21
-56.26933925745265
 31
0.0
  0
LINE
  5
291
330
17
100
AcDbEntity
  8
0
100
AcDbLine
 10
40.48921030291561
 20
-55.76933925745265
 30
0.0
 11
39.98921030291561
 21
-56.26933925745266
 31
0.0
  0
LINE
  5
292
330
17
100
AcDbEntity
  8
0
100
AcDbLine
 10
39.98921030291561
 20
-56.26933925745266
 30
0.0
 11
39.48921030291561
 21
-55.76933925745265
 31
0.0
  0
CIRCLE
  5
293
330
17
100
AcDbEntity
  8
0
100
AcDbCircle
 10
38.92771374392099
 20
-55.8860280623734
 30
0.0
 40
0.025
  0
CIRCLE
  5
294
330
17
100
AcDbEntity
  8
0
100
AcDbCircle
 10
38.66508710689365
 20
-55.8860280623734
 30
0.0
 40
0.025
  0
CIRCLE
  5
295
330
17
100
AcDbEntity
  8
0
100
AcDbCircle
 10
38.79640042540732
 20
-55.8860280623734
 30
0.0
 40
0.025
  0
CIRCLE
  5
296
330
17
100
AcDbEntity
  8
0
100
AcDbCircle
 10
38.86205708466416
 20
-55.82037140311657
 30
0.0
 40
0.025
  0
LWPOLYLINE
  5
297
330
17
100
AcDbEntity
  8
0
100
AcDbPolyline
 90
4
 70
0
 10
38.53806908298031
 20
-55.79433925745266
 10
38.95271374392099
 20
-55.79433925745266
 10
38.95271374392099
 20
-56.20898391839333
 10
38.53806908298031
 20
-55.79433925745266
  0
CIRCLE
  5
298
330
17
100
AcDbEntity
  8
0
100
AcDbCircle
 10
38.73074376615049
 20
-55.82037140311657
 30
0.0
 40
0.025
  0
CIRCLE
  5
299
330
17
100
AcDbEntity
  8
0
100
AcDbCircle
 10
38.59943044763682
 20
-55.82037140311657
 30
0.0
 40
0.025
  0
CIRCLE
  5
29A
330
17
100
AcDbEntity
  8
0
100
AcDbCircle
 10
38.86205708466416
 20
-55.95168472163024
 30
0.0
 40
0.025
  0
CIRCLE
  5
29B
330
17
100
AcDbEntity
  8
0
100
AcDbCircle
 10
38.73074376615049
 20
-55.95168472163024
 30
0.0
 40
0.025
  0
CIRCLE
  5
29C
330
17
100
AcDbEntity
  8
0
100
AcDbCircle
 10
38.92771374392099
 20
-56.01734138088708
 30
0.0
 40
0.025
  0
CIRCLE
  5
29D
330
17
100
AcDbEntity
  8
0
100
AcDbCircle
 10
38.79640042540732
 20
-56.01734138088708
 30
0.0
 40
0.025
  0
CIRCLE
  5
29E
330
17
100
AcDbEntity
  8
0
100
AcDbCircle
 10
38.86205708466416
 20
-56.08299804014392
 30
0.0
 40
0.025
  0
CIRCLE
  5
29F
330
17
100
AcDbEntity
  8
0
100
AcDbCircle
 10
38.92771374392099
 20
-56.14865469940076
 30
0.0
 40
0.025
  0
CIRCLE
  5
2A0
330
17
100
AcDbEntity
  8
0
100
AcDbCircle
 10
39.93921030291561
 20
-55.8860280623734
 30
0.0
 40
0.025
  0
CIRCLE
  5
2A1
330
17
100
AcDbEntity
  8
0
100
AcDbCircle
 10
39.67658366588827
 20
-55.8860280623734
 30
0.0
 40
0.025
  0
CIRCLE
  5
2A2
330
17
100
AcDbEntity
  8
0
100
AcDbCircle
 10
39.80789698440194
 20
-55.8860280623734
 30
0.0
 40
0.025
  0
CIRCLE
  5
2A3
330
17
100
AcDbEntity
  8
0
100
AcDbCircle
 10
39.87355364365878
 20
-55.82037140311657
 30
0.0
 40
0.025
  0
CIRCLE
  5
2A4
330
17
100
AcDbEntity
  8
0
100
AcDbCircle
 10
39.74224032514511
 20
-55.82037140311657
 30
0.0
 40
0.025
  0
CIRCLE
  5
2A5
330
17
100
AcDbEntity
  8
0
100
AcDbCircle
 10
39.61092700663144
 20
-55.82037140311657
 30
0.0
 40
0.025
  0
CIRCLE
  5
2A6
330
17
100
AcDbEntity
  8
0
100
AcDbCircle
 10
39.87355364365878
 20
-55.95168472163024
 30
0.0
 40
0.025
  0
CIRCLE
  5
2A7
330
17
100
AcDbEntity
  8
0
100
AcDbCircle
 10
39.74224032514511
 20
-55.95168472163024
 30
0.0
 40
0.025
  0
CIRCLE
  5
2A8
330
17
100
AcDbEntity
  8
0
100
AcDbCircle
 10
39.93921030291561
 20
-56.01734138088708
 30
0.0
 40
0.025
  0
CIRCLE
  5
2A9
330
17
100
AcDbEntity
  8
0
100
AcDbCircle
 10
39.80789698440194
 20
-56.01734138088708
 30
0.0
 40
0.025
  0
CIRCLE
  5
2AA
330
17
100
AcDbEntity
  8
0
100
AcDbCircle
 10
39.87355364365878
 20
-56.08299804014392
 30
0.0
 40
0.025
  0
CIRCLE
  5
2AB
330
17
100
AcDbEntity
  8
0
100
AcDbCircle
 10
39.93921030291561
 20
-56.14865469940076
 30
0.0
 40
0.025
  0
CIRCLE
  5
2AC
330
17
100
AcDbEntity
  8
0
100
AcDbCircle
 10
40.0392103029156
 20
-55.8860280623734
 30
0.0
 40
0.025
  0
CIRCLE
  5
2AD
330
17
100
AcDbEntity
  8
0
100
AcDbCircle
 10
40.30183693994294
 20
-55.8860280623734
 30
0.0
 40
0.025
  0
CIRCLE
  5
2AE
330
17
100
AcDbEntity
  8
0
100
AcDbCircle
 10
40.17052362142927
 20
-55.8860280623734
 30
0.0
 40
0.025
  0
CIRCLE
  5
2AF
330
17
100
AcDbEntity
  8
0
100
AcDbCircle
 10
40.10486696217244
 20
-55.82037140311657
 30
0.0
 40
0.025
  0
CIRCLE
  5
2B0
330
17
100
AcDbEntity
  8
0
100
AcDbCircle
 10
40.2361802806861
 20
-55.82037140311657
 30
0.0
 40
0.025
  0
CIRCLE
  5
2B1
330
17
100
AcDbEntity
  8
0
100
AcDbCircle
 10
40.36749359919977
 20
-55.82037140311657
 30
0.0
 40
0.025
  0
CIRCLE
  5
2B2
330
17
100
AcDbEntity
  8
0
100
AcDbCircle
 10
40.10486696217244
 20
-55.95168472163024
 30
0.0
 40
0.025
  0
CIRCLE
  5
2B3
330
17
100
AcDbEntity
  8
0
100
AcDbCircle
 10
40.2361802806861
 20
-55.95168472163024
 30
0.0
 40
0.025
  0
CIRCLE
  5
2B4
330
17
100
AcDbEntity
  8
0
100
AcDbCircle
 10
40.0392103029156
 20
-56.01734138088708
 30
0.0
 40
0.025
  0
CIRCLE
  5
2B5
330
17
100
AcDbEntity
  8
0
100
AcDbCircle
 10
40.17052362142927
 20
-56.01734138088708
 30
0.0
 40
0.025
  0
CIRCLE
  5
2B6
330
17
100
AcDbEntity
  8
0
100
AcDbCircle
 10
40.10486696217244
 20
-56.08299804014392
 30
0.0
 40
0.025
  0
CIRCLE
  5
2B7
330
17
100
AcDbEntity
  8
0
100
AcDbCircle
 10
40.0392103029156
 20
-56.14865469940076
 30
0.0
 40
0.025
  0
CIRCLE
  5
2B8
330
17
100
AcDbEntity
  8
0
100
AcDbCircle
 10
39.60589910783636
 20
-56.21933925745266
 30
0.0
 40
0.025
  0
CIRCLE
  5
2B9
330
17
100
AcDbEntity
  8
0
100
AcDbCircle
 10
39.60589910783636
 20
-55.95671262042532
 30
0.0
 40
0.025
  0
CIRCLE
  5
2BA
330
17
100
AcDbEntity
  8
0
100
AcDbCircle
 10
39.60589910783636
 20
-56.08802593893899
 30
0.0
 40
0.025
  0
CIRCLE
  5
2BB
330
17
100
AcDbEntity
  8
0
100
AcDbCircle
 10
39.54024244857952
 20
-56.15368259819582
 30
0.0
 40
0.025
  0
CIRCLE
  5
2BC
330
17
100
AcDbEntity
  8
0
100
AcDbCircle
 10
39.54024244857952
 20
-56.02236927968216
 30
0.0
 40
0.025
  0
CIRCLE
  5
2BD
330
17
100
AcDbEntity
  8
0
100
AcDbCircle
 10
39.54024244857952
 20
-55.89105596116849
 30
0.0
 40
0.025
  0
CIRCLE
  5
2BE
330
17
100
AcDbEntity
  8
0
100
AcDbCircle
 10
39.6715557670932
 20
-56.15368259819582
 30
0.0
 40
0.025
  0
CIRCLE
  5
2BF
330
17
100
AcDbEntity
  8
0
100
AcDbCircle
 10
39.6715557670932
 20
-56.02236927968216
 30
0.0
 40
0.025
  0
CIRCLE
  5
2C0
330
17
100
AcDbEntity
  8
0
100
AcDbCircle
 10
39.73721242635003
 20
-56.21933925745266
 30
0.0
 40
0.025
  0
CIRCLE
  5
2C1
330
17
100
AcDbEntity
  8
0
100
AcDbCircle
 10
39.73721242635003
 20
-56.08802593893899
 30
0.0
 40
0.025
  0
CIRCLE
  5
2C2
330
17
100
AcDbEntity
  8
0
100
AcDbCircle
 10
39.80286908560687
 20
-56.15368259819582
 30
0.0
 40
0.025
  0
CIRCLE
  5
2C3
330
17
100
AcDbEntity
  8
0
100
AcDbCircle
 10
39.86852574486371
 20
-56.21933925745266
 30
0.0
 40
0.025
  0
LWPOLYLINE
  5
2C4
330
17
100
AcDbEntity
  8
0
100
AcDbPolyline
 90
3
 70
1
 10
39.96421030291561
 20
-55.32969459651198
 10
39.54956564197493
 20
-55.74433925745266
 10
39.96421030291561
 20
-55.74433925745266
  0
LWPOLYLINE
  5
2C5
330
17
100
AcDbEntity
  8
0
100
AcDbPolyline
 90
3
 70
1
 10
39.92885496385629
 20
-55.29433925745266
 10
39.51421030291561
 20
-55.70898391839333
 10
39.51421030291561
 20
-55.29433925745266
  0
CIRCLE
  5
2C6
330
17
100
AcDbEntity
  8
0
100
AcDbCircle
 10
40.37252149799486
 20
-56.21933925745266
 30
0.0
 40
0.025
  0
CIRCLE
  5
2C7
330
17
100
AcDbEntity
  8
0
100
AcDbCircle
 10
40.37252149799486
 20
-55.95671262042532
 30
0.0
 40
0.025
  0
CIRCLE
  5
2C8
330
17
100
AcDbEntity
  8
0
100
AcDbCircle
 10
40.37252149799486
 20
-56.08802593893899
 30
0.0
 40
0.025
  0
CIRCLE
  5
2C9
330
17
100
AcDbEntity
  8
0
100
AcDbCircle
 10
40.43817815725169
 20
-56.15368259819582
 30
0.0
 40
0.025
  0
CIRCLE
  5
2CA
330
17
100
AcDbEntity
  8
0
100
AcDbCircle
 10
40.43817815725169
 20
-56.02236927968216
 30
0.0
 40
0.025
  0
CIRCLE
  5
2CB
330
17
100
AcDbEntity
  8
0
100
AcDbCircle
 10
40.43817815725169
 20
-55.89105596116849
 30
0.0
 40
0.025
  0
CIRCLE
  5
2CC
330
17
100
AcDbEntity
  8
0
100
AcDbCircle
 10
40.30686483873802
 20
-56.15368259819582
 30
0.0
 40
0.025
  0
CIRCLE
  5
2CD
330
17
100
AcDbEntity
  8
0
100
AcDbCircle
 10
40.30686483873802
 20
-56.02236927968216
 30
0.0
 40
0.025
  0
CIRCLE
  5
2CE
330
17
100
AcDbEntity
  8
0
100
AcDbCircle
 10
40.24120817948118
 20
-56.21933925745266
 30
0.0
 40
0.025
  0
CIRCLE
  5
2CF
330
17
100
AcDbEntity
  8
0
100
AcDbCircle
 10
40.24120817948118
 20
-56.08802593893899
 30
0.0
 40
0.025
  0
CIRCLE
  5
2D0
330
17
100
AcDbEntity
  8
0
100
AcDbCircle
 10
40.17555152022434
 20
-56.15368259819582
 30
0.0
 40
0.025
  0
CIRCLE
  5
2D1
330
17
100
AcDbEntity
  8
0
100
AcDbCircle
 10
40.1098948609675
 20
-56.21933925745266
 30
0.0
 40
0.025
  0
LINE
  5
2D2
330
17
100
AcDbEntity
  8
0
100
AcDbLine
 10
39.48921030291561
 20
-55.76933925745265
 30
0.0
 11
40.48921030291561
 21
-55.76933925745265
 31
0.0
  0
LINE
  5
2D3
330
17
100
AcDbEntity
  8
0
100
AcDbLine
 10
39.48921030291561
 20
-55.76933925745265
 30
0.0
 11
39.98921030291561
 21
-55.26933925745266
 31
0.0
  0
LINE
  5
2D4
330
17
100
AcDbEntity
  8
0
100
AcDbLine
 10
39.98921030291561
 20
-55.26933925745266
 30
0.0
 11
40.48921030291561
 21
-55.76933925745265
 31
0.0
  0
LWPOLYLINE
  5
2D5
330
17
100
AcDbEntity
  8
0
100
AcDbPolyline
 90
3
 70
1
 10
40.0142103029156
 20
-55.32969459651198
 10
40.42885496385628
 20
-55.74433925745266
 10
40.0142103029156
 20
-55.74433925745266
  0
LWPOLYLINE
  5
2D6
330
17
100
AcDbEntity
  8
0
100
AcDbPolyline
 90
3
 70
1
 10
40.04956564197493
 20
-55.29433925745266
 10
40.4642103029156
 20
-55.70898391839333
 10
40.4642103029156
 20
-55.29433925745266
  0
LINE
  5
2D7
330
17
100
AcDbEntity
  8
0
 62
8
100
AcDbLine
 10
43.1068404753976
 20
-49.71300345194186
 30
0.0
 11
45.1068404753976
 21
-49.71300345194186
 31
0.0
  0
LINE
  5
2D8
330
17
100
AcDbEntity
  8
0
 62
8
100
AcDbLine
 10
44.1068404753976
 20
-50.71300345194186
 30
0.0
 11
44.1068404753976
 21
-48.71300345194185
 31
0.0
  0
LWPOLYLINE
  5
2D9
330
17
100
AcDbEntity
  8
0
 62
8
100
AcDbPolyline
 90
3
 70
1
 10
44.0568404753976
 20
-50.5922927738232
 10
43.22755115351625
 20
-49.76300345194186
 10
44.0568404753976
 20
-49.76300345194186
  0
CIRCLE
  5
2DA
330
17
100
AcDbEntity
  8
0
 62
8
100
AcDbCircle
 10
44.03184047539761
 20
-49.58100895337336
 30
0.0
 40
0.025
  0
CIRCLE
  5
2DB
330
17
100
AcDbEntity
  8
0
 62
8
100
AcDbCircle
 10
43.68987348398658
 20
-49.58100895337336
 30
0.0
 40
0.025
  0
CIRCLE
  5
2DC
330
17
100
AcDbEntity
  8
0
 62
8
100
AcDbCircle
 10
43.34790649257557
 20
-49.58100895337336
 30
0.0
 40
0.025
  0
CIRCLE
  5
2DD
330
17
100
AcDbEntity
  8
0
 62
8
100
AcDbCircle
 10
43.80386248112359
 20
-49.58100895337336
 30
0.0
 40
0.025
  0
CIRCLE
  5
2DE
330
17
100
AcDbEntity
  8
0
 62
8
100
AcDbCircle
 10
43.9178514782606
 20
-49.58100895337336
 30
0.0
 40
0.025
  0
CIRCLE
  5
2DF
330
17
100
AcDbEntity
  8
0
 62
8
100
AcDbCircle
 10
43.57588448684958
 20
-49.58100895337336
 30
0.0
 40
0.025
  0
CIRCLE
  5
2E0
330
17
100
AcDbEntity
  8
0
 62
8
100
AcDbCircle
 10
43.46189548971257
 20
-49.58100895337336
 30
0.0
 40
0.025
  0
CIRCLE
  5
2E1
330
17
100
AcDbEntity
  8
0
 62
8
100
AcDbCircle
 10
43.9748459768291
 20
-49.63800345194187
 30
0.0
 40
0.025
  0
CIRCLE
  5
2E2
330
17
100
AcDbEntity
  8
0
 62
8
100
AcDbCircle
 10
43.86085697969209
 20
-49.63800345194187
 30
0.0
 40
0.025
  0
CIRCLE
  5
2E3
330
17
100
AcDbEntity
  8
0
 62
8
100
AcDbCircle
 10
43.74686798255509
 20
-49.63800345194187
 30
0.0
 40
0.025
  0
CIRCLE
  5
2E4
330
17
100
AcDbEntity
  8
0
 62
8
100
AcDbCircle
 10
43.63287898541808
 20
-49.63800345194187
 30
0.0
 40
0.025
  0
CIRCLE
  5
2E5
330
17
100
AcDbEntity
  8
0
 62
8
100
AcDbCircle
 10
43.51888998828107
 20
-49.63800345194187
 30
0.0
 40
0.025
  0
CIRCLE
  5
2E6
330
17
100
AcDbEntity
  8
0
 62
8
100
AcDbCircle
 10
43.40490099114407
 20
-49.63800345194187
 30
0.0
 40
0.025
  0
CIRCLE
  5
2E7
330
17
100
AcDbEntity
  8
0
 62
8
100
AcDbCircle
 10
43.29091199400706
 20
-49.63800345194187
 30
0.0
 40
0.025
  0
CIRCLE
  5
2E8
330
17
100
AcDbEntity
  8
0
 62
8
100
AcDbCircle
 10
43.9748459768291
 20
-49.52401445480486
 30
0.0
 40
0.025
  0
CIRCLE
  5
2E9
330
17
100
AcDbEntity
  8
0
 62
8
100
AcDbCircle
 10
43.86085697969209
 20
-49.52401445480486
 30
0.0
 40
0.025
  0
CIRCLE
  5
2EA
330
17
100
AcDbEntity
  8
0
 62
8
100
AcDbCircle
 10
43.74686798255509
 20
-49.52401445480486
 30
0.0
 40
0.025
  0
CIRCLE
  5
2EB
330
17
100
AcDbEntity
  8
0
 62
8
100
AcDbCircle
 10
43.63287898541808
 20
-49.52401445480486
 30
0.0
 40
0.025
  0
CIRCLE
  5
2EC
330
17
100
AcDbEntity
  8
0
 62
8
100
AcDbCircle
 10
43.51888998828107
 20
-49.52401445480486
 30
0.0
 40
0.025
  0
CIRCLE
  5
2ED
330
17
100
AcDbEntity
  8
0
 62
8
100
AcDbCircle
 10
43.40490099114407
 20
-49.52401445480486
 30
0.0
 40
0.025
  0
CIRCLE
  5
2EE
330
17
100
AcDbEntity
  8
0
 62
8
100
AcDbCircle
 10
44.03184047539761
 20
-49.46701995623636
 30
0.0
 40
0.025
  0
CIRCLE
  5
2EF
330
17
100
AcDbEntity
  8
0
 62
8
100
AcDbCircle
 10
43.68987348398658
 20
-49.46701995623636
 30
0.0
 40
0.025
  0
CIRCLE
  5
2F0
330
17
100
AcDbEntity
  8
0
 62
8
100
AcDbCircle
 10
43.80386248112359
 20
-49.46701995623636
 30
0.0
 40
0.025
  0
CIRCLE
  5
2F1
330
17
100
AcDbEntity
  8
0
 62
8
100
AcDbCircle
 10
43.9178514782606
 20
-49.46701995623636
 30
0.0
 40
0.025
  0
CIRCLE
  5
2F2
330
17
100
AcDbEntity
  8
0
 62
8
100
AcDbCircle
 10
43.57588448684958
 20
-49.46701995623636
 30
0.0
 40
0.025
  0
CIRCLE
  5
2F3
330
17
100
AcDbEntity
  8
0
 62
8
100
AcDbCircle
 10
43.46189548971257
 20
-49.46701995623636
 30
0.0
 40
0.025
  0
CIRCLE
  5
2F4
330
17
100
AcDbEntity
  8
0
 62
8
100
AcDbCircle
 10
43.9748459768291
 20
-49.41002545766786
 30
0.0
 40
0.025
  0
CIRCLE
  5
2F5
330
17
100
AcDbEntity
  8
0
 62
8
100
AcDbCircle
 10
43.86085697969209
 20
-49.41002545766786
 30
0.0
 40
0.025
  0
CIRCLE
  5
2F6
330
17
100
AcDbEntity
  8
0
 62
8
100
AcDbCircle
 10
43.74686798255509
 20
-49.41002545766786
 30
0.0
 40
0.025
  0
CIRCLE
  5
2F7
330
17
100
AcDbEntity
  8
0
 62
8
100
AcDbCircle
 10
43.63287898541808
 20
-49.41002545766786
 30
0.0
 40
0.025
  0
CIRCLE
  5
2F8
330
17
100
AcDbEntity
  8
0
 62
8
100
AcDbCircle
 10
43.51888998828107
 20
-49.41002545766786
 30
0.0
 40
0.025
  0
CIRCLE
  5
2F9
330
17
100
AcDbEntity
  8
0
 62
8
100
AcDbCircle
 10
44.03184047539761
 20
-49.35303095909937
 30
0.0
 40
0.025
  0
CIRCLE
  5
2FA
330
17
100
AcDbEntity
  8
0
 62
8
100
AcDbCircle
 10
43.68987348398658
 20
-49.35303095909937
 30
0.0
 40
0.025
  0
CIRCLE
  5
2FB
330
17
100
AcDbEntity
  8
0
 62
8
100
AcDbCircle
 10
43.80386248112359
 20
-49.35303095909937
 30
0.0
 40
0.025
  0
CIRCLE
  5
2FC
330
17
100
AcDbEntity
  8
0
 62
8
100
AcDbCircle
 10
43.9178514782606
 20
-49.35303095909937
 30
0.0
 40
0.025
  0
CIRCLE
  5
2FD
330
17
100
AcDbEntity
  8
0
 62
8
100
AcDbCircle
 10
43.57588448684958
 20
-49.35303095909937
 30
0.0
 40
0.025
  0
CIRCLE
  5
2FE
330
17
100
AcDbEntity
  8
0
 62
8
100
AcDbCircle
 10
43.9748459768291
 20
-49.29603646053086
 30
0.0
 40
0.025
  0
CIRCLE
  5
2FF
330
17
100
AcDbEntity
  8
0
 62
8
100
AcDbCircle
 10
43.86085697969209
 20
-49.29603646053086
 30
0.0
 40
0.025
  0
CIRCLE
  5
300
330
17
100
AcDbEntity
  8
0
 62
8
100
AcDbCircle
 10
43.74686798255509
 20
-49.29603646053086
 30
0.0
 40
0.025
  0
CIRCLE
  5
301
330
17
100
AcDbEntity
  8
0
 62
8
100
AcDbCircle
 10
43.63287898541808
 20
-49.29603646053086
 30
0.0
 40
0.025
  0
CIRCLE
  5
302
330
17
100
AcDbEntity
  8
0
 62
8
100
AcDbCircle
 10
44.03184047539761
 20
-49.23904196196236
 30
0.0
 40
0.025
  0
CIRCLE
  5
303
330
17
100
AcDbEntity
  8
0
 62
8
100
AcDbCircle
 10
43.68987348398658
 20
-49.23904196196236
 30
0.0
 40
0.025
  0
CIRCLE
  5
304
330
17
100
AcDbEntity
  8
0
 62
8
100
AcDbCircle
 10
43.80386248112359
 20
-49.23904196196236
 30
0.0
 40
0.025
  0
CIRCLE
  5
305
330
17
100
AcDbEntity
  8
0
 62
8
100
AcDbCircle
 10
43.9178514782606
 20
-49.23904196196236
 30
0.0
 40
0.025
  0
CIRCLE
  5
306
330
17
100
AcDbEntity
  8
0
 62
8
100
AcDbCircle
 10
43.9748459768291
 20
-49.18204746339386
 30
0.0
 40
0.025
  0
CIRCLE
  5
307
330
17
100
AcDbEntity
  8
0
 62
8
100
AcDbCircle
 10
43.86085697969209
 20
-49.18204746339386
 30
0.0
 40
0.025
  0
CIRCLE
  5
308
330
17
100
AcDbEntity
  8
0
 62
8
100
AcDbCircle
 10
43.74686798255509
 20
-49.18204746339386
 30
0.0
 40
0.025
  0
CIRCLE
  5
309
330
17
100
AcDbEntity
  8
0
 62
8
100
AcDbCircle
 10
44.03184047539761
 20
-49.12505296482536
 30
0.0
 40
0.025
  0
CIRCLE
  5
30A
330
17
100
AcDbEntity
  8
0
 62
8
100
AcDbCircle
 10
43.80386248112359
 20
-49.12505296482536
 30
0.0
 40
0.025
  0
CIRCLE
  5
30B
330
17
100
AcDbEntity
  8
0
 62
8
100
AcDbCircle
 10
43.9178514782606
 20
-49.12505296482536
 30
0.0
 40
0.025
  0
CIRCLE
  5
30C
330
17
100
AcDbEntity
  8
0
 62
8
100
AcDbCircle
 10
43.9748459768291
 20
-49.06805846625687
 30
0.0
 40
0.025
  0
CIRCLE
  5
30D
330
17
100
AcDbEntity
  8
0
 62
8
100
AcDbCircle
 10
43.86085697969209
 20
-49.06805846625687
 30
0.0
 40
0.025
  0
CIRCLE
  5
30E
330
17
100
AcDbEntity
  8
0
 62
8
100
AcDbCircle
 10
44.03184047539761
 20
-49.01106396768836
 30
0.0
 40
0.025
  0
CIRCLE
  5
30F
330
17
100
AcDbEntity
  8
0
 62
8
100
AcDbCircle
 10
43.9178514782606
 20
-49.01106396768836
 30
0.0
 40
0.025
  0
CIRCLE
  5
310
330
17
100
AcDbEntity
  8
0
 62
8
100
AcDbCircle
 10
43.9748459768291
 20
-48.95406946911986
 30
0.0
 40
0.025
  0
CIRCLE
  5
311
330
17
100
AcDbEntity
  8
0
 62
8
100
AcDbCircle
 10
44.03184047539761
 20
-48.89707497055137
 30
0.0
 40
0.025
  0
LWPOLYLINE
  5
312
330
17
100
AcDbEntity
  8
0
 62
8
100
AcDbPolyline
 90
3
 70
1
 10
44.1568404753976
 20
-50.5922927738232
 10
44.98612979727894
 20
-49.76300345194186
 10
44.1568404753976
 20
-49.76300345194186
  0
CIRCLE
  5
313
330
17
100
AcDbEntity
  8
0
 62
8
100
AcDbCircle
 10
44.18184047539759
 20
-49.58100895337336
 30
0.0
 40
0.025
  0
CIRCLE
  5
314
330
17
100
AcDbEntity
  8
0
 62
8
100
AcDbCircle
 10
44.52380746680861
 20
-49.58100895337336
 30
0.0
 40
0.025
  0
CIRCLE
  5
315
330
17
100
AcDbEntity
  8
0
 62
8
100
AcDbCircle
 10
44.86577445821963
 20
-49.58100895337336
 30
0.0
 40
0.025
  0
CIRCLE
  5
316
330
17
100
AcDbEntity
  8
0
 62
8
100
AcDbCircle
 10
44.40981846967161
 20
-49.58100895337336
 30
0.0
 40
0.025
  0
CIRCLE
  5
317
330
17
100
AcDbEntity
  8
0
 62
8
100
AcDbCircle
 10
44.2958294725346
 20
-49.58100895337336
 30
0.0
 40
0.025
  0
CIRCLE
  5
318
330
17
100
AcDbEntity
  8
0
 62
8
100
AcDbCircle
 10
44.63779646394562
 20
-49.58100895337336
 30
0.0
 40
0.025
  0
CIRCLE
  5
319
330
17
100
AcDbEntity
  8
0
 62
8
100
AcDbCircle
 10
44.75178546108263
 20
-49.58100895337336
 30
0.0
 40
0.025
  0
CIRCLE
  5
31A
330
17
100
AcDbEntity
  8
0
 62
8
100
AcDbCircle
 10
44.23883497396611
 20
-49.63800345194187
 30
0.0
 40
0.025
  0
CIRCLE
  5
31B
330
17
100
AcDbEntity
  8
0
 62
8
100
AcDbCircle
 10
44.35282397110311
 20
-49.63800345194187
 30
0.0
 40
0.025
  0
CIRCLE
  5
31C
330
17
100
AcDbEntity
  8
0
 62
8
100
AcDbCircle
 10
44.46681296824012
 20
-49.63800345194187
 30
0.0
 40
0.025
  0
CIRCLE
  5
31D
330
17
100
AcDbEntity
  8
0
 62
8
100
AcDbCircle
 10
44.58080196537713
 20
-49.63800345194187
 30
0.0
 40
0.025
  0
CIRCLE
  5
31E
330
17
100
AcDbEntity
  8
0
 62
8
100
AcDbCircle
 10
44.69479096251413
 20
-49.63800345194187
 30
0.0
 40
0.025
  0
CIRCLE
  5
31F
330
17
100
AcDbEntity
  8
0
 62
8
100
AcDbCircle
 10
44.80877995965114
 20
-49.63800345194187
 30
0.0
 40
0.025
  0
CIRCLE
  5
320
330
17
100
AcDbEntity
  8
0
 62
8
100
AcDbCircle
 10
44.92276895678814
 20
-49.63800345194187
 30
0.0
 40
0.025
  0
CIRCLE
  5
321
330
17
100
AcDbEntity
  8
0
 62
8
100
AcDbCircle
 10
44.23883497396611
 20
-49.52401445480486
 30
0.0
 40
0.025
  0
CIRCLE
  5
322
330
17
100
AcDbEntity
  8
0
 62
8
100
AcDbCircle
 10
44.35282397110311
 20
-49.52401445480486
 30
0.0
 40
0.025
  0
CIRCLE
  5
323
330
17
100
AcDbEntity
  8
0
 62
8
100
AcDbCircle
 10
44.46681296824012
 20
-49.52401445480486
 30
0.0
 40
0.025
  0
CIRCLE
  5
324
330
17
100
AcDbEntity
  8
0
 62
8
100
AcDbCircle
 10
44.58080196537713
 20
-49.52401445480486
 30
0.0
 40
0.025
  0
CIRCLE
  5
325
330
17
100
AcDbEntity
  8
0
 62
8
100
AcDbCircle
 10
44.69479096251413
 20
-49.52401445480486
 30
0.0
 40
0.025
  0
CIRCLE
  5
326
330
17
100
AcDbEntity
  8
0
 62
8
100
AcDbCircle
 10
44.80877995965114
 20
-49.52401445480486
 30
0.0
 40
0.025
  0
CIRCLE
  5
327
330
17
100
AcDbEntity
  8
0
 62
8
100
AcDbCircle
 10
44.18184047539759
 20
-49.46701995623636
 30
0.0
 40
0.025
  0
CIRCLE
  5
328
330
17
100
AcDbEntity
  8
0
 62
8
100
AcDbCircle
 10
44.52380746680861
 20
-49.46701995623636
 30
0.0
 40
0.025
  0
CIRCLE
  5
329
330
17
100
AcDbEntity
  8
0
 62
8
100
AcDbCircle
 10
44.40981846967161
 20
-49.46701995623636
 30
0.0
 40
0.025
  0
CIRCLE
  5
32A
330
17
100
AcDbEntity
  8
0
 62
8
100
AcDbCircle
 10
44.2958294725346
 20
-49.46701995623636
 30
0.0
 40
0.025
  0
CIRCLE
  5
32B
330
17
100
AcDbEntity
  8
0
 62
8
100
AcDbCircle
 10
44.63779646394562
 20
-49.46701995623636
 30
0.0
 40
0.025
  0
CIRCLE
  5
32C
330
17
100
AcDbEntity
  8
0
 62
8
100
AcDbCircle
 10
44.75178546108263
 20
-49.46701995623636
 30
0.0
 40
0.025
  0
CIRCLE
  5
32D
330
17
100
AcDbEntity
  8
0
 62
8
100
AcDbCircle
 10
44.23883497396611
 20
-49.41002545766786
 30
0.0
 40
0.025
  0
CIRCLE
  5
32E
330
17
100
AcDbEntity
  8
0
 62
8
100
AcDbCircle
 10
44.35282397110311
 20
-49.41002545766786
 30
0.0
 40
0.025
  0
CIRCLE
  5
32F
330
17
100
AcDbEntity
  8
0
 62
8
100
AcDbCircle
 10
44.46681296824012
 20
-49.41002545766786
 30
0.0
 40
0.025
  0
CIRCLE
  5
330
330
17
100
AcDbEntity
  8
0
 62
8
100
AcDbCircle
 10
44.58080196537713
 20
-49.41002545766786
 30
0.0
 40
0.025
  0
CIRCLE
  5
331
330
17
100
AcDbEntity
  8
0
 62
8
100
AcDbCircle
 10
44.69479096251413
 20
-49.41002545766786
 30
0.0
 40
0.025
  0
CIRCLE
  5
332
330
17
100
AcDbEntity
  8
0
 62
8
100
AcDbCircle
 10
44.18184047539759
 20
-49.35303095909937
 30
0.0
 40
0.025
  0
CIRCLE
  5
333
330
17
100
AcDbEntity
  8
0
 62
8
100
AcDbCircle
 10
44.52380746680861
 20
-49.35303095909937
 30
0.0
 40
0.025
  0
CIRCLE
  5
334
330
17
100
AcDbEntity
  8
0
 62
8
100
AcDbCircle
 10
44.40981846967161
 20
-49.35303095909937
 30
0.0
 40
0.025
  0
CIRCLE
  5
335
330
17
100
AcDbEntity
  8
0
 62
8
100
AcDbCircle
 10
44.2958294725346
 20
-49.35303095909937
 30
0.0
 40
0.025
  0
CIRCLE
  5
336
330
17
100
AcDbEntity
  8
0
 62
8
100
AcDbCircle
 10
44.63779646394562
 20
-49.35303095909937
 30
0.0
 40
0.025
  0
CIRCLE
  5
337
330
17
100
AcDbEntity
  8
0
 62
8
100
AcDbCircle
 10
44.23883497396611
 20
-49.29603646053086
 30
0.0
 40
0.025
  0
CIRCLE
  5
338
330
17
100
AcDbEntity
  8
0
 62
8
100
AcDbCircle
 10
44.35282397110311
 20
-49.29603646053086
 30
0.0
 40
0.025
  0
CIRCLE
  5
339
330
17
100
AcDbEntity
  8
0
 62
8
100
AcDbCircle
 10
44.46681296824012
 20
-49.29603646053086
 30
0.0
 40
0.025
  0
CIRCLE
  5
33A
330
17
100
AcDbEntity
  8
0
 62
8
100
AcDbCircle
 10
44.58080196537713
 20
-49.29603646053086
 30
0.0
 40
0.025
  0
CIRCLE
  5
33B
330
17
100
AcDbEntity
  8
0
 62
8
100
AcDbCircle
 10
44.18184047539759
 20
-49.23904196196236
 30
0.0
 40
0.025
  0
CIRCLE
  5
33C
330
17
100
AcDbEntity
  8
0
 62
8
100
AcDbCircle
 10
44.52380746680861
 20
-49.23904196196236
 30
0.0
 40
0.025
  0
CIRCLE
  5
33D
330
17
100
AcDbEntity
  8
0
 62
8
100
AcDbCircle
 10
44.40981846967161
 20
-49.23904196196236
 30
0.0
 40
0.025
  0
CIRCLE
  5
33E
330
17
100
AcDbEntity
  8
0
 62
8
100
AcDbCircle
 10
44.2958294725346
 20
-49.23904196196236
 30
0.0
 40
0.025
  0
CIRCLE
  5
33F
330
17
100
AcDbEntity
  8
0
 62
8
100
AcDbCircle
 10
44.23883497396611
 20
-49.18204746339386
 30
0.0
 40
0.025
  0
CIRCLE
  5
340
330
17
100
AcDbEntity
  8
0
 62
8
100
AcDbCircle
 10
44.35282397110311
 20
-49.18204746339386
 30
0.0
 40
0.025
  0
CIRCLE
  5
341
330
17
100
AcDbEntity
  8
0
 62
8
100
AcDbCircle
 10
44.46681296824012
 20
-49.18204746339386
 30
0.0
 40
0.025
  0
CIRCLE
  5
342
330
17
100
AcDbEntity
  8
0
 62
8
100
AcDbCircle
 10
44.18184047539759
 20
-49.12505296482536
 30
0.0
 40
0.025
  0
CIRCLE
  5
343
330
17
100
AcDbEntity
  8
0
 62
8
100
AcDbCircle
 10
44.40981846967161
 20
-49.12505296482536
 30
0.0
 40
0.025
  0
CIRCLE
  5
344
330
17
100
AcDbEntity
  8
0
 62
8
100
AcDbCircle
 10
44.2958294725346
 20
-49.12505296482536
 30
0.0
 40
0.025
  0
CIRCLE
  5
345
330
17
100
AcDbEntity
  8
0
 62
8
100
AcDbCircle
 10
44.23883497396611
 20
-49.06805846625687
 30
0.0
 40
0.025
  0
CIRCLE
  5
346
330
17
100
AcDbEntity
  8
0
 62
8
100
AcDbCircle
 10
44.35282397110311
 20
-49.06805846625687
 30
0.0
 40
0.025
  0
CIRCLE
  5
347
330
17
100
AcDbEntity
  8
0
 62
8
100
AcDbCircle
 10
44.18184047539759
 20
-49.01106396768836
 30
0.0
 40
0.025
  0
CIRCLE
  5
348
330
17
100
AcDbEntity
  8
0
 62
8
100
AcDbCircle
 10
44.2958294725346
 20
-49.01106396768836
 30
0.0
 40
0.025
  0
CIRCLE
  5
349
330
17
100
AcDbEntity
  8
0
 62
8
100
AcDbCircle
 10
44.23883497396611
 20
-48.95406946911986
 30
0.0
 40
0.025
  0
CIRCLE
  5
34A
330
17
100
AcDbEntity
  8
0
 62
8
100
AcDbCircle
 10
44.18184047539759
 20
-48.89707497055137
 30
0.0
 40
0.025
  0
LINE
  5
34B
330
17
100
AcDbEntity
  8
0
 62
8
100
AcDbLine
 10
44.1068404753976
 20
-50.71300345194186
 30
0.0
 11
43.1068404753976
 21
-49.71300345194186
 31
0.0
  0
LINE
  5
34C
330
17
100
AcDbEntity
  8
0
 62
8
100
AcDbLine
 10
43.1068404753976
 20
-49.71300345194186
 30
0.0
 11
44.1068404753976
 21
-48.71300345194185
 31
0.0
  0
LINE
  5
34D
330
17
100
AcDbEntity
  8
0
 62
8
100
AcDbLine
 10
44.1068404753976
 20
-48.71300345194185
 30
0.0
 11
45.1068404753976
 21
-49.71300345194186
 31
0.0
  0
LINE
  5
34E
330
17
100
AcDbEntity
  8
0
 62
8
100
AcDbLine
 10
45.1068404753976
 20
-49.71300345194186
 30
0.0
 11
44.1068404753976
 21
-50.71300345194186
 31
0.0
  0
LWPOLYLINE
  5
34F
330
17
100
AcDbEntity
  8
0
 62
8
100
AcDbPolyline
 90
4
 70
1
 10
43.1068404753976
 20
-49.71300345194186
 10
44.1068404753976
 20
-50.71300345194186
 10
45.1068404753976
 20
-49.71300345194186
 10
44.1068404753976
 20
-48.71300345194185
  0
LINE
  5
350
330
17
100
AcDbEntity
  8
0
 62
8
100
AcDbLine
 10
44.11043902771874
 20
-54.80923301743359
 30
0.0
 11
44.11043902771873
 21
-53.8092330174336
 31
0.0
  0
LINE
  5
351
330
17
100
AcDbEntity
  8
0
 62
8
100
AcDbLine
 10
44.61043902771874
 20
-54.3092330174336
 30
0.0
 11
44.11043902771874
 21
-53.8092330174336
 31
0.0
  0
LINE
  5
352
330
17
100
AcDbEntity
  8
0
 62
8
100
AcDbLine
 10
44.11043902771874
 20
-53.8092330174336
 30
0.0
 11
43.61043902771874
 21
-54.3092330174336
 31
0.0
  0
CIRCLE
  5
353
330
17
100
AcDbEntity
  8
0
 62
8
100
AcDbCircle
 10
44.06043902771874
 20
-54.19254421251284
 30
0.0
 40
0.025
  0
CIRCLE
  5
354
330
17
100
AcDbEntity
  8
0
 62
8
100
AcDbCircle
 10
43.7978123906914
 20
-54.19254421251284
 30
0.0
 40
0.025
  0
CIRCLE
  5
355
330
17
100
AcDbEntity
  8
0
 62
8
100
AcDbCircle
 10
43.92912570920507
 20
-54.19254421251284
 30
0.0
 40
0.025
  0
CIRCLE
  5
356
330
17
100
AcDbEntity
  8
0
 62
8
100
AcDbCircle
 10
43.99478236846191
 20
-54.25820087176969
 30
0.0
 40
0.025
  0
CIRCLE
  5
357
330
17
100
AcDbEntity
  8
0
 62
8
100
AcDbCircle
 10
43.86346904994824
 20
-54.25820087176969
 30
0.0
 40
0.025
  0
CIRCLE
  5
358
330
17
100
AcDbEntity
  8
0
 62
8
100
AcDbCircle
 10
43.73215573143457
 20
-54.25820087176969
 30
0.0
 40
0.025
  0
CIRCLE
  5
359
330
17
100
AcDbEntity
  8
0
 62
8
100
AcDbCircle
 10
43.99478236846191
 20
-54.12688755325601
 30
0.0
 40
0.025
  0
CIRCLE
  5
35A
330
17
100
AcDbEntity
  8
0
 62
8
100
AcDbCircle
 10
43.86346904994824
 20
-54.12688755325601
 30
0.0
 40
0.025
  0
CIRCLE
  5
35B
330
17
100
AcDbEntity
  8
0
 62
8
100
AcDbCircle
 10
44.06043902771874
 20
-54.06123089399917
 30
0.0
 40
0.025
  0
CIRCLE
  5
35C
330
17
100
AcDbEntity
  8
0
 62
8
100
AcDbCircle
 10
43.92912570920507
 20
-54.06123089399917
 30
0.0
 40
0.025
  0
CIRCLE
  5
35D
330
17
100
AcDbEntity
  8
0
 62
8
100
AcDbCircle
 10
43.99478236846191
 20
-53.99557423474234
 30
0.0
 40
0.025
  0
CIRCLE
  5
35E
330
17
100
AcDbEntity
  8
0
 62
8
100
AcDbCircle
 10
44.06043902771874
 20
-53.9299175754855
 30
0.0
 40
0.025
  0
CIRCLE
  5
35F
330
17
100
AcDbEntity
  8
0
 62
8
100
AcDbCircle
 10
44.16043902771874
 20
-54.19254421251284
 30
0.0
 40
0.025
  0
CIRCLE
  5
360
330
17
100
AcDbEntity
  8
0
 62
8
100
AcDbCircle
 10
44.42306566474607
 20
-54.19254421251284
 30
0.0
 40
0.025
  0
CIRCLE
  5
361
330
17
100
AcDbEntity
  8
0
 62
8
100
AcDbCircle
 10
44.2917523462324
 20
-54.19254421251284
 30
0.0
 40
0.025
  0
CIRCLE
  5
362
330
17
100
AcDbEntity
  8
0
 62
8
100
AcDbCircle
 10
44.22609568697557
 20
-54.25820087176969
 30
0.0
 40
0.025
  0
CIRCLE
  5
363
330
17
100
AcDbEntity
  8
0
 62
8
100
AcDbCircle
 10
44.35740900548924
 20
-54.25820087176969
 30
0.0
 40
0.025
  0
CIRCLE
  5
364
330
17
100
AcDbEntity
  8
0
 62
8
100
AcDbCircle
 10
44.4887223240029
 20
-54.25820087176969
 30
0.0
 40
0.025
  0
CIRCLE
  5
365
330
17
100
AcDbEntity
  8
0
 62
8
100
AcDbCircle
 10
44.22609568697557
 20
-54.12688755325601
 30
0.0
 40
0.025
  0
CIRCLE
  5
366
330
17
100
AcDbEntity
  8
0
 62
8
100
AcDbCircle
 10
44.35740900548924
 20
-54.12688755325601
 30
0.0
 40
0.025
  0
CIRCLE
  5
367
330
17
100
AcDbEntity
  8
0
 62
8
100
AcDbCircle
 10
44.16043902771874
 20
-54.06123089399917
 30
0.0
 40
0.025
  0
CIRCLE
  5
368
330
17
100
AcDbEntity
  8
0
 62
8
100
AcDbCircle
 10
44.2917523462324
 20
-54.06123089399917
 30
0.0
 40
0.025
  0
CIRCLE
  5
369
330
17
100
AcDbEntity
  8
0
 62
8
100
AcDbCircle
 10
44.22609568697557
 20
-53.99557423474234
 30
0.0
 40
0.025
  0
CIRCLE
  5
36A
330
17
100
AcDbEntity
  8
0
 62
8
100
AcDbCircle
 10
44.16043902771874
 20
-53.9299175754855
 30
0.0
 40
0.025
  0
LWPOLYLINE
  5
36B
330
17
100
AcDbEntity
  8
0
 62
8
100
AcDbPolyline
 90
3
 70
1
 10
44.08543902771874
 20
-54.74887767837428
 10
43.67079436677806
 20
-54.3342330174336
 10
44.08543902771874
 20
-54.3342330174336
  0
LINE
  5
36C
330
17
100
AcDbEntity
  8
0
 62
8
100
AcDbLine
 10
43.61043902771874
 20
-54.3092330174336
 30
0.0
 11
44.61043902771874
 21
-54.3092330174336
 31
0.0
  0
LINE
  5
36D
330
17
100
AcDbEntity
  8
0
 62
8
100
AcDbLine
 10
43.61043902771874
 20
-54.3092330174336
 30
0.0
 11
44.11043902771874
 21
-54.80923301743359
 31
0.0
  0
LINE
  5
36E
330
17
100
AcDbEntity
  8
0
 62
8
100
AcDbLine
 10
44.11043902771874
 20
-54.80923301743359
 30
0.0
 11
44.61043902771874
 21
-54.3092330174336
 31
0.0
  0
LWPOLYLINE
  5
36F
330
17
100
AcDbEntity
  8
0
 62
8
100
AcDbPolyline
 90
3
 70
1
 10
44.13543902771873
 20
-54.74887767837428
 10
44.55008368865942
 20
-54.3342330174336
 10
44.13543902771873
 20
-54.3342330174336
  0
LWPOLYLINE
  5
370
330
17
100
AcDbEntity
  8
0
 62
8
100
AcDbPolyline
 90
5
 70
0
 10
44.11043902771874
 20
-54.80923301743359
 10
43.61043902771874
 20
-54.3092330174336
 10
44.11043902771873
 20
-53.80923301743361
 10
44.61043902771874
 20
-54.3092330174336
 10
44.11043902771874
 20
-54.80923301743359
  0
LWPOLYLINE
  5
371
330
17
100
AcDbEntity
  8
0
100
AcDbPolyline
 90
4
 70
1
 10
29.83053933131887
 20
-67.88518670532045
 10
31.01072603684237
 20
-67.88518670532045
 10
31.01072603684237
 20
-69.38518670532045
 10
29.83053933131887
 20
-69.38518670532045
  0
LWPOLYLINE
  5
372
330
17
100
AcDbEntity
  8
0
100
AcDbPolyline
 90
8
 70
1
 10
30.03053933131887
 20
-67.88518670532045
 10
29.83053933131887
 20
-67.88518670532045
 10
29.83053933131887
 20
-68.7950933525587
 42
1.0
 10
31.01072603684237
 20
-68.7950933525587
 10
31.01072603684237
 20
-67.88518670532045
 10
30.81072603684237
 20
-67.88518670532045
 10
30.81072603684237
 20
-68.7950933525587
 42
-1.0
 10
30.03053933131887
 20
-68.7950933525587
  0
LWPOLYLINE
  5
373
330
17
100
AcDbEntity
  8
0
100
AcDbPolyline
 90
4
 70
1
 10
28.56775572890104
 20
-67.88518670532045
 10
29.74794243442455
 20
-67.88518670532045
 10
29.74794243442455
 20
-69.38518670532045
 10
28.56775572890104
 20
-69.38518670532045
  0
LWPOLYLINE
  5
374
330
17
100
AcDbEntity
  8
0
100
AcDbPolyline
 90
9
 70
1
 10
29.83053933131887
 20
-67.88518670532045
 10
29.59369730841158
 20
-67.88518670532045
 10
29.15784908166279
 20
-68.5723047283094
 10
28.722000854914
 20
-67.88518670532045
 10
28.48515883200672
 20
-67.88518670532045
 10
29.0578490816628
 20
-68.78803721147962
 10
29.05784908166279
 20
-69.38518670532045
 10
29.2578490816628
 20
-69.38518670532045
 10
29.2578490816628
 20
-68.7880372114796
  0
LWPOLYLINE
  5
375
330
17
100
AcDbEntity
  8
0
100
AcDbPolyline
 90
4
 70
1
 10
27.28756902337754
 20
-67.88518670532045
 10
28.46775572890104
 20
-67.88518670532045
 10
28.46775572890104
 20
-69.38518670532045
 10
27.28756902337754
 20
-69.38518670532045
  0
LWPOLYLINE
  5
376
330
17
100
AcDbEntity
  8
0
100
AcDbPolyline
 90
8
 70
1
 10
27.48756902337753
 20
-67.88518670532045
 10
27.28756902337754
 20
-67.88518670532045
 10
27.28756902337754
 20
-68.7950933525587
 42
1.0
 10
28.46775572890104
 20
-68.7950933525587
 10
28.46775572890104
 20
-67.88518670532045
 10
28.26775572890104
 20
-67.88518670532045
 10
28.26775572890104
 20
-68.7950933525587
 42
-1.0
 10
27.48756902337753
 20
-68.7950933525587
  0
LWPOLYLINE
  5
377
330
17
100
AcDbEntity
  8
0
100
AcDbPolyline
 90
4
 70
1
 10
31.01072603684237
 20
-67.88518670532045
 10
32.19091274236588
 20
-67.88518670532045
 10
32.19091274236588
 20
-69.38518670532045
 10
31.01072603684237
 20
-69.38518670532045
  0
LWPOLYLINE
  5
378
330
17
100
AcDbEntity
  8
0
100
AcDbPolyline
 90
10
 70
1
 10
31.21072603684238
 20
-68.21706849130744
 10
31.99091274236588
 20
-69.38518670532045
 10
32.19091274236588
 20
-69.38518670532045
 10
32.19091274236588
 20
-67.88518670532045
 10
31.99091274236588
 20
-67.88518670532045
 10
31.99091274236588
 20
-69.05330491933346
 10
31.21072603684238
 20
-67.88518670532045
 10
31.01072603684237
 20
-67.88518670532045
 10
31.01072603684237
 20
-69.38518670532045
 10
31.21072603684238
 20
-69.38518670532045
  0
LWPOLYLINE
  5
379
330
17
100
AcDbEntity
  8
0
100
AcDbPolyline
 90
4
 70
1
 10
32.68100609512764
 20
-67.88518670532045
 10
32.88100609512765
 20
-67.88518670532045
 10
32.88100609512765
 20
-69.38518670532045
 10
32.68100609512764
 20
-69.38518670532045
  0
LWPOLYLINE
  5
37A
330
17
100
AcDbEntity
  8
0
100
AcDbPolyline
 90
4
 70
1
 10
32.19091274236588
 20
-67.88518670532045
 10
33.37109944788939
 20
-67.88518670532045
 10
33.37109944788939
 20
-69.38518670532045
 10
32.19091274236588
 20
-69.38518670532045
  0
ENDSEC
  0
SECTION
  2
OBJECTS
  0
DICTIONARY
  5
A
330
0
100
AcDbDictionary
281
1
  3
ACAD_COLOR
350
B
  3
ACAD_GROUP
350
C
  3
ACAD_LAYOUT
350
D
  3
ACAD_MATERIAL
350
E
  3
ACAD_MLEADERSTYLE
350
F
  3
ACAD_MLINESTYLE
350
10
  3
ACAD_PLOTSETTINGS
350
11
  3
ACAD_PLOTSTYLENAME
350
12
  3
ACAD_SCALELIST
350
14
  3
ACAD_TABLESTYLE
350
15
  3
ACAD_VISUALSTYLE
350
16
  3
EZDXF_META
350
2D
  0
DICTIONARY
  5
B
330
A
100
AcDbDictionary
281
1
  0
DICTIONARY
  5
C
330
A
100
AcDbDictionary
281
1
  0
DICTIONARY
  5
D
330
A
100
AcDbDictionary
281
1
  3
Model
350
1A
  3
Layout1
350
1E
  0
DICTIONARY
  5
E
330
A
100
AcDbDictionary
281
1
  3
ByBlock
350
1F
  3
ByLayer
350
20
  3
Global
350
21
  0
DICTIONARY
  5
F
330
A
100
AcDbDictionary
281
1
  3
Standard
350
2C
  0
DICTIONARY
  5
10
330
A
100
AcDbDictionary
281
1
  3
Standard
350
22
  0
DICTIONARY
  5
11
330
A
100
AcDbDictionary
281
1
  0
ACDBDICTIONARYWDFLT
  5
12
330
A
100
AcDbDictionary
281
1
  3
Normal
350
13
100
AcDbDictionaryWithDefault
340
13
  0
ACDBPLACEHOLDER
  5
13
330
12
  0
DICTIONARY
  5
14
330
A
100
AcDbDictionary
281
1
  0
DICTIONARY
  5
15
330
A
100
AcDbDictionary
281
1
  0
DICTIONARY
  5
16
330
A
100
AcDbDictionary
281
1
  0
LAYOUT
  5
1A
330
D
100
AcDbPlotSettings
  1

  4
A3
  6

 40
7.5
 41
20.0
 42
7.5
 43
20.0
 44
420.0
 45
297.0
 46
0.0
 47
0.0
 48
0.0
 49
0.0
140
0.0
141
0.0
142
1.0
143
1.0
 70
1024
 72
1
 73
0
 74
5
  7

 75
16
 76
0
 77
2
 78
300
147
1.0
148
0.0
149
0.0
100
AcDbLayout
  1
Model
 70
1
 71
0
 10
0.0
 20
0.0
 11
420.0
 21
297.0
 12
0.0
 22
0.0
 32
0.0
 14
1e+20
 24
1e+20
 34
1e+20
 15
-1e+20
 25
-1e+20
 35
-1e+20
146
0.0
 13
0.0
 23
0.0
 33
0.0
 16
1.0
 26
0.0
 36
0.0
 17
0.0
 27
1.0
 37
0.0
 76
1
330
17
  0
LAYOUT
  5
1E
330
D
100
AcDbPlotSettings
  1

  4
A3
  6

 40
7.5
 41
20.0
 42
7.5
 43
20.0
 44
420.0
 45
297.0
 46
0.0
 47
0.0
 48
0.0
 49
0.0
140
0.0
141
0.0
142
1.0
143
1.0
 70
0
 72
1
 73
0
 74
5
  7

 75
16
 76
0
 77
2
 78
300
147
1.0
148
0.0
149
0.0
100
AcDbLayout
  1
Layout1
 70
1
 71
1
 10
0.0
 20
0.0
 11
420.0
 21
297.0
 12
0.0
 22
0.0
 32
0.0
 14
1e+20
 24
1e+20
 34
1e+20
 15
-1e+20
 25
-1e+20
 35
-1e+20
146
0.0
 13
0.0
 23
0.0
 33
0.0
 16
1.0
 26
0.0
 36
0.0
 17
0.0
 27
1.0
 37
0.0
 76
1
330
1B
  0
MATERIAL
  5
1F
102
{ACAD_REACTORS
330
E
102
}
330
E
100
AcDbMaterial
  1
ByBlock
  2

 70
0
 40
1.0
 71
1
 41
1.0
 91
-1023410177
 42
1.0
 72
1
  3

 73
1
 74
1
 75
1
 44
0.5
 73
0
 45
1.0
 46
1.0
 77
1
  4

 78
1
 79
1
170
1
 48
1.0
171
1
  6

172
1
173
1
174
1
140
1.0
141
1.0
175
1
  7

176
1
177
1
178
1
143
1.0
179
1
  8

270
1
271
1
272
1
145
1.0
146
1.0
273
1
  9

274
1
275
1
276
1
 42
1.0
 72
1
  3

 73
1
 74
1
 75
1
 94
63
  0
MATERIAL
  5
20
102
{ACAD_REACTORS
330
E
102
}
330
E
100
AcDbMaterial
  1
ByLayer
  2

 70
0
 40
1.0
 71
1
 41
1.0
 91
-1023410177
 42
1.0
 72
1
  3

 73
1
 74
1
 75
1
 44
0.5
 73
0
 45
1.0
 46
1.0
 77
1
  4

 78
1
 79
1
170
1
 48
1.0
171
1
  6

172
1
173
1
174
1
140
1.0
141
1.0
175
1
  7

176
1
177
1
178
1
143
1.0
179
1
  8

270
1
271
1
272
1
145
1.0
146
1.0
273
1
  9

274
1
275
1
276
1
 42
1.0
 72
1
  3

 73
1
 74
1
 75
1
 94
63
  0
MATERIAL
  5
21
102
{ACAD_REACTORS
330
E
102
}
330
E
100
AcDbMaterial
  1
Global
  2

 70
0
 40
1.0
 71
1
 41
1.0
 91
-1023410177
 42
1.0
 72
1
  3

 73
1
 74
1
 75
1
 44
0.5
 73
0
 45
1.0
 46
1.0
 77
1
  4

 78
1
 79
1
170
1
 48
1.0
171
1
  6

172
1
173
1
174
1
140
1.0
141
1.0
175
1
  7

176
1
177
1
178
1
143
1.0
179
1
  8

270
1
271
1
272
1
145
1.0
146
1.0
273
1
  9

274
1
275
1
276
1
 42
1.0
 72
1
  3

 73
1
 74
1
 75
1
 94
63
  0
MLINESTYLE
  5
22
102
{ACAD_REACTORS
330
10
102
}
330
10
100
AcDbMlineStyle
  2
Standard
 70
0
  3

 62
256
 51
90.0
 52
90.0
 71
2
 49
0.5
 62
256
  6
BYLAYER
 49
-0.5
 62
256
  6
BYLAYER
  0
MLEADERSTYLE
  5
2C
102
{ACAD_REACTORS
330
F
102
}
330
F
100
AcDbMLeaderStyle
179
2
170
2
171
1
172
0
 90
2
 40
0.0
 41
0.0
173
1
 91
-1056964608
 92
-2
290
1
 42
2.0
291
1
 43
8.0
  3
Standard
 44
4.0
300

342
29
174
1
175
1
176
0
178
1
 93
-1056964608
 45
4.0
292
0
297
0
 46
4.0
 94
-1056964608
 47
1.0
 49
1.0
140
1.0
294
1
141
0.0
177
0
142
1.0
295
0
296
0
143
3.75
271
0
272
9
273
9
  0
DICTIONARY
  5
2D
330
A
100
AcDbDictionary
280
1
281
1
  3
CREATED_BY_EZDXF
350
2E
  3
WRITTEN_BY_EZDXF
350
37D
  0
DICTIONARYVAR
  5
2E
330
2D
100
DictionaryVariables
280
0
  1
1.4.4 @ 2026-10-03T07:35:41.151482+00:00
  0
DICTIONARYVAR
  5
37D
330
2D
100
DictionaryVariables
280
0
  1
1.4.4 @ 2026-10-03T07:35:41.232732+00:00
  0
ENDSEC
  0
EOF
