  0
SECTION
  2
HEADER
  9
$ACADVER
  1
AC1032
  9
$ACADMAINTVER
 90
4
  9
$DWGCODEPAGE
  3
ANSI_1252
  9
$LASTSAVEDBY
  1
ezdxf
  9
$REQUIREDVERSIONS
160
0
  9
$INSBASE
 10
0.0
 20
0.0
 30
0.0
  9
$EXTMIN
 10
1e+20
 20
1e+20
 30
1e+20
  9
$EXTMAX
 10
-1e+20
 20
-1e+20
 30
-1e+20
  9
$LIMMIN
 10
0.0
 20
0.0
  9
$LIMMAX
 10
420.0
 20
297.0
  9
$ORTHOMODE
 70
0
  9
$REGENMODE
 70
1
  9
$FILLMODE
 70
1
  9
$QTEXTMODE
 70
0
  9
$MIRRTEXT
 70
1
  9
$LTSCALE
 40
1.0
  9
$ATTMODE
 70
1
  9
$TEXTSIZE
 40
2.5
  9
$TRACEWID
 40
1.0
  9
$TEXTSTYLE
  7
Standard
  9
$CLAYER
  8
0
  9
$CELTYPE
  6
ByLayer
  9
$CECOLOR
 62
256
  9
$CELTSCALE
 40
1.0
  9
$DISPSILH
 70
0
  9
$DIMSCALE
 40
1.0
  9
$DIMASZ
 40
2.5
  9
$DIMEXO
 40
0.625
  9
$DIMDLI
 40
3.75
  9
$DIMRND
 40
0.0
  9
$DIMDLE
 40
0.0
  9
$DIMEXE
 40
1.25
  9
$DIMTP
 40
0.0
  9
$DIMTM
 40
0.0
  9
$DIMTXT
 40
2.5
  9
$DIMCEN
 40
2.5
  9
$DIMTSZ
 40
0.0
  9
$DIMTOL
 70
0
  9
$DIMLIM
 70
0
  9
$DIMTIH
 70
0
  9
$DIMTOH
 70
0
  9
$DIMSE1
 70
0
  9
$DIMSE2
 70
0
  9
$DIMTAD
 70
1
  9
$DIMZIN
 70
8
  9
$DIMBLK
  1

  9
$DIMASO
 70
1
  9
$DIMSHO
 70
1
  9
$DIMPOST
  1

  9
$DIMAPOST
  1

  9
$DIMALT
 70
0
  9
$DIMALTD
 70
3
  9
$DIMALTF
 40
0.03937007874
  9
$DIMLFAC
 40
1.0
  9
$DIMTOFL
 70
1
  9
$DIMTVP
 40
0.0
  9
$DIMTIX
 70
0
  9
$DIMSOXD
 70
0
  9
$DIMSAH
 70
0
  9
$DIMBLK1
  1

  9
$DIMBLK2
  1

  9
$DIMSTYLE
  2
ISO-25
  9
$DIMCLRD
 70
0
  9
$DIMCLRE
 70
0
  9
$DIMCLRT
 70
0
  9
$DIMTFAC
 40
1.0
  9
$DIMGAP
 40
0.625
  9
$DIMJUST
 70
0
  9
$DIMSD1
 70
0
  9
$DIMSD2
 70
0
  9
$DIMTOLJ
 70
0
  9
$DIMTZIN
 70
8
  9
$DIMALTZ
 70
0
  9
$DIMALTTZ
 70
0
  9
$DIMUPT
 70
0
  9
$DIMDEC
 70
2
  9
$DIMTDEC
 70
2
  9
$DIMALTU
 70
2
  9
$DIMALTTD
 70
3
  9
$DIMTXSTY
  7
Standard
  9
$DIMAUNIT
 70
0
  9
$DIMADEC
 70
0
  9
$DIMALTRND
 40
0.0
  9
$DIMAZIN
 70
0
  9
$DIMDSEP
 70
44
  9
$DIMATFIT
 70
3
  9
$DIMFRAC
 70
0
  9
$DIMLDRBLK
  1

  9
$DIMLUNIT
 70
2
  9
$DIMLWD
 70
-2
  9
$DIMLWE
 70
-2
  9
$DIMTMOVE
 70
0
  9
$DIMFXL
 40
1.0
  9
$DIMFXLON
 70
0
  9
$DIMJOGANG
 40
0.785398163397
  9
$DIMTFILL
 70
0
  9
$DIMTFILLCLR
 70
0
  9
$DIMARCSYM
 70
0
  9
$DIMLTYPE
  6

  9
$DIMLTEX1
  6

  9
$DIMLTEX2
  6

  9
$DIMTXTDIRECTION
 70
0
  9
$LUNITS
 70
2
  9
$LUPREC
 70
4
  9
$SKETCHINC
 40
1.0
  9
$FILLETRAD
 40
10.0
  9
$AUNITS
 70
0
  9
$AUPREC
 70
2
  9
$MENU
  1
.
  9
$ELEVATION
 40
0.0
  9
$PELEVATION
 40
0.0
  9
$THICKNESS
 40
0.0
  9
$LIMCHECK
 70
0
  9
$CHAMFERA
 40
0.0
  9
$CHAMFERB
 40
0.0
  9
$CHAMFERC
 40
0.0
  9
$CHAMFERD
 40
0.0
  9
$SKPOLY
 70
0
  9
$TDCREATE
 40
2461317.3164236112
  9
$TDUCREATE
 40
2458532.153996898
  9
$TDUPDATE
 40
2461317.3164236112
  9
$TDUUPDATE
 40
2458532.1544311
  9
$TDINDWG
 40
0.0
  9
$TDUSRTIMER
 40
0.0
  9
$USRTIMER
 70
1
  9
$ANGBASE
 50
0.0
  9
$ANGDIR
 70
0
  9
$PDMODE
 70
0
  9
$PDSIZE
 40
0.0
  9
$PLINEWID
 40
0.0
  9
$SPLFRAME
 70
0
  9
$SPLINETYPE
 70
6
  9
$SPLINESEGS
 70
8
  9
$HANDSEED
  5
176
  9
$SURFTAB1
 70
6
  9
$SURFTAB2
 70
6
  9
$SURFTYPE
 70
6
  9
$SURFU
 70
6
  9
$SURFV
 70
6
  9
$UCSBASE
  2

  9
$UCSNAME
  2

  9
$UCSORG
 10
0.0
 20
0.0
 30
0.0
  9
$UCSXDIR
 10
1.0
 20
0.0
 30
0.0
  9
$UCSYDIR
 10
0.0
 20
1.0
 30
0.0
  9
$UCSORTHOREF
  2

  9
$UCSORTHOVIEW
 70
0
  9
$UCSORGTOP
 10
0.0
 20
0.0
 30
0.0
  9
$UCSORGBOTTOM
 10
0.0
 20
0.0
 30
0.0
  9
$UCSORGLEFT
 10
0.0
 20
0.0
 30
0.0
  9
$UCSORGRIGHT
 10
0.0
 20
0.0
 30
0.0
  9
$UCSORGFRONT
 10
0.0
 20
0.0
 30
0.0
  9
$UCSORGBACK
 10
0.0
 20
0.0
 30
0.0
  9
$PUCSBASE
  2

  9
$PUCSNAME
  2

  9
$PUCSORG
 10
0.0
 20
0.0
 30
0.0
  9
$PUCSXDIR
 10
1.0
 20
0.0
 30
0.0
  9
$PUCSYDIR
 10
0.0
 20
1.0
 30
0.0
  9
$PUCSORTHOREF
  2

  9
$PUCSORTHOVIEW
 70
0
  9
$PUCSORGTOP
 10
0.0
 20
0.0
 30
0.0
  9
$PUCSORGBOTTOM
 10
0.0
 20
0.0
 30
0.0
  9
$PUCSORGLEFT
 10
0.0
 20
0.0
 30
0.0
  9
$PUCSORGRIGHT
 10
0.0
 20
0.0
 30
0.0
  9
$PUCSORGFRONT
 10
0.0
 20
0.0
 30
0.0
  9
$PUCSORGBACK
 10
0.0
 20
0.0
 30
0.0
  9
$USERI1
 70
0
  9
$USERI2
 70
0
  9
$USERI3
 70
0
  9
$USERI4
 70
0
  9
$USERI5
 70
0
  9
$USERR1
 40
0.0
  9
$USERR2
 40
0.0
  9
$USERR3
 40
0.0
  9
$USERR4
 40
0.0
  9
$USERR5
 40
0.0
  9
$WORLDVIEW
 70
1
  9
$SHADEDGE
 70
3
  9
$SHADEDIF
 70
70
  9
$TILEMODE
 70
1
  9
$MAXACTVP
 70
64
  9
$PINSBASE
 10
0.0
 20
0.0
 30
0.0
  9
$PLIMCHECK
 70
0
  9
$PEXTMIN
 10
1e+20
 20
1e+20
 30
1e+20
  9
$PEXTMAX
 10
-1e+20
 20
-1e+20
 30
-1e+20
  9
$PLIMMIN
 10
0.0
 20
0.0
  9
$PLIMMAX
 10
420.0
 20
297.0
  9
$UNITMODE
 70
0
  9
$VISRETAIN
 70
1
  9
$PLINEGEN
 70
0
  9
$PSLTSCALE
 70
1
  9
$TREEDEPTH
 70
3020
  9
$CMLSTYLE
  2
Standard
  9
$CMLJUST
 70
0
  9
$CMLSCALE
 40
20.0
  9
$PROXYGRAPHICS
 70
1
  9
$MEASUREMENT
 70
1
  9
$CELWEIGHT
370
-1
  9
$ENDCAPS
280
0
  9
$JOINSTYLE
280
0
  9
$LWDISPLAY
290
0
  9
$INSUNITS
 70
6
  9
$HYPERLINKBASE
  1

  9
$STYLESHEET
  1

  9
$XEDIT
290
1
  9
$CEPSNTYPE
380
0
  9
$PSTYLEMODE
290
1
  9
$FINGERPRINTGUID
  2
{EB2252EA-A12D-4E1E-8A87-E29A94F048EF}
  9
$VERSIONGUID
  2
{644AA74C-2C25-4B38-8D4D-27E898C1F19D}
  9
$EXTNAMES
290
1
  9
$PSVPSCALE
 40
0.0
  9
$OLESTARTUP
290
0
  9
$SORTENTS
280
127
  9
$INDEXCTL
280
0
  9
$HIDETEXT
280
1
  9
$XCLIPFRAME
280
1
  9
$HALOGAP
280
0
  9
$OBSCOLOR
 70
257
  9
$OBSLTYPE
280
0
  9
$INTERSECTIONDISPLAY
280
0
  9
$INTERSECTIONCOLOR
 70
257
  9
$DIMASSOC
280
2
  9
$PROJECTNAME
  1

  9
$CAMERADISPLAY
290
0
  9
$LENSLENGTH
 40
50.0
  9
$CAMERAHEIGHT
 40
0.0
  9
$STEPSPERSEC
 40
24.0
  9
$STEPSIZE
 40
100.0
  9
$3DDWFPREC
 40
2.0
  9
$PSOLWIDTH
 40
0.005
  9
$PSOLHEIGHT
 40
0.08
  9
$LOFTANG1
 40
1.570796326795
  9
$LOFTANG2
 40
1.570796326795
  9
$LOFTMAG1
 40
0.0
  9
$LOFTMAG2
 40
0.0
  9
$LOFTPARAM
 70
7
  9
$LOFTNORMALS
280
1
  9
$LATITUDE
 40
37.795
  9
$LONGITUDE
 40
-122.394
  9
$NORTHDIRECTION
 40
0.0
  9
$TIMEZONE
 70
-8000
  9
$LIGHTGLYPHDISPLAY
280
1
  9
$TILEMODELIGHTSYNCH
280
1
  9
$CMATERIAL
347
20
  9
$SOLIDHIST
280
0
  9
$SHOWHIST
280
1
  9
$DWFFRAME
280
2
  9
$DGNFRAME
280
2
  9
$REALWORLDSCALE
290
1
  9
$INTERFERECOLOR
 62
256
  9
$CSHADOW
280
0
  9
$SHADOWPLANELOCATION
 40
0.0
  0
ENDSEC
  0
SECTION
  2
CLASSES
  0
CLASS
  1
ACDBDICTIONARYWDFLT
  2
AcDbDictionaryWithDefault
  3
ObjectDBX Classes
 90
0
 91
0
280
0
281
0
  0
CLASS
  1
SUN
  2
AcDbSun
  3
SCENEOE
 90
1153
 91
0
280
0
281
0
  0
CLASS
  1
VISUALSTYLE
  2
AcDbVisualStyle
  3
ObjectDBX Classes
 90
4095
 91
0
280
0
281
0
  0
CLASS
  1
MATERIAL
  2
AcDbMaterial
  3
ObjectDBX Classes
 90
1153
 91
0
280
0
281
0
  0
CLASS
  1
SCALE
  2
AcDbScale
  3
ObjectDBX Classes
 90
1153
 91
0
280
0
281
0
  0
CLASS
  1
TABLESTYLE
  2
AcDbTableStyle
  3
ObjectDBX Classes
 90
4095
 91
0
280
0
281
0
  0
CLASS
  1
MLEADERSTYLE
  2
AcDbMLeaderStyle
  3
ACDB_MLEADERSTYLE_CLASS
 90
4095
 91
0
280
0
281
0
  0
CLASS
  1
DICTIONARYVAR
  2
AcDbDictionaryVar
  3
ObjectDBX Classes
 90
0
 91
0
280
0
281
0
  0
CLASS
  1
CELLSTYLEMAP
  2
AcDbCellStyleMap
  3
ObjectDBX Classes
 90
1152
 91
0
280
0
281
0
  0
CLASS
  1
MENTALRAYRENDERSETTINGS
  2
AcDbMentalRayRenderSettings
  3
SCENEOE
 90
1024
 91
0
280
0
281
0
  0
CLASS
  1
ACDBDETAILVIEWSTYLE
  2
AcDbDetailViewStyle
  3
ObjectDBX Classes
 90
1025
 91
0
280
0
281
0
  0
CLASS
  1
ACDBSECTIONVIEWSTYLE
  2
AcDbSectionViewStyle
  3
ObjectDBX Classes
 90
1025
 91
0
280
0
281
0
  0
CLASS
  1
RASTERVARIABLES
  2
AcDbRasterVariables
  3
ISM
 90
0
 91
0
280
0
281
0
  0
CLASS
  1
ACDBPLACEHOLDER
  2
AcDbPlaceHolder
  3
ObjectDBX Classes
 90
0
 91
0
280
0
281
0
  0
CLASS
  1
LAYOUT
  2
AcDbLayout
  3
ObjectDBX Classes
 90
0
 91
0
280
0
281
0
  0
ENDSEC
  0
SECTION
  2
TABLES
  0
TABLE
  2
VPORT
  5
8
330
0
100
AcDbSymbolTable
 70
1
  0
VPORT
  5
23
330
8
100
AcDbSymbolTableRecord
100
AcDbViewportTableRecord
  2
*Active
 70
0
 10
0.0
 20
0.0
 11
1.0
 21
1.0
 12
0.0
 22
0.0
 13
0.0
 23
0.0
 14
0.5
 24
0.5
 15
0.5
 25
0.5
 16
0.0
 26
0.0
 36
1.0
 17
0.0
 27
0.0
 37
0.0
 40
1000.0
 41
1.34
 42
50.0
 43
0.0
 44
0.0
 50
0.0
 51
0.0
 71
0
 72
1000
 73
1
 74
3
 75
0
 76
0
 77
0
 78
0
281
0
 65
0
146
0.0
  0
ENDTAB
  0
TABLE
  2
LTYPE
  5
2
330
0
100
AcDbSymbolTable
 70
3
  0
LTYPE
  5
24
330
2
100
AcDbSymbolTableRecord
100
AcDbLinetypeTableRecord
  2
ByBlock
 70
0
  3

 72
65
 73
0
 40
0.0
  0
LTYPE
  5
25
330
2
100
AcDbSymbolTableRecord
100
AcDbLinetypeTableRecord
  2
ByLayer
 70
0
  3

 72
65
 73
0
 40
0.0
  0
LTYPE
  5
26
330
2
100
AcDbSymbolTableRecord
100
AcDbLinetypeTableRecord
  2
Continuous
 70
0
  3

 72
65
 73
0
 40
0.0
  0
ENDTAB
  0
TABLE
  2
LAYER
  5
1
330
0
100
AcDbSymbolTable
 70
4
  0
LAYER
  5
27
330
1
100
AcDbSymbolTableRecord
100
AcDbLayerTableRecord
  2
0
 70
0
 62
7
  6
Continuous
370
-3
390
13
347
21
  0
LAYER
  5
28
330
1
100
AcDbSymbolTableRecord
100
AcDbLayerTableRecord
  2
Defpoints
 70
0
 62
7
  6
Continuous
290
0
370
-3
390
13
347
21
  0
LAYER
  5
2F
330
1
100
AcDbSymbolTableRecord
100
AcDbLayerTableRecord
  2
A-WALL
 70
0
 62
7
  6
Continuous
370
-3
390
13
347
21
  0
LAYER
  5
D7
330
1
100
AcDbSymbolTableRecord
100
AcDbLayerTableRecord
  2
0-COTAS REF
 70
0
 62
7
  6
Continuous
370
-3
390
13
347
21
  0
ENDTAB
  0
TABLE
  2
STYLE
  5
5
330
0
100
AcDbSymbolTable
 70
1
  0
STYLE
  5
29
330
5
100
AcDbSymbolTableRecord
100
AcDbTextStyleTableRecord
  2
Standard
 70
0
 40
0.0
 41
1.0
 50
0.0
 71
0
 42
2.5
  3
txt
  4

  0
ENDTAB
  0
TABLE
  2
VIEW
  5
7
330
0
100
AcDbSymbolTable
 70
0
  0
ENDTAB
  0
TABLE
  2
UCS
  5
6
330
0
100
AcDbSymbolTable
 70
0
  0
ENDTAB
  0
TABLE
  2
APPID
  5
3
330
0
100
AcDbSymbolTable
 70
3
  0
APPID
  5
2A
330
3
100
AcDbSymbolTableRecord
100
AcDbRegAppTableRecord
  2
ACAD
 70
0
  0
APPID
  5
173
330
3
100
AcDbSymbolTableRecord
100
AcDbRegAppTableRecord
  2
HATCHBACKGROUNDCOLOR
 70
0
  0
APPID
  5
174
330
3
100
AcDbSymbolTableRecord
100
AcDbRegAppTableRecord
  2
EZDXF
 70
0
  0
ENDTAB
  0
TABLE
  2
DIMSTYLE
  5
4
330
0
100
AcDbSymbolTable
 70
1
100
AcDbDimStyleTable
  0
DIMSTYLE
105
2B
330
4
100
AcDbSymbolTableRecord
100
AcDbDimStyleTableRecord
  2
Standard
 70
0
 40
1.0
 41
2.5
 42
0.625
 43
3.75
 44
1.25
 45
0.0
 46
0.0
 47
0.0
 48
0.0
 49
2.5
140
2.5
141
2.5
142
0.0
143
0.03937007874
144
1.0
145
0.0
146
1.0
147
0.625
148
0.0
 69
0
 70
0
 71
0
 72
0
 73
0
 74
0
 75
0
 76
0
 77
1
 78
8
 79
3
170
0
171
3
172
1
173
0
174
0
175
0
176
0
177
0
178
0
179
2
271
2
272
2
273
2
274
3
275
0
276
0
277
2
278
44
279
0
280
0
281
0
282
0
283
0
284
8
285
0
286
0
288
0
289
3
290
0
371
-2
372
-2
  0
ENDTAB
  0
TABLE
  2
BLOCK_RECORD
  5
9
330
0
100
AcDbSymbolTable
 70
2
  0
BLOCK_RECORD
  5
17
330
9
100
AcDbSymbolTableRecord
100
AcDbBlockTableRecord
  2
*Model_Space
340
1A
 70
0
280
1
281
0
  0
BLOCK_RECORD
  5
1B
330
9
100
AcDbSymbolTableRecord
100
AcDbBlockTableRecord
  2
*Paper_Space
340
1E
 70
0
280
1
281
0
  0
ENDTAB
  0
ENDSEC
  0
SECTION
  2
BLOCKS
  0
BLOCK
  5
18
330
17
100
AcDbEntity
  8
0
100
AcDbBlockBegin
  2
*Model_Space
 70
0
 10
0.0
 20
0.0
 30
0.0
  3
*Model_Space
  1

  0
ENDBLK
  5
19
330
17
100
AcDbEntity
  8
0
100
AcDbBlockEnd
  0
BLOCK
  5
1C
330
1B
100
AcDbEntity
  8
0
100
AcDbBlockBegin
  2
*Paper_Space
 70
0
 10
0.0
 20
0.0
 30
0.0
  3
*Paper_Space
  1

  0
ENDBLK
  5
1D
330
1B
100
AcDbEntity
  8
0
100
AcDbBlockEnd
  0
ENDSEC
  0
SECTION
  2
ENTITIES
  0
LINE
  5
30
330
17
100
AcDbEntity
  8
A-WALL
100
AcDbLine
 10
129.5767291678747
 20
-20.34494023890431
 30
0.0
 11
129.5767291678747
 21
-20.72699874919947
 31
0.0
  0
LINE
  5
31
330
17
100
AcDbEntity
  8
A-WALL
100
AcDbLine
 10
129.5767291678747
 20
-20.72699874919947
 30
0.0
 11
129.9158806447508
 21
-20.72699874919947
 31
0.0
  0
LINE
  5
32
330
17
100
AcDbEntity
  8
A-WALL
100
AcDbLine
 10
129.9158806447508
 20
-20.72699874919947
 30
0.0
 11
129.5767291678747
 21
-21.06098369508709
 31
0.0
  0
LINE
  5
33
330
17
100
AcDbEntity
  8
A-WALL
100
AcDbLine
 10
129.5767291678747
 20
-21.06098369508709
 30
0.0
 11
129.5767291678748
 21
-21.60126971053115
 31
0.0
  0
ARC
  5
34
330
17
100
AcDbEntity
  8
A-WALL
100
AcDbCircle
 10
129.5767291678747
 20
-21.77349800343636
 30
0.0
 40
0.1722282929052101
100
AcDbArc
 50
270.0000000000155
 51
89.99999999998697
  0
LINE
  5
35
330
17
100
AcDbEntity
  8
A-WALL
100
AcDbLine
 10
129.6392245945038
 20
-22.43924767287857
 30
0.0
 11
130.5076869604329
 21
-23.30771003876285
 31
0.0
  0
LINE
  5
36
330
17
100
AcDbEntity
  8
A-WALL
100
AcDbLine
 10
130.5076869604329
 20
-23.30771003876285
 30
0.0
 11
129.6392245945038
 21
-24.17617240473675
 31
0.0
  0
LINE
  5
37
330
17
100
AcDbEntity
  8
A-WALL
100
AcDbLine
 10
129.5767291678747
 20
-24.67996121026124
 30
0.0
 11
130.1886339465155
 21
-25.29186598890201
 31
0.0
  0
LINE
  5
38
330
17
100
AcDbEntity
  8
A-WALL
100
AcDbLine
 10
130.1886339465155
 20
-25.29186598890201
 30
0.0
 11
129.5767291678747
 21
-25.29186598890201
 31
0.0
  0
LINE
  5
39
330
17
100
AcDbEntity
  8
A-WALL
100
AcDbLine
 10
133.4038060485716
 20
-20.72699874920215
 30
0.0
 11
134.0823758377212
 21
-20.72699874920215
 31
0.0
  0
LINE
  5
3A
330
17
100
AcDbEntity
  8
A-WALL
100
AcDbLine
 10
134.0823758377212
 20
-20.72699874920215
 30
0.0
 11
133.7430909431452
 21
-21.06111508034329
 31
0.0
  0
LINE
  5
3B
330
17
100
AcDbEntity
  8
A-WALL
100
AcDbLine
 10
133.7430909431452
 20
-21.06111508034329
 30
0.0
 11
133.4038060485716
 21
-20.72699874920215
 31
0.0
  0
LINE
  5
3C
330
17
100
AcDbEntity
  8
A-WALL
100
AcDbLine
 10
132.5705336935172
 20
-20.72699874920214
 30
0.0
 11
133.2491034826669
 21
-20.72699874920214
 31
0.0
  0
LINE
  5
3D
330
17
100
AcDbEntity
  8
A-WALL
100
AcDbLine
 10
133.2491034826669
 20
-20.72699874920214
 30
0.0
 11
132.9098185880921
 21
-21.06111508034328
 31
0.0
  0
LINE
  5
3E
330
17
100
AcDbEntity
  8
A-WALL
100
AcDbLine
 10
132.9098185880921
 20
-21.06111508034328
 30
0.0
 11
132.5705336935172
 21
-20.72699874920214
 31
0.0
  0
LINE
  5
3F
330
17
100
AcDbEntity
  8
A-WALL
100
AcDbLine
 10
132.4158311276126
 20
-20.72699874919641
 30
0.0
 11
132.0765462330383
 21
-21.06111508033813
 31
0.0
  0
LINE
  5
40
330
17
100
AcDbEntity
  8
A-WALL
100
AcDbLine
 10
132.0765462330383
 20
-21.06111508033813
 30
0.0
 11
131.7372613384617
 21
-20.72699874919641
 31
0.0
  0
LINE
  5
41
330
17
100
AcDbEntity
  8
A-WALL
100
AcDbLine
 10
131.7372613384617
 20
-20.72699874919641
 30
0.0
 11
132.4158311276126
 21
-20.72699874919641
 31
0.0
  0
LINE
  5
42
330
17
100
AcDbEntity
  8
A-WALL
100
AcDbLine
 10
131.5825587725582
 20
-20.72699874919641
 30
0.0
 11
131.2432738779834
 21
-21.06111508033449
 31
0.0
  0
LINE
  5
43
330
17
100
AcDbEntity
  8
A-WALL
100
AcDbLine
 10
131.2432738779834
 20
-21.06111508033449
 30
0.0
 11
130.9039889834085
 21
-20.72699874919641
 31
0.0
  0
LINE
  5
44
330
17
100
AcDbEntity
  8
A-WALL
100
AcDbLine
 10
130.9039889834085
 20
-20.72699874919641
 30
0.0
 11
131.5825587725582
 21
-20.72699874919641
 31
0.0
  0
LINE
  5
45
330
17
100
AcDbEntity
  8
A-WALL
100
AcDbLine
 10
130.749286417505
 20
-20.72699874919947
 30
0.0
 11
130.410001522929
 21
-21.06111508034061
 31
0.0
  0
LINE
  5
46
330
17
100
AcDbEntity
  8
A-WALL
100
AcDbLine
 10
130.410001522929
 20
-21.06111508034061
 30
0.0
 11
130.0707166283554
 21
-20.72699874919947
 31
0.0
  0
LINE
  5
47
330
17
100
AcDbEntity
  8
A-WALL
100
AcDbLine
 10
130.0707166283554
 20
-20.72699874919947
 30
0.0
 11
130.749286417505
 21
-20.72699874919947
 31
0.0
  0
ARC
  5
48
330
17
100
AcDbEntity
  8
A-WALL
100
AcDbCircle
 10
133.3479541213344
 20
-21.77349800343939
 30
0.0
 40
0.1065976083175258
100
AcDbArc
 50
15.02588689196347
 51
164.9741131080396
  0
LINE
  5
49
330
17
100
AcDbEntity
  8
A-WALL
100
AcDbLine
 10
133.2450012141981
 20
-21.74586199411812
 30
0.0
 11
132.8156830405307
 21
-21.7458619941181
 31
0.0
  0
ARC
  5
4A
330
17
100
AcDbEntity
  8
A-WALL
100
AcDbCircle
 10
133.3479541213344
 20
-21.74586199411813
 30
0.0
 40
0.532271080803773
100
AcDbArc
 50
359.9999999999996
 51
179.9999999999998
  0
LINE
  5
4B
330
17
100
AcDbEntity
  8
A-WALL
100
AcDbLine
 10
133.8802252021382
 20
-21.74586199411813
 30
0.0
 11
133.4509070284707
 21
-21.7458619941181
 31
0.0
  0
LINE
  5
4C
330
17
100
AcDbEntity
  8
A-WALL
100
AcDbLine
 10
133.4509070284707
 20
-21.80113401275759
 30
0.0
 11
133.8802252021382
 21
-21.8011340127576
 31
0.0
  0
ARC
  5
4D
330
17
100
AcDbEntity
  8
A-WALL
100
AcDbCircle
 10
133.3479541213344
 20
-21.80113401275759
 30
0.0
 40
0.5322710808037662
100
AcDbArc
 50
180.0000000000002
 51
359.9999999999996
  0
LINE
  5
4E
330
17
100
AcDbEntity
  8
A-WALL
100
AcDbLine
 10
132.8156830405307
 20
-21.8011340127576
 30
0.0
 11
133.2450012141981
 21
-21.8011340127576
 31
0.0
  0
ARC
  5
4F
330
17
100
AcDbEntity
  8
A-WALL
100
AcDbCircle
 10
133.3479541213344
 20
-21.77349800343939
 30
0.0
 40
0.1065976083167457
100
AcDbArc
 50
195.0258868903675
 51
344.9741131096299
  0
ARC
  5
50
330
17
100
AcDbEntity
  8
A-WALL
100
AcDbCircle
 10
130.8051383447387
 20
-21.77349800343671
 30
0.0
 40
0.1065976083175401
100
AcDbArc
 50
15.02588689196305
 51
164.9741131080378
  0
LINE
  5
51
330
17
100
AcDbEntity
  8
A-WALL
100
AcDbLine
 10
130.7021854376024
 20
-21.74586199411544
 30
0.0
 11
130.272867263935
 21
-21.74586199411543
 31
0.0
  0
ARC
  5
52
330
17
100
AcDbEntity
  8
A-WALL
100
AcDbCircle
 10
130.8051383447387
 20
-21.74586199411544
 30
0.0
 40
0.5322710808037662
100
AcDbArc
 50
359.9999999999996
 51
179.9999999999998
  0
LINE
  5
53
330
17
100
AcDbEntity
  8
A-WALL
100
AcDbLine
 10
131.3374094255425
 20
-21.74586199411543
 30
0.0
 11
130.9080912518751
 21
-21.74586199411544
 31
0.0
  0
LINE
  5
54
330
17
100
AcDbEntity
  8
A-WALL
100
AcDbLine
 10
130.9080912518751
 20
-21.80113401275491
 30
0.0
 11
131.3374094255425
 21
-21.80113401275491
 31
0.0
  0
ARC
  5
55
330
17
100
AcDbEntity
  8
A-WALL
100
AcDbCircle
 10
130.8051383447387
 20
-21.80113401275491
 30
0.0
 40
0.5322710808037725
100
AcDbArc
 50
180.0000000000002
 51
359.9999999999996
  0
LINE
  5
56
330
17
100
AcDbEntity
  8
A-WALL
100
AcDbLine
 10
130.272867263935
 20
-21.8011340127549
 30
0.0
 11
130.7021854376024
 21
-21.80113401275491
 31
0.0
  0
ARC
  5
57
330
17
100
AcDbEntity
  8
A-WALL
100
AcDbCircle
 10
130.8051383447387
 20
-21.77349800343671
 30
0.0
 40
0.1065976083167457
100
AcDbArc
 50
195.0258868903675
 51
344.9741131096319
  0
ARC
  5
58
330
17
100
AcDbEntity
  8
A-WALL
100
AcDbCircle
 10
132.0765462330378
 20
-21.77349800343214
 30
0.0
 40
0.1718624232298842
100
AcDbArc
 50
2.036e-13
 51
180.0
  0
ARC
  5
59
330
17
100
AcDbEntity
  8
A-WALL
100
AcDbCircle
 10
132.0765462330378
 20
-21.77349800343214
 30
0.0
 40
0.1718624232298694
100
AcDbArc
 50
180.0000000000002
 51
359.9999999999994
  0
LINE
  5
5A
330
17
100
AcDbEntity
  8
A-WALL
100
AcDbLine
 10
133.5772100314848
 20
-23.55503735969803
 30
0.0
 11
132.1677041935152
 21
-24.96454319766835
 31
0.0
  0
ARC
  5
5B
330
17
100
AcDbEntity
  8
A-WALL
100
AcDbCircle
 10
132.0765462330389
 20
-25.02794607378381
 30
0.0
 40
0.1110391753297565
100
AcDbArc
 50
145.1803215949148
 51
34.81967840508819
  0
LINE
  5
5C
330
17
100
AcDbEntity
  8
A-WALL
100
AcDbLine
 10
131.9853882725626
 20
-24.96454319766835
 30
0.0
 11
130.575882434593
 21
-23.55503735969801
 31
0.0
  0
LINE
  5
5D
330
17
100
AcDbEntity
  8
A-WALL
100
AcDbLine
 10
130.575882434593
 20
-23.55503735969801
 30
0.0
 11
130.1863724213425
 21
-23.94454737294827
 31
0.0
  0
LINE
  5
5E
330
17
100
AcDbEntity
  8
A-WALL
100
AcDbLine
 10
130.1863724213425
 20
-23.94454737294827
 30
0.0
 11
130.2979799488843
 21
-24.05615490049007
 31
0.0
  0
LINE
  5
5F
330
17
100
AcDbEntity
  8
A-WALL
100
AcDbLine
 10
130.2979799488843
 20
-24.05615490049007
 30
0.0
 11
130.9693371772504
 21
-24.05615490049007
 31
0.0
  0
LINE
  5
60
330
17
100
AcDbEntity
  8
A-WALL
100
AcDbLine
 10
130.9693371772504
 20
-24.05615490049007
 30
0.0
 11
130.575882434593
 21
-24.44960964314741
 31
0.0
  0
LINE
  5
61
330
17
100
AcDbEntity
  8
A-WALL
100
AcDbLine
 10
130.575882434593
 20
-24.44960964314741
 30
0.0
 11
130.0708201643938
 21
-23.94454737294818
 31
0.0
  0
LINE
  5
62
330
17
100
AcDbEntity
  8
A-WALL
100
AcDbLine
 10
130.0708201643938
 20
-23.94454737294818
 30
0.0
 11
130.575882434593
 21
-23.43948510270143
 31
0.0
  0
LINE
  5
63
330
17
100
AcDbEntity
  8
A-WALL
100
AcDbLine
 10
130.575882434593
 20
-23.43948510270143
 30
0.0
 11
132.0553467137513
 21
-24.91894938190771
 31
0.0
  0
ARC
  5
64
330
17
100
AcDbEntity
  8
A-WALL
100
AcDbCircle
 10
132.0765462330389
 20
-25.0145327137636
 30
0.0
 40
0.097906041420818
100
AcDbArc
 50
77.49474094213768
 51
102.5052590578706
  0
LINE
  5
65
330
17
100
AcDbEntity
  8
A-WALL
100
AcDbLine
 10
132.0977457523265
 20
-24.9189493819077
 30
0.0
 11
133.5772100314848
 21
-23.43948510274914
 31
0.0
  0
LINE
  5
66
330
17
100
AcDbEntity
  8
A-WALL
100
AcDbLine
 10
133.5772100314848
 20
-23.43948510274914
 30
0.0
 11
134.082272301684
 21
-23.94454737294822
 31
0.0
  0
LINE
  5
67
330
17
100
AcDbEntity
  8
A-WALL
100
AcDbLine
 10
134.082272301684
 20
-23.94454737294822
 30
0.0
 11
133.5772100314848
 21
-24.44960964314745
 31
0.0
  0
LINE
  5
68
330
17
100
AcDbEntity
  8
A-WALL
100
AcDbLine
 10
133.5772100314848
 20
-24.44960964314745
 30
0.0
 11
133.1837552888274
 21
-24.05615490049012
 31
0.0
  0
LINE
  5
69
330
17
100
AcDbEntity
  8
A-WALL
100
AcDbLine
 10
133.1837552888274
 20
-24.05615490049012
 30
0.0
 11
133.8551125171936
 21
-24.05615490049012
 31
0.0
  0
LINE
  5
6A
330
17
100
AcDbEntity
  8
A-WALL
100
AcDbLine
 10
133.8551125171936
 20
-24.05615490049012
 30
0.0
 11
133.9667200447353
 21
-23.9445473729483
 31
0.0
  0
LINE
  5
6B
330
17
100
AcDbEntity
  8
A-WALL
100
AcDbLine
 10
133.9667200447353
 20
-23.9445473729483
 30
0.0
 11
133.5772100314848
 21
-23.55503735969803
 31
0.0
  0
LINE
  5
6C
330
17
100
AcDbEntity
  8
A-WALL
100
AcDbLine
 10
132.469302068485
 20
-22.07726101818268
 30
0.0
 11
132.1566166874648
 21
-22.38994639920469
 31
0.0
  0
LINE
  5
6D
330
17
100
AcDbEntity
  8
A-WALL
100
AcDbLine
 10
132.1566166874648
 20
-22.38994639920469
 30
0.0
 11
132.9388746172282
 21
-22.38994639920469
 31
0.0
  0
LINE
  5
6E
330
17
100
AcDbEntity
  8
A-WALL
100
AcDbLine
 10
132.9388746172282
 20
-22.38994639920469
 30
0.0
 11
132.6218992893014
 21
-22.70692172713123
 31
0.0
  0
LINE
  5
6F
330
17
100
AcDbEntity
  8
A-WALL
100
AcDbLine
 10
132.6218992893014
 20
-22.70692172713123
 30
0.0
 11
132.3095715978077
 21
-22.70692172713123
 31
0.0
  0
LINE
  5
70
330
17
100
AcDbEntity
  8
A-WALL
100
AcDbLine
 10
132.3095715978077
 20
-22.70692172713123
 30
0.0
 11
132.0765462330389
 21
-22.47389636236235
 31
0.0
  0
LINE
  5
71
330
17
100
AcDbEntity
  8
A-WALL
100
AcDbLine
 10
132.0765462330389
 20
-22.47389636236235
 30
0.0
 11
131.8435208682701
 21
-22.70692172713107
 31
0.0
  0
LINE
  5
72
330
17
100
AcDbEntity
  8
A-WALL
100
AcDbLine
 10
131.8435208682701
 20
-22.70692172713107
 30
0.0
 11
131.5311931767764
 21
-22.70692172713107
 31
0.0
  0
LINE
  5
73
330
17
100
AcDbEntity
  8
A-WALL
100
AcDbLine
 10
131.5311931767764
 20
-22.70692172713107
 30
0.0
 11
131.2142178488496
 21
-22.38994639920469
 31
0.0
  0
LINE
  5
74
330
17
100
AcDbEntity
  8
A-WALL
100
AcDbLine
 10
131.2142178488496
 20
-22.38994639920469
 30
0.0
 11
131.996475778613
 21
-22.38994639920469
 31
0.0
  0
LINE
  5
75
330
17
100
AcDbEntity
  8
A-WALL
100
AcDbLine
 10
131.996475778613
 20
-22.38994639920469
 30
0.0
 11
131.6837903975905
 21
-22.07726101818268
 31
0.0
  0
LINE
  5
76
330
17
100
AcDbEntity
  8
A-WALL
100
AcDbLine
 10
131.6837903975905
 20
-22.07726101818268
 30
0.0
 11
132.469302068485
 21
-22.07726101818268
 31
0.0
  0
LINE
  5
77
330
17
100
AcDbEntity
  8
A-WALL
100
AcDbLine
 10
133.331630452679
 20
-22.7827022346534
 30
0.0
 11
132.9388746172282
 21
-23.17545807011512
 31
0.0
  0
LINE
  5
78
330
17
100
AcDbEntity
  8
A-WALL
100
AcDbLine
 10
132.9388746172282
 20
-23.17545807011512
 30
0.0
 11
133.7243862881286
 21
-23.17545807011512
 31
0.0
  0
LINE
  5
79
330
17
100
AcDbEntity
  8
A-WALL
100
AcDbLine
 10
133.7243862881286
 20
-23.17545807011512
 30
0.0
 11
132.7446527752569
 21
-24.15519158297906
 31
0.0
  0
LINE
  5
7A
330
17
100
AcDbEntity
  8
A-WALL
100
AcDbLine
 10
132.7446527752569
 20
-24.15519158297906
 30
0.0
 11
132.6642694370328
 21
-24.07480824475366
 31
0.0
  0
LINE
  5
7B
330
17
100
AcDbEntity
  8
A-WALL
100
AcDbLine
 10
132.6642694370328
 20
-24.07480824475366
 30
0.0
 11
133.1708637762295
 21
-23.56821390556476
 31
0.0
  0
LINE
  5
7C
330
17
100
AcDbEntity
  8
A-WALL
100
AcDbLine
 10
133.1708637762295
 20
-23.56821390556476
 30
0.0
 11
132.3853521053304
 21
-22.7827022346534
 31
0.0
  0
LINE
  5
7D
330
17
100
AcDbEntity
  8
A-WALL
100
AcDbLine
 10
132.3853521053304
 20
-22.7827022346534
 30
0.0
 11
133.331630452679
 21
-22.7827022346534
 31
0.0
  0
LINE
  5
7E
330
17
100
AcDbEntity
  8
A-WALL
100
AcDbLine
 10
132.0765462330389
 20
-24.6625314487475
 30
0.0
 11
132.6237050046336
 21
-24.11537267715292
 31
0.0
  0
LINE
  5
7F
330
17
100
AcDbEntity
  8
A-WALL
100
AcDbLine
 10
132.6237050046336
 20
-24.11537267715292
 30
0.0
 11
132.7040883428589
 21
-24.19575601537825
 31
0.0
  0
LINE
  5
80
330
17
100
AcDbEntity
  8
A-WALL
100
AcDbLine
 10
132.7040883428589
 20
-24.19575601537825
 30
0.0
 11
132.0765462330389
 21
-24.8232981251981
 31
0.0
  0
LINE
  5
81
330
17
100
AcDbEntity
  8
A-WALL
100
AcDbLine
 10
132.0765462330389
 20
-24.8232981251981
 30
0.0
 11
131.4490041232189
 21
-24.19575601537787
 31
0.0
  0
LINE
  5
82
330
17
100
AcDbEntity
  8
A-WALL
100
AcDbLine
 10
131.4490041232189
 20
-24.19575601537787
 30
0.0
 11
131.5293874614442
 21
-24.11537267715259
 31
0.0
  0
LINE
  5
83
330
17
100
AcDbEntity
  8
A-WALL
100
AcDbLine
 10
131.5293874614442
 20
-24.11537267715259
 30
0.0
 11
132.0765462330389
 21
-24.6625314487475
 31
0.0
  0
LINE
  5
84
330
17
100
AcDbEntity
  8
A-WALL
100
AcDbLine
 10
131.488823029045
 20
-24.07480824475333
 30
0.0
 11
131.4084396908209
 21
-24.15519158297867
 31
0.0
  0
LINE
  5
85
330
17
100
AcDbEntity
  8
A-WALL
100
AcDbLine
 10
131.4084396908209
 20
-24.15519158297867
 30
0.0
 11
130.4287061779492
 21
-23.17545807005222
 31
0.0
  0
LINE
  5
86
330
17
100
AcDbEntity
  8
A-WALL
100
AcDbLine
 10
130.4287061779492
 20
-23.17545807005222
 30
0.0
 11
131.2142178488496
 21
-23.17545807005222
 31
0.0
  0
LINE
  5
87
330
17
100
AcDbEntity
  8
A-WALL
100
AcDbLine
 10
131.2142178488496
 20
-23.17545807005222
 30
0.0
 11
130.8214620133989
 21
-22.78270223465324
 31
0.0
  0
LINE
  5
88
330
17
100
AcDbEntity
  8
A-WALL
100
AcDbLine
 10
130.8214620133989
 20
-22.78270223465324
 30
0.0
 11
131.7677403607474
 21
-22.78270223465324
 31
0.0
  0
LINE
  5
89
330
17
100
AcDbEntity
  8
A-WALL
100
AcDbLine
 10
131.7677403607474
 20
-22.78270223465324
 30
0.0
 11
130.9822286898483
 21
-23.56821390554954
 31
0.0
  0
LINE
  5
8A
330
17
100
AcDbEntity
  8
A-WALL
100
AcDbLine
 10
130.9822286898483
 20
-23.56821390554954
 30
0.0
 11
131.488823029045
 21
-24.07480824475333
 31
0.0
  0
LINE
  5
8B
330
17
100
AcDbEntity
  8
A-WALL
100
AcDbLine
 10
132.0765462330389
 20
-22.76094977010595
 30
0.0
 11
132.8838103684901
 21
-23.56821390556476
 31
0.0
  0
LINE
  5
8C
330
17
100
AcDbEntity
  8
A-WALL
100
AcDbLine
 10
132.8838103684901
 20
-23.56821390556476
 30
0.0
 11
132.0765462330389
 21
-24.37547804100838
 31
0.0
  0
LINE
  5
8D
330
17
100
AcDbEntity
  8
A-WALL
100
AcDbLine
 10
132.0765462330389
 20
-24.37547804100838
 30
0.0
 11
131.2692820975877
 21
-23.56821390554954
 31
0.0
  0
LINE
  5
8E
330
17
100
AcDbEntity
  8
A-WALL
100
AcDbLine
 10
131.2692820975877
 20
-23.56821390554954
 30
0.0
 11
132.0765462330389
 21
-22.76094977010595
 31
0.0
  0
LINE
  5
8F
330
17
100
AcDbEntity
  8
A-WALL
100
AcDbLine
 10
134.5767291678747
 20
-25.29186598890201
 30
0.0
 11
133.8601552366054
 21
-25.29186598890201
 31
0.0
  0
LINE
  5
90
330
17
100
AcDbEntity
  8
A-WALL
100
AcDbLine
 10
133.8601552366054
 20
-25.29186598890201
 30
0.0
 11
134.5763579292799
 21
-24.57566329622761
 31
0.0
  0
LINE
  5
91
330
17
100
AcDbEntity
  8
A-WALL
100
AcDbLine
 10
130.4033944153184
 20
-23.30771003876285
 30
0.0
 11
129.6392245945038
 21
-22.54354021799255
 31
0.0
  0
LINE
  5
92
330
17
100
AcDbEntity
  8
A-WALL
100
AcDbLine
 10
129.6392245945038
 20
-22.63454138305178
 30
0.0
 11
130.2957507685105
 21
-23.29106755705132
 31
0.0
  0
LINE
  5
93
330
17
100
AcDbEntity
  8
A-WALL
100
AcDbLine
 10
130.2957507685105
 20
-23.29106755705132
 30
0.0
 11
129.6392245945038
 21
-23.94759373106524
 31
0.0
  0
LINE
  5
94
330
17
100
AcDbEntity
  8
A-WALL
100
AcDbLine
 10
129.6392245945038
 20
-24.07187985962189
 30
0.0
 11
130.4033944153184
 21
-23.30771003876285
 31
0.0
  0
LINE
  5
95
330
17
100
AcDbEntity
  8
A-WALL
100
AcDbLine
 10
130.206754315097
 20
-23.29106755705132
 30
0.0
 11
129.6392245945038
 21
-22.72353783647985
 31
0.0
  0
LINE
  5
96
330
17
100
AcDbEntity
  8
A-WALL
100
AcDbLine
 10
129.6392245945038
 20
-22.8350760558607
 30
0.0
 11
130.0952160957139
 21
-23.29106755705132
 31
0.0
  0
LINE
  5
97
330
17
100
AcDbEntity
  8
A-WALL
100
AcDbLine
 10
130.0952160957139
 20
-23.29106755705132
 30
0.0
 11
129.6392245945038
 21
-23.74705905828088
 31
0.0
  0
LINE
  5
98
330
17
100
AcDbEntity
  8
A-WALL
100
AcDbLine
 10
129.6392245945038
 20
-23.85859727766616
 30
0.0
 11
130.206754315097
 21
-23.29106755705132
 31
0.0
  0
LINE
  5
99
330
17
100
AcDbEntity
  8
A-WALL
100
AcDbLine
 10
130.0062196423347
 20
-23.29106755705132
 30
0.0
 11
129.6392245945038
 21
-22.92407250922245
 31
0.0
  0
LINE
  5
9A
330
17
100
AcDbEntity
  8
A-WALL
100
AcDbLine
 10
129.6392245945038
 20
-23.04276043931075
 30
0.0
 11
129.8875317122444
 21
-23.29106755705132
 31
0.0
  0
LINE
  5
9B
330
17
100
AcDbEntity
  8
A-WALL
100
AcDbLine
 10
129.8875317122444
 20
-23.29106755705132
 30
0.0
 11
129.6392245945038
 21
-23.53937467479206
 31
0.0
  0
LINE
  5
9C
330
17
100
AcDbEntity
  8
A-WALL
100
AcDbLine
 10
129.6392245945038
 20
-23.65806260488417
 30
0.0
 11
130.0062196423347
 21
-23.29106755705132
 31
0.0
  0
LINE
  5
9D
330
17
100
AcDbEntity
  8
A-WALL
100
AcDbLine
 10
133.8766516539859
 20
-23.20061651826825
 30
0.0
 11
134.5142337412457
 21
-23.83819860552802
 31
0.0
  0
LINE
  5
9E
330
17
100
AcDbEntity
  8
A-WALL
100
AcDbLine
 10
134.5142337412457
 20
-23.74920215213113
 30
0.0
 11
133.9656481073828
 21
-23.20061651826825
 31
0.0
  0
LINE
  5
9F
330
17
100
AcDbEntity
  8
A-WALL
100
AcDbLine
 10
133.9656481073828
 20
-23.20061651826825
 30
0.0
 11
134.5142337412457
 21
-22.65203088440492
 31
0.0
  0
LINE
  5
A0
330
17
100
AcDbEntity
  8
A-WALL
100
AcDbLine
 10
134.5142337412457
 20
-23.93010422972198
 30
0.0
 11
133.7685557776104
 21
-23.18442626608672
 31
0.0
  0
LINE
  5
A1
330
17
100
AcDbEntity
  8
A-WALL
100
AcDbLine
 10
133.7685557776104
 20
-23.18442626608672
 30
0.0
 11
134.4862309882143
 21
-22.46675105548283
 31
0.0
  0
LINE
  5
A2
330
17
100
AcDbEntity
  8
A-WALL
100
AcDbLine
 10
134.4862309882143
 20
-22.46675105548283
 30
0.0
 11
134.5142337412457
 21
-22.49475380851446
 31
0.0
  0
LINE
  5
A3
330
17
100
AcDbEntity
  8
A-WALL
100
AcDbLine
 10
134.5142337412457
 20
-22.56303443100799
 30
0.0
 11
133.8766516539859
 21
-23.20061651826825
 31
0.0
  0
LINE
  5
A4
330
17
100
AcDbEntity
  8
A-WALL
100
AcDbLine
 10
134.5483740524923
 20
-24.053240994366
 30
0.0
 11
134.469583137547
 21
-24.13203190931182
 31
0.0
  0
LINE
  5
A5
330
17
100
AcDbEntity
  8
A-WALL
100
AcDbLine
 10
134.469583137547
 20
-24.13203190931182
 30
0.0
 11
133.6452666359666
 21
-23.30771540773097
 31
0.0
  0
LINE
  5
A6
330
17
100
AcDbEntity
  8
A-WALL
100
AcDbLine
 10
133.6452666359666
 20
-23.30771540773097
 30
0.0
 11
133.724057550912
 21
-23.22892449278516
 31
0.0
  0
LINE
  5
A7
330
17
100
AcDbEntity
  8
A-WALL
100
AcDbLine
 10
133.724057550912
 20
-23.22892449278516
 30
0.0
 11
134.5483740524923
 21
-24.053240994366
 31
0.0
  0
LINE
  5
A8
330
17
100
AcDbEntity
  8
A-WALL
100
AcDbLine
 10
134.1599413379219
 20
-23.18722536532
 30
0.0
 11
134.5142337412457
 21
-22.83293296199582
 31
0.0
  0
LINE
  5
A9
330
17
100
AcDbEntity
  8
A-WALL
100
AcDbLine
 10
134.5142337412456
 20
-22.74393650859892
 30
0.0
 11
134.0709448845251
 21
-23.18722536532001
 31
0.0
  0
LINE
  5
AA
330
17
100
AcDbEntity
  8
A-WALL
100
AcDbLine
 10
134.0709448845251
 20
-23.18722536532001
 30
0.0
 11
134.5142337412457
 21
-23.63051422204062
 31
0.0
  0
LINE
  5
AB
330
17
100
AcDbEntity
  8
A-WALL
100
AcDbLine
 10
134.5142337412457
 20
-23.54151776864376
 30
0.0
 11
134.1599413379219
 21
-23.18722536532
 31
0.0
  0
LINE
  5
AC
330
17
100
AcDbEntity
  8
A-WALL
100
AcDbLine
 10
134.5762244285235
 20
-21.06112044926233
 30
0.0
 11
134.2369395339491
 21
-20.72700411812127
 31
0.0
  0
LINE
  5
AD
330
17
100
AcDbEntity
  8
A-WALL
100
AcDbLine
 10
134.2369395339491
 20
-20.72700411812127
 30
0.0
 11
134.5767291678747
 21
-20.72700411812126
 31
0.0
  0
ARC
  5
AE
330
17
100
AcDbEntity
  8
A-WALL
100
AcDbCircle
 10
132.0765462330378
 20
-19.96160888423254
 30
0.0
 40
0.1110391753297771
100
AcDbArc
 50
145.1803215949061
 51
34.81967840508983
  0
ARC
  5
AF
330
17
100
AcDbEntity
  8
A-WALL
100
AcDbCircle
 10
132.0765462330378
 20
-19.95923191459357
 30
0.0
 40
0.1087068755320826
100
AcDbArc
 50
78.75437437764752
 51
101.2456256223442
  0
LINE
  5
B0
330
17
100
AcDbEntity
  8
A-WALL
100
AcDbLine
 10
134.5767291678747
 20
-20.36081165198512
 30
0.0
 11
133.8605211062805
 21
-20.36081165198512
 31
0.0
  0
LINE
  5
B1
330
17
100
AcDbEntity
  8
A-WALL
100
AcDbLine
 10
133.8605211062805
 20
-20.36081165198512
 30
0.0
 11
134.5767291678747
 21
-19.64460359039096
 31
0.0
  0
CIRCLE
  5
B2
330
17
100
AcDbEntity
  8
A-WALL
100
AcDbCircle
 10
130.4096526721235
 20
-24.89266322114965
 30
0.0
 40
0.1113061109157168
  0
CIRCLE
  5
B3
330
17
100
AcDbEntity
  8
A-WALL
100
AcDbCircle
 10
133.6597637076364
 20
-19.96160888423327
 30
0.0
 40
0.1110941698407611
  0
CIRCLE
  5
B4
330
17
100
AcDbEntity
  8
A-WALL
100
AcDbCircle
 10
133.743090943146
 20
-24.8926632211497
 30
0.0
 40
0.1113061109157168
  0
ARC
  5
B5
330
17
100
AcDbEntity
  8
A-WALL
100
AcDbCircle
 10
134.5767291678747
 20
-21.77349800343788
 30
0.0
 40
0.1718624232298773
100
AcDbArc
 50
90.0
 51
270.0
  0
LINE
  5
B6
330
17
100
AcDbEntity
  8
0
100
AcDbLine
 10
134.5767291678747
 20
-19.39419544422217
 30
0.0
 11
134.5767291678747
 21
-25.39419544422217
 31
0.0
  0
LINE
  5
B7
330
17
100
AcDbEntity
  8
0
100
AcDbLine
 10
134.5142337412457
 20
-22.49475380851448
 30
0.0
 11
134.5142337412457
 21
-22.56303443100799
 31
0.0
  0
LINE
  5
B8
330
17
100
AcDbEntity
  8
0
100
AcDbLine
 10
134.5142337412457
 20
-22.65203088440488
 30
0.0
 11
134.5142337412457
 21
-22.74393650859885
 31
0.0
  0
LINE
  5
B9
330
17
100
AcDbEntity
  8
0
100
AcDbLine
 10
134.5142337412457
 20
-22.83293296199575
 30
0.0
 11
134.5142337412457
 21
-23.54151776864377
 31
0.0
  0
LINE
  5
BA
330
17
100
AcDbEntity
  8
0
100
AcDbLine
 10
134.5142337412457
 20
-23.63051422204064
 30
0.0
 11
134.5142337412457
 21
-23.74920215213115
 31
0.0
  0
LINE
  5
BB
330
17
100
AcDbEntity
  8
0
100
AcDbLine
 10
134.5142337412457
 20
-23.83819860552804
 30
0.0
 11
134.5142337412457
 21
-23.93010422972198
 31
0.0
  0
LINE
  5
BC
330
17
100
AcDbEntity
  8
0
100
AcDbLine
 10
129.5767291678747
 20
-25.39419544422217
 30
0.0
 11
129.5767291678747
 21
-19.39419544422217
 31
0.0
  0
LINE
  5
BD
330
17
100
AcDbEntity
  8
0
100
AcDbLine
 10
129.6392245945038
 20
-24.17617240473676
 30
0.0
 11
129.6392245945038
 21
-24.0718798596219
 31
0.0
  0
LINE
  5
BE
330
17
100
AcDbEntity
  8
0
100
AcDbLine
 10
129.6392245945038
 20
-23.94759373106524
 30
0.0
 11
129.6392245945038
 21
-23.85859727766616
 31
0.0
  0
LINE
  5
BF
330
17
100
AcDbEntity
  8
0
100
AcDbLine
 10
129.6392245945038
 20
-23.74705905828091
 30
0.0
 11
129.6392245945038
 21
-23.65806260488417
 31
0.0
  0
LINE
  5
C0
330
17
100
AcDbEntity
  8
0
100
AcDbLine
 10
129.6392245945038
 20
-23.5393746747921
 30
0.0
 11
129.6392245945038
 21
-23.04276043931075
 31
0.0
  0
LINE
  5
C1
330
17
100
AcDbEntity
  8
0
100
AcDbLine
 10
129.6392245945038
 20
-22.92407250922244
 30
0.0
 11
129.6392245945038
 21
-22.83507605586071
 31
0.0
  0
LINE
  5
C2
330
17
100
AcDbEntity
  8
0
100
AcDbLine
 10
129.6392245945038
 20
-22.72353783647984
 30
0.0
 11
129.6392245945038
 21
-22.63454138305178
 31
0.0
  0
LINE
  5
C3
330
17
100
AcDbEntity
  8
0
100
AcDbLine
 10
129.6392245945038
 20
-22.54354021799255
 30
0.0
 11
129.6392245945038
 21
-22.43924767287857
 31
0.0
  0
LINE
  5
C4
330
17
100
AcDbEntity
  8
A-WALL
100
AcDbLine
 10
129.5767291678747
 20
-20.36081165198512
 30
0.0
 11
130.2929372294689
 21
-20.36081165198512
 31
0.0
  0
LINE
  5
C5
330
17
100
AcDbEntity
  8
A-WALL
100
AcDbLine
 10
130.2929372294689
 20
-20.36081165198512
 30
0.0
 11
129.5767291678747
 21
-19.64460359039096
 31
0.0
  0
CIRCLE
  5
C6
330
17
100
AcDbEntity
  8
A-WALL
100
AcDbCircle
 10
130.4936946281131
 20
-19.96160888423327
 30
0.0
 40
0.1110941698407611
  0
LWPOLYLINE
  5
C7
330
17
100
AcDbEntity
  8
0
100
AcDbPolyline
 90
6
 70
1
 10
132.3768162978334
 20
-19.45669087085122
 10
132.216049621384
 20
-19.45669087085122
 10
132.0765462330378
 20
-19.59619425919746
 10
131.9370428446915
 20
-19.45669087085122
 10
131.7762761682421
 20
-19.45669087085122
 10
132.0765462330378
 20
-19.7569609356469
  0
LWPOLYLINE
  5
C8
330
17
100
AcDbEntity
  8
0
100
AcDbPolyline
 90
8
 70
1
 10
132.1677041935141
 20
-19.89820600811708
 10
132.60921933078
 20
-19.45669087085122
 10
132.4936670738313
 20
-19.45669087085122
 10
132.0977457523253
 20
-19.85261219235644
 42
0.0984528595500955
 10
132.0553467137502
 20
-19.85261219235644
 10
131.6594253922442
 20
-19.45669087085122
 10
131.5438731352955
 20
-19.45669087085122
 10
131.9853882725614
 20
-19.89820600811707
 42
1.91362389563935
  0
LINE
  5
C9
330
17
100
AcDbEntity
  8
0
 62
11
100
AcDbLine
 10
143.6390671454667
 20
-20.39419544422216
 30
0.0
 11
143.6390671454667
 21
-25.39419544422217
 31
0.0
  0
LINE
  5
CA
330
17
100
AcDbEntity
  8
0
 62
11
100
AcDbLine
 10
142.6390671454667
 20
-19.39419544422218
 30
0.0
 11
142.6390671454667
 21
-25.39419544422217
 31
0.0
  0
LINE
  5
CB
330
17
100
AcDbEntity
  8
0
 62
11
100
AcDbLine
 10
144.6390671454667
 20
-19.39419544422218
 30
0.0
 11
144.6390671454667
 21
-25.39419544422217
 31
0.0
  0
LINE
  5
CC
330
17
100
AcDbEntity
  8
0
 62
11
100
AcDbLine
 10
145.6390671454667
 20
-20.39419544422219
 30
0.0
 11
145.6390671454667
 21
-25.39419544422217
 31
0.0
  0
LWPOLYLINE
  5
CD
330
17
100
AcDbEntity
  8
0
 62
11
100
AcDbPolyline
 90
4
 70
1
 10
129.5767291678747
 20
-19.39419544422217
 10
134.5767291678747
 20
-19.39419544422217
 10
134.5767291678747
 20
-25.39419544422217
 10
129.5767291678747
 20
-25.39419544422217
  0
LINE
  5
CE
330
17
100
AcDbEntity
  8
0
 62
11
100
AcDbLine
 10
131.5767291678747
 20
-19.39419544422218
 30
0.0
 11
131.5767291678747
 21
-25.39419544422217
 31
0.0
  0
LINE
  5
CF
330
17
100
AcDbEntity
  8
0
 62
11
100
AcDbLine
 10
130.5767291678747
 20
-19.39419544422218
 30
0.0
 11
130.5767291678747
 21
-25.39419544422217
 31
0.0
  0
LINE
  5
D0
330
17
100
AcDbEntity
  8
0
 62
11
100
AcDbLine
 10
132.5767291678747
 20
-19.39419544422218
 30
0.0
 11
132.5767291678747
 21
-25.39419544422217
 31
0.0
  0
LINE
  5
D1
330
17
100
AcDbEntity
  8
0
 62
11
100
AcDbLine
 10
133.5767291678747
 20
-19.39419544422218
 30
0.0
 11
133.5767291678747
 21
-25.39419544422217
 31
0.0
  0
LINE
  5
D2
330
17
100
AcDbEntity
  8
0
 62
11
100
AcDbLine
 10
143.6390671454667
 20
-20.39419544422219
 30
0.0
 11
142.6390671454667
 21
-19.39419544422218
 31
0.0
  0
LINE
  5
D3
330
17
100
AcDbEntity
  8
0
 62
11
100
AcDbLine
 10
142.6390671454667
 20
-19.39419544422218
 30
0.0
 11
141.6390671454667
 21
-20.36081165198512
 31
0.0
  0
LINE
  5
D4
330
17
100
AcDbEntity
  8
0
 62
11
100
AcDbLine
 10
143.6390671454667
 20
-20.39419544422219
 30
0.0
 11
144.6390671454667
 21
-19.39419544422218
 31
0.0
  0
LINE
  5
D5
330
17
100
AcDbEntity
  8
0
 62
11
100
AcDbLine
 10
144.6390671454667
 20
-19.39419544422218
 30
0.0
 11
145.6390671454667
 21
-20.39419544422219
 31
0.0
  0
LINE
  5
D6
330
17
100
AcDbEntity
  8
0
 62
11
100
AcDbLine
 10
145.6390671454667
 20
-20.39419544422219
 30
0.0
 11
146.6390671454667
 21
-19.39419544422218
 31
0.0
  0
LINE
  5
D8
330
17
100
AcDbEntity
  8
0-COTAS REF
100
AcDbLine
 10
128.9517291678747
 20
-18.59419544422217
 30
0.0
 11
135.0061992892224
 21
-18.59419544422217
 31
0.0
  0
LINE
  5
D9
330
17
100
AcDbEntity
  8
0-COTAS REF
100
AcDbLine
 10
129.1267291678747
 20
-25.81096066944895
 30
0.0
 11
129.1267291678747
 21
-18.79419544422218
 31
0.0
  0
LINE
  5
DA
330
17
100
AcDbEntity
  8
0-COTAS REF
100
AcDbLine
 10
128.9517291678747
 20
-18.99419544422217
 30
0.0
 11
135.0061992892224
 21
-18.99419544422217
 31
0.0
  0
LINE
  5
DB
330
17
100
AcDbEntity
  8
0-COTAS REF
100
AcDbLine
 10
128.7267291678747
 20
-25.81096066944895
 30
0.0
 11
128.7267291678747
 21
-18.79419544422218
 31
0.0
  0
LINE
  5
DC
330
17
100
AcDbEntity
  8
0
 62
11
100
AcDbLine
 10
134.5767291678747
 20
-21.39419544422217
 30
0.0
 11
129.5767291678747
 21
-21.39419544422217
 31
0.0
  0
LINE
  5
DD
330
17
100
AcDbEntity
  8
0
 62
11
100
AcDbLine
 10
134.5767291678747
 20
-23.39419544422217
 30
0.0
 11
129.5767291678747
 21
-23.39419544422217
 31
0.0
  0
LINE
  5
DE
330
17
100
AcDbEntity
  8
0-COTAS REF
100
AcDbLine
 10
141.0140671454667
 20
-18.59419544422217
 30
0.0
 11
147.0685372668144
 21
-18.59419544422217
 31
0.0
  0
LINE
  5
DF
330
17
100
AcDbEntity
  8
0-COTAS REF
100
AcDbLine
 10
141.1890671454667
 20
-25.81096066944895
 30
0.0
 11
141.1890671454667
 21
-18.79419544422218
 31
0.0
  0
LINE
  5
E0
330
17
100
AcDbEntity
  8
0-COTAS REF
100
AcDbLine
 10
141.0140671454667
 20
-18.99419544422217
 30
0.0
 11
147.0685372668144
 21
-18.99419544422217
 31
0.0
  0
LINE
  5
E1
330
17
100
AcDbEntity
  8
0-COTAS REF
100
AcDbLine
 10
140.7890671454667
 20
-25.81096066944895
 30
0.0
 11
140.7890671454667
 21
-18.79419544422218
 31
0.0
  0
LINE
  5
E2
330
17
100
AcDbEntity
  8
0
 62
11
100
AcDbLine
 10
146.6390671454667
 20
-21.39419544422217
 30
0.0
 11
141.6390671454667
 21
-21.39419544422217
 31
0.0
  0
LINE
  5
E3
330
17
100
AcDbEntity
  8
0
 62
11
100
AcDbLine
 10
146.6390671454667
 20
-23.39419544422217
 30
0.0
 11
141.6390671454667
 21
-23.39419544422217
 31
0.0
  0
LINE
  5
E4
330
17
100
AcDbEntity
  8
A-WALL
100
AcDbLine
 10
141.6390671454667
 20
-20.72699874919947
 30
0.0
 11
141.9782186223427
 21
-20.72699874919947
 31
0.0
  0
LINE
  5
E5
330
17
100
AcDbEntity
  8
A-WALL
100
AcDbLine
 10
141.9782186223427
 20
-20.72699874919947
 30
0.0
 11
141.6390671454667
 21
-21.06098369508709
 31
0.0
  0
LINE
  5
E6
330
17
100
AcDbEntity
  8
A-WALL
100
AcDbLine
 10
141.6390671454667
 20
-21.06098369508709
 30
0.0
 11
141.6390671454667
 21
-21.60126971053115
 31
0.0
  0
ARC
  5
E7
330
17
100
AcDbEntity
  8
A-WALL
100
AcDbCircle
 10
141.6390671454667
 20
-21.77349800343636
 30
0.0
 40
0.1722282929052101
100
AcDbArc
 50
270.0000000000155
 51
89.99999999998697
  0
LINE
  5
E8
330
17
100
AcDbEntity
  8
A-WALL
100
AcDbLine
 10
141.7015625720957
 20
-22.43924767287857
 30
0.0
 11
142.5700249380249
 21
-23.30771003876285
 31
0.0
  0
LINE
  5
E9
330
17
100
AcDbEntity
  8
A-WALL
100
AcDbLine
 10
142.5700249380249
 20
-23.30771003876285
 30
0.0
 11
141.7015625720957
 21
-24.17617240473675
 31
0.0
  0
LINE
  5
EA
330
17
100
AcDbEntity
  8
A-WALL
100
AcDbLine
 10
141.6390671454667
 20
-24.67996121026124
 30
0.0
 11
142.2509719241075
 21
-25.29186598890201
 31
0.0
  0
LINE
  5
EB
330
17
100
AcDbEntity
  8
A-WALL
100
AcDbLine
 10
142.2509719241075
 20
-25.29186598890201
 30
0.0
 11
141.6390671454667
 21
-25.29186598890201
 31
0.0
  0
LINE
  5
EC
330
17
100
AcDbEntity
  8
A-WALL
100
AcDbLine
 10
145.4661440261635
 20
-20.72699874920215
 30
0.0
 11
146.1447138153132
 21
-20.72699874920215
 31
0.0
  0
LINE
  5
ED
330
17
100
AcDbEntity
  8
A-WALL
100
AcDbLine
 10
146.1447138153132
 20
-20.72699874920215
 30
0.0
 11
145.8054289207372
 21
-21.06111508034329
 31
0.0
  0
LINE
  5
EE
330
17
100
AcDbEntity
  8
A-WALL
100
AcDbLine
 10
145.8054289207372
 20
-21.06111508034329
 30
0.0
 11
145.4661440261635
 21
-20.72699874920215
 31
0.0
  0
LINE
  5
EF
330
17
100
AcDbEntity
  8
A-WALL
100
AcDbLine
 10
144.6328716711092
 20
-20.72699874920214
 30
0.0
 11
145.3114414602589
 21
-20.72699874920214
 31
0.0
  0
LINE
  5
F0
330
17
100
AcDbEntity
  8
A-WALL
100
AcDbLine
 10
145.3114414602589
 20
-20.72699874920214
 30
0.0
 11
144.972156565684
 21
-21.06111508034328
 31
0.0
  0
LINE
  5
F1
330
17
100
AcDbEntity
  8
A-WALL
100
AcDbLine
 10
144.972156565684
 20
-21.06111508034328
 30
0.0
 11
144.6328716711092
 21
-20.72699874920214
 31
0.0
  0
LINE
  5
F2
330
17
100
AcDbEntity
  8
A-WALL
100
AcDbLine
 10
144.4781691052045
 20
-20.72699874919641
 30
0.0
 11
144.1388842106302
 21
-21.06111508033813
 31
0.0
  0
LINE
  5
F3
330
17
100
AcDbEntity
  8
A-WALL
100
AcDbLine
 10
144.1388842106302
 20
-21.06111508033813
 30
0.0
 11
143.7995993160537
 21
-20.72699874919641
 31
0.0
  0
LINE
  5
F4
330
17
100
AcDbEntity
  8
A-WALL
100
AcDbLine
 10
143.7995993160537
 20
-20.72699874919641
 30
0.0
 11
144.4781691052045
 21
-20.72699874919641
 31
0.0
  0
LINE
  5
F5
330
17
100
AcDbEntity
  8
A-WALL
100
AcDbLine
 10
143.6448967501502
 20
-20.72699874919641
 30
0.0
 11
143.3056118555754
 21
-21.06111508033449
 31
0.0
  0
LINE
  5
F6
330
17
100
AcDbEntity
  8
A-WALL
100
AcDbLine
 10
143.3056118555754
 20
-21.06111508033449
 30
0.0
 11
142.9663269610005
 21
-20.72699874919641
 31
0.0
  0
LINE
  5
F7
330
17
100
AcDbEntity
  8
A-WALL
100
AcDbLine
 10
142.9663269610005
 20
-20.72699874919641
 30
0.0
 11
143.6448967501502
 21
-20.72699874919641
 31
0.0
  0
LINE
  5
F8
330
17
100
AcDbEntity
  8
A-WALL
100
AcDbLine
 10
142.811624395097
 20
-20.72699874919947
 30
0.0
 11
142.472339500521
 21
-21.06111508034061
 31
0.0
  0
LINE
  5
F9
330
17
100
AcDbEntity
  8
A-WALL
100
AcDbLine
 10
142.472339500521
 20
-21.06111508034061
 30
0.0
 11
142.1330546059473
 21
-20.72699874919947
 31
0.0
  0
LINE
  5
FA
330
17
100
AcDbEntity
  8
A-WALL
100
AcDbLine
 10
142.1330546059473
 20
-20.72699874919947
 30
0.0
 11
142.811624395097
 21
-20.72699874919947
 31
0.0
  0
ARC
  5
FB
330
17
100
AcDbEntity
  8
A-WALL
100
AcDbCircle
 10
145.4102920989264
 20
-21.77349800343939
 30
0.0
 40
0.1065976083175258
100
AcDbArc
 50
15.02588689196347
 51
164.9741131080396
  0
LINE
  5
FC
330
17
100
AcDbEntity
  8
A-WALL
100
AcDbLine
 10
145.3073391917901
 20
-21.74586199411812
 30
0.0
 11
144.8780210181226
 21
-21.7458619941181
 31
0.0
  0
ARC
  5
FD
330
17
100
AcDbEntity
  8
A-WALL
100
AcDbCircle
 10
145.4102920989264
 20
-21.74586199411813
 30
0.0
 40
0.532271080803773
100
AcDbArc
 50
359.9999999999996
 51
179.9999999999998
  0
LINE
  5
FE
330
17
100
AcDbEntity
  8
A-WALL
100
AcDbLine
 10
145.9425631797302
 20
-21.74586199411813
 30
0.0
 11
145.5132450060627
 21
-21.7458619941181
 31
0.0
  0
LINE
  5
FF
330
17
100
AcDbEntity
  8
A-WALL
100
AcDbLine
 10
145.5132450060627
 20
-21.80113401275759
 30
0.0
 11
145.9425631797302
 21
-21.8011340127576
 31
0.0
  0
ARC
  5
100
330
17
100
AcDbEntity
  8
A-WALL
100
AcDbCircle
 10
145.4102920989264
 20
-21.80113401275759
 30
0.0
 40
0.5322710808037662
100
AcDbArc
 50
180.0000000000001
 51
359.9999999999996
  0
LINE
  5
101
330
17
100
AcDbEntity
  8
A-WALL
100
AcDbLine
 10
144.8780210181226
 20
-21.8011340127576
 30
0.0
 11
145.3073391917901
 21
-21.8011340127576
 31
0.0
  0
ARC
  5
102
330
17
100
AcDbEntity
  8
A-WALL
100
AcDbCircle
 10
145.4102920989264
 20
-21.77349800343939
 30
0.0
 40
0.1065976083167457
100
AcDbArc
 50
195.0258868903675
 51
344.9741131096299
  0
ARC
  5
103
330
17
100
AcDbEntity
  8
A-WALL
100
AcDbCircle
 10
142.8674763223307
 20
-21.77349800343671
 30
0.0
 40
0.1065976083175401
100
AcDbArc
 50
15.02588689196304
 51
164.9741131080378
  0
LINE
  5
104
330
17
100
AcDbEntity
  8
A-WALL
100
AcDbLine
 10
142.7645234151944
 20
-21.74586199411544
 30
0.0
 11
142.3352052415269
 21
-21.74586199411543
 31
0.0
  0
ARC
  5
105
330
17
100
AcDbEntity
  8
A-WALL
100
AcDbCircle
 10
142.8674763223307
 20
-21.74586199411544
 30
0.0
 40
0.5322710808037662
100
AcDbArc
 50
359.9999999999996
 51
179.9999999999998
  0
LINE
  5
106
330
17
100
AcDbEntity
  8
A-WALL
100
AcDbLine
 10
143.3997474031345
 20
-21.74586199411543
 30
0.0
 11
142.970429229467
 21
-21.74586199411544
 31
0.0
  0
LINE
  5
107
330
17
100
AcDbEntity
  8
A-WALL
100
AcDbLine
 10
142.970429229467
 20
-21.80113401275491
 30
0.0
 11
143.3997474031345
 21
-21.80113401275491
 31
0.0
  0
ARC
  5
108
330
17
100
AcDbEntity
  8
A-WALL
100
AcDbCircle
 10
142.8674763223307
 20
-21.80113401275491
 30
0.0
 40
0.5322710808037725
100
AcDbArc
 50
180.0000000000001
 51
359.9999999999996
  0
LINE
  5
109
330
17
100
AcDbEntity
  8
A-WALL
100
AcDbLine
 10
142.3352052415269
 20
-21.8011340127549
 30
0.0
 11
142.7645234151944
 21
-21.80113401275491
 31
0.0
  0
ARC
  5
10A
330
17
100
AcDbEntity
  8
A-WALL
100
AcDbCircle
 10
142.8674763223307
 20
-21.77349800343671
 30
0.0
 40
0.1065976083167457
100
AcDbArc
 50
195.0258868903675
 51
344.9741131096319
  0
ARC
  5
10B
330
17
100
AcDbEntity
  8
A-WALL
100
AcDbCircle
 10
144.1388842106297
 20
-21.77349800343214
 30
0.0
 40
0.1718624232298842
100
AcDbArc
 50
2.036e-13
 51
180.0
  0
ARC
  5
10C
330
17
100
AcDbEntity
  8
A-WALL
100
AcDbCircle
 10
144.1388842106297
 20
-21.77349800343214
 30
0.0
 40
0.1718624232298694
100
AcDbArc
 50
180.0000000000001
 51
359.9999999999994
  0
LINE
  5
10D
330
17
100
AcDbEntity
  8
A-WALL
100
AcDbLine
 10
145.6395480090768
 20
-23.55503735969803
 30
0.0
 11
144.2300421711072
 21
-24.96454319766835
 31
0.0
  0
ARC
  5
10E
330
17
100
AcDbEntity
  8
A-WALL
100
AcDbCircle
 10
144.1388842106309
 20
-25.02794607378381
 30
0.0
 40
0.1110391753297565
100
AcDbArc
 50
145.1803215949148
 51
34.8196784050882
  0
LINE
  5
10F
330
17
100
AcDbEntity
  8
A-WALL
100
AcDbLine
 10
144.0477262501545
 20
-24.96454319766835
 30
0.0
 11
142.638220412185
 21
-23.55503735969801
 31
0.0
  0
LINE
  5
110
330
17
100
AcDbEntity
  8
A-WALL
100
AcDbLine
 10
142.638220412185
 20
-23.55503735969801
 30
0.0
 11
142.2487103989345
 21
-23.94454737294827
 31
0.0
  0
LINE
  5
111
330
17
100
AcDbEntity
  8
A-WALL
100
AcDbLine
 10
142.2487103989345
 20
-23.94454737294827
 30
0.0
 11
142.3603179264762
 21
-24.05615490049007
 31
0.0
  0
LINE
  5
112
330
17
100
AcDbEntity
  8
A-WALL
100
AcDbLine
 10
142.3603179264762
 20
-24.05615490049007
 30
0.0
 11
143.0316751548424
 21
-24.05615490049007
 31
0.0
  0
LINE
  5
113
330
17
100
AcDbEntity
  8
A-WALL
100
AcDbLine
 10
143.0316751548424
 20
-24.05615490049007
 30
0.0
 11
142.638220412185
 21
-24.44960964314741
 31
0.0
  0
LINE
  5
114
330
17
100
AcDbEntity
  8
A-WALL
100
AcDbLine
 10
142.638220412185
 20
-24.44960964314741
 30
0.0
 11
142.1331581419858
 21
-23.94454737294818
 31
0.0
  0
LINE
  5
115
330
17
100
AcDbEntity
  8
A-WALL
100
AcDbLine
 10
142.1331581419858
 20
-23.94454737294818
 30
0.0
 11
142.638220412185
 21
-23.43948510270143
 31
0.0
  0
LINE
  5
116
330
17
100
AcDbEntity
  8
A-WALL
100
AcDbLine
 10
142.638220412185
 20
-23.43948510270143
 30
0.0
 11
144.1176846913433
 21
-24.91894938190771
 31
0.0
  0
ARC
  5
117
330
17
100
AcDbEntity
  8
A-WALL
100
AcDbCircle
 10
144.1388842106309
 20
-25.0145327137636
 30
0.0
 40
0.097906041420818
100
AcDbArc
 50
77.49474094213768
 51
102.5052590578706
  0
LINE
  5
118
330
17
100
AcDbEntity
  8
A-WALL
100
AcDbLine
 10
144.1600837299184
 20
-24.9189493819077
 30
0.0
 11
145.6395480090768
 21
-23.43948510274914
 31
0.0
  0
LINE
  5
119
330
17
100
AcDbEntity
  8
A-WALL
100
AcDbLine
 10
145.6395480090768
 20
-23.43948510274914
 30
0.0
 11
146.1446102792759
 21
-23.94454737294822
 31
0.0
  0
LINE
  5
11A
330
17
100
AcDbEntity
  8
A-WALL
100
AcDbLine
 10
146.1446102792759
 20
-23.94454737294822
 30
0.0
 11
145.6395480090768
 21
-24.44960964314745
 31
0.0
  0
LINE
  5
11B
330
17
100
AcDbEntity
  8
A-WALL
100
AcDbLine
 10
145.6395480090768
 20
-24.44960964314745
 30
0.0
 11
145.2460932664194
 21
-24.05615490049012
 31
0.0
  0
LINE
  5
11C
330
17
100
AcDbEntity
  8
A-WALL
100
AcDbLine
 10
145.2460932664194
 20
-24.05615490049012
 30
0.0
 11
145.9174504947855
 21
-24.05615490049012
 31
0.0
  0
LINE
  5
11D
330
17
100
AcDbEntity
  8
A-WALL
100
AcDbLine
 10
145.9174504947855
 20
-24.05615490049012
 30
0.0
 11
146.0290580223273
 21
-23.9445473729483
 31
0.0
  0
LINE
  5
11E
330
17
100
AcDbEntity
  8
A-WALL
100
AcDbLine
 10
146.0290580223273
 20
-23.9445473729483
 30
0.0
 11
145.6395480090768
 21
-23.55503735969803
 31
0.0
  0
LINE
  5
11F
330
17
100
AcDbEntity
  8
A-WALL
100
AcDbLine
 10
144.531640046077
 20
-22.07726101818268
 30
0.0
 11
144.2189546650568
 21
-22.38994639920469
 31
0.0
  0
LINE
  5
120
330
17
100
AcDbEntity
  8
A-WALL
100
AcDbLine
 10
144.2189546650568
 20
-22.38994639920469
 30
0.0
 11
145.0012125948202
 21
-22.38994639920469
 31
0.0
  0
LINE
  5
121
330
17
100
AcDbEntity
  8
A-WALL
100
AcDbLine
 10
145.0012125948202
 20
-22.38994639920469
 30
0.0
 11
144.6842372668933
 21
-22.70692172713123
 31
0.0
  0
LINE
  5
122
330
17
100
AcDbEntity
  8
A-WALL
100
AcDbLine
 10
144.6842372668933
 20
-22.70692172713123
 30
0.0
 11
144.3719095753997
 21
-22.70692172713123
 31
0.0
  0
LINE
  5
123
330
17
100
AcDbEntity
  8
A-WALL
100
AcDbLine
 10
144.3719095753997
 20
-22.70692172713123
 30
0.0
 11
144.1388842106309
 21
-22.47389636236235
 31
0.0
  0
LINE
  5
124
330
17
100
AcDbEntity
  8
A-WALL
100
AcDbLine
 10
144.1388842106309
 20
-22.47389636236235
 30
0.0
 11
143.9058588458621
 21
-22.70692172713107
 31
0.0
  0
LINE
  5
125
330
17
100
AcDbEntity
  8
A-WALL
100
AcDbLine
 10
143.9058588458621
 20
-22.70692172713107
 30
0.0
 11
143.5935311543684
 21
-22.70692172713107
 31
0.0
  0
LINE
  5
126
330
17
100
AcDbEntity
  8
A-WALL
100
AcDbLine
 10
143.5935311543684
 20
-22.70692172713107
 30
0.0
 11
143.2765558264415
 21
-22.38994639920469
 31
0.0
  0
LINE
  5
127
330
17
100
AcDbEntity
  8
A-WALL
100
AcDbLine
 10
143.2765558264415
 20
-22.38994639920469
 30
0.0
 11
144.058813756205
 21
-22.38994639920469
 31
0.0
  0
LINE
  5
128
330
17
100
AcDbEntity
  8
A-WALL
100
AcDbLine
 10
144.058813756205
 20
-22.38994639920469
 30
0.0
 11
143.7461283751825
 21
-22.07726101818268
 31
0.0
  0
LINE
  5
129
330
17
100
AcDbEntity
  8
A-WALL
100
AcDbLine
 10
143.7461283751825
 20
-22.07726101818268
 30
0.0
 11
144.531640046077
 21
-22.07726101818268
 31
0.0
  0
LINE
  5
12A
330
17
100
AcDbEntity
  8
A-WALL
100
AcDbLine
 10
145.3939684302709
 20
-22.7827022346534
 30
0.0
 11
145.0012125948202
 21
-23.17545807011512
 31
0.0
  0
LINE
  5
12B
330
17
100
AcDbEntity
  8
A-WALL
100
AcDbLine
 10
145.0012125948202
 20
-23.17545807011512
 30
0.0
 11
145.7867242657205
 21
-23.17545807011512
 31
0.0
  0
LINE
  5
12C
330
17
100
AcDbEntity
  8
A-WALL
100
AcDbLine
 10
145.7867242657205
 20
-23.17545807011512
 30
0.0
 11
144.8069907528489
 21
-24.15519158297906
 31
0.0
  0
LINE
  5
12D
330
17
100
AcDbEntity
  8
A-WALL
100
AcDbLine
 10
144.8069907528489
 20
-24.15519158297906
 30
0.0
 11
144.7266074146247
 21
-24.07480824475366
 31
0.0
  0
LINE
  5
12E
330
17
100
AcDbEntity
  8
A-WALL
100
AcDbLine
 10
144.7266074146247
 20
-24.07480824475366
 30
0.0
 11
145.2332017538215
 21
-23.56821390556476
 31
0.0
  0
LINE
  5
12F
330
17
100
AcDbEntity
  8
A-WALL
100
AcDbLine
 10
145.2332017538215
 20
-23.56821390556476
 30
0.0
 11
144.4476900829223
 21
-22.7827022346534
 31
0.0
  0
LINE
  5
130
330
17
100
AcDbEntity
  8
A-WALL
100
AcDbLine
 10
144.4476900829223
 20
-22.7827022346534
 30
0.0
 11
145.3939684302709
 21
-22.7827022346534
 31
0.0
  0
LINE
  5
131
330
17
100
AcDbEntity
  8
A-WALL
100
AcDbLine
 10
144.1388842106309
 20
-24.6625314487475
 30
0.0
 11
144.6860429822256
 21
-24.11537267715292
 31
0.0
  0
LINE
  5
132
330
17
100
AcDbEntity
  8
A-WALL
100
AcDbLine
 10
144.6860429822256
 20
-24.11537267715292
 30
0.0
 11
144.7664263204509
 21
-24.19575601537825
 31
0.0
  0
LINE
  5
133
330
17
100
AcDbEntity
  8
A-WALL
100
AcDbLine
 10
144.7664263204509
 20
-24.19575601537825
 30
0.0
 11
144.1388842106309
 21
-24.8232981251981
 31
0.0
  0
LINE
  5
134
330
17
100
AcDbEntity
  8
A-WALL
100
AcDbLine
 10
144.1388842106309
 20
-24.8232981251981
 30
0.0
 11
143.5113421008109
 21
-24.19575601537787
 31
0.0
  0
LINE
  5
135
330
17
100
AcDbEntity
  8
A-WALL
100
AcDbLine
 10
143.5113421008109
 20
-24.19575601537787
 30
0.0
 11
143.5917254390361
 21
-24.11537267715259
 31
0.0
  0
LINE
  5
136
330
17
100
AcDbEntity
  8
A-WALL
100
AcDbLine
 10
143.5917254390361
 20
-24.11537267715259
 30
0.0
 11
144.1388842106309
 21
-24.6625314487475
 31
0.0
  0
LINE
  5
137
330
17
100
AcDbEntity
  8
A-WALL
100
AcDbLine
 10
143.551161006637
 20
-24.07480824475333
 30
0.0
 11
143.4707776684129
 21
-24.15519158297867
 31
0.0
  0
LINE
  5
138
330
17
100
AcDbEntity
  8
A-WALL
100
AcDbLine
 10
143.4707776684129
 20
-24.15519158297867
 30
0.0
 11
142.4910441555412
 21
-23.17545807005222
 31
0.0
  0
LINE
  5
139
330
17
100
AcDbEntity
  8
A-WALL
100
AcDbLine
 10
142.4910441555412
 20
-23.17545807005222
 30
0.0
 11
143.2765558264415
 21
-23.17545807005222
 31
0.0
  0
LINE
  5
13A
330
17
100
AcDbEntity
  8
A-WALL
100
AcDbLine
 10
143.2765558264415
 20
-23.17545807005222
 30
0.0
 11
142.8837999909908
 21
-22.78270223465324
 31
0.0
  0
LINE
  5
13B
330
17
100
AcDbEntity
  8
A-WALL
100
AcDbLine
 10
142.8837999909908
 20
-22.78270223465324
 30
0.0
 11
143.8300783383394
 21
-22.78270223465324
 31
0.0
  0
LINE
  5
13C
330
17
100
AcDbEntity
  8
A-WALL
100
AcDbLine
 10
143.8300783383394
 20
-22.78270223465324
 30
0.0
 11
143.0445666674402
 21
-23.56821390554954
 31
0.0
  0
LINE
  5
13D
330
17
100
AcDbEntity
  8
A-WALL
100
AcDbLine
 10
143.0445666674402
 20
-23.56821390554954
 30
0.0
 11
143.551161006637
 21
-24.07480824475333
 31
0.0
  0
LINE
  5
13E
330
17
100
AcDbEntity
  8
A-WALL
100
AcDbLine
 10
144.1388842106309
 20
-22.76094977010595
 30
0.0
 11
144.9461483460821
 21
-23.56821390556476
 31
0.0
  0
LINE
  5
13F
330
17
100
AcDbEntity
  8
A-WALL
100
AcDbLine
 10
144.9461483460821
 20
-23.56821390556476
 30
0.0
 11
144.1388842106309
 21
-24.37547804100838
 31
0.0
  0
LINE
  5
140
330
17
100
AcDbEntity
  8
A-WALL
100
AcDbLine
 10
144.1388842106309
 20
-24.37547804100838
 30
0.0
 11
143.3316200751797
 21
-23.56821390554954
 31
0.0
  0
LINE
  5
141
330
17
100
AcDbEntity
  8
A-WALL
100
AcDbLine
 10
143.3316200751797
 20
-23.56821390554954
 30
0.0
 11
144.1388842106309
 21
-22.76094977010595
 31
0.0
  0
LINE
  5
142
330
17
100
AcDbEntity
  8
A-WALL
100
AcDbLine
 10
146.6390671454667
 20
-25.29186598890201
 30
0.0
 11
145.9224932141974
 21
-25.29186598890201
 31
0.0
  0
LINE
  5
143
330
17
100
AcDbEntity
  8
A-WALL
100
AcDbLine
 10
145.9224932141974
 20
-25.29186598890201
 30
0.0
 11
146.6386959068718
 21
-24.57566329622761
 31
0.0
  0
LINE
  5
144
330
17
100
AcDbEntity
  8
A-WALL
100
AcDbLine
 10
142.4657323929104
 20
-23.30771003876285
 30
0.0
 11
141.7015625720958
 21
-22.54354021799255
 31
0.0
  0
LINE
  5
145
330
17
100
AcDbEntity
  8
A-WALL
100
AcDbLine
 10
141.7015625720957
 20
-22.63454138305178
 30
0.0
 11
142.3580887461024
 21
-23.29106755705132
 31
0.0
  0
LINE
  5
146
330
17
100
AcDbEntity
  8
A-WALL
100
AcDbLine
 10
142.3580887461024
 20
-23.29106755705132
 30
0.0
 11
141.7015625720957
 21
-23.94759373106524
 31
0.0
  0
LINE
  5
147
330
17
100
AcDbEntity
  8
A-WALL
100
AcDbLine
 10
141.7015625720957
 20
-24.07187985962189
 30
0.0
 11
142.4657323929104
 21
-23.30771003876285
 31
0.0
  0
LINE
  5
148
330
17
100
AcDbEntity
  8
A-WALL
100
AcDbLine
 10
142.2690922926889
 20
-23.29106755705132
 30
0.0
 11
141.7015625720957
 21
-22.72353783647985
 31
0.0
  0
LINE
  5
149
330
17
100
AcDbEntity
  8
A-WALL
100
AcDbLine
 10
141.7015625720957
 20
-22.8350760558607
 30
0.0
 11
142.1575540733059
 21
-23.29106755705132
 31
0.0
  0
LINE
  5
14A
330
17
100
AcDbEntity
  8
A-WALL
100
AcDbLine
 10
142.1575540733059
 20
-23.29106755705132
 30
0.0
 11
141.7015625720958
 21
-23.74705905828088
 31
0.0
  0
LINE
  5
14B
330
17
100
AcDbEntity
  8
A-WALL
100
AcDbLine
 10
141.7015625720957
 20
-23.85859727766616
 30
0.0
 11
142.2690922926889
 21
-23.29106755705132
 31
0.0
  0
LINE
  5
14C
330
17
100
AcDbEntity
  8
A-WALL
100
AcDbLine
 10
142.0685576199266
 20
-23.29106755705132
 30
0.0
 11
141.7015625720958
 21
-22.92407250922245
 31
0.0
  0
LINE
  5
14D
330
17
100
AcDbEntity
  8
A-WALL
100
AcDbLine
 10
141.7015625720957
 20
-23.04276043931075
 30
0.0
 11
141.9498696898364
 21
-23.29106755705132
 31
0.0
  0
LINE
  5
14E
330
17
100
AcDbEntity
  8
A-WALL
100
AcDbLine
 10
141.9498696898364
 20
-23.29106755705132
 30
0.0
 11
141.7015625720957
 21
-23.53937467479206
 31
0.0
  0
LINE
  5
14F
330
17
100
AcDbEntity
  8
A-WALL
100
AcDbLine
 10
141.7015625720958
 20
-23.65806260488417
 30
0.0
 11
142.0685576199266
 21
-23.29106755705132
 31
0.0
  0
LINE
  5
150
330
17
100
AcDbEntity
  8
A-WALL
100
AcDbLine
 10
145.9389896315779
 20
-23.20061651826825
 30
0.0
 11
146.5765717188376
 21
-23.83819860552802
 31
0.0
  0
LINE
  5
151
330
17
100
AcDbEntity
  8
A-WALL
100
AcDbLine
 10
146.5765717188376
 20
-23.74920215213113
 30
0.0
 11
146.0279860849747
 21
-23.20061651826825
 31
0.0
  0
LINE
  5
152
330
17
100
AcDbEntity
  8
A-WALL
100
AcDbLine
 10
146.0279860849747
 20
-23.20061651826825
 30
0.0
 11
146.5765717188376
 21
-22.65203088440492
 31
0.0
  0
LINE
  5
153
330
17
100
AcDbEntity
  8
A-WALL
100
AcDbLine
 10
146.5765717188377
 20
-23.93010422972198
 30
0.0
 11
145.8308937552024
 21
-23.18442626608672
 31
0.0
  0
LINE
  5
154
330
17
100
AcDbEntity
  8
A-WALL
100
AcDbLine
 10
145.8308937552024
 20
-23.18442626608672
 30
0.0
 11
146.5485689658063
 21
-22.46675105548283
 31
0.0
  0
LINE
  5
155
330
17
100
AcDbEntity
  8
A-WALL
100
AcDbLine
 10
146.5485689658063
 20
-22.46675105548283
 30
0.0
 11
146.5765717188377
 21
-22.49475380851446
 31
0.0
  0
LINE
  5
156
330
17
100
AcDbEntity
  8
A-WALL
100
AcDbLine
 10
146.5765717188377
 20
-22.56303443100799
 30
0.0
 11
145.9389896315779
 21
-23.20061651826825
 31
0.0
  0
LINE
  5
157
330
17
100
AcDbEntity
  8
A-WALL
100
AcDbLine
 10
146.6107120300843
 20
-24.053240994366
 30
0.0
 11
146.5319211151389
 21
-24.13203190931182
 31
0.0
  0
LINE
  5
158
330
17
100
AcDbEntity
  8
A-WALL
100
AcDbLine
 10
146.5319211151389
 20
-24.13203190931182
 30
0.0
 11
145.7076046135586
 21
-23.30771540773097
 31
0.0
  0
LINE
  5
159
330
17
100
AcDbEntity
  8
A-WALL
100
AcDbLine
 10
145.7076046135586
 20
-23.30771540773097
 30
0.0
 11
145.7863955285039
 21
-23.22892449278516
 31
0.0
  0
LINE
  5
15A
330
17
100
AcDbEntity
  8
A-WALL
100
AcDbLine
 10
145.7863955285039
 20
-23.22892449278516
 30
0.0
 11
146.6107120300843
 21
-24.053240994366
 31
0.0
  0
LINE
  5
15B
330
17
100
AcDbEntity
  8
A-WALL
100
AcDbLine
 10
146.2222793155139
 20
-23.18722536532
 30
0.0
 11
146.5765717188377
 21
-22.83293296199582
 31
0.0
  0
LINE
  5
15C
330
17
100
AcDbEntity
  8
A-WALL
100
AcDbLine
 10
146.5765717188376
 20
-22.74393650859892
 30
0.0
 11
146.133282862117
 21
-23.18722536532001
 31
0.0
  0
LINE
  5
15D
330
17
100
AcDbEntity
  8
A-WALL
100
AcDbLine
 10
146.133282862117
 20
-23.18722536532001
 30
0.0
 11
146.5765717188377
 21
-23.63051422204062
 31
0.0
  0
LINE
  5
15E
330
17
100
AcDbEntity
  8
A-WALL
100
AcDbLine
 10
146.5765717188377
 20
-23.54151776864376
 30
0.0
 11
146.2222793155139
 21
-23.18722536532
 31
0.0
  0
LINE
  5
15F
330
17
100
AcDbEntity
  8
A-WALL
100
AcDbLine
 10
146.6385624061155
 20
-21.06112044926233
 30
0.0
 11
146.2992775115411
 21
-20.72700411812127
 31
0.0
  0
LINE
  5
160
330
17
100
AcDbEntity
  8
A-WALL
100
AcDbLine
 10
146.2992775115411
 20
-20.72700411812127
 30
0.0
 11
146.6390671454667
 21
-20.72700411812126
 31
0.0
  0
CIRCLE
  5
161
330
17
100
AcDbEntity
  8
A-WALL
100
AcDbCircle
 10
142.4719906497155
 20
-24.89266322114965
 30
0.0
 40
0.1113061109157168
  0
CIRCLE
  5
162
330
17
100
AcDbEntity
  8
A-WALL
100
AcDbCircle
 10
145.805428920738
 20
-24.8926632211497
 30
0.0
 40
0.1113061109157168
  0
ARC
  5
163
330
17
100
AcDbEntity
  8
A-WALL
100
AcDbCircle
 10
146.6390671454667
 20
-21.77349800343788
 30
0.0
 40
0.1718624232298773
100
AcDbArc
 50
90.0
 51
270.0
  0
LINE
  5
164
330
17
100
AcDbEntity
  8
0
100
AcDbLine
 10
146.5765717188377
 20
-22.49475380851448
 30
0.0
 11
146.5765717188377
 21
-22.56303443100799
 31
0.0
  0
LINE
  5
165
330
17
100
AcDbEntity
  8
0
100
AcDbLine
 10
146.5765717188377
 20
-22.65203088440488
 30
0.0
 11
146.5765717188377
 21
-22.74393650859885
 31
0.0
  0
LINE
  5
166
330
17
100
AcDbEntity
  8
0
100
AcDbLine
 10
146.5765717188377
 20
-22.83293296199575
 30
0.0
 11
146.5765717188377
 21
-23.54151776864377
 31
0.0
  0
LINE
  5
167
330
17
100
AcDbEntity
  8
0
100
AcDbLine
 10
146.5765717188377
 20
-23.63051422204064
 30
0.0
 11
146.5765717188377
 21
-23.74920215213115
 31
0.0
  0
LINE
  5
168
330
17
100
AcDbEntity
  8
0
100
AcDbLine
 10
146.5765717188377
 20
-23.83819860552804
 30
0.0
 11
146.5765717188377
 21
-23.93010422972198
 31
0.0
  0
LINE
  5
169
330
17
100
AcDbEntity
  8
0
100
AcDbLine
 10
141.7015625720957
 20
-24.17617240473676
 30
0.0
 11
141.7015625720958
 21
-24.0718798596219
 31
0.0
  0
LINE
  5
16A
330
17
100
AcDbEntity
  8
0
100
AcDbLine
 10
141.7015625720957
 20
-23.94759373106524
 30
0.0
 11
141.7015625720957
 21
-23.85859727766616
 31
0.0
  0
LINE
  5
16B
330
17
100
AcDbEntity
  8
0
100
AcDbLine
 10
141.7015625720958
 20
-23.74705905828091
 30
0.0
 11
141.7015625720958
 21
-23.65806260488417
 31
0.0
  0
LINE
  5
16C
330
17
100
AcDbEntity
  8
0
100
AcDbLine
 10
141.7015625720958
 20
-23.5393746747921
 30
0.0
 11
141.7015625720958
 21
-23.04276043931075
 31
0.0
  0
LINE
  5
16D
330
17
100
AcDbEntity
  8
0
100
AcDbLine
 10
141.7015625720957
 20
-22.92407250922244
 30
0.0
 11
141.7015625720957
 21
-22.83507605586071
 31
0.0
  0
LINE
  5
16E
330
17
100
AcDbEntity
  8
0
100
AcDbLine
 10
141.7015625720957
 20
-22.72353783647984
 30
0.0
 11
141.7015625720957
 21
-22.63454138305178
 31
0.0
  0
LINE
  5
16F
330
17
100
AcDbEntity
  8
0
100
AcDbLine
 10
141.7015625720958
 20
-22.54354021799255
 30
0.0
 11
141.7015625720957
 21
-22.43924767287857
 31
0.0
  0
LINE
  5
170
330
17
100
AcDbEntity
  8
0
 62
11
100
AcDbLine
 10
146.6390671454667
 20
-21.39419544422217
 30
0.0
 11
141.6390671454667
 21
-21.39419544422217
 31
0.0
  0
LINE
  5
171
330
17
100
AcDbEntity
  8
0
 62
11
100
AcDbLine
 10
146.6390671454667
 20
-23.39419544422217
 30
0.0
 11
141.6390671454667
 21
-23.39419544422217
 31
0.0
  0
LWPOLYLINE
  5
172
330
17
100
AcDbEntity
  8
0
 62
11
100
AcDbPolyline
 90
4
 70
0
 10
146.6390671454667
 20
-19.39419544422218
 10
146.6390671454667
 20
-25.39419544422217
 10
141.6390671454667
 20
-25.39419544422217
 10
141.6390671454667
 20
-20.36081165198512
  0
ENDSEC
  0
SECTION
  2
OBJECTS
  0
DICTIONARY
  5
A
330
0
100
AcDbDictionary
281
1
  3
ACAD_COLOR
350
B
  3
ACAD_GROUP
350
C
  3
ACAD_LAYOUT
350
D
  3
ACAD_MATERIAL
350
E
  3
ACAD_MLEADERSTYLE
350
F
  3
ACAD_MLINESTYLE
350
10
  3
ACAD_PLOTSETTINGS
350
11
  3
ACAD_PLOTSTYLENAME
350
12
  3
ACAD_SCALELIST
350
14
  3
ACAD_TABLESTYLE
350
15
  3
ACAD_VISUALSTYLE
350
16
  3
EZDXF_META
350
2D
  0
DICTIONARY
  5
B
330
A
100
AcDbDictionary
281
1
  0
DICTIONARY
  5
C
330
A
100
AcDbDictionary
281
1
  0
DICTIONARY
  5
D
330
A
100
AcDbDictionary
281
1
  3
Model
350
1A
  3
Layout1
350
1E
  0
DICTIONARY
  5
E
330
A
100
AcDbDictionary
281
1
  3
ByBlock
350
1F
  3
ByLayer
350
20
  3
Global
350
21
  0
DICTIONARY
  5
F
330
A
100
AcDbDictionary
281
1
  3
Standard
350
2C
  0
DICTIONARY
  5
10
330
A
100
AcDbDictionary
281
1
  3
Standard
350
22
  0
DICTIONARY
  5
11
330
A
100
AcDbDictionary
281
1
  0
ACDBDICTIONARYWDFLT
  5
12
330
A
100
AcDbDictionary
281
1
  3
Normal
350
13
100
AcDbDictionaryWithDefault
340
13
  0
ACDBPLACEHOLDER
  5
13
330
12
  0
DICTIONARY
  5
14
330
A
100
AcDbDictionary
281
1
  0
DICTIONARY
  5
15
330
A
100
AcDbDictionary
281
1
  0
DICTIONARY
  5
16
330
A
100
AcDbDictionary
281
1
  0
LAYOUT
  5
1A
330
D
100
AcDbPlotSettings
  1

  4
A3
  6

 40
7.5
 41
20.0
 42
7.5
 43
20.0
 44
420.0
 45
297.0
 46
0.0
 47
0.0
 48
0.0
 49
0.0
140
0.0
141
0.0
142
1.0
143
1.0
 70
1024
 72
1
 73
0
 74
5
  7

 75
16
 76
0
 77
2
 78
300
147
1.0
148
0.0
149
0.0
100
AcDbLayout
  1
Model
 70
1
 71
0
 10
0.0
 20
0.0
 11
420.0
 21
297.0
 12
0.0
 22
0.0
 32
0.0
 14
1e+20
 24
1e+20
 34
1e+20
 15
-1e+20
 25
-1e+20
 35
-1e+20
146
0.0
 13
0.0
 23
0.0
 33
0.0
 16
1.0
 26
0.0
 36
0.0
 17
0.0
 27
1.0
 37
0.0
 76
1
330
17
  0
LAYOUT
  5
1E
330
D
100
AcDbPlotSettings
  1

  4
A3
  6

 40
7.5
 41
20.0
 42
7.5
 43
20.0
 44
420.0
 45
297.0
 46
0.0
 47
0.0
 48
0.0
 49
0.0
140
0.0
141
0.0
142
1.0
143
1.0
 70
0
 72
1
 73
0
 74
5
  7

 75
16
 76
0
 77
2
 78
300
147
1.0
148
0.0
149
0.0
100
AcDbLayout
  1
Layout1
 70
1
 71
1
 10
0.0
 20
0.0
 11
420.0
 21
297.0
 12
0.0
 22
0.0
 32
0.0
 14
1e+20
 24
1e+20
 34
1e+20
 15
-1e+20
 25
-1e+20
 35
-1e+20
146
0.0
 13
0.0
 23
0.0
 33
0.0
 16
1.0
 26
0.0
 36
0.0
 17
0.0
 27
1.0
 37
0.0
 76
1
330
1B
  0
MATERIAL
  5
1F
102
{ACAD_REACTORS
330
E
102
}
330
E
100
AcDbMaterial
  1
ByBlock
  2

 70
0
 40
1.0
 71
1
 41
1.0
 91
-1023410177
 42
1.0
 72
1
  3

 73
1
 74
1
 75
1
 44
0.5
 73
0
 45
1.0
 46
1.0
 77
1
  4

 78
1
 79
1
170
1
 48
1.0
171
1
  6

172
1
173
1
174
1
140
1.0
141
1.0
175
1
  7

176
1
177
1
178
1
143
1.0
179
1
  8

270
1
271
1
272
1
145
1.0
146
1.0
273
1
  9

274
1
275
1
276
1
 42
1.0
 72
1
  3

 73
1
 74
1
 75
1
 94
63
  0
MATERIAL
  5
20
102
{ACAD_REACTORS
330
E
102
}
330
E
100
AcDbMaterial
  1
ByLayer
  2

 70
0
 40
1.0
 71
1
 41
1.0
 91
-1023410177
 42
1.0
 72
1
  3

 73
1
 74
1
 75
1
 44
0.5
 73
0
 45
1.0
 46
1.0
 77
1
  4

 78
1
 79
1
170
1
 48
1.0
171
1
  6

172
1
173
1
174
1
140
1.0
141
1.0
175
1
  7

176
1
177
1
178
1
143
1.0
179
1
  8

270
1
271
1
272
1
145
1.0
146
1.0
273
1
  9

274
1
275
1
276
1
 42
1.0
 72
1
  3

 73
1
 74
1
 75
1
 94
63
  0
MATERIAL
  5
21
102
{ACAD_REACTORS
330
E
102
}
330
E
100
AcDbMaterial
  1
Global
  2

 70
0
 40
1.0
 71
1
 41
1.0
 91
-1023410177
 42
1.0
 72
1
  3

 73
1
 74
1
 75
1
 44
0.5
 73
0
 45
1.0
 46
1.0
 77
1
  4

 78
1
 79
1
170
1
 48
1.0
171
1
  6

172
1
173
1
174
1
140
1.0
141
1.0
175
1
  7

176
1
177
1
178
1
143
1.0
179
1
  8

270
1
271
1
272
1
145
1.0
146
1.0
273
1
  9

274
1
275
1
276
1
 42
1.0
 72
1
  3

 73
1
 74
1
 75
1
 94
63
  0
MLINESTYLE
  5
22
102
{ACAD_REACTORS
330
10
102
}
330
10
100
AcDbMlineStyle
  2
Standard
 70
0
  3

 62
256
 51
90.0
 52
90.0
 71
2
 49
0.5
 62
256
  6
BYLAYER
 49
-0.5
 62
256
  6
BYLAYER
  0
MLEADERSTYLE
  5
2C
102
{ACAD_REACTORS
330
F
102
}
330
F
100
AcDbMLeaderStyle
179
2
170
2
171
1
172
0
 90
2
 40
0.0
 41
0.0
173
1
 91
-1056964608
 92
-2
290
1
 42
2.0
291
1
 43
8.0
  3
Standard
 44
4.0
300

342
29
174
1
175
1
176
0
178
1
 93
-1056964608
 45
4.0
292
0
297
0
 46
4.0
 94
-1056964608
 47
1.0
 49
1.0
140
1.0
294
1
141
0.0
177
0
142
1.0
295
0
296
0
143
3.75
271
0
272
9
273
9
  0
DICTIONARY
  5
2D
330
A
100
AcDbDictionary
280
1
281
1
  3
CREATED_BY_EZDXF
350
2E
  3
WRITTEN_BY_EZDXF
350
175
  0
DICTIONARYVAR
  5
2E
330
2D
100
DictionaryVariables
280
0
  1
1.4.4 @ 2026-10-03T07:35:39.362642+00:00
  0
DICTIONARYVAR
  5
175
330
2D
100
DictionaryVariables
280
0
  1
1.4.4 @ 2026-10-03T07:35:39.386803+00:00
  0
ENDSEC
  0
EOF
